0
SECTION
2
HEADER
9
$INSUNITS
70
4
9
$ACADVER
1
AC1014
9
$HANDSEED
5
FFFF
0
ENDSEC
0
SECTION
2
TABLES
0
TABLE
2
VPORT
5
8
100
AcDbSymbolTable
0
ENDTAB
0
TABLE
2
LTYPE
5
5
100
AcDbSymbolTable
70
2
0
LTYPE
5
14
100
AcDbSymbolTableRecord
100
AcDbLinetypeTableRecord
2
BYBLOCK
70
0
0
LTYPE
5
15
100
AcDbSymbolTableRecord
100
AcDbLinetypeTableRecord
2
BYLAYER
70
0
0
ENDTAB
0
TABLE
2
LAYER
5
2
100
AcDbSymbolTable
70
3
0
LAYER
5
50
100
AcDbSymbolTableRecord
100
AcDbLayerTableRecord
2
0
70
0
6
CONTINUOUS
0
LAYER
5
51
100
AcDbSymbolTableRecord
100
AcDbLayerTableRecord
2
CUTOUTS
70
0
62
1
6
CONTINUOUS
0
LAYER
5
52
100
AcDbSymbolTableRecord
100
AcDbLayerTableRecord
2
PERIMETER
70
0
62
5
6
CONTINUOUS
0
ENDTAB
0
TABLE
2
STYLE
5
3
100
AcDbSymbolTable
70
1
0
STYLE
5
11
100
AcDbSymbolTableRecord
100
AcDbTextStyleTableRecord
2
STANDARD
70
0
0
ENDTAB
0
TABLE
2
VIEW
5
6
100
AcDbSymbolTable
0
ENDTAB
0
TABLE
2
UCS
5
7
100
AcDbSymbolTable
0
ENDTAB
0
TABLE
2
APPID
5
9
100
AcDbSymbolTable
70
1
0
APPID
5
12
100
AcDbSymbolTableRecord
100
AcDbRegAppTableRecord
2
ACAD
70
0
0
ENDTAB
0
TABLE
2
DIMSTYLE
5
A
100
AcDbSymbolTable
0
ENDTAB
0
TABLE
2
BLOCK_RECORD
5
1
100
AcDbSymbolTable
70
2
0
BLOCK_RECORD
5
1F
100
AcDbSymbolTableRecord
100
AcDbBlockTableRecord
2
*MODEL_SPACE
0
BLOCK_RECORD
5
1B
100
AcDbSymbolTableRecord
100
AcDbBlockTableRecord
2
*PAPER_SPACE
0
ENDTAB
0
ENDSEC
0
SECTION
2
BLOCKS
0
BLOCK
5
20
100
AcDbEntity
100
AcDbBlockBegin
2
*MODEL_SPACE
0
ENDBLK
5
21
100
AcDbEntity
100
AcDbBlockEnd
0
BLOCK
5
1C
100
AcDbEntity
100
AcDbBlockBegin
2
*PAPER_SPACE
0
ENDBLK
5
1D
100
AcDbEntity
100
AcDbBlockEnd
0
ENDSEC
0
SECTION
2
ENTITIES
0
CIRCLE
5
100
100
AcDbEntity
8
CUTOUTS
100
AcDbCircle
10
-6.5369931689929217e-12
20
127.6918955926614
30
0
40
4.8250000000000908
210
0
220
0
230
1
0
CIRCLE
5
101
100
AcDbEntity
8
CUTOUTS
100
AcDbCircle
10
20.786719571215002
20
-7.709388682997087e-12
30
0
40
1.92500000000003
210
0
220
0
230
1
0
CIRCLE
5
102
100
AcDbEntity
8
CUTOUTS
100
AcDbCircle
10
-20.78671957121486
20
-7.709388682997087e-12
30
0
40
1.9249999999998857
210
0
220
0
230
1
0
ARC
5
103
100
AcDbEntity
8
CUTOUTS
100
AcDbCircle
10
-9.9999999999997158
20
-94.47221813846366
30
0
40
4.9250000000001881
210
0
220
0
230
1
100
AcDbArc
50
-96.042328419056076
51
0
0
LINE
5
104
100
AcDbEntity
8
CUTOUTS
100
AcDbLine
10
-5.0749999999942474
20
-33.74422172758841
30
0
11
-5.0749999999996467
21
-94.472218138463617
31
0
0
ARC
5
105
100
AcDbEntity
8
CUTOUTS
100
AcDbCircle
10
-11.499999999994373
20
-33.74422172758841
30
0
40
6.4250000000001242
210
0
220
0
230
1
100
AcDbArc
50
0
51
71.180936631022234
0
ARC
5
106
100
AcDbEntity
8
CUTOUTS
100
AcDbCircle
10
1.1368683772161603e-12
20
-4.6718184876226587e-12
30
0
40
29.225000000003174
210
0
220
0
230
1
100
AcDbArc
50
243.81906336898885
51
251.18093663102138
0
ARC
5
107
100
AcDbEntity
8
CUTOUTS
100
AcDbCircle
10
-15.72904002578781
20
-31.992495993086543
30
0
40
6.4250000000000629
210
0
220
-0
230
1
100
AcDbArc
50
63.819063368989383
51
134.99999999999955
0
LINE
5
108
100
AcDbEntity
8
CUTOUTS
100
AcDbLine
10
-63.213379164915864
20
-70.390512993966155
30
0
11
-20.272201094911395
21
-27.449334923962887
31
0
0
ARC
5
109
100
AcDbEntity
8
CUTOUTS
100
AcDbCircle
10
-59.730878267571939
20
-73.873013891309995
30
0
40
4.9250000000002023
210
0
220
0
230
1
100
AcDbArc
50
135.00000000000071
51
231.04232841905363
0
ARC
5
10A
100
AcDbEntity
8
CUTOUTS
100
AcDbCircle
10
1.1368683772161603e-12
20
-4.6718184876226587e-12
30
0
40
99.925000000003465
210
0
220
0
230
1
100
AcDbArc
50
231.04232841905437
51
263.95767158094549
0
LINE
5
10B
100
AcDbEntity
8
CUTOUTS
100
AcDbLine
10
-115.36633753453941
20
-5.0750000000057227
30
0
11
-109.95794650683536
21
-5.0750000000057582
31
0
0
ARC
5
10C
100
AcDbEntity
8
CUTOUTS
100
AcDbCircle
10
-115.36633753453941
20
-15.000000000005631
30
0
40
9.9249999999999083
210
0
220
-0
230
1
100
AcDbArc
50
90
51
187.40807259497419
0
ARC
5
10D
100
AcDbEntity
8
CUTOUTS
100
AcDbCircle
10
1.1368683772161603e-12
20
-4.6718184876226587e-12
30
0
40
126.26240514612462
210
0
220
0
230
1
100
AcDbArc
50
187.40807259497194
51
217.59192740502934
0
ARC
5
10E
100
AcDbEntity
8
CUTOUTS
100
AcDbCircle
10
-92.18292130912431
20
-70.969717873535558
30
0
40
9.9249999999999705
210
0
220
0
230
1
100
AcDbArc
50
217.59192740503184
51
314.99999999999955
0
LINE
5
10F
100
AcDbEntity
8
CUTOUTS
100
AcDbLine
10
-81.340576534851436
20
-74.163442705815783
30
0
11
-85.164886505847903
21
-77.987752676812079
31
0
0
ARC
5
110
100
AcDbEntity
8
CUTOUTS
100
AcDbCircle
10
1.1368683772161603e-12
20
-4.6718184876226587e-12
30
0
40
110.07500000000148
210
0
220
0
230
1
100
AcDbArc
50
182.64255457722842
51
222.35744542277291
0
ARC
5
111
100
AcDbEntity
8
CUTOUTS
100
AcDbCircle
10
59.730878267572223
20
-73.873013891309228
30
0
40
4.9250000000014378
210
-0
220
0
230
1
100
AcDbArc
50
-51.04232841905516
51
45.000000000000419
0
LINE
5
112
100
AcDbEntity
8
CUTOUTS
100
AcDbLine
10
20.272201094922053
20
-27.449334923957487
30
0
11
63.213379164916006
21
-70.390512993965359
31
0
0
ARC
5
113
100
AcDbEntity
8
CUTOUTS
100
AcDbCircle
10
15.729040025798326
20
-31.992495993081089
30
0
40
6.4250000000000362
210
0
220
-0
230
1
100
AcDbArc
50
45.000000000000121
51
116.18093663103181
0
ARC
5
114
100
AcDbEntity
8
CUTOUTS
100
AcDbCircle
10
1.1368683772161603e-12
20
-4.6718184876226587e-12
30
0
40
29.225000000002371
210
-0
220
0
230
1
100
AcDbArc
50
288.81906336899391
51
296.18093663102599
0
ARC
5
115
100
AcDbEntity
8
CUTOUTS
100
AcDbCircle
10
11.500000000005741
20
-33.74422172758436
30
0
40
6.4250000000000185
210
0
220
0
230
1
100
AcDbArc
50
108.81906336899944
51
180
0
LINE
5
116
100
AcDbEntity
8
CUTOUTS
100
AcDbLine
10
5.075000000000216
20
-94.472218138463518
30
0
11
5.0750000000058995
21
-33.744221727584396
31
0
0
ARC
5
117
100
AcDbEntity
8
CUTOUTS
100
AcDbCircle
10
10.000000000000284
20
-94.472218138463546
30
0
40
4.9250000000002103
210
0
220
0
230
1
100
AcDbArc
50
180
51
276.04232841905269
0
ARC
5
118
100
AcDbEntity
8
CUTOUTS
100
AcDbCircle
10
1.1368683772161603e-12
20
-4.6718184876226587e-12
30
0
40
99.925000000003052
210
-0
220
0
230
1
100
AcDbArc
50
276.04232841905349
51
308.95767158094503
0
ARC
5
119
100
AcDbEntity
8
CUTOUTS
100
AcDbCircle
10
1.1368683772161603e-12
20
-4.6718184876226587e-12
30
0
40
110.07499999999901
210
0
220
0
230
1
100
AcDbArc
50
137.64255457722962
51
177.35744542277271
0
LINE
5
11A
100
AcDbEntity
8
CUTOUTS
100
AcDbLine
10
-85.164886505854724
20
77.987752676803026
30
0
11
-81.340576534852858
21
74.163442705801145
31
0
0
ARC
5
11B
100
AcDbEntity
8
CUTOUTS
100
AcDbCircle
10
-92.182921309131132
20
70.969717873526562
30
0
40
9.924999999999935
210
0
220
-0
230
1
100
AcDbArc
50
45.000000000000227
51
142.40807259497342
0
ARC
5
11C
100
AcDbEntity
8
CUTOUTS
100
AcDbCircle
10
1.1368683772161603e-12
20
-4.6718184876226587e-12
30
0
40
126.26240514612786
210
0
220
0
230
1
100
AcDbArc
50
142.40807259497277
51
172.59192740502948
0
ARC
5
11D
100
AcDbEntity
8
CUTOUTS
100
AcDbCircle
10
-115.36633753454083
20
14.999999999994333
30
0
40
9.9250000000000362
210
0
220
0
230
1
100
AcDbArc
50
172.59192740503198
51
270
0
LINE
5
11E
100
AcDbEntity
8
CUTOUTS
100
AcDbLine
10
-109.95794650683308
20
5.0749999999943363
30
0
11
-115.36633753454083
21
5.0749999999943185
31
0
0
ARC
5
11F
100
AcDbEntity
8
CUTOUTS
100
AcDbCircle
10
33.74422172758301
20
-11.499999999994426
30
0
40
6.4250000000000185
210
0
220
-0
230
1
100
AcDbArc
50
90
51
161.18093663103372
0
LINE
5
120
100
AcDbEntity
8
CUTOUTS
100
AcDbLine
10
33.74422172758301
20
-5.0749999999944073
30
0
11
94.47221813845573
21
-5.0750000000061322
31
0
0
ARC
5
121
100
AcDbEntity
8
CUTOUTS
100
AcDbCircle
10
94.47221813845573
20
-10.000000000006128
30
0
40
4.925000000001984
210
-0
220
0
230
1
100
AcDbArc
50
-6.0423284190532192
51
90
0
ARC
5
122
100
AcDbEntity
8
CUTOUTS
100
AcDbCircle
10
1.1368683772161603e-12
20
-4.6718184876226587e-12
30
0
40
99.925000000000665
210
-0
220
0
230
1
100
AcDbArc
50
321.04232841905275
51
353.95767158094509
0
ARC
5
123
100
AcDbEntity
8
CUTOUTS
100
AcDbCircle
10
73.873013891302719
20
-59.730878267578404
30
0
40
4.9249999999999012
210
0
220
0
230
1
100
AcDbArc
50
225.00000000000057
51
321.04232841905355
0
LINE
5
124
100
AcDbEntity
8
CUTOUTS
100
AcDbLine
10
70.390512993959078
20
-63.213379164922117
30
0
11
27.449334923960151
21
-20.272201094908482
31
0
0
ARC
5
125
100
AcDbEntity
8
CUTOUTS
100
AcDbCircle
10
31.992495993083736
20
-15.729040025784897
30
0
40
6.4249999999999972
210
0
220
0
230
1
100
AcDbArc
50
153.81906336900747
51
224.99999999999974
0
ARC
5
126
100
AcDbEntity
8
CUTOUTS
100
AcDbCircle
10
1.1368683772161603e-12
20
-4.6718184876226587e-12
30
0
40
29.225000000000033
210
-0
220
0
230
1
100
AcDbArc
50
333.81906336900084
51
341.18093663102826
0
ARC
5
127
100
AcDbEntity
8
CUTOUTS
100
AcDbCircle
10
1.1368683772161603e-12
20
-4.6718184876226587e-12
30
0
40
110.07499999999708
210
0
220
0
230
1
100
AcDbArc
50
92.642554577231436
51
132.35744542277365
0
LINE
5
128
100
AcDbEntity
8
CUTOUTS
100
AcDbLine
10
-74.163442705807938
20
81.340576534843649
30
0
11
-77.987752676812079
21
85.164886505847647
31
0
0
ARC
5
129
100
AcDbEntity
8
CUTOUTS
100
AcDbCircle
10
-70.969717873535672
20
92.182921309124112
30
0
40
9.924999999999951
210
0
220
0
230
1
100
AcDbArc
50
127.59192740502924
51
225.00000000000023
0
ARC
5
12A
100
AcDbEntity
8
CUTOUTS
100
AcDbCircle
10
1.1368683772161603e-12
20
-4.6718184876226587e-12
30
0
40
126.26240514612887
210
0
220
0
230
1
100
AcDbArc
50
97.408072594974385
51
127.59192740503042
0
ARC
5
12B
100
AcDbEntity
8
CUTOUTS
100
AcDbCircle
10
-15.000000000005684
20
115.3663375345393
30
0
40
9.9250000000000682
210
0
220
0
230
1
100
AcDbArc
50
0
51
97.408072594974314
0
LINE
5
12C
100
AcDbEntity
8
CUTOUTS
100
AcDbLine
10
-5.0750000000056161
20
115.3663375345393
30
0
11
-5.0750000000056161
21
109.95794650682714
31
0
0
ARC
5
12D
100
AcDbEntity
8
CUTOUTS
100
AcDbCircle
10
1.1368683772161603e-12
20
-4.6718184876226587e-12
30
0
40
29.224999999997628
210
0
220
-0
230
1
100
AcDbArc
50
18.819063369005818
51
26.180936631026341
0
ARC
5
12E
100
AcDbEntity
8
CUTOUTS
100
AcDbCircle
10
31.99249599307322
20
15.729040025790706
30
0
40
6.4249999999999741
210
0
220
0
230
1
100
AcDbArc
50
135.00000000000045
51
206.18093663103133
0
LINE
5
12F
100
AcDbEntity
8
CUTOUTS
100
AcDbLine
10
27.449334923949635
20
20.27220109491422
30
0
11
70.390512993957515
21
63.21337916490846
31
0
0
ARC
5
130
100
AcDbEntity
8
CUTOUTS
100
AcDbCircle
10
73.873013891301298
20
59.730878267564719
30
0
40
4.9250000000012726
210
0
220
-0
230
1
100
AcDbArc
50
38.957671580947675
51
135.0000000000004
0
ARC
5
131
100
AcDbEntity
8
CUTOUTS
100
AcDbCircle
10
1.1368683772161603e-12
20
-4.6718184876226587e-12
30
0
40
99.924999999998221
210
0
220
-0
230
1
100
AcDbArc
50
6.0423284190533861
51
38.957671580945842
0
ARC
5
132
100
AcDbEntity
8
CUTOUTS
100
AcDbCircle
10
94.472218138455446
20
9.9999999999938538
30
0
40
4.9249999999999972
210
-0
220
0
230
1
100
AcDbArc
50
-90
51
6.0423284190551989
0
LINE
5
133
100
AcDbEntity
8
CUTOUTS
100
AcDbLine
10
94.472218138455446
20
5.0749999999938566
30
0
11
33.744221727573915
21
5.075000000005617
31
0
0
ARC
5
134
100
AcDbEntity
8
CUTOUTS
100
AcDbCircle
10
33.744221727573915
20
11.500000000005564
30
0
40
6.4249999999999883
210
0
220
0
230
1
100
AcDbArc
50
198.81906336901017
51
270
0
LINE
5
135
100
AcDbEntity
8
CUTOUTS
100
AcDbLine
10
77.987752676803126
20
85.164886505854639
30
0
11
74.163442705800691
21
81.34057653485209
31
0
0
ARC
5
136
100
AcDbEntity
8
CUTOUTS
100
AcDbCircle
10
70.969717873526577
20
92.182921309131132
30
0
40
9.925000000000054
210
-0
220
0
230
1
100
AcDbArc
50
-44.999999999999751
51
52.408072594974435
0
ARC
5
137
100
AcDbEntity
8
CUTOUTS
100
AcDbCircle
10
1.1368683772161603e-12
20
-4.6718184876226587e-12
30
0
40
126.26240514612719
210
0
220
-0
230
1
100
AcDbArc
50
52.408072594975891
51
82.591927405032251
0
ARC
5
138
100
AcDbEntity
8
CUTOUTS
100
AcDbCircle
10
14.999999999994316
20
115.36633753454078
30
0
40
9.9250000000000629
210
0
220
-0
230
1
100
AcDbArc
50
82.591927405032365
51
180
0
LINE
5
139
100
AcDbEntity
8
CUTOUTS
100
AcDbLine
10
5.0749999999942474
20
109.95794650682754
30
0
11
5.0749999999945317
21
115.36633753454078
31
0
0
ARC
5
13A
100
AcDbEntity
8
CUTOUTS
100
AcDbCircle
10
1.1368683772161603e-12
20
-4.6718184876226587e-12
30
0
40
110.07499999999686
210
0
220
-0
230
1
100
AcDbArc
50
47.642554577233
51
87.357445422775641
0
ARC
5
13B
100
AcDbEntity
8
CUTOUTS
100
AcDbCircle
10
-94.472218138456299
20
-10.000000000007123
30
0
40
4.9250000000000149
210
0
220
-0
230
1
100
AcDbArc
50
90
51
186.0423284190538
0
ARC
5
13C
100
AcDbEntity
8
CUTOUTS
100
AcDbCircle
10
1.1368683772161603e-12
20
-4.6718184876226587e-12
30
0
40
99.925000000001759
210
0
220
0
230
1
100
AcDbArc
50
186.04232841905531
51
218.95767158094637
0
ARC
5
13D
100
AcDbEntity
8
CUTOUTS
100
AcDbCircle
10
-73.873013891303003
20
-59.730878267578724
30
0
40
4.9249999999999954
210
0
220
0
230
1
100
AcDbArc
50
218.95767158094509
51
314.99999999999864
0
LINE
5
13E
100
AcDbEntity
8
CUTOUTS
100
AcDbLine
10
-27.449334923955178
20
-20.272201094919939
30
0
11
-70.390512993959362
21
-63.213379164922543
31
0
0
ARC
5
13F
100
AcDbEntity
8
CUTOUTS
100
AcDbCircle
10
-31.992495993078762
20
-15.729040025796301
30
0
40
6.425000000000062
210
-0
220
0
230
1
100
AcDbArc
50
-45.000000000000355
51
26.180936631014067
0
ARC
5
140
100
AcDbEntity
8
CUTOUTS
100
AcDbCircle
10
1.1368683772161603e-12
20
-4.6718184876226587e-12
30
0
40
29.225000000002254
210
0
220
0
230
1
100
AcDbArc
50
198.81906336898922
51
206.18093663101683
0
ARC
5
141
100
AcDbEntity
8
CUTOUTS
100
AcDbCircle
10
-33.7442217275796
20
-11.500000000005652
30
0
40
6.4249999999999128
210
0
220
-0
230
1
100
AcDbArc
50
18.819063368984636
51
90
0
LINE
5
142
100
AcDbEntity
8
CUTOUTS
100
AcDbLine
10
-94.472218138456299
20
-5.0750000000071083
30
0
11
-33.7442217275796
21
-5.0750000000056348
31
0
0
ARC
5
143
100
AcDbEntity
8
CUTOUTS
100
AcDbCircle
10
-73.873013891302435
20
59.730878267564016
30
0
40
4.924999999999927
210
0
220
-0
230
1
100
AcDbArc
50
45.000000000000881
51
141.04232841905429
0
ARC
5
144
100
AcDbEntity
8
CUTOUTS
100
AcDbCircle
10
1.1368683772161603e-12
20
-4.6718184876226587e-12
30
0
40
99.924999999999216
210
0
220
0
230
1
100
AcDbArc
50
141.04232841905576
51
173.95767158094742
0
ARC
5
145
100
AcDbEntity
8
CUTOUTS
100
AcDbCircle
10
-94.472218138456014
20
9.999999999992859
30
0
40
4.9249999999999901
210
0
220
0
230
1
100
AcDbArc
50
173.95767158094597
51
270
0
LINE
5
146
100
AcDbEntity
8
CUTOUTS
100
AcDbLine
10
-33.744221727578179
20
5.0749999999943363
30
0
11
-94.472218138456014
21
5.0749999999928628
31
0
0
ARC
5
147
100
AcDbEntity
8
CUTOUTS
100
AcDbCircle
10
-33.744221727578179
20
11.499999999994337
30
0
40
6.4250000000000007
210
-0
220
0
230
1
100
AcDbArc
50
270
51
341.18093663100927
0
ARC
5
148
100
AcDbEntity
8
CUTOUTS
100
AcDbCircle
10
1.1368683772161603e-12
20
-4.6718184876226587e-12
30
0
40
29.224999999999749
210
0
220
0
230
1
100
AcDbArc
50
153.81906336899445
51
161.18093663101496
0
ARC
5
149
100
AcDbEntity
8
CUTOUTS
100
AcDbCircle
10
-31.992495993078762
20
15.729040025780385
30
0
40
6.4249999999999909
210
-0
220
0
230
1
100
AcDbArc
50
-26.180936631012521
51
45.000000000001116
0
LINE
5
14A
100
AcDbEntity
8
CUTOUTS
100
AcDbLine
10
-70.390512993958794
20
63.213379164907764
30
0
11
-27.449334923955462
21
20.272201094903863
31
0
0
ARC
5
14B
100
AcDbEntity
8
CUTOUTS
100
AcDbCircle
10
-10.000000000000853
20
94.47221813844817
30
0
40
4.9250000000000682
210
0
220
0
230
1
100
AcDbArc
50
0
51
96.042328419052893
0
ARC
5
14C
100
AcDbEntity
8
CUTOUTS
100
AcDbCircle
10
1.1368683772161603e-12
20
-4.6718184876226587e-12
30
0
40
99.924999999997212
210
0
220
0
230
1
100
AcDbArc
50
96.042328419055352
51
128.95767158094739
0
ARC
5
14D
100
AcDbEntity
8
CUTOUTS
100
AcDbCircle
10
-59.73087826757137
20
73.873013891295116
30
0
40
4.9250000000000105
210
0
220
0
230
1
100
AcDbArc
50
128.95767158094765
51
225.00000000000142
0
LINE
5
14E
100
AcDbEntity
8
CUTOUTS
100
AcDbLine
10
-20.272201094912248
20
27.449334923947344
30
0
11
-63.213379164915011
21
70.39051299395129
31
0
0
ARC
5
14F
100
AcDbEntity
8
CUTOUTS
100
AcDbCircle
10
-15.729040025788663
20
31.992495993070786
30
0
40
6.4249999999999226
210
0
220
0
230
1
100
AcDbArc
50
224.99999999999909
51
296.18093663101206
0
ARC
5
150
100
AcDbEntity
8
CUTOUTS
100
AcDbCircle
10
1.1368683772161603e-12
20
-4.6718184876226587e-12
30
0
40
29.22499999999749
210
0
220
0
230
1
100
AcDbArc
50
108.81906336900188
51
116.18093663101791
0
ARC
5
151
100
AcDbEntity
8
CUTOUTS
100
AcDbCircle
10
-11.500000000005741
20
33.744221727569119
30
0
40
6.425000000000006
210
-0
220
0
230
1
100
AcDbArc
50
-71.180936631003107
51
0
0
LINE
5
152
100
AcDbEntity
8
CUTOUTS
100
AcDbLine
10
-5.0750000000007844
20
94.47221813844817
30
0
11
-5.0750000000056152
21
33.744221727569119
31
0
0
ARC
5
153
100
AcDbEntity
8
CUTOUTS
100
AcDbCircle
10
1.1368683772161603e-12
20
-4.6718184876226587e-12
30
0
40
29.224999999996566
210
0
220
-0
230
1
100
AcDbArc
50
63.819063369006109
51
71.180936631021524
0
ARC
5
154
100
AcDbEntity
8
CUTOUTS
100
AcDbCircle
10
15.729040025777294
20
31.992495993076062
30
0
40
6.4250000000000593
210
0
220
0
230
1
100
AcDbArc
50
243.81906336900661
51
314.99999999999727
0
LINE
5
155
100
AcDbEntity
8
CUTOUTS
100
AcDbLine
10
63.213379164914016
20
70.390512993951717
30
0
11
20.272201094900879
21
27.449334923952371
31
0
0
ARC
5
156
100
AcDbEntity
8
CUTOUTS
100
AcDbCircle
10
59.730878267570233
20
73.873013891295514
30
0
40
4.9250000000000647
210
-0
220
0
230
1
100
AcDbArc
50
-45.000000000000099
51
51.042328419054982
0
ARC
5
157
100
AcDbEntity
8
CUTOUTS
100
AcDbCircle
10
1.1368683772161603e-12
20
-4.6718184876226587e-12
30
0
40
99.924999999996828
210
0
220
-0
230
1
100
AcDbArc
50
51.042328419054378
51
83.957671580946723
0
ARC
5
158
100
AcDbEntity
8
CUTOUTS
100
AcDbCircle
10
9.9999999999991473
20
94.472218138448284
30
0
40
4.9250000000000638
210
0
220
-0
230
1
100
AcDbArc
50
83.957671580943824
51
180
0
LINE
5
159
100
AcDbEntity
8
CUTOUTS
100
AcDbLine
10
5.0749999999945317
20
33.744221727572778
30
0
11
5.0749999999993625
21
94.472218138448284
31
0
0
ARC
5
15A
100
AcDbEntity
8
CUTOUTS
100
AcDbCircle
10
11.499999999994373
20
33.744221727572778
30
0
40
6.4249999999999829
210
0
220
0
230
1
100
AcDbArc
50
180
51
251.18093663102053
0
ARC
5
15B
100
AcDbEntity
8
CUTOUTS
100
AcDbCircle
10
1.1368683772161603e-12
20
-4.6718184876226587e-12
30
0
40
2.6249999999980118
210
0
220
0
230
1
100
AcDbArc
50
-237.95364054608115
51
57.953640546068378
0
LINE
5
15C
100
AcDbEntity
8
CUTOUTS
100
AcDbLine
10
-1.392838827718208
20
2.2249999999923986
30
0
11
1.3928388277210502
21
2.2249999999922032
31
0
0
ARC
5
15D
100
AcDbEntity
8
CUTOUTS
100
AcDbCircle
10
115.36633753453941
20
15.000000000005542
30
0
40
9.9249999999999439
210
-0
220
0
230
1
100
AcDbArc
50
-90
51
7.40807259497429
0
LINE
5
15E
100
AcDbEntity
8
CUTOUTS
100
AcDbLine
10
115.36633753453941
20
5.0750000000055984
30
0
11
109.95794650683408
21
5.0750000000056694
31
0
0
ARC
5
15F
100
AcDbEntity
8
CUTOUTS
100
AcDbCircle
10
1.1368683772161603e-12
20
-4.6718184876226587e-12
30
0
40
110.07499999999835
210
0
220
-0
230
1
100
AcDbArc
50
2.6425545772332484
51
42.357445422777147
0
LINE
5
160
100
AcDbEntity
8
CUTOUTS
100
AcDbLine
10
81.340576534845894
20
74.163442705810382
30
0
11
85.164886505847619
21
77.987752676812079
31
0
0
ARC
5
161
100
AcDbEntity
8
CUTOUTS
100
AcDbCircle
10
92.182921309124168
20
70.9697178735357
30
0
40
9.9249999999999154
210
0
220
-0
230
1
100
AcDbArc
50
37.59192740503137
51
135.00000000000077
0
ARC
5
162
100
AcDbEntity
8
CUTOUTS
100
AcDbCircle
10
1.1368683772161603e-12
20
-4.6718184876226587e-12
30
0
40
126.26240514612346
210
0
220
-0
230
1
100
AcDbArc
50
7.4080725949762138
51
37.591927405033474
0
ARC
5
163
100
AcDbEntity
8
CUTOUTS
100
AcDbCircle
10
1.1368683772161603e-12
20
-4.6718184876226587e-12
30
0
40
126.2624051461203
210
-0
220
0
230
1
100
AcDbArc
50
322.40807259497547
51
352.59192740503357
0
ARC
5
164
100
AcDbEntity
8
CUTOUTS
100
AcDbCircle
10
115.36633753454083
20
-14.999999999994404
30
0
40
9.924999999999903
210
-0
220
0
230
1
100
AcDbArc
50
-7.4080725949684583
51
90
0
LINE
5
165
100
AcDbEntity
8
CUTOUTS
100
AcDbLine
10
109.95794650683777
20
-5.0749999999944961
30
0
11
115.36633753454083
21
-5.0749999999944961
31
0
0
ARC
5
166
100
AcDbEntity
8
CUTOUTS
100
AcDbCircle
10
1.1368683772161603e-12
20
-4.6718184876226587e-12
30
0
40
110.07500000000094
210
-0
220
0
230
1
100
AcDbArc
50
317.64255457723215
51
357.35744542277752
0
LINE
5
167
100
AcDbEntity
8
CUTOUTS
100
AcDbLine
10
85.164886505854582
20
-77.987752676803055
30
0
11
81.340576534859821
21
-74.163442705808251
31
0
0
ARC
5
168
100
AcDbEntity
8
CUTOUTS
100
AcDbCircle
10
92.182921309131132
20
-70.969717873526719
30
0
40
9.9249999999999421
210
0
220
0
230
1
100
AcDbArc
50
224.99999999999912
51
322.4080725949741
0
ARC
5
169
100
AcDbEntity
8
CUTOUTS
100
AcDbCircle
10
1.1368683772161603e-12
20
-4.6718184876226587e-12
30
0
40
126.26240514611933
210
-0
220
0
230
1
100
AcDbArc
50
277.40807259497393
51
307.59192740503227
0
ARC
5
16A
100
AcDbEntity
8
CUTOUTS
100
AcDbCircle
10
15.000000000005684
20
-115.36633753453934
30
0
40
9.9250000000002103
210
0
220
0
230
1
100
AcDbArc
50
180
51
277.40807259497353
0
LINE
5
16B
100
AcDbEntity
8
CUTOUTS
100
AcDbLine
10
5.0750000000056161
20
-115.3663375345393
30
0
11
5.0750000000056161
21
-109.95794650684239
31
0
0
ARC
5
16C
100
AcDbEntity
8
CUTOUTS
100
AcDbCircle
10
1.1368683772161603e-12
20
-4.6718184876226587e-12
30
0
40
110.07500000000286
210
-0
220
0
230
1
100
AcDbArc
50
272.64255457723016
51
312.35744542277649
0
LINE
5
16D
100
AcDbEntity
8
CUTOUTS
100
AcDbLine
10
74.16344270581817
20
-81.340576534853568
30
0
11
77.987752676812079
21
-85.164886505847619
31
0
0
ARC
5
16E
100
AcDbEntity
8
CUTOUTS
100
AcDbCircle
10
70.969717873535529
20
-92.182921309124282
30
0
40
9.92500000000007
210
-0
220
0
230
1
100
AcDbArc
50
-52.408072594968104
51
45.000000000000398
0
ARC
5
16F
100
AcDbEntity
8
CUTOUTS
100
AcDbCircle
10
1.1368683772161603e-12
20
-4.6718184876226587e-12
30
0
40
126.26240514612105
210
0
220
0
230
1
100
AcDbArc
50
232.4080725949724
51
262.59192740503079
0
ARC
5
170
100
AcDbEntity
8
CUTOUTS
100
AcDbCircle
10
-14.999999999994316
20
-115.36633753454083
30
0
40
9.924999999999887
210
0
220
0
230
1
100
AcDbArc
50
-97.408072594967805
51
0
0
LINE
5
171
100
AcDbEntity
8
CUTOUTS
100
AcDbLine
10
-5.0749999999945317
20
-109.95794650684306
30
0
11
-5.0749999999945317
21
-115.36633753454083
31
0
0
ARC
5
172
100
AcDbEntity
8
CUTOUTS
100
AcDbCircle
10
1.1368683772161603e-12
20
-4.6718184876226587e-12
30
0
40
110.07500000000331
210
0
220
0
230
1
100
AcDbArc
50
227.64255457722874
51
267.35744542277445
0
LINE
5
173
100
AcDbEntity
8
CUTOUTS
100
AcDbLine
10
-77.987752676802984
20
-85.164886505854753
30
0
11
-74.163442705808791
21
-81.340576534860745
31
0
0
ARC
5
174
100
AcDbEntity
8
CUTOUTS
100
AcDbCircle
10
-70.969717873526577
20
-92.182921309131132
30
0
40
9.9249999999998657
210
0
220
0
230
1
100
AcDbArc
50
135.00000000000011
51
232.40807259497282
0
CIRCLE
5
175
100
AcDbEntity
8
PERIMETER
100
AcDbCircle
10
0
20
0
30
0
40
136.41240514612412
210
0
220
0
230
1
0
ENDSEC
0
SECTION
2
OBJECTS
0
DICTIONARY
5
C
100
AcDbDictionary
3
ACAD_GROUP
350
D
3
ACAD_MLINESTYLE
350
17
0
DICTIONARY
5
D
100
AcDbDictionary
0
DICTIONARY
5
1A
330
C
100
AcDbDictionary
0
DICTIONARY
5
17
100
AcDbDictionary
0
ENDSEC
0
EOF
