0
SECTION
2
HEADER
9
$INSUNITS
70
4
9
$ACADVER
1
AC1014
9
$HANDSEED
5
FFFF
0
ENDSEC
0
SECTION
2
TABLES
0
TABLE
2
VPORT
5
8
100
AcDbSymbolTable
0
ENDTAB
0
TABLE
2
LTYPE
5
5
100
AcDbSymbolTable
70
2
0
LTYPE
5
14
100
AcDbSymbolTableRecord
100
AcDbLinetypeTableRecord
2
BYBLOCK
70
0
0
LTYPE
5
15
100
AcDbSymbolTableRecord
100
AcDbLinetypeTableRecord
2
BYLAYER
70
0
0
ENDTAB
0
TABLE
2
LAYER
5
2
100
AcDbSymbolTable
70
3
0
LAYER
5
50
100
AcDbSymbolTableRecord
100
AcDbLayerTableRecord
2
0
70
0
6
CONTINUOUS
0
LAYER
5
51
100
AcDbSymbolTableRecord
100
AcDbLayerTableRecord
2
CUTOUTS
70
0
62
1
6
CONTINUOUS
0
LAYER
5
52
100
AcDbSymbolTableRecord
100
AcDbLayerTableRecord
2
PERIMETER
70
0
62
5
6
CONTINUOUS
0
ENDTAB
0
TABLE
2
STYLE
5
3
100
AcDbSymbolTable
70
1
0
STYLE
5
11
100
AcDbSymbolTableRecord
100
AcDbTextStyleTableRecord
2
STANDARD
70
0
0
ENDTAB
0
TABLE
2
VIEW
5
6
100
AcDbSymbolTable
0
ENDTAB
0
TABLE
2
UCS
5
7
100
AcDbSymbolTable
0
ENDTAB
0
TABLE
2
APPID
5
9
100
AcDbSymbolTable
70
1
0
APPID
5
12
100
AcDbSymbolTableRecord
100
AcDbRegAppTableRecord
2
ACAD
70
0
0
ENDTAB
0
TABLE
2
DIMSTYLE
5
A
100
AcDbSymbolTable
0
ENDTAB
0
TABLE
2
BLOCK_RECORD
5
1
100
AcDbSymbolTable
70
2
0
BLOCK_RECORD
5
1F
100
AcDbSymbolTableRecord
100
AcDbBlockTableRecord
2
*MODEL_SPACE
0
BLOCK_RECORD
5
1B
100
AcDbSymbolTableRecord
100
AcDbBlockTableRecord
2
*PAPER_SPACE
0
ENDTAB
0
ENDSEC
0
SECTION
2
BLOCKS
0
BLOCK
5
20
100
AcDbEntity
100
AcDbBlockBegin
2
*MODEL_SPACE
0
ENDBLK
5
21
100
AcDbEntity
100
AcDbBlockEnd
0
BLOCK
5
1C
100
AcDbEntity
100
AcDbBlockBegin
2
*PAPER_SPACE
0
ENDBLK
5
1D
100
AcDbEntity
100
AcDbBlockEnd
0
ENDSEC
0
SECTION
2
ENTITIES
0
LINE
5
100
100
AcDbEntity
8
PERIMETER
100
AcDbLine
10
38.07500000000033
20
210.07500000000005
30
0
11
38.07500000000033
21
213.07500000000005
31
0
0
LINE
5
101
100
AcDbEntity
8
PERIMETER
100
AcDbLine
10
38.07500000000033
20
213.07500000000005
30
0
11
7.9250000000004661
21
213.07500000000005
31
0
0
LINE
5
102
100
AcDbEntity
8
PERIMETER
100
AcDbLine
10
7.9250000000004661
20
213.07500000000005
30
0
11
7.9250000000004661
21
210.07500000000005
31
0
0
LINE
5
103
100
AcDbEntity
8
PERIMETER
100
AcDbLine
10
7.9250000000004661
20
210.07500000000005
30
0
11
-16.92499999999967
21
210.07500000000005
31
0
0
LINE
5
104
100
AcDbEntity
8
PERIMETER
100
AcDbLine
10
-16.92499999999967
20
210.07500000000005
30
0
11
-16.92499999999967
21
213.07500000000005
31
0
0
LINE
5
105
100
AcDbEntity
8
PERIMETER
100
AcDbLine
10
-16.92499999999967
20
213.07500000000005
30
0
11
-47.074999999999534
21
213.07500000000005
31
0
0
LINE
5
106
100
AcDbEntity
8
PERIMETER
100
AcDbLine
10
-47.074999999999534
20
213.07500000000005
30
0
11
-47.074999999999534
21
210.07500000000005
31
0
0
LINE
5
107
100
AcDbEntity
8
PERIMETER
100
AcDbLine
10
-47.074999999999534
20
210.07500000000007
30
0
11
-71.92499999999967
21
210.07500000000007
31
0
0
LINE
5
108
100
AcDbEntity
8
PERIMETER
100
AcDbLine
10
-71.92499999999967
20
210.07500000000007
30
0
11
-71.92499999999967
21
213.07500000000007
31
0
0
LINE
5
109
100
AcDbEntity
8
PERIMETER
100
AcDbLine
10
-71.92499999999967
20
213.07500000000005
30
0
11
-102.07499999999953
21
213.07500000000005
31
0
0
LINE
5
10A
100
AcDbEntity
8
PERIMETER
100
AcDbLine
10
-102.07499999999953
20
213.07500000000005
30
0
11
-102.07499999999953
21
210.07500000000005
31
0
0
LINE
5
10B
100
AcDbEntity
8
PERIMETER
100
AcDbLine
10
-102.07499999999953
20
210.07500000000007
30
0
11
-126.92499999999967
21
210.07500000000007
31
0
0
LINE
5
10C
100
AcDbEntity
8
PERIMETER
100
AcDbLine
10
-126.92499999999967
20
210.07500000000007
30
0
11
-126.92499999999967
21
213.07500000000007
31
0
0
LINE
5
10D
100
AcDbEntity
8
PERIMETER
100
AcDbLine
10
-126.92499999999967
20
213.07500000000005
30
0
11
-157.07499999999953
21
213.07500000000005
31
0
0
LINE
5
10E
100
AcDbEntity
8
PERIMETER
100
AcDbLine
10
-157.07499999999953
20
213.07500000000007
30
0
11
-157.07499999999953
21
210.07500000000007
31
0
0
LINE
5
10F
100
AcDbEntity
8
PERIMETER
100
AcDbLine
10
-157.07499999999953
20
210.07500000000007
30
0
11
-181.92499999999967
21
210.07500000000007
31
0
0
LINE
5
110
100
AcDbEntity
8
PERIMETER
100
AcDbLine
10
-181.92499999999967
20
210.07500000000007
30
0
11
-181.92499999999967
21
213.07500000000007
31
0
0
LINE
5
111
100
AcDbEntity
8
PERIMETER
100
AcDbLine
10
-181.92499999999967
20
213.07500000000007
30
0
11
-203.07499999999948
21
213.07500000000007
31
0
0
LINE
5
112
100
AcDbEntity
8
PERIMETER
100
AcDbLine
10
-203.07499999999948
20
213.07500000000007
30
0
11
-203.07499999999948
21
182.92500000000001
31
0
0
LINE
5
113
100
AcDbEntity
8
PERIMETER
100
AcDbLine
10
-203.07499999999948
20
182.92500000000001
30
0
11
-200.07499999999965
21
182.92500000000001
31
0
0
LINE
5
114
100
AcDbEntity
8
PERIMETER
100
AcDbLine
10
-200.07499999999965
20
182.92500000000001
30
0
11
-200.07499999999965
21
158.07500000000002
31
0
0
LINE
5
115
100
AcDbEntity
8
PERIMETER
100
AcDbLine
10
-200.07499999999965
20
158.07500000000002
30
0
11
-203.07499999999948
21
158.07500000000002
31
0
0
LINE
5
116
100
AcDbEntity
8
PERIMETER
100
AcDbLine
10
-203.07499999999948
20
158.07500000000002
30
0
11
-203.07499999999948
21
127.92500000000001
31
0
0
LINE
5
117
100
AcDbEntity
8
PERIMETER
100
AcDbLine
10
-203.07499999999948
20
127.92500000000001
30
0
11
-200.07499999999965
21
127.92500000000001
31
0
0
LINE
5
118
100
AcDbEntity
8
PERIMETER
100
AcDbLine
10
-200.07499999999965
20
127.92500000000001
30
0
11
-200.07499999999965
21
103.07500000000002
31
0
0
LINE
5
119
100
AcDbEntity
8
PERIMETER
100
AcDbLine
10
-200.07499999999965
20
103.07500000000003
30
0
11
-203.07499999999948
21
103.07500000000003
31
0
0
LINE
5
11A
100
AcDbEntity
8
PERIMETER
100
AcDbLine
10
-203.07499999999948
20
103.07500000000003
30
0
11
-203.07499999999948
21
72.925000000000026
31
0
0
LINE
5
11B
100
AcDbEntity
8
PERIMETER
100
AcDbLine
10
-203.07499999999948
20
72.925000000000026
30
0
11
-200.07499999999965
21
72.925000000000026
31
0
0
LINE
5
11C
100
AcDbEntity
8
PERIMETER
100
AcDbLine
10
-200.07499999999965
20
72.925000000000026
30
0
11
-200.07499999999965
21
48.075000000000038
31
0
0
LINE
5
11D
100
AcDbEntity
8
PERIMETER
100
AcDbLine
10
-200.07499999999965
20
48.075000000000031
30
0
11
-203.07499999999948
21
48.075000000000031
31
0
0
LINE
5
11E
100
AcDbEntity
8
PERIMETER
100
AcDbLine
10
-203.07499999999948
20
48.075000000000031
30
0
11
-203.07499999999948
21
17.92500000000004
31
0
0
LINE
5
11F
100
AcDbEntity
8
PERIMETER
100
AcDbLine
10
-203.07499999999948
20
17.92500000000004
30
0
11
-200.07499999999965
21
17.925000000000022
31
0
0
LINE
5
120
100
AcDbEntity
8
PERIMETER
100
AcDbLine
10
-200.07499999999965
20
17.925000000000022
30
0
11
-200.07499999999965
21
-6.9249999999999723
31
0
0
LINE
5
121
100
AcDbEntity
8
PERIMETER
100
AcDbLine
10
-200.07499999999965
20
-6.9249999999999723
30
0
11
-203.07499999999948
21
-6.9249999999999545
31
0
0
LINE
5
122
100
AcDbEntity
8
PERIMETER
100
AcDbLine
10
-203.07499999999948
20
-6.9249999999999545
30
0
11
-203.07499999999976
21
-37.07499999999996
31
0
0
LINE
5
123
100
AcDbEntity
8
PERIMETER
100
AcDbLine
10
-203.07499999999976
20
-37.074999999999974
30
0
11
-200.07499999999993
21
-37.074999999999974
31
0
0
LINE
5
124
100
AcDbEntity
8
PERIMETER
100
AcDbLine
10
-200.07499999999993
20
-37.074999999999974
30
0
11
-200.07499999999993
21
-61.924999999999969
31
0
0
LINE
5
125
100
AcDbEntity
8
PERIMETER
100
AcDbLine
10
-200.07499999999993
20
-61.924999999999969
30
0
11
-203.07499999999976
21
-61.924999999999969
31
0
0
LINE
5
126
100
AcDbEntity
8
PERIMETER
100
AcDbLine
10
-203.07499999999976
20
-61.924999999999969
30
0
11
-203.07499999999976
21
-92.074999999999974
31
0
0
LINE
5
127
100
AcDbEntity
8
PERIMETER
100
AcDbLine
10
-203.07499999999976
20
-92.074999999999974
30
0
11
-200.07499999999993
21
-92.074999999999974
31
0
0
LINE
5
128
100
AcDbEntity
8
PERIMETER
100
AcDbLine
10
-200.07499999999993
20
-92.074999999999974
30
0
11
-200.07499999999993
21
-116.92499999999997
31
0
0
LINE
5
129
100
AcDbEntity
8
PERIMETER
100
AcDbLine
10
-200.07499999999993
20
-116.92499999999997
30
0
11
-203.07499999999976
21
-116.92499999999994
31
0
0
LINE
5
12A
100
AcDbEntity
8
PERIMETER
100
AcDbLine
10
-203.07499999999976
20
-116.92499999999994
30
0
11
-203.07499999999976
21
-147.07499999999993
31
0
0
LINE
5
12B
100
AcDbEntity
8
PERIMETER
100
AcDbLine
10
-203.07499999999976
20
-147.07499999999993
30
0
11
-200.07499999999993
21
-147.07499999999993
31
0
0
LINE
5
12C
100
AcDbEntity
8
PERIMETER
100
AcDbLine
10
-200.07499999999993
20
-147.07499999999993
30
0
11
-200.07499999999993
21
-171.92499999999995
31
0
0
LINE
5
12D
100
AcDbEntity
8
PERIMETER
100
AcDbLine
10
-200.07499999999993
20
-171.92499999999995
30
0
11
-203.07499999999976
21
-171.92499999999995
31
0
0
LINE
5
12E
100
AcDbEntity
8
PERIMETER
100
AcDbLine
10
-203.07499999999976
20
-171.92499999999995
30
0
11
-203.07500000000005
21
-213.0750000000001
31
0
0
LINE
5
12F
100
AcDbEntity
8
PERIMETER
100
AcDbLine
10
-203.07500000000005
20
-213.07500000000005
30
0
11
-181.92499999999967
21
-213.07500000000005
31
0
0
LINE
5
130
100
AcDbEntity
8
PERIMETER
100
AcDbLine
10
-181.92499999999967
20
-213.07500000000005
30
0
11
-181.92499999999967
21
-210.07499999999999
31
0
0
LINE
5
131
100
AcDbEntity
8
PERIMETER
100
AcDbLine
10
-181.92499999999967
20
-210.07499999999999
30
0
11
-157.07499999999953
21
-210.07499999999999
31
0
0
LINE
5
132
100
AcDbEntity
8
PERIMETER
100
AcDbLine
10
-157.07499999999953
20
-210.07499999999999
30
0
11
-157.07499999999953
21
-213.07500000000005
31
0
0
LINE
5
133
100
AcDbEntity
8
PERIMETER
100
AcDbLine
10
-157.07499999999953
20
-213.07500000000005
30
0
11
-126.92499999999967
21
-213.07500000000005
31
0
0
LINE
5
134
100
AcDbEntity
8
PERIMETER
100
AcDbLine
10
-126.92499999999967
20
-213.07500000000005
30
0
11
-126.92499999999967
21
-210.07499999999999
31
0
0
LINE
5
135
100
AcDbEntity
8
PERIMETER
100
AcDbLine
10
-126.92499999999967
20
-210.07499999999999
30
0
11
-102.07499999999953
21
-210.07499999999999
31
0
0
LINE
5
136
100
AcDbEntity
8
PERIMETER
100
AcDbLine
10
-102.07499999999953
20
-210.07499999999999
30
0
11
-102.07499999999953
21
-213.07500000000005
31
0
0
LINE
5
137
100
AcDbEntity
8
PERIMETER
100
AcDbLine
10
-102.07499999999953
20
-213.07500000000005
30
0
11
-71.92499999999967
21
-213.07500000000005
31
0
0
LINE
5
138
100
AcDbEntity
8
PERIMETER
100
AcDbLine
10
-71.92499999999967
20
-213.07500000000005
30
0
11
-71.92499999999967
21
-210.07499999999999
31
0
0
LINE
5
139
100
AcDbEntity
8
PERIMETER
100
AcDbLine
10
-71.92499999999967
20
-210.07499999999999
30
0
11
-47.074999999999534
21
-210.07499999999999
31
0
0
LINE
5
13A
100
AcDbEntity
8
PERIMETER
100
AcDbLine
10
-47.074999999999534
20
-210.07499999999999
30
0
11
-47.074999999999534
21
-213.07500000000005
31
0
0
LINE
5
13B
100
AcDbEntity
8
PERIMETER
100
AcDbLine
10
-47.074999999999534
20
-213.07500000000005
30
0
11
-16.92499999999967
21
-213.07500000000005
31
0
0
LINE
5
13C
100
AcDbEntity
8
PERIMETER
100
AcDbLine
10
-16.92499999999967
20
-213.07500000000005
30
0
11
-16.92499999999967
21
-210.07499999999999
31
0
0
LINE
5
13D
100
AcDbEntity
8
PERIMETER
100
AcDbLine
10
-16.92499999999967
20
-210.07499999999999
30
0
11
7.9250000000004661
21
-210.07499999999999
31
0
0
LINE
5
13E
100
AcDbEntity
8
PERIMETER
100
AcDbLine
10
7.9250000000004661
20
-210.07499999999999
30
0
11
7.9250000000004661
21
-213.07500000000005
31
0
0
LINE
5
13F
100
AcDbEntity
8
PERIMETER
100
AcDbLine
10
7.9250000000004661
20
-213.07500000000005
30
0
11
38.07500000000033
21
-213.07500000000005
31
0
0
LINE
5
140
100
AcDbEntity
8
PERIMETER
100
AcDbLine
10
38.07500000000033
20
-213.0750000000001
30
0
11
38.07500000000033
21
-210.07500000000007
31
0
0
LINE
5
141
100
AcDbEntity
8
PERIMETER
100
AcDbLine
10
38.07500000000033
20
-210.07500000000007
30
0
11
62.925000000000466
21
-210.07500000000007
31
0
0
LINE
5
142
100
AcDbEntity
8
PERIMETER
100
AcDbLine
10
62.925000000000466
20
-210.07500000000007
30
0
11
62.925000000000466
21
-213.0750000000001
31
0
0
LINE
5
143
100
AcDbEntity
8
PERIMETER
100
AcDbLine
10
62.925000000000466
20
-213.0750000000001
30
0
11
93.07500000000033
21
-213.0750000000001
31
0
0
LINE
5
144
100
AcDbEntity
8
PERIMETER
100
AcDbLine
10
93.07500000000033
20
-213.0750000000001
30
0
11
93.07500000000033
21
-210.07500000000007
31
0
0
LINE
5
145
100
AcDbEntity
8
PERIMETER
100
AcDbLine
10
93.07500000000033
20
-210.07500000000007
30
0
11
117.92500000000047
21
-210.07500000000007
31
0
0
LINE
5
146
100
AcDbEntity
8
PERIMETER
100
AcDbLine
10
117.92500000000047
20
-210.07500000000007
30
0
11
117.92500000000047
21
-213.0750000000001
31
0
0
LINE
5
147
100
AcDbEntity
8
PERIMETER
100
AcDbLine
10
117.92500000000047
20
-213.0750000000001
30
0
11
148.07500000000033
21
-213.0750000000001
31
0
0
LINE
5
148
100
AcDbEntity
8
PERIMETER
100
AcDbLine
10
148.07500000000033
20
-213.0750000000001
30
0
11
148.07500000000033
21
-210.07500000000007
31
0
0
LINE
5
149
100
AcDbEntity
8
PERIMETER
100
AcDbLine
10
148.07500000000033
20
-210.07500000000007
30
0
11
172.92500000000047
21
-210.07500000000007
31
0
0
LINE
5
14A
100
AcDbEntity
8
PERIMETER
100
AcDbLine
10
172.92500000000047
20
-210.07500000000007
30
0
11
172.92500000000047
21
-213.0750000000001
31
0
0
LINE
5
14B
100
AcDbEntity
8
PERIMETER
100
AcDbLine
10
172.92500000000047
20
-213.0750000000001
30
0
11
203.07500000000033
21
-213.07499999999999
31
0
0
LINE
5
14C
100
AcDbEntity
8
PERIMETER
100
AcDbLine
10
203.07500000000033
20
-213.07499999999999
30
0
11
203.07500000000033
21
-171.92499999999995
31
0
0
LINE
5
14D
100
AcDbEntity
8
PERIMETER
100
AcDbLine
10
203.07500000000033
20
-171.92499999999995
30
0
11
200.0750000000005
21
-171.92499999999995
31
0
0
LINE
5
14E
100
AcDbEntity
8
PERIMETER
100
AcDbLine
10
200.0750000000005
20
-171.92499999999995
30
0
11
200.0750000000005
21
-147.07499999999996
31
0
0
LINE
5
14F
100
AcDbEntity
8
PERIMETER
100
AcDbLine
10
200.0750000000005
20
-147.07499999999993
30
0
11
203.07500000000033
21
-147.07499999999993
31
0
0
LINE
5
150
100
AcDbEntity
8
PERIMETER
100
AcDbLine
10
203.07500000000033
20
-147.07499999999993
30
0
11
203.07500000000033
21
-116.92499999999994
31
0
0
LINE
5
151
100
AcDbEntity
8
PERIMETER
100
AcDbLine
10
203.07500000000033
20
-116.92499999999994
30
0
11
200.0750000000005
21
-116.92499999999994
31
0
0
LINE
5
152
100
AcDbEntity
8
PERIMETER
100
AcDbLine
10
200.0750000000005
20
-116.92499999999994
30
0
11
200.0750000000005
21
-92.074999999999946
31
0
0
LINE
5
153
100
AcDbEntity
8
PERIMETER
100
AcDbLine
10
200.0750000000005
20
-92.074999999999946
30
0
11
203.07500000000033
21
-92.074999999999974
31
0
0
LINE
5
154
100
AcDbEntity
8
PERIMETER
100
AcDbLine
10
203.07500000000033
20
-92.074999999999974
30
0
11
203.07500000000033
21
-61.924999999999969
31
0
0
LINE
5
155
100
AcDbEntity
8
PERIMETER
100
AcDbLine
10
203.07500000000033
20
-61.924999999999969
30
0
11
200.0750000000005
21
-61.924999999999969
31
0
0
LINE
5
156
100
AcDbEntity
8
PERIMETER
100
AcDbLine
10
200.0750000000005
20
-61.924999999999969
30
0
11
200.0750000000005
21
-37.074999999999974
31
0
0
LINE
5
157
100
AcDbEntity
8
PERIMETER
100
AcDbLine
10
200.0750000000005
20
-37.074999999999974
30
0
11
203.07500000000033
21
-37.074999999999974
31
0
0
LINE
5
158
100
AcDbEntity
8
PERIMETER
100
AcDbLine
10
203.07500000000033
20
-37.074999999999974
30
0
11
203.07500000000019
21
-6.9249999999999723
31
0
0
LINE
5
159
100
AcDbEntity
8
PERIMETER
100
AcDbLine
10
203.07500000000019
20
-6.9249999999999545
30
0
11
200.07500000000022
21
-6.9249999999999545
31
0
0
LINE
5
15A
100
AcDbEntity
8
PERIMETER
100
AcDbLine
10
200.07500000000022
20
-6.9249999999999545
30
0
11
200.07500000000022
21
17.92500000000004
31
0
0
LINE
5
15B
100
AcDbEntity
8
PERIMETER
100
AcDbLine
10
200.07500000000022
20
17.92500000000004
30
0
11
203.07500000000033
21
17.925000000000022
31
0
0
LINE
5
15C
100
AcDbEntity
8
PERIMETER
100
AcDbLine
10
203.07500000000033
20
17.925000000000022
30
0
11
203.07500000000033
21
48.07500000000001
31
0
0
LINE
5
15D
100
AcDbEntity
8
PERIMETER
100
AcDbLine
10
203.07500000000033
20
48.07500000000001
30
0
11
200.07500000000022
21
48.075000000000031
31
0
0
LINE
5
15E
100
AcDbEntity
8
PERIMETER
100
AcDbLine
10
200.07500000000022
20
48.075000000000031
30
0
11
200.07500000000022
21
72.925000000000026
31
0
0
LINE
5
15F
100
AcDbEntity
8
PERIMETER
100
AcDbLine
10
200.07500000000022
20
72.925000000000011
30
0
11
203.07500000000033
21
72.925000000000011
31
0
0
LINE
5
160
100
AcDbEntity
8
PERIMETER
100
AcDbLine
10
203.07500000000033
20
72.925000000000011
30
0
11
203.07500000000033
21
103.07500000000002
31
0
0
LINE
5
161
100
AcDbEntity
8
PERIMETER
100
AcDbLine
10
203.07500000000033
20
103.07500000000002
30
0
11
200.07500000000022
21
103.07500000000002
31
0
0
LINE
5
162
100
AcDbEntity
8
PERIMETER
100
AcDbLine
10
200.07500000000022
20
103.07500000000002
30
0
11
200.07500000000022
21
127.92500000000001
31
0
0
LINE
5
163
100
AcDbEntity
8
PERIMETER
100
AcDbLine
10
200.07500000000022
20
127.92500000000001
30
0
11
203.07500000000033
21
127.92500000000001
31
0
0
LINE
5
164
100
AcDbEntity
8
PERIMETER
100
AcDbLine
10
203.07500000000033
20
127.92500000000001
30
0
11
203.07500000000033
21
158.07500000000002
31
0
0
LINE
5
165
100
AcDbEntity
8
PERIMETER
100
AcDbLine
10
203.07500000000033
20
158.07499999999999
30
0
11
200.07500000000022
21
158.07499999999999
31
0
0
LINE
5
166
100
AcDbEntity
8
PERIMETER
100
AcDbLine
10
200.07500000000022
20
158.07499999999999
30
0
11
200.07500000000022
21
182.92499999999995
31
0
0
LINE
5
167
100
AcDbEntity
8
PERIMETER
100
AcDbLine
10
200.07500000000022
20
182.92499999999995
30
0
11
203.07500000000033
21
182.92499999999995
31
0
0
LINE
5
168
100
AcDbEntity
8
PERIMETER
100
AcDbLine
10
203.07500000000033
20
182.92499999999995
30
0
11
203.07500000000047
21
213.07500000000002
31
0
0
LINE
5
169
100
AcDbEntity
8
PERIMETER
100
AcDbLine
10
203.07500000000047
20
213.07500000000002
30
0
11
172.92500000000047
21
213.07500000000002
31
0
0
LINE
5
16A
100
AcDbEntity
8
PERIMETER
100
AcDbLine
10
172.92500000000047
20
213.07500000000002
30
0
11
172.92500000000047
21
210.07499999999999
31
0
0
LINE
5
16B
100
AcDbEntity
8
PERIMETER
100
AcDbLine
10
172.92500000000047
20
210.07499999999999
30
0
11
148.07500000000033
21
210.07499999999999
31
0
0
LINE
5
16C
100
AcDbEntity
8
PERIMETER
100
AcDbLine
10
148.07500000000033
20
210.07500000000005
30
0
11
148.07500000000033
21
213.07500000000005
31
0
0
LINE
5
16D
100
AcDbEntity
8
PERIMETER
100
AcDbLine
10
148.07500000000033
20
213.07500000000005
30
0
11
117.92500000000047
21
213.07500000000005
31
0
0
LINE
5
16E
100
AcDbEntity
8
PERIMETER
100
AcDbLine
10
117.92500000000047
20
213.07500000000005
30
0
11
117.92500000000047
21
210.07500000000005
31
0
0
LINE
5
16F
100
AcDbEntity
8
PERIMETER
100
AcDbLine
10
117.92500000000047
20
210.07500000000005
30
0
11
93.07500000000033
21
210.07500000000005
31
0
0
LINE
5
170
100
AcDbEntity
8
PERIMETER
100
AcDbLine
10
93.07500000000033
20
210.07500000000005
30
0
11
93.07500000000033
21
213.07500000000005
31
0
0
LINE
5
171
100
AcDbEntity
8
PERIMETER
100
AcDbLine
10
93.07500000000033
20
213.07500000000005
30
0
11
62.925000000000466
21
213.07500000000005
31
0
0
LINE
5
172
100
AcDbEntity
8
PERIMETER
100
AcDbLine
10
62.925000000000466
20
213.07500000000005
30
0
11
62.925000000000466
21
210.07500000000005
31
0
0
LINE
5
173
100
AcDbEntity
8
PERIMETER
100
AcDbLine
10
62.925000000000466
20
210.07500000000005
30
0
11
38.07500000000033
21
210.07500000000005
31
0
0
ENDSEC
0
SECTION
2
OBJECTS
0
DICTIONARY
5
C
100
AcDbDictionary
3
ACAD_GROUP
350
D
3
ACAD_MLINESTYLE
350
17
0
DICTIONARY
5
D
100
AcDbDictionary
0
DICTIONARY
5
1A
330
C
100
AcDbDictionary
0
DICTIONARY
5
17
100
AcDbDictionary
0
ENDSEC
0
EOF
