0
SECTION
2
HEADER
9
$INSUNITS
70
4
9
$ACADVER
1
AC1014
9
$HANDSEED
5
FFFF
0
ENDSEC
0
SECTION
2
TABLES
0
TABLE
2
VPORT
5
8
100
AcDbSymbolTable
0
ENDTAB
0
TABLE
2
LTYPE
5
5
100
AcDbSymbolTable
70
2
0
LTYPE
5
14
100
AcDbSymbolTableRecord
100
AcDbLinetypeTableRecord
2
BYBLOCK
70
0
0
LTYPE
5
15
100
AcDbSymbolTableRecord
100
AcDbLinetypeTableRecord
2
BYLAYER
70
0
0
ENDTAB
0
TABLE
2
LAYER
5
2
100
AcDbSymbolTable
70
3
0
LAYER
5
50
100
AcDbSymbolTableRecord
100
AcDbLayerTableRecord
2
0
70
0
6
CONTINUOUS
0
LAYER
5
51
100
AcDbSymbolTableRecord
100
AcDbLayerTableRecord
2
CUTOUTS
70
0
62
1
6
CONTINUOUS
0
LAYER
5
52
100
AcDbSymbolTableRecord
100
AcDbLayerTableRecord
2
PERIMETER
70
0
62
5
6
CONTINUOUS
0
ENDTAB
0
TABLE
2
STYLE
5
3
100
AcDbSymbolTable
70
1
0
STYLE
5
11
100
AcDbSymbolTableRecord
100
AcDbTextStyleTableRecord
2
STANDARD
70
0
0
ENDTAB
0
TABLE
2
VIEW
5
6
100
AcDbSymbolTable
0
ENDTAB
0
TABLE
2
UCS
5
7
100
AcDbSymbolTable
0
ENDTAB
0
TABLE
2
APPID
5
9
100
AcDbSymbolTable
70
1
0
APPID
5
12
100
AcDbSymbolTableRecord
100
AcDbRegAppTableRecord
2
ACAD
70
0
0
ENDTAB
0
TABLE
2
DIMSTYLE
5
A
100
AcDbSymbolTable
0
ENDTAB
0
TABLE
2
BLOCK_RECORD
5
1
100
AcDbSymbolTable
70
2
0
BLOCK_RECORD
5
1F
100
AcDbSymbolTableRecord
100
AcDbBlockTableRecord
2
*MODEL_SPACE
0
BLOCK_RECORD
5
1B
100
AcDbSymbolTableRecord
100
AcDbBlockTableRecord
2
*PAPER_SPACE
0
ENDTAB
0
ENDSEC
0
SECTION
2
BLOCKS
0
BLOCK
5
20
100
AcDbEntity
100
AcDbBlockBegin
2
*MODEL_SPACE
0
ENDBLK
5
21
100
AcDbEntity
100
AcDbBlockEnd
0
BLOCK
5
1C
100
AcDbEntity
100
AcDbBlockBegin
2
*PAPER_SPACE
0
ENDBLK
5
1D
100
AcDbEntity
100
AcDbBlockEnd
0
ENDSEC
0
SECTION
2
ENTITIES
0
SPLINE
5
100
100
AcDbEntity
8
CUTOUTS
100
AcDbSpline
70
0
71
3
72
29
73
25
74
0
42
0.000000001
43
0.0000000001
44
0.0000000001
40
0.00036742971469876074
40
0.00036742971469876074
40
0.00036742971469876074
40
0.00036742971469876074
40
0.054672808575351707
40
0.054672808575351707
40
0.054672808575351707
40
0.11250433828701878
40
0.11250433828701878
40
0.11250433828701878
40
0.17726210507163898
40
0.17726210507163898
40
0.17726210507163898
40
0.25533036862820402
40
0.25533036862820402
40
0.25533036862820402
40
0.3290979154744913
40
0.3290979154744913
40
0.3290979154744913
40
0.36624460098079564
40
0.36624460098079564
40
0.36624460098079564
40
0.40090918429367661
40
0.40090918429367661
40
0.40090918429367661
40
0.40156061110922209
40
0.40156061110922209
40
0.40156061110922209
40
0.40156061110922209
10
101.00088234812695
20
236.98567287071413
30
0
10
100.86747159803217
20
236.87759891942929
30
0
10
100.71513904690107
20
236.79530869409115
30
0
10
100.55159419875281
20
236.74302986539021
30
0
10
100.37742942696049
20
236.68735626653728
30
0
10
100.19399509930835
20
236.6668160205964
30
0
10
100.01178558335002
20
236.68250595508934
30
0
10
99.807616391562561
20
236.70008682197093
30
0
10
99.662956943379228
20
236.75672670783996
30
0
10
99.545921738533252
20
236.81749212738336
30
0
10
99.406356854588751
20
236.88995509899584
30
0
10
99.281917897996721
20
236.98831897112086
30
0
10
99.179211368117308
20
237.10739263418924
30
0
10
99.082145050056425
20
237.21992727113621
30
0
10
98.997084266228583
20
237.35967332010523
30
0
10
98.94568913976218
20
237.51628556929626
30
0
10
98.91981257025239
20
237.59513716536986
30
0
10
98.902966253702544
20
237.67665503559454
30
0
10
98.895496737262008
20
237.75928785042154
30
0
10
98.8885263350885
20
237.83639912752437
30
0
10
98.889763309741141
20
237.91401941834374
30
0
10
98.899200210540812
20
237.99085754146961
30
0
10
98.899389734405929
20
237.9924007025553
30
0
10
98.899579258271046
20
237.99394386364099
30
0
10
98.899768782136164
20
237.99548702472663
30
0
0
ARC
5
101
100
AcDbEntity
8
CUTOUTS
100
AcDbCircle
10
99.999999999999119
20
237.99999999999977
30
0
40
1.1002404735809834
210
0
220
0
230
1
100
AcDbArc
50
134.24990584563167
51
180.23501695083152
0
SPLINE
5
102
100
AcDbEntity
8
CUTOUTS
100
AcDbSpline
70
0
71
3
72
29
73
25
74
0
42
0.000000001
43
0.0000000001
44
0.0000000001
40
-0.00045171927200512822
40
-0.00045171927200512822
40
-0.00045171927200512822
40
-0.00045171927200512822
40
0
40
0
40
0
40
0.046957026657488903
40
0.046957026657488903
40
0.046957026657488903
40
0.09478109884714514
40
0.09478109884714514
40
0.09478109884714514
40
0.12510254893492487
40
0.12510254893492487
40
0.12510254893492487
40
0.15278625788501235
40
0.15278625788501235
40
0.15278625788501235
40
0.17438649819459345
40
0.17438649819459345
40
0.17438649819459345
40
0.18542955251809423
40
0.18542955251809423
40
0.18542955251809423
40
0.19599571359774784
40
0.19599571359774784
40
0.19599571359774784
40
0.19599571359774784
10
99.232263989098541
20
238.78810565108481
30
0
10
99.233206276542518
20
238.78928009560681
30
0
10
99.234148563986651
20
238.7904545401291
30
0
10
99.235090851430812
20
238.79162898465131
30
0
10
99.32693725639254
20
238.90610414599115
30
0
10
99.440202892841853
20
239.00151376725958
30
0
10
99.568610498718968
20
239.07260153152015
30
0
10
99.699389892661117
20
239.14500234191763
30
0
10
99.843241436008583
20
239.19071740497424
30
0
10
99.991869691670416
20
239.20724093834437
30
0
10
100.08680430876552
20
239.21779515837855
30
0
10
100.23563825675853
20
239.2237175108466
30
0
10
100.41430534690792
20
239.18296403345764
30
0
10
100.57728930884022
20
239.14578783496574
30
0
10
100.73131372830562
20
239.07688589468097
30
0
10
100.86769150880087
20
238.98018555405372
30
0
10
100.97460965619184
20
238.90437392818328
30
0
10
101.10208498946068
20
238.79188974142633
30
0
10
101.2170661886541
20
238.60742350855162
30
0
10
101.27581104480996
20
238.51317816764504
30
0
10
101.32329537644654
20
238.4123880705385
30
0
10
101.3585393877991
20
238.30708656959172
30
0
10
101.39226135897462
20
238.2063325962672
30
0
10
101.41455123295174
20
238.10212337225954
30
0
10
101.42499545121275
20
237.99639944173975
30
0
0
ARC
5
103
100
AcDbEntity
8
CUTOUTS
100
AcDbCircle
10
99.999999999999119
20
237.99999999999977
30
0
40
1.4249999999997296
210
-0
220
0
230
1
100
AcDbArc
50
314.61774803245339
51
359.85523016722851
0
SPLINE
5
104
100
AcDbEntity
8
CUTOUTS
100
AcDbSpline
70
0
71
3
72
29
73
25
74
0
42
0.000000001
43
0.0000000001
44
0.0000000001
40
0.00036742971460377455
40
0.00036742971460377455
40
0.00036742971460377455
40
0.00036742971460377455
40
0.054672808575371053
40
0.054672808575371053
40
0.054672808575371053
40
0.11250433828697276
40
0.11250433828697276
40
0.11250433828697276
40
0.17726210507147155
40
0.17726210507147155
40
0.17726210507147155
40
0.25533036862540137
40
0.25533036862540137
40
0.25533036862540137
40
0.3290979154644752
40
0.3290979154644752
40
0.3290979154644752
40
0.36624460096562567
40
0.36624460096562567
40
0.36624460096562567
40
0.40090918427537159
40
0.40090918427537159
40
0.40090918427537159
40
0.40156061109094821
40
0.40156061109094821
40
0.40156061109094821
40
0.40156061109094821
10
-98.999117651866072
20
236.98567287072066
30
0
10
-99.132528401960386
20
236.87759891943469
30
0
10
-99.284860953089577
20
236.79530869409675
30
0
10
-99.448405801235992
20
236.74302986539487
30
0
10
-99.622570573025769
20
236.68735626654112
30
0
10
-99.806004900675191
20
236.66681602059796
30
0
10
-99.988214416633411
20
236.68250595508874
30
0
10
-100.19238360842066
20
236.70008682196789
30
0
10
-100.33704305660908
20
236.75672670783555
30
0
10
-100.45407826145887
20
236.81749212737995
30
0
10
-100.59364314540406
20
236.88995509899158
30
0
10
-100.71808210199542
20
236.98831897111506
30
0
10
-100.82078863187506
20
237.10739263418162
30
0
10
-100.9178549499299
20
237.21992727111967
30
0
10
-101.00291573376441
20
237.35967332008801
30
0
10
-101.05431086023569
20
237.51628556929143
30
0
10
-101.0801874297469
20
237.59513716536802
30
0
10
-101.09703374629525
20
237.67665503558905
30
0
10
-101.1045032627362
20
237.75928785041344
30
0
10
-101.11147366491033
20
237.83639912751698
30
0
10
-101.11023669025805
20
237.91401941833527
30
0
10
-101.10079978945907
20
237.99085754146057
30
0
10
-101.10061026559394
20
237.99240070254643
30
0
10
-101.10042074172881
20
237.99394386363232
30
0
10
-101.10023121786367
20
237.99548702471824
30
0
0
ARC
5
105
100
AcDbEntity
8
CUTOUTS
100
AcDbCircle
10
-100.00000000000099
20
237.9999999999998
30
0
40
1.1002404735808948
210
0
220
0
230
1
100
AcDbArc
50
134.24990584588335
51
180.23501695126885
0
SPLINE
5
106
100
AcDbEntity
8
CUTOUTS
100
AcDbSpline
70
0
71
3
72
29
73
25
74
0
42
0.000000001
43
0.0000000001
44
0.0000000001
40
-0.00045171927190655018
40
-0.00045171927190655018
40
-0.00045171927190655018
40
-0.00045171927190655018
40
0
40
0
40
0
40
0.046957026657455894
40
0.046957026657455894
40
0.046957026657455894
40
0.094781098847335654
40
0.094781098847335654
40
0.094781098847335654
40
0.12510254893506148
40
0.12510254893506148
40
0.12510254893506148
40
0.15278625788530747
40
0.15278625788530747
40
0.15278625788530747
40
0.17438649819093538
40
0.17438649819093538
40
0.17438649819093538
40
0.18542955251220775
40
0.18542955251220775
40
0.18542955251220775
40
0.19599571358945861
40
0.19599571358945861
40
0.19599571358945861
40
0.19599571358945861
10
-100.76773601090497
20
238.78810565108139
30
0
10
-100.76679372346109
20
238.78928009560332
30
0
10
-100.76585143601716
20
238.79045454012532
30
0
10
-100.7649091485732
20
238.79162898464739
30
0
10
-100.67306274361216
20
238.90610414598751
30
0
10
-100.55979710716338
20
239.00151376725645
30
0
10
-100.4313895012869
20
239.07260153151759
30
0
10
-100.30061010734478
20
239.14500234191604
30
0
10
-100.15675856399675
20
239.19071740497316
30
0
10
-100.00813030833633
20
239.20724093834406
30
0
10
-99.913195691242237
20
239.21779515837869
30
0
10
-99.76436174325201
20
239.22371751084876
30
0
10
-99.585694653100887
20
239.18296403346076
30
0
10
-99.422710691166131
20
239.14578783496955
30
0
10
-99.268686271698215
20
239.0768858946835
30
0
10
-99.132308491203332
20
238.98018555405741
30
0
10
-99.025390343831958
20
238.90437392820158
30
0
10
-98.897915010556261
20
238.79188974145291
30
0
10
-98.782933811350631
20
238.60742350856196
30
0
10
-98.724188955189646
20
238.51317816764885
30
0
10
-98.676704623554684
20
238.4123880705431
30
0
10
-98.641460612201826
20
238.30708656959672
30
0
10
-98.607738641027098
20
238.2063325962757
30
0
10
-98.585448767048902
20
238.10212337226858
30
0
10
-98.575004548787177
20
237.99639944174956
30
0
0
ARC
5
107
100
AcDbEntity
8
CUTOUTS
100
AcDbCircle
10
-100.00000000000099
20
237.9999999999998
30
0
40
1.4249999999999292
210
-0
220
0
230
1
100
AcDbArc
50
314.61774803284248
51
359.85523016762374
0
SPLINE
5
108
100
AcDbEntity
8
CUTOUTS
100
AcDbSpline
70
0
71
3
72
29
73
25
74
0
42
0.000000001
43
0.0000000001
44
0.0000000001
40
0.00036742971419063909
40
0.00036742971419063909
40
0.00036742971419063909
40
0.00036742971419063909
40
0.054672808579283798
40
0.054672808579283798
40
0.054672808579283798
40
0.112504338288376
40
0.112504338288376
40
0.112504338288376
40
0.17726210507425627
40
0.17726210507425627
40
0.17726210507425627
40
0.25533036866309194
40
0.25533036866309194
40
0.25533036866309194
40
0.32909791545343997
40
0.32909791545343997
40
0.32909791545343997
40
0.3662446009025645
40
0.3662446009025645
40
0.3662446009025645
40
0.40090918416483956
40
0.40090918416483956
40
0.40090918416483956
40
0.40156061097940737
40
0.40156061097940737
40
0.40156061097940737
40
0.40156061097940737
10
101.00088234787314
20
-231.01432712953482
30
0
10
100.86747159773957
20
-231.12240108079442
30
0
10
100.71513904657704
20
-231.20469130609607
30
0
10
100.55159419840447
20
-231.25697013475559
30
0
10
100.37742942660849
20
-231.31264373355734
30
0
10
100.19399509896367
20
-231.33318397945027
30
0
10
100.0117855830208
20
-231.31749404491535
30
0
10
99.807616391237673
20
-231.29991317798556
30
0
10
99.662956943120307
20
-231.24327329208967
30
0
10
99.545921738319436
20
-231.18250787254289
30
0
10
99.406356854379325
20
-231.11004490090082
30
0
10
99.281917897798877
20
-231.01168102874703
30
0
10
99.179211367936489
20
-230.89260736565237
30
0
10
99.082145050004797
20
-230.78007272881166
30
0
10
98.997084266146402
20
-230.64032667985785
30
0
10
98.945689139662321
20
-230.48371443051039
30
0
10
98.91981257016397
20
-230.40486283442016
30
0
10
98.902966253629671
20
-230.32334496418349
30
0
10
98.895496737206088
20
-230.24071214934565
30
0
10
98.888526335047828
20
-230.16360087222679
30
0
10
98.889763309719001
20
-230.08598058139762
30
0
10
98.89920021053851
20
-230.00914245826317
30
0
10
98.899389734404011
20
-230.00759929717731
30
0
10
98.899579258269512
20
-230.00605613609153
30
0
10
98.899768782134998
20
-230.00451297500598
30
0
0
ARC
5
109
100
AcDbEntity
8
CUTOUTS
100
AcDbCircle
10
99.999999999998835
20
-229.99999999999807
30
0
40
1.1002404735807079
210
0
220
0
230
1
100
AcDbArc
50
134.24990583153868
51
180.23501693701385
0
SPLINE
5
10A
100
AcDbEntity
8
CUTOUTS
100
AcDbSpline
70
0
71
3
72
29
73
25
74
0
42
0.000000001
43
0.0000000001
44
0.0000000001
40
-0.00045171927211939012
40
-0.00045171927211939012
40
-0.00045171927211939012
40
-0.00045171927211939012
40
0
40
0
40
0
40
0.046957026659189702
40
0.046957026659189702
40
0.046957026659189702
40
0.094781098852553911
40
0.094781098852553911
40
0.094781098852553911
40
0.125102548926876
40
0.125102548926876
40
0.125102548926876
40
0.15278625786822431
40
0.15278625786822431
40
0.15278625786822431
40
0.17438649818511973
40
0.17438649818511973
40
0.17438649818511973
40
0.18542955251710855
40
0.18542955251710855
40
0.18542955251710855
40
0.19599571360531939
40
0.19599571360531939
40
0.19599571360531939
40
0.19599571360531939
10
99.232263989292306
20
-229.2118943487244
30
0
10
99.233206276736681
20
-229.21071990420259
30
0
10
99.234148564181311
20
-229.2095454596803
30
0
10
99.235090851625927
20
-229.20837101515801
30
0
10
99.326937256617953
20
-229.09389585383636
30
0
10
99.440202893096128
20
-228.99848623259351
30
0
10
99.568610498993337
20
-228.92739846836554
30
0
10
99.699389892961136
20
-228.85499765799841
30
0
10
99.843241436329606
20
-228.80928259497978
30
0
10
99.991869692001316
20
-228.79275906165219
30
0
10
100.08680430905919
20
-228.78220484165007
30
0
10
100.23563825700407
20
-228.77628248920905
30
0
10
100.41430534712515
20
-228.81703596662555
30
0
10
100.57728930905199
20
-228.85421216514737
30
0
10
100.7313137285059
20
-228.92311410546205
30
0
10
100.86769150898299
20
-229.01981444611636
30
0
10
100.97460965642628
20
-229.09562607205515
30
0
10
101.10208498965488
20
-229.20811025886843
30
0
10
101.21706618877144
20
-229.39257649170003
30
0
10
101.27581104491327
20
-229.48682183262514
30
0
10
101.32329537653067
20
-229.58761192974583
30
0
10
101.35853938786229
20
-229.692913430705
30
0
10
101.39226135901914
20
-229.79366740404538
30
0
10
101.41455123297519
20
-229.89787662806867
30
0
10
101.42499545121183
20
-230.00360055860165
30
0
0
ARC
5
10B
100
AcDbEntity
8
CUTOUTS
100
AcDbCircle
10
99.999999999998835
20
-229.99999999999807
30
0
40
1.4249999999999496
210
-0
220
0
230
1
100
AcDbArc
50
314.61774801810844
51
359.85523015341465
0
SPLINE
5
10C
100
AcDbEntity
8
CUTOUTS
100
AcDbSpline
70
0
71
3
72
29
73
25
74
0
42
0.000000001
43
0.0000000001
44
0.0000000001
40
0.00036742971459010357
40
0.00036742971459010357
40
0.00036742971459010357
40
0.00036742971459010357
40
0.054672808579516126
40
0.054672808579516126
40
0.054672808579516126
40
0.11250433828877256
40
0.11250433828877256
40
0.11250433828877256
40
0.1772621050737645
40
0.1772621050737645
40
0.1772621050737645
40
0.25533036866358055
40
0.25533036866358055
40
0.25533036866358055
40
0.32909791544919481
40
0.32909791544919481
40
0.32909791544919481
40
0.36624460089408439
40
0.36624460089408439
40
0.36624460089408439
40
0.40090918415181698
40
0.40090918415181698
40
0.40090918415181698
40
0.40156061096624246
40
0.40156061096624246
40
0.40156061096624246
40
0.40156061096624246
10
-98.999117652127694
20
-231.01432712953545
30
0
10
-99.13252840226086
20
-231.12240108079448
30
0
10
-99.284860953420818
20
-231.20469130609416
30
0
10
-99.448405801590553
20
-231.25697013475354
30
0
10
-99.622570573384735
20
-231.31264373355549
30
0
10
-99.806004901026895
20
-231.33318397945084
30
0
10
-99.988214416974188
20
-231.3174940449162
30
0
10
-100.19238360875892
20
-231.29991317798704
30
0
10
-100.33704305687407
20
-231.24327329209152
30
0
10
-100.45407826167266
20
-231.18250787254695
30
0
10
-100.59364314561336
20
-231.11004490090579
30
0
10
-100.71808210219299
20
-231.01168102875377
30
0
10
-100.82078863205554
20
-230.89260736566109
30
0
10
-100.91785494997998
20
-230.78007272883093
30
0
10
-101.00291573384482
20
-230.64032667987945
30
0
10
-101.05431086033423
20
-230.48371443052071
30
0
10
-101.08018742983401
20
-230.4048628344286
30
0
10
-101.09703374636905
20
-230.32334496419068
30
0
10
-101.10450326279326
20
-230.24071214935134
30
0
10
-101.11147366495189
20
-230.16360087223268
30
0
10
-101.1102366902814
20
-230.08598058140001
30
0
10
-101.10079978946146
20
-230.00914245826272
30
0
10
-101.10061026559595
20
-230.00759929717697
30
0
10
-101.10042074173046
20
-230.00605613609125
30
0
10
-101.10023121786499
20
-230.0045129750057
30
0
0
ARC
5
10D
100
AcDbEntity
8
CUTOUTS
100
AcDbCircle
10
-100.00000000000114
20
-229.99999999999824
30
0
40
1.1002404735811748
210
0
220
0
230
1
100
AcDbArc
50
134.24990583132816
51
180.23501693698901
0
SPLINE
5
10E
100
AcDbEntity
8
CUTOUTS
100
AcDbSpline
70
0
71
3
72
29
73
25
74
0
42
0.000000001
43
0.0000000001
44
0.0000000001
40
-0.00045171927168753418
40
-0.00045171927168753418
40
-0.00045171927168753418
40
-0.00045171927168753418
40
0
40
0
40
0
40
0.046957026659241098
40
0.046957026659241098
40
0.046957026659241098
40
0.094781098853085485
40
0.094781098853085485
40
0.094781098853085485
40
0.12510254892723233
40
0.12510254892723233
40
0.12510254892723233
40
0.15278625786848926
40
0.15278625786848926
40
0.15278625786848926
40
0.17438649818807117
40
0.17438649818807117
40
0.17438649818807117
40
0.18542955252198556
40
0.18542955252198556
40
0.18542955252198556
40
0.19599571361191759
40
0.19599571361191759
40
0.19599571361191759
40
0.19599571361191759
10
-100.76773601070512
20
-229.21189434872139
30
0
10
-100.76679372326154
20
-229.21071990420046
30
0
10
-100.76585143581772
20
-229.20954545967916
30
0
10
-100.76490914837387
20
-229.20837101515787
30
0
10
-100.67306274338202
20
-229.09389585383636
30
0
10
-100.55979710690373
20
-228.99848623259368
30
0
10
-100.43138950100683
20
-228.92739846836582
30
0
10
-100.30061010703807
20
-228.85499765799821
30
0
10
-100.15675856366875
20
-228.80928259497907
30
0
10
-100.00813030799475
20
-228.79275906165168
30
0
10
-99.913195690937016
20
-228.7822048416499
30
0
10
-99.764361742992122
20
-228.77628248920951
30
0
10
-99.58569465287178
20
-228.81703596662632
30
0
10
-99.422710690945152
20
-228.85421216514843
30
0
10
-99.268686271491617
20
-228.92311410546313
30
0
10
-99.132308491014157
20
-229.0198144461182
30
0
10
-99.025390343557547
20
-229.09562607206686
30
0
10
-98.89791501033514
20
-229.20811025888483
30
0
10
-98.782933811227807
20
-229.39257649170207
30
0
10
-98.724188955087754
20
-229.48682183262449
30
0
10
-98.676704623469433
20
-229.58761192974583
30
0
10
-98.641460612137706
20
-229.69291343070537
30
0
10
-98.607738640981083
20
-229.79366740404515
30
0
10
-98.585448767024843
20
-229.89787662806876
30
0
10
-98.575004548788172
20
-230.00360055860185
30
0
0
ARC
5
10F
100
AcDbEntity
8
CUTOUTS
100
AcDbCircle
10
-100.00000000000114
20
-229.99999999999824
30
0
40
1.4249999999999685
210
-0
220
0
230
1
100
AcDbArc
50
314.61774801806962
51
359.85523015341465
0
LINE
5
110
100
AcDbEntity
8
PERIMETER
100
AcDbLine
10
-47.925000000000004
20
-300.07499999999999
30
0
11
-47.925000000000004
21
-297.07500000000005
31
0
0
LINE
5
111
100
AcDbEntity
8
PERIMETER
100
AcDbLine
10
-47.925000000000004
20
-297.07500000000005
30
0
11
-18.075000000000028
21
-297.07500000000005
31
0
0
LINE
5
112
100
AcDbEntity
8
PERIMETER
100
AcDbLine
10
-18.075000000000028
20
-297.07500000000005
30
0
11
-18.07500000000001
21
-300.07499999999999
31
0
0
LINE
5
113
100
AcDbEntity
8
PERIMETER
100
AcDbLine
10
-18.07500000000001
20
-300.07499999999999
30
0
11
7.0749999999999957
21
-300.07499999999999
31
0
0
LINE
5
114
100
AcDbEntity
8
PERIMETER
100
AcDbLine
10
7.0749999999999957
20
-300.07499999999999
30
0
11
7.074999999999978
21
-297.07500000000005
31
0
0
LINE
5
115
100
AcDbEntity
8
PERIMETER
100
AcDbLine
10
7.074999999999978
20
-297.07500000000005
30
0
11
36.924999999999969
21
-297.07500000000005
31
0
0
LINE
5
116
100
AcDbEntity
8
PERIMETER
100
AcDbLine
10
36.92499999999999
20
-297.07500000000005
30
0
11
36.92499999999999
21
-300.07499999999999
31
0
0
LINE
5
117
100
AcDbEntity
8
PERIMETER
100
AcDbLine
10
36.92499999999999
20
-300.07499999999999
30
0
11
62.074999999999996
21
-300.07499999999999
31
0
0
LINE
5
118
100
AcDbEntity
8
PERIMETER
100
AcDbLine
10
62.074999999999996
20
-300.07499999999999
30
0
11
62.074999999999996
21
-297.07500000000005
31
0
0
LINE
5
119
100
AcDbEntity
8
PERIMETER
100
AcDbLine
10
62.074999999999996
20
-297.07500000000005
30
0
11
91.924999999999983
21
-297.07500000000005
31
0
0
LINE
5
11A
100
AcDbEntity
8
PERIMETER
100
AcDbLine
10
91.924999999999983
20
-297.07500000000005
30
0
11
91.924999999999983
21
-300.07499999999999
31
0
0
LINE
5
11B
100
AcDbEntity
8
PERIMETER
100
AcDbLine
10
91.924999999999983
20
-300.07499999999999
30
0
11
117.07499999999999
21
-300.07499999999999
31
0
0
LINE
5
11C
100
AcDbEntity
8
PERIMETER
100
AcDbLine
10
117.07499999999999
20
-300.07499999999999
30
0
11
117.07499999999996
21
-297.07500000000005
31
0
0
LINE
5
11D
100
AcDbEntity
8
PERIMETER
100
AcDbLine
10
117.07499999999996
20
-297.07500000000005
30
0
11
146.92499999999995
21
-297.07500000000005
31
0
0
LINE
5
11E
100
AcDbEntity
8
PERIMETER
100
AcDbLine
10
146.92499999999995
20
-297.07500000000005
30
0
11
146.92499999999995
21
-300.07499999999999
31
0
0
LINE
5
11F
100
AcDbEntity
8
PERIMETER
100
AcDbLine
10
146.92499999999995
20
-300.07499999999999
30
0
11
172.07499999999996
21
-300.07499999999999
31
0
0
LINE
5
120
100
AcDbEntity
8
PERIMETER
100
AcDbLine
10
172.07499999999996
20
-300.07499999999999
30
0
11
172.07499999999996
21
-297.07500000000005
31
0
0
LINE
5
121
100
AcDbEntity
8
PERIMETER
100
AcDbLine
10
172.07499999999996
20
-297.07500000000005
30
0
11
210.07500000000007
21
-297.07500000000005
31
0
0
LINE
5
122
100
AcDbEntity
8
PERIMETER
100
AcDbLine
10
210.07500000000007
20
-297.07500000000005
30
0
11
210.07500000000016
21
-280.07499999999999
31
0
0
LINE
5
123
100
AcDbEntity
8
PERIMETER
100
AcDbLine
10
210.07500000000016
20
-280.07499999999999
30
0
11
213.07499999999999
21
-280.07499999999999
31
0
0
LINE
5
124
100
AcDbEntity
8
PERIMETER
100
AcDbLine
10
213.07499999999999
20
-280.07499999999999
30
0
11
213.07499999999999
21
-254.92500000000001
31
0
0
LINE
5
125
100
AcDbEntity
8
PERIMETER
100
AcDbLine
10
213.07499999999999
20
-254.92500000000001
30
0
11
210.07500000000016
21
-254.92500000000001
31
0
0
LINE
5
126
100
AcDbEntity
8
PERIMETER
100
AcDbLine
10
210.07500000000016
20
-254.92500000000001
30
0
11
210.07500000000016
21
-221.74166666666665
31
0
0
LINE
5
127
100
AcDbEntity
8
PERIMETER
100
AcDbLine
10
210.07500000000016
20
-221.74166666666665
30
0
11
213.07499999999999
21
-221.74166666666665
31
0
0
LINE
5
128
100
AcDbEntity
8
PERIMETER
100
AcDbLine
10
213.07499999999999
20
-221.74166666666665
30
0
11
213.07499999999999
21
-196.59166666666664
31
0
0
LINE
5
129
100
AcDbEntity
8
PERIMETER
100
AcDbLine
10
213.07499999999999
20
-196.59166666666664
30
0
11
210.07500000000016
21
-196.59166666666664
31
0
0
LINE
5
12A
100
AcDbEntity
8
PERIMETER
100
AcDbLine
10
210.07500000000016
20
-196.59166666666664
30
0
11
210.07500000000016
21
-163.4083333333333
31
0
0
LINE
5
12B
100
AcDbEntity
8
PERIMETER
100
AcDbLine
10
210.07500000000016
20
-163.4083333333333
30
0
11
213.07499999999999
21
-163.4083333333333
31
0
0
LINE
5
12C
100
AcDbEntity
8
PERIMETER
100
AcDbLine
10
213.07499999999999
20
-163.4083333333333
30
0
11
213.07499999999999
21
-138.25833333333327
31
0
0
LINE
5
12D
100
AcDbEntity
8
PERIMETER
100
AcDbLine
10
213.07499999999999
20
-138.25833333333327
30
0
11
210.07500000000016
21
-138.25833333333327
31
0
0
LINE
5
12E
100
AcDbEntity
8
PERIMETER
100
AcDbLine
10
210.07500000000016
20
-138.25833333333327
30
0
11
210.07500000000016
21
-105.075
31
0
0
LINE
5
12F
100
AcDbEntity
8
PERIMETER
100
AcDbLine
10
210.07500000000016
20
-105.075
30
0
11
213.07499999999999
21
-105.075
31
0
0
LINE
5
130
100
AcDbEntity
8
PERIMETER
100
AcDbLine
10
213.07499999999999
20
-105.075
30
0
11
213.07499999999999
21
-79.924999999999997
31
0
0
LINE
5
131
100
AcDbEntity
8
PERIMETER
100
AcDbLine
10
213.07499999999999
20
-79.924999999999997
30
0
11
210.07500000000016
21
-79.924999999999997
31
0
0
LINE
5
132
100
AcDbEntity
8
PERIMETER
100
AcDbLine
10
210.07500000000016
20
-79.924999999999997
30
0
11
210.07500000000016
21
-46.741666666666646
31
0
0
LINE
5
133
100
AcDbEntity
8
PERIMETER
100
AcDbLine
10
210.07500000000016
20
-46.741666666666646
30
0
11
213.07499999999999
21
-46.741666666666646
31
0
0
LINE
5
134
100
AcDbEntity
8
PERIMETER
100
AcDbLine
10
213.07499999999999
20
-46.741666666666646
30
0
11
213.07499999999999
21
-21.59166666666664
31
0
0
LINE
5
135
100
AcDbEntity
8
PERIMETER
100
AcDbLine
10
213.07499999999999
20
-21.59166666666664
30
0
11
210.07500000000016
21
-21.59166666666664
31
0
0
LINE
5
136
100
AcDbEntity
8
PERIMETER
100
AcDbLine
10
210.07500000000016
20
-21.59166666666664
30
0
11
210.07500000000016
21
11.591666666666676
31
0
0
LINE
5
137
100
AcDbEntity
8
PERIMETER
100
AcDbLine
10
210.07500000000016
20
11.59166666666664
30
0
11
213.07499999999999
21
11.591666666666605
31
0
0
LINE
5
138
100
AcDbEntity
8
PERIMETER
100
AcDbLine
10
213.07499999999999
20
11.59166666666664
30
0
11
213.07499999999999
21
36.741666666666646
31
0
0
LINE
5
139
100
AcDbEntity
8
PERIMETER
100
AcDbLine
10
213.07499999999999
20
36.741666666666646
30
0
11
210.07500000000016
21
36.741666666666646
31
0
0
LINE
5
13A
100
AcDbEntity
8
PERIMETER
100
AcDbLine
10
210.07500000000016
20
36.741666666666646
30
0
11
210.07500000000016
21
69.924999999999955
31
0
0
LINE
5
13B
100
AcDbEntity
8
PERIMETER
100
AcDbLine
10
210.07500000000016
20
69.924999999999926
30
0
11
213.07499999999999
21
69.924999999999955
31
0
0
LINE
5
13C
100
AcDbEntity
8
PERIMETER
100
AcDbLine
10
213.07499999999999
20
69.924999999999997
30
0
11
213.07499999999999
21
95.075000000000003
31
0
0
LINE
5
13D
100
AcDbEntity
8
PERIMETER
100
AcDbLine
10
213.07499999999999
20
95.075000000000003
30
0
11
210.07500000000016
21
95.075000000000003
31
0
0
LINE
5
13E
100
AcDbEntity
8
PERIMETER
100
AcDbLine
10
210.07500000000016
20
95.075000000000003
30
0
11
210.07500000000016
21
128.25833333333335
31
0
0
LINE
5
13F
100
AcDbEntity
8
PERIMETER
100
AcDbLine
10
210.07500000000016
20
128.25833333333335
30
0
11
213.07499999999999
21
128.25833333333335
31
0
0
LINE
5
140
100
AcDbEntity
8
PERIMETER
100
AcDbLine
10
213.07499999999999
20
128.25833333333335
30
0
11
213.07499999999999
21
153.40833333333333
31
0
0
LINE
5
141
100
AcDbEntity
8
PERIMETER
100
AcDbLine
10
213.07499999999999
20
153.40833333333333
30
0
11
210.07500000000016
21
153.40833333333333
31
0
0
LINE
5
142
100
AcDbEntity
8
PERIMETER
100
AcDbLine
10
210.07500000000016
20
153.40833333333333
30
0
11
210.07500000000016
21
186.59166666666664
31
0
0
LINE
5
143
100
AcDbEntity
8
PERIMETER
100
AcDbLine
10
210.07500000000016
20
186.59166666666664
30
0
11
213.07499999999999
21
186.59166666666664
31
0
0
LINE
5
144
100
AcDbEntity
8
PERIMETER
100
AcDbLine
10
213.07499999999999
20
186.59166666666664
30
0
11
213.07499999999999
21
211.74166666666665
31
0
0
LINE
5
145
100
AcDbEntity
8
PERIMETER
100
AcDbLine
10
213.07499999999999
20
211.74166666666665
30
0
11
210.07500000000016
21
211.74166666666665
31
0
0
LINE
5
146
100
AcDbEntity
8
PERIMETER
100
AcDbLine
10
210.07500000000016
20
211.74166666666665
30
0
11
210.07500000000016
21
244.92499999999995
31
0
0
LINE
5
147
100
AcDbEntity
8
PERIMETER
100
AcDbLine
10
210.07500000000016
20
244.92499999999995
30
0
11
213.07499999999999
21
244.92499999999995
31
0
0
LINE
5
148
100
AcDbEntity
8
PERIMETER
100
AcDbLine
10
213.07499999999999
20
244.92500000000001
30
0
11
213.07499999999999
21
270.07499999999999
31
0
0
LINE
5
149
100
AcDbEntity
8
PERIMETER
100
AcDbLine
10
213.07499999999999
20
270.07499999999999
30
0
11
210.07500000000016
21
270.07499999999999
31
0
0
LINE
5
14A
100
AcDbEntity
8
PERIMETER
100
AcDbLine
10
210.07500000000016
20
270.07499999999999
30
0
11
210.07500000000007
21
300.07499999999999
31
0
0
LINE
5
14B
100
AcDbEntity
8
PERIMETER
100
AcDbLine
10
210.07500000000007
20
300.07499999999999
30
0
11
121.73397172404471
21
300.07499999999999
31
0
0
ARC
5
14C
100
AcDbEntity
8
PERIMETER
100
AcDbCircle
10
121.73397172404464
20
250.00000000000023
30
0
40
50.07499999999979
210
0
220
-0
230
1
100
AcDbArc
50
89.999999999999915
51
144.31466528734776
0
ARC
5
14D
100
AcDbEntity
8
PERIMETER
100
AcDbCircle
10
73.000000000000114
20
285.00000000000023
30
0
40
9.9249999999999972
210
0
220
0
230
1
100
AcDbArc
50
270
51
324.31466528734757
0
LINE
5
14E
100
AcDbEntity
8
PERIMETER
100
AcDbLine
10
73.000000000000114
20
275.07500000000027
30
0
11
-73
21
275.07499999999999
31
0
0
ARC
5
14F
100
AcDbEntity
8
PERIMETER
100
AcDbCircle
10
-73.000000000000028
20
285
30
0
40
9.9250000000000007
210
0
220
0
230
1
100
AcDbArc
50
215.68533471265201
51
270.00000000000017
0
ARC
5
150
100
AcDbEntity
8
PERIMETER
100
AcDbCircle
10
-121.73397172404481
20
250
30
0
40
50.075000000000017
210
0
220
-0
230
1
100
AcDbArc
50
35.685334712652121
51
89.999999999999972
0
LINE
5
151
100
AcDbEntity
8
PERIMETER
100
AcDbLine
10
-121.73397172404478
20
300.07499999999999
30
0
11
-210.07499999999996
21
300.07499999999999
31
0
0
LINE
5
152
100
AcDbEntity
8
PERIMETER
100
AcDbLine
10
-210.07499999999996
20
300.07499999999999
30
0
11
-210.07499999999999
21
270.07499999999999
31
0
0
LINE
5
153
100
AcDbEntity
8
PERIMETER
100
AcDbLine
10
-210.07499999999999
20
270.07499999999999
30
0
11
-213.07499999999999
21
270.07499999999999
31
0
0
LINE
5
154
100
AcDbEntity
8
PERIMETER
100
AcDbLine
10
-213.07499999999999
20
270.07499999999999
30
0
11
-213.07499999999999
21
244.92500000000001
31
0
0
LINE
5
155
100
AcDbEntity
8
PERIMETER
100
AcDbLine
10
-213.07499999999999
20
244.92500000000001
30
0
11
-210.07499999999999
21
244.92500000000001
31
0
0
LINE
5
156
100
AcDbEntity
8
PERIMETER
100
AcDbLine
10
-210.07499999999999
20
244.92500000000001
30
0
11
-210.07499999999999
21
211.74166666666667
31
0
0
LINE
5
157
100
AcDbEntity
8
PERIMETER
100
AcDbLine
10
-210.07499999999999
20
211.74166666666665
30
0
11
-213.07500000000002
21
211.74166666666665
31
0
0
LINE
5
158
100
AcDbEntity
8
PERIMETER
100
AcDbLine
10
-213.07499999999999
20
211.74166666666665
30
0
11
-213.07499999999999
21
186.59166666666664
31
0
0
LINE
5
159
100
AcDbEntity
8
PERIMETER
100
AcDbLine
10
-213.07499999999999
20
186.59166666666664
30
0
11
-210.07499999999996
21
186.59166666666664
31
0
0
LINE
5
15A
100
AcDbEntity
8
PERIMETER
100
AcDbLine
10
-210.07499999999999
20
186.59166666666664
30
0
11
-210.07499999999999
21
153.4083333333333
31
0
0
LINE
5
15B
100
AcDbEntity
8
PERIMETER
100
AcDbLine
10
-210.07499999999999
20
153.40833333333333
30
0
11
-213.07500000000002
21
153.40833333333333
31
0
0
LINE
5
15C
100
AcDbEntity
8
PERIMETER
100
AcDbLine
10
-213.07499999999999
20
153.40833333333333
30
0
11
-213.07499999999999
21
128.25833333333333
31
0
0
LINE
5
15D
100
AcDbEntity
8
PERIMETER
100
AcDbLine
10
-213.07499999999999
20
128.25833333333335
30
0
11
-210.07499999999996
21
128.25833333333335
31
0
0
LINE
5
15E
100
AcDbEntity
8
PERIMETER
100
AcDbLine
10
-210.07499999999999
20
128.25833333333335
30
0
11
-210.07499999999999
21
95.075000000000003
31
0
0
LINE
5
15F
100
AcDbEntity
8
PERIMETER
100
AcDbLine
10
-210.07499999999999
20
95.075000000000003
30
0
11
-213.07500000000002
21
95.075000000000003
31
0
0
LINE
5
160
100
AcDbEntity
8
PERIMETER
100
AcDbLine
10
-213.07499999999999
20
95.075000000000003
30
0
11
-213.07499999999999
21
69.924999999999997
31
0
0
LINE
5
161
100
AcDbEntity
8
PERIMETER
100
AcDbLine
10
-213.07499999999999
20
69.924999999999997
30
0
11
-210.07499999999996
21
69.924999999999997
31
0
0
LINE
5
162
100
AcDbEntity
8
PERIMETER
100
AcDbLine
10
-210.07499999999999
20
69.924999999999997
30
0
11
-210.07499999999999
21
36.741666666666681
31
0
0
LINE
5
163
100
AcDbEntity
8
PERIMETER
100
AcDbLine
10
-210.07499999999999
20
36.741666666666646
30
0
11
-213.07500000000002
21
36.74166666666661
31
0
0
LINE
5
164
100
AcDbEntity
8
PERIMETER
100
AcDbLine
10
-213.07499999999999
20
36.741666666666646
30
0
11
-213.07499999999999
21
11.59166666666664
31
0
0
LINE
5
165
100
AcDbEntity
8
PERIMETER
100
AcDbLine
10
-213.07499999999999
20
11.59166666666664
30
0
11
-210.07499999999996
21
11.59166666666664
31
0
0
LINE
5
166
100
AcDbEntity
8
PERIMETER
100
AcDbLine
10
-210.07499999999999
20
11.59166666666664
30
0
11
-210.07499999999999
21
-21.591666666666676
31
0
0
LINE
5
167
100
AcDbEntity
8
PERIMETER
100
AcDbLine
10
-210.07499999999999
20
-21.591666666666711
30
0
11
-213.07500000000002
21
-21.591666666666676
31
0
0
LINE
5
168
100
AcDbEntity
8
PERIMETER
100
AcDbLine
10
-213.07499999999999
20
-21.59166666666664
30
0
11
-213.07499999999999
21
-46.741666666666646
31
0
0
LINE
5
169
100
AcDbEntity
8
PERIMETER
100
AcDbLine
10
-213.07499999999999
20
-46.741666666666646
30
0
11
-210.07499999999996
21
-46.741666666666646
31
0
0
LINE
5
16A
100
AcDbEntity
8
PERIMETER
100
AcDbLine
10
-210.07499999999999
20
-46.741666666666646
30
0
11
-210.07499999999999
21
-79.924999999999997
31
0
0
LINE
5
16B
100
AcDbEntity
8
PERIMETER
100
AcDbLine
10
-210.07499999999999
20
-79.924999999999997
30
0
11
-213.07500000000002
21
-79.924999999999997
31
0
0
LINE
5
16C
100
AcDbEntity
8
PERIMETER
100
AcDbLine
10
-213.07499999999999
20
-79.924999999999997
30
0
11
-213.07499999999999
21
-105.075
31
0
0
LINE
5
16D
100
AcDbEntity
8
PERIMETER
100
AcDbLine
10
-213.07499999999999
20
-105.075
30
0
11
-210.07499999999996
21
-105.075
31
0
0
LINE
5
16E
100
AcDbEntity
8
PERIMETER
100
AcDbLine
10
-210.07499999999999
20
-105.075
30
0
11
-210.07499999999999
21
-138.25833333333327
31
0
0
LINE
5
16F
100
AcDbEntity
8
PERIMETER
100
AcDbLine
10
-210.07499999999999
20
-138.25833333333327
30
0
11
-213.07500000000002
21
-138.25833333333327
31
0
0
LINE
5
170
100
AcDbEntity
8
PERIMETER
100
AcDbLine
10
-213.07499999999999
20
-138.25833333333327
30
0
11
-213.07499999999999
21
-163.4083333333333
31
0
0
LINE
5
171
100
AcDbEntity
8
PERIMETER
100
AcDbLine
10
-213.07499999999999
20
-163.4083333333333
30
0
11
-210.07499999999996
21
-163.4083333333333
31
0
0
LINE
5
172
100
AcDbEntity
8
PERIMETER
100
AcDbLine
10
-210.07499999999999
20
-163.4083333333333
30
0
11
-210.07499999999999
21
-196.59166666666664
31
0
0
LINE
5
173
100
AcDbEntity
8
PERIMETER
100
AcDbLine
10
-210.07499999999999
20
-196.59166666666664
30
0
11
-213.07500000000002
21
-196.59166666666664
31
0
0
LINE
5
174
100
AcDbEntity
8
PERIMETER
100
AcDbLine
10
-213.07500000000002
20
-196.59166666666664
30
0
11
-213.07500000000002
21
-221.74166666666665
31
0
0
LINE
5
175
100
AcDbEntity
8
PERIMETER
100
AcDbLine
10
-213.07500000000002
20
-221.74166666666665
30
0
11
-210.07499999999999
21
-221.74166666666665
31
0
0
LINE
5
176
100
AcDbEntity
8
PERIMETER
100
AcDbLine
10
-210.07499999999999
20
-221.74166666666665
30
0
11
-210.07499999999999
21
-254.92500000000001
31
0
0
LINE
5
177
100
AcDbEntity
8
PERIMETER
100
AcDbLine
10
-210.07499999999999
20
-254.92500000000001
30
0
11
-213.07500000000002
21
-254.92500000000001
31
0
0
LINE
5
178
100
AcDbEntity
8
PERIMETER
100
AcDbLine
10
-213.07500000000002
20
-254.92500000000001
30
0
11
-213.07500000000002
21
-280.07499999999999
31
0
0
LINE
5
179
100
AcDbEntity
8
PERIMETER
100
AcDbLine
10
-213.07500000000002
20
-280.07499999999999
30
0
11
-210.07499999999999
21
-280.07499999999999
31
0
0
LINE
5
17A
100
AcDbEntity
8
PERIMETER
100
AcDbLine
10
-210.07499999999999
20
-280.07499999999999
30
0
11
-210.07499999999999
21
-297.07500000000005
31
0
0
LINE
5
17B
100
AcDbEntity
8
PERIMETER
100
AcDbLine
10
-210.07499999999999
20
-297.07500000000005
30
0
11
-183.07499999999999
21
-297.07500000000005
31
0
0
LINE
5
17C
100
AcDbEntity
8
PERIMETER
100
AcDbLine
10
-183.07499999999999
20
-297.07500000000005
30
0
11
-183.07499999999999
21
-300.07499999999999
31
0
0
LINE
5
17D
100
AcDbEntity
8
PERIMETER
100
AcDbLine
10
-183.07499999999999
20
-300.07499999999999
30
0
11
-157.92499999999995
21
-300.07499999999999
31
0
0
LINE
5
17E
100
AcDbEntity
8
PERIMETER
100
AcDbLine
10
-157.92499999999995
20
-300.07499999999999
30
0
11
-157.92499999999995
21
-297.07500000000005
31
0
0
LINE
5
17F
100
AcDbEntity
8
PERIMETER
100
AcDbLine
10
-157.92499999999995
20
-297.07500000000005
30
0
11
-128.07499999999999
21
-297.07500000000005
31
0
0
LINE
5
180
100
AcDbEntity
8
PERIMETER
100
AcDbLine
10
-128.07499999999999
20
-297.07500000000005
30
0
11
-128.07499999999999
21
-300.07499999999999
31
0
0
LINE
5
181
100
AcDbEntity
8
PERIMETER
100
AcDbLine
10
-128.07499999999999
20
-300.07499999999999
30
0
11
-102.92500000000001
21
-300.07499999999999
31
0
0
LINE
5
182
100
AcDbEntity
8
PERIMETER
100
AcDbLine
10
-102.92499999999998
20
-300.07499999999999
30
0
11
-102.92499999999998
21
-297.07500000000005
31
0
0
LINE
5
183
100
AcDbEntity
8
PERIMETER
100
AcDbLine
10
-102.92499999999998
20
-297.07500000000005
30
0
11
-73.075000000000017
21
-297.07500000000005
31
0
0
LINE
5
184
100
AcDbEntity
8
PERIMETER
100
AcDbLine
10
-73.075000000000003
20
-297.07500000000005
30
0
11
-73.075000000000003
21
-300.07499999999999
31
0
0
LINE
5
185
100
AcDbEntity
8
PERIMETER
100
AcDbLine
10
-73.075000000000003
20
-300.07499999999999
30
0
11
-47.924999999999997
21
-300.07499999999999
31
0
0
ENDSEC
0
SECTION
2
OBJECTS
0
DICTIONARY
5
C
100
AcDbDictionary
3
ACAD_GROUP
350
D
3
ACAD_MLINESTYLE
350
17
0
DICTIONARY
5
D
100
AcDbDictionary
0
DICTIONARY
5
1A
330
C
100
AcDbDictionary
0
DICTIONARY
5
17
100
AcDbDictionary
0
ENDSEC
0
EOF
