0
SECTION
2
HEADER
9
$INSUNITS
70
4
9
$ACADVER
1
AC1014
9
$HANDSEED
5
FFFF
0
ENDSEC
0
SECTION
2
TABLES
0
TABLE
2
VPORT
5
8
100
AcDbSymbolTable
0
ENDTAB
0
TABLE
2
LTYPE
5
5
100
AcDbSymbolTable
70
2
0
LTYPE
5
14
100
AcDbSymbolTableRecord
100
AcDbLinetypeTableRecord
2
BYBLOCK
70
0
0
LTYPE
5
15
100
AcDbSymbolTableRecord
100
AcDbLinetypeTableRecord
2
BYLAYER
70
0
0
ENDTAB
0
TABLE
2
LAYER
5
2
100
AcDbSymbolTable
70
3
0
LAYER
5
50
100
AcDbSymbolTableRecord
100
AcDbLayerTableRecord
2
0
70
0
6
CONTINUOUS
0
LAYER
5
51
100
AcDbSymbolTableRecord
100
AcDbLayerTableRecord
2
CUTOUTS
70
0
62
1
6
CONTINUOUS
0
LAYER
5
52
100
AcDbSymbolTableRecord
100
AcDbLayerTableRecord
2
PERIMETER
70
0
62
5
6
CONTINUOUS
0
ENDTAB
0
TABLE
2
STYLE
5
3
100
AcDbSymbolTable
70
1
0
STYLE
5
11
100
AcDbSymbolTableRecord
100
AcDbTextStyleTableRecord
2
STANDARD
70
0
0
ENDTAB
0
TABLE
2
VIEW
5
6
100
AcDbSymbolTable
0
ENDTAB
0
TABLE
2
UCS
5
7
100
AcDbSymbolTable
0
ENDTAB
0
TABLE
2
APPID
5
9
100
AcDbSymbolTable
70
1
0
APPID
5
12
100
AcDbSymbolTableRecord
100
AcDbRegAppTableRecord
2
ACAD
70
0
0
ENDTAB
0
TABLE
2
DIMSTYLE
5
A
100
AcDbSymbolTable
0
ENDTAB
0
TABLE
2
BLOCK_RECORD
5
1
100
AcDbSymbolTable
70
2
0
BLOCK_RECORD
5
1F
100
AcDbSymbolTableRecord
100
AcDbBlockTableRecord
2
*MODEL_SPACE
0
BLOCK_RECORD
5
1B
100
AcDbSymbolTableRecord
100
AcDbBlockTableRecord
2
*PAPER_SPACE
0
ENDTAB
0
ENDSEC
0
SECTION
2
BLOCKS
0
BLOCK
5
20
100
AcDbEntity
100
AcDbBlockBegin
2
*MODEL_SPACE
0
ENDBLK
5
21
100
AcDbEntity
100
AcDbBlockEnd
0
BLOCK
5
1C
100
AcDbEntity
100
AcDbBlockBegin
2
*PAPER_SPACE
0
ENDBLK
5
1D
100
AcDbEntity
100
AcDbBlockEnd
0
ENDSEC
0
SECTION
2
ENTITIES
0
CIRCLE
5
100
100
AcDbEntity
8
CUTOUTS
100
AcDbCircle
10
39.999999999999858
20
-260.99999999999994
30
-8.8817841970012523e-15
40
7.9249999999998888
210
0
220
0
230
1
0
ARC
5
101
100
AcDbEntity
8
CUTOUTS
100
AcDbCircle
10
-40
20
-187.00000000000003
30
0
40
35.074999999999932
210
0
220
0
230
1
100
AcDbArc
50
180
51
270
0
LINE
5
102
100
AcDbEntity
8
CUTOUTS
100
AcDbLine
10
-75.074999999999932
20
-187.00000000000003
30
0
11
-75.074999999999974
21
225.07499999999999
31
0
0
LINE
5
103
100
AcDbEntity
8
CUTOUTS
100
AcDbLine
10
-75.074999999999932
20
225.07499999999999
30
0
11
75.074999999999932
21
225.07499999999999
31
0
0
LINE
5
104
100
AcDbEntity
8
CUTOUTS
100
AcDbLine
10
75.07499999999979
20
225.07499999999999
30
0
11
75.074999999999832
21
-187.00000000000003
31
0
0
ARC
5
105
100
AcDbEntity
8
CUTOUTS
100
AcDbCircle
10
39.999999999999858
20
-187.00000000000003
30
0
40
35.075000000000003
210
-0
220
0
230
1
100
AcDbArc
50
-90
51
0
0
LINE
5
106
100
AcDbEntity
8
CUTOUTS
100
AcDbLine
10
39.999999999999858
20
-222.07500000000005
30
0
11
-40.000000000000142
21
-222.07500000000005
31
0
0
LINE
5
107
100
AcDbEntity
8
PERIMETER
100
AcDbLine
10
-203.07499999999976
20
-80.075000000000003
30
0
11
-200.07499999999993
21
-80.075000000000003
31
0
0
LINE
5
108
100
AcDbEntity
8
PERIMETER
100
AcDbLine
10
-200.07499999999993
20
-80.075000000000003
30
0
11
-200.07499999999993
21
-104.925
31
0
0
LINE
5
109
100
AcDbEntity
8
PERIMETER
100
AcDbLine
10
-200.07499999999993
20
-104.925
30
0
11
-203.07499999999976
21
-104.925
31
0
0
LINE
5
10A
100
AcDbEntity
8
PERIMETER
100
AcDbLine
10
-203.07499999999976
20
-104.925
30
0
11
-203.07499999999976
21
-138.4083333333333
31
0
0
LINE
5
10B
100
AcDbEntity
8
PERIMETER
100
AcDbLine
10
-203.07499999999976
20
-138.4083333333333
30
0
11
-200.07499999999993
21
-138.4083333333333
31
0
0
LINE
5
10C
100
AcDbEntity
8
PERIMETER
100
AcDbLine
10
-200.07499999999993
20
-138.4083333333333
30
0
11
-200.07499999999993
21
-163.25833333333327
31
0
0
LINE
5
10D
100
AcDbEntity
8
PERIMETER
100
AcDbLine
10
-200.07499999999993
20
-163.25833333333327
30
0
11
-203.07499999999976
21
-163.25833333333327
31
0
0
LINE
5
10E
100
AcDbEntity
8
PERIMETER
100
AcDbLine
10
-203.07499999999976
20
-163.25833333333327
30
0
11
-203.07499999999976
21
-196.74166666666665
31
0
0
LINE
5
10F
100
AcDbEntity
8
PERIMETER
100
AcDbLine
10
-203.07499999999976
20
-196.74166666666665
30
0
11
-200.07499999999993
21
-196.74166666666665
31
0
0
LINE
5
110
100
AcDbEntity
8
PERIMETER
100
AcDbLine
10
-200.07499999999993
20
-196.74166666666665
30
0
11
-200.07499999999993
21
-221.59166666666664
31
0
0
LINE
5
111
100
AcDbEntity
8
PERIMETER
100
AcDbLine
10
-200.07499999999993
20
-221.59166666666664
30
0
11
-203.07499999999976
21
-221.59166666666664
31
0
0
LINE
5
112
100
AcDbEntity
8
PERIMETER
100
AcDbLine
10
-203.07499999999976
20
-221.59166666666664
30
0
11
-203.07499999999976
21
-255.07499999999999
31
0
0
LINE
5
113
100
AcDbEntity
8
PERIMETER
100
AcDbLine
10
-203.07499999999976
20
-255.07499999999999
30
0
11
-200.07499999999993
21
-255.07499999999999
31
0
0
LINE
5
114
100
AcDbEntity
8
PERIMETER
100
AcDbLine
10
-200.07499999999993
20
-255.07499999999999
30
0
11
-200.07499999999993
21
-279.92500000000001
31
0
0
LINE
5
115
100
AcDbEntity
8
PERIMETER
100
AcDbLine
10
-200.07499999999993
20
-279.92500000000001
30
0
11
-203.07499999999976
21
-279.92500000000001
31
0
0
LINE
5
116
100
AcDbEntity
8
PERIMETER
100
AcDbLine
10
-203.07499999999976
20
-279.92500000000001
30
0
11
-203.07500000000005
21
-297.07500000000005
31
0
0
LINE
5
117
100
AcDbEntity
8
PERIMETER
100
AcDbLine
10
-203.07500000000005
20
-297.07500000000005
30
0
11
-182.07499999999982
21
-297.07500000000005
31
0
0
LINE
5
118
100
AcDbEntity
8
PERIMETER
100
AcDbLine
10
-182.07499999999982
20
-297.07500000000005
30
0
11
-182.07499999999982
21
-300.07499999999999
31
0
0
LINE
5
119
100
AcDbEntity
8
PERIMETER
100
AcDbLine
10
-182.07499999999982
20
-300.07499999999999
30
0
11
-156.92499999999995
21
-300.07499999999999
31
0
0
LINE
5
11A
100
AcDbEntity
8
PERIMETER
100
AcDbLine
10
-156.92499999999995
20
-300.07499999999999
30
0
11
-156.92499999999995
21
-297.07500000000005
31
0
0
LINE
5
11B
100
AcDbEntity
8
PERIMETER
100
AcDbLine
10
-156.92499999999995
20
-297.07500000000005
30
0
11
-127.07499999999982
21
-297.07500000000005
31
0
0
LINE
5
11C
100
AcDbEntity
8
PERIMETER
100
AcDbLine
10
-127.07499999999982
20
-297.07500000000005
30
0
11
-127.07499999999982
21
-300.07499999999999
31
0
0
LINE
5
11D
100
AcDbEntity
8
PERIMETER
100
AcDbLine
10
-127.07499999999982
20
-300.07499999999999
30
0
11
-101.92499999999995
21
-300.07499999999999
31
0
0
LINE
5
11E
100
AcDbEntity
8
PERIMETER
100
AcDbLine
10
-101.92499999999995
20
-300.07499999999999
30
0
11
-101.92499999999995
21
-297.07500000000005
31
0
0
LINE
5
11F
100
AcDbEntity
8
PERIMETER
100
AcDbLine
10
-101.92499999999995
20
-297.07500000000005
30
0
11
-72.074999999999818
21
-297.07500000000005
31
0
0
LINE
5
120
100
AcDbEntity
8
PERIMETER
100
AcDbLine
10
-72.074999999999818
20
-297.07500000000005
30
0
11
-72.074999999999818
21
-300.07499999999999
31
0
0
LINE
5
121
100
AcDbEntity
8
PERIMETER
100
AcDbLine
10
-72.074999999999818
20
-300.07499999999999
30
0
11
-46.924999999999955
21
-300.07499999999999
31
0
0
LINE
5
122
100
AcDbEntity
8
PERIMETER
100
AcDbLine
10
-46.924999999999955
20
-300.07499999999999
30
0
11
-46.924999999999955
21
-297.07500000000005
31
0
0
LINE
5
123
100
AcDbEntity
8
PERIMETER
100
AcDbLine
10
-46.924999999999955
20
-297.07500000000005
30
0
11
-17.074999999999818
21
-297.07500000000005
31
0
0
LINE
5
124
100
AcDbEntity
8
PERIMETER
100
AcDbLine
10
-17.074999999999818
20
-297.07500000000005
30
0
11
-17.074999999999818
21
-300.07499999999999
31
0
0
LINE
5
125
100
AcDbEntity
8
PERIMETER
100
AcDbLine
10
-17.074999999999818
20
-300.07499999999999
30
0
11
8.0750000000000455
21
-300.07499999999999
31
0
0
LINE
5
126
100
AcDbEntity
8
PERIMETER
100
AcDbLine
10
8.0750000000000455
20
-300.07499999999999
30
0
11
8.0750000000000455
21
-297.07500000000005
31
0
0
LINE
5
127
100
AcDbEntity
8
PERIMETER
100
AcDbLine
10
8.0750000000000455
20
-297.07500000000005
30
0
11
37.925000000000182
21
-297.07500000000005
31
0
0
LINE
5
128
100
AcDbEntity
8
PERIMETER
100
AcDbLine
10
37.92500000000004
20
-297.07500000000005
30
0
11
37.92500000000004
21
-300.07499999999999
31
0
0
LINE
5
129
100
AcDbEntity
8
PERIMETER
100
AcDbLine
10
37.92500000000004
20
-300.07499999999999
30
0
11
63.074999999999903
21
-300.07499999999999
31
0
0
LINE
5
12A
100
AcDbEntity
8
PERIMETER
100
AcDbLine
10
63.074999999999903
20
-300.07499999999999
30
0
11
63.074999999999903
21
-297.07500000000005
31
0
0
LINE
5
12B
100
AcDbEntity
8
PERIMETER
100
AcDbLine
10
63.074999999999903
20
-297.07500000000005
30
0
11
92.92500000000004
21
-297.07500000000005
31
0
0
LINE
5
12C
100
AcDbEntity
8
PERIMETER
100
AcDbLine
10
92.92500000000004
20
-297.07500000000005
30
0
11
92.92500000000004
21
-300.07499999999999
31
0
0
LINE
5
12D
100
AcDbEntity
8
PERIMETER
100
AcDbLine
10
92.92500000000004
20
-300.07499999999999
30
0
11
118.0749999999999
21
-300.07499999999999
31
0
0
LINE
5
12E
100
AcDbEntity
8
PERIMETER
100
AcDbLine
10
118.0749999999999
20
-300.07499999999999
30
0
11
118.0749999999999
21
-297.07500000000005
31
0
0
LINE
5
12F
100
AcDbEntity
8
PERIMETER
100
AcDbLine
10
118.0749999999999
20
-297.07500000000005
30
0
11
147.92500000000004
21
-297.07500000000005
31
0
0
LINE
5
130
100
AcDbEntity
8
PERIMETER
100
AcDbLine
10
147.92500000000004
20
-297.07500000000005
30
0
11
147.92500000000004
21
-300.07499999999999
31
0
0
LINE
5
131
100
AcDbEntity
8
PERIMETER
100
AcDbLine
10
147.92500000000004
20
-300.07499999999999
30
0
11
173.0749999999999
21
-300.07499999999999
31
0
0
LINE
5
132
100
AcDbEntity
8
PERIMETER
100
AcDbLine
10
173.0749999999999
20
-300.07499999999999
30
0
11
173.0749999999999
21
-297.07500000000005
31
0
0
LINE
5
133
100
AcDbEntity
8
PERIMETER
100
AcDbLine
10
173.0749999999999
20
-297.07500000000005
30
0
11
203.07499999999962
21
-297.07500000000005
31
0
0
LINE
5
134
100
AcDbEntity
8
PERIMETER
100
AcDbLine
10
203.07499999999962
20
-297.07500000000005
30
0
11
203.07499999999976
21
-279.92500000000001
31
0
0
LINE
5
135
100
AcDbEntity
8
PERIMETER
100
AcDbLine
10
203.07499999999976
20
-279.92500000000001
30
0
11
200.07499999999979
21
-279.92500000000001
31
0
0
LINE
5
136
100
AcDbEntity
8
PERIMETER
100
AcDbLine
10
200.07499999999979
20
-279.92500000000001
30
0
11
200.07499999999979
21
-255.07499999999999
31
0
0
LINE
5
137
100
AcDbEntity
8
PERIMETER
100
AcDbLine
10
200.07499999999979
20
-255.07499999999999
30
0
11
203.0749999999999
21
-255.07499999999999
31
0
0
LINE
5
138
100
AcDbEntity
8
PERIMETER
100
AcDbLine
10
203.0749999999999
20
-255.07499999999999
30
0
11
203.0749999999999
21
-221.59166666666664
31
0
0
LINE
5
139
100
AcDbEntity
8
PERIMETER
100
AcDbLine
10
203.0749999999999
20
-221.59166666666664
30
0
11
200.07499999999979
21
-221.59166666666664
31
0
0
LINE
5
13A
100
AcDbEntity
8
PERIMETER
100
AcDbLine
10
200.07499999999979
20
-221.59166666666664
30
0
11
200.07499999999979
21
-196.74166666666665
31
0
0
LINE
5
13B
100
AcDbEntity
8
PERIMETER
100
AcDbLine
10
200.07499999999979
20
-196.74166666666665
30
0
11
203.0749999999999
21
-196.74166666666665
31
0
0
LINE
5
13C
100
AcDbEntity
8
PERIMETER
100
AcDbLine
10
203.0749999999999
20
-196.74166666666665
30
0
11
203.0749999999999
21
-163.25833333333327
31
0
0
LINE
5
13D
100
AcDbEntity
8
PERIMETER
100
AcDbLine
10
203.0749999999999
20
-163.25833333333327
30
0
11
200.07499999999979
21
-163.25833333333327
31
0
0
LINE
5
13E
100
AcDbEntity
8
PERIMETER
100
AcDbLine
10
200.07499999999979
20
-163.25833333333327
30
0
11
200.07499999999979
21
-138.4083333333333
31
0
0
LINE
5
13F
100
AcDbEntity
8
PERIMETER
100
AcDbLine
10
200.07499999999979
20
-138.4083333333333
30
0
11
203.0749999999999
21
-138.4083333333333
31
0
0
LINE
5
140
100
AcDbEntity
8
PERIMETER
100
AcDbLine
10
203.0749999999999
20
-138.4083333333333
30
0
11
203.0749999999999
21
-104.925
31
0
0
LINE
5
141
100
AcDbEntity
8
PERIMETER
100
AcDbLine
10
203.0749999999999
20
-104.925
30
0
11
200.07499999999979
21
-104.925
31
0
0
LINE
5
142
100
AcDbEntity
8
PERIMETER
100
AcDbLine
10
200.07499999999979
20
-104.925
30
0
11
200.07499999999979
21
-80.075000000000003
31
0
0
LINE
5
143
100
AcDbEntity
8
PERIMETER
100
AcDbLine
10
200.07499999999979
20
-80.075000000000003
30
0
11
203.0749999999999
21
-80.075000000000003
31
0
0
LINE
5
144
100
AcDbEntity
8
PERIMETER
100
AcDbLine
10
203.0749999999999
20
-80.075000000000003
30
0
11
203.0749999999999
21
-46.59166666666664
31
0
0
LINE
5
145
100
AcDbEntity
8
PERIMETER
100
AcDbLine
10
203.0749999999999
20
-46.59166666666664
30
0
11
200.07499999999979
21
-46.59166666666664
31
0
0
LINE
5
146
100
AcDbEntity
8
PERIMETER
100
AcDbLine
10
200.07499999999979
20
-46.59166666666664
30
0
11
200.07499999999979
21
-21.741666666666646
31
0
0
LINE
5
147
100
AcDbEntity
8
PERIMETER
100
AcDbLine
10
200.07499999999979
20
-21.741666666666646
30
0
11
203.0749999999999
21
-21.741666666666646
31
0
0
LINE
5
148
100
AcDbEntity
8
PERIMETER
100
AcDbLine
10
203.0749999999999
20
-21.741666666666646
30
0
11
203.0749999999999
21
11.741666666666681
31
0
0
LINE
5
149
100
AcDbEntity
8
PERIMETER
100
AcDbLine
10
203.0749999999999
20
11.741666666666646
30
0
11
200.07499999999979
21
11.74166666666661
31
0
0
LINE
5
14A
100
AcDbEntity
8
PERIMETER
100
AcDbLine
10
200.07499999999979
20
11.741666666666646
30
0
11
200.07499999999979
21
36.59166666666664
31
0
0
LINE
5
14B
100
AcDbEntity
8
PERIMETER
100
AcDbLine
10
200.07499999999979
20
36.59166666666664
30
0
11
203.0749999999999
21
36.59166666666664
31
0
0
LINE
5
14C
100
AcDbEntity
8
PERIMETER
100
AcDbLine
10
203.0749999999999
20
36.59166666666664
30
0
11
203.0749999999999
21
70.07499999999996
31
0
0
LINE
5
14D
100
AcDbEntity
8
PERIMETER
100
AcDbLine
10
203.0749999999999
20
70.074999999999932
30
0
11
200.07499999999979
21
70.07499999999996
31
0
0
LINE
5
14E
100
AcDbEntity
8
PERIMETER
100
AcDbLine
10
200.07499999999979
20
70.075000000000003
30
0
11
200.07499999999979
21
94.924999999999997
31
0
0
LINE
5
14F
100
AcDbEntity
8
PERIMETER
100
AcDbLine
10
200.07499999999979
20
94.924999999999997
30
0
11
203.0749999999999
21
94.924999999999997
31
0
0
LINE
5
150
100
AcDbEntity
8
PERIMETER
100
AcDbLine
10
203.0749999999999
20
94.924999999999997
30
0
11
203.0749999999999
21
128.40833333333336
31
0
0
LINE
5
151
100
AcDbEntity
8
PERIMETER
100
AcDbLine
10
203.0749999999999
20
128.40833333333336
30
0
11
200.07499999999979
21
128.40833333333336
31
0
0
LINE
5
152
100
AcDbEntity
8
PERIMETER
100
AcDbLine
10
200.07499999999979
20
128.40833333333336
30
0
11
200.07499999999979
21
153.25833333333333
31
0
0
LINE
5
153
100
AcDbEntity
8
PERIMETER
100
AcDbLine
10
200.07499999999979
20
153.25833333333333
30
0
11
203.0749999999999
21
153.25833333333333
31
0
0
LINE
5
154
100
AcDbEntity
8
PERIMETER
100
AcDbLine
10
203.0749999999999
20
153.25833333333333
30
0
11
203.0749999999999
21
186.74166666666665
31
0
0
LINE
5
155
100
AcDbEntity
8
PERIMETER
100
AcDbLine
10
203.0749999999999
20
186.74166666666665
30
0
11
200.07499999999979
21
186.74166666666665
31
0
0
LINE
5
156
100
AcDbEntity
8
PERIMETER
100
AcDbLine
10
200.07499999999979
20
186.74166666666665
30
0
11
200.07499999999979
21
211.59166666666664
31
0
0
LINE
5
157
100
AcDbEntity
8
PERIMETER
100
AcDbLine
10
200.07499999999979
20
211.59166666666664
30
0
11
203.0749999999999
21
211.59166666666664
31
0
0
LINE
5
158
100
AcDbEntity
8
PERIMETER
100
AcDbLine
10
203.0749999999999
20
211.59166666666664
30
0
11
203.0749999999999
21
245.07499999999996
31
0
0
LINE
5
159
100
AcDbEntity
8
PERIMETER
100
AcDbLine
10
203.0749999999999
20
245.07499999999996
30
0
11
200.07499999999979
21
245.07499999999996
31
0
0
LINE
5
15A
100
AcDbEntity
8
PERIMETER
100
AcDbLine
10
200.07499999999979
20
245.07499999999999
30
0
11
200.07499999999979
21
269.92500000000001
31
0
0
LINE
5
15B
100
AcDbEntity
8
PERIMETER
100
AcDbLine
10
200.07499999999979
20
269.92500000000001
30
0
11
203.0749999999999
21
269.92500000000001
31
0
0
LINE
5
15C
100
AcDbEntity
8
PERIMETER
100
AcDbLine
10
203.0749999999999
20
269.92500000000001
30
0
11
203.0749999999999
21
300.07499999999999
31
0
0
LINE
5
15D
100
AcDbEntity
8
PERIMETER
100
AcDbLine
10
203.0749999999999
20
300.07499999999999
30
0
11
141.73397172404478
21
300.07499999999999
31
0
0
ARC
5
15E
100
AcDbEntity
8
PERIMETER
100
AcDbCircle
10
141.73397172404464
20
250.00000000000026
30
0
40
50.074999999999754
210
0
220
-0
230
1
100
AcDbArc
50
89.999999999999801
51
144.31466528734794
0
ARC
5
15F
100
AcDbEntity
8
PERIMETER
100
AcDbCircle
10
92.999999999999972
20
285
30
0
40
9.9249999999999972
210
-0
220
0
230
1
100
AcDbArc
50
270
51
324.31466528734882
0
LINE
5
160
100
AcDbEntity
8
PERIMETER
100
AcDbLine
10
92.999999999999972
20
275.07499999999999
30
0
11
-93.000000000000256
21
275.07499999999999
31
0
0
ARC
5
161
100
AcDbEntity
8
PERIMETER
100
AcDbCircle
10
-93.000000000000114
20
285
30
0
40
9.9250000000000309
210
0
220
0
230
1
100
AcDbArc
50
215.68533471265141
51
270
0
ARC
5
162
100
AcDbEntity
8
PERIMETER
100
AcDbCircle
10
-141.73397172404464
20
250.00000000000031
30
0
40
50.074999999999541
210
0
220
-0
230
1
100
AcDbArc
50
35.685334712652086
51
90.000000000000327
0
LINE
5
163
100
AcDbEntity
8
PERIMETER
100
AcDbLine
10
-141.73397172404492
20
300.07499999999987
30
0
11
-203.07500000000005
21
300.07499999999999
31
0
0
LINE
5
164
100
AcDbEntity
8
PERIMETER
100
AcDbLine
10
-203.07500000000005
20
300.07499999999999
30
0
11
-203.07499999999976
21
269.92500000000001
31
0
0
LINE
5
165
100
AcDbEntity
8
PERIMETER
100
AcDbLine
10
-203.07499999999976
20
269.92500000000001
30
0
11
-200.07499999999993
21
269.92500000000001
31
0
0
LINE
5
166
100
AcDbEntity
8
PERIMETER
100
AcDbLine
10
-200.07499999999993
20
269.92500000000001
30
0
11
-200.07499999999993
21
245.07499999999999
31
0
0
LINE
5
167
100
AcDbEntity
8
PERIMETER
100
AcDbLine
10
-200.07499999999993
20
245.07499999999999
30
0
11
-203.07499999999976
21
245.07499999999999
31
0
0
LINE
5
168
100
AcDbEntity
8
PERIMETER
100
AcDbLine
10
-203.07499999999976
20
245.07499999999999
30
0
11
-203.07499999999976
21
211.59166666666667
31
0
0
LINE
5
169
100
AcDbEntity
8
PERIMETER
100
AcDbLine
10
-203.07499999999976
20
211.59166666666664
30
0
11
-200.07499999999993
21
211.59166666666664
31
0
0
LINE
5
16A
100
AcDbEntity
8
PERIMETER
100
AcDbLine
10
-200.07499999999993
20
211.59166666666664
30
0
11
-200.07499999999993
21
186.74166666666665
31
0
0
LINE
5
16B
100
AcDbEntity
8
PERIMETER
100
AcDbLine
10
-200.07499999999993
20
186.74166666666665
30
0
11
-203.07499999999976
21
186.74166666666665
31
0
0
LINE
5
16C
100
AcDbEntity
8
PERIMETER
100
AcDbLine
10
-203.07499999999976
20
186.74166666666665
30
0
11
-203.07499999999976
21
153.2583333333333
31
0
0
LINE
5
16D
100
AcDbEntity
8
PERIMETER
100
AcDbLine
10
-203.07499999999976
20
153.25833333333333
30
0
11
-200.07499999999993
21
153.25833333333333
31
0
0
LINE
5
16E
100
AcDbEntity
8
PERIMETER
100
AcDbLine
10
-200.07499999999993
20
153.25833333333333
30
0
11
-200.07499999999993
21
128.40833333333333
31
0
0
LINE
5
16F
100
AcDbEntity
8
PERIMETER
100
AcDbLine
10
-200.07499999999993
20
128.40833333333336
30
0
11
-203.07499999999976
21
128.40833333333336
31
0
0
LINE
5
170
100
AcDbEntity
8
PERIMETER
100
AcDbLine
10
-203.07499999999976
20
128.40833333333336
30
0
11
-203.07499999999976
21
94.924999999999997
31
0
0
LINE
5
171
100
AcDbEntity
8
PERIMETER
100
AcDbLine
10
-203.07499999999976
20
94.924999999999997
30
0
11
-200.07499999999993
21
94.924999999999997
31
0
0
LINE
5
172
100
AcDbEntity
8
PERIMETER
100
AcDbLine
10
-200.07499999999993
20
94.924999999999997
30
0
11
-200.07499999999993
21
70.075000000000003
31
0
0
LINE
5
173
100
AcDbEntity
8
PERIMETER
100
AcDbLine
10
-200.07499999999993
20
70.075000000000003
30
0
11
-203.07499999999976
21
70.075000000000003
31
0
0
LINE
5
174
100
AcDbEntity
8
PERIMETER
100
AcDbLine
10
-203.07499999999976
20
70.075000000000003
30
0
11
-203.07499999999976
21
36.591666666666676
31
0
0
LINE
5
175
100
AcDbEntity
8
PERIMETER
100
AcDbLine
10
-203.07499999999976
20
36.59166666666664
30
0
11
-200.07499999999993
21
36.591666666666605
31
0
0
LINE
5
176
100
AcDbEntity
8
PERIMETER
100
AcDbLine
10
-200.07499999999993
20
36.59166666666664
30
0
11
-200.07499999999993
21
11.741666666666646
31
0
0
LINE
5
177
100
AcDbEntity
8
PERIMETER
100
AcDbLine
10
-200.07499999999993
20
11.741666666666646
30
0
11
-203.07499999999976
21
11.741666666666646
31
0
0
LINE
5
178
100
AcDbEntity
8
PERIMETER
100
AcDbLine
10
-203.07499999999976
20
11.741666666666646
30
0
11
-203.07499999999976
21
-21.741666666666681
31
0
0
LINE
5
179
100
AcDbEntity
8
PERIMETER
100
AcDbLine
10
-203.07499999999976
20
-21.741666666666717
30
0
11
-200.07499999999993
21
-21.741666666666681
31
0
0
LINE
5
17A
100
AcDbEntity
8
PERIMETER
100
AcDbLine
10
-200.07499999999993
20
-21.741666666666646
30
0
11
-200.07499999999993
21
-46.59166666666664
31
0
0
LINE
5
17B
100
AcDbEntity
8
PERIMETER
100
AcDbLine
10
-200.07499999999993
20
-46.59166666666664
30
0
11
-203.07499999999976
21
-46.59166666666664
31
0
0
LINE
5
17C
100
AcDbEntity
8
PERIMETER
100
AcDbLine
10
-203.07499999999976
20
-46.59166666666664
30
0
11
-203.07499999999976
21
-80.075000000000003
31
0
0
ENDSEC
0
SECTION
2
OBJECTS
0
DICTIONARY
5
C
100
AcDbDictionary
3
ACAD_GROUP
350
D
3
ACAD_MLINESTYLE
350
17
0
DICTIONARY
5
D
100
AcDbDictionary
0
DICTIONARY
5
1A
330
C
100
AcDbDictionary
0
DICTIONARY
5
17
100
AcDbDictionary
0
ENDSEC
0
EOF
