0
SECTION
2
HEADER
9
$INSUNITS
70
4
9
$ACADVER
1
AC1014
9
$HANDSEED
5
FFFF
0
ENDSEC
0
SECTION
2
TABLES
0
TABLE
2
VPORT
5
8
100
AcDbSymbolTable
0
ENDTAB
0
TABLE
2
LTYPE
5
5
100
AcDbSymbolTable
70
2
0
LTYPE
5
14
100
AcDbSymbolTableRecord
100
AcDbLinetypeTableRecord
2
BYBLOCK
70
0
0
LTYPE
5
15
100
AcDbSymbolTableRecord
100
AcDbLinetypeTableRecord
2
BYLAYER
70
0
0
ENDTAB
0
TABLE
2
LAYER
5
2
100
AcDbSymbolTable
70
3
0
LAYER
5
50
100
AcDbSymbolTableRecord
100
AcDbLayerTableRecord
2
0
70
0
6
CONTINUOUS
0
LAYER
5
51
100
AcDbSymbolTableRecord
100
AcDbLayerTableRecord
2
CUTOUTS
70
0
62
1
6
CONTINUOUS
0
LAYER
5
52
100
AcDbSymbolTableRecord
100
AcDbLayerTableRecord
2
PERIMETER
70
0
62
5
6
CONTINUOUS
0
ENDTAB
0
TABLE
2
STYLE
5
3
100
AcDbSymbolTable
70
1
0
STYLE
5
11
100
AcDbSymbolTableRecord
100
AcDbTextStyleTableRecord
2
STANDARD
70
0
0
ENDTAB
0
TABLE
2
VIEW
5
6
100
AcDbSymbolTable
0
ENDTAB
0
TABLE
2
UCS
5
7
100
AcDbSymbolTable
0
ENDTAB
0
TABLE
2
APPID
5
9
100
AcDbSymbolTable
70
1
0
APPID
5
12
100
AcDbSymbolTableRecord
100
AcDbRegAppTableRecord
2
ACAD
70
0
0
ENDTAB
0
TABLE
2
DIMSTYLE
5
A
100
AcDbSymbolTable
0
ENDTAB
0
TABLE
2
BLOCK_RECORD
5
1
100
AcDbSymbolTable
70
2
0
BLOCK_RECORD
5
1F
100
AcDbSymbolTableRecord
100
AcDbBlockTableRecord
2
*MODEL_SPACE
0
BLOCK_RECORD
5
1B
100
AcDbSymbolTableRecord
100
AcDbBlockTableRecord
2
*PAPER_SPACE
0
ENDTAB
0
ENDSEC
0
SECTION
2
BLOCKS
0
BLOCK
5
20
100
AcDbEntity
100
AcDbBlockBegin
2
*MODEL_SPACE
0
ENDBLK
5
21
100
AcDbEntity
100
AcDbBlockEnd
0
BLOCK
5
1C
100
AcDbEntity
100
AcDbBlockBegin
2
*PAPER_SPACE
0
ENDBLK
5
1D
100
AcDbEntity
100
AcDbBlockEnd
0
ENDSEC
0
SECTION
2
ENTITIES
0
SPLINE
5
100
100
AcDbEntity
8
CUTOUTS
100
AcDbSpline
70
0
71
3
72
29
73
25
74
0
42
0.000000001
43
0.0000000001
44
0.0000000001
40
0.00037907553970767822
40
0.00037907553970767822
40
0.00037907553970767822
40
0.00037907553970767822
40
0.05876266866008506
40
0.05876266866008506
40
0.05876266866008506
40
0.10636885973790018
40
0.10636885973790018
40
0.10636885973790018
40
0.14430922258138812
40
0.14430922258138812
40
0.14430922258138812
40
0.18459066575763167
40
0.18459066575763167
40
0.18459066575763167
40
0.22958392575479183
40
0.22958392575479183
40
0.22958392575479183
40
0.25830851951878542
40
0.25830851951878542
40
0.25830851951878542
40
0.2866175310339773
40
0.2866175310339773
40
0.2866175310339773
40
0.28713459510225142
40
0.28713459510225142
40
0.28713459510225142
40
0.28713459510225142
10
-98.575004548782431
20
-237.99639944360297
30
0
10
-98.593173427314014
20
-238.18031816259094
30
0
10
-98.647110825749877
20
-238.35887780568416
30
0
10
-98.733797070269787
20
-238.52214792010244
30
0
10
-98.804586027919058
20
-238.65547612319807
30
0
10
-98.907880339357462
20
-238.80040447506147
30
0
10
-99.062114128226852
20
-238.92666821532868
30
0
10
-99.185043566544934
20
-239.02730459847641
30
0
10
-99.325654658634903
20
-239.10406564873486
30
0
10
-99.47678377679479
20
-239.15298120185031
30
0
10
-99.637238927372493
20
-239.20491528666662
30
0
10
-99.806358575269371
20
-239.22443242909412
30
0
10
-99.974472004874372
20
-239.21049278799359
30
0
10
-100.16239131729054
20
-239.19491088131846
30
0
10
-100.29672945800073
20
-239.14325027345595
30
0
10
-100.40681138601146
20
-239.08581417435417
30
0
10
-100.47635401693312
20
-239.04952976769823
30
0
10
-100.54191731043312
20
-239.00610556515738
30
0
10
-100.60244687216219
20
-238.95622818476829
30
0
10
-100.66210073044637
20
-238.90707239879663
30
0
10
-100.71653522368855
20
-238.85192108707054
30
0
10
-100.76490914855449
20
-238.79162898466578
30
0
10
-100.76585143599834
20
-238.79045454014391
30
0
10
-100.76679372344216
20
-238.78928009562208
30
0
10
-100.76773601088603
20
-238.78810565110024
30
0
0
ARC
5
101
100
AcDbEntity
8
CUTOUTS
100
AcDbCircle
10
-100.00000000000102
20
-238.00000000000017
30
0
40
1.1002404735808149
210
-7.8997949767769864e-36
220
-1.9259137425977177e-33
230
1
100
AcDbArc
50
179.7649830505332
51
225.75009415549724
0
SPLINE
5
102
100
AcDbEntity
8
CUTOUTS
100
AcDbSpline
70
0
71
3
72
29
73
25
74
0
42
0.000000001
43
0.0000000001
44
0.0000000001
40
-0.00046642672403597791
40
-0.00046642672403597791
40
-0.00046642672403597791
40
-0.00046642672403597791
40
0
40
0
40
0
40
0.046339692848830785
40
0.046339692848830785
40
0.046339692848830785
40
0.10281780226769299
40
0.10281780226769299
40
0.10281780226769299
40
0.18034374867160177
40
0.18034374867160177
40
0.18034374867160177
40
0.25980127847822637
40
0.25980127847822637
40
0.25980127847822637
40
0.3220375636182698
40
0.3220375636182698
40
0.3220375636182698
40
0.35809591425475917
40
0.35809591425475917
40
0.35809591425475917
40
0.39475360165379081
40
0.39475360165379081
40
0.39475360165379081
40
0.39475360165379081
10
-101.10023121786378
20
-237.9954870247532
30
0
10
-101.10042074172897
20
-237.99394386366728
30
0
10
-101.10061026559414
20
-237.99240070258151
30
0
10
-101.10079978945932
20
-237.9908575414957
30
0
10
-101.11841875507302
20
-237.84739855240022
30
0
10
-101.10737434941548
20
-237.70188851402324
30
0
10
-101.06840118190952
20
-237.56265365229558
30
0
10
-101.02090598093092
20
-237.39297312171078
30
0
10
-100.93912813087053
20
-237.25911078673977
30
0
10
-100.86863935674702
20
-237.16644331406593
30
0
10
-100.77207460112791
20
-237.03949527214203
30
0
10
-100.65191013634559
20
-236.93245693399021
30
0
10
-100.51469146841345
20
-236.85115042132571
30
0
10
-100.37405337479996
20
-236.76781778800543
30
0
10
-100.21830582433284
20
-236.71317640875424
30
0
10
-100.0563991850497
20
-236.69024971576806
30
0
10
-99.929568771069825
20
-236.67228997072306
30
0
10
-99.763984412909849
20
-236.66890483321467
30
0
10
-99.581890237939987
20
-236.70760543509547
30
0
10
-99.476390907225351
20
-236.73002728135913
30
0
10
-99.373891321413552
20
-236.76471861925165
30
0
10
-99.276460789778668
20
-236.81097898651899
30
0
10
-99.177410835483101
20
-236.85800826149716
30
0
10
-99.084317843379921
20
-236.91665353420683
30
0
10
-98.999117651948453
20
-236.98567287063963
30
0
0
ARC
5
103
100
AcDbEntity
8
CUTOUTS
100
AcDbCircle
10
-100.00000000000102
20
-238.00000000000017
30
0
40
1.4250000000000207
210
9.8636982565784513e-32
220
-1.1498982687275763e-32
230
1
100
AcDbArc
50
0.14476975786941584
51
45.382251971814419
0
SPLINE
5
104
100
AcDbEntity
8
CUTOUTS
100
AcDbSpline
70
0
71
3
72
29
73
25
74
0
42
0.000000001
43
0.0000000001
44
0.0000000001
40
0.00037907553970329235
40
0.00037907553970329235
40
0.00037907553970329235
40
0.00037907553970329235
40
0.058762668659879308
40
0.058762668659879308
40
0.058762668659879308
40
0.10636885973889933
40
0.10636885973889933
40
0.10636885973889933
40
0.14430922258285014
40
0.14430922258285014
40
0.14430922258285014
40
0.18459066576060032
40
0.18459066576060032
40
0.18459066576060032
40
0.22958392575956083
40
0.22958392575956083
40
0.22958392575956083
40
0.25830851952514938
40
0.25830851952514938
40
0.25830851952514938
40
0.28661753104329729
40
0.28661753104329729
40
0.28661753104329729
40
0.28713459511170109
40
0.28713459511170109
40
0.28713459511170109
40
0.28713459511170109
10
101.42499545121748
20
-237.99639944359512
30
2.8421709430404007e-13
10
101.40682657268701
20
-238.1803181625823
30
2.8421709430404007e-13
10
101.3528891742516
20
-238.35887780567509
30
2.8421709430404007e-13
10
101.26620292973513
20
-238.5221479200905
30
2.8421709430404007e-13
10
101.19541397208667
20
-238.65547612318764
30
2.8421709430404007e-13
10
101.09211966064547
20
-238.80040447505891
30
2.8421709430404007e-13
10
100.93788587177357
20
-238.92666821532825
30
2.8421709430404007e-13
10
100.81495643345477
20
-239.02730459847663
30
2.8421709430404007e-13
10
100.67434534136697
20
-239.10406564873301
30
2.8421709430404007e-13
10
100.52321622320957
20
-239.15298120184832
30
2.8421709430404007e-13
10
100.36276107263089
20
-239.20491528666562
30
2.8421709430404007e-13
10
100.19364142473243
20
-239.2244324290931
30
2.8421709430404007e-13
10
100.0255279951283
20
-239.21049278799302
30
2.8421709430404007e-13
10
99.837608682712542
20
-239.19491088131835
30
2.8421709430404007e-13
10
99.703270542000624
20
-239.14325027345609
30
2.8421709430404007e-13
10
99.593188613988588
20
-239.08581417435363
30
2.8421709430404007e-13
10
99.52364598306481
20
-239.04952976769661
30
2.8421709430404007e-13
10
99.458082689569238
20
-239.00610556515761
30
2.8421709430404007e-13
10
99.397553127842684
20
-238.95622818477113
30
2.8421709430404007e-13
10
99.33789926955879
20
-238.90707239880015
30
2.8421709430404007e-13
10
99.283464776316706
20
-238.85192108707395
30
2.8421709430404007e-13
10
99.235090851453194
20
-238.79162898467331
30
2.8421709430404007e-13
10
99.234148564009274
20
-238.79045454015142
30
2.8421709430404007e-13
10
99.233206276565397
20
-238.78928009562946
30
2.8421709430404007e-13
10
99.232263989121279
20
-238.78810565110729
30
2.8421709430404007e-13
0
ARC
5
105
100
AcDbEntity
8
CUTOUTS
100
AcDbCircle
10
99.999999999999147
20
-238.00000000000014
30
2.8421709430404007e-13
40
1.1002404735812132
210
3.0019220895200758e-35
220
7.3184722218713931e-33
230
1
100
AcDbArc
50
179.76498305066193
51
225.7500941560177
0
SPLINE
5
106
100
AcDbEntity
8
CUTOUTS
100
AcDbSpline
70
0
71
3
72
29
73
25
74
0
42
0.000000001
43
0.0000000001
44
0.0000000001
40
-0.00046642672399383909
40
-0.00046642672399383909
40
-0.00046642672399383909
40
-0.00046642672399383909
40
0
40
0
40
0
40
0.046339692848467381
40
0.046339692848467381
40
0.046339692848467381
40
0.10281780226725412
40
0.10281780226725412
40
0.10281780226725412
40
0.18034374867556333
40
0.18034374867556333
40
0.18034374867556333
40
0.25980127848857471
40
0.25980127848857471
40
0.25980127848857471
40
0.32203756359381569
40
0.32203756359381569
40
0.32203756359381569
40
0.35809591419877096
40
0.35809591419877096
40
0.35809591419877096
40
0.39475360156649142
40
0.39475360156649142
40
0.39475360156649142
40
0.39475360156649142
10
98.899768782135993
20
-237.99548702475565
30
2.8421709430404007e-13
10
98.899579258270933
20
-237.99394386367058
30
2.8421709430404007e-13
10
98.899389734405787
20
-237.99240070258494
30
2.8421709430404007e-13
10
98.899200210540641
20
-237.99085754149928
30
2.8421709430404007e-13
10
98.881581244926508
20
-237.84739855240443
30
2.8421709430404007e-13
10
98.892625650581863
20
-237.70188851402881
30
2.8421709430404007e-13
10
98.931598818088844
20
-237.5626536522968
30
2.8421709430404007e-13
10
98.979094019068938
20
-237.39297312170584
30
2.8421709430404007e-13
10
99.060871869134033
20
-237.25911078673221
30
2.8421709430404007e-13
10
99.131360643253714
20
-237.16644331406366
30
2.8421709430404007e-13
10
99.227925398873182
20
-237.03949527213979
30
2.8421709430404007e-13
10
99.348089863655886
20
-236.93245693398802
30
2.8421709430404007e-13
10
99.485308531588402
20
-236.85115042132372
30
2.8421709430404007e-13
10
99.62594662520533
20
-236.76781778800179
30
2.8421709430404007e-13
10
99.781694175677345
20
-236.71317640875134
30
2.8421709430404007e-13
10
99.943600814960263
20
-236.69024971576661
30
2.8421709430404007e-13
10
100.07043122885901
20
-236.67228997073414
30
2.8421709430404007e-13
10
100.23601558702464
20
-236.6689048332
30
2.8421709430404007e-13
10
100.4181097620593
20
-236.70760543509454
30
2.8421709430404007e-13
10
100.52360909277816
20
-236.73002728135901
30
2.8421709430404007e-13
10
100.62610867858794
20
-236.76471861925199
30
2.8421709430404007e-13
10
100.72353921022187
20
-236.81097898651899
30
2.8421709430404007e-13
10
100.82258916451789
20
-236.85800826149742
30
2.8421709430404007e-13
10
100.9156821566215
20
-236.91665353420805
30
2.8421709430404007e-13
10
101.00088234805116
20
-236.98567287063938
30
2.8421709430404007e-13
0
ARC
5
107
100
AcDbEntity
8
CUTOUTS
100
AcDbCircle
10
99.999999999999147
20
-238.00000000000014
30
2.8421709430404007e-13
40
1.424999999999774
210
1.8491785058385821e-35
220
-7.3185104269791602e-33
230
1
100
AcDbArc
50
0.14476975818410961
51
45.382251971835089
0
SPLINE
5
108
100
AcDbEntity
8
CUTOUTS
100
AcDbSpline
70
0
71
3
72
29
73
25
74
0
42
0.000000001
43
0.0000000001
44
0.0000000001
40
-0.000466426723974655
40
-0.000466426723974655
40
-0.000466426723974655
40
-0.000466426723974655
40
0
40
0
40
0
40
0.046339692849843982
40
0.046339692849843982
40
0.046339692849843982
40
0.10281780228029239
40
0.10281780228029239
40
0.10281780228029239
40
0.18034374870420344
40
0.18034374870420344
40
0.18034374870420344
40
0.25980127853592844
40
0.25980127853592844
40
0.25980127853592844
40
0.32203756377221016
40
0.32203756377221016
40
0.32203756377221016
40
0.35809591447938621
40
0.35809591447938621
40
0.35809591447938621
40
0.39475360194939474
40
0.39475360194939474
40
0.39475360194939474
40
0.39475360194939474
10
-101.10023121786496
20
230.00451297499868
30
0
10
-101.10042074173049
20
230.00605613608411
30
0
10
-101.10061026559595
20
230.00759929716966
30
0
10
-101.10079978946146
20
230.00914245825524
30
0
10
-101.1184187551078
20
230.15260144735026
30
0
10
-101.10737434948318
20
230.29811148573313
30
0
10
-101.06840118200722
20
230.4373463474742
30
0
10
-101.02090598105673
20
230.60702687810559
30
0
10
-100.93912813100211
20
230.74088921310778
30
0
10
-100.86863935689584
20
230.83355668579057
30
0
10
-100.77207460129573
20
230.96050472773268
30
0
10
-100.65191013652725
20
231.06754306590571
30
0
10
-100.51469146861129
20
231.14884957859229
30
0
10
-100.37405337500618
20
231.23218221193991
30
0
10
-100.21830582454191
20
231.28682359121964
30
0
10
-100.05639918525489
20
231.30975028423325
30
0
10
-99.929568771116294
20
231.32771002932185
30
0
10
-99.763984412958152
20
231.33109516680523
30
0
10
-99.581890238087112
20
231.29239456496708
30
0
10
-99.476390907386019
20
231.26997271871883
30
0
10
-99.373891321593035
20
231.2352813808472
30
0
10
-99.276460789971566
20
231.18902101360601
30
0
10
-99.177410835692854
20
231.14199173865589
30
0
10
-99.08431784360117
20
231.08334646597842
30
0
10
-98.999117652178001
20
231.01432712958496
30
0
0
ARC
5
109
100
AcDbEntity
8
CUTOUTS
100
AcDbCircle
10
-100.00000000000119
20
229.9999999999979
30
0
40
1.4250000000000504
210
-3.0170809825931456e-35
220
1.1940727538749842e-32
230
1
100
AcDbArc
50
0.14476977078192932
51
45.382251984775564
0
SPLINE
5
10A
100
AcDbEntity
8
CUTOUTS
100
AcDbSpline
70
0
71
3
72
29
73
25
74
0
42
0.000000001
43
0.0000000001
44
0.0000000001
40
0.00037907553971145303
40
0.00037907553971145303
40
0.00037907553971145303
40
0.00037907553971145303
40
0.058762668655894121
40
0.058762668655894121
40
0.058762668655894121
40
0.10636885973308606
40
0.10636885973308606
40
0.10636885973308606
40
0.14430922257203682
40
0.14430922257203682
40
0.14430922257203682
40
0.18459066574536309
40
0.18459066574536309
40
0.18459066574536309
40
0.22958392573981362
40
0.22958392573981362
40
0.22958392573981362
40
0.25830851948900635
40
0.25830851948900635
40
0.25830851948900635
40
0.286617530988859
40
0.286617530988859
40
0.286617530988859
40
0.28713459505700883
40
0.28713459505700883
40
0.28713459505700883
40
0.28713459505700883
10
-98.575004548783369
20
230.00360055671624
30
0
10
-98.593173427272205
20
229.81968183773762
30
0
10
-98.647110825662423
20
229.64112219464513
30
0
10
-98.733797070135267
20
229.47785208021881
30
0
10
-98.804586027750304
20
229.34452387710874
30
0
10
-98.907880339165388
20
229.19959552519717
30
0
10
-99.062114128010734
20
229.07333178488781
30
0
10
-99.185043566297267
20
228.97269540171681
30
0
10
-99.325654658357379
20
228.89593435143016
30
0
10
-99.476783776493178
20
228.84701879827955
30
0
10
-99.637238927052636
20
228.79508471342351
30
0
10
-99.806358574939367
20
228.77556757095309
30
0
10
-99.974472004542392
20
228.78950721200977
30
0
10
-100.16239131695882
20
228.80508911863598
30
0
10
-100.29672945774035
20
228.85674972646999
30
0
10
-100.40681138579954
20
228.91418582556949
30
0
10
-100.47635401672375
20
228.95047023220937
30
0
10
-100.54191731022735
20
228.9938944347337
30
0
10
-100.60244687196212
20
229.04377181510651
30
0
10
-100.66210073024976
20
229.0929276010603
30
0
10
-100.7165352234978
20
229.14807891277025
30
0
10
-100.76490914836754
20
229.2083710151515
30
0
10
-100.76585143581173
20
229.20954545967322
30
0
10
-100.76679372325592
20
229.21071990419495
30
0
10
-100.76773601070045
20
229.21189434871718
30
0
0
ARC
5
10B
100
AcDbEntity
8
CUTOUTS
100
AcDbCircle
10
-100.00000000000119
20
229.9999999999979
30
0
40
1.1002404735808176
210
9.8590984032002435e-32
220
-4.2562969659443419e-33
230
1
100
AcDbArc
50
179.76498306335367
51
225.75009416898877
0
SPLINE
5
10C
100
AcDbEntity
8
CUTOUTS
100
AcDbSpline
70
0
71
3
72
29
73
25
74
0
42
0.000000001
43
0.0000000001
44
0.0000000001
40
0.00037907553967186014
40
0.00037907553967186014
40
0.00037907553967186014
40
0.00037907553967186014
40
0.05876266865589376
40
0.05876266865589376
40
0.05876266865589376
40
0.10636885973337684
40
0.10636885973337684
40
0.10636885973337684
40
0.14430922257214432
40
0.14430922257214432
40
0.14430922257214432
40
0.18459066574506638
40
0.18459066574506638
40
0.18459066574506638
40
0.22958392573934089
40
0.22958392573934089
40
0.22958392573934089
40
0.25830851948799921
40
0.25830851948799921
40
0.25830851948799921
40
0.2866175309877364
40
0.2866175309877364
40
0.2866175309877364
40
0.28713459505579503
40
0.28713459505579503
40
0.28713459505579503
40
0.28713459505579503
10
101.42499545121659
20
230.0036005567176
30
2.8421709430404007e-13
10
101.40682657272794
20
229.81968183773898
30
2.8421709430404007e-13
10
101.3528891743379
20
229.64112219464621
30
2.8421709430404007e-13
10
101.26620292986505
20
229.47785208021958
30
2.8421709430404007e-13
10
101.19541397224961
20
229.34452387710846
30
2.8421709430404007e-13
10
101.09211966083433
20
229.19959552519688
30
2.8421709430404007e-13
10
100.93788587198799
20
229.0733317848871
30
2.8421709430404007e-13
10
100.81495643370204
20
228.97269540171666
30
2.8421709430404007e-13
10
100.67434534163976
20
228.89593435142811
30
2.8421709430404007e-13
10
100.52321622350166
20
228.84701879827747
30
2.8421709430404007e-13
10
100.36276107294057
20
228.79508471342166
30
2.8421709430404007e-13
10
100.19364142505161
20
228.77556757095294
30
2.8421709430404007e-13
10
100.02552799545018
20
228.78950721201034
30
2.8421709430404007e-13
10
99.837608683034489
20
228.8050891186376
30
2.8421709430404007e-13
10
99.70327054225362
20
228.85674972647206
30
2.8421709430404007e-13
10
99.593188614194403
20
228.91418582557233
30
2.8421709430404007e-13
10
99.523645983271194
20
228.95047023221221
30
2.8421709430404007e-13
10
99.458082689768688
20
228.99389443473635
30
2.8421709430404007e-13
10
99.397553128034872
20
229.0437718151087
30
2.8421709430404007e-13
10
99.337899269747609
20
229.09292760106243
30
2.8421709430404007e-13
10
99.283464776499883
20
229.14807891277351
30
2.8421709430404007e-13
10
99.235090851633743
20
229.20837101515016
30
2.8421709430404007e-13
10
99.234148564189795
20
229.20954545967152
30
2.8421709430404007e-13
10
99.233206276745818
20
229.2107199041929
30
2.8421709430404007e-13
10
99.232263989301899
20
229.2118943487144
30
2.8421709430404007e-13
0
ARC
5
10D
100
AcDbEntity
8
CUTOUTS
100
AcDbCircle
10
99.99999999999855
20
229.9999999999977
30
2.8421709430404007e-13
40
1.1002404735807119
210
2.527934254778219e-35
220
6.1629239763183471e-33
230
1
100
AcDbArc
50
179.76498306334281
51
225.75009416917828
0
SPLINE
5
10E
100
AcDbEntity
8
CUTOUTS
100
AcDbSpline
70
0
71
3
72
29
73
25
74
0
42
0.000000001
43
0.0000000001
44
0.0000000001
40
-0.0004664267238891726
40
-0.0004664267238891726
40
-0.0004664267238891726
40
-0.0004664267238891726
40
0
40
0
40
0
40
0.046339692849391774
40
0.046339692849391774
40
0.046339692849391774
40
0.10281780228084078
40
0.10281780228084078
40
0.10281780228084078
40
0.18034374870856498
40
0.18034374870856498
40
0.18034374870856498
40
0.25980127854478557
40
0.25980127854478557
40
0.25980127854478557
40
0.32203756375517351
40
0.32203756375517351
40
0.32203756375517351
40
0.35809591443770217
40
0.35809591443770217
40
0.35809591443770217
40
0.39475360188158998
40
0.39475360188158998
40
0.39475360188158998
40
0.39475360188158998
10
98.899768782134885
20
230.00451297499868
30
2.8421709430404007e-13
10
98.899579258269412
20
230.00605613608354
30
2.8421709430404007e-13
10
98.899389734403968
20
230.00759929716881
30
2.8421709430404007e-13
10
98.89920021053851
20
230.0091424582541
30
2.8421709430404007e-13
10
98.88158124489216
20
230.15260144734785
30
2.8421709430404007e-13
10
98.89262565051574
20
230.29811148572921
30
2.8421709430404007e-13
10
98.931598817991471
20
230.43734634747099
30
2.8421709430404007e-13
10
98.979094018942888
20
230.60702687810777
30
2.8421709430404007e-13
10
99.060871869001232
20
230.74088921311213
30
2.8421709430404007e-13
10
99.131360643104102
20
230.83355668579034
30
2.8421709430404007e-13
10
99.227925398702723
20
230.96050472773047
30
2.8421709430404007e-13
10
99.348089863467919
20
231.06754306590258
30
2.8421709430404007e-13
10
99.485308531384575
20
231.14884957859016
30
2.8421709430404007e-13
10
99.625946624991258
20
231.23218221193954
30
2.8421709430404007e-13
10
99.781694175458398
20
231.28682359121913
30
2.8421709430404007e-13
10
99.943600814743334
20
231.30975028423276
30
2.8421709430404007e-13
10
100.07043122882052
20
231.3277100293129
30
2.8421709430404007e-13
10
100.23601558698346
20
231.33109516681725
30
2.8421709430404007e-13
10
100.41810976190507
20
231.29239456496944
30
2.8421709430404007e-13
10
100.5236090926072
20
231.26997271872168
30
2.8421709430404007e-13
10
100.6261086784001
20
231.23528138085038
30
2.8421709430404007e-13
10
100.72353921002178
20
231.18902101360976
30
2.8421709430404007e-13
10
100.82258916429808
20
231.14199173866152
30
2.8421709430404007e-13
10
100.91568215638756
20
231.0833464659876
30
2.8421709430404007e-13
10
101.00088234781251
20
231.01432712959405
30
2.8421709430404007e-13
0
ARC
5
10F
100
AcDbEntity
8
CUTOUTS
100
AcDbCircle
10
99.99999999999855
20
229.9999999999977
30
2.8421709430404007e-13
40
1.4250000000002498
210
-1.0219145268258118e-35
220
4.0444399728023548e-33
230
1
100
AcDbArc
50
0.14476977084738563
51
45.382251985301572
0
LINE
5
110
100
AcDbEntity
8
PERIMETER
100
AcDbLine
10
36.924999999999955
20
297.07500000000005
30
0
11
7.0749999999999602
21
297.07500000000005
31
0
0
LINE
5
111
100
AcDbEntity
8
PERIMETER
100
AcDbLine
10
7.0749999999999602
20
297.07500000000005
30
0
11
7.074999999999978
21
300.07500000000005
31
8.217301096048236e-33
0
LINE
5
112
100
AcDbEntity
8
PERIMETER
100
AcDbLine
10
7.074999999999978
20
300.07500000000005
30
0
11
-18.075000000000028
21
300.07500000000005
31
0
0
LINE
5
113
100
AcDbEntity
8
PERIMETER
100
AcDbLine
10
-18.075000000000028
20
300.07500000000005
30
0
11
-18.07500000000001
21
297.07500000000005
31
-2.3478003131621439e-33
0
LINE
5
114
100
AcDbEntity
8
PERIMETER
100
AcDbLine
10
-18.07500000000001
20
297.07500000000005
30
0
11
-47.925000000000004
21
297.07500000000005
31
0
0
LINE
5
115
100
AcDbEntity
8
PERIMETER
100
AcDbLine
10
-47.925000000000004
20
297.07500000000005
30
0
11
-47.925000000000004
21
300.07500000000005
31
5.2825507046055526e-33
0
LINE
5
116
100
AcDbEntity
8
PERIMETER
100
AcDbLine
10
-47.925000000000004
20
300.07500000000005
30
0
11
-73.075000000000017
21
300.07500000000005
31
0
0
LINE
5
117
100
AcDbEntity
8
PERIMETER
100
AcDbLine
10
-73.075000000000017
20
300.07500000000005
30
0
11
-73.075000000000003
21
297.07500000000005
31
2.6999703601312107e-32
0
LINE
5
118
100
AcDbEntity
8
PERIMETER
100
AcDbLine
10
-73.075000000000003
20
297.07500000000005
30
0
11
-102.92499999999998
21
297.07500000000005
31
0
0
LINE
5
119
100
AcDbEntity
8
PERIMETER
100
AcDbLine
10
-102.92499999999998
20
297.07500000000005
30
0
11
-102.92500000000001
21
300.07500000000005
31
-2.6999703601312107e-32
0
LINE
5
11A
100
AcDbEntity
8
PERIMETER
100
AcDbLine
10
-102.92500000000001
20
300.07500000000005
30
0
11
-128.07500000000002
21
300.07500000000005
31
0
0
LINE
5
11B
100
AcDbEntity
8
PERIMETER
100
AcDbLine
10
-128.07499999999999
20
300.07500000000005
30
0
11
-128.07499999999999
21
297.07500000000005
31
1.8195452426971583e-32
0
LINE
5
11C
100
AcDbEntity
8
PERIMETER
100
AcDbLine
10
-128.07499999999999
20
297.07500000000005
30
0
11
-157.92499999999995
21
297.07500000000005
31
0
0
LINE
5
11D
100
AcDbEntity
8
PERIMETER
100
AcDbLine
10
-157.92499999999995
20
297.07500000000005
30
0
11
-157.92499999999995
21
300.07500000000005
31
1.9956302661842753e-32
0
LINE
5
11E
100
AcDbEntity
8
PERIMETER
100
AcDbLine
10
-157.92499999999998
20
300.07500000000005
30
0
11
-183.07499999999999
21
300.07500000000005
31
0
0
LINE
5
11F
100
AcDbEntity
8
PERIMETER
100
AcDbLine
10
-183.07499999999999
20
300.07500000000005
30
2.8421709430404007e-13
11
-183.07499999999999
21
297.07500000000005
31
2.8421709430404007e-13
0
LINE
5
120
100
AcDbEntity
8
PERIMETER
100
AcDbLine
10
-183.07499999999999
20
297.07500000000005
30
2.8421709430404007e-13
11
-210.07499999999999
21
297.07500000000005
31
2.8421709430404007e-13
0
LINE
5
121
100
AcDbEntity
8
PERIMETER
100
AcDbLine
10
-210.07499999999999
20
297.07500000000005
30
2.8421709430404007e-13
11
-210.07499999999999
21
280.07500000000005
31
2.8421709430404007e-13
0
LINE
5
122
100
AcDbEntity
8
PERIMETER
100
AcDbLine
10
-210.07499999999999
20
280.07500000000005
30
2.8421709430404007e-13
11
-213.07500000000002
21
280.07500000000005
31
2.8421709430404007e-13
0
LINE
5
123
100
AcDbEntity
8
PERIMETER
100
AcDbLine
10
-213.07500000000002
20
280.07500000000005
30
2.8421709430404007e-13
11
-213.07500000000002
21
254.92500000000004
31
2.8421709430404007e-13
0
LINE
5
124
100
AcDbEntity
8
PERIMETER
100
AcDbLine
10
-213.07500000000002
20
254.92500000000004
30
2.8421709430404007e-13
11
-210.07499999999999
21
254.92500000000004
31
2.8421709430404007e-13
0
LINE
5
125
100
AcDbEntity
8
PERIMETER
100
AcDbLine
10
-210.07499999999999
20
254.92500000000004
30
2.8421709430404007e-13
11
-210.07499999999999
21
221.74166666666667
31
2.8421709430404007e-13
0
LINE
5
126
100
AcDbEntity
8
PERIMETER
100
AcDbLine
10
-210.07499999999999
20
221.74166666666667
30
2.8421709430404007e-13
11
-213.07500000000002
21
221.74166666666667
31
2.8421709430404007e-13
0
LINE
5
127
100
AcDbEntity
8
PERIMETER
100
AcDbLine
10
-213.07500000000002
20
221.74166666666667
30
2.8421709430404007e-13
11
-213.07500000000002
21
196.59166666666667
31
2.8421709430404007e-13
0
LINE
5
128
100
AcDbEntity
8
PERIMETER
100
AcDbLine
10
-213.07500000000002
20
196.59166666666667
30
2.8421709430404007e-13
11
-210.07499999999999
21
196.59166666666667
31
2.8421709430404007e-13
0
LINE
5
129
100
AcDbEntity
8
PERIMETER
100
AcDbLine
10
-210.07499999999999
20
196.59166666666667
30
2.8421709430404007e-13
11
-210.07499999999999
21
163.40833333333333
31
2.8421709430404007e-13
0
LINE
5
12A
100
AcDbEntity
8
PERIMETER
100
AcDbLine
10
-210.07499999999999
20
163.40833333333333
30
2.8421709430404007e-13
11
-213.07500000000002
21
163.40833333333333
31
2.8421709430404007e-13
0
LINE
5
12B
100
AcDbEntity
8
PERIMETER
100
AcDbLine
10
-213.07500000000002
20
163.40833333333333
30
2.8421709430404007e-13
11
-213.07500000000002
21
138.25833333333333
31
2.8421709430404007e-13
0
LINE
5
12C
100
AcDbEntity
8
PERIMETER
100
AcDbLine
10
-213.07500000000002
20
138.25833333333333
30
2.8421709430404007e-13
11
-210.07499999999999
21
138.25833333333333
31
2.8421709430404007e-13
0
LINE
5
12D
100
AcDbEntity
8
PERIMETER
100
AcDbLine
10
-210.07499999999999
20
138.25833333333333
30
2.8421709430404007e-13
11
-210.07499999999999
21
105.07500000000005
31
2.8421709430404007e-13
0
LINE
5
12E
100
AcDbEntity
8
PERIMETER
100
AcDbLine
10
-210.07499999999999
20
105.07500000000005
30
2.8421709430404007e-13
11
-213.07500000000002
21
105.07500000000005
31
2.8421709430404007e-13
0
LINE
5
12F
100
AcDbEntity
8
PERIMETER
100
AcDbLine
10
-213.07500000000002
20
105.07500000000005
30
2.8421709430404007e-13
11
-213.07500000000002
21
79.92500000000004
31
2.8421709430404007e-13
0
LINE
5
130
100
AcDbEntity
8
PERIMETER
100
AcDbLine
10
-213.07500000000002
20
79.92500000000004
30
2.8421709430404007e-13
11
-210.07499999999999
21
79.92500000000004
31
2.8421709430404007e-13
0
LINE
5
131
100
AcDbEntity
8
PERIMETER
100
AcDbLine
10
-210.07499999999999
20
79.92500000000004
30
2.8421709430404007e-13
11
-210.07499999999999
21
46.741666666666681
31
2.8421709430404007e-13
0
LINE
5
132
100
AcDbEntity
8
PERIMETER
100
AcDbLine
10
-210.07499999999999
20
46.741666666666681
30
2.8421709430404007e-13
11
-213.07500000000002
21
46.741666666666681
31
2.8421709430404007e-13
0
LINE
5
133
100
AcDbEntity
8
PERIMETER
100
AcDbLine
10
-213.07500000000002
20
46.741666666666681
30
2.8421709430404007e-13
11
-213.07500000000002
21
21.591666666666676
31
2.8421709430404007e-13
0
LINE
5
134
100
AcDbEntity
8
PERIMETER
100
AcDbLine
10
-213.07500000000002
20
21.59166666666664
30
2.8421709430404007e-13
11
-210.07499999999999
21
21.59166666666664
31
2.8421709430404007e-13
0
LINE
5
135
100
AcDbEntity
8
PERIMETER
100
AcDbLine
10
-210.07499999999999
20
21.59166666666664
30
2.8421709430404007e-13
11
-210.07499999999999
21
-11.591666666666676
31
2.8421709430404007e-13
0
LINE
5
136
100
AcDbEntity
8
PERIMETER
100
AcDbLine
10
-210.07499999999999
20
-11.59166666666664
30
0
11
-213.07500000000002
21
-11.591666666666605
31
0
0
LINE
5
137
100
AcDbEntity
8
PERIMETER
100
AcDbLine
10
-213.07500000000002
20
-11.59166666666664
30
2.8421709430404007e-13
11
-213.07500000000002
21
-36.741666666666646
31
2.8421709430404007e-13
0
LINE
5
138
100
AcDbEntity
8
PERIMETER
100
AcDbLine
10
-213.07500000000002
20
-36.741666666666646
30
0
11
-210.07499999999999
21
-36.741666666666646
31
0
0
LINE
5
139
100
AcDbEntity
8
PERIMETER
100
AcDbLine
10
-210.07499999999999
20
-36.741666666666646
30
0
11
-210.07499999999999
21
-69.924999999999955
31
1.3022465736981721e-31
0
LINE
5
13A
100
AcDbEntity
8
PERIMETER
100
AcDbLine
10
-210.07499999999999
20
-69.924999999999926
30
0
11
-213.07500000000002
21
-69.924999999999955
31
0
0
LINE
5
13B
100
AcDbEntity
8
PERIMETER
100
AcDbLine
10
-213.07500000000002
20
-69.924999999999997
30
0
11
-213.07500000000002
21
-95.075000000000003
31
-2.0660642755788561e-32
0
LINE
5
13C
100
AcDbEntity
8
PERIMETER
100
AcDbLine
10
-213.07500000000002
20
-95.075000000000003
30
0
11
-210.07499999999999
21
-95.075000000000003
31
0
0
LINE
5
13D
100
AcDbEntity
8
PERIMETER
100
AcDbLine
10
-210.07499999999999
20
-95.075000000000003
30
0
11
-210.07499999999999
21
-128.25833333333335
31
1.3022465736981786e-31
0
LINE
5
13E
100
AcDbEntity
8
PERIMETER
100
AcDbLine
10
-210.07499999999999
20
-128.25833333333335
30
0
11
-213.07500000000002
21
-128.25833333333335
31
0
0
LINE
5
13F
100
AcDbEntity
8
PERIMETER
100
AcDbLine
10
-213.07500000000002
20
-128.25833333333335
30
0
11
-213.07500000000002
21
-153.40833333333333
31
-2.0660642755788889e-32
0
LINE
5
140
100
AcDbEntity
8
PERIMETER
100
AcDbLine
10
-213.07500000000002
20
-153.4083333333333
30
0
11
-210.07499999999999
21
-153.4083333333333
31
0
0
LINE
5
141
100
AcDbEntity
8
PERIMETER
100
AcDbLine
10
-210.07499999999999
20
-153.4083333333333
30
0
11
-210.07499999999999
21
-186.59166666666664
31
1.3022465736981753e-31
0
LINE
5
142
100
AcDbEntity
8
PERIMETER
100
AcDbLine
10
-210.07499999999999
20
-186.59166666666664
30
0
11
-213.07500000000002
21
-186.59166666666664
31
0
0
LINE
5
143
100
AcDbEntity
8
PERIMETER
100
AcDbLine
10
-213.07500000000002
20
-186.59166666666664
30
0
11
-213.07500000000002
21
-211.74166666666665
31
-2.0660642755788725e-32
0
LINE
5
144
100
AcDbEntity
8
PERIMETER
100
AcDbLine
10
-213.07500000000002
20
-211.74166666666665
30
0
11
-210.07499999999999
21
-211.74166666666665
31
0
0
LINE
5
145
100
AcDbEntity
8
PERIMETER
100
AcDbLine
10
-210.07499999999999
20
-211.74166666666665
30
0
11
-210.07499999999999
21
-244.92499999999995
31
1.3022465736981732e-31
0
LINE
5
146
100
AcDbEntity
8
PERIMETER
100
AcDbLine
10
-210.07499999999999
20
-244.92499999999995
30
0
11
-213.07500000000002
21
-244.92499999999995
31
0
0
LINE
5
147
100
AcDbEntity
8
PERIMETER
100
AcDbLine
10
-213.07500000000002
20
-244.92499999999995
30
0
11
-213.07500000000002
21
-270.07499999999999
31
-2.0660642755788561e-32
0
LINE
5
148
100
AcDbEntity
8
PERIMETER
100
AcDbLine
10
-213.07500000000002
20
-270.07499999999999
30
0
11
-210.07499999999999
21
-270.07499999999999
31
0
0
LINE
5
149
100
AcDbEntity
8
PERIMETER
100
AcDbLine
10
-210.07499999999999
20
-270.07499999999999
30
0
11
-210.07500000000005
21
-300.07499999999999
31
1.878240250526317e-31
0
LINE
5
14A
100
AcDbEntity
8
PERIMETER
100
AcDbLine
10
-210.07500000000005
20
-300.07499999999999
30
0
11
-121.73397172404481
21
-300.07499999999999
31
0
0
ARC
5
14B
100
AcDbEntity
8
PERIMETER
100
AcDbCircle
10
-121.73397172404481
20
-250.00000000000003
30
0
40
50.074999999999967
210
9.8607613152626476e-32
220
-5.869500782894456e-33
230
1
100
AcDbArc
50
269.99999999999994
51
324.31466528734796
0
ARC
5
14C
100
AcDbEntity
8
PERIMETER
100
AcDbCircle
10
-73.000000000000057
20
-285
30
0
40
9.9249999999999972
210
5.8029521146673e-48
220
3.2422708354881241e-33
230
1
100
AcDbArc
50
89.999999999999844
51
144.31466528734794
0
LINE
5
14D
100
AcDbEntity
8
PERIMETER
100
AcDbLine
10
-73.000000000000028
20
-275.07499999999999
30
0
11
73.000000000000085
21
-275.07500000000027
31
0
0
ARC
5
14E
100
AcDbEntity
8
PERIMETER
100
AcDbCircle
10
73.000000000000114
20
-285.00000000000023
30
0
40
9.9250000000000078
210
1.6637400536114254e-31
220
-6.261740810652518e-32
230
1
100
AcDbArc
50
35.685334712652086
51
90.000000000000171
0
ARC
5
14F
100
AcDbEntity
8
PERIMETER
100
AcDbCircle
10
121.73397172404478
20
-249.99999999999989
30
2.8421709430404007e-13
40
50.075000000000074
210
0
220
0
230
1
100
AcDbArc
50
215.68533471265246
51
269.99999999999983
0
LINE
5
150
100
AcDbEntity
8
PERIMETER
100
AcDbLine
10
121.73397172404464
20
-300.07499999999999
30
2.8421709430404007e-13
11
210.07500000000007
21
-300.07499999999999
31
2.8421709430404007e-13
0
LINE
5
151
100
AcDbEntity
8
PERIMETER
100
AcDbLine
10
210.0750000000001
20
-300.07499999999999
30
0
11
210.0750000000001
21
-270.07499999999999
31
-7.0434009394732947e-32
0
LINE
5
152
100
AcDbEntity
8
PERIMETER
100
AcDbLine
10
210.0750000000001
20
-270.07499999999999
30
0
11
213.07499999999993
21
-270.07499999999999
31
0
0
LINE
5
153
100
AcDbEntity
8
PERIMETER
100
AcDbLine
10
213.07499999999993
20
-270.07499999999999
30
0
11
213.07499999999993
21
-244.92499999999995
31
2.0660642755788561e-32
0
LINE
5
154
100
AcDbEntity
8
PERIMETER
100
AcDbLine
10
213.07499999999993
20
-244.92499999999995
30
0
11
210.0750000000001
21
-244.92499999999995
31
0
0
LINE
5
155
100
AcDbEntity
8
PERIMETER
100
AcDbLine
10
210.0750000000001
20
-244.92499999999995
30
0
11
210.0750000000001
21
-211.74166666666665
31
-1.3022465736981732e-31
0
LINE
5
156
100
AcDbEntity
8
PERIMETER
100
AcDbLine
10
210.0750000000001
20
-211.74166666666665
30
0
11
213.07499999999993
21
-211.74166666666665
31
0
0
LINE
5
157
100
AcDbEntity
8
PERIMETER
100
AcDbLine
10
213.07499999999993
20
-211.74166666666665
30
0
11
213.07499999999993
21
-186.59166666666664
31
2.0660642755788889e-32
0
LINE
5
158
100
AcDbEntity
8
PERIMETER
100
AcDbLine
10
213.07499999999993
20
-186.59166666666664
30
0
11
210.0750000000001
21
-186.59166666666664
31
0
0
LINE
5
159
100
AcDbEntity
8
PERIMETER
100
AcDbLine
10
210.0750000000001
20
-186.59166666666664
30
0
11
210.0750000000001
21
-153.4083333333333
31
-1.3022465736981753e-31
0
LINE
5
15A
100
AcDbEntity
8
PERIMETER
100
AcDbLine
10
210.0750000000001
20
-153.4083333333333
30
0
11
213.07499999999993
21
-153.4083333333333
31
0
0
LINE
5
15B
100
AcDbEntity
8
PERIMETER
100
AcDbLine
10
213.07499999999993
20
-153.4083333333333
30
0
11
213.07499999999993
21
-128.25833333333333
31
2.0660642755788889e-32
0
LINE
5
15C
100
AcDbEntity
8
PERIMETER
100
AcDbLine
10
213.07499999999993
20
-128.25833333333335
30
0
11
210.0750000000001
21
-128.25833333333335
31
0
0
LINE
5
15D
100
AcDbEntity
8
PERIMETER
100
AcDbLine
10
210.0750000000001
20
-128.25833333333335
30
0
11
210.0750000000001
21
-95.075000000000003
31
-1.3022465736981786e-31
0
LINE
5
15E
100
AcDbEntity
8
PERIMETER
100
AcDbLine
10
210.0750000000001
20
-95.075000000000003
30
0
11
213.07499999999993
21
-95.075000000000003
31
0
0
LINE
5
15F
100
AcDbEntity
8
PERIMETER
100
AcDbLine
10
213.07499999999993
20
-95.075000000000003
30
0
11
213.07499999999993
21
-69.924999999999997
31
2.0660642755788561e-32
0
LINE
5
160
100
AcDbEntity
8
PERIMETER
100
AcDbLine
10
213.07499999999993
20
-69.924999999999997
30
0
11
210.0750000000001
21
-69.924999999999997
31
0
0
LINE
5
161
100
AcDbEntity
8
PERIMETER
100
AcDbLine
10
210.0750000000001
20
-69.924999999999997
30
0
11
210.0750000000001
21
-36.741666666666681
31
-1.3022465736981721e-31
0
LINE
5
162
100
AcDbEntity
8
PERIMETER
100
AcDbLine
10
210.0750000000001
20
-36.741666666666646
30
0
11
213.07499999999993
21
-36.74166666666661
31
0
0
LINE
5
163
100
AcDbEntity
8
PERIMETER
100
AcDbLine
10
213.07499999999993
20
-36.741666666666646
30
0
11
213.07499999999993
21
-11.59166666666664
31
2.0660642755788561e-32
0
LINE
5
164
100
AcDbEntity
8
PERIMETER
100
AcDbLine
10
213.07499999999993
20
-11.59166666666664
30
0
11
210.0750000000001
21
-11.59166666666664
31
0
0
LINE
5
165
100
AcDbEntity
8
PERIMETER
100
AcDbLine
10
210.0750000000001
20
-11.59166666666664
30
0
11
210.0750000000001
21
21.591666666666676
31
-1.3022465736981721e-31
0
LINE
5
166
100
AcDbEntity
8
PERIMETER
100
AcDbLine
10
210.0750000000001
20
21.591666666666711
30
2.8421709430404007e-13
11
213.07499999999993
21
21.591666666666676
31
2.8421709430404007e-13
0
LINE
5
167
100
AcDbEntity
8
PERIMETER
100
AcDbLine
10
213.07499999999993
20
21.59166666666664
30
2.8421709430404007e-13
11
213.07499999999993
21
46.741666666666646
31
2.8421709430404007e-13
0
LINE
5
168
100
AcDbEntity
8
PERIMETER
100
AcDbLine
10
213.07499999999993
20
46.741666666666681
30
2.8421709430404007e-13
11
210.0750000000001
21
46.741666666666681
31
2.8421709430404007e-13
0
LINE
5
169
100
AcDbEntity
8
PERIMETER
100
AcDbLine
10
210.0750000000001
20
46.741666666666681
30
2.8421709430404007e-13
11
210.0750000000001
21
79.92500000000004
31
2.8421709430404007e-13
0
LINE
5
16A
100
AcDbEntity
8
PERIMETER
100
AcDbLine
10
210.0750000000001
20
79.92500000000004
30
2.8421709430404007e-13
11
213.07499999999993
21
79.92500000000004
31
2.8421709430404007e-13
0
LINE
5
16B
100
AcDbEntity
8
PERIMETER
100
AcDbLine
10
213.07499999999993
20
79.92500000000004
30
2.8421709430404007e-13
11
213.07499999999993
21
105.07500000000005
31
2.8421709430404007e-13
0
LINE
5
16C
100
AcDbEntity
8
PERIMETER
100
AcDbLine
10
213.07499999999993
20
105.07500000000005
30
2.8421709430404007e-13
11
210.0750000000001
21
105.07500000000005
31
2.8421709430404007e-13
0
LINE
5
16D
100
AcDbEntity
8
PERIMETER
100
AcDbLine
10
210.0750000000001
20
105.07500000000005
30
2.8421709430404007e-13
11
210.0750000000001
21
138.25833333333333
31
2.8421709430404007e-13
0
LINE
5
16E
100
AcDbEntity
8
PERIMETER
100
AcDbLine
10
210.0750000000001
20
138.25833333333333
30
2.8421709430404007e-13
11
213.07499999999993
21
138.25833333333333
31
2.8421709430404007e-13
0
LINE
5
16F
100
AcDbEntity
8
PERIMETER
100
AcDbLine
10
213.07499999999993
20
138.25833333333333
30
2.8421709430404007e-13
11
213.07499999999993
21
163.40833333333333
31
2.8421709430404007e-13
0
LINE
5
170
100
AcDbEntity
8
PERIMETER
100
AcDbLine
10
213.07499999999993
20
163.40833333333333
30
2.8421709430404007e-13
11
210.0750000000001
21
163.40833333333333
31
2.8421709430404007e-13
0
LINE
5
171
100
AcDbEntity
8
PERIMETER
100
AcDbLine
10
210.0750000000001
20
163.40833333333333
30
2.8421709430404007e-13
11
210.0750000000001
21
196.59166666666667
31
2.8421709430404007e-13
0
LINE
5
172
100
AcDbEntity
8
PERIMETER
100
AcDbLine
10
210.0750000000001
20
196.59166666666667
30
2.8421709430404007e-13
11
213.07499999999993
21
196.59166666666667
31
2.8421709430404007e-13
0
LINE
5
173
100
AcDbEntity
8
PERIMETER
100
AcDbLine
10
213.07499999999993
20
196.59166666666667
30
2.8421709430404007e-13
11
213.07499999999993
21
221.74166666666667
31
2.8421709430404007e-13
0
LINE
5
174
100
AcDbEntity
8
PERIMETER
100
AcDbLine
10
213.07499999999993
20
221.74166666666667
30
2.8421709430404007e-13
11
210.0750000000001
21
221.74166666666667
31
2.8421709430404007e-13
0
LINE
5
175
100
AcDbEntity
8
PERIMETER
100
AcDbLine
10
210.0750000000001
20
221.74166666666667
30
2.8421709430404007e-13
11
210.0750000000001
21
254.92500000000004
31
2.8421709430404007e-13
0
LINE
5
176
100
AcDbEntity
8
PERIMETER
100
AcDbLine
10
210.0750000000001
20
254.92500000000004
30
2.8421709430404007e-13
11
213.07499999999993
21
254.92500000000004
31
2.8421709430404007e-13
0
LINE
5
177
100
AcDbEntity
8
PERIMETER
100
AcDbLine
10
213.07499999999993
20
254.92500000000004
30
2.8421709430404007e-13
11
213.07499999999993
21
280.07500000000005
31
2.8421709430404007e-13
0
LINE
5
178
100
AcDbEntity
8
PERIMETER
100
AcDbLine
10
213.07499999999993
20
280.07500000000005
30
2.8421709430404007e-13
11
210.0750000000001
21
280.07500000000005
31
2.8421709430404007e-13
0
LINE
5
179
100
AcDbEntity
8
PERIMETER
100
AcDbLine
10
210.0750000000001
20
280.07500000000005
30
2.8421709430404007e-13
11
210.0750000000001
21
297.07500000000005
31
2.8421709430404007e-13
0
LINE
5
17A
100
AcDbEntity
8
PERIMETER
100
AcDbLine
10
210.0750000000001
20
297.07500000000005
30
2.8421709430404007e-13
11
172.07499999999993
21
297.07500000000005
31
2.8421709430404007e-13
0
LINE
5
17B
100
AcDbEntity
8
PERIMETER
100
AcDbLine
10
172.07499999999993
20
297.07500000000005
30
2.8421709430404007e-13
11
172.07499999999993
21
300.07500000000005
31
2.8421709430404007e-13
0
LINE
5
17C
100
AcDbEntity
8
PERIMETER
100
AcDbLine
10
172.07499999999993
20
300.07500000000005
30
2.8421709430404007e-13
11
146.92499999999993
21
300.07500000000005
31
2.8421709430404007e-13
0
LINE
5
17D
100
AcDbEntity
8
PERIMETER
100
AcDbLine
10
146.92499999999993
20
300.07500000000005
30
2.8421709430404007e-13
11
146.92499999999993
21
297.07500000000005
31
2.8421709430404007e-13
0
LINE
5
17E
100
AcDbEntity
8
PERIMETER
100
AcDbLine
10
146.92499999999993
20
297.07500000000005
30
2.8421709430404007e-13
11
117.07499999999993
21
297.07500000000005
31
2.8421709430404007e-13
0
LINE
5
17F
100
AcDbEntity
8
PERIMETER
100
AcDbLine
10
117.07499999999993
20
297.07500000000005
30
2.8421709430404007e-13
11
117.07499999999993
21
300.07500000000005
31
2.8421709430404007e-13
0
LINE
5
180
100
AcDbEntity
8
PERIMETER
100
AcDbLine
10
117.07499999999993
20
300.07500000000005
30
2.8421709430404007e-13
11
91.924999999999926
21
300.07500000000005
31
2.8421709430404007e-13
0
LINE
5
181
100
AcDbEntity
8
PERIMETER
100
AcDbLine
10
91.924999999999926
20
300.07500000000005
30
2.8421709430404007e-13
11
91.924999999999955
21
297.07500000000005
31
2.8421709430404007e-13
0
LINE
5
182
100
AcDbEntity
8
PERIMETER
100
AcDbLine
10
91.924999999999955
20
297.07500000000005
30
2.8421709430404007e-13
11
62.07499999999996
21
297.07500000000005
31
2.8421709430404007e-13
0
LINE
5
183
100
AcDbEntity
8
PERIMETER
100
AcDbLine
10
62.07499999999996
20
297.07500000000005
30
0
11
62.07499999999996
21
300.07500000000005
31
-1.5771935553715635e-29
0
LINE
5
184
100
AcDbEntity
8
PERIMETER
100
AcDbLine
10
62.07499999999996
20
300.07500000000005
30
0
11
36.924999999999955
21
300.07500000000005
31
0
0
LINE
5
185
100
AcDbEntity
8
PERIMETER
100
AcDbLine
10
36.924999999999955
20
300.07500000000005
30
0
11
36.924999999999955
21
297.07500000000005
31
-5.2825507046055526e-33
0
ENDSEC
0
SECTION
2
OBJECTS
0
DICTIONARY
5
C
100
AcDbDictionary
3
ACAD_GROUP
350
D
3
ACAD_MLINESTYLE
350
17
0
DICTIONARY
5
D
100
AcDbDictionary
0
DICTIONARY
5
1A
330
C
100
AcDbDictionary
0
DICTIONARY
5
17
100
AcDbDictionary
0
ENDSEC
0
EOF
