0
SECTION
2
HEADER
9
$INSUNITS
70
4
9
$ACADVER
1
AC1014
9
$HANDSEED
5
FFFF
0
ENDSEC
0
SECTION
2
TABLES
0
TABLE
2
VPORT
5
8
100
AcDbSymbolTable
0
ENDTAB
0
TABLE
2
LTYPE
5
5
100
AcDbSymbolTable
70
2
0
LTYPE
5
14
100
AcDbSymbolTableRecord
100
AcDbLinetypeTableRecord
2
BYBLOCK
70
0
0
LTYPE
5
15
100
AcDbSymbolTableRecord
100
AcDbLinetypeTableRecord
2
BYLAYER
70
0
0
ENDTAB
0
TABLE
2
LAYER
5
2
100
AcDbSymbolTable
70
3
0
LAYER
5
50
100
AcDbSymbolTableRecord
100
AcDbLayerTableRecord
2
0
70
0
6
CONTINUOUS
0
LAYER
5
51
100
AcDbSymbolTableRecord
100
AcDbLayerTableRecord
2
CUTOUTS
70
0
62
1
6
CONTINUOUS
0
LAYER
5
52
100
AcDbSymbolTableRecord
100
AcDbLayerTableRecord
2
PERIMETER
70
0
62
5
6
CONTINUOUS
0
ENDTAB
0
TABLE
2
STYLE
5
3
100
AcDbSymbolTable
70
1
0
STYLE
5
11
100
AcDbSymbolTableRecord
100
AcDbTextStyleTableRecord
2
STANDARD
70
0
0
ENDTAB
0
TABLE
2
VIEW
5
6
100
AcDbSymbolTable
0
ENDTAB
0
TABLE
2
UCS
5
7
100
AcDbSymbolTable
0
ENDTAB
0
TABLE
2
APPID
5
9
100
AcDbSymbolTable
70
1
0
APPID
5
12
100
AcDbSymbolTableRecord
100
AcDbRegAppTableRecord
2
ACAD
70
0
0
ENDTAB
0
TABLE
2
DIMSTYLE
5
A
100
AcDbSymbolTable
0
ENDTAB
0
TABLE
2
BLOCK_RECORD
5
1
100
AcDbSymbolTable
70
2
0
BLOCK_RECORD
5
1F
100
AcDbSymbolTableRecord
100
AcDbBlockTableRecord
2
*MODEL_SPACE
0
BLOCK_RECORD
5
1B
100
AcDbSymbolTableRecord
100
AcDbBlockTableRecord
2
*PAPER_SPACE
0
ENDTAB
0
ENDSEC
0
SECTION
2
BLOCKS
0
BLOCK
5
20
100
AcDbEntity
100
AcDbBlockBegin
2
*MODEL_SPACE
0
ENDBLK
5
21
100
AcDbEntity
100
AcDbBlockEnd
0
BLOCK
5
1C
100
AcDbEntity
100
AcDbBlockBegin
2
*PAPER_SPACE
0
ENDBLK
5
1D
100
AcDbEntity
100
AcDbBlockEnd
0
ENDSEC
0
SECTION
2
ENTITIES
0
CIRCLE
5
100
100
AcDbEntity
8
CUTOUTS
100
AcDbCircle
10
-21.879062796203357
20
0.95618518617627046
30
0
40
4.9249999999999989
210
0
220
0
230
1
0
CIRCLE
5
101
100
AcDbEntity
8
CUTOUTS
100
AcDbCircle
10
-21.879062796203357
20
-198.9561851861767
30
0
40
4.9249999999999989
210
0
220
0
230
1
0
LINE
5
102
100
AcDbEntity
8
CUTOUTS
100
AcDbLine
10
39.997734761482064
20
16.4249999999981
30
0
11
39.997734761482207
21
13.57499999999801
31
0
0
LINE
5
103
100
AcDbEntity
8
CUTOUTS
100
AcDbLine
10
39.997734761482207
20
13.57499999999801
30
0
11
27.764096852007896
21
13.574999999996358
31
0
0
LINE
5
104
100
AcDbEntity
8
CUTOUTS
100
AcDbLine
10
27.764096852007896
20
13.574999999996358
30
0
11
27.764096852008464
21
16.424999999999699
31
0
0
LINE
5
105
100
AcDbEntity
8
CUTOUTS
100
AcDbLine
10
27.764096852008464
20
16.424999999999699
30
0
11
39.997734761482064
21
16.4249999999981
31
0
0
LINE
5
106
100
AcDbEntity
8
CUTOUTS
100
AcDbLine
10
-39.997734761481354
20
16.425000000006289
30
0
11
-27.764096852007469
21
16.425000000005028
31
0
0
LINE
5
107
100
AcDbEntity
8
CUTOUTS
100
AcDbLine
10
-27.764096852007469
20
16.425000000005028
30
0
11
-27.764096852007469
21
13.575000000001545
31
0
0
LINE
5
108
100
AcDbEntity
8
CUTOUTS
100
AcDbLine
10
-27.764096852007469
20
13.575000000001545
30
0
11
-39.997734761481922
21
13.57500000000611
31
0
0
LINE
5
109
100
AcDbEntity
8
CUTOUTS
100
AcDbLine
10
-39.997734761481922
20
13.57500000000611
30
0
11
-39.997734761481354
21
16.425000000006289
31
0
0
LINE
5
10A
100
AcDbEntity
8
CUTOUTS
100
AcDbLine
10
-4.1788285527275093
20
-184.08539871420632
30
0
11
0.68115209006805344
21
-184.08539871420632
31
0
0
LINE
5
10B
100
AcDbEntity
8
CUTOUTS
100
AcDbLine
10
0.68115209006805344
20
-184.08539871420632
30
0
11
0.68115209006805344
21
-186.21988143172035
31
0
0
LINE
5
10C
100
AcDbEntity
8
CUTOUTS
100
AcDbLine
10
0.68115209006805344
20
-186.21988143172032
30
0
11
-6.9098954263972701
21
-186.21988143172032
31
0
0
LINE
5
10D
100
AcDbEntity
8
CUTOUTS
100
AcDbLine
10
-6.9098954263972701
20
-186.21988143172032
30
0
11
-6.9098954263972701
21
-176.18429164137609
31
0
0
LINE
5
10E
100
AcDbEntity
8
CUTOUTS
100
AcDbLine
10
-6.9098954263972701
20
-176.18429164137612
30
0
11
-4.1788285527275093
21
-176.18429164137612
31
0
0
LINE
5
10F
100
AcDbEntity
8
CUTOUTS
100
AcDbLine
10
-4.1788285527275093
20
-176.18429164137612
30
0
11
-4.1788285527275093
21
-184.08539871420632
31
0
0
LINE
5
110
100
AcDbEntity
8
CUTOUTS
100
AcDbLine
10
114.81808353328205
20
-146.21988143172044
30
0
11
114.81808353328205
21
-138.26057042326707
31
0
0
LINE
5
111
100
AcDbEntity
8
CUTOUTS
100
AcDbLine
10
114.81808353328205
20
-138.26057042326707
30
0
11
112.92647410296894
21
-138.26057042326707
31
0
0
LINE
5
112
100
AcDbEntity
8
CUTOUTS
100
AcDbLine
10
112.92647410296894
20
-138.26057042326707
30
0
11
112.92647410296894
21
-136.18429164137606
31
0
0
LINE
5
113
100
AcDbEntity
8
CUTOUTS
100
AcDbLine
10
112.92647410296894
20
-136.18429164137606
30
0
11
117.549150332446
21
-136.18429164137606
31
0
0
LINE
5
114
100
AcDbEntity
8
CUTOUTS
100
AcDbLine
10
117.549150332446
20
-136.18429164137606
30
0
11
117.549150332446
21
-146.21988143172044
31
0
0
LINE
5
115
100
AcDbEntity
8
CUTOUTS
100
AcDbLine
10
117.549150332446
20
-146.21988143172044
30
0
11
114.81808353328205
21
-146.21988143172044
31
0
0
SPLINE
5
116
100
AcDbEntity
8
CUTOUTS
100
AcDbSpline
70
0
71
3
72
14
73
10
74
0
42
0.000000001
43
0.0000000001
44
0.0000000001
40
-0.00050111375245033975
40
-0.00050111375245033975
40
-0.00050111375245033975
40
-0.00050111375245033975
40
0
40
0
40
0
40
0.053156057591206174
40
0.053156057591206174
40
0.053156057591206174
40
0.10134925357203384
40
0.10134925357203384
40
0.10134925357203384
40
0.10134925357203384
10
115.55858909229642
20
-38.422212905002624
30
0
10
115.55716171240888
20
-38.423112852911139
30
0
10
115.55573433252178
20
-38.42401280081944
30
0
10
115.55430695263468
20
-38.424912748727778
30
0
10
115.40289644530688
20
-38.520375470734187
30
0
10
115.2472445912916
20
-38.617959804660735
30
0
10
115.11197270249994
20
-38.744636000360941
30
0
10
114.98933033693234
20
-38.85948520103792
30
0
10
114.88951222023033
20
-38.992679744903178
30
0
10
114.79396795877591
20
-39.125094302820678
30
0
0
LINE
5
117
100
AcDbEntity
8
CUTOUTS
100
AcDbLine
10
114.79396795877591
20
-39.125094302820678
30
0
11
112.78624855384052
21
-38.005141532600888
31
0
0
SPLINE
5
118
100
AcDbEntity
8
CUTOUTS
100
AcDbSpline
70
0
71
3
72
11
73
7
74
0
42
0.000000001
43
0.0000000001
44
0.0000000001
40
0.0082515768763550181
40
0.0082515768763550181
40
0.0082515768763550181
40
0.0082515768763550181
40
0.11379577938778142
40
0.11379577938778142
40
0.11379577938778142
40
0.23024649360754912
40
0.23024649360754912
40
0.23024649360754912
40
0.23024649360754912
10
112.78624855384052
20
-38.005141532600888
30
0
10
112.99134772203587
20
-37.715206522859752
30
0
10
113.19755662424015
20
-37.432560887211004
30
0
10
113.44479111155522
20
-37.200752995411612
30
0
10
113.71757381247619
20
-36.944991012095656
30
0
10
114.0486075357687
20
-36.743426271484196
30
0
10
114.38456757477653
20
-36.539938846292941
30
0
0
SPLINE
5
119
100
AcDbEntity
8
CUTOUTS
100
AcDbSpline
70
0
71
3
72
11
73
7
74
0
42
0.000000001
43
0.0000000001
44
0.0000000001
40
0.00052131347190848432
40
0.00052131347190848432
40
0.00052131347190848432
40
0.00052131347190848432
40
0.12496898818854704
40
0.12496898818854704
40
0.12496898818854704
40
0.26256628646374947
40
0.26256628646374947
40
0.26256628646374947
40
0.26256628646374947
10
114.38456757477681
20
-36.539938846293545
30
0
10
114.76918935316263
20
-36.375236902892034
30
0
10
115.15010732673247
20
-36.212856210997906
30
0
10
115.5423864662157
20
-36.120453903477134
30
0
10
115.97611533970024
20
-36.018288010074961
30
0
10
116.4340761688274
20
-35.999236637416203
30
0
10
116.89683298573996
20
-35.980632374493382
30
0
0
SPLINE
5
11A
100
AcDbEntity
8
CUTOUTS
100
AcDbSpline
70
0
71
3
72
11
73
7
74
0
42
0.000000001
43
0.0000000001
44
0.0000000001
40
0.00027714619493515198
40
0.00027714619493515198
40
0.00027714619493515198
40
0.00027714619493515198
40
0.11008413177473318
40
0.11008413177473318
40
0.11008413177473318
40
0.2099531917149377
40
0.2099531917149377
40
0.2099531917149377
40
0.2099531917149377
10
116.89683298574039
20
-35.980632374492885
30
0
10
117.26503941233261
20
-35.993221827740953
30
0
10
117.62931833537905
20
-36.006130850388587
30
0
10
117.97913507843333
20
-36.073796585123858
30
0
10
118.29729215282839
20
-36.135338328415365
30
0
10
118.6104097928721
20
-36.243511887677826
30
0
10
118.9267352762532
20
-36.35329074358669
30
0
0
SPLINE
5
11B
100
AcDbEntity
8
CUTOUTS
100
AcDbSpline
70
0
71
3
72
11
73
7
74
0
42
0.000000001
43
0.0000000001
44
0.0000000001
40
0.00044192029585800053
40
0.00044192029585800053
40
0.00044192029585800053
40
0.00044192029585800053
40
0.09200098365454254
40
0.09200098365454254
40
0.09200098365454254
40
0.17795836482971616
40
0.17795836482971616
40
0.17795836482971616
40
0.17795836482971616
10
118.92673527625362
20
-36.353290743586193
30
0
10
119.20453475878404
20
-36.488591133158259
30
0
10
119.47711545434814
20
-36.62235076479174
30
0
10
119.70571996018293
20
-36.802927151080063
30
0
10
119.92033819594852
20
-36.972455679420477
30
0
10
120.10442285935085
20
-37.189741705322596
30
0
10
120.29104422293301
20
-37.411474675681688
30
0
0
SPLINE
5
11C
100
AcDbEntity
8
CUTOUTS
100
AcDbSpline
70
0
71
3
72
11
73
7
74
0
42
0.000000001
43
0.0000000001
44
0.0000000001
40
0.00061308036154839366
40
0.00061308036154839366
40
0.00061308036154839366
40
0.00061308036154839366
40
0.085003035592373946
40
0.085003035592373946
40
0.085003035592373946
40
0.17294934424753178
40
0.17294934424753178
40
0.17294934424753178
40
0.17294934424753178
10
120.29104422293372
20
-37.411474675681262
30
0
10
120.43634595129888
20
-37.657172485531376
30
0
10
120.57775894389678
20
-37.898519509976083
30
0
10
120.65737008382939
20
-38.152475835386142
30
0
10
120.7403361888089
20
-38.417134363979457
30
0
10
120.76016707860759
20
-38.708213693643714
30
0
10
120.77930749500638
20
-39.005310691901833
30
0
0
SPLINE
5
11D
100
AcDbEntity
8
CUTOUTS
100
AcDbSpline
70
0
71
3
72
11
73
7
74
0
42
0.000000001
43
0.0000000001
44
0.0000000001
40
0.00043948196268146159
40
0.00043948196268146159
40
0.00043948196268146159
40
0.00043948196268146159
40
0.081066738375261141
40
0.081066738375261141
40
0.081066738375261141
40
0.16091527005879727
40
0.16091527005879727
40
0.16091527005879727
40
0.16091527005879727
10
120.77930749500638
20
-39.005310691901869
30
0
10
120.7647732389681
20
-39.275821348823499
30
0
10
120.74985414055931
20
-39.542046035375371
30
0
10
120.69220433404382
20
-39.79393093290863
30
0
10
120.63511132844084
20
-40.043383042730767
30
0
10
120.5341481147623
20
-40.287344392647277
30
0
10
120.43093575153918
20
-40.534942711440785
30
0
0
SPLINE
5
11E
100
AcDbEntity
8
CUTOUTS
100
AcDbSpline
70
0
71
3
72
11
73
7
74
0
42
0.000000001
43
0.0000000001
44
0.0000000001
40
0.00057450430405448091
40
0.00057450430405448091
40
0.00057450430405448091
40
0.00057450430405448091
40
0.094182675326426754
40
0.094182675326426754
40
0.094182675326426754
40
0.21689623514539602
40
0.21689623514539602
40
0.21689623514539602
40
0.21689623514539602
10
120.43093575153961
20
-40.534942711440962
30
0
10
120.26755529727012
20
-40.802314250123963
30
0
10
120.10536117811867
20
-41.066990922083022
30
0
10
119.91696130374052
20
-41.306707608420545
30
0
10
119.6699826585872
20
-41.620958892333135
30
0
10
119.37233321489245
20
-41.899479041894949
30
0
10
119.07168244025286
20
-42.180396180983486
30
0
0
LINE
5
11F
100
AcDbEntity
8
CUTOUTS
100
AcDbLine
10
119.07168244025272
20
-42.18039618098345
30
0
11
117.01052963750712
21
-44.085399906299223
31
0
0
LINE
5
120
100
AcDbEntity
8
CUTOUTS
100
AcDbLine
10
117.01052963750712
20
-44.085399906299223
30
0
11
121.05590258502474
21
-44.085399906299223
31
0
0
LINE
5
121
100
AcDbEntity
8
CUTOUTS
100
AcDbLine
10
121.05590258502474
20
-44.085399906299223
30
0
11
121.05590258502474
21
-46.219881431720431
31
0
0
LINE
5
122
100
AcDbEntity
8
CUTOUTS
100
AcDbLine
10
121.05590258502474
20
-46.219881431720431
30
0
11
113.27569414042927
21
-46.219881431720431
31
0
0
LINE
5
123
100
AcDbEntity
8
CUTOUTS
100
AcDbLine
10
113.27569414042927
20
-46.219881431720431
30
0
11
113.27569414042927
21
-44.523126337946728
31
0
0
LINE
5
124
100
AcDbEntity
8
CUTOUTS
100
AcDbLine
10
113.27569414042927
20
-44.523126337946728
30
0
11
117.0645912913578
21
-40.980073414456051
31
0
0
SPLINE
5
125
100
AcDbEntity
8
CUTOUTS
100
AcDbSpline
70
0
71
3
72
17
73
13
74
0
42
0.000000001
43
0.0000000001
44
0.0000000001
40
-4.7818937735331045e-05
40
-4.7818937735331045e-05
40
-4.7818937735331045e-05
40
-4.7818937735331045e-05
40
0
40
0
40
0
40
0.067028023333611353
40
0.067028023333611353
40
0.067028023333611353
40
0.1166200608277444
40
0.1166200608277444
40
0.1166200608277444
40
0.11715453861262735
40
0.11715453861262735
40
0.11715453861262735
40
0.11715453861262735
10
117.06459129136618
20
-40.980073414448057
30
0
10
117.0647068550133
20
-40.979962540128447
30
0
10
117.0648224186688
20
-40.979851665800773
30
0
10
117.06493798232444
20
-40.979740791473098
30
0
10
117.22692408586795
20
-40.824327740198214
30
0
10
117.39156211964215
20
-40.666702769482619
30
0
10
117.53386849118812
20
-40.486461830014768
30
0
10
117.6391567357517
20
-40.353106928832858
30
0
10
117.72940162017804
20
-40.210941674066447
30
0
10
117.81839596814905
20
-40.070988591665184
30
0
10
117.8193551040178
20
-40.06948024844629
30
0
10
117.82031423988641
20
-40.067971905227395
30
0
10
117.82127337575503
20
-40.066463562008892
30
0
0
SPLINE
5
126
100
AcDbEntity
8
CUTOUTS
100
AcDbSpline
70
0
71
3
72
17
73
13
74
0
42
0.000000001
43
0.0000000001
44
0.0000000001
40
-0.0005314146511294041
40
-0.0005314146511294041
40
-0.0005314146511294041
40
-0.0005314146511294041
40
0
40
0
40
0
40
0.039894339334124757
40
0.039894339334124757
40
0.039894339334124757
40
0.077840457332149643
40
0.077840457332149643
40
0.077840457332149643
40
0.078375902164781075
40
0.078375902164781075
40
0.078375902164781075
40
0.078375902164781075
10
117.82127337575588
20
-40.066463562009176
30
0
10
117.82200816299422
20
-40.064834105471512
30
0
10
117.822742950232
20
-40.063204648934523
30
0
10
117.82347773746977
20
-40.061575192397569
30
0
10
117.8786396554672
20
-39.939248696721705
30
0
10
117.93605736310141
20
-39.812960127333596
30
0
10
117.96980647456749
20
-39.675798781137956
30
0
10
118.00190746401583
20
-39.54533564490383
30
0
10
118.01045482145213
20
-39.413732968327579
30
0
10
118.01909670915961
20
-39.286457045400809
30
0
10
118.01921865191318
20
-39.284661097914189
30
0
10
118.01934059466689
20
-39.282865150427568
30
0
10
118.01946253742074
20
-39.281069202938497
30
0
0
SPLINE
5
127
100
AcDbEntity
8
CUTOUTS
100
AcDbSpline
70
0
71
3
72
17
73
13
74
0
42
0.000000001
43
0.0000000001
44
0.0000000001
40
-0.00052250255807980068
40
-0.00052250255807980068
40
-0.00052250255807980068
40
-0.00052250255807980068
40
0
40
0
40
0
40
0.044804447767524444
40
0.044804447767524444
40
0.044804447767524444
40
0.086347694356659593
40
0.086347694356659593
40
0.086347694356659593
40
0.087359237038032847
40
0.087359237038032847
40
0.087359237038032847
40
0.087359237038032847
10
118.01946253741278
20
-39.281069202941303
30
0
10
118.01932592790351
20
-39.279274311544974
30
0
10
118.01918931839438
20
-39.277479420149497
30
0
10
118.0190527088854
20
-39.275684528753949
30
0
10
118.00733848181409
20
-39.121773095164478
30
0
10
117.99666637352985
20
-38.959101095569153
30
0
10
117.92886169413308
20
-38.81014169186134
30
0
10
117.86599234395823
20
-38.672024662228175
30
0
10
117.76190790466615
20
-38.5630700870243
30
0
10
117.66433428803268
20
-38.458907971023635
30
0
10
117.66195845354915
20
-38.456371712190567
30
0
10
117.65958261906576
20
-38.453835453357463
30
0
10
117.65720678458223
20
-38.451299194524324
30
0
0
SPLINE
5
128
100
AcDbEntity
8
CUTOUTS
100
AcDbSpline
70
0
71
3
72
17
73
13
74
0
42
0.000000001
43
0.0000000001
44
0.0000000001
40
-0.0010261172756785
40
-0.0010261172756785
40
-0.0010261172756785
40
-0.0010261172756785
40
0
40
0
40
0
40
0.046039664016812393
40
0.046039664016812393
40
0.046039664016812393
40
0.10284614477186899
40
0.10284614477186899
40
0.10284614477186899
40
0.10315671561037641
40
0.10315671561037641
40
0.10315671561037641
40
0.10315671561037641
10
117.65720678458422
20
-38.451299194524218
30
0
10
117.65422926974892
20
-38.449507099719185
30
0
10
117.65125175491335
20
-38.447715004914187
30
0
10
117.64827424007777
20
-38.445922910109189
30
0
10
117.51467958585479
20
-38.365515490153079
30
0
10
117.37662507367702
20
-38.281608223129169
30
0
10
117.2216185746214
20
-38.231471905636738
30
0
10
117.03036231996492
20
-38.169610729722798
30
0
10
116.8301265645394
20
-38.164599448253398
30
0
10
116.63696310612636
20
-38.158749986942766
30
0
10
116.6359070481478
20
-38.158718006927792
30
0
10
116.6348509901691
20
-38.158686026912818
30
0
10
116.63379493218997
20
-38.15865404689788
30
0
0
SPLINE
5
129
100
AcDbEntity
8
CUTOUTS
100
AcDbSpline
70
0
71
3
72
17
73
13
74
0
42
0.000000001
43
0.0000000001
44
0.0000000001
40
-0.00031385999433235722
40
-0.00031385999433235722
40
-0.00031385999433235722
40
-0.00031385999433235722
40
0
40
0
40
0
40
0.054755192686644326
40
0.054755192686644326
40
0.054755192686644326
40
0.10795600754344911
40
0.10795600754344911
40
0.10795600754344911
40
0.10845743834600544
40
0.10845743834600544
40
0.10845743834600544
40
0.10845743834600544
10
116.63379493218912
20
-38.158654046896245
30
0
10
116.63273994157706
20
-38.15871128334912
30
0
10
116.63168495096429
20
-38.158768519802067
30
0
10
116.63062996035165
20
-38.158825756255013
30
0
10
116.44657906082074
20
-38.16881107794714
30
0
10
116.25779839739707
20
-38.178589278853927
30
0
10
116.07275969871225
20
-38.224590638512552
30
0
10
115.89297383609278
20
-38.269286122142034
30
0
10
115.72609472791711
20
-38.345847102467907
30
0
10
115.56319519707216
20
-38.420112982293233
30
0
10
115.56165982881296
20
-38.420812956529069
30
0
10
115.56012446055391
20
-38.421512930764905
30
0
10
115.55858909229528
20
-38.422212905000528
30
0
0
LINE
5
12A
100
AcDbEntity
8
CUTOUTS
100
AcDbLine
10
-4.1788285527275093
20
-19.085398714206363
30
0
11
0.68115209006805344
21
-19.085398714206363
31
0
0
LINE
5
12B
100
AcDbEntity
8
CUTOUTS
100
AcDbLine
10
0.68115209006805344
20
-19.085398714206363
30
0
11
0.68115209006805344
21
-21.219881431720395
31
0
0
LINE
5
12C
100
AcDbEntity
8
CUTOUTS
100
AcDbLine
10
0.68115209006805344
20
-21.219881431720395
30
0
11
-6.9098954263972701
21
-21.219881431720395
31
0
0
LINE
5
12D
100
AcDbEntity
8
CUTOUTS
100
AcDbLine
10
-6.9098954263972701
20
-21.219881431720395
30
0
11
-6.9098954263972701
21
-11.184291641376163
31
0
0
LINE
5
12E
100
AcDbEntity
8
CUTOUTS
100
AcDbLine
10
-6.9098954263972701
20
-11.184291641376163
30
0
11
-4.1788285527275093
21
-11.184291641376163
31
0
0
LINE
5
12F
100
AcDbEntity
8
CUTOUTS
100
AcDbLine
10
-4.1788285527275093
20
-11.184291641376163
30
0
11
-4.1788285527275093
21
-19.085398714206363
31
0
0
SPLINE
5
130
100
AcDbEntity
8
CUTOUTS
100
AcDbSpline
70
0
71
3
72
11
73
7
74
0
42
0.000000001
43
0.0000000001
44
0.0000000001
40
0.00048243655017409588
40
0.00048243655017409588
40
0.00048243655017409588
40
0.00048243655017409588
40
0.10600227204732243
40
0.10600227204732243
40
0.10600227204732243
40
0.20613011366723361
40
0.20613011366723361
40
0.20613011366723361
40
0.20613011366723361
10
110.04196222659104
20
-36.636423720710241
30
0
10
110.35810027035581
20
-36.80103158156161
30
0
10
110.66886860360313
20
-36.963947552393037
30
0
10
110.92597265561437
20
-37.181469695084424
30
0
10
111.16993886043588
20
-37.387876600000567
30
0
10
111.37402785013705
20
-37.650591379607654
30
0
10
111.5805454302685
20
-37.918075306560084
30
0
0
SPLINE
5
131
100
AcDbEntity
8
CUTOUTS
100
AcDbSpline
70
0
71
3
72
11
73
7
74
0
42
0.000000001
43
0.0000000001
44
0.0000000001
40
0.00062092630199010886
40
0.00062092630199010886
40
0.00062092630199010886
40
0.00062092630199010886
40
0.10144346310914223
40
0.10144346310914223
40
0.10144346310914223
40
0.20942882185730149
40
0.20942882185730149
40
0.20942882185730149
40
0.20942882185730149
10
111.58054543026765
20
-37.918075306560652
30
0
10
111.74074962016107
20
-38.218295364455628
30
0
10
111.89760890878063
20
-38.514350585471533
30
0
10
111.98636174341274
20
-38.823699509921141
30
0
10
112.08141992178412
20
-39.155025775287235
30
0
10
112.10181699619952
20
-39.513698100449943
30
0
10
112.12157975792479
20
-39.878032119636408
30
0
0
SPLINE
5
132
100
AcDbEntity
8
CUTOUTS
100
AcDbSpline
70
0
71
3
72
11
73
7
74
0
42
0.000000001
43
0.0000000001
44
0.0000000001
40
0.00039443493925137799
40
0.00039443493925137799
40
0.00039443493925137799
40
0.00039443493925137799
40
0.10429545126725179
40
0.10429545126725179
40
0.10429545126725179
40
0.20103339455280086
40
0.20103339455280086
40
0.20103339455280086
40
0.20103339455280086
10
112.12157975792394
20
-39.878032119636373
30
0
10
112.10325251403006
20
-40.228371669556431
30
0
10
112.0843143415189
20
-40.57319854859049
30
0
10
111.99529736312456
20
-40.892762801479492
30
0
10
111.91241733257527
20
-41.190295873480203
30
0
10
111.76594889856062
20
-41.476134496892705
30
0
10
111.61631031620161
20
-41.766072023053233
30
0
0
SPLINE
5
133
100
AcDbEntity
8
CUTOUTS
100
AcDbSpline
70
0
71
3
72
14
73
10
74
0
42
0.000000001
43
0.0000000001
44
0.0000000001
40
0.00060897395779643598
40
0.00060897395779643598
40
0.00060897395779643598
40
0.00060897395779643598
40
0.0964910261986828
40
0.0964910261986828
40
0.0964910261986828
40
0.19794235807272123
40
0.19794235807272123
40
0.19794235807272123
40
0.20607804953201478
40
0.20607804953201478
40
0.20607804953201478
40
0.20607804953201478
10
111.61631031620203
20
-41.766072023053553
30
0
10
111.42306025783782
20
-42.025390264806539
30
0
10
111.23211748829888
20
-42.280028851263083
30
0
10
111.00293229252173
20
-42.482771488559727
30
0
10
110.76043494485361
20
-42.697290369838292
30
0
10
110.46610239224691
20
-42.861678936456116
30
0
10
110.16676767067196
20
-43.028150388291522
30
0
10
110.1427631071752
20
-43.041500241308697
30
0
10
110.11875854367844
20
-43.054850094325836
30
0
10
110.09475398018154
20
-43.068199947343047
30
0
0
LINE
5
134
100
AcDbEntity
8
CUTOUTS
100
AcDbLine
10
110.09475398018168
20
-43.068199947343082
30
0
11
112.2579542433192
21
-46.21988143172036
31
0
0
LINE
5
135
100
AcDbEntity
8
CUTOUTS
100
AcDbLine
10
112.2579542433192
20
-46.21988143172036
30
0
11
109.35522438925702
21
-46.21988143172036
31
0
0
LINE
5
136
100
AcDbEntity
8
CUTOUTS
100
AcDbLine
10
109.35522438925702
20
-46.21988143172036
30
0
11
107.50726761263806
21
-43.513424055240293
31
0
0
LINE
5
137
100
AcDbEntity
8
CUTOUTS
100
AcDbLine
10
107.50726761263806
20
-43.513424055240293
30
0
11
105.82117144727206
21
-43.513424055240293
31
0
0
LINE
5
138
100
AcDbEntity
8
CUTOUTS
100
AcDbLine
10
105.82117144727206
20
-43.513424055240293
30
0
11
105.82117144727206
21
-46.219881431720395
31
0
0
LINE
5
139
100
AcDbEntity
8
CUTOUTS
100
AcDbLine
10
105.82117144727206
20
-46.219881431720395
30
0
11
103.09010457360259
21
-46.219881431720395
31
0
0
LINE
5
13A
100
AcDbEntity
8
CUTOUTS
100
AcDbLine
10
103.09010457360259
20
-46.219881431720395
30
0
11
103.09010457360259
21
-36.184291641376163
31
0
0
LINE
5
13B
100
AcDbEntity
8
CUTOUTS
100
AcDbLine
10
103.09010457360259
20
-36.184291641376163
30
0
11
107.67012121982347
21
-36.184291641376163
31
0
0
SPLINE
5
13C
100
AcDbEntity
8
CUTOUTS
100
AcDbSpline
70
0
71
3
72
11
73
7
74
0
42
0.000000001
43
0.0000000001
44
0.0000000001
40
0.00012434485730994919
40
0.00012434485730994919
40
0.00012434485730994919
40
0.00012434485730994919
40
0.12964609129900653
40
0.12964609129900653
40
0.12964609129900653
40
0.24531399959714015
40
0.24531399959714015
40
0.24531399959714015
40
0.24531399959714015
10
107.67012121982347
20
-36.184291641376198
30
0
10
108.10481786446459
20
-36.198816698457357
30
0
10
108.53533789779036
20
-36.213625310897513
30
0
10
108.94783744845427
20
-36.297379446361049
30
0
10
109.31621543524045
20
-36.372175115247032
30
0
10
109.67742846727148
20
-36.503417100117979
30
0
10
110.0419622265909
20
-36.636423720710702
30
0
0
LINE
5
13D
100
AcDbEntity
8
CUTOUTS
100
AcDbLine
10
110.09475398018253
20
-143.06819994734295
30
0
11
112.2579542433192
21
-146.21988143172032
31
0
0
LINE
5
13E
100
AcDbEntity
8
CUTOUTS
100
AcDbLine
10
112.2579542433192
20
-146.21988143172032
30
0
11
109.35522438925702
21
-146.21988143172032
31
0
0
LINE
5
13F
100
AcDbEntity
8
CUTOUTS
100
AcDbLine
10
109.35522438925702
20
-146.21988143172032
30
0
11
107.50726761263806
21
-143.51342405524025
31
0
0
LINE
5
140
100
AcDbEntity
8
CUTOUTS
100
AcDbLine
10
107.50726761263806
20
-143.51342405524025
30
0
11
105.82117144727206
21
-143.51342405524025
31
0
0
LINE
5
141
100
AcDbEntity
8
CUTOUTS
100
AcDbLine
10
105.82117144727206
20
-143.51342405524025
30
0
11
105.82117144727206
21
-146.21988143172035
31
0
0
LINE
5
142
100
AcDbEntity
8
CUTOUTS
100
AcDbLine
10
105.82117144727206
20
-146.21988143172035
30
0
11
103.09010457360259
21
-146.21988143172035
31
0
0
LINE
5
143
100
AcDbEntity
8
CUTOUTS
100
AcDbLine
10
103.09010457360259
20
-146.21988143172035
30
0
11
103.09010457360259
21
-136.18429164137612
31
0
0
LINE
5
144
100
AcDbEntity
8
CUTOUTS
100
AcDbLine
10
103.09010457360259
20
-136.18429164137612
30
0
11
107.67012121982219
21
-136.18429164137612
31
0
0
SPLINE
5
145
100
AcDbEntity
8
CUTOUTS
100
AcDbSpline
70
0
71
3
72
11
73
7
74
0
42
0.000000001
43
0.0000000001
44
0.0000000001
40
0.00012434485720403196
40
0.00012434485720403196
40
0.00012434485720403196
40
0.00012434485720403196
40
0.12964609129900653
40
0.12964609129900653
40
0.12964609129900653
40
0.24531399959665287
40
0.24531399959665287
40
0.24531399959665287
40
0.24531399959665287
10
107.67012121982219
20
-136.18429164137615
30
0
10
108.10481786446388
20
-136.19881669845728
30
0
10
108.53533789778993
20
-136.21362531089744
30
0
10
108.94783744845427
20
-136.29737944636102
30
0
10
109.31621543523889
20
-136.37217511524665
30
0
10
109.6774284672685
20
-136.50341710011688
30
0
10
110.04196222658621
20
-136.63642372070908
30
0
0
SPLINE
5
146
100
AcDbEntity
8
CUTOUTS
100
AcDbSpline
70
0
71
3
72
11
73
7
74
0
42
0.000000001
43
0.0000000001
44
0.0000000001
40
0.00048243654970927613
40
0.00048243654970927613
40
0.00048243654970927613
40
0.00048243654970927613
40
0.10600227204732243
40
0.10600227204732243
40
0.10600227204732243
40
0.20613011366641851
40
0.20613011366641851
40
0.20613011366641851
40
0.20613011366641851
10
110.04196222658678
20
-136.63642372070808
30
0
10
110.35810027035311
20
-136.80103158156012
30
0
10
110.66886860360185
20
-136.96394755239209
30
0
10
110.92597265561437
20
-137.18146969508439
30
0
10
111.16993886043389
20
-137.38787659999889
30
0
10
111.37402785013393
20
-137.6505913796031
30
0
10
111.58054543026338
20
-137.9180753065535
30
0
0
SPLINE
5
147
100
AcDbEntity
8
CUTOUTS
100
AcDbSpline
70
0
71
3
72
11
73
7
74
0
42
0.000000001
43
0.0000000001
44
0.0000000001
40
0.00062092630115393756
40
0.00062092630115393756
40
0.00062092630115393756
40
0.00062092630115393756
40
0.10144346310914223
40
0.10144346310914223
40
0.10144346310914223
40
0.20942882185657435
40
0.20942882185657435
40
0.20942882185657435
40
0.20942882185657435
10
111.58054543026367
20
-137.91807530655322
30
0
10
111.74074962015851
20
-138.21829536445057
30
0
10
111.89760890877992
20
-138.51435058546897
30
0
10
111.98636174341274
20
-138.82369950992111
30
0
10
112.08141992178355
20
-139.15502577528497
30
0
10
112.10181699619923
20
-139.5136981004452
30
0
10
112.12157975792437
20
-139.87803211962904
30
0
0
SPLINE
5
148
100
AcDbEntity
8
CUTOUTS
100
AcDbSpline
70
0
71
3
72
11
73
7
74
0
42
0.000000001
43
0.0000000001
44
0.0000000001
40
0.00039443493853399638
40
0.00039443493853399638
40
0.00039443493853399638
40
0.00039443493853399638
40
0.10429545126725179
40
0.10429545126725179
40
0.10429545126725179
40
0.20103339455304486
40
0.20103339455304486
40
0.20103339455304486
40
0.20103339455304486
10
112.12157975792422
20
-139.8780321196291
30
0
10
112.1032525140302
20
-140.22837166955159
30
0
10
112.08431434151962
20
-140.57319854858832
30
0
10
111.99529736312456
20
-140.89276280147948
30
0
10
111.91241733257513
20
-141.19029587348095
30
0
10
111.76594889855977
20
-141.47613449689385
30
0
10
111.61631031620061
20
-141.76607202305541
30
0
0
SPLINE
5
149
100
AcDbEntity
8
CUTOUTS
100
AcDbSpline
70
0
71
3
72
14
73
10
74
0
42
0.000000001
43
0.0000000001
44
0.0000000001
40
0.00060897395803677281
40
0.00060897395803677281
40
0.00060897395803677281
40
0.00060897395803677281
40
0.0964910261986828
40
0.0964910261986828
40
0.0964910261986828
40
0.19794235807272123
40
0.19794235807272123
40
0.19794235807272123
40
0.20607804953201136
40
0.20607804953201136
40
0.20607804953201136
40
0.20607804953201136
10
111.61631031620061
20
-141.76607202305547
30
0
10
111.42306025783668
20
-142.02539026480764
30
0
10
111.23211748829831
20
-142.28002885126361
30
0
10
111.00293229252173
20
-142.48277148855973
30
0
10
110.76043494485361
20
-142.69729036983824
30
0
10
110.46610239224691
20
-142.86167893645609
30
0
10
110.16676767067196
20
-143.02815038829149
30
0
10
110.14276310717548
20
-143.04150024130863
30
0
10
110.11875854367887
20
-143.05485009432576
30
0
10
110.09475398018239
20
-143.06819994734292
30
0
0
LINE
5
14A
100
AcDbEntity
8
CUTOUTS
100
AcDbLine
10
1.0348646726561128
20
-178.26057042326707
30
0
11
1.0348646726561128
21
-176.18429164137606
31
0
0
LINE
5
14B
100
AcDbEntity
8
CUTOUTS
100
AcDbLine
10
1.0348646726561128
20
-176.18429164137606
30
0
11
5.657540902133178
21
-176.18429164137606
31
0
0
LINE
5
14C
100
AcDbEntity
8
CUTOUTS
100
AcDbLine
10
5.657540902133178
20
-176.18429164137606
30
0
11
5.657540902133178
21
-186.21988143172049
31
0
0
LINE
5
14D
100
AcDbEntity
8
CUTOUTS
100
AcDbLine
10
5.657540902133178
20
-186.21988143172047
30
0
11
2.9264741029692232
21
-186.21988143172041
31
0
0
LINE
5
14E
100
AcDbEntity
8
CUTOUTS
100
AcDbLine
10
2.9264741029692232
20
-186.21988143172041
30
0
11
2.9264741029692232
21
-178.26057042326704
31
0
0
LINE
5
14F
100
AcDbEntity
8
CUTOUTS
100
AcDbLine
10
2.9264741029692232
20
-178.26057042326707
30
0
11
1.0348646726561128
21
-178.26057042326707
31
0
0
SPLINE
5
150
100
AcDbEntity
8
CUTOUTS
100
AcDbSpline
70
0
71
3
72
11
73
7
74
0
42
0.000000001
43
0.0000000001
44
0.0000000001
40
0.00043948296259816783
40
0.00043948296259816783
40
0.00043948296259816783
40
0.00043948296259816783
40
0.081066738375261141
40
0.081066738375261141
40
0.081066738375261141
40
0.16091527477662274
40
0.16091527477662274
40
0.16091527477662274
40
0.16091527477662274
10
8.8876968720595073
20
-14.005310701966387
30
0
10
8.8731626162012844
20
-14.275821355427425
30
0
10
8.8582435174382113
20
-14.542046038499183
30
0
10
8.8005937116381006
20
-14.793930932908683
30
0
10
8.7435007026618905
20
-15.043383057469608
30
0
10
8.6425374803866362
20
-15.287344421459839
30
0
10
8.5393251108385471
20
-15.534942755328593
30
0
0
SPLINE
5
151
100
AcDbEntity
8
CUTOUTS
100
AcDbSpline
70
0
71
3
72
11
73
7
74
0
42
0.000000001
43
0.0000000001
44
0.0000000001
40
0.00057449954273469976
40
0.00057449954273469976
40
0.00057449954273469976
40
0.00057449954273469976
40
0.094182609254067989
40
0.094182609254067989
40
0.094182609254067989
40
0.21689616907303727
40
0.21689616907303727
40
0.21689616907303727
40
0.21689616907303727
10
8.5393251108382628
20
-15.534942755328451
30
0
10
8.3759450927541934
20
-15.802314337628438
30
0
10
8.2137514134899448
20
-16.066991037639742
30
0
10
8.0253518443274174
20
-16.30670764544746
30
0
10
7.7783734375250901
20
-16.62095903224003
30
0
10
7.4807239076565679
20
-16.899479097912149
30
0
10
7.1800730265823631
20
-17.180396165433436
30
0
0
LINE
5
152
100
AcDbEntity
8
CUTOUTS
100
AcDbLine
10
7.1800730265826473
20
-17.180396165433436
30
0
11
5.1189202071941509
21
-19.085399906299241
31
0
0
LINE
5
153
100
AcDbEntity
8
CUTOUTS
100
AcDbLine
10
5.1189202071941509
20
-19.085399906299241
30
0
11
9.1642931547119133
21
-19.085399906299241
31
0
0
LINE
5
154
100
AcDbEntity
8
CUTOUTS
100
AcDbLine
10
9.1642931547119133
20
-19.085399906299241
30
0
11
9.1642931547119133
21
-21.219881431720413
31
0
0
LINE
5
155
100
AcDbEntity
8
CUTOUTS
100
AcDbLine
10
9.1642931547119133
20
-21.219881431720413
30
0
11
1.3840841140699922
21
-21.219881431720413
31
0
0
LINE
5
156
100
AcDbEntity
8
CUTOUTS
100
AcDbLine
10
1.3840841140699922
20
-21.219881431720413
30
0
11
1.3840841140699922
21
-19.523126341422703
31
0
0
LINE
5
157
100
AcDbEntity
8
CUTOUTS
100
AcDbLine
10
1.3840841140699922
20
-19.523126341422703
30
0
11
5.1729819052175685
21
-15.980073373190482
31
0
0
SPLINE
5
158
100
AcDbEntity
8
CUTOUTS
100
AcDbSpline
70
0
71
3
72
17
73
13
74
0
42
0.000000001
43
0.0000000001
44
0.0000000001
40
-4.782541396103354e-05
40
-4.782541396103354e-05
40
-4.782541396103354e-05
40
-4.782541396103354e-05
40
0
40
0
40
0
40
0.067027941168843738
40
0.067027941168843738
40
0.067027941168843738
40
0.11661997866297678
40
0.11661997866297678
40
0.11661997866297678
40
0.11715445739772727
40
0.11715445739772727
40
0.11715445739772727
40
0.11715445739772727
10
5.1729819052127368
20
-15.98007337319471
30
0
10
5.173097484329503
20
-15.979962483661954
30
0
10
5.1732130634414375
20
-15.979851594133638
30
0
10
5.173328642553372
20
-15.979740704605341
30
0
10
5.3353142748312621
20
-15.824327585007545
30
0
10
5.4999518095675626
20
-15.666702558910561
30
0
10
5.6422578919853095
20
-15.486461800626934
30
0
10
5.7475460516968724
20
-15.353106870027791
30
0
10
5.8377909582117127
20
-15.21094166079898
30
0
10
5.9267853359153833
20
-15.070988607120608
30
0
10
5.9277444738091845
20
-15.069480261530721
30
0
10
5.9287036117029857
20
-15.067971915940799
30
0
10
5.9296627495970711
20
-15.066463570349971
30
0
0
SPLINE
5
159
100
AcDbEntity
8
CUTOUTS
100
AcDbSpline
70
0
71
3
72
17
73
13
74
0
42
0.000000001
43
0.0000000001
44
0.0000000001
40
-0.00053141555763440559
40
-0.00053141555763440559
40
-0.00053141555763440559
40
-0.00053141555763440559
40
0
40
0
40
0
40
0.039894339334124757
40
0.039894339334124757
40
0.039894339334124757
40
0.077840457332149643
40
0.077840457332149643
40
0.077840457332149643
40
0.078375890430837356
40
0.078375890430837356
40
0.078375890430837356
40
0.078375890430837356
10
5.9296627495899656
20
-15.066463570347466
30
0
10
5.9303975380814222
20
-15.064834111030905
30
0
10
5.9311323265725946
20
-15.063204651714486
30
0
10
5.931867115063767
20
-15.061575192398191
30
0
10
5.9870290330616172
20
-14.93924869672167
30
0
10
6.0444467406958324
20
-14.812960127333579
30
0
10
6.0781958521616275
20
-14.675798781137779
30
0
10
6.1102968416099657
20
-14.545335644903847
30
0
10
6.1188441990464071
20
-14.413732968327579
30
0
10
6.1274860867538905
20
-14.286457045400791
30
0
10
6.1276080268351052
20
-14.284661137270902
30
0
10
6.1277299669166041
20
-14.282865229141066
30
0
10
6.127851906998103
20
-14.281069321010431
30
0
0
SPLINE
5
15A
100
AcDbEntity
8
CUTOUTS
100
AcDbSpline
70
0
71
3
72
17
73
13
74
0
42
0.000000001
43
0.0000000001
44
0.0000000001
40
-0.00052249092738663148
40
-0.00052249092738663148
40
-0.00052249092738663148
40
-0.00052249092738663148
40
0
40
0
40
0
40
0.044804425506426694
40
0.044804425506426694
40
0.044804425506426694
40
0.08634767209556185
40
0.08634767209556185
40
0.08634767209556185
40
0.087359212553701104
40
0.087359212553701104
40
0.087359212553701104
40
0.087359212553701104
10
6.1278519069904291
20
-14.281069321011799
30
0
10
6.1277153061098488
20
-14.27927446851875
30
0
10
6.1275787052292685
20
-14.277479616026749
30
0
10
6.1274421043486882
20
-14.27568476353489
30
0
10
6.1157283622358705
20
-14.121773316322539
30
0
10
6.105056782670033
20
-13.959101261589026
30
0
10
6.0372523046189031
20
-13.810141781491563
30
0
10
5.9743831098978717
20
-13.672024612405558
30
0
10
5.8702985357268744
20
-13.563070039544609
30
0
10
5.7727248299676148
20
-13.458907941397573
30
0
10
5.7703489985357237
20
-13.456371688573494
30
0
10
5.7679731671038326
20
-13.453835435749433
30
0
10
5.7655973356725099
20
-13.451299182926206
30
0
0
SPLINE
5
15B
100
AcDbEntity
8
CUTOUTS
100
AcDbSpline
70
0
71
3
72
17
73
13
74
0
42
0.000000001
43
0.0000000001
44
0.0000000001
40
-0.0010261153608207918
40
-0.0010261153608207918
40
-0.0010261153608207918
40
-0.0010261153608207918
40
0
40
0
40
0
40
0.046039664016812393
40
0.046039664016812393
40
0.046039664016812393
40
0.10284626309551015
40
0.10284626309551015
40
0.10284626309551015
40
0.10315683384161393
40
0.10315683384161393
40
0.10315683384161393
40
0.10315683384161393
10
5.7655973356716572
20
-13.451299182927112
30
0
10
5.7626198263275796
20
-13.449507091561372
30
0
10
5.7596423169843547
20
-13.447715000196112
30
0
10
5.7566648076411298
20
-13.445922908830852
30
0
10
5.6230701505441516
20
-13.36551549315967
30
0
10
5.4850156375749748
20
-13.281608232492594
30
0
10
5.3300091489916213
20
-13.231471907151349
30
0
10
5.138752508883897
20
-13.169610592700867
30
0
10
4.9385163267430698
20
-13.164599382256768
30
0
10
4.7453524536152258
20
-13.158749986031104
30
0
10
4.7442963958832252
20
-13.158718006448105
30
0
10
4.7432403381509403
20
-13.158686026865105
30
0
10
4.7421842804186554
20
-13.158654047282123
30
0
0
SPLINE
5
15C
100
AcDbEntity
8
CUTOUTS
100
AcDbSpline
70
0
71
3
72
17
73
13
74
0
42
0.000000001
43
0.0000000001
44
0.0000000001
40
-0.00031385991578596712
40
-0.00031385991578596712
40
-0.00031385991578596712
40
-0.00031385991578596712
40
0
40
0
40
0
40
0.054755074285766508
40
0.054755074285766508
40
0.054755074285766508
40
0.10795588914257129
40
0.10795588914257129
40
0.10795588914257129
40
0.10845732777596832
40
0.10845732777596832
40
0.10845732777596832
40
0.10845732777596832
10
4.7421842804180869
20
-13.158654047285339
30
0
10
4.741129290125059
20
-13.158711284122262
30
0
10
4.7400742998317469
20
-13.158768520959239
30
0
10
4.739019309538719
20
-13.158825757796198
30
0
10
4.5549688176802761
20
-13.168811127389617
30
0
10
4.3661885717975224
20
-13.178589379378547
30
0
10
4.1811502692348768
20
-13.224590638304861
30
0
10
4.0013644027288819
20
-13.26928612070974
30
0
10
3.8344852955461306
20
-13.345847102037638
30
0
10
3.6715857662846929
20
-13.420112982509629
30
0
10
3.6700503740630097
20
-13.420812967682991
30
0
10
3.6685149818410423
20
-13.421512952856336
30
0
10
3.6669795896182222
20
-13.422212938030071
30
0
0
SPLINE
5
15D
100
AcDbEntity
8
CUTOUTS
100
AcDbSpline
70
0
71
3
72
14
73
10
74
0
42
0.000000001
43
0.0000000001
44
0.0000000001
40
-0.00050112170237104933
40
-0.00050112170237104933
40
-0.00050112170237104933
40
-0.00050112170237104933
40
0
40
0
40
0
40
0.053155960918459151
40
0.053155960918459151
40
0.053155960918459151
40
0.10134924602708718
40
0.10134924602708718
40
0.10134924602708718
40
0.10134924602708718
10
3.6669795896202118
20
-13.422212938030231
30
0
10
3.6655521893393939
20
-13.423112902995609
30
0
10
3.6641247890591444
20
-13.424012867960577
30
0
10
3.6626973887786107
20
-13.424912832925564
30
0
10
3.5112873956393287
20
-13.520375676143104
30
0
10
3.3556361185600281
20
-13.617960118260459
30
0
10
3.2203644845455415
20
-13.744635981383286
30
0
10
3.0977219001107414
20
-13.859485301805243
30
0
10
2.9979033704867675
20
-13.992679828822077
30
0
10
2.902358662515212
20
-14.125094377597893
30
0
0
LINE
5
15E
100
AcDbEntity
8
CUTOUTS
100
AcDbLine
10
2.902358662515212
20
-14.125094377597893
30
0
11
0.89463912352755415
21
-13.005141532600781
31
0
0
SPLINE
5
15F
100
AcDbEntity
8
CUTOUTS
100
AcDbSpline
70
0
71
3
72
11
73
7
74
0
42
0.000000001
43
0.0000000001
44
0.0000000001
40
0.0082515768763597782
40
0.0082515768763597782
40
0.0082515768763597782
40
0.0082515768763597782
40
0.11379577938778142
40
0.11379577938778142
40
0.11379577938778142
40
0.23024649360562113
40
0.23024649360562113
40
0.23024649360562113
40
0.23024649360562113
10
0.89463912352755415
20
-13.005141532600799
30
0
10
1.0997382917227583
20
-12.715206522859717
30
0
10
1.3059471939271816
20
-12.432560887211004
30
0
10
1.5531816812423926
20
-12.200752995411612
30
0
10
1.8259643821585314
20
-11.944991012099919
30
0
10
2.1569981054449272
20
-11.743426271490751
30
0
10
2.4929581444470728
20
-11.539938846303066
30
0
0
SPLINE
5
160
100
AcDbEntity
8
CUTOUTS
100
AcDbSpline
70
0
71
3
72
11
73
7
74
0
42
0.000000001
43
0.0000000001
44
0.0000000001
40
0.0005213134699824383
40
0.0005213134699824383
40
0.0005213134699824383
40
0.0005213134699824383
40
0.12496898818854704
40
0.12496898818854704
40
0.12496898818854704
40
0.26256628593717962
40
0.26256628593717962
40
0.26256628593717962
40
0.26256628593717962
10
2.4929581444459359
20
-11.539938846301236
30
0
10
2.8775799228384358
20
-11.375236902896901
30
0
10
3.2584978964135303
20
-11.212856210999362
30
0
10
3.6507770359028768
20
-11.120453903477188
30
0
10
4.0845059077275891
20
-11.018288010466009
30
0
10
4.5424667350098957
20
-10.999236637558543
30
0
10
5.0052235501146924
20
-10.980632374707024
30
0
0
SPLINE
5
161
100
AcDbEntity
8
CUTOUTS
100
AcDbSpline
70
0
71
3
72
11
73
7
74
0
42
0.000000001
43
0.0000000001
44
0.0000000001
40
0.00027714673599312195
40
0.00027714673599312195
40
0.00027714673599312195
40
0.00027714673599312195
40
0.11008401300624142
40
0.11008401300624142
40
0.11008401300624142
40
0.20995308026323667
40
0.20995308026323667
40
0.20995308026323667
40
0.20995308026323667
10
5.0052235501146924
20
-10.980632374710275
30
0
10
5.3734295710543734
20
-10.993221866780978
30
0
10
5.7377080923023982
20
-11.006130927345819
30
0
10
6.0875244567543518
20
-11.073796585264439
30
0
10
6.4056815558112135
20
-11.135338330067803
30
0
10
6.7187992170167377
20
-11.243511901952949
30
0
10
7.0351247230229319
20
-11.353290767569053
30
0
0
SPLINE
5
162
100
AcDbEntity
8
CUTOUTS
100
AcDbSpline
70
0
71
3
72
11
73
7
74
0
42
0.000000001
43
0.0000000001
44
0.0000000001
40
0.00044191292613687024
40
0.00044191292613687024
40
0.00044191292613687024
40
0.00044191292613687024
40
0.092001190106474035
40
0.092001190106474035
40
0.092001190106474035
40
0.17795848812803297
40
0.17795848812803297
40
0.17795848812803297
40
0.17795848812803297
10
7.0351247230237846
20
-11.353290767567721
30
0
10
7.3129251809305629
20
-11.488590961664311
30
0
10
7.5855067981791535
20
-11.622350394021925
30
0
10
7.8141117155215056
20
-11.802927145992328
30
0
10
8.0287296287943377
20
-11.972455457736295
30
0
10
8.2128138248458527
20
-12.189741532168306
30
0
10
8.3994347277550219
20
-12.411474585086157
30
0
0
SPLINE
5
163
100
AcDbEntity
8
CUTOUTS
100
AcDbSpline
70
0
71
3
72
11
73
7
74
0
42
0.000000001
43
0.0000000001
44
0.0000000001
40
0.00061308103788841703
40
0.00061308103788841703
40
0.00061308103788841703
40
0.00061308103788841703
40
0.085002982791137549
40
0.085002982791137549
40
0.085002982791137549
40
0.17294929040343784
40
0.17294929040343784
40
0.17294929040343784
40
0.17294929040343784
10
8.3994347277555903
20
-12.411474585085855
30
0
10
8.5447359628258823
20
-12.657172436395658
30
0
10
8.6861484875723249
20
-12.898519513311673
30
0
10
8.7657594481487422
20
-13.152475793039784
30
0
10
8.8487254178050989
20
-13.417134438600957
30
0
10
8.8685563785173827
20
-13.708213746652458
30
0
10
8.8876968720595073
20
-14.005310701966298
30
0
0
SPLINE
5
164
100
AcDbEntity
8
CUTOUTS
100
AcDbSpline
70
0
71
3
72
29
73
25
74
0
42
0.000000001
43
0.0000000001
44
0.0000000001
40
0.00037907553966651681
40
0.00037907553966651681
40
0.00037907553966651681
40
0.00037907553966651681
40
0.058762668660019661
40
0.058762668660019661
40
0.058762668660019661
40
0.10636885973925841
40
0.10636885973925841
40
0.10636885973925841
40
0.1443092225835651
40
0.1443092225835651
40
0.1443092225835651
40
0.18459066576151056
40
0.18459066576151056
40
0.18459066576151056
40
0.22958392576036957
40
0.22958392576036957
40
0.22958392576036957
40
0.25830851952493084
40
0.25830851952493084
40
0.25830851952493084
40
0.28661753104091198
40
0.28661753104091198
40
0.28661753104091198
40
0.28713459510879163
40
0.28713459510879163
40
0.28713459510879163
40
0.28713459510879163
10
11.839437112031419
20
-171.00360055640255
30
0
10
11.857605990562377
20
-170.81968183741492
30
0
10
11.91154338899878
20
-170.64112219432178
30
0
10
11.998229633514939
20
-170.47785207990754
30
0
10
12.069018591163285
20
-170.34452387681111
30
0
10
12.17231290260429
20
-170.19959552494112
30
0
10
12.326546691475357
20
-170.07333178467238
30
0
10
12.449476129794164
20
-169.97269540152402
30
0
10
12.590087221882129
20
-169.89593435126733
30
0
10
12.741216340039898
20
-169.84701879815196
30
0
10
12.901671490618298
20
-169.79508471333486
30
0
10
13.070791138516427
20
-169.77556757090699
30
0
10
13.238904568122223
20
-169.78950721200744
30
0
10
13.426823880538166
20
-169.80508911868236
30
0
10
13.561162021248947
20
-169.85674972654479
30
0
10
13.671243949260372
20
-169.91418582564674
30
0
10
13.740786580180782
20
-169.95047023230214
30
0
10
13.806349873680972
20
-169.99389443484293
30
0
10
13.86687943541034
20
-170.04377181523213
30
0
10
13.926533293694661
20
-170.09292760120371
30
0
10
13.980967786936844
20
-170.14807891293233
30
0
10
14.029341711796235
20
-170.20837101532805
30
0
10
14.030283999239259
20
-170.20954545984881
30
0
10
14.031226286682283
20
-170.21071990436954
30
0
10
14.032168574125023
20
-170.21189434888959
30
0
0
ARC
5
165
100
AcDbEntity
8
CUTOUTS
100
AcDbCircle
10
13.264432563249215
20
-171.00000000000077
30
0
40
1.1002404735824749
210
-0
220
0
230
1
100
AcDbArc
50
-0.23501694956917757
51
45.750094156245858
0
SPLINE
5
166
100
AcDbEntity
8
CUTOUTS
100
AcDbSpline
70
0
71
3
72
29
73
25
74
0
42
0.000000001
43
0.0000000001
44
0.0000000001
40
-0.00046642672338287274
40
-0.00046642672338287274
40
-0.00046642672338287274
40
-0.00046642672338287274
40
0
40
0
40
0
40
0.046339692848943279
40
0.046339692848943279
40
0.046339692848943279
40
0.10281780226856777
40
0.10281780226856777
40
0.10281780226856777
40
0.18034374867587014
40
0.18034374867587014
40
0.18034374867587014
40
0.25980127848699386
40
0.25980127848699386
40
0.25980127848699386
40
0.32203756359591668
40
0.32203756359591668
40
0.32203756359591668
40
0.35809591420709319
40
0.35809591420709319
40
0.35809591420709319
40
0.39475360158059214
40
0.39475360158059214
40
0.39475360158059214
40
0.39475360158059214
10
14.36466378111362
20
-171.0045129752497
30
0
10
14.364853304978737
20
-171.00605613633417
30
0
10
14.365042828843571
20
-171.00759929741776
30
0
10
14.365232352708404
20
-171.0091424585014
30
0
10
14.382851318322878
20
-171.15260144759691
30
0
10
14.371806912665761
20
-171.29811148597426
30
0
10
14.332833745159803
20
-171.43734634770283
30
0
10
14.285338544180775
20
-171.60702687829047
30
0
10
14.203560694118664
20
-171.74088921326273
30
0
10
14.133071919996496
20
-171.8335566859347
30
0
10
14.03650716437653
20
-171.96050472785967
30
0
10
13.916342699592406
20
-172.06754306601204
30
0
10
13.779124031660785
20
-172.14884957867596
30
0
10
13.638485938046188
20
-172.2321822119967
30
0
10
13.482738387577342
20
-172.2868235912479
30
0
10
13.320831748292505
20
-172.30975028423353
30
0
10
13.194001334382222
20
-172.3277100292681
30
0
10
13.028416976218011
20
-172.33109516679872
30
0
10
12.846322801193821
20
-172.29239456490703
30
0
10
12.740823470468854
20
-172.26997271864161
30
0
10
12.638323884660281
20
-172.23528138074784
30
0
10
12.540893353026092
20
-172.18902101348075
30
0
10
12.441843398731578
20
-172.14199173850292
30
0
10
12.348750406629563
20
-172.08334646579419
30
0
10
12.263550215197085
20
-172.01432712936082
30
0
0
ARC
5
167
100
AcDbEntity
8
CUTOUTS
100
AcDbCircle
10
13.264432563249215
20
-171.00000000000077
30
0
40
1.4249999999992329
210
0
220
0
230
1
100
AcDbArc
50
180.14476975805573
51
225.38225197181794
0
ARC
5
168
100
AcDbEntity
8
CUTOUTS
100
AcDbCircle
10
-13.26443256324751
20
-170.99999999999937
30
0
40
1.4250000000020933
210
0
220
0
230
1
100
AcDbArc
50
180.1447697583427
51
225.38225197242903
0
SPLINE
5
169
100
AcDbEntity
8
CUTOUTS
100
AcDbSpline
70
0
71
3
72
29
73
25
74
0
42
0.000000001
43
0.0000000001
44
0.0000000001
40
-0.00046642672529382807
40
-0.00046642672529382807
40
-0.00046642672529382807
40
-0.00046642672529382807
40
0
40
0
40
0
40
0.046339692848958142
40
0.046339692848958142
40
0.046339692848958142
40
0.10281780226872461
40
0.10281780226872461
40
0.10281780226872461
40
0.18034374867590838
40
0.18034374867590838
40
0.18034374867590838
40
0.25980127848695606
40
0.25980127848695606
40
0.25980127848695606
40
0.32203756359434665
40
0.32203756359434665
40
0.32203756359434665
40
0.35809591420372139
40
0.35809591420372139
40
0.35809591420372139
40
0.39475360157514822
40
0.39475360157514822
40
0.39475360157514822
40
0.39475360157514822
10
-12.164201345387937
20
-171.00451297522244
30
0
10
-12.164011821522251
20
-171.00605613631245
30
0
10
-12.163822297656566
20
-171.00759929740235
30
0
10
-12.16363277379088
20
-171.00914245849228
30
0
10
-12.146013808175553
20
-171.15260144758872
30
0
10
-12.157058213831533
20
-171.29811148596622
30
0
10
-12.196031381336354
20
-171.43734634769544
30
0
10
-12.24352658231453
20
-171.60702687828427
30
0
10
-12.325304432375788
20
-171.7408892132573
30
0
10
-12.395793206497672
20
-171.83355668593003
30
0
10
-12.492357962117069
20
-171.96050472785572
30
0
10
-12.61252242690091
20
-172.0675430660088
30
0
10
-12.749741094832245
20
-172.14884957867343
30
0
10
-12.890379188446559
20
-172.23218221199505
30
0
10
-13.04612673891512
20
-172.28682359124704
30
0
10
-13.208033378199389
20
-172.30975028423356
30
0
10
-13.33486379210683
20
-172.32771002926847
30
0
10
-13.500448150272462
20
-172.33109516680128
30
0
10
-13.682542325301483
20
-172.29239456490927
30
0
10
-13.788041656026451
20
-172.26997271864428
30
0
10
-13.890541241833887
20
-172.23528138075119
30
0
10
-13.987971773467223
20
-172.18902101348516
30
0
10
-14.087021727760032
20
-172.14199173850884
30
0
10
-14.180114719861194
20
-172.08334646580107
30
0
10
-14.265314911290545
20
-172.01432712937202
30
0
0
ARC
5
16A
100
AcDbEntity
8
CUTOUTS
100
AcDbCircle
10
-13.26443256324751
20
-170.99999999999937
30
0
40
1.1002404735775371
210
-0
220
0
230
1
100
AcDbArc
50
-0.23501694822306504
51
45.750094156326405
0
SPLINE
5
16B
100
AcDbEntity
8
CUTOUTS
100
AcDbSpline
70
0
71
3
72
29
73
25
74
0
42
0.000000001
43
0.0000000001
44
0.0000000001
40
0.00037907554017299031
40
0.00037907554017299031
40
0.00037907554017299031
40
0.00037907554017299031
40
0.058762668659702033
40
0.058762668659702033
40
0.058762668659702033
40
0.10636885973845173
40
0.10636885973845173
40
0.10636885973845173
40
0.14430922258236634
40
0.14430922258236634
40
0.14430922258236634
40
0.18459066576003547
40
0.18459066576003547
40
0.18459066576003547
40
0.22958392575861225
40
0.22958392575861225
40
0.22958392575861225
40
0.25830851952297373
40
0.25830851952297373
40
0.25830851952297373
40
0.28661753103891813
40
0.28661753103891813
40
0.28661753103891813
40
0.2871345951078888
40
0.2871345951078888
40
0.2871345951078888
40
0.2871345951078888
10
-14.68942801446758
20
-171.00360055640834
30
0
10
-14.671259135938044
20
-170.81968183742327
30
0
10
-14.61732173750363
20
-170.6411221943323
30
0
10
-14.530635492989177
20
-170.47785207991797
30
0
10
-14.459846535341967
20
-170.34452387682106
30
0
10
-14.356552223902099
20
-170.19959552494967
30
0
10
-14.2023184350316
20
-170.0733317846796
30
0
10
-14.079388996713362
20
-169.9726954015301
30
0
10
-13.938777904626249
20
-169.89593435127273
30
0
10
-13.787648786469617
20
-169.84701879815628
30
0
10
-13.627193635891501
20
-169.79508471333776
30
0
10
-13.458073987993942
20
-169.77556757090844
30
0
10
-13.289960558388429
20
-169.78950721200744
30
0
10
-13.102041245972202
20
-169.80508911868077
30
0
10
-12.967703105258863
20
-169.85674972654235
30
0
10
-12.857621177246301
20
-169.91418582564415
30
0
10
-12.788078546324471
20
-169.95047023229955
30
0
10
-12.722515252824849
20
-169.99389443483963
30
0
10
-12.661985691095765
20
-170.0437718152279
30
0
10
-12.602331832811728
20
-170.09292760119882
30
0
10
-12.547897339568976
20
-170.14807891292674
30
0
10
-12.499523414709017
20
-170.20837101532209
30
0
10
-12.498581127264288
20
-170.20954545984512
30
0
10
-12.497638839819274
20
-170.2107199043682
30
0
10
-12.496696552375681
20
-170.21189434888967
30
0
0
ARC
5
16C
100
AcDbEntity
8
CUTOUTS
100
AcDbCircle
10
13.264432563242963
20
-27.000000000000064
30
0
40
1.4249999999994067
210
0
220
-0
230
1
100
AcDbArc
50
0.14476975855922455
51
45.382251972444891
0
SPLINE
5
16D
100
AcDbEntity
8
CUTOUTS
100
AcDbSpline
70
0
71
3
72
29
73
25
74
0
42
0.000000001
43
0.0000000001
44
0.0000000001
40
-0.00046642672422233015
40
-0.00046642672422233015
40
-0.00046642672422233015
40
-0.00046642672422233015
40
0
40
0
40
0
40
0.046339692849030403
40
0.046339692849030403
40
0.046339692849030403
40
0.10281780226826914
40
0.10281780226826914
40
0.10281780226826914
40
0.18034374867216282
40
0.18034374867216282
40
0.18034374867216282
40
0.25980127847999879
40
0.25980127847999879
40
0.25980127847999879
40
0.32203756358782137
40
0.32203756358782137
40
0.32203756358782137
40
0.35809591419824682
40
0.35809591419824682
40
0.35809591419824682
40
0.39475360157049461
40
0.39475360157049461
40
0.39475360157049461
40
0.39475360157049461
10
12.164201345379979
20
-26.995487024767328
30
0
10
12.164011821514862
20
-26.993943863679561
30
0
10
12.16382229764946
20
-26.992400702592967
30
0
10
12.163632773784059
20
-26.990857541506301
30
0
10
12.146013808168732
20
-26.847398552411263
30
0
10
12.157058213824996
20
-26.701888514033527
30
0
10
12.196031381329817
20
-26.562653652304782
30
0
10
12.24352658230714
20
-26.392973121718306
30
0
10
12.325304432366977
20
-26.259110786745943
30
0
10
12.395793206491135
20
-26.166443314070165
30
0
10
12.492357962110532
20
-26.039495272144642
30
0
10
12.612522426894373
20
-25.932456933991688
30
0
10
12.749741094825424
20
-25.851150421327169
30
0
10
12.890379188439738
20
-25.76781778800548
30
0
10
13.046126738908299
20
-25.713176408753391
30
0
10
13.208033378192852
20
-25.690249715766953
30
0
10
13.334863792106262
20
-25.672289970731228
30
0
10
13.500448150270756
20
-25.668904833200514
30
0
10
13.682542325294378
20
-25.707605435091381
30
0
10
13.788041656018493
20
-25.730027281356236
30
0
10
13.890541241826497
20
-25.764718619249294
30
0
10
13.987971773460401
20
-25.8109789865156
30
0
10
14.087021727753211
20
-25.858008261491889
30
0
10
14.180114719854089
20
-25.916653534199128
30
0
10
14.265314911284008
20
-25.985672870629024
30
0
0
ARC
5
16E
100
AcDbEntity
8
CUTOUTS
100
AcDbCircle
10
13.264432563242963
20
-27.000000000000064
30
0
40
1.1002404735809874
210
0
220
0
230
1
100
AcDbArc
50
179.76498305127447
51
225.75009415628315
0
SPLINE
5
16F
100
AcDbEntity
8
CUTOUTS
100
AcDbSpline
70
0
71
3
72
29
73
25
74
0
42
0.000000001
43
0.0000000001
44
0.0000000001
40
0.00037907553945330552
40
0.00037907553945330552
40
0.00037907553945330552
40
0.00037907553945330552
40
0.058762668659726458
40
0.058762668659726458
40
0.058762668659726458
40
0.10636885973865934
40
0.10636885973865934
40
0.10636885973865934
40
0.14430922258234094
40
0.14430922258234094
40
0.14430922258234094
40
0.18459066575960079
40
0.18459066575960079
40
0.18459066575960079
40
0.22958392575773673
40
0.22958392575773673
40
0.22958392575773673
40
0.2583085195211085
40
0.2583085195211085
40
0.2583085195211085
40
0.28661753103586146
40
0.28661753103586146
40
0.28661753103586146
40
0.28713459510438666
40
0.28713459510438666
40
0.28713459510438666
40
0.28713459510438666
10
14.689428014461043
20
-26.99639944358573
30
0
10
14.671259135931791
20
-27.180318162573407
30
0
10
14.617321737497377
20
-27.358877805666744
30
0
10
14.530635492981787
20
-27.522147920083064
30
0
10
14.459846535334009
20
-27.655476123180485
30
0
10
14.356552223894425
20
-27.800404475050939
30
0
10
14.202318435023926
20
-27.926668215321158
30
0
10
14.079388996706541
20
-28.027304598469662
30
0
10
13.938777904619428
20
-28.104065648727854
30
0
10
13.787648786462228
20
-28.152981201844369
30
0
10
13.627193635884112
20
-28.204915286662811
30
0
10
13.458073987985983
20
-28.224432429092019
30
0
10
13.289960558380471
20
-28.210492787992898
30
0
10
13.102041245963676
20
-28.194910881319402
30
0
10
12.967703105250905
20
-28.143250273457738
30
0
10
12.857621177238627
20
-28.08581417435601
30
0
10
12.78807854631907
20
-28.049529767701564
30
0
10
12.722515252817743
20
-28.006105565161015
30
0
10
12.661985691087807
20
-27.956228184772094
30
0
10
12.602331832803486
20
-27.907072398800956
30
0
10
12.547897339560734
20
-27.851921087072391
30
0
10
12.499523414701628
20
-27.791628984677885
30
0
10
12.498581127257467
20
-27.790454540155736
30
0
10
12.497638839813305
20
-27.789280095633551
30
0
10
12.496696552368576
20
-27.788105651110797
30
0
0
SPLINE
5
170
100
AcDbEntity
8
CUTOUTS
100
AcDbSpline
70
0
71
3
72
29
73
25
74
0
42
0.000000001
43
0.0000000001
44
0.0000000001
40
0.00037907553958735547
40
0.00037907553958735547
40
0.00037907553958735547
40
0.00037907553958735547
40
0.058762668659743222
40
0.058762668659743222
40
0.058762668659743222
40
0.10636885973834784
40
0.10636885973834784
40
0.10636885973834784
40
0.14430922258221957
40
0.14430922258221957
40
0.14430922258221957
40
0.18459066575980901
40
0.18459066575980901
40
0.18459066575980901
40
0.2295839257582479
40
0.2295839257582479
40
0.2295839257582479
40
0.25830851952304779
40
0.25830851952304779
40
0.25830851952304779
40
0.28661753103937665
40
0.28661753103937665
40
0.28661753103937665
40
0.28713459510803063
40
0.28713459510803063
40
0.28713459510803063
40
0.28713459510803063
10
-11.839437112038809
20
-26.996399443592622
30
0
10
-11.857605990569482
20
-27.180318162579873
30
0
10
-11.911543389005033
20
-27.358877805672499
30
0
10
-11.998229633522328
20
-27.522147920088713
30
0
10
-12.069018591170959
20
-27.655476123185316
30
0
10
-12.172312902611679
20
-27.800404475054989
30
0
10
-12.326546691483031
20
-27.926668215323751
30
0
10
-12.449476129802122
20
-28.027304598472327
30
0
10
-12.590087221890087
20
-28.1040656487286
30
0
10
-12.741216340047572
20
-28.152981201843765
30
0
10
-12.901671490626256
20
-28.204915286660892
30
0
10
-13.070791138524385
20
-28.224432429088679
30
0
10
-13.238904568130181
20
-28.210492787988137
30
0
10
-13.426823880546408
20
-28.194910881313113
30
0
10
-13.561162021256621
20
-28.143250273450668
30
0
10
-13.671243949267478
20
-28.085814174348656
30
0
10
-13.740786580189877
20
-28.049529767692505
30
0
10
-13.806349873689214
20
-28.00610556515192
30
0
10
-13.866879435418014
20
-27.956228184763106
30
0
10
-13.926533293701766
20
-27.907072398791755
30
0
10
-13.98096778694395
20
-27.851921087063758
30
0
10
-14.029341711804193
20
-27.791628984667014
30
0
10
-14.030283999248354
20
-27.790454540144616
30
0
10
-14.031226286692799
20
-27.789280095622217
30
0
10
-14.032168574137813
20
-27.788105651099073
30
0
0
ARC
5
171
100
AcDbEntity
8
CUTOUTS
100
AcDbCircle
10
-13.264432563256037
20
-26.999999999994415
30
0
40
1.1002404735824662
210
0
220
0
230
1
100
AcDbArc
50
179.76498305054093
51
225.75009415577085
0
SPLINE
5
172
100
AcDbEntity
8
CUTOUTS
100
AcDbSpline
70
0
71
3
72
29
73
25
74
0
42
0.000000001
43
0.0000000001
44
0.0000000001
40
-0.0004664267233916808
40
-0.0004664267233916808
40
-0.0004664267233916808
40
-0.0004664267233916808
40
0
40
0
40
0
40
0.046339692848993058
40
0.046339692848993058
40
0.046339692848993058
40
0.10281780226852953
40
0.10281780226852953
40
0.10281780226852953
40
0.18034374867491174
40
0.18034374867491174
40
0.18034374867491174
40
0.25980127848464674
40
0.25980127848464674
40
0.25980127848464674
40
0.32203756358774926
40
0.32203756358774926
40
0.32203756358774926
40
0.35809591419420445
40
0.35809591419420445
40
0.35809591419420445
40
0.39475360156334421
40
0.39475360156334421
40
0.39475360156334421
40
0.39475360156334421
10
-14.364663781120441
20
-26.995487024747611
30
0
10
-14.364853304985559
20
-26.993943863660981
30
0
10
-14.365042828850676
20
-26.992400702577335
30
0
10
-14.365232352715509
20
-26.990857541493689
30
0
10
-14.382851318329699
20
-26.847398552397905
30
0
10
-14.371806912672582
20
-26.701888514020311
30
0
10
-14.332833745166624
20
-26.562653652291743
30
0
10
-14.28533854418788
20
-26.392973121704593
30
0
10
-14.20356069412577
20
-26.259110786732656
30
0
10
-14.133071920003317
20
-26.16644331406011
30
0
10
-14.036507164383352
20
-26.039495272135582
30
0
10
-13.916342699600364
20
-25.932456933983445
30
0
10
-13.779124031667607
20
-25.851150421319034
30
0
10
-13.63848593805244
20
-25.767817787998126
30
0
10
-13.482738387583311
20
-25.713176408747174
30
0
10
-13.320831748299042
20
-25.690249715761801
30
0
10
-13.194001334398138
20
-25.672289970728706
30
0
10
-13.028416976232791
20
-25.668904833194723
30
0
10
-12.84632280119979
20
-25.707605435088396
30
0
10
-12.740823470473686
20
-25.730027281354069
30
0
10
-12.638323884666249
20
-25.764718619247908
30
0
10
-12.540893353032629
20
-25.810978986514819
30
0
10
-12.441843398737831
20
-25.85800826149292
30
0
10
-12.348750406634679
20
-25.916653534202538
30
0
10
-12.263550215203907
20
-25.985672870634708
30
0
0
ARC
5
173
100
AcDbEntity
8
CUTOUTS
100
AcDbCircle
10
-13.264432563256037
20
-26.999999999994415
30
0
40
1.4249999999986644
210
0
220
-0
230
1
100
AcDbArc
50
0.14476975805571454
51
45.38225197180347
0
LINE
5
174
100
AcDbEntity
8
CUTOUTS
100
AcDbLine
10
2.4646982035204701
20
-5.9814693301245292
30
0
11
-2.5353017964795299
21
-5.9559803372307663
31
0
0
ARC
5
175
100
AcDbEntity
8
CUTOUTS
100
AcDbCircle
10
-2.5000000000019895
20
0.96892968262986656
30
0
40
6.925000000000054
210
0
220
-0
230
1
100
AcDbArc
50
89.707920186590428
51
269.7079193328168
0
LINE
5
176
100
AcDbEntity
8
CUTOUTS
100
AcDbLine
10
-2.4646982035244491
20
7.8938397024904994
30
0
11
2.5353017964752667
21
7.8683507095677108
31
0
0
ARC
5
177
100
AcDbEntity
8
CUTOUTS
100
AcDbCircle
10
2.4999999999980105
20
0.94344068972159079
30
0
40
6.9249999999855403
210
0
220
0
230
1
100
AcDbArc
50
-90.292079813410197
51
89.707920186589831
0
LINE
5
178
100
AcDbEntity
8
CUTOUTS
100
AcDbLine
10
-36.693359067550944
20
-194.19139937297064
30
0
11
-34.225186666764955
21
-192.76639937297045
31
0
0
LINE
5
179
100
AcDbEntity
8
CUTOUTS
100
AcDbLine
10
-34.225186666764955
20
-192.76639937297045
30
0
11
-30.800186666764944
21
-198.69867338889395
31
0
0
LINE
5
17A
100
AcDbEntity
8
CUTOUTS
100
AcDbLine
10
-30.800186666764944
20
-198.69867338889395
30
0
11
-33.268359067550932
21
-200.12367338889416
31
0
0
LINE
5
17B
100
AcDbEntity
8
CUTOUTS
100
AcDbLine
10
-33.268359067550932
20
-200.12367338889416
30
0
11
-36.693359067550944
21
-194.19139937297064
31
0
0
LINE
5
17C
100
AcDbEntity
8
CUTOUTS
100
AcDbLine
10
-30.193359067550603
20
-205.44972962216829
30
0
11
-27.725186666765183
21
-204.02472962216837
31
0
0
LINE
5
17D
100
AcDbEntity
8
CUTOUTS
100
AcDbLine
10
-27.725186666765183
20
-204.02472962216837
30
0
11
-24.40018666676508
21
-209.7837985573349
31
0
0
LINE
5
17E
100
AcDbEntity
8
CUTOUTS
100
AcDbLine
10
-24.40018666676508
20
-209.7837985573349
30
0
11
-26.8683590675505
21
-211.20879855733475
31
0
0
LINE
5
17F
100
AcDbEntity
8
CUTOUTS
100
AcDbLine
10
-26.8683590675505
20
-211.20879855733475
30
0
11
-30.193359067550603
21
-205.44972962216829
31
0
0
LINE
5
180
100
AcDbEntity
8
CUTOUTS
100
AcDbLine
10
35.018359067551899
20
-200.12367338889408
30
0
11
32.550186666766194
21
-198.69867338889404
31
0
0
LINE
5
181
100
AcDbEntity
8
CUTOUTS
100
AcDbLine
10
32.550186666766194
20
-198.69867338889404
30
0
11
35.975186666766206
21
-192.76639937297051
31
0
0
LINE
5
182
100
AcDbEntity
8
CUTOUTS
100
AcDbLine
10
35.975186666766206
20
-192.76639937297051
30
0
11
38.44335906755191
21
-194.19139937297058
31
0
0
LINE
5
183
100
AcDbEntity
8
CUTOUTS
100
AcDbLine
10
38.44335906755191
20
-194.19139937297058
30
0
11
35.018359067551899
21
-200.12367338889408
31
0
0
LINE
5
184
100
AcDbEntity
8
CUTOUTS
100
AcDbLine
10
26.100186666766092
20
-209.8704010977134
30
0
11
29.475186666766149
21
-204.02472962216822
31
0
0
LINE
5
185
100
AcDbEntity
8
CUTOUTS
100
AcDbLine
10
29.475186666766149
20
-204.02472962216822
30
0
11
31.943359067551853
21
-205.44972962216829
31
0
0
LINE
5
186
100
AcDbEntity
8
CUTOUTS
100
AcDbLine
10
31.943359067551853
20
-205.44972962216829
30
0
11
28.568359067551796
21
-211.29540109771344
31
0
0
LINE
5
187
100
AcDbEntity
8
CUTOUTS
100
AcDbLine
10
28.568359067551796
20
-211.29540109771344
30
0
11
26.100186666766092
21
-209.8704010977134
31
0
0
SPLINE
5
188
100
AcDbEntity
8
CUTOUTS
100
AcDbSpline
70
0
71
3
72
29
73
25
74
0
42
0.000000001
43
0.0000000001
44
0.0000000001
40
0.00037907553919303867
40
0.00037907553919303867
40
0.00037907553919303867
40
0.00037907553919303867
40
0.058762668658266605
40
0.058762668658266605
40
0.058762668658266605
40
0.1063688597362374
40
0.1063688597362374
40
0.1063688597362374
40
0.1443092225781179
40
0.1443092225781179
40
0.1443092225781179
40
0.18459066575408509
40
0.18459066575408509
40
0.18459066575408509
40
0.22958392575089481
40
0.22958392575089481
40
0.22958392575089481
40
0.25830851951087785
40
0.25830851951087785
40
0.25830851951087785
40
0.28661753102185855
40
0.28661753102185855
40
0.28661753102185855
40
0.28713459509006062
40
0.28713459509006062
40
0.28713459509006062
40
0.28713459509006062
10
-72.309892458226557
20
-197.76151153404999
30
0
10
-72.328061336744156
20
-197.94543025303508
30
0
10
-72.381998735164927
20
-198.12398989612848
30
0
10
-72.468684979669433
20
-198.28726001054991
30
0
10
-72.539473937308117
20
-198.42058821365146
30
0
10
-72.642768248740595
20
-198.56551656553333
30
0
10
-72.797002037604557
20
-198.69178030581512
30
0
10
-72.919931475912847
20
-198.79241668897012
30
0
10
-73.06054256799257
20
-198.86917773923625
30
0
10
-73.211671686143518
20
-198.9180932923625
30
0
10
-73.372126836717086
20
-198.97002737719203
30
0
10
-73.541246484613225
20
-198.98954451963266
30
0
10
-73.709359914217885
20
-198.97560487854545
30
0
10
-73.897279226634112
20
-198.96002297188519
30
0
10
-74.031617367365641
20
-198.90836236403149
30
0
10
-74.141699295390993
20
-198.85092626493059
30
0
10
-74.21124192631396
20
-198.81464185827934
30
0
10
-74.276805219814719
20
-198.77121765574347
30
0
10
-74.337334781545223
20
-198.72134027535952
30
0
10
-74.396988639829829
20
-198.6721844893938
30
0
10
-74.451423133073718
20
-198.61703317767183
30
0
10
-74.499797057937371
20
-198.55674107527921
30
0
10
-74.500739345380964
20
-198.55556663075777
30
0
10
-74.501681632824841
20
-198.55439218623633
30
0
10
-74.502623920269286
20
-198.55321774171412
30
0
0
ARC
5
189
100
AcDbEntity
8
CUTOUTS
100
AcDbCircle
10
-73.734887909445774
20
-197.76511209055445
30
0
40
1.1002404735804439
210
0
220
0
230
1
100
AcDbArc
50
179.76498305456531
51
225.75009415994478
0
SPLINE
5
18A
100
AcDbEntity
8
CUTOUTS
100
AcDbSpline
70
0
71
3
72
29
73
25
74
0
42
0.000000001
43
0.0000000001
44
0.0000000001
40
-0.00046642672416627342
40
-0.00046642672416627342
40
-0.00046642672416627342
40
-0.00046642672416627342
40
0
40
0
40
0
40
0.046339692849382108
40
0.046339692849382108
40
0.046339692849382108
40
0.10281780227207181
40
0.10281780227207181
40
0.10281780227207181
40
0.18034374868249531
40
0.18034374868249531
40
0.18034374868249531
40
0.25980127849757173
40
0.25980127849757173
40
0.25980127849757173
40
0.32203756363569669
40
0.32203756363569669
40
0.32203756363569669
40
0.35809591426808374
40
0.35809591426808374
40
0.35809591426808374
40
0.39475360166154028
40
0.39475360166154028
40
0.39475360166154028
40
0.39475360166154028
10
-74.835119127308474
20
-197.76059911538493
30
0
10
-74.835308651173875
20
-197.75905595429893
30
0
10
-74.835498175039277
20
-197.7575127932123
30
0
10
-74.835687698904678
20
-197.75596963212561
30
0
10
-74.853306664528532
20
-197.61251064303065
30
0
10
-74.842262258880794
20
-197.46700060465113
30
0
10
-74.803289091383647
20
-197.32776574291873
30
0
10
-74.755793890413713
20
-197.15808521231881
30
0
10
-74.674016040354445
20
-197.02422287733808
30
0
10
-74.603527266236256
20
-196.93155540466162
30
0
10
-74.506962510622543
20
-196.80460736273221
30
0
10
-74.386798045844671
20
-196.69756902457405
30
0
10
-74.24957937791703
20
-196.61626251190296
30
0
10
-74.108941284305274
20
-196.53292987857387
30
0
10
-73.953193733837566
20
-196.47828849931432
30
0
10
-73.791287094553297
20
-196.45536180632024
30
0
10
-73.664456680589581
20
-196.43740206127137
30
0
10
-73.49887232242537
20
-196.43401692374925
30
0
10
-73.316778147432728
20
-196.4727175256277
30
0
10
-73.21127881671373
20
-196.49513937188803
30
0
10
-73.108779230910841
20
-196.52983070977515
30
0
10
-73.011348699280632
20
-196.57609107703419
30
0
10
-72.912298744994928
20
-196.62312035200162
30
0
10
-72.81920575289945
20
-196.68176562469779
30
0
10
-72.734005561473509
20
-196.75078496111499
30
0
0
ARC
5
18B
100
AcDbEntity
8
CUTOUTS
100
AcDbCircle
10
-73.734887909445774
20
-197.76511209055445
30
0
40
1.4250000000006291
210
0
220
-0
230
1
100
AcDbArc
50
0.14476976218449653
51
45.382251976341514
0
SPLINE
5
18C
100
AcDbEntity
8
CUTOUTS
100
AcDbSpline
70
0
71
3
72
29
73
25
74
0
42
0.000000001
43
0.0000000001
44
0.0000000001
40
0.00037907553964408992
40
0.00037907553964408992
40
0.00037907553964408992
40
0.00037907553964408992
40
0.058762668657395552
40
0.058762668657395552
40
0.058762668657395552
40
0.10636885973558072
40
0.10636885973558072
40
0.10636885973558072
40
0.14430922257686446
40
0.14430922257686446
40
0.14430922257686446
40
0.18459066575270675
40
0.18459066575270675
40
0.18459066575270675
40
0.22958392574940606
40
0.22958392574940606
40
0.22958392574940606
40
0.25830851950473516
40
0.25830851950473516
40
0.25830851950473516
40
0.28661753101063664
40
0.28661753101063664
40
0.28661753101063664
40
0.28713459507910588
40
0.28713459507910588
40
0.28713459507910588
40
0.28713459507910588
10
74.69010754177333
20
-197.76151153396671
30
0
10
74.671938663268378
20
-197.94543025294854
30
0
10
74.618001264860538
20
-198.12398989604137
30
0
10
74.531315020371665
20
-198.28726001046232
30
0
10
74.460526062744066
20
-198.42058821356719
30
0
10
74.357231751318977
20
-198.56551656546355
30
0
10
74.202997962463684
20
-198.6917803057575
30
0
10
74.080068524164489
20
-198.79241668892047
30
0
10
73.939457432094144
20
-198.8691777391951
30
0
10
73.788328313950444
20
-198.91809329233223
30
0
10
73.627873163382276
20
-198.97002737717403
30
0
10
73.458753515490116
20
-198.98954451962848
30
0
10
73.29064008588432
20
-198.97560487855461
30
0
10
73.10272077346724
20
-198.9600229719093
30
0
10
72.968382632715105
20
-198.90836236406403
30
0
10
72.858300704676111
20
-198.85092626496461
30
0
10
72.788758073754849
20
-198.8146418583197
30
0
10
72.723194780250537
20
-198.77121765578846
30
0
10
72.662665218516906
20
-198.72134027540855
30
0
10
72.603011360230454
20
-198.6721844894478
30
0
10
72.548576866984575
20
-198.61703317772995
30
0
10
72.500202942119927
20
-198.55674107534466
30
0
10
72.499260654675481
20
-198.55556663082243
30
0
10
72.498318367231036
20
-198.55439218630022
30
0
10
72.497376079786733
20
-198.55321774177813
30
0
0
ARC
5
18D
100
AcDbEntity
8
CUTOUTS
100
AcDbCircle
10
73.265112090554538
20
-197.76511209056497
30
0
40
1.1002404735805724
210
0
220
0
230
1
100
AcDbArc
50
179.7649830583477
51
225.75009416398271
0
SPLINE
5
18E
100
AcDbEntity
8
CUTOUTS
100
AcDbSpline
70
0
71
3
72
29
73
25
74
0
42
0.000000001
43
0.0000000001
44
0.0000000001
40
-0.00046642672386473447
40
-0.00046642672386473447
40
-0.00046642672386473447
40
-0.00046642672386473447
40
0
40
0
40
0
40
0.046339692849819078
40
0.046339692849819078
40
0.046339692849819078
40
0.1028178022759559
40
0.1028178022759559
40
0.1028178022759559
40
0.18034374869114483
40
0.18034374869114483
40
0.18034374869114483
40
0.25980127851214252
40
0.25980127851214252
40
0.25980127851214252
40
0.32203756369588321
40
0.32203756369588321
40
0.32203756369588321
40
0.35809591436427052
40
0.35809591436427052
40
0.35809591436427052
40
0.39475360179494962
40
0.39475360179494962
40
0.39475360179494962
40
0.39475360179494962
10
72.164880872691413
20
-197.76059911546807
30
0
10
72.164691348826153
20
-197.75905595438371
30
0
10
72.164501824960894
20
-197.7575127932985
30
0
10
72.164312301095634
20
-197.75596963221335
30
0
10
72.146693335461549
20
-197.61251064311705
30
0
10
72.157737741099055
20
-197.46700060473532
30
0
10
72.196710908586965
20
-197.32776574299888
30
0
10
72.244206109548514
20
-197.1580852123856
30
0
10
72.325983959605367
20
-197.02422287739563
30
0
10
72.396472733719008
20
-196.93155540471562
30
0
10
72.493037489326042
20
-196.80460736278152
30
0
10
72.613201954099083
20
-196.69756902461731
30
0
10
72.750420622021181
20
-196.61626251193925
30
0
10
72.891058715629242
20
-196.53292987860215
30
0
10
73.046806266094677
20
-196.47828849933336
30
0
10
73.20871290537994
20
-196.45536180633033
30
0
10
73.335543319427643
20
-196.43740206126279
30
0
10
73.501127677588585
20
-196.43401692375963
30
0
10
73.683221852521683
20
-196.4727175256188
30
0
10
73.788721183234571
20
-196.49513937187396
30
0
10
73.891220769032628
20
-196.52983070975426
30
0
10
73.988651300658574
20
-196.57609107700512
30
0
10
74.087701254941862
20
-196.62312035196504
30
0
10
74.180794247036346
20
-196.68176562465317
30
0
10
74.265994438462428
20
-196.75078496106113
30
0
0
ARC
5
18F
100
AcDbEntity
8
CUTOUTS
100
AcDbCircle
10
73.265112090554538
20
-197.76511209056497
30
0
40
1.425000000000582
210
0
220
-0
230
1
100
AcDbArc
50
0.14476976595326874
51
45.38225198000211
0
LINE
5
190
100
AcDbEntity
8
CUTOUTS
100
AcDbLine
10
7.6140968520081742
20
13.575000000001385
30
0
11
-7.6140968520076058
21
13.575000000002859
31
0
0
LINE
5
191
100
AcDbEntity
8
CUTOUTS
100
AcDbLine
10
-7.6140968520076058
20
13.575000000002859
30
0
11
-7.6140968520076058
21
16.425000000005046
31
0
0
LINE
5
192
100
AcDbEntity
8
CUTOUTS
100
AcDbLine
10
-7.6140968520076058
20
16.425000000005046
30
0
11
7.6140968520087426
21
16.425000000003571
31
0
0
LINE
5
193
100
AcDbEntity
8
CUTOUTS
100
AcDbLine
10
7.6140968520087426
20
16.425000000003571
30
0
11
7.6140968520081742
21
13.575000000001385
31
0
0
LINE
5
194
100
AcDbEntity
8
CUTOUTS
100
AcDbLine
10
-46.068359067550944
20
8.9652740787908414
30
0
11
-42.693359067550887
21
14.810945554335966
31
0
0
LINE
5
195
100
AcDbEntity
8
CUTOUTS
100
AcDbLine
10
-42.693359067550887
20
14.810945554335966
30
0
11
-40.225186666765467
21
13.38594555434371
31
0
0
LINE
5
196
100
AcDbEntity
8
CUTOUTS
100
AcDbLine
10
-40.225186666765467
20
13.38594555434371
30
0
11
-43.600186666764955
21
7.540274078790663
31
0
0
LINE
5
197
100
AcDbEntity
8
CUTOUTS
100
AcDbLine
10
-43.600186666764955
20
7.540274078790663
30
0
11
-46.068359067550944
21
8.9652740787908414
31
0
0
LINE
5
198
100
AcDbEntity
8
CUTOUTS
100
AcDbLine
10
43.600186666766092
20
7.5402740787907696
30
0
11
40.225186666766035
21
13.385945554335752
31
0
0
LINE
5
199
100
AcDbEntity
8
CUTOUTS
100
AcDbLine
10
40.225186666766035
20
13.385945554335752
30
0
11
42.693359067551739
21
14.810945554335806
31
0
0
LINE
5
19A
100
AcDbEntity
8
CUTOUTS
100
AcDbLine
10
42.693359067551739
20
14.810945554335806
30
0
11
46.068359067551796
21
8.9652740787907881
31
0
0
LINE
5
19B
100
AcDbEntity
8
CUTOUTS
100
AcDbLine
10
46.068359067551796
20
8.9652740787907881
30
0
11
43.600186666766092
21
7.5402740787907696
31
0
0
LINE
5
19C
100
AcDbEntity
8
CUTOUTS
100
AcDbLine
10
52.568359067551853
20
-2.2930561704069241
30
0
11
50.100186666766149
21
-3.7180561704069426
31
0
0
LINE
5
19D
100
AcDbEntity
8
CUTOUTS
100
AcDbLine
10
50.100186666766149
20
-3.7180561704069426
30
0
11
46.675186666766137
21
2.2142178455164974
31
0
0
LINE
5
19E
100
AcDbEntity
8
CUTOUTS
100
AcDbLine
10
46.675186666766137
20
2.2142178455164974
30
0
11
49.143359067551842
21
3.6392178455165514
31
0
0
LINE
5
19F
100
AcDbEntity
8
CUTOUTS
100
AcDbLine
10
49.143359067551842
20
3.6392178455165514
30
0
11
52.568359067551853
21
-2.2930561704069241
31
0
0
LINE
5
1A0
100
AcDbEntity
8
CUTOUTS
100
AcDbLine
10
180.00000000000014
20
178.57500000000002
30
0
11
170.00000000000014
21
178.57500000000002
31
0
0
ARC
5
1A1
100
AcDbEntity
8
CUTOUTS
100
AcDbCircle
10
170.00000000000014
20
188.50000000000006
30
0
40
9.9250000000000327
210
0
220
-0
230
1
100
AcDbArc
50
90
51
270
0
LINE
5
1A2
100
AcDbEntity
8
CUTOUTS
100
AcDbLine
10
170.00000000000014
20
198.42500000000007
30
0
11
180.00000000000014
21
198.42500000000007
31
0
0
ARC
5
1A3
100
AcDbEntity
8
CUTOUTS
100
AcDbCircle
10
180.00000000000014
20
188.50000000000006
30
0
40
9.9250000000000327
210
-0
220
0
230
1
100
AcDbArc
50
-90
51
90
0
ARC
5
1A4
100
AcDbEntity
8
CUTOUTS
100
AcDbCircle
10
2.5
20
-199.5
30
0
40
6.9250000000000256
210
0
220
0
230
1
100
AcDbArc
50
-90
51
90
0
LINE
5
1A5
100
AcDbEntity
8
CUTOUTS
100
AcDbLine
10
-2.5
20
-192.57499999999996
30
0
11
2.5
21
-192.57499999999996
31
0
0
ARC
5
1A6
100
AcDbEntity
8
CUTOUTS
100
AcDbCircle
10
-2.5
20
-199.5
30
0
40
6.9250000000000256
210
0
220
-0
230
1
100
AcDbArc
50
89.999999999999986
51
270
0
LINE
5
1A7
100
AcDbEntity
8
CUTOUTS
100
AcDbLine
10
2.5
20
-206.42500000000001
30
0
11
-2.5
21
-206.42500000000001
31
0
0
SPLINE
5
1A8
100
AcDbEntity
8
CUTOUTS
100
AcDbSpline
70
0
71
3
72
29
73
25
74
0
42
0.000000001
43
0.0000000001
44
0.0000000001
40
0.00036742971455883518
40
0.00036742971455883518
40
0.00036742971455883518
40
0.00036742971455883518
40
0.05467280857634621
40
0.05467280857634621
40
0.05467280857634621
40
0.11250433828815382
40
0.11250433828815382
40
0.11250433828815382
40
0.17726210507360493
40
0.17726210507360493
40
0.17726210507360493
40
0.25533036863488134
40
0.25533036863488134
40
0.25533036863488134
40
0.32909791546049416
40
0.32909791546049416
40
0.32909791546049416
40
0.36624460094829442
40
0.36624460094829442
40
0.36624460094829442
40
0.40090918424500938
40
0.40090918424500938
40
0.40090918424500938
40
0.40156061106018281
40
0.40156061106018281
40
0.40156061106018281
40
0.40156061106018281
10
184.98567287067289
20
97.49911765191311
30
0
10
184.8775989193912
20
97.63252840201497
30
0
10
184.79530869406133
20
97.784860953148694
30
0
10
184.74302986536728
20
97.948405801298136
30
0
10
184.68735626652276
20
98.122570573088296
30
0
10
184.6668160205877
20
98.306004900735957
30
0
10
184.68250595508621
20
98.488214416692315
30
0
10
184.70008682197388
20
98.692383608479844
30
0
10
184.75672670784647
20
98.837043056655006
30
0
10
184.81749212739061
20
98.954078261495397
30
0
10
184.88995509900704
20
99.093643145439287
30
0
10
184.98831897113533
20
99.21808210202903
30
0
10
185.10739263420632
20
99.320788631905856
30
0
10
185.21992727111794
20
99.417854949931382
30
0
10
185.35967332008127
20
99.502915733774628
30
0
10
185.51628556931931
20
99.554310860252059
30
0
10
185.59513716539925
20
99.580187429761764
30
0
10
185.67665503562452
20
99.59703374630827
30
0
10
185.75928785045264
20
99.604503262746405
30
0
10
185.83639912755856
20
99.611473664917838
30
0
10
185.91401941838129
20
99.610236690262596
30
0
10
185.99085754151005
20
99.600799789459586
30
0
10
185.99240070259569
20
99.600610265594426
30
0
10
185.99394386368118
20
99.600420741729252
30
0
10
185.99548702476696
20
99.600231217864064
30
0
0
ARC
5
1A9
100
AcDbEntity
8
CUTOUTS
100
AcDbCircle
10
185.99999999999838
20
98.500000000001108
30
0
40
1.1002404735808999
210
0
220
-0
230
1
100
AcDbArc
50
44.24990584341532
51
90.235016948658398
0
SPLINE
5
1AA
100
AcDbEntity
8
CUTOUTS
100
AcDbSpline
70
0
71
3
72
29
73
25
74
0
42
0.000000001
43
0.0000000001
44
0.0000000001
40
-0.00045171927184965255
40
-0.00045171927184965255
40
-0.00045171927184965255
40
-0.00045171927184965255
40
0
40
0
40
0
40
0.046957026658116192
40
0.046957026658116192
40
0.046957026658116192
40
0.094781098849208212
40
0.094781098849208212
40
0.094781098849208212
40
0.12510254893503397
40
0.12510254893503397
40
0.12510254893503397
40
0.15278625788390207
40
0.15278625788390207
40
0.15278625788390207
40
0.17438649819244514
40
0.17438649819244514
40
0.17438649819244514
40
0.18542955251617788
40
0.18542955251617788
40
0.18542955251617788
40
0.19599571359582868
40
0.19599571359582868
40
0.19599571359582868
40
0.19599571359582868
10
186.78810565111306
20
99.267736010871147
30
0
10
186.78928009563535
20
99.266793723426872
30
0
10
186.79045454015707
20
99.26585143598308
30
0
10
186.79162898467879
20
99.264909148539289
30
0
10
186.90610414601693
20
99.17306274357199
30
0
10
187.00151376728172
20
99.059797107116779
30
0
10
187.07260153153698
20
98.931389501236779
30
0
10
187.14500234192982
20
98.800610107289742
30
0
10
187.19071740497995
20
98.656758563937572
30
0
10
187.20724093834306
20
98.508130308274801
30
0
10
187.21779515837184
20
98.413195691186743
30
0
10
187.22371751083628
20
98.264361743203608
30
0
10
187.18296403344297
20
98.085694653058226
30
0
10
187.14578783494616
20
97.922710691126568
30
0
10
187.07688589465619
20
97.768686271662659
30
0
10
186.98018555402527
20
97.632308491170917
30
0
10
186.90437392815227
20
97.525390343783187
30
0
10
186.7918897413908
20
97.397915010516911
30
0
10
186.60742350851336
20
97.282933811329002
30
0
10
186.51317816759885
20
97.224188955171925
30
0
10
186.41238807049021
20
97.176704623539734
30
0
10
186.30708656954141
20
97.141460612190599
30
0
10
186.20633259621755
20
97.107738641019225
30
0
10
186.10212337220688
20
97.085448767044724
30
0
10
185.9963994416853
20
97.075004548787405
30
0
0
ARC
5
1AB
100
AcDbEntity
8
CUTOUTS
100
AcDbCircle
10
185.99999999999838
20
98.500000000001108
30
0
40
1.4249999999999421
210
0
220
0
230
1
100
AcDbArc
50
224.61774803018878
51
269.85523016509512
0
SPLINE
5
1AC
100
AcDbEntity
8
CUTOUTS
100
AcDbSpline
70
0
71
3
72
29
73
25
74
0
42
0.000000001
43
0.0000000001
44
0.0000000001
40
0.00036742971430244592
40
0.00036742971430244592
40
0.00036742971430244592
40
0.00036742971430244592
40
0.054672808576416446
40
0.054672808576416446
40
0.054672808576416446
40
0.11250433828831213
40
0.11250433828831213
40
0.11250433828831213
40
0.17726210507368631
40
0.17726210507368631
40
0.17726210507368631
40
0.25533036863479308
40
0.25533036863479308
40
0.25533036863479308
40
0.3290979154646605
40
0.3290979154646605
40
0.3290979154646605
40
0.36624460095602568
40
0.36624460095602568
40
0.36624460095602568
40
0.40090918425596811
40
0.40090918425596811
40
0.40090918425596811
40
0.40156061107115998
40
0.40156061107115998
40
0.40156061107115998
40
0.40156061107115998
10
184.98567287067573
20
-102.50088234808956
30
0
10
184.87759891939305
20
-102.36747159798703
30
0
10
184.79530869406261
20
-102.21513904685288
30
0
10
184.74302986536841
20
-102.05159419870292
30
0
10
184.68735626652375
20
-101.8774294269129
30
0
10
184.66681602058841
20
-101.69399509926546
30
0
10
184.68250595508664
20
-101.51178558330898
30
0
10
184.70008682197417
20
-101.30761639152195
30
0
10
184.75672670784661
20
-101.16295694334622
30
0
10
184.81749212739075
20
-101.04592173850534
30
0
10
184.88995509900732
20
-100.906356854561
30
0
10
184.98831897113547
20
-100.7819178979716
30
0
10
185.10739263420632
20
-100.67921136809485
30
0
10
185.21992727112433
20
-100.58214505006359
30
0
10
185.35967332008894
20
-100.49708426622334
30
0
10
185.51628556931931
20
-100.44568913974825
30
0
10
185.59513716539854
20
-100.41981257023875
30
0
10
185.67665503562409
20
-100.40296625369187
30
0
10
185.75928785045249
20
-100.39549673725364
30
0
10
185.83639912755842
20
-100.38852633508216
30
0
10
185.91401941838086
20
-100.38976330973739
30
0
10
185.99085754150948
20
-100.3992002105403
30
0
10
185.99240070259512
20
-100.39938973440545
30
0
10
185.99394386368076
20
-100.39957925827061
30
0
10
185.99548702476596
20
-100.39976878213577
30
0
0
ARC
5
1AD
100
AcDbEntity
8
CUTOUTS
100
AcDbCircle
10
185.99999999999895
20
-101.49999999999866
30
0
40
1.1002404735815208
210
0
220
-0
230
1
100
AcDbArc
50
44.249905843193851
51
90.235016948739656
0
SPLINE
5
1AE
100
AcDbEntity
8
CUTOUTS
100
AcDbSpline
70
0
71
3
72
29
73
25
74
0
42
0.000000001
43
0.0000000001
44
0.0000000001
40
-0.00045171927161195748
40
-0.00045171927161195748
40
-0.00045171927161195748
40
-0.00045171927161195748
40
0
40
0
40
0
40
0.046957026658029824
40
0.046957026658029824
40
0.046957026658029824
40
0.094781098848867207
40
0.094781098848867207
40
0.094781098848867207
40
0.12510254893463324
40
0.12510254893463324
40
0.12510254893463324
40
0.15278625788343067
40
0.15278625788343067
40
0.15278625788343067
40
0.1743864981919204
40
0.1743864981919204
40
0.1743864981919204
40
0.18542955251565924
40
0.18542955251565924
40
0.18542955251565924
40
0.19599571359530055
40
0.19599571359530055
40
0.19599571359530055
40
0.19599571359530055
10
186.78810565111704
20
-100.73226398913124
30
0
10
186.78928009563663
20
-100.73320627657353
30
0
10
186.79045454015792
20
-100.73414856401698
30
0
10
186.79162898467922
20
-100.73509085146043
30
0
10
186.9061041460165
20
-100.82693725642699
30
0
10
187.00151376728144
20
-100.94020289288167
30
0
10
187.07260153153698
20
-101.06861049876204
30
0
10
187.14500234193011
20
-101.19938989270899
30
0
10
187.19071740498038
20
-101.34324143606119
30
0
10
187.20724093834349
20
-101.49186969172383
30
0
10
187.21779515837255
20
-101.58680430881208
30
0
10
187.22371751083685
20
-101.73563825679565
30
0
10
187.18296403344368
20
-101.91430534694075
30
0
10
187.1457878349473
20
-102.07728930887217
30
0
10
187.07688589465789
20
-102.23131372833585
30
0
10
186.98018555402669
20
-102.36769150882819
30
0
10
186.90437392815326
20
-102.47460965621639
30
0
10
186.79188974139194
20
-102.60208498948259
30
0
10
186.60742350851507
20
-102.71706618867036
30
0
10
186.51317816760042
20
-102.77581104482761
30
0
10
186.41238807049206
20
-102.82329537645981
30
0
10
186.30708656954326
20
-102.85853938780903
30
0
10
186.2063325962194
20
-102.89226135898048
30
0
10
186.10212337220958
20
-102.91455123295492
30
0
10
185.99639944168771
20
-102.92499545121245
30
0
0
ARC
5
1AF
100
AcDbEntity
8
CUTOUTS
100
AcDbCircle
10
185.99999999999895
20
-101.49999999999866
30
0
40
1.4250000000000305
210
0
220
0
230
1
100
AcDbArc
50
224.6177480303395
51
269.85523016516942
0
SPLINE
5
1B0
100
AcDbEntity
8
CUTOUTS
100
AcDbSpline
70
0
71
3
72
29
73
25
74
0
42
0.000000001
43
0.0000000001
44
0.0000000001
40
0.00037907553968562463
40
0.00037907553968562463
40
0.00037907553968562463
40
0.00037907553968562463
40
0.058762668659670052
40
0.058762668659670052
40
0.058762668659670052
40
0.10636885973836799
40
0.10636885973836799
40
0.10636885973836799
40
0.14430922258207035
40
0.14430922258207035
40
0.14430922258207035
40
0.18459066575959776
40
0.18459066575959776
40
0.18459066575959776
40
0.22958392575807601
40
0.22958392575807601
40
0.22958392575807601
40
0.25830851952193834
40
0.25830851952193834
40
0.25830851952193834
40
0.28661753103751064
40
0.28661753103751064
40
0.28661753103751064
40
0.28713459510521722
40
0.28713459510521722
40
0.28713459510521722
40
0.28713459510521722
10
-185.99639944358756
20
-102.92499545121743
30
0
10
-186.18031816257428
20
-102.90682657268789
30
0
10
-186.35887780566691
20
-102.85288917425369
30
0
10
-186.52214792008238
20
-102.76620292973828
30
0
10
-186.6554761231788
20
-102.69541397209082
30
0
10
-186.80040447505064
20
-102.5921196606507
30
0
10
-186.92666821532072
20
-102.43788587178034
30
0
10
-187.02730459846975
20
-102.31495643346271
30
0
10
-187.10406564872756
20
-102.17434534137564
30
0
10
-187.152981201844
20
-102.02321622321872
30
0
10
-187.20491528666258
20
-101.86276107264024
30
0
10
-187.22443242909122
20
-101.69364142474183
30
0
10
-187.21049278799228
20
-101.52552799513707
30
0
10
-187.19491088131889
20
-101.33760868272151
30
0
10
-187.1432502734578
20
-101.20327054200828
30
0
10
-187.08581417435596
20
-101.09318861399551
30
0
10
-187.04952976770102
20
-101.02364598307477
30
0
10
-187.0061055651604
20
-100.95808268957396
30
0
10
-186.95622818477176
20
-100.89755312784433
30
0
10
-186.90707239880027
20
-100.83789926955959
30
0
10
-186.85192108707071
20
-100.78346477631644
30
0
10
-186.79162898467666
20
-100.73509085145747
30
0
10
-186.79045454015636
20
-100.73414856401482
30
0
10
-186.78928009563606
20
-100.73320627657213
30
0
10
-186.78810565111576
20
-100.73226398912968
30
0
0
ARC
5
1B1
100
AcDbEntity
8
CUTOUTS
100
AcDbCircle
10
-185.99999999999937
20
-101.49999999999913
30
0
40
1.1002404735805547
210
0
220
-0
230
1
100
AcDbArc
50
89.764983051356339
51
135.75009415667756
0
SPLINE
5
1B2
100
AcDbEntity
8
CUTOUTS
100
AcDbSpline
70
0
71
3
72
29
73
25
74
0
42
0.000000001
43
0.0000000001
44
0.0000000001
40
-0.00046642672441997435
40
-0.00046642672441997435
40
-0.00046642672441997435
40
-0.00046642672441997435
40
0
40
0
40
0
40
0.046339692848986723
40
0.046339692848986723
40
0.046339692848986723
40
0.10281780226882491
40
0.10281780226882491
40
0.10281780226882491
40
0.1803437486764721
40
0.1803437486764721
40
0.1803437486764721
40
0.25980127848742485
40
0.25980127848742485
40
0.25980127848742485
40
0.32203756361198743
40
0.32203756361198743
40
0.32203756361198743
40
0.35809591423652309
40
0.35809591423652309
40
0.35809591423652309
40
0.39475360162287121
40
0.39475360162287121
40
0.39475360162287121
40
0.39475360162287121
10
-185.99548702476824
20
-100.39976878213658
30
0
10
-185.99394386368033
20
-100.3995792582711
30
0
10
-185.99240070259327
20
-100.39938973440573
30
0
10
-185.99085754150622
20
-100.39920021054041
30
0
10
-185.84739855241025
20
-100.38158124492514
30
0
10
-185.70188851403259
20
-100.3926256505811
30
0
10
-185.56265365230303
20
-100.43159881808613
30
0
10
-185.3929731217147
20
-100.47909401906426
30
0
10
-185.25911078674142
20
-100.5608718691262
30
0
10
-185.16644331406951
20
-100.63136064324759
30
0
10
-185.03949527214445
20
-100.7279253988668
30
0
10
-184.93245693399132
20
-100.84808986364988
30
0
10
-184.85115042132634
20
-100.98530853158167
30
0
10
-184.767817788005
20
-101.12594662519577
30
0
10
-184.7131764087527
20
-101.2816941756634
30
0
10
-184.69024971576602
20
-101.44360081494888
30
0
10
-184.67228997072596
20
-101.57043122889218
30
0
10
-184.66890483320526
20
-101.73601558705343
30
0
10
-184.70760543509073
20
-101.91810976205097
30
0
10
-184.73002728135526
20
-102.02360909277286
30
0
10
-184.76471861924807
20
-102.12610867858224
30
0
10
-184.81097898651456
20
-102.2235392102165
30
0
10
-184.85800826149074
20
-102.32258916450917
30
0
10
-184.91665353419847
20
-102.41568215660973
30
0
10
-184.98567287062656
20
-102.50088234803829
30
0
0
ARC
5
1B3
100
AcDbEntity
8
CUTOUTS
100
AcDbCircle
10
-185.99999999999937
20
-101.49999999999913
30
0
40
1.42499999999972
210
-0
220
0
230
1
100
AcDbArc
50
270.14476975845918
51
315.38225197254417
0
SPLINE
5
1B4
100
AcDbEntity
8
CUTOUTS
100
AcDbSpline
70
0
71
3
72
29
73
25
74
0
42
0.000000001
43
0.0000000001
44
0.0000000001
40
0.00037907553967675807
40
0.00037907553967675807
40
0.00037907553967675807
40
0.00037907553967675807
40
0.058762668659683916
40
0.058762668659683916
40
0.058762668659683916
40
0.10636885973864112
40
0.10636885973864112
40
0.10636885973864112
40
0.14430922258232071
40
0.14430922258232071
40
0.14430922258232071
40
0.18459066575964797
40
0.18459066575964797
40
0.18459066575964797
40
0.22958392575775613
40
0.22958392575775613
40
0.22958392575775613
40
0.25830851952147937
40
0.25830851952147937
40
0.25830851952147937
40
0.2866175310367286
40
0.2866175310367286
40
0.2866175310367286
40
0.28713459510472455
40
0.28713459510472455
40
0.28713459510472455
40
0.28713459510472455
10
-185.99639944358273
20
97.075004548782573
30
0
10
-186.18031816256945
20
97.093173427311569
30
0
10
-186.35887780566264
20
97.147110825745528
30
0
10
-186.52214792007783
20
97.233797070260295
30
0
10
-186.65547612317511
20
97.304586027907547
30
0
10
-186.80040447504666
20
97.407880339347031
30
0
10
-186.92666821531731
20
97.562114128217274
30
0
10
-187.02730459846606
20
97.685043566534006
30
0
10
-187.10406564872443
20
97.825654658620977
30
0
10
-187.15298120184144
20
97.976783776777836
30
0
10
-187.20491528666031
20
98.137238927355696
30
0
10
-187.2244324290898
20
98.306358575253341
30
0
10
-187.21049278799114
20
98.474472004859024
30
0
10
-187.19491088131861
20
98.662391317275024
30
0
10
-187.14325027345723
20
98.796729457988874
30
0
10
-187.08581417435568
20
98.90681138600209
30
0
10
-187.04952976770073
20
98.976354016923267
30
0
10
-187.0061055651604
20
99.04191731042377
30
0
10
-186.95622818477204
20
99.10244687215328
30
0
10
-186.90707239880084
20
99.162100730437786
30
0
10
-186.85192108707298
20
99.216535223680495
30
0
10
-186.7916289846778
20
99.264909148540255
30
0
10
-186.79045454015665
20
99.265851435983521
30
0
10
-186.78928009563549
20
99.266793723426787
30
0
10
-186.7881056511149
20
99.267736010869953
30
0
0
ARC
5
1B5
100
AcDbEntity
8
CUTOUTS
100
AcDbCircle
10
-185.99999999999852
20
98.500000000001378
30
0
40
1.1002404735800146
210
0
220
-0
230
1
100
AcDbArc
50
89.764983051445029
51
135.75009415671192
0
SPLINE
5
1B6
100
AcDbEntity
8
CUTOUTS
100
AcDbSpline
70
0
71
3
72
29
73
25
74
0
42
0.000000001
43
0.0000000001
44
0.0000000001
40
-0.0004664267243800627
40
-0.0004664267243800627
40
-0.0004664267243800627
40
-0.0004664267243800627
40
0
40
0
40
0
40
0.046339692848972699
40
0.046339692848972699
40
0.046339692848972699
40
0.1028178022681929
40
0.1028178022681929
40
0.1028178022681929
40
0.18034374867321412
40
0.18034374867321412
40
0.18034374867321412
40
0.25980127848231138
40
0.25980127848231138
40
0.25980127848231138
40
0.32203756360509334
40
0.32203756360509334
40
0.32203756360509334
40
0.35809591422957299
40
0.35809591422957299
40
0.35809591422957299
40
0.39475360161652345
40
0.39475360161652345
40
0.39475360161652345
40
0.39475360161652345
10
-185.99548702476909
20
99.60023121786341
30
0
10
-185.99394386368203
20
99.600420741728826
30
0
10
-185.99240070259526
20
99.600610265594156
30
0
10
-185.99085754150821
20
99.600799789459487
30
0
10
-185.84739855241253
20
99.61841875507514
30
0
10
-185.70188851403486
20
99.607374349419686
30
0
10
-185.5626536523053
20
99.568401181914879
30
0
10
-185.39297312171755
20
99.520905980937584
30
0
10
-185.25911078674483
20
99.439128130877137
30
0
10
-185.16644331407008
20
99.368639356754016
30
0
10
-185.03949527214417
20
99.27207460113479
30
0
10
-184.93245693399103
20
99.151910136350921
30
0
10
-184.85115042132662
20
99.014691468420637
30
0
10
-184.767817788005
20
98.874053374806579
30
0
10
-184.71317640875213
20
98.718305824338898
30
0
10
-184.69024971576545
20
98.556399185053493
30
0
10
-184.6722899707251
20
98.429568771110709
30
0
10
-184.66890483320412
20
98.263984412949299
30
0
10
-184.70760543508931
20
98.081890237950745
30
0
10
-184.73002728135413
20
97.976390907225536
30
0
10
-184.76471861924722
20
97.873891321418682
30
0
10
-184.81097898651313
20
97.776460789785844
30
0
10
-184.85800826148932
20
97.677410835492566
30
0
10
-184.91665353419506
20
97.584317843391545
30
0
10
-184.9856728706277
20
97.499117651958358
30
0
0
ARC
5
1B7
100
AcDbEntity
8
CUTOUTS
100
AcDbCircle
10
-185.99999999999852
20
98.500000000001378
30
0
40
1.4250000000002629
210
-0
220
0
230
1
100
AcDbArc
50
270.14476975861908
51
315.38225197237841
0
LINE
5
1B8
100
AcDbEntity
8
CUTOUTS
100
AcDbLine
10
-52.568359067550716
20
-2.2930561704069774
30
0
11
-49.143359067550705
21
3.6392178455164981
31
0
0
LINE
5
1B9
100
AcDbEntity
8
CUTOUTS
100
AcDbLine
10
-49.143359067550705
20
3.6392178455164981
30
0
11
-46.675186666765285
21
2.2142178455165507
31
0
0
LINE
5
1BA
100
AcDbEntity
8
CUTOUTS
100
AcDbLine
10
-46.675186666765285
20
2.2142178455165507
30
0
11
-50.100186666765296
21
-3.7180561704069248
31
0
0
LINE
5
1BB
100
AcDbEntity
8
CUTOUTS
100
AcDbLine
10
-50.100186666765296
20
-3.7180561704069248
30
0
11
-52.568359067550716
21
-2.2930561704069774
31
0
0
LINE
5
1BC
100
AcDbEntity
8
PERIMETER
100
AcDbLine
10
200.07500000000007
20
208.57500000000005
30
0
11
75.075000000000074
21
208.57500000000005
31
0
0
LINE
5
1BD
100
AcDbEntity
8
PERIMETER
100
AcDbLine
10
75.075000000000074
20
208.57500000000005
30
0
11
75.075000000000074
21
211.57500000000005
31
0
0
LINE
5
1BE
100
AcDbEntity
8
PERIMETER
100
AcDbLine
10
75.075000000000074
20
211.57500000000005
30
0
11
-75.07499999999979
21
211.5750000000001
31
0
0
LINE
5
1BF
100
AcDbEntity
8
PERIMETER
100
AcDbLine
10
-75.074999999999648
20
211.57500000000005
30
0
11
-75.074999999999648
21
208.57500000000005
31
0
0
LINE
5
1C0
100
AcDbEntity
8
PERIMETER
100
AcDbLine
10
-75.074999999999648
20
208.57500000000005
30
0
11
-200.07499999999965
21
208.5750000000001
31
0
0
LINE
5
1C1
100
AcDbEntity
8
PERIMETER
100
AcDbLine
10
-200.07499999999965
20
208.5750000000001
30
0
11
-200.07499999999993
21
-211.57500000000013
31
0
0
LINE
5
1C2
100
AcDbEntity
8
PERIMETER
100
AcDbLine
10
-200.07499999999993
20
-211.5750000000001
30
0
11
200.07500000000022
21
-211.57499999999996
31
0
0
LINE
5
1C3
100
AcDbEntity
8
PERIMETER
100
AcDbLine
10
200.07500000000007
20
-211.57500000000002
30
0
11
200.07500000000007
21
208.57500000000005
31
0
0
ENDSEC
0
SECTION
2
OBJECTS
0
DICTIONARY
5
C
100
AcDbDictionary
3
ACAD_GROUP
350
D
3
ACAD_MLINESTYLE
350
17
0
DICTIONARY
5
D
100
AcDbDictionary
0
DICTIONARY
5
1A
330
C
100
AcDbDictionary
0
DICTIONARY
5
17
100
AcDbDictionary
0
ENDSEC
0
EOF
