0
SECTION
2
HEADER
9
$INSUNITS
70
4
9
$ACADVER
1
AC1014
9
$HANDSEED
5
FFFF
0
ENDSEC
0
SECTION
2
TABLES
0
TABLE
2
VPORT
5
8
100
AcDbSymbolTable
0
ENDTAB
0
TABLE
2
LTYPE
5
5
100
AcDbSymbolTable
70
2
0
LTYPE
5
14
100
AcDbSymbolTableRecord
100
AcDbLinetypeTableRecord
2
BYBLOCK
70
0
0
LTYPE
5
15
100
AcDbSymbolTableRecord
100
AcDbLinetypeTableRecord
2
BYLAYER
70
0
0
ENDTAB
0
TABLE
2
LAYER
5
2
100
AcDbSymbolTable
70
3
0
LAYER
5
50
100
AcDbSymbolTableRecord
100
AcDbLayerTableRecord
2
0
70
0
6
CONTINUOUS
0
LAYER
5
51
100
AcDbSymbolTableRecord
100
AcDbLayerTableRecord
2
CUTOUTS
70
0
62
1
6
CONTINUOUS
0
LAYER
5
52
100
AcDbSymbolTableRecord
100
AcDbLayerTableRecord
2
PERIMETER
70
0
62
5
6
CONTINUOUS
0
ENDTAB
0
TABLE
2
STYLE
5
3
100
AcDbSymbolTable
70
1
0
STYLE
5
11
100
AcDbSymbolTableRecord
100
AcDbTextStyleTableRecord
2
STANDARD
70
0
0
ENDTAB
0
TABLE
2
VIEW
5
6
100
AcDbSymbolTable
0
ENDTAB
0
TABLE
2
UCS
5
7
100
AcDbSymbolTable
0
ENDTAB
0
TABLE
2
APPID
5
9
100
AcDbSymbolTable
70
1
0
APPID
5
12
100
AcDbSymbolTableRecord
100
AcDbRegAppTableRecord
2
ACAD
70
0
0
ENDTAB
0
TABLE
2
DIMSTYLE
5
A
100
AcDbSymbolTable
0
ENDTAB
0
TABLE
2
BLOCK_RECORD
5
1
100
AcDbSymbolTable
70
2
0
BLOCK_RECORD
5
1F
100
AcDbSymbolTableRecord
100
AcDbBlockTableRecord
2
*MODEL_SPACE
0
BLOCK_RECORD
5
1B
100
AcDbSymbolTableRecord
100
AcDbBlockTableRecord
2
*PAPER_SPACE
0
ENDTAB
0
ENDSEC
0
SECTION
2
BLOCKS
0
BLOCK
5
20
100
AcDbEntity
100
AcDbBlockBegin
2
*MODEL_SPACE
0
ENDBLK
5
21
100
AcDbEntity
100
AcDbBlockEnd
0
BLOCK
5
1C
100
AcDbEntity
100
AcDbBlockBegin
2
*PAPER_SPACE
0
ENDBLK
5
1D
100
AcDbEntity
100
AcDbBlockEnd
0
ENDSEC
0
SECTION
2
ENTITIES
0
CIRCLE
5
100
100
AcDbEntity
8
CUTOUTS
100
AcDbCircle
10
173.69882190431312
20
-251.93371943194833
30
-7.1054273576010019e-14
40
5.9249999999999403
210
0
220
0
230
1
0
CIRCLE
5
101
100
AcDbEntity
8
CUTOUTS
100
AcDbCircle
10
173.69882190431312
20
-262.93371943194836
30
-7.1054273576010019e-14
40
0.92499999999994031
210
0
220
0
230
1
0
CIRCLE
5
102
100
AcDbEntity
8
CUTOUTS
100
AcDbCircle
10
148.69882190431312
20
-254.99999999999997
30
-7.1054273576010019e-14
40
9.4250000000000256
210
0
220
0
230
1
0
LINE
5
103
100
AcDbEntity
8
CUTOUTS
100
AcDbLine
10
0.42500000000046612
20
242.89971924404762
30
0
11
0.42500000000046612
21
-221.9250000000001
31
0
0
LINE
5
104
100
AcDbEntity
8
CUTOUTS
100
AcDbLine
10
0.42500000000046612
20
-221.9250000000001
30
0
11
-0.42499999999989768
21
-221.9250000000001
31
0
0
LINE
5
105
100
AcDbEntity
8
CUTOUTS
100
AcDbLine
10
-0.42499999999989768
20
-221.92500000000007
30
0
11
-0.42499999999989768
21
242.89971924404765
31
0
0
LINE
5
106
100
AcDbEntity
8
CUTOUTS
100
AcDbLine
10
-0.42499999999989768
20
242.89971924404762
30
0
11
0.42500000000046612
21
242.89971924404762
31
0
0
SPLINE
5
107
100
AcDbEntity
8
CUTOUTS
100
AcDbSpline
70
0
71
3
72
29
73
25
74
0
42
0.000000001
43
0.0000000001
44
0.0000000001
40
0.00037306921234599085
40
0.00037306921234599085
40
0.00037306921234599085
40
0.00037306921234599085
40
0.05573034852276447
40
0.05573034852276447
40
0.05573034852276447
40
0.1172437788573279
40
0.1172437788573279
40
0.1172437788573279
40
0.17427784303656607
40
0.17427784303656607
40
0.17427784303656607
40
0.23474421880271445
40
0.23474421880271445
40
0.23474421880271445
40
0.28059279200747544
40
0.28059279200747544
40
0.28059279200747544
40
0.30191899765905844
40
0.30191899765905844
40
0.30191899765905844
40
0.32199957417865194
40
0.32199957417865194
40
0.32199957417865194
40
0.32235418858378662
40
0.32235418858378662
40
0.32235418858378662
40
0.32235418858378662
10
-75.135614092344554
20
-238.26189914192349
30
0
10
-75.150558783050485
20
-238.08746113719053
30
0
10
-75.132488465377207
20
-237.91179823244727
30
0
10
-75.082304772024884
20
-237.7440532590708
30
0
10
-75.026540231924059
20
-237.55765364059511
30
0
10
-74.93533713935534
20
-237.39575253826163
30
0
10
-74.832458001773148
20
-237.2698511922782
30
0
10
-74.737070701680466
20
-237.15311820098722
30
0
10
-74.621417807613284
20
-237.05459133782742
30
0
10
-74.490997704526762
20
-236.97906575064607
30
0
10
-74.35272934246143
20
-236.89899527848397
30
0
10
-74.2004111951033
20
-236.84625373646597
30
0
10
-74.042232892591073
20
-236.82368752721189
30
0
10
-73.922062064903855
20
-236.80654358268379
30
0
10
-73.755645040637887
20
-236.80019647746582
30
0
10
-73.573819019169377
20
-236.84733944292213
30
0
10
-73.489251629077899
20
-236.86926566402968
30
0
10
-73.407593854390427
20
-236.90112397729774
30
0
10
-73.330551936882671
20
-236.94227729473155
30
0
10
-73.258010003413574
20
-236.98102686524962
30
0
10
-73.190041860764552
20
-237.02776024165732
30
0
10
-73.127905464418745
20
-237.08162646780934
30
0
10
-73.12673344153751
20
-237.08264249791867
30
0
10
-73.125561418656275
20
-237.08365852802797
30
0
10
-73.124389395775893
20
-237.08467455813658
30
0
0
ARC
5
108
100
AcDbEntity
8
CUTOUTS
100
AcDbCircle
10
-73.734887909445206
20
-237.99999999999386
30
0
40
1.1002404735800007
210
-2.3833983273039359e-32
220
-6.7418997085060314e-33
230
1
100
AcDbArc
50
10.216968976789012
51
56.297732922130066
0
SPLINE
5
109
100
AcDbEntity
8
CUTOUTS
100
AcDbSpline
70
0
71
3
72
29
73
25
74
0
42
0.000000001
43
0.0000000001
44
0.0000000001
40
-0.00045874846766936995
40
-0.00045874846766936995
40
-0.00045874846766936995
40
-0.00045874846766936995
40
0
40
0
40
0
40
0.047210927132538397
40
0.047210927132538397
40
0.047210927132538397
40
0.070388050233176375
40
0.070388050233176375
40
0.070388050233176375
40
0.12810747429229102
40
0.12810747429229102
40
0.12810747429229102
40
0.20832291131011557
40
0.20832291131011557
40
0.20832291131011557
40
0.29042300122821191
40
0.29042300122821191
40
0.29042300122821191
40
0.34282719227328973
40
0.34282719227328973
40
0.34282719227328973
40
0.38269059458850851
40
0.38269059458850851
40
0.38269059458850851
40
0.38269059458850851
10
-72.652093818577157
20
-237.80484350769916
30
0
10
-72.651638195465296
20
-237.80630321405735
30
0
10
-72.65118257235315
20
-237.8077629204162
30
0
10
-72.650726949241005
20
-237.80922262677512
30
0
10
-72.606785898666146
20
-237.94999913529833
30
0
10
-72.591150277139036
20
-238.09803363079232
30
0
10
-72.604658827015385
20
-238.24490798448841
30
0
10
-72.611290544927556
20
-238.31701263607238
30
0
10
-72.624897971936093
20
-238.38830668734198
30
0
10
-72.645276985036844
20
-238.45780222372238
30
0
10
-72.696036574169227
20
-238.6309001483248
30
0
10
-72.78109125936794
20
-238.76643136124952
30
0
10
-72.853200094605199
20
-238.85928686264421
30
0
10
-72.953223992946619
20
-238.98808896021492
30
0
10
-73.07720157915611
20
-239.09627130112722
30
0
10
-73.218359108863922
20
-239.17793393887314
30
0
10
-73.362833691849403
20
-239.26151556259711
30
0
10
-73.522426025714083
20
-239.31565212333101
30
0
10
-73.687967573495143
20
-239.33734927309715
30
0
10
-73.793697990839178
20
-239.35120711561888
30
0
10
-73.951205124028547
20
-239.358395166186
30
0
10
-74.134494344130246
20
-239.3227446617021
30
0
10
-74.273905417497588
20
-239.29562863658387
30
0
10
-74.408383383819512
20
-239.24758890044802
30
0
10
-74.533410754107763
20
-239.18024839188115
30
0
0
ARC
5
10A
100
AcDbEntity
8
CUTOUTS
100
AcDbCircle
10
-73.734887909445206
20
-237.99999999999386
30
0
40
1.4250000000011265
210
2.4028446834443416e-32
220
5.6192913019816208e-33
230
1
100
AcDbArc
50
190.59052916166078
51
235.91882428975842
0
SPLINE
5
10B
100
AcDbEntity
8
CUTOUTS
100
AcDbSpline
70
0
71
3
72
29
73
25
74
0
42
0.000000001
43
0.0000000001
44
0.0000000001
40
0.00037306921203258042
40
0.00037306921203258042
40
0.00037306921203258042
40
0.00037306921203258042
40
0.055730348520877306
40
0.055730348520877306
40
0.055730348520877306
40
0.11724377889066756
40
0.11724377889066756
40
0.11724377889066756
40
0.17427784313906164
40
0.17427784313906164
40
0.17427784313906164
40
0.23474421897765974
40
0.23474421897765974
40
0.23474421897765974
40
0.28059279223809014
40
0.28059279223809014
40
0.28059279223809014
40
0.30191899791620236
40
0.30191899791620236
40
0.30191899791620236
40
0.32199957445920158
40
0.32199957445920158
40
0.32199957445920158
40
0.32235418886455258
40
0.32235418886455258
40
0.32235418886455258
40
0.32235418886455258
10
71.864385907690007
20
-238.26189914210229
30
0
10
71.84944121696077
20
-238.08746113737647
30
0
10
71.867511534609747
20
-237.91179823263695
30
0
10
71.917695227936491
20
-237.74405325925909
30
0
10
71.973459768042432
20
-237.55765364066977
30
0
10
72.064662860633604
20
-237.39575253833561
30
0
10
72.167541998127263
20
-237.26985119242363
30
0
10
72.26292929819877
20
-237.15311820112422
30
0
10
72.378582192247762
20
-237.05459133794915
30
0
10
72.509002295319505
20
-236.97906575075024
30
0
10
72.647270657367216
20
-236.89899527857045
30
0
10
72.799588804710282
20
-236.84625373653131
30
0
10
72.957767107211708
20
-236.82368752725267
30
0
10
73.07793793489239
20
-236.80654358270567
30
0
10
73.244354959165179
20
-236.80019647745979
30
0
10
73.426180980650173
20
-236.84733944288863
30
0
10
73.510748370751742
20
-236.86926566398398
30
0
10
73.592406145451434
20
-236.90112397724226
30
0
10
73.669448062971696
20
-236.94227729466888
30
0
10
73.741989996446904
20
-236.98102686517706
30
0
10
73.809958139108147
20
-237.02776024157879
30
0
10
73.872094535465038
20
-237.08162646772672
30
0
10
73.873266558345847
20
-237.08264249783542
30
0
10
73.874438581226656
20
-237.08365852794412
30
0
10
73.875610604107038
20
-237.08467455805263
30
0
0
ARC
5
10C
100
AcDbEntity
8
CUTOUTS
100
AcDbCircle
10
73.265112090553828
20
-237.99999999998897
30
0
40
1.1002404735806397
210
3.5869487511027032e-34
220
-1.9901602366901284e-33
230
1
100
AcDbArc
50
10.216968984442518
51
56.297732929432051
0
SPLINE
5
10D
100
AcDbEntity
8
CUTOUTS
100
AcDbSpline
70
0
71
3
72
29
73
25
74
0
42
0.000000001
43
0.0000000001
44
0.0000000001
40
-0.00045874846773947056
40
-0.00045874846773947056
40
-0.00045874846773947056
40
-0.00045874846773947056
40
0
40
0
40
0
40
0.047210927132649627
40
0.047210927132649627
40
0.047210927132649627
40
0.070388050232228438
40
0.070388050232228438
40
0.070388050232228438
40
0.12810747428774705
40
0.12810747428774705
40
0.12810747428774705
40
0.20832291128178365
40
0.20832291128178365
40
0.20832291128178365
40
0.29042300117697095
40
0.29042300117697095
40
0.29042300117697095
40
0.3428271923440448
40
0.3428271923440448
40
0.3428271923440448
40
0.38269059480156109
40
0.38269059480156109
40
0.38269059480156109
40
0.38269059480156109
10
74.347906181396439
20
-237.80484350754949
30
0
10
74.348361804509011
20
-237.80630321390876
30
0
10
74.348817427621441
20
-237.80776292026758
30
0
10
74.349273050733871
20
-237.80922262662645
30
0
10
74.393214101326919
20
-237.94999913514476
30
0
10
74.408849722872787
20
-238.09803363063742
30
0
10
74.395341173016618
20
-238.24490798433254
30
0
10
74.388709455114679
20
-238.31701263591324
30
0
10
74.375102028118505
20
-238.38830668717935
30
0
10
74.354723015027133
20
-238.45780222356467
30
0
10
74.303963425919477
20
-238.6309001481759
30
0
10
74.218908740735685
20
-238.76643136111971
30
0
10
74.146799905492031
20
-238.85928686254306
30
0
10
74.046776007165249
20
-238.98808896012326
30
0
10
73.922798420969116
20
-239.09627130104849
30
0
10
73.78164089127111
20
-239.1779339388107
30
0
10
73.637166308293018
20
-239.26151556255263
30
0
10
73.477573974430896
20
-239.31565212330548
30
0
10
73.312032426651115
20
-239.33734927309075
30
0
10
73.206302009034516
20
-239.35120711566049
30
0
10
73.048794875897443
20
-239.35839516616298
30
0
10
72.86550565602397
20
-239.32274466174516
30
0
10
72.726094582656913
20
-239.29562863664336
30
0
10
72.591616616331436
20
-239.24758890052453
30
0
10
72.466589246037501
20
-239.18024839197477
30
0
0
ARC
5
10E
100
AcDbEntity
8
CUTOUTS
100
AcDbCircle
10
73.265112090553828
20
-237.99999999998897
30
0
40
1.4250000000001277
210
-9.7340235127360155e-35
220
5.2060886831774825e-34
230
1
100
AcDbArc
50
190.59052916918662
51
235.91882429685808
0
SPLINE
5
10F
100
AcDbEntity
8
CUTOUTS
100
AcDbSpline
70
0
71
3
72
29
73
25
74
0
42
0.000000001
43
0.0000000001
44
0.0000000001
40
-0.00045874846840381523
40
-0.00045874846840381523
40
-0.00045874846840381523
40
-0.00045874846840381523
40
0
40
0
40
0
40
0.047210927133116469
40
0.047210927133116469
40
0.047210927133116469
40
0.070388050233199106
40
0.070388050233199106
40
0.070388050233199106
40
0.12810747428381075
40
0.12810747428381075
40
0.12810747428381075
40
0.20832291128401986
40
0.20832291128401986
40
0.20832291128401986
40
0.29042300118361492
40
0.29042300118361492
40
0.29042300118361492
40
0.3428271922119962
40
0.3428271922119962
40
0.3428271922119962
40
0.38269059451303955
40
0.38269059451303955
40
0.38269059451303955
40
0.38269059451303955
10
-72.652093818599042
20
230.19515649231863
30
0
10
-72.651638195486328
20
230.19369678595837
30
0
10
-72.651182572373614
20
230.19223707959796
30
0
10
-72.6507269492609
20
230.19077737323769
30
0
10
-72.606785898683484
20
230.05000086471171
30
0
10
-72.591150277155805
20
229.90196636921553
30
0
10
-72.604658827030164
20
229.75509201552242
30
0
10
-72.611290544941198
20
229.68298736394166
30
0
10
-72.624897971946041
20
229.61169331267689
30
0
10
-72.645276985047929
20
229.54219777628936
30
0
10
-72.696036574176901
20
229.36909985169115
30
0
10
-72.781091259373056
20
229.23356863876359
30
0
10
-72.85320009461401
20
229.1407131373623
30
0
10
-72.953223992953724
20
229.01191103979153
30
0
10
-73.077201579160374
20
228.90372869887827
30
0
10
-73.218359108868754
20
228.82206606112987
30
0
10
-73.362833691853666
20
228.73848443740394
30
0
10
-73.522426025719483
20
228.68434787666837
30
0
10
-73.687967573500259
20
228.66265072690061
30
0
10
-73.79369799083463
20
228.64879288437919
30
0
10
-73.951205124023431
20
228.64160483380772
30
0
10
-74.134494344132804
20
228.67725533829102
30
0
10
-74.27390541750043
20
228.70437136340769
30
0
10
-74.408383383823207
20
228.75241109954237
30
0
10
-74.533410754112879
20
228.81975160810782
30
0
0
ARC
5
110
100
AcDbEntity
8
CUTOUTS
100
AcDbCircle
10
-73.73488790946368
20
230.0000000000029
30
0
40
1.4249999999998741
210
-2.4612488244768358e-32
220
-2.4956380922832172e-33
230
1
100
AcDbArc
50
190.59052916232352
51
235.9188242903785
0
SPLINE
5
111
100
AcDbEntity
8
CUTOUTS
100
AcDbSpline
70
0
71
3
72
29
73
25
74
0
42
0.000000001
43
0.0000000001
44
0.0000000001
40
0.00037306921232131381
40
0.00037306921232131381
40
0.00037306921232131381
40
0.00037306921232131381
40
0.055730348522881529
40
0.055730348522881529
40
0.055730348522881529
40
0.11724377885938873
40
0.11724377885938873
40
0.11724377885938873
40
0.17427784304144855
40
0.17427784304144855
40
0.17427784304144855
40
0.23474421881020441
40
0.23474421881020441
40
0.23474421881020441
40
0.2805927920167936
40
0.2805927920167936
40
0.2805927920167936
40
0.30191899766922797
40
0.30191899766922797
40
0.30191899766922797
40
0.32199957418855368
40
0.32199957418855368
40
0.32199957418855368
40
0.32235418859446197
40
0.32235418859446197
40
0.32235418859446197
40
0.32235418859446197
10
-75.135614092358196
20
229.73810085805746
30
0
10
-75.15055878306697
20
229.9125388627906
30
0
10
-75.132488465395397
20
230.08820176753304
30
0
10
-75.082304772045347
20
230.25594674090945
30
0
10
-75.02654023194566
20
230.44234635939063
30
0
10
-74.935337139376941
20
230.60424746172501
30
0
10
-74.832458001799296
20
230.73014880770629
30
0
10
-74.737070701708603
20
230.84688179899734
30
0
10
-74.621417807642842
20
230.94540866215914
30
0
10
-74.490997704556889
20
231.02093424934219
30
0
10
-74.352729342493546
20
231.10100472150577
30
0
10
-74.200411195136553
20
231.15374626352562
30
0
10
-74.042232892625179
20
231.17631247278169
30
0
10
-73.922062064939098
20
231.19345641731144
30
0
10
-73.755645040673414
20
231.19980352253174
30
0
10
-73.573819019204052
20
231.15266055707826
30
0
10
-73.489251629112289
20
231.13073433597208
30
0
10
-73.407593854423396
20
231.09887602270499
30
0
10
-73.33055193691365
20
231.05772270527154
30
0
10
-73.258010003447112
20
231.0189731347559
30
0
10
-73.190041860793826
20
230.9722397583478
30
0
10
-73.127905464445746
20
230.91837353219495
30
0
10
-73.126733441562237
20
230.91735750208358
30
0
10
-73.125561418678728
20
230.9163414719722
30
0
10
-73.124389395796925
20
230.91532544186231
30
0
0
ARC
5
112
100
AcDbEntity
8
CUTOUTS
100
AcDbCircle
10
-73.73488790946368
20
230.0000000000029
30
0
40
1.1002404735803684
210
4.4409841652171532e-34
220
-2.4640079121432716e-33
230
1
100
AcDbArc
50
10.216968977896975
51
56.297732922303908
0
SPLINE
5
113
100
AcDbEntity
8
CUTOUTS
100
AcDbSpline
70
0
71
3
72
29
73
25
74
0
42
0.000000001
43
0.0000000001
44
0.0000000001
40
0.00037306921237879003
40
0.00037306921237879003
40
0.00037306921237879003
40
0.00037306921237879003
40
0.05573034852083017
40
0.05573034852083017
40
0.05573034852083017
40
0.11724377889081564
40
0.11724377889081564
40
0.11724377889081564
40
0.17427784313935754
40
0.17427784313935754
40
0.17427784313935754
40
0.23474421897884196
40
0.23474421897884196
40
0.23474421897884196
40
0.28059279223983824
40
0.28059279223983824
40
0.28059279223983824
40
0.30191899791834986
40
0.30191899791834986
40
0.30191899791834986
40
0.32199957446188698
40
0.32199957446188698
40
0.32199957446188698
40
0.32235418886739214
40
0.32235418886739214
40
0.32235418886739214
40
0.32235418886739214
10
71.864385907674802
20
229.73810085788443
30
-7.1054273576010019e-14
10
71.849441216944427
20
229.91253886260893
30
-7.1054273576010019e-14
10
71.867511534591983
20
230.08820176734736
30
-7.1054273576010019e-14
10
71.917695227916596
20
230.25594674072451
30
-7.1054273576010019e-14
10
71.973459768020831
20
230.44234635931502
30
-7.1054273576010019e-14
10
72.064662860610866
20
230.60424746165111
30
-7.1054273576010019e-14
10
72.167541998103673
20
230.73014880756446
30
-7.1054273576010019e-14
10
72.262929298174612
20
230.84688179886513
30
-7.1054273576010019e-14
10
72.37858219222133
20
230.94540866203928
30
-7.1054273576010019e-14
10
72.509002295290514
20
231.02093424923879
30
-7.1054273576010019e-14
10
72.647270657337089
20
231.10100472142008
30
-7.1054273576010019e-14
10
72.799588804679587
20
231.15374626346102
30
-7.1054273576010019e-14
10
72.957767107180729
20
231.17631247274147
30
-7.1054273576010019e-14
10
73.077937934860984
20
231.19345641728984
30
-7.1054273576010019e-14
10
73.244354959134341
20
231.19980352253776
30
-7.1054273576010019e-14
10
73.426180980620614
20
231.15266055711083
30
-7.1054273576010019e-14
10
73.510748370723178
20
231.13073433601619
30
-7.1054273576010019e-14
10
73.592406145423439
20
231.09887602275862
30
-7.1054273576010019e-14
10
73.669448062944696
20
231.05772270533251
30
-7.1054273576010019e-14
10
73.741989996421182
20
231.01897313482439
30
-7.1054273576010019e-14
10
73.809958139081999
20
230.97223975842348
30
-7.1054273576010019e-14
10
73.87209453543889
20
230.9183735322766
30
-7.1054273576010019e-14
10
73.873266558320125
20
230.91735750216756
30
-7.1054273576010019e-14
10
73.87443858120136
20
230.91634147205852
30
-7.1054273576010019e-14
10
73.875610604083022
20
230.91532544194911
30
-7.1054273576010019e-14
0
ARC
5
114
100
AcDbEntity
8
CUTOUTS
100
AcDbCircle
10
73.265112090536348
20
230.00000000000867
30
-7.1054273576010019e-14
40
1.1002404735810785
210
4.0993700014265013e-34
220
-2.2744688419285784e-33
230
1
100
AcDbArc
50
10.216968984860994
51
56.297732929836393
0
SPLINE
5
115
100
AcDbEntity
8
CUTOUTS
100
AcDbSpline
70
0
71
3
72
29
73
25
74
0
42
0.000000001
43
0.0000000001
44
0.0000000001
40
-0.00045874846777587655
40
-0.00045874846777587655
40
-0.00045874846777587655
40
-0.00045874846777587655
40
0
40
0
40
0
40
0.047210927132511182
40
0.047210927132511182
40
0.047210927132511182
40
0.070388050231717555
40
0.070388050231717555
40
0.070388050231717555
40
0.12810747428505059
40
0.12810747428505059
40
0.12810747428505059
40
0.20832291127281757
40
0.20832291127281757
40
0.20832291127281757
40
0.29042300116121456
40
0.29042300116121456
40
0.29042300116121456
40
0.34282719232303471
40
0.34282719232303471
40
0.34282719232303471
40
0.38269059477725736
40
0.38269059477725736
40
0.38269059477725736
40
0.38269059477725736
10
74.347906181377965
20
230.19515649245614
30
-7.1054273576010019e-14
10
74.348361804490111
20
230.19369678609849
30
-7.1054273576010019e-14
10
74.348817427602398
20
230.19223707973993
30
-7.1054273576010019e-14
10
74.349273050714686
20
230.19077737338137
30
-7.1054273576010019e-14
10
74.393214101309155
20
230.05000086486291
30
-7.1054273576010019e-14
10
74.408849722856161
20
229.90196636937094
30
-7.1054273576010019e-14
10
74.395341173001412
20
229.75509201567627
30
-7.1054273576010019e-14
10
74.388709455100468
20
229.68298736409636
30
-7.1054273576010019e-14
10
74.375102028105573
20
229.61169331283139
30
-7.1054273576010019e-14
10
74.354723015014628
20
229.54219777644482
30
-7.1054273576010019e-14
10
74.303963425909387
20
229.36909985183428
30
-7.1054273576010019e-14
10
74.21890874072659
20
229.23356863888813
30
-7.1054273576010019e-14
10
74.146799905480663
20
229.14071313746064
30
-7.1054273576010019e-14
10
74.046776007154875
20
229.01191103987992
30
-7.1054273576010019e-14
10
73.922798420959879
20
228.90372869895387
30
-7.1054273576010019e-14
10
73.781640891262157
20
228.82206606119064
30
-7.1054273576010019e-14
10
73.637166308284918
20
228.73848443744782
30
-7.1054273576010019e-14
10
73.477573974424644
20
228.68434787669349
30
-7.1054273576010019e-14
10
73.312032426643157
20
228.66265072690686
30
-7.1054273576010019e-14
10
73.206302009027553
20
228.64879288433642
30
-7.1054273576010019e-14
10
73.048794875891474
20
228.64160483383259
30
-7.1054273576010019e-14
10
72.865505656018001
20
228.67725533824887
30
-7.1054273576010019e-14
10
72.726094582648386
20
228.70437136334999
30
-7.1054273576010019e-14
10
72.591616616320636
20
228.7524110994695
30
-7.1054273576010019e-14
10
72.466589246027269
20
228.81975160801795
30
-7.1054273576010019e-14
0
ARC
5
116
100
AcDbEntity
8
CUTOUTS
100
AcDbCircle
10
73.265112090536348
20
230.00000000000867
30
-7.1054273576010019e-14
40
1.4249999999998908
210
4.3360650194903851e-34
220
-2.3190758679575e-33
230
1
100
AcDbArc
50
190.5905291696337
51
235.91882429720954
0
LINE
5
117
100
AcDbEntity
8
PERIMETER
100
AcDbLine
10
203.07500000000019
20
-211.59166666666664
30
-7.1054273576010019e-14
11
200.07500000000022
21
-211.59166666666664
31
-7.1054273576010019e-14
0
LINE
5
118
100
AcDbEntity
8
PERIMETER
100
AcDbLine
10
200.07500000000022
20
-211.59166666666664
30
-7.1054273576010019e-14
11
200.07500000000022
21
-186.74166666666665
31
-7.1054273576010019e-14
0
LINE
5
119
100
AcDbEntity
8
PERIMETER
100
AcDbLine
10
200.07500000000022
20
-186.74166666666667
30
-7.1054273576010019e-14
11
203.07500000000019
21
-186.74166666666667
31
-7.1054273576010019e-14
0
LINE
5
11A
100
AcDbEntity
8
PERIMETER
100
AcDbLine
10
203.07500000000019
20
-186.74166666666667
30
-7.1054273576010019e-14
11
203.07500000000019
21
-153.25833333333333
31
-7.1054273576010019e-14
0
LINE
5
11B
100
AcDbEntity
8
PERIMETER
100
AcDbLine
10
203.07500000000019
20
-153.25833333333333
30
-7.1054273576010019e-14
11
200.07500000000022
21
-153.25833333333333
31
-7.1054273576010019e-14
0
LINE
5
11C
100
AcDbEntity
8
PERIMETER
100
AcDbLine
10
200.07500000000022
20
-153.25833333333333
30
-7.1054273576010019e-14
11
200.07500000000022
21
-128.40833333333336
31
-7.1054273576010019e-14
0
LINE
5
11D
100
AcDbEntity
8
PERIMETER
100
AcDbLine
10
200.07500000000022
20
-128.40833333333336
30
-7.1054273576010019e-14
11
203.07500000000019
21
-128.40833333333336
31
-7.1054273576010019e-14
0
LINE
5
11E
100
AcDbEntity
8
PERIMETER
100
AcDbLine
10
203.07500000000019
20
-128.40833333333336
30
-7.1054273576010019e-14
11
203.07500000000019
21
-94.924999999999997
31
-7.1054273576010019e-14
0
LINE
5
11F
100
AcDbEntity
8
PERIMETER
100
AcDbLine
10
203.07500000000019
20
-94.924999999999997
30
-7.1054273576010019e-14
11
200.07500000000022
21
-94.924999999999997
31
-7.1054273576010019e-14
0
LINE
5
120
100
AcDbEntity
8
PERIMETER
100
AcDbLine
10
200.07500000000022
20
-94.924999999999997
30
-7.1054273576010019e-14
11
200.07500000000022
21
-70.075000000000003
31
-7.1054273576010019e-14
0
LINE
5
121
100
AcDbEntity
8
PERIMETER
100
AcDbLine
10
200.07500000000022
20
-70.075000000000003
30
-7.1054273576010019e-14
11
203.07500000000019
21
-70.075000000000003
31
-7.1054273576010019e-14
0
LINE
5
122
100
AcDbEntity
8
PERIMETER
100
AcDbLine
10
203.07500000000019
20
-70.075000000000003
30
-7.1054273576010019e-14
11
203.07500000000019
21
-36.591666666666676
31
-7.1054273576010019e-14
0
LINE
5
123
100
AcDbEntity
8
PERIMETER
100
AcDbLine
10
203.07500000000019
20
-36.59166666666664
30
-7.1054273576010019e-14
11
200.07500000000022
21
-36.591666666666605
31
-7.1054273576010019e-14
0
LINE
5
124
100
AcDbEntity
8
PERIMETER
100
AcDbLine
10
200.07500000000022
20
-36.59166666666664
30
-7.1054273576010019e-14
11
200.07500000000022
21
-11.741666666666646
31
-7.1054273576010019e-14
0
LINE
5
125
100
AcDbEntity
8
PERIMETER
100
AcDbLine
10
200.07500000000022
20
-11.741666666666646
30
-7.1054273576010019e-14
11
203.07500000000019
21
-11.741666666666646
31
-7.1054273576010019e-14
0
LINE
5
126
100
AcDbEntity
8
PERIMETER
100
AcDbLine
10
203.07500000000019
20
-11.741666666666646
30
-7.1054273576010019e-14
11
203.07500000000019
21
21.741666666666681
31
-7.1054273576010019e-14
0
LINE
5
127
100
AcDbEntity
8
PERIMETER
100
AcDbLine
10
203.07500000000019
20
21.741666666666717
30
-7.1054273576010019e-14
11
200.07500000000022
21
21.741666666666681
31
-7.1054273576010019e-14
0
LINE
5
128
100
AcDbEntity
8
PERIMETER
100
AcDbLine
10
200.07500000000022
20
21.741666666666646
30
-7.1054273576010019e-14
11
200.07500000000022
21
46.59166666666664
31
-7.1054273576010019e-14
0
LINE
5
129
100
AcDbEntity
8
PERIMETER
100
AcDbLine
10
200.07500000000022
20
46.59166666666664
30
-7.1054273576010019e-14
11
203.07500000000019
21
46.59166666666664
31
-7.1054273576010019e-14
0
LINE
5
12A
100
AcDbEntity
8
PERIMETER
100
AcDbLine
10
203.07500000000019
20
46.59166666666664
30
-7.1054273576010019e-14
11
203.07500000000019
21
80.075000000000003
31
-7.1054273576010019e-14
0
LINE
5
12B
100
AcDbEntity
8
PERIMETER
100
AcDbLine
10
203.07500000000019
20
80.075000000000003
30
-7.1054273576010019e-14
11
200.07500000000022
21
80.075000000000003
31
-7.1054273576010019e-14
0
LINE
5
12C
100
AcDbEntity
8
PERIMETER
100
AcDbLine
10
200.07500000000022
20
80.075000000000003
30
-7.1054273576010019e-14
11
200.07500000000022
21
104.925
31
-7.1054273576010019e-14
0
LINE
5
12D
100
AcDbEntity
8
PERIMETER
100
AcDbLine
10
200.07500000000022
20
104.925
30
-7.1054273576010019e-14
11
203.07500000000019
21
104.925
31
-7.1054273576010019e-14
0
LINE
5
12E
100
AcDbEntity
8
PERIMETER
100
AcDbLine
10
203.07500000000019
20
104.925
30
-7.1054273576010019e-14
11
203.07500000000019
21
138.4083333333333
31
-7.1054273576010019e-14
0
LINE
5
12F
100
AcDbEntity
8
PERIMETER
100
AcDbLine
10
203.07500000000019
20
138.4083333333333
30
-7.1054273576010019e-14
11
200.07500000000022
21
138.4083333333333
31
-7.1054273576010019e-14
0
LINE
5
130
100
AcDbEntity
8
PERIMETER
100
AcDbLine
10
200.07500000000022
20
138.4083333333333
30
-7.1054273576010019e-14
11
200.07500000000022
21
163.25833333333327
31
-7.1054273576010019e-14
0
LINE
5
131
100
AcDbEntity
8
PERIMETER
100
AcDbLine
10
200.07500000000022
20
163.25833333333327
30
-7.1054273576010019e-14
11
203.07500000000019
21
163.25833333333327
31
-7.1054273576010019e-14
0
LINE
5
132
100
AcDbEntity
8
PERIMETER
100
AcDbLine
10
203.07500000000019
20
163.25833333333327
30
-7.1054273576010019e-14
11
203.07500000000019
21
196.74166666666665
31
-7.1054273576010019e-14
0
LINE
5
133
100
AcDbEntity
8
PERIMETER
100
AcDbLine
10
203.07500000000019
20
196.74166666666665
30
0
11
200.07500000000022
21
196.74166666666665
31
0
0
LINE
5
134
100
AcDbEntity
8
PERIMETER
100
AcDbLine
10
200.07500000000022
20
196.74166666666665
30
-7.1054273576010019e-14
11
200.07500000000022
21
221.59166666666664
31
-7.1054273576010019e-14
0
LINE
5
135
100
AcDbEntity
8
PERIMETER
100
AcDbLine
10
200.07500000000022
20
221.59166666666664
30
0
11
203.07500000000019
21
221.59166666666664
31
0
0
LINE
5
136
100
AcDbEntity
8
PERIMETER
100
AcDbLine
10
203.07500000000019
20
221.59166666666664
30
0
11
203.07500000000019
21
255.07499999999999
31
0
0
LINE
5
137
100
AcDbEntity
8
PERIMETER
100
AcDbLine
10
203.07500000000019
20
255.07499999999999
30
0
11
200.07500000000022
21
255.07499999999999
31
0
0
LINE
5
138
100
AcDbEntity
8
PERIMETER
100
AcDbLine
10
200.07500000000022
20
255.07499999999999
30
0
11
200.07500000000022
21
279.92500000000001
31
0
0
LINE
5
139
100
AcDbEntity
8
PERIMETER
100
AcDbLine
10
200.07500000000022
20
279.92500000000001
30
0
11
203.07500000000019
21
279.92500000000001
31
0
0
LINE
5
13A
100
AcDbEntity
8
PERIMETER
100
AcDbLine
10
203.07500000000019
20
279.92500000000001
30
0
11
203.07500000000005
21
297.07500000000005
31
0
0
LINE
5
13B
100
AcDbEntity
8
PERIMETER
100
AcDbLine
10
203.07500000000005
20
297.07500000000005
30
0
11
173.07500000000033
21
297.07500000000005
31
0
0
LINE
5
13C
100
AcDbEntity
8
PERIMETER
100
AcDbLine
10
173.07500000000033
20
297.07500000000005
30
-7.1054273576010019e-14
11
173.07500000000033
21
300.07499999999999
31
-7.1054273576010019e-14
0
LINE
5
13D
100
AcDbEntity
8
PERIMETER
100
AcDbLine
10
173.07500000000033
20
300.07499999999999
30
-7.1054273576010019e-14
11
147.92500000000047
21
300.07499999999999
31
-7.1054273576010019e-14
0
LINE
5
13E
100
AcDbEntity
8
PERIMETER
100
AcDbLine
10
147.92500000000047
20
300.07499999999999
30
-7.1054273576010019e-14
11
147.92500000000047
21
297.07500000000005
31
-7.1054273576010019e-14
0
LINE
5
13F
100
AcDbEntity
8
PERIMETER
100
AcDbLine
10
147.92500000000047
20
297.07500000000005
30
-7.1054273576010019e-14
11
118.07500000000033
21
297.07500000000005
31
-7.1054273576010019e-14
0
LINE
5
140
100
AcDbEntity
8
PERIMETER
100
AcDbLine
10
118.07500000000033
20
297.07500000000005
30
-7.1054273576010019e-14
11
118.07500000000033
21
300.07499999999999
31
-7.1054273576010019e-14
0
LINE
5
141
100
AcDbEntity
8
PERIMETER
100
AcDbLine
10
118.07500000000033
20
300.07499999999999
30
-7.1054273576010019e-14
11
92.925000000000466
21
300.07499999999999
31
-7.1054273576010019e-14
0
LINE
5
142
100
AcDbEntity
8
PERIMETER
100
AcDbLine
10
92.925000000000466
20
300.07499999999999
30
-7.1054273576010019e-14
11
92.925000000000466
21
297.07500000000005
31
-7.1054273576010019e-14
0
LINE
5
143
100
AcDbEntity
8
PERIMETER
100
AcDbLine
10
92.925000000000466
20
297.07500000000005
30
-7.1054273576010019e-14
11
63.07500000000033
21
297.07500000000005
31
-7.1054273576010019e-14
0
LINE
5
144
100
AcDbEntity
8
PERIMETER
100
AcDbLine
10
63.07500000000033
20
297.07500000000005
30
-7.1054273576010019e-14
11
63.07500000000033
21
300.07499999999999
31
-7.1054273576010019e-14
0
LINE
5
145
100
AcDbEntity
8
PERIMETER
100
AcDbLine
10
63.07500000000033
20
300.07499999999999
30
-7.1054273576010019e-14
11
37.925000000000466
21
300.07499999999999
31
-7.1054273576010019e-14
0
LINE
5
146
100
AcDbEntity
8
PERIMETER
100
AcDbLine
10
37.925000000000466
20
300.07499999999999
30
-7.1054273576010019e-14
11
37.925000000000466
21
297.07500000000005
31
-7.1054273576010019e-14
0
LINE
5
147
100
AcDbEntity
8
PERIMETER
100
AcDbLine
10
37.925000000000466
20
297.07500000000005
30
-7.1054273576010019e-14
11
8.0750000000003297
21
297.07500000000005
31
-7.1054273576010019e-14
0
LINE
5
148
100
AcDbEntity
8
PERIMETER
100
AcDbLine
10
8.0750000000003297
20
297.07500000000005
30
-7.1054273576010019e-14
11
8.0750000000006139
21
300.07499999999999
31
-7.1054273576010019e-14
0
LINE
5
149
100
AcDbEntity
8
PERIMETER
100
AcDbLine
10
8.0750000000006139
20
300.07499999999999
30
-7.1054273576010019e-14
11
-17.07499999999925
21
300.07499999999999
31
-7.1054273576010019e-14
0
LINE
5
14A
100
AcDbEntity
8
PERIMETER
100
AcDbLine
10
-17.07499999999925
20
300.07499999999999
30
0
11
-17.07499999999925
21
297.07500000000005
31
0
0
LINE
5
14B
100
AcDbEntity
8
PERIMETER
100
AcDbLine
10
-17.07499999999925
20
297.07500000000005
30
0
11
-46.924999999999386
21
297.07500000000005
31
0
0
LINE
5
14C
100
AcDbEntity
8
PERIMETER
100
AcDbLine
10
-46.924999999999386
20
297.07500000000005
30
0
11
-46.924999999999386
21
300.07499999999999
31
0
0
LINE
5
14D
100
AcDbEntity
8
PERIMETER
100
AcDbLine
10
-46.924999999999386
20
300.07499999999999
30
0
11
-72.07499999999925
21
300.07499999999999
31
0
0
LINE
5
14E
100
AcDbEntity
8
PERIMETER
100
AcDbLine
10
-72.07499999999925
20
300.07499999999999
30
0
11
-72.07499999999925
21
297.07500000000005
31
0
0
LINE
5
14F
100
AcDbEntity
8
PERIMETER
100
AcDbLine
10
-72.07499999999925
20
297.07500000000005
30
0
11
-101.92499999999939
21
297.07500000000005
31
0
0
LINE
5
150
100
AcDbEntity
8
PERIMETER
100
AcDbLine
10
-101.92499999999939
20
297.07500000000005
30
0
11
-101.92499999999939
21
300.07499999999999
31
0
0
LINE
5
151
100
AcDbEntity
8
PERIMETER
100
AcDbLine
10
-101.92499999999939
20
300.07499999999999
30
0
11
-127.07499999999925
21
300.07499999999999
31
0
0
LINE
5
152
100
AcDbEntity
8
PERIMETER
100
AcDbLine
10
-127.07499999999925
20
300.07499999999999
30
0
11
-127.07499999999925
21
297.07500000000005
31
0
0
LINE
5
153
100
AcDbEntity
8
PERIMETER
100
AcDbLine
10
-127.07499999999925
20
297.07500000000005
30
0
11
-156.92499999999939
21
297.07500000000005
31
0
0
LINE
5
154
100
AcDbEntity
8
PERIMETER
100
AcDbLine
10
-156.92499999999939
20
297.07500000000005
30
0
11
-156.92499999999939
21
300.07499999999999
31
0
0
LINE
5
155
100
AcDbEntity
8
PERIMETER
100
AcDbLine
10
-156.92499999999939
20
300.07499999999999
30
0
11
-182.07499999999925
21
300.07499999999999
31
0
0
LINE
5
156
100
AcDbEntity
8
PERIMETER
100
AcDbLine
10
-182.07499999999925
20
300.07499999999999
30
0
11
-182.07499999999925
21
297.07500000000005
31
0
0
LINE
5
157
100
AcDbEntity
8
PERIMETER
100
AcDbLine
10
-182.07499999999925
20
297.07500000000005
30
0
11
-203.07499999999976
21
297.07500000000005
31
0
0
LINE
5
158
100
AcDbEntity
8
PERIMETER
100
AcDbLine
10
-203.07499999999976
20
297.07500000000005
30
0
11
-203.07499999999919
21
279.92500000000001
31
0
0
LINE
5
159
100
AcDbEntity
8
PERIMETER
100
AcDbLine
10
-203.07499999999919
20
279.92500000000001
30
0
11
-200.07499999999936
21
279.92500000000001
31
0
0
LINE
5
15A
100
AcDbEntity
8
PERIMETER
100
AcDbLine
10
-200.07499999999936
20
279.92500000000001
30
0
11
-200.07499999999936
21
255.07499999999999
31
0
0
LINE
5
15B
100
AcDbEntity
8
PERIMETER
100
AcDbLine
10
-200.07499999999936
20
255.07499999999999
30
0
11
-203.07499999999919
21
255.07499999999999
31
0
0
LINE
5
15C
100
AcDbEntity
8
PERIMETER
100
AcDbLine
10
-203.07499999999919
20
255.07499999999999
30
0
11
-203.07499999999919
21
221.59166666666664
31
0
0
LINE
5
15D
100
AcDbEntity
8
PERIMETER
100
AcDbLine
10
-203.07499999999919
20
221.59166666666664
30
0
11
-200.07499999999936
21
221.59166666666664
31
0
0
LINE
5
15E
100
AcDbEntity
8
PERIMETER
100
AcDbLine
10
-200.07499999999936
20
221.59166666666664
30
0
11
-200.07499999999936
21
196.74166666666665
31
0
0
LINE
5
15F
100
AcDbEntity
8
PERIMETER
100
AcDbLine
10
-200.07499999999936
20
196.74166666666665
30
0
11
-203.07499999999919
21
196.74166666666665
31
0
0
LINE
5
160
100
AcDbEntity
8
PERIMETER
100
AcDbLine
10
-203.07499999999919
20
196.74166666666665
30
0
11
-203.07499999999919
21
163.25833333333327
31
0
0
LINE
5
161
100
AcDbEntity
8
PERIMETER
100
AcDbLine
10
-203.07499999999919
20
163.25833333333327
30
0
11
-200.07499999999936
21
163.25833333333327
31
0
0
LINE
5
162
100
AcDbEntity
8
PERIMETER
100
AcDbLine
10
-200.07499999999936
20
163.25833333333327
30
0
11
-200.07499999999936
21
138.4083333333333
31
0
0
LINE
5
163
100
AcDbEntity
8
PERIMETER
100
AcDbLine
10
-200.07499999999936
20
138.4083333333333
30
0
11
-203.07499999999919
21
138.4083333333333
31
0
0
LINE
5
164
100
AcDbEntity
8
PERIMETER
100
AcDbLine
10
-203.07499999999919
20
138.4083333333333
30
0
11
-203.07499999999919
21
104.925
31
0
0
LINE
5
165
100
AcDbEntity
8
PERIMETER
100
AcDbLine
10
-203.07499999999919
20
104.925
30
0
11
-200.07499999999936
21
104.925
31
0
0
LINE
5
166
100
AcDbEntity
8
PERIMETER
100
AcDbLine
10
-200.07499999999936
20
104.925
30
0
11
-200.07499999999936
21
80.075000000000003
31
0
0
LINE
5
167
100
AcDbEntity
8
PERIMETER
100
AcDbLine
10
-200.07499999999936
20
80.075000000000003
30
0
11
-203.07499999999919
21
80.075000000000003
31
0
0
LINE
5
168
100
AcDbEntity
8
PERIMETER
100
AcDbLine
10
-203.07499999999919
20
80.075000000000003
30
0
11
-203.07499999999919
21
46.59166666666664
31
0
0
LINE
5
169
100
AcDbEntity
8
PERIMETER
100
AcDbLine
10
-203.07499999999919
20
46.59166666666664
30
0
11
-200.07499999999936
21
46.59166666666664
31
0
0
LINE
5
16A
100
AcDbEntity
8
PERIMETER
100
AcDbLine
10
-200.07499999999936
20
46.59166666666664
30
0
11
-200.07499999999936
21
21.741666666666646
31
0
0
LINE
5
16B
100
AcDbEntity
8
PERIMETER
100
AcDbLine
10
-200.07499999999936
20
21.741666666666646
30
0
11
-203.07499999999919
21
21.741666666666646
31
0
0
LINE
5
16C
100
AcDbEntity
8
PERIMETER
100
AcDbLine
10
-203.07499999999919
20
21.741666666666646
30
0
11
-203.07499999999919
21
-11.741666666666681
31
0
0
LINE
5
16D
100
AcDbEntity
8
PERIMETER
100
AcDbLine
10
-203.07499999999919
20
-11.741666666666646
30
0
11
-200.07499999999936
21
-11.74166666666661
31
0
0
LINE
5
16E
100
AcDbEntity
8
PERIMETER
100
AcDbLine
10
-200.07499999999936
20
-11.741666666666646
30
0
11
-200.07499999999936
21
-36.59166666666664
31
0
0
LINE
5
16F
100
AcDbEntity
8
PERIMETER
100
AcDbLine
10
-200.07499999999936
20
-36.59166666666664
30
0
11
-203.07499999999919
21
-36.59166666666664
31
0
0
LINE
5
170
100
AcDbEntity
8
PERIMETER
100
AcDbLine
10
-203.07499999999919
20
-36.59166666666664
30
0
11
-203.07499999999919
21
-70.07499999999996
31
0
0
LINE
5
171
100
AcDbEntity
8
PERIMETER
100
AcDbLine
10
-203.07499999999919
20
-70.074999999999932
30
0
11
-200.07499999999936
21
-70.07499999999996
31
0
0
LINE
5
172
100
AcDbEntity
8
PERIMETER
100
AcDbLine
10
-200.07499999999936
20
-70.075000000000003
30
0
11
-200.07499999999936
21
-94.924999999999997
31
0
0
LINE
5
173
100
AcDbEntity
8
PERIMETER
100
AcDbLine
10
-200.07499999999936
20
-94.924999999999997
30
0
11
-203.07499999999919
21
-94.924999999999997
31
0
0
LINE
5
174
100
AcDbEntity
8
PERIMETER
100
AcDbLine
10
-203.07499999999919
20
-94.924999999999997
30
0
11
-203.07499999999919
21
-128.40833333333336
31
0
0
LINE
5
175
100
AcDbEntity
8
PERIMETER
100
AcDbLine
10
-203.07499999999919
20
-128.40833333333336
30
0
11
-200.07499999999936
21
-128.40833333333336
31
0
0
LINE
5
176
100
AcDbEntity
8
PERIMETER
100
AcDbLine
10
-200.07499999999936
20
-128.40833333333336
30
0
11
-200.07499999999936
21
-153.25833333333333
31
0
0
LINE
5
177
100
AcDbEntity
8
PERIMETER
100
AcDbLine
10
-200.07499999999936
20
-153.25833333333333
30
0
11
-203.07499999999919
21
-153.25833333333333
31
0
0
LINE
5
178
100
AcDbEntity
8
PERIMETER
100
AcDbLine
10
-203.07499999999919
20
-153.25833333333333
30
0
11
-203.07499999999919
21
-186.74166666666667
31
0
0
LINE
5
179
100
AcDbEntity
8
PERIMETER
100
AcDbLine
10
-203.07499999999919
20
-186.74166666666667
30
-7.1054273576010019e-14
11
-200.07499999999936
21
-186.74166666666667
31
-7.1054273576010019e-14
0
LINE
5
17A
100
AcDbEntity
8
PERIMETER
100
AcDbLine
10
-200.07499999999936
20
-186.74166666666667
30
0
11
-200.07499999999936
21
-211.59166666666667
31
0
0
LINE
5
17B
100
AcDbEntity
8
PERIMETER
100
AcDbLine
10
-200.07499999999936
20
-211.59166666666664
30
-7.1054273576010019e-14
11
-203.07499999999919
21
-211.59166666666664
31
-7.1054273576010019e-14
0
LINE
5
17C
100
AcDbEntity
8
PERIMETER
100
AcDbLine
10
-203.07499999999919
20
-211.59166666666664
30
-7.1054273576010019e-14
11
-203.07499999999919
21
-245.07499999999996
31
-7.1054273576010019e-14
0
LINE
5
17D
100
AcDbEntity
8
PERIMETER
100
AcDbLine
10
-203.07499999999919
20
-245.07499999999999
30
-7.1054273576010019e-14
11
-200.07499999999936
21
-245.07499999999999
31
-7.1054273576010019e-14
0
LINE
5
17E
100
AcDbEntity
8
PERIMETER
100
AcDbLine
10
-200.07499999999936
20
-245.07499999999999
30
-7.1054273576010019e-14
11
-200.07499999999936
21
-269.92500000000001
31
-7.1054273576010019e-14
0
LINE
5
17F
100
AcDbEntity
8
PERIMETER
100
AcDbLine
10
-200.07499999999936
20
-269.92500000000001
30
-7.1054273576010019e-14
11
-203.07499999999919
21
-269.92500000000001
31
-7.1054273576010019e-14
0
LINE
5
180
100
AcDbEntity
8
PERIMETER
100
AcDbLine
10
-203.07499999999919
20
-269.92500000000001
30
-7.1054273576010019e-14
11
-203.07499999999976
21
-300.07499999999999
31
-7.1054273576010019e-14
0
LINE
5
181
100
AcDbEntity
8
PERIMETER
100
AcDbLine
10
-203.07499999999976
20
-300.07499999999999
30
-7.1054273576010019e-14
11
-141.73397172404435
21
-300.07499999999999
31
-7.1054273576010019e-14
0
ARC
5
182
100
AcDbEntity
8
PERIMETER
100
AcDbCircle
10
-141.73397172404435
20
-249.9999999999996
30
0
40
50.075000000000358
210
0
220
0
230
1
100
AcDbArc
50
269.99999999999994
51
311.4096221092704
0
ARC
5
183
100
AcDbEntity
8
PERIMETER
100
AcDbCircle
10
-102.04770205807563
20
-295
30
0
40
9.9249999999999972
210
0
220
-0
230
1
100
AcDbArc
50
90
51
131.40962210927128
0
LINE
5
184
100
AcDbEntity
8
PERIMETER
100
AcDbLine
10
-102.04770205807563
20
-285.07499999999999
30
0
11
102.04770205807662
21
-285.07499999999999
31
0
0
ARC
5
185
100
AcDbEntity
8
PERIMETER
100
AcDbCircle
10
102.04770205807634
20
-295
30
0
40
9.9250000000000007
210
-9.2444637330586609e-33
220
8.1528506806098144e-33
230
1
100
AcDbArc
50
48.590377890728718
51
89.999999999998352
0
ARC
5
186
100
AcDbEntity
8
PERIMETER
100
AcDbCircle
10
141.73397172404506
20
-250.00000000000028
30
-7.1054273576010019e-14
40
50.074999999999662
210
0
220
0
230
1
100
AcDbArc
50
228.59037789072912
51
270.00000000000017
0
LINE
5
187
100
AcDbEntity
8
PERIMETER
100
AcDbLine
10
141.7339717240452
20
-300.07499999999999
30
-7.1054273576010019e-14
11
203.07500000000019
21
-300.07499999999999
31
-7.1054273576010019e-14
0
LINE
5
188
100
AcDbEntity
8
PERIMETER
100
AcDbLine
10
203.07500000000019
20
-300.07499999999999
30
-7.1054273576010019e-14
11
203.07500000000019
21
-269.92500000000001
31
-7.1054273576010019e-14
0
LINE
5
189
100
AcDbEntity
8
PERIMETER
100
AcDbLine
10
203.07500000000019
20
-269.92500000000001
30
-7.1054273576010019e-14
11
200.07500000000022
21
-269.92500000000001
31
-7.1054273576010019e-14
0
LINE
5
18A
100
AcDbEntity
8
PERIMETER
100
AcDbLine
10
200.07500000000022
20
-269.92500000000001
30
-7.1054273576010019e-14
11
200.07500000000022
21
-245.07499999999999
31
-7.1054273576010019e-14
0
LINE
5
18B
100
AcDbEntity
8
PERIMETER
100
AcDbLine
10
200.07500000000022
20
-245.07499999999999
30
-7.1054273576010019e-14
11
203.07500000000019
21
-245.07499999999999
31
-7.1054273576010019e-14
0
LINE
5
18C
100
AcDbEntity
8
PERIMETER
100
AcDbLine
10
203.07500000000019
20
-245.07499999999999
30
-7.1054273576010019e-14
11
203.07500000000019
21
-211.59166666666667
31
-7.1054273576010019e-14
0
ENDSEC
0
SECTION
2
OBJECTS
0
DICTIONARY
5
C
100
AcDbDictionary
3
ACAD_GROUP
350
D
3
ACAD_MLINESTYLE
350
17
0
DICTIONARY
5
D
100
AcDbDictionary
0
DICTIONARY
5
1A
330
C
100
AcDbDictionary
0
DICTIONARY
5
17
100
AcDbDictionary
0
ENDSEC
0
EOF
