G04 #@! TF.GenerationSoftware,KiCad,Pcbnew,(5.1.5-0-10_14)*
G04 #@! TF.CreationDate,2020-08-14T20:47:28-03:00*
G04 #@! TF.ProjectId,UltraCif,556c7472-6143-4696-962e-6b696361645f,rev?*
G04 #@! TF.SameCoordinates,Original*
G04 #@! TF.FileFunction,Soldermask,Bot*
G04 #@! TF.FilePolarity,Negative*
%FSLAX46Y46*%
G04 Gerber Fmt 4.6, Leading zero omitted, Abs format (unit mm)*
G04 Created by KiCad (PCBNEW (5.1.5-0-10_14)) date 2020-08-14 20:47:28*
%MOMM*%
%LPD*%
G04 APERTURE LIST*
%ADD10C,0.050000*%
G04 APERTURE END LIST*
D10*
G36*
X222108710Y-170345070D02*
G01*
X222800447Y-170631597D01*
X222800448Y-170631598D01*
X223422996Y-171047571D01*
X223952429Y-171577004D01*
X224075568Y-171761295D01*
X224368403Y-172199553D01*
X224654930Y-172891290D01*
X224801000Y-173625633D01*
X224801000Y-174374367D01*
X224654930Y-175108710D01*
X224368403Y-175800447D01*
X224368402Y-175800448D01*
X223952429Y-176422996D01*
X223422996Y-176952429D01*
X223007022Y-177230374D01*
X222800447Y-177368403D01*
X222108710Y-177654930D01*
X221374367Y-177801000D01*
X220625633Y-177801000D01*
X219891290Y-177654930D01*
X219199553Y-177368403D01*
X218992978Y-177230374D01*
X218577004Y-176952429D01*
X218047571Y-176422996D01*
X217631598Y-175800448D01*
X217631597Y-175800447D01*
X217345070Y-175108710D01*
X217199000Y-174374367D01*
X217199000Y-173625633D01*
X217345070Y-172891290D01*
X217631597Y-172199553D01*
X217924432Y-171761295D01*
X218047571Y-171577004D01*
X218577004Y-171047571D01*
X219199552Y-170631598D01*
X219199553Y-170631597D01*
X219891290Y-170345070D01*
X220625633Y-170199000D01*
X221374367Y-170199000D01*
X222108710Y-170345070D01*
G37*
G36*
X142108710Y-170345070D02*
G01*
X142800447Y-170631597D01*
X142800448Y-170631598D01*
X143422996Y-171047571D01*
X143952429Y-171577004D01*
X144075568Y-171761295D01*
X144368403Y-172199553D01*
X144654930Y-172891290D01*
X144801000Y-173625633D01*
X144801000Y-174374367D01*
X144654930Y-175108710D01*
X144368403Y-175800447D01*
X144368402Y-175800448D01*
X143952429Y-176422996D01*
X143422996Y-176952429D01*
X143007022Y-177230374D01*
X142800447Y-177368403D01*
X142108710Y-177654930D01*
X141374367Y-177801000D01*
X140625633Y-177801000D01*
X139891290Y-177654930D01*
X139199553Y-177368403D01*
X138992978Y-177230374D01*
X138577004Y-176952429D01*
X138047571Y-176422996D01*
X137631598Y-175800448D01*
X137631597Y-175800447D01*
X137345070Y-175108710D01*
X137199000Y-174374367D01*
X137199000Y-173625633D01*
X137345070Y-172891290D01*
X137631597Y-172199553D01*
X137924432Y-171761295D01*
X138047571Y-171577004D01*
X138577004Y-171047571D01*
X139199552Y-170631598D01*
X139199553Y-170631597D01*
X139891290Y-170345070D01*
X140625633Y-170199000D01*
X141374367Y-170199000D01*
X142108710Y-170345070D01*
G37*
G36*
X184033512Y-173103927D02*
G01*
X184182812Y-173133624D01*
X184346784Y-173201544D01*
X184494354Y-173300147D01*
X184619853Y-173425646D01*
X184718456Y-173573216D01*
X184786376Y-173737188D01*
X184821000Y-173911259D01*
X184821000Y-174088741D01*
X184786376Y-174262812D01*
X184718456Y-174426784D01*
X184619853Y-174574354D01*
X184494354Y-174699853D01*
X184346784Y-174798456D01*
X184182812Y-174866376D01*
X184033512Y-174896073D01*
X184008742Y-174901000D01*
X183831258Y-174901000D01*
X183806488Y-174896073D01*
X183657188Y-174866376D01*
X183493216Y-174798456D01*
X183345646Y-174699853D01*
X183220147Y-174574354D01*
X183121544Y-174426784D01*
X183053624Y-174262812D01*
X183019000Y-174088741D01*
X183019000Y-173911259D01*
X183053624Y-173737188D01*
X183121544Y-173573216D01*
X183220147Y-173425646D01*
X183345646Y-173300147D01*
X183493216Y-173201544D01*
X183657188Y-173133624D01*
X183806488Y-173103927D01*
X183831258Y-173099000D01*
X184008742Y-173099000D01*
X184033512Y-173103927D01*
G37*
G36*
X181493512Y-173103927D02*
G01*
X181642812Y-173133624D01*
X181806784Y-173201544D01*
X181954354Y-173300147D01*
X182079853Y-173425646D01*
X182178456Y-173573216D01*
X182246376Y-173737188D01*
X182281000Y-173911259D01*
X182281000Y-174088741D01*
X182246376Y-174262812D01*
X182178456Y-174426784D01*
X182079853Y-174574354D01*
X181954354Y-174699853D01*
X181806784Y-174798456D01*
X181642812Y-174866376D01*
X181493512Y-174896073D01*
X181468742Y-174901000D01*
X181291258Y-174901000D01*
X181266488Y-174896073D01*
X181117188Y-174866376D01*
X180953216Y-174798456D01*
X180805646Y-174699853D01*
X180680147Y-174574354D01*
X180581544Y-174426784D01*
X180513624Y-174262812D01*
X180479000Y-174088741D01*
X180479000Y-173911259D01*
X180513624Y-173737188D01*
X180581544Y-173573216D01*
X180680147Y-173425646D01*
X180805646Y-173300147D01*
X180953216Y-173201544D01*
X181117188Y-173133624D01*
X181266488Y-173103927D01*
X181291258Y-173099000D01*
X181468742Y-173099000D01*
X181493512Y-173103927D01*
G37*
G36*
X189901000Y-174901000D02*
G01*
X188099000Y-174901000D01*
X188099000Y-173099000D01*
X189901000Y-173099000D01*
X189901000Y-174901000D01*
G37*
G36*
X186573512Y-173103927D02*
G01*
X186722812Y-173133624D01*
X186886784Y-173201544D01*
X187034354Y-173300147D01*
X187159853Y-173425646D01*
X187258456Y-173573216D01*
X187326376Y-173737188D01*
X187361000Y-173911259D01*
X187361000Y-174088741D01*
X187326376Y-174262812D01*
X187258456Y-174426784D01*
X187159853Y-174574354D01*
X187034354Y-174699853D01*
X186886784Y-174798456D01*
X186722812Y-174866376D01*
X186573512Y-174896073D01*
X186548742Y-174901000D01*
X186371258Y-174901000D01*
X186346488Y-174896073D01*
X186197188Y-174866376D01*
X186033216Y-174798456D01*
X185885646Y-174699853D01*
X185760147Y-174574354D01*
X185661544Y-174426784D01*
X185593624Y-174262812D01*
X185559000Y-174088741D01*
X185559000Y-173911259D01*
X185593624Y-173737188D01*
X185661544Y-173573216D01*
X185760147Y-173425646D01*
X185885646Y-173300147D01*
X186033216Y-173201544D01*
X186197188Y-173133624D01*
X186346488Y-173103927D01*
X186371258Y-173099000D01*
X186548742Y-173099000D01*
X186573512Y-173103927D01*
G37*
G36*
X152901000Y-174401000D02*
G01*
X151099000Y-174401000D01*
X151099000Y-172599000D01*
X152901000Y-172599000D01*
X152901000Y-174401000D01*
G37*
G36*
X154653512Y-172603927D02*
G01*
X154802812Y-172633624D01*
X154966784Y-172701544D01*
X155114354Y-172800147D01*
X155239853Y-172925646D01*
X155338456Y-173073216D01*
X155406376Y-173237188D01*
X155441000Y-173411259D01*
X155441000Y-173588741D01*
X155406376Y-173762812D01*
X155338456Y-173926784D01*
X155239853Y-174074354D01*
X155114354Y-174199853D01*
X154966784Y-174298456D01*
X154802812Y-174366376D01*
X154653512Y-174396073D01*
X154628742Y-174401000D01*
X154451258Y-174401000D01*
X154426488Y-174396073D01*
X154277188Y-174366376D01*
X154113216Y-174298456D01*
X153965646Y-174199853D01*
X153840147Y-174074354D01*
X153741544Y-173926784D01*
X153673624Y-173762812D01*
X153639000Y-173588741D01*
X153639000Y-173411259D01*
X153673624Y-173237188D01*
X153741544Y-173073216D01*
X153840147Y-172925646D01*
X153965646Y-172800147D01*
X154113216Y-172701544D01*
X154277188Y-172633624D01*
X154426488Y-172603927D01*
X154451258Y-172599000D01*
X154628742Y-172599000D01*
X154653512Y-172603927D01*
G37*
G36*
X157193512Y-172603927D02*
G01*
X157342812Y-172633624D01*
X157506784Y-172701544D01*
X157654354Y-172800147D01*
X157779853Y-172925646D01*
X157878456Y-173073216D01*
X157946376Y-173237188D01*
X157981000Y-173411259D01*
X157981000Y-173588741D01*
X157946376Y-173762812D01*
X157878456Y-173926784D01*
X157779853Y-174074354D01*
X157654354Y-174199853D01*
X157506784Y-174298456D01*
X157342812Y-174366376D01*
X157193512Y-174396073D01*
X157168742Y-174401000D01*
X156991258Y-174401000D01*
X156966488Y-174396073D01*
X156817188Y-174366376D01*
X156653216Y-174298456D01*
X156505646Y-174199853D01*
X156380147Y-174074354D01*
X156281544Y-173926784D01*
X156213624Y-173762812D01*
X156179000Y-173588741D01*
X156179000Y-173411259D01*
X156213624Y-173237188D01*
X156281544Y-173073216D01*
X156380147Y-172925646D01*
X156505646Y-172800147D01*
X156653216Y-172701544D01*
X156817188Y-172633624D01*
X156966488Y-172603927D01*
X156991258Y-172599000D01*
X157168742Y-172599000D01*
X157193512Y-172603927D01*
G37*
G36*
X162901000Y-174401000D02*
G01*
X161099000Y-174401000D01*
X161099000Y-172599000D01*
X162901000Y-172599000D01*
X162901000Y-174401000D01*
G37*
G36*
X164653512Y-172603927D02*
G01*
X164802812Y-172633624D01*
X164966784Y-172701544D01*
X165114354Y-172800147D01*
X165239853Y-172925646D01*
X165338456Y-173073216D01*
X165406376Y-173237188D01*
X165441000Y-173411259D01*
X165441000Y-173588741D01*
X165406376Y-173762812D01*
X165338456Y-173926784D01*
X165239853Y-174074354D01*
X165114354Y-174199853D01*
X164966784Y-174298456D01*
X164802812Y-174366376D01*
X164653512Y-174396073D01*
X164628742Y-174401000D01*
X164451258Y-174401000D01*
X164426488Y-174396073D01*
X164277188Y-174366376D01*
X164113216Y-174298456D01*
X163965646Y-174199853D01*
X163840147Y-174074354D01*
X163741544Y-173926784D01*
X163673624Y-173762812D01*
X163639000Y-173588741D01*
X163639000Y-173411259D01*
X163673624Y-173237188D01*
X163741544Y-173073216D01*
X163840147Y-172925646D01*
X163965646Y-172800147D01*
X164113216Y-172701544D01*
X164277188Y-172633624D01*
X164426488Y-172603927D01*
X164451258Y-172599000D01*
X164628742Y-172599000D01*
X164653512Y-172603927D01*
G37*
G36*
X167193512Y-172603927D02*
G01*
X167342812Y-172633624D01*
X167506784Y-172701544D01*
X167654354Y-172800147D01*
X167779853Y-172925646D01*
X167878456Y-173073216D01*
X167946376Y-173237188D01*
X167981000Y-173411259D01*
X167981000Y-173588741D01*
X167946376Y-173762812D01*
X167878456Y-173926784D01*
X167779853Y-174074354D01*
X167654354Y-174199853D01*
X167506784Y-174298456D01*
X167342812Y-174366376D01*
X167193512Y-174396073D01*
X167168742Y-174401000D01*
X166991258Y-174401000D01*
X166966488Y-174396073D01*
X166817188Y-174366376D01*
X166653216Y-174298456D01*
X166505646Y-174199853D01*
X166380147Y-174074354D01*
X166281544Y-173926784D01*
X166213624Y-173762812D01*
X166179000Y-173588741D01*
X166179000Y-173411259D01*
X166213624Y-173237188D01*
X166281544Y-173073216D01*
X166380147Y-172925646D01*
X166505646Y-172800147D01*
X166653216Y-172701544D01*
X166817188Y-172633624D01*
X166966488Y-172603927D01*
X166991258Y-172599000D01*
X167168742Y-172599000D01*
X167193512Y-172603927D01*
G37*
G36*
X169733512Y-172603927D02*
G01*
X169882812Y-172633624D01*
X170046784Y-172701544D01*
X170194354Y-172800147D01*
X170319853Y-172925646D01*
X170418456Y-173073216D01*
X170486376Y-173237188D01*
X170521000Y-173411259D01*
X170521000Y-173588741D01*
X170486376Y-173762812D01*
X170418456Y-173926784D01*
X170319853Y-174074354D01*
X170194354Y-174199853D01*
X170046784Y-174298456D01*
X169882812Y-174366376D01*
X169733512Y-174396073D01*
X169708742Y-174401000D01*
X169531258Y-174401000D01*
X169506488Y-174396073D01*
X169357188Y-174366376D01*
X169193216Y-174298456D01*
X169045646Y-174199853D01*
X168920147Y-174074354D01*
X168821544Y-173926784D01*
X168753624Y-173762812D01*
X168719000Y-173588741D01*
X168719000Y-173411259D01*
X168753624Y-173237188D01*
X168821544Y-173073216D01*
X168920147Y-172925646D01*
X169045646Y-172800147D01*
X169193216Y-172701544D01*
X169357188Y-172633624D01*
X169506488Y-172603927D01*
X169531258Y-172599000D01*
X169708742Y-172599000D01*
X169733512Y-172603927D01*
G37*
G36*
X209632585Y-171228802D02*
G01*
X209782410Y-171258604D01*
X210064674Y-171375521D01*
X210318705Y-171545259D01*
X210534741Y-171761295D01*
X210704479Y-172015326D01*
X210821396Y-172297590D01*
X210821396Y-172297591D01*
X210881000Y-172597239D01*
X210881000Y-172902761D01*
X210851198Y-173052585D01*
X210821396Y-173202410D01*
X210704479Y-173484674D01*
X210534741Y-173738705D01*
X210318705Y-173954741D01*
X210064674Y-174124479D01*
X209782410Y-174241396D01*
X209674749Y-174262811D01*
X209482761Y-174301000D01*
X209177239Y-174301000D01*
X208985251Y-174262811D01*
X208877590Y-174241396D01*
X208595326Y-174124479D01*
X208341295Y-173954741D01*
X208125259Y-173738705D01*
X207955521Y-173484674D01*
X207838604Y-173202410D01*
X207808802Y-173052585D01*
X207779000Y-172902761D01*
X207779000Y-172597239D01*
X207838604Y-172297591D01*
X207838604Y-172297590D01*
X207955521Y-172015326D01*
X208125259Y-171761295D01*
X208341295Y-171545259D01*
X208595326Y-171375521D01*
X208877590Y-171258604D01*
X209027415Y-171228802D01*
X209177239Y-171199000D01*
X209482761Y-171199000D01*
X209632585Y-171228802D01*
G37*
G36*
X205801000Y-174301000D02*
G01*
X202699000Y-174301000D01*
X202699000Y-171199000D01*
X205801000Y-171199000D01*
X205801000Y-174301000D01*
G37*
G36*
X192051000Y-169051000D02*
G01*
X189949000Y-169051000D01*
X189949000Y-166949000D01*
X192051000Y-166949000D01*
X192051000Y-169051000D01*
G37*
G36*
X178606564Y-166989389D02*
G01*
X178797833Y-167068615D01*
X178797835Y-167068616D01*
X178947683Y-167168741D01*
X178969973Y-167183635D01*
X179116365Y-167330027D01*
X179231385Y-167502167D01*
X179310611Y-167693436D01*
X179351000Y-167896484D01*
X179351000Y-168103516D01*
X179310611Y-168306564D01*
X179231385Y-168497833D01*
X179231384Y-168497835D01*
X179116365Y-168669973D01*
X178969973Y-168816365D01*
X178797835Y-168931384D01*
X178797834Y-168931385D01*
X178797833Y-168931385D01*
X178606564Y-169010611D01*
X178403516Y-169051000D01*
X178196484Y-169051000D01*
X177993436Y-169010611D01*
X177802167Y-168931385D01*
X177802166Y-168931385D01*
X177802165Y-168931384D01*
X177630027Y-168816365D01*
X177483635Y-168669973D01*
X177368616Y-168497835D01*
X177368615Y-168497833D01*
X177289389Y-168306564D01*
X177249000Y-168103516D01*
X177249000Y-167896484D01*
X177289389Y-167693436D01*
X177368615Y-167502167D01*
X177483635Y-167330027D01*
X177630027Y-167183635D01*
X177652317Y-167168741D01*
X177802165Y-167068616D01*
X177802167Y-167068615D01*
X177993436Y-166989389D01*
X178196484Y-166949000D01*
X178403516Y-166949000D01*
X178606564Y-166989389D01*
G37*
G36*
X141113512Y-166183927D02*
G01*
X141262812Y-166213624D01*
X141426784Y-166281544D01*
X141574354Y-166380147D01*
X141699853Y-166505646D01*
X141798456Y-166653216D01*
X141866376Y-166817188D01*
X141892594Y-166949000D01*
X141901000Y-166991258D01*
X141901000Y-167168742D01*
X141896073Y-167193512D01*
X141866376Y-167342812D01*
X141798456Y-167506784D01*
X141699853Y-167654354D01*
X141574354Y-167779853D01*
X141426784Y-167878456D01*
X141262812Y-167946376D01*
X141113512Y-167976073D01*
X141088742Y-167981000D01*
X140911258Y-167981000D01*
X140886488Y-167976073D01*
X140737188Y-167946376D01*
X140573216Y-167878456D01*
X140425646Y-167779853D01*
X140300147Y-167654354D01*
X140201544Y-167506784D01*
X140133624Y-167342812D01*
X140103927Y-167193512D01*
X140099000Y-167168742D01*
X140099000Y-166991258D01*
X140107406Y-166949000D01*
X140133624Y-166817188D01*
X140201544Y-166653216D01*
X140300147Y-166505646D01*
X140425646Y-166380147D01*
X140573216Y-166281544D01*
X140737188Y-166213624D01*
X140886488Y-166183927D01*
X140911258Y-166179000D01*
X141088742Y-166179000D01*
X141113512Y-166183927D01*
G37*
G36*
X220551000Y-167551000D02*
G01*
X217449000Y-167551000D01*
X217449000Y-164449000D01*
X220551000Y-164449000D01*
X220551000Y-167551000D01*
G37*
G36*
X191306564Y-164449389D02*
G01*
X191497833Y-164528615D01*
X191497835Y-164528616D01*
X191669973Y-164643635D01*
X191816365Y-164790027D01*
X191858283Y-164852761D01*
X191931385Y-164962167D01*
X192010611Y-165153436D01*
X192051000Y-165356484D01*
X192051000Y-165563516D01*
X192010611Y-165766564D01*
X191953376Y-165904741D01*
X191931384Y-165957835D01*
X191816365Y-166129973D01*
X191669973Y-166276365D01*
X191497835Y-166391384D01*
X191497834Y-166391385D01*
X191497833Y-166391385D01*
X191306564Y-166470611D01*
X191103516Y-166511000D01*
X190896484Y-166511000D01*
X190693436Y-166470611D01*
X190502167Y-166391385D01*
X190502166Y-166391385D01*
X190502165Y-166391384D01*
X190330027Y-166276365D01*
X190183635Y-166129973D01*
X190068616Y-165957835D01*
X190046624Y-165904741D01*
X189989389Y-165766564D01*
X189949000Y-165563516D01*
X189949000Y-165356484D01*
X189989389Y-165153436D01*
X190068615Y-164962167D01*
X190141718Y-164852761D01*
X190183635Y-164790027D01*
X190330027Y-164643635D01*
X190502165Y-164528616D01*
X190502167Y-164528615D01*
X190693436Y-164449389D01*
X190896484Y-164409000D01*
X191103516Y-164409000D01*
X191306564Y-164449389D01*
G37*
G36*
X178606564Y-164449389D02*
G01*
X178797833Y-164528615D01*
X178797835Y-164528616D01*
X178969973Y-164643635D01*
X179116365Y-164790027D01*
X179158283Y-164852761D01*
X179231385Y-164962167D01*
X179310611Y-165153436D01*
X179351000Y-165356484D01*
X179351000Y-165563516D01*
X179310611Y-165766564D01*
X179253376Y-165904741D01*
X179231384Y-165957835D01*
X179116365Y-166129973D01*
X178969973Y-166276365D01*
X178797835Y-166391384D01*
X178797834Y-166391385D01*
X178797833Y-166391385D01*
X178606564Y-166470611D01*
X178403516Y-166511000D01*
X178196484Y-166511000D01*
X177993436Y-166470611D01*
X177802167Y-166391385D01*
X177802166Y-166391385D01*
X177802165Y-166391384D01*
X177630027Y-166276365D01*
X177483635Y-166129973D01*
X177368616Y-165957835D01*
X177346624Y-165904741D01*
X177289389Y-165766564D01*
X177249000Y-165563516D01*
X177249000Y-165356484D01*
X177289389Y-165153436D01*
X177368615Y-164962167D01*
X177441718Y-164852761D01*
X177483635Y-164790027D01*
X177630027Y-164643635D01*
X177802165Y-164528616D01*
X177802167Y-164528615D01*
X177993436Y-164449389D01*
X178196484Y-164409000D01*
X178403516Y-164409000D01*
X178606564Y-164449389D01*
G37*
G36*
X200802585Y-163178802D02*
G01*
X200952410Y-163208604D01*
X201234674Y-163325521D01*
X201488705Y-163495259D01*
X201704741Y-163711295D01*
X201874479Y-163965326D01*
X201991396Y-164247590D01*
X202021198Y-164397415D01*
X202047296Y-164528616D01*
X202051000Y-164547240D01*
X202051000Y-164852760D01*
X201991396Y-165152410D01*
X201874479Y-165434674D01*
X201704741Y-165688705D01*
X201488705Y-165904741D01*
X201234674Y-166074479D01*
X200952410Y-166191396D01*
X200840662Y-166213624D01*
X200652761Y-166251000D01*
X200347239Y-166251000D01*
X200159338Y-166213624D01*
X200047590Y-166191396D01*
X199765326Y-166074479D01*
X199511295Y-165904741D01*
X199295259Y-165688705D01*
X199125521Y-165434674D01*
X199008604Y-165152410D01*
X198949000Y-164852760D01*
X198949000Y-164547240D01*
X198952705Y-164528616D01*
X198978802Y-164397415D01*
X199008604Y-164247590D01*
X199125521Y-163965326D01*
X199295259Y-163711295D01*
X199511295Y-163495259D01*
X199765326Y-163325521D01*
X200047590Y-163208604D01*
X200197415Y-163178802D01*
X200347239Y-163149000D01*
X200652761Y-163149000D01*
X200802585Y-163178802D01*
G37*
G36*
X212802585Y-163178802D02*
G01*
X212952410Y-163208604D01*
X213234674Y-163325521D01*
X213488705Y-163495259D01*
X213704741Y-163711295D01*
X213874479Y-163965326D01*
X213991396Y-164247590D01*
X214021198Y-164397415D01*
X214047296Y-164528616D01*
X214051000Y-164547240D01*
X214051000Y-164852760D01*
X213991396Y-165152410D01*
X213874479Y-165434674D01*
X213704741Y-165688705D01*
X213488705Y-165904741D01*
X213234674Y-166074479D01*
X212952410Y-166191396D01*
X212840662Y-166213624D01*
X212652761Y-166251000D01*
X212347239Y-166251000D01*
X212159338Y-166213624D01*
X212047590Y-166191396D01*
X211765326Y-166074479D01*
X211511295Y-165904741D01*
X211295259Y-165688705D01*
X211125521Y-165434674D01*
X211008604Y-165152410D01*
X210949000Y-164852760D01*
X210949000Y-164547240D01*
X210952705Y-164528616D01*
X210978802Y-164397415D01*
X211008604Y-164247590D01*
X211125521Y-163965326D01*
X211295259Y-163711295D01*
X211511295Y-163495259D01*
X211765326Y-163325521D01*
X212047590Y-163208604D01*
X212197415Y-163178802D01*
X212347239Y-163149000D01*
X212652761Y-163149000D01*
X212802585Y-163178802D01*
G37*
G36*
X141113512Y-163643927D02*
G01*
X141262812Y-163673624D01*
X141426784Y-163741544D01*
X141574354Y-163840147D01*
X141699853Y-163965646D01*
X141798456Y-164113216D01*
X141866376Y-164277188D01*
X141892594Y-164409000D01*
X141901000Y-164451258D01*
X141901000Y-164628742D01*
X141896073Y-164653512D01*
X141866376Y-164802812D01*
X141798456Y-164966784D01*
X141699853Y-165114354D01*
X141574354Y-165239853D01*
X141426784Y-165338456D01*
X141262812Y-165406376D01*
X141113512Y-165436073D01*
X141088742Y-165441000D01*
X140911258Y-165441000D01*
X140886488Y-165436073D01*
X140737188Y-165406376D01*
X140573216Y-165338456D01*
X140425646Y-165239853D01*
X140300147Y-165114354D01*
X140201544Y-164966784D01*
X140133624Y-164802812D01*
X140103927Y-164653512D01*
X140099000Y-164628742D01*
X140099000Y-164451258D01*
X140107406Y-164409000D01*
X140133624Y-164277188D01*
X140201544Y-164113216D01*
X140300147Y-163965646D01*
X140425646Y-163840147D01*
X140573216Y-163741544D01*
X140737188Y-163673624D01*
X140886488Y-163643927D01*
X140911258Y-163639000D01*
X141088742Y-163639000D01*
X141113512Y-163643927D01*
G37*
G36*
X191306564Y-161909389D02*
G01*
X191497833Y-161988615D01*
X191497835Y-161988616D01*
X191636120Y-162081015D01*
X191669973Y-162103635D01*
X191816365Y-162250027D01*
X191931385Y-162422167D01*
X192010611Y-162613436D01*
X192051000Y-162816484D01*
X192051000Y-163023516D01*
X192010611Y-163226564D01*
X191931385Y-163417833D01*
X191931384Y-163417835D01*
X191816365Y-163589973D01*
X191669973Y-163736365D01*
X191497835Y-163851384D01*
X191497834Y-163851385D01*
X191497833Y-163851385D01*
X191306564Y-163930611D01*
X191103516Y-163971000D01*
X190896484Y-163971000D01*
X190693436Y-163930611D01*
X190502167Y-163851385D01*
X190502166Y-163851385D01*
X190502165Y-163851384D01*
X190330027Y-163736365D01*
X190183635Y-163589973D01*
X190068616Y-163417835D01*
X190068615Y-163417833D01*
X189989389Y-163226564D01*
X189949000Y-163023516D01*
X189949000Y-162816484D01*
X189989389Y-162613436D01*
X190068615Y-162422167D01*
X190183635Y-162250027D01*
X190330027Y-162103635D01*
X190363880Y-162081015D01*
X190502165Y-161988616D01*
X190502167Y-161988615D01*
X190693436Y-161909389D01*
X190896484Y-161869000D01*
X191103516Y-161869000D01*
X191306564Y-161909389D01*
G37*
G36*
X178606564Y-161909389D02*
G01*
X178797833Y-161988615D01*
X178797835Y-161988616D01*
X178936120Y-162081015D01*
X178969973Y-162103635D01*
X179116365Y-162250027D01*
X179231385Y-162422167D01*
X179310611Y-162613436D01*
X179351000Y-162816484D01*
X179351000Y-163023516D01*
X179310611Y-163226564D01*
X179231385Y-163417833D01*
X179231384Y-163417835D01*
X179116365Y-163589973D01*
X178969973Y-163736365D01*
X178797835Y-163851384D01*
X178797834Y-163851385D01*
X178797833Y-163851385D01*
X178606564Y-163930611D01*
X178403516Y-163971000D01*
X178196484Y-163971000D01*
X177993436Y-163930611D01*
X177802167Y-163851385D01*
X177802166Y-163851385D01*
X177802165Y-163851384D01*
X177630027Y-163736365D01*
X177483635Y-163589973D01*
X177368616Y-163417835D01*
X177368615Y-163417833D01*
X177289389Y-163226564D01*
X177249000Y-163023516D01*
X177249000Y-162816484D01*
X177289389Y-162613436D01*
X177368615Y-162422167D01*
X177483635Y-162250027D01*
X177630027Y-162103635D01*
X177663880Y-162081015D01*
X177802165Y-161988616D01*
X177802167Y-161988615D01*
X177993436Y-161909389D01*
X178196484Y-161869000D01*
X178403516Y-161869000D01*
X178606564Y-161909389D01*
G37*
G36*
X141901000Y-162901000D02*
G01*
X140099000Y-162901000D01*
X140099000Y-161099000D01*
X141901000Y-161099000D01*
X141901000Y-162901000D01*
G37*
G36*
X219302585Y-159398802D02*
G01*
X219452410Y-159428604D01*
X219734674Y-159545521D01*
X219988705Y-159715259D01*
X220204741Y-159931295D01*
X220374479Y-160185326D01*
X220491396Y-160467590D01*
X220491396Y-160467591D01*
X220551000Y-160767239D01*
X220551000Y-161072761D01*
X220521198Y-161222585D01*
X220491396Y-161372410D01*
X220374479Y-161654674D01*
X220204741Y-161908705D01*
X219988705Y-162124741D01*
X219734674Y-162294479D01*
X219452410Y-162411396D01*
X219398270Y-162422165D01*
X219152761Y-162471000D01*
X218847239Y-162471000D01*
X218601730Y-162422165D01*
X218547590Y-162411396D01*
X218265326Y-162294479D01*
X218011295Y-162124741D01*
X217795259Y-161908705D01*
X217625521Y-161654674D01*
X217508604Y-161372410D01*
X217478802Y-161222585D01*
X217449000Y-161072761D01*
X217449000Y-160767239D01*
X217508604Y-160467591D01*
X217508604Y-160467590D01*
X217625521Y-160185326D01*
X217795259Y-159931295D01*
X218011295Y-159715259D01*
X218265326Y-159545521D01*
X218547590Y-159428604D01*
X218697415Y-159398802D01*
X218847239Y-159369000D01*
X219152761Y-159369000D01*
X219302585Y-159398802D01*
G37*
G36*
X158448228Y-160601703D02*
G01*
X158603100Y-160665853D01*
X158742481Y-160758985D01*
X158861015Y-160877519D01*
X158954147Y-161016900D01*
X159018297Y-161171772D01*
X159051000Y-161336184D01*
X159051000Y-161503816D01*
X159018297Y-161668228D01*
X158954147Y-161823100D01*
X158861015Y-161962481D01*
X158742481Y-162081015D01*
X158603100Y-162174147D01*
X158448228Y-162238297D01*
X158283816Y-162271000D01*
X158116184Y-162271000D01*
X157951772Y-162238297D01*
X157796900Y-162174147D01*
X157657519Y-162081015D01*
X157538985Y-161962481D01*
X157445853Y-161823100D01*
X157381703Y-161668228D01*
X157349000Y-161503816D01*
X157349000Y-161336184D01*
X157381703Y-161171772D01*
X157445853Y-161016900D01*
X157538985Y-160877519D01*
X157657519Y-160758985D01*
X157796900Y-160665853D01*
X157951772Y-160601703D01*
X158116184Y-160569000D01*
X158283816Y-160569000D01*
X158448228Y-160601703D01*
G37*
G36*
X151248228Y-160551703D02*
G01*
X151403100Y-160615853D01*
X151542481Y-160708985D01*
X151661015Y-160827519D01*
X151754147Y-160966900D01*
X151818297Y-161121772D01*
X151851000Y-161286184D01*
X151851000Y-161453816D01*
X151818297Y-161618228D01*
X151754147Y-161773100D01*
X151661015Y-161912481D01*
X151542481Y-162031015D01*
X151403100Y-162124147D01*
X151248228Y-162188297D01*
X151083816Y-162221000D01*
X150916184Y-162221000D01*
X150751772Y-162188297D01*
X150596900Y-162124147D01*
X150457519Y-162031015D01*
X150338985Y-161912481D01*
X150245853Y-161773100D01*
X150181703Y-161618228D01*
X150149000Y-161453816D01*
X150149000Y-161286184D01*
X150181703Y-161121772D01*
X150245853Y-160966900D01*
X150338985Y-160827519D01*
X150457519Y-160708985D01*
X150596900Y-160615853D01*
X150751772Y-160551703D01*
X150916184Y-160519000D01*
X151083816Y-160519000D01*
X151248228Y-160551703D01*
G37*
G36*
X154748228Y-160551703D02*
G01*
X154903100Y-160615853D01*
X155042481Y-160708985D01*
X155161015Y-160827519D01*
X155254147Y-160966900D01*
X155318297Y-161121772D01*
X155351000Y-161286184D01*
X155351000Y-161453816D01*
X155318297Y-161618228D01*
X155254147Y-161773100D01*
X155161015Y-161912481D01*
X155042481Y-162031015D01*
X154903100Y-162124147D01*
X154748228Y-162188297D01*
X154583816Y-162221000D01*
X154416184Y-162221000D01*
X154251772Y-162188297D01*
X154096900Y-162124147D01*
X153957519Y-162031015D01*
X153838985Y-161912481D01*
X153745853Y-161773100D01*
X153681703Y-161618228D01*
X153649000Y-161453816D01*
X153649000Y-161286184D01*
X153681703Y-161121772D01*
X153745853Y-160966900D01*
X153838985Y-160827519D01*
X153957519Y-160708985D01*
X154096900Y-160615853D01*
X154251772Y-160551703D01*
X154416184Y-160519000D01*
X154583816Y-160519000D01*
X154748228Y-160551703D01*
G37*
G36*
X178606564Y-159369389D02*
G01*
X178797833Y-159448615D01*
X178797835Y-159448616D01*
X178942863Y-159545521D01*
X178969973Y-159563635D01*
X179116365Y-159710027D01*
X179231385Y-159882167D01*
X179310611Y-160073436D01*
X179351000Y-160276484D01*
X179351000Y-160483516D01*
X179310611Y-160686564D01*
X179231385Y-160877833D01*
X179231384Y-160877835D01*
X179116365Y-161049973D01*
X178969973Y-161196365D01*
X178797835Y-161311384D01*
X178797834Y-161311385D01*
X178797833Y-161311385D01*
X178606564Y-161390611D01*
X178403516Y-161431000D01*
X178196484Y-161431000D01*
X177993436Y-161390611D01*
X177802167Y-161311385D01*
X177802166Y-161311385D01*
X177802165Y-161311384D01*
X177630027Y-161196365D01*
X177483635Y-161049973D01*
X177368616Y-160877835D01*
X177368615Y-160877833D01*
X177289389Y-160686564D01*
X177249000Y-160483516D01*
X177249000Y-160276484D01*
X177289389Y-160073436D01*
X177368615Y-159882167D01*
X177483635Y-159710027D01*
X177630027Y-159563635D01*
X177657137Y-159545521D01*
X177802165Y-159448616D01*
X177802167Y-159448615D01*
X177993436Y-159369389D01*
X178196484Y-159329000D01*
X178403516Y-159329000D01*
X178606564Y-159369389D01*
G37*
G36*
X191306564Y-159369389D02*
G01*
X191497833Y-159448615D01*
X191497835Y-159448616D01*
X191642863Y-159545521D01*
X191669973Y-159563635D01*
X191816365Y-159710027D01*
X191931385Y-159882167D01*
X192010611Y-160073436D01*
X192051000Y-160276484D01*
X192051000Y-160483516D01*
X192010611Y-160686564D01*
X191931385Y-160877833D01*
X191931384Y-160877835D01*
X191816365Y-161049973D01*
X191669973Y-161196365D01*
X191497835Y-161311384D01*
X191497834Y-161311385D01*
X191497833Y-161311385D01*
X191306564Y-161390611D01*
X191103516Y-161431000D01*
X190896484Y-161431000D01*
X190693436Y-161390611D01*
X190502167Y-161311385D01*
X190502166Y-161311385D01*
X190502165Y-161311384D01*
X190330027Y-161196365D01*
X190183635Y-161049973D01*
X190068616Y-160877835D01*
X190068615Y-160877833D01*
X189989389Y-160686564D01*
X189949000Y-160483516D01*
X189949000Y-160276484D01*
X189989389Y-160073436D01*
X190068615Y-159882167D01*
X190183635Y-159710027D01*
X190330027Y-159563635D01*
X190357137Y-159545521D01*
X190502165Y-159448616D01*
X190502167Y-159448615D01*
X190693436Y-159369389D01*
X190896484Y-159329000D01*
X191103516Y-159329000D01*
X191306564Y-159369389D01*
G37*
G36*
X141901000Y-158901000D02*
G01*
X140099000Y-158901000D01*
X140099000Y-157099000D01*
X141901000Y-157099000D01*
X141901000Y-158901000D01*
G37*
G36*
X191306564Y-156829389D02*
G01*
X191497833Y-156908615D01*
X191497835Y-156908616D01*
X191669973Y-157023635D01*
X191816365Y-157170027D01*
X191931385Y-157342167D01*
X192010611Y-157533436D01*
X192051000Y-157736484D01*
X192051000Y-157943516D01*
X192010611Y-158146564D01*
X191931385Y-158337833D01*
X191931384Y-158337835D01*
X191816365Y-158509973D01*
X191669973Y-158656365D01*
X191497835Y-158771384D01*
X191497834Y-158771385D01*
X191497833Y-158771385D01*
X191306564Y-158850611D01*
X191103516Y-158891000D01*
X190896484Y-158891000D01*
X190693436Y-158850611D01*
X190502167Y-158771385D01*
X190502166Y-158771385D01*
X190502165Y-158771384D01*
X190330027Y-158656365D01*
X190183635Y-158509973D01*
X190068616Y-158337835D01*
X190068615Y-158337833D01*
X189989389Y-158146564D01*
X189949000Y-157943516D01*
X189949000Y-157736484D01*
X189989389Y-157533436D01*
X190068615Y-157342167D01*
X190183635Y-157170027D01*
X190330027Y-157023635D01*
X190502165Y-156908616D01*
X190502167Y-156908615D01*
X190693436Y-156829389D01*
X190896484Y-156789000D01*
X191103516Y-156789000D01*
X191306564Y-156829389D01*
G37*
G36*
X178606564Y-156829389D02*
G01*
X178797833Y-156908615D01*
X178797835Y-156908616D01*
X178969973Y-157023635D01*
X179116365Y-157170027D01*
X179231385Y-157342167D01*
X179310611Y-157533436D01*
X179351000Y-157736484D01*
X179351000Y-157943516D01*
X179310611Y-158146564D01*
X179231385Y-158337833D01*
X179231384Y-158337835D01*
X179116365Y-158509973D01*
X178969973Y-158656365D01*
X178797835Y-158771384D01*
X178797834Y-158771385D01*
X178797833Y-158771385D01*
X178606564Y-158850611D01*
X178403516Y-158891000D01*
X178196484Y-158891000D01*
X177993436Y-158850611D01*
X177802167Y-158771385D01*
X177802166Y-158771385D01*
X177802165Y-158771384D01*
X177630027Y-158656365D01*
X177483635Y-158509973D01*
X177368616Y-158337835D01*
X177368615Y-158337833D01*
X177289389Y-158146564D01*
X177249000Y-157943516D01*
X177249000Y-157736484D01*
X177289389Y-157533436D01*
X177368615Y-157342167D01*
X177483635Y-157170027D01*
X177630027Y-157023635D01*
X177802165Y-156908616D01*
X177802167Y-156908615D01*
X177993436Y-156829389D01*
X178196484Y-156789000D01*
X178403516Y-156789000D01*
X178606564Y-156829389D01*
G37*
G36*
X141113512Y-154563927D02*
G01*
X141262812Y-154593624D01*
X141426784Y-154661544D01*
X141574354Y-154760147D01*
X141699853Y-154885646D01*
X141798456Y-155033216D01*
X141866376Y-155197188D01*
X141901000Y-155371259D01*
X141901000Y-155548741D01*
X141866376Y-155722812D01*
X141798456Y-155886784D01*
X141699853Y-156034354D01*
X141574354Y-156159853D01*
X141426784Y-156258456D01*
X141262812Y-156326376D01*
X141113512Y-156356073D01*
X141088742Y-156361000D01*
X140911258Y-156361000D01*
X140886488Y-156356073D01*
X140737188Y-156326376D01*
X140573216Y-156258456D01*
X140425646Y-156159853D01*
X140300147Y-156034354D01*
X140201544Y-155886784D01*
X140133624Y-155722812D01*
X140099000Y-155548741D01*
X140099000Y-155371259D01*
X140133624Y-155197188D01*
X140201544Y-155033216D01*
X140300147Y-154885646D01*
X140425646Y-154760147D01*
X140573216Y-154661544D01*
X140737188Y-154593624D01*
X140886488Y-154563927D01*
X140911258Y-154559000D01*
X141088742Y-154559000D01*
X141113512Y-154563927D01*
G37*
G36*
X178606564Y-154289389D02*
G01*
X178797833Y-154368615D01*
X178797835Y-154368616D01*
X178936120Y-154461015D01*
X178969973Y-154483635D01*
X179116365Y-154630027D01*
X179231385Y-154802167D01*
X179310611Y-154993436D01*
X179351000Y-155196484D01*
X179351000Y-155403516D01*
X179310611Y-155606564D01*
X179231385Y-155797833D01*
X179231384Y-155797835D01*
X179116365Y-155969973D01*
X178969973Y-156116365D01*
X178797835Y-156231384D01*
X178797834Y-156231385D01*
X178797833Y-156231385D01*
X178606564Y-156310611D01*
X178403516Y-156351000D01*
X178196484Y-156351000D01*
X177993436Y-156310611D01*
X177802167Y-156231385D01*
X177802166Y-156231385D01*
X177802165Y-156231384D01*
X177630027Y-156116365D01*
X177483635Y-155969973D01*
X177368616Y-155797835D01*
X177368615Y-155797833D01*
X177289389Y-155606564D01*
X177249000Y-155403516D01*
X177249000Y-155196484D01*
X177289389Y-154993436D01*
X177368615Y-154802167D01*
X177483635Y-154630027D01*
X177630027Y-154483635D01*
X177663880Y-154461015D01*
X177802165Y-154368616D01*
X177802167Y-154368615D01*
X177993436Y-154289389D01*
X178196484Y-154249000D01*
X178403516Y-154249000D01*
X178606564Y-154289389D01*
G37*
G36*
X191306564Y-154289389D02*
G01*
X191497833Y-154368615D01*
X191497835Y-154368616D01*
X191636120Y-154461015D01*
X191669973Y-154483635D01*
X191816365Y-154630027D01*
X191931385Y-154802167D01*
X192010611Y-154993436D01*
X192051000Y-155196484D01*
X192051000Y-155403516D01*
X192010611Y-155606564D01*
X191931385Y-155797833D01*
X191931384Y-155797835D01*
X191816365Y-155969973D01*
X191669973Y-156116365D01*
X191497835Y-156231384D01*
X191497834Y-156231385D01*
X191497833Y-156231385D01*
X191306564Y-156310611D01*
X191103516Y-156351000D01*
X190896484Y-156351000D01*
X190693436Y-156310611D01*
X190502167Y-156231385D01*
X190502166Y-156231385D01*
X190502165Y-156231384D01*
X190330027Y-156116365D01*
X190183635Y-155969973D01*
X190068616Y-155797835D01*
X190068615Y-155797833D01*
X189989389Y-155606564D01*
X189949000Y-155403516D01*
X189949000Y-155196484D01*
X189989389Y-154993436D01*
X190068615Y-154802167D01*
X190183635Y-154630027D01*
X190330027Y-154483635D01*
X190363880Y-154461015D01*
X190502165Y-154368616D01*
X190502167Y-154368615D01*
X190693436Y-154289389D01*
X190896484Y-154249000D01*
X191103516Y-154249000D01*
X191306564Y-154289389D01*
G37*
G36*
X220551000Y-155051000D02*
G01*
X217449000Y-155051000D01*
X217449000Y-151949000D01*
X220551000Y-151949000D01*
X220551000Y-155051000D01*
G37*
G36*
X158448228Y-152981703D02*
G01*
X158603100Y-153045853D01*
X158742481Y-153138985D01*
X158861015Y-153257519D01*
X158954147Y-153396900D01*
X159018297Y-153551772D01*
X159051000Y-153716184D01*
X159051000Y-153883816D01*
X159018297Y-154048228D01*
X158954147Y-154203100D01*
X158861015Y-154342481D01*
X158742481Y-154461015D01*
X158603100Y-154554147D01*
X158448228Y-154618297D01*
X158283816Y-154651000D01*
X158116184Y-154651000D01*
X157951772Y-154618297D01*
X157796900Y-154554147D01*
X157657519Y-154461015D01*
X157538985Y-154342481D01*
X157445853Y-154203100D01*
X157381703Y-154048228D01*
X157349000Y-153883816D01*
X157349000Y-153716184D01*
X157381703Y-153551772D01*
X157445853Y-153396900D01*
X157538985Y-153257519D01*
X157657519Y-153138985D01*
X157796900Y-153045853D01*
X157951772Y-152981703D01*
X158116184Y-152949000D01*
X158283816Y-152949000D01*
X158448228Y-152981703D01*
G37*
G36*
X154748228Y-152931703D02*
G01*
X154903100Y-152995853D01*
X155042481Y-153088985D01*
X155161015Y-153207519D01*
X155254147Y-153346900D01*
X155318297Y-153501772D01*
X155351000Y-153666184D01*
X155351000Y-153833816D01*
X155318297Y-153998228D01*
X155254147Y-154153100D01*
X155161015Y-154292481D01*
X155042481Y-154411015D01*
X154903100Y-154504147D01*
X154748228Y-154568297D01*
X154583816Y-154601000D01*
X154416184Y-154601000D01*
X154251772Y-154568297D01*
X154096900Y-154504147D01*
X153957519Y-154411015D01*
X153838985Y-154292481D01*
X153745853Y-154153100D01*
X153681703Y-153998228D01*
X153649000Y-153833816D01*
X153649000Y-153666184D01*
X153681703Y-153501772D01*
X153745853Y-153346900D01*
X153838985Y-153207519D01*
X153957519Y-153088985D01*
X154096900Y-152995853D01*
X154251772Y-152931703D01*
X154416184Y-152899000D01*
X154583816Y-152899000D01*
X154748228Y-152931703D01*
G37*
G36*
X151248228Y-152931703D02*
G01*
X151403100Y-152995853D01*
X151542481Y-153088985D01*
X151661015Y-153207519D01*
X151754147Y-153346900D01*
X151818297Y-153501772D01*
X151851000Y-153666184D01*
X151851000Y-153833816D01*
X151818297Y-153998228D01*
X151754147Y-154153100D01*
X151661015Y-154292481D01*
X151542481Y-154411015D01*
X151403100Y-154504147D01*
X151248228Y-154568297D01*
X151083816Y-154601000D01*
X150916184Y-154601000D01*
X150751772Y-154568297D01*
X150596900Y-154504147D01*
X150457519Y-154411015D01*
X150338985Y-154292481D01*
X150245853Y-154153100D01*
X150181703Y-153998228D01*
X150149000Y-153833816D01*
X150149000Y-153666184D01*
X150181703Y-153501772D01*
X150245853Y-153346900D01*
X150338985Y-153207519D01*
X150457519Y-153088985D01*
X150596900Y-152995853D01*
X150751772Y-152931703D01*
X150916184Y-152899000D01*
X151083816Y-152899000D01*
X151248228Y-152931703D01*
G37*
G36*
X200802585Y-150978802D02*
G01*
X200952410Y-151008604D01*
X201234674Y-151125521D01*
X201488705Y-151295259D01*
X201704741Y-151511295D01*
X201874479Y-151765326D01*
X201991396Y-152047590D01*
X202051000Y-152347240D01*
X202051000Y-152652760D01*
X201991396Y-152952410D01*
X201874479Y-153234674D01*
X201704741Y-153488705D01*
X201488705Y-153704741D01*
X201234674Y-153874479D01*
X200952410Y-153991396D01*
X200802585Y-154021198D01*
X200652761Y-154051000D01*
X200347239Y-154051000D01*
X200197415Y-154021198D01*
X200047590Y-153991396D01*
X199765326Y-153874479D01*
X199511295Y-153704741D01*
X199295259Y-153488705D01*
X199125521Y-153234674D01*
X199008604Y-152952410D01*
X198949000Y-152652760D01*
X198949000Y-152347240D01*
X199008604Y-152047590D01*
X199125521Y-151765326D01*
X199295259Y-151511295D01*
X199511295Y-151295259D01*
X199765326Y-151125521D01*
X200047590Y-151008604D01*
X200197415Y-150978802D01*
X200347239Y-150949000D01*
X200652761Y-150949000D01*
X200802585Y-150978802D01*
G37*
G36*
X212802585Y-150978802D02*
G01*
X212952410Y-151008604D01*
X213234674Y-151125521D01*
X213488705Y-151295259D01*
X213704741Y-151511295D01*
X213874479Y-151765326D01*
X213991396Y-152047590D01*
X214051000Y-152347240D01*
X214051000Y-152652760D01*
X213991396Y-152952410D01*
X213874479Y-153234674D01*
X213704741Y-153488705D01*
X213488705Y-153704741D01*
X213234674Y-153874479D01*
X212952410Y-153991396D01*
X212802585Y-154021198D01*
X212652761Y-154051000D01*
X212347239Y-154051000D01*
X212197415Y-154021198D01*
X212047590Y-153991396D01*
X211765326Y-153874479D01*
X211511295Y-153704741D01*
X211295259Y-153488705D01*
X211125521Y-153234674D01*
X211008604Y-152952410D01*
X210949000Y-152652760D01*
X210949000Y-152347240D01*
X211008604Y-152047590D01*
X211125521Y-151765326D01*
X211295259Y-151511295D01*
X211511295Y-151295259D01*
X211765326Y-151125521D01*
X212047590Y-151008604D01*
X212197415Y-150978802D01*
X212347239Y-150949000D01*
X212652761Y-150949000D01*
X212802585Y-150978802D01*
G37*
G36*
X141113512Y-152023927D02*
G01*
X141262812Y-152053624D01*
X141426784Y-152121544D01*
X141574354Y-152220147D01*
X141699853Y-152345646D01*
X141798456Y-152493216D01*
X141866376Y-152657188D01*
X141901000Y-152831259D01*
X141901000Y-153008741D01*
X141866376Y-153182812D01*
X141798456Y-153346784D01*
X141699853Y-153494354D01*
X141574354Y-153619853D01*
X141426784Y-153718456D01*
X141262812Y-153786376D01*
X141113512Y-153816073D01*
X141088742Y-153821000D01*
X140911258Y-153821000D01*
X140886488Y-153816073D01*
X140737188Y-153786376D01*
X140573216Y-153718456D01*
X140425646Y-153619853D01*
X140300147Y-153494354D01*
X140201544Y-153346784D01*
X140133624Y-153182812D01*
X140099000Y-153008741D01*
X140099000Y-152831259D01*
X140133624Y-152657188D01*
X140201544Y-152493216D01*
X140300147Y-152345646D01*
X140425646Y-152220147D01*
X140573216Y-152121544D01*
X140737188Y-152053624D01*
X140886488Y-152023927D01*
X140911258Y-152019000D01*
X141088742Y-152019000D01*
X141113512Y-152023927D01*
G37*
G36*
X191306564Y-151749389D02*
G01*
X191497833Y-151828615D01*
X191497835Y-151828616D01*
X191669973Y-151943635D01*
X191816365Y-152090027D01*
X191931385Y-152262167D01*
X192010611Y-152453436D01*
X192051000Y-152656484D01*
X192051000Y-152863516D01*
X192010611Y-153066564D01*
X191931385Y-153257833D01*
X191931384Y-153257835D01*
X191816365Y-153429973D01*
X191669973Y-153576365D01*
X191497835Y-153691384D01*
X191497834Y-153691385D01*
X191497833Y-153691385D01*
X191306564Y-153770611D01*
X191103516Y-153811000D01*
X190896484Y-153811000D01*
X190693436Y-153770611D01*
X190502167Y-153691385D01*
X190502166Y-153691385D01*
X190502165Y-153691384D01*
X190330027Y-153576365D01*
X190183635Y-153429973D01*
X190068616Y-153257835D01*
X190068615Y-153257833D01*
X189989389Y-153066564D01*
X189949000Y-152863516D01*
X189949000Y-152656484D01*
X189989389Y-152453436D01*
X190068615Y-152262167D01*
X190183635Y-152090027D01*
X190330027Y-151943635D01*
X190502165Y-151828616D01*
X190502167Y-151828615D01*
X190693436Y-151749389D01*
X190896484Y-151709000D01*
X191103516Y-151709000D01*
X191306564Y-151749389D01*
G37*
G36*
X178606564Y-151749389D02*
G01*
X178797833Y-151828615D01*
X178797835Y-151828616D01*
X178969973Y-151943635D01*
X179116365Y-152090027D01*
X179231385Y-152262167D01*
X179310611Y-152453436D01*
X179351000Y-152656484D01*
X179351000Y-152863516D01*
X179310611Y-153066564D01*
X179231385Y-153257833D01*
X179231384Y-153257835D01*
X179116365Y-153429973D01*
X178969973Y-153576365D01*
X178797835Y-153691384D01*
X178797834Y-153691385D01*
X178797833Y-153691385D01*
X178606564Y-153770611D01*
X178403516Y-153811000D01*
X178196484Y-153811000D01*
X177993436Y-153770611D01*
X177802167Y-153691385D01*
X177802166Y-153691385D01*
X177802165Y-153691384D01*
X177630027Y-153576365D01*
X177483635Y-153429973D01*
X177368616Y-153257835D01*
X177368615Y-153257833D01*
X177289389Y-153066564D01*
X177249000Y-152863516D01*
X177249000Y-152656484D01*
X177289389Y-152453436D01*
X177368615Y-152262167D01*
X177483635Y-152090027D01*
X177630027Y-151943635D01*
X177802165Y-151828616D01*
X177802167Y-151828615D01*
X177993436Y-151749389D01*
X178196484Y-151709000D01*
X178403516Y-151709000D01*
X178606564Y-151749389D01*
G37*
G36*
X206802585Y-148978802D02*
G01*
X206952410Y-149008604D01*
X207234674Y-149125521D01*
X207488705Y-149295259D01*
X207704741Y-149511295D01*
X207874479Y-149765326D01*
X207991396Y-150047590D01*
X208051000Y-150347240D01*
X208051000Y-150652760D01*
X207991396Y-150952410D01*
X207874479Y-151234674D01*
X207704741Y-151488705D01*
X207488705Y-151704741D01*
X207234674Y-151874479D01*
X206952410Y-151991396D01*
X206813635Y-152019000D01*
X206652761Y-152051000D01*
X206347239Y-152051000D01*
X206186365Y-152019000D01*
X206047590Y-151991396D01*
X205765326Y-151874479D01*
X205511295Y-151704741D01*
X205295259Y-151488705D01*
X205125521Y-151234674D01*
X205008604Y-150952410D01*
X204949000Y-150652760D01*
X204949000Y-150347240D01*
X205008604Y-150047590D01*
X205125521Y-149765326D01*
X205295259Y-149511295D01*
X205511295Y-149295259D01*
X205765326Y-149125521D01*
X206047590Y-149008604D01*
X206197415Y-148978802D01*
X206347239Y-148949000D01*
X206652761Y-148949000D01*
X206802585Y-148978802D01*
G37*
G36*
X141113512Y-149483927D02*
G01*
X141262812Y-149513624D01*
X141426784Y-149581544D01*
X141574354Y-149680147D01*
X141699853Y-149805646D01*
X141798456Y-149953216D01*
X141866376Y-150117188D01*
X141901000Y-150291259D01*
X141901000Y-150468741D01*
X141866376Y-150642812D01*
X141798456Y-150806784D01*
X141699853Y-150954354D01*
X141574354Y-151079853D01*
X141426784Y-151178456D01*
X141262812Y-151246376D01*
X141113512Y-151276073D01*
X141088742Y-151281000D01*
X140911258Y-151281000D01*
X140886488Y-151276073D01*
X140737188Y-151246376D01*
X140573216Y-151178456D01*
X140425646Y-151079853D01*
X140300147Y-150954354D01*
X140201544Y-150806784D01*
X140133624Y-150642812D01*
X140099000Y-150468741D01*
X140099000Y-150291259D01*
X140133624Y-150117188D01*
X140201544Y-149953216D01*
X140300147Y-149805646D01*
X140425646Y-149680147D01*
X140573216Y-149581544D01*
X140737188Y-149513624D01*
X140886488Y-149483927D01*
X140911258Y-149479000D01*
X141088742Y-149479000D01*
X141113512Y-149483927D01*
G37*
G36*
X191306564Y-149209389D02*
G01*
X191497833Y-149288615D01*
X191497835Y-149288616D01*
X191507778Y-149295260D01*
X191669973Y-149403635D01*
X191816365Y-149550027D01*
X191931385Y-149722167D01*
X192010611Y-149913436D01*
X192051000Y-150116484D01*
X192051000Y-150323516D01*
X192010611Y-150526564D01*
X191931385Y-150717833D01*
X191931384Y-150717835D01*
X191816365Y-150889973D01*
X191669973Y-151036365D01*
X191497835Y-151151384D01*
X191497834Y-151151385D01*
X191497833Y-151151385D01*
X191306564Y-151230611D01*
X191103516Y-151271000D01*
X190896484Y-151271000D01*
X190693436Y-151230611D01*
X190502167Y-151151385D01*
X190502166Y-151151385D01*
X190502165Y-151151384D01*
X190330027Y-151036365D01*
X190183635Y-150889973D01*
X190068616Y-150717835D01*
X190068615Y-150717833D01*
X189989389Y-150526564D01*
X189949000Y-150323516D01*
X189949000Y-150116484D01*
X189989389Y-149913436D01*
X190068615Y-149722167D01*
X190183635Y-149550027D01*
X190330027Y-149403635D01*
X190492222Y-149295260D01*
X190502165Y-149288616D01*
X190502167Y-149288615D01*
X190693436Y-149209389D01*
X190896484Y-149169000D01*
X191103516Y-149169000D01*
X191306564Y-149209389D01*
G37*
G36*
X178606564Y-149209389D02*
G01*
X178797833Y-149288615D01*
X178797835Y-149288616D01*
X178807778Y-149295260D01*
X178969973Y-149403635D01*
X179116365Y-149550027D01*
X179231385Y-149722167D01*
X179310611Y-149913436D01*
X179351000Y-150116484D01*
X179351000Y-150323516D01*
X179310611Y-150526564D01*
X179231385Y-150717833D01*
X179231384Y-150717835D01*
X179116365Y-150889973D01*
X178969973Y-151036365D01*
X178797835Y-151151384D01*
X178797834Y-151151385D01*
X178797833Y-151151385D01*
X178606564Y-151230611D01*
X178403516Y-151271000D01*
X178196484Y-151271000D01*
X177993436Y-151230611D01*
X177802167Y-151151385D01*
X177802166Y-151151385D01*
X177802165Y-151151384D01*
X177630027Y-151036365D01*
X177483635Y-150889973D01*
X177368616Y-150717835D01*
X177368615Y-150717833D01*
X177289389Y-150526564D01*
X177249000Y-150323516D01*
X177249000Y-150116484D01*
X177289389Y-149913436D01*
X177368615Y-149722167D01*
X177483635Y-149550027D01*
X177630027Y-149403635D01*
X177792222Y-149295260D01*
X177802165Y-149288616D01*
X177802167Y-149288615D01*
X177993436Y-149209389D01*
X178196484Y-149169000D01*
X178403516Y-149169000D01*
X178606564Y-149209389D01*
G37*
G36*
X219302585Y-146898802D02*
G01*
X219452410Y-146928604D01*
X219734674Y-147045521D01*
X219988705Y-147215259D01*
X220204741Y-147431295D01*
X220374479Y-147685326D01*
X220491396Y-147967590D01*
X220551000Y-148267240D01*
X220551000Y-148572760D01*
X220491396Y-148872410D01*
X220374479Y-149154674D01*
X220204741Y-149408705D01*
X219988705Y-149624741D01*
X219734674Y-149794479D01*
X219452410Y-149911396D01*
X219302585Y-149941198D01*
X219152761Y-149971000D01*
X218847239Y-149971000D01*
X218697415Y-149941198D01*
X218547590Y-149911396D01*
X218265326Y-149794479D01*
X218011295Y-149624741D01*
X217795259Y-149408705D01*
X217625521Y-149154674D01*
X217508604Y-148872410D01*
X217449000Y-148572760D01*
X217449000Y-148267240D01*
X217508604Y-147967590D01*
X217625521Y-147685326D01*
X217795259Y-147431295D01*
X218011295Y-147215259D01*
X218265326Y-147045521D01*
X218547590Y-146928604D01*
X218697415Y-146898802D01*
X218847239Y-146869000D01*
X219152761Y-146869000D01*
X219302585Y-146898802D01*
G37*
G36*
X213201000Y-148401000D02*
G01*
X211599000Y-148401000D01*
X211599000Y-146799000D01*
X213201000Y-146799000D01*
X213201000Y-148401000D01*
G37*
G36*
X208368228Y-145681703D02*
G01*
X208523100Y-145745853D01*
X208662481Y-145838985D01*
X208781015Y-145957519D01*
X208874147Y-146096900D01*
X208938297Y-146251772D01*
X208971000Y-146416184D01*
X208971000Y-146583816D01*
X208938297Y-146748228D01*
X208874147Y-146903100D01*
X208781015Y-147042481D01*
X208662481Y-147161015D01*
X208523100Y-147254147D01*
X208368228Y-147318297D01*
X208203816Y-147351000D01*
X208036184Y-147351000D01*
X207871772Y-147318297D01*
X207716900Y-147254147D01*
X207577519Y-147161015D01*
X207458985Y-147042481D01*
X207365853Y-146903100D01*
X207301703Y-146748228D01*
X207269000Y-146583816D01*
X207269000Y-146416184D01*
X207301703Y-146251772D01*
X207365853Y-146096900D01*
X207458985Y-145957519D01*
X207577519Y-145838985D01*
X207716900Y-145745853D01*
X207871772Y-145681703D01*
X208036184Y-145649000D01*
X208203816Y-145649000D01*
X208368228Y-145681703D01*
G37*
G36*
X201351000Y-147351000D02*
G01*
X199649000Y-147351000D01*
X199649000Y-145649000D01*
X201351000Y-145649000D01*
X201351000Y-147351000D01*
G37*
G36*
X141901000Y-146901000D02*
G01*
X140099000Y-146901000D01*
X140099000Y-145099000D01*
X141901000Y-145099000D01*
X141901000Y-146901000D01*
G37*
G36*
X212633642Y-144289781D02*
G01*
X212779414Y-144350162D01*
X212779416Y-144350163D01*
X212910608Y-144437822D01*
X213022178Y-144549392D01*
X213109837Y-144680584D01*
X213109838Y-144680586D01*
X213170219Y-144826358D01*
X213201000Y-144981107D01*
X213201000Y-145138893D01*
X213170219Y-145293642D01*
X213109838Y-145439414D01*
X213109837Y-145439416D01*
X213022178Y-145570608D01*
X212910608Y-145682178D01*
X212779416Y-145769837D01*
X212779415Y-145769838D01*
X212779414Y-145769838D01*
X212633642Y-145830219D01*
X212478893Y-145861000D01*
X212321107Y-145861000D01*
X212166358Y-145830219D01*
X212020586Y-145769838D01*
X212020585Y-145769838D01*
X212020584Y-145769837D01*
X211889392Y-145682178D01*
X211777822Y-145570608D01*
X211690163Y-145439416D01*
X211690162Y-145439414D01*
X211629781Y-145293642D01*
X211599000Y-145138893D01*
X211599000Y-144981107D01*
X211629781Y-144826358D01*
X211690162Y-144680586D01*
X211690163Y-144680584D01*
X211777822Y-144549392D01*
X211889392Y-144437822D01*
X212020584Y-144350163D01*
X212020586Y-144350162D01*
X212166358Y-144289781D01*
X212321107Y-144259000D01*
X212478893Y-144259000D01*
X212633642Y-144289781D01*
G37*
G36*
X141113512Y-142563927D02*
G01*
X141262812Y-142593624D01*
X141426784Y-142661544D01*
X141574354Y-142760147D01*
X141699853Y-142885646D01*
X141798456Y-143033216D01*
X141866376Y-143197188D01*
X141901000Y-143371259D01*
X141901000Y-143548741D01*
X141866376Y-143722812D01*
X141798456Y-143886784D01*
X141699853Y-144034354D01*
X141574354Y-144159853D01*
X141426784Y-144258456D01*
X141262812Y-144326376D01*
X141113512Y-144356073D01*
X141088742Y-144361000D01*
X140911258Y-144361000D01*
X140886488Y-144356073D01*
X140737188Y-144326376D01*
X140573216Y-144258456D01*
X140425646Y-144159853D01*
X140300147Y-144034354D01*
X140201544Y-143886784D01*
X140133624Y-143722812D01*
X140099000Y-143548741D01*
X140099000Y-143371259D01*
X140133624Y-143197188D01*
X140201544Y-143033216D01*
X140300147Y-142885646D01*
X140425646Y-142760147D01*
X140573216Y-142661544D01*
X140737188Y-142593624D01*
X140886488Y-142563927D01*
X140911258Y-142559000D01*
X141088742Y-142559000D01*
X141113512Y-142563927D01*
G37*
G36*
X208348228Y-142281703D02*
G01*
X208503100Y-142345853D01*
X208642481Y-142438985D01*
X208761015Y-142557519D01*
X208854147Y-142696900D01*
X208918297Y-142851772D01*
X208951000Y-143016184D01*
X208951000Y-143183816D01*
X208918297Y-143348228D01*
X208854147Y-143503100D01*
X208761015Y-143642481D01*
X208642481Y-143761015D01*
X208503100Y-143854147D01*
X208348228Y-143918297D01*
X208183816Y-143951000D01*
X208016184Y-143951000D01*
X207851772Y-143918297D01*
X207696900Y-143854147D01*
X207557519Y-143761015D01*
X207438985Y-143642481D01*
X207345853Y-143503100D01*
X207281703Y-143348228D01*
X207249000Y-143183816D01*
X207249000Y-143016184D01*
X207281703Y-142851772D01*
X207345853Y-142696900D01*
X207438985Y-142557519D01*
X207557519Y-142438985D01*
X207696900Y-142345853D01*
X207851772Y-142281703D01*
X208016184Y-142249000D01*
X208183816Y-142249000D01*
X208348228Y-142281703D01*
G37*
G36*
X200728228Y-142281703D02*
G01*
X200883100Y-142345853D01*
X201022481Y-142438985D01*
X201141015Y-142557519D01*
X201234147Y-142696900D01*
X201298297Y-142851772D01*
X201331000Y-143016184D01*
X201331000Y-143183816D01*
X201298297Y-143348228D01*
X201234147Y-143503100D01*
X201141015Y-143642481D01*
X201022481Y-143761015D01*
X200883100Y-143854147D01*
X200728228Y-143918297D01*
X200563816Y-143951000D01*
X200396184Y-143951000D01*
X200231772Y-143918297D01*
X200076900Y-143854147D01*
X199937519Y-143761015D01*
X199818985Y-143642481D01*
X199725853Y-143503100D01*
X199661703Y-143348228D01*
X199629000Y-143183816D01*
X199629000Y-143016184D01*
X199661703Y-142851772D01*
X199725853Y-142696900D01*
X199818985Y-142557519D01*
X199937519Y-142438985D01*
X200076900Y-142345853D01*
X200231772Y-142281703D01*
X200396184Y-142249000D01*
X200563816Y-142249000D01*
X200728228Y-142281703D01*
G37*
G36*
X212633642Y-141749781D02*
G01*
X212779414Y-141810162D01*
X212779416Y-141810163D01*
X212910608Y-141897822D01*
X213022178Y-142009392D01*
X213049979Y-142051000D01*
X213109838Y-142140586D01*
X213170219Y-142286358D01*
X213201000Y-142441107D01*
X213201000Y-142598893D01*
X213170219Y-142753642D01*
X213109838Y-142899414D01*
X213109837Y-142899416D01*
X213022178Y-143030608D01*
X212910608Y-143142178D01*
X212779416Y-143229837D01*
X212779415Y-143229838D01*
X212779414Y-143229838D01*
X212633642Y-143290219D01*
X212478893Y-143321000D01*
X212321107Y-143321000D01*
X212166358Y-143290219D01*
X212020586Y-143229838D01*
X212020585Y-143229838D01*
X212020584Y-143229837D01*
X211889392Y-143142178D01*
X211777822Y-143030608D01*
X211690163Y-142899416D01*
X211690162Y-142899414D01*
X211629781Y-142753642D01*
X211599000Y-142598893D01*
X211599000Y-142441107D01*
X211629781Y-142286358D01*
X211690162Y-142140586D01*
X211750021Y-142051000D01*
X211777822Y-142009392D01*
X211889392Y-141897822D01*
X212020584Y-141810163D01*
X212020586Y-141810162D01*
X212166358Y-141749781D01*
X212321107Y-141719000D01*
X212478893Y-141719000D01*
X212633642Y-141749781D01*
G37*
G36*
X220551000Y-142051000D02*
G01*
X217449000Y-142051000D01*
X217449000Y-138949000D01*
X220551000Y-138949000D01*
X220551000Y-142051000D01*
G37*
G36*
X141113512Y-140023927D02*
G01*
X141262812Y-140053624D01*
X141426784Y-140121544D01*
X141574354Y-140220147D01*
X141699853Y-140345646D01*
X141798456Y-140493216D01*
X141866376Y-140657188D01*
X141901000Y-140831259D01*
X141901000Y-141008741D01*
X141866376Y-141182812D01*
X141798456Y-141346784D01*
X141699853Y-141494354D01*
X141574354Y-141619853D01*
X141426784Y-141718456D01*
X141262812Y-141786376D01*
X141113512Y-141816073D01*
X141088742Y-141821000D01*
X140911258Y-141821000D01*
X140886488Y-141816073D01*
X140737188Y-141786376D01*
X140573216Y-141718456D01*
X140425646Y-141619853D01*
X140300147Y-141494354D01*
X140201544Y-141346784D01*
X140133624Y-141182812D01*
X140099000Y-141008741D01*
X140099000Y-140831259D01*
X140133624Y-140657188D01*
X140201544Y-140493216D01*
X140300147Y-140345646D01*
X140425646Y-140220147D01*
X140573216Y-140121544D01*
X140737188Y-140053624D01*
X140886488Y-140023927D01*
X140911258Y-140019000D01*
X141088742Y-140019000D01*
X141113512Y-140023927D01*
G37*
G36*
X213351000Y-140951000D02*
G01*
X211449000Y-140951000D01*
X211449000Y-139049000D01*
X213351000Y-139049000D01*
X213351000Y-140951000D01*
G37*
G36*
X208368228Y-138581703D02*
G01*
X208523100Y-138645853D01*
X208662481Y-138738985D01*
X208781015Y-138857519D01*
X208874147Y-138996900D01*
X208938297Y-139151772D01*
X208971000Y-139316184D01*
X208971000Y-139483816D01*
X208938297Y-139648228D01*
X208874147Y-139803100D01*
X208781015Y-139942481D01*
X208662481Y-140061015D01*
X208523100Y-140154147D01*
X208368228Y-140218297D01*
X208203816Y-140251000D01*
X208036184Y-140251000D01*
X207871772Y-140218297D01*
X207716900Y-140154147D01*
X207577519Y-140061015D01*
X207458985Y-139942481D01*
X207365853Y-139803100D01*
X207301703Y-139648228D01*
X207269000Y-139483816D01*
X207269000Y-139316184D01*
X207301703Y-139151772D01*
X207365853Y-138996900D01*
X207458985Y-138857519D01*
X207577519Y-138738985D01*
X207716900Y-138645853D01*
X207871772Y-138581703D01*
X208036184Y-138549000D01*
X208203816Y-138549000D01*
X208368228Y-138581703D01*
G37*
G36*
X200748228Y-138581703D02*
G01*
X200903100Y-138645853D01*
X201042481Y-138738985D01*
X201161015Y-138857519D01*
X201254147Y-138996900D01*
X201318297Y-139151772D01*
X201351000Y-139316184D01*
X201351000Y-139483816D01*
X201318297Y-139648228D01*
X201254147Y-139803100D01*
X201161015Y-139942481D01*
X201042481Y-140061015D01*
X200903100Y-140154147D01*
X200748228Y-140218297D01*
X200583816Y-140251000D01*
X200416184Y-140251000D01*
X200251772Y-140218297D01*
X200096900Y-140154147D01*
X199957519Y-140061015D01*
X199838985Y-139942481D01*
X199745853Y-139803100D01*
X199681703Y-139648228D01*
X199649000Y-139483816D01*
X199649000Y-139316184D01*
X199681703Y-139151772D01*
X199745853Y-138996900D01*
X199838985Y-138857519D01*
X199957519Y-138738985D01*
X200096900Y-138645853D01*
X200251772Y-138581703D01*
X200416184Y-138549000D01*
X200583816Y-138549000D01*
X200748228Y-138581703D01*
G37*
G36*
X212677395Y-136545546D02*
G01*
X212850466Y-136617234D01*
X212861701Y-136624741D01*
X213006227Y-136721310D01*
X213138690Y-136853773D01*
X213138691Y-136853775D01*
X213242766Y-137009534D01*
X213314454Y-137182605D01*
X213351000Y-137366333D01*
X213351000Y-137553667D01*
X213314454Y-137737395D01*
X213242766Y-137910466D01*
X213242765Y-137910467D01*
X213138690Y-138066227D01*
X213006227Y-138198690D01*
X212927818Y-138251081D01*
X212850466Y-138302766D01*
X212677395Y-138374454D01*
X212493667Y-138411000D01*
X212306333Y-138411000D01*
X212122605Y-138374454D01*
X211949534Y-138302766D01*
X211872182Y-138251081D01*
X211793773Y-138198690D01*
X211661310Y-138066227D01*
X211557235Y-137910467D01*
X211557234Y-137910466D01*
X211485546Y-137737395D01*
X211449000Y-137553667D01*
X211449000Y-137366333D01*
X211485546Y-137182605D01*
X211557234Y-137009534D01*
X211661309Y-136853775D01*
X211661310Y-136853773D01*
X211793773Y-136721310D01*
X211938299Y-136624741D01*
X211949534Y-136617234D01*
X212122605Y-136545546D01*
X212306333Y-136509000D01*
X212493667Y-136509000D01*
X212677395Y-136545546D01*
G37*
G36*
X160526564Y-135229389D02*
G01*
X160717833Y-135308615D01*
X160717835Y-135308616D01*
X160889973Y-135423635D01*
X161036365Y-135570027D01*
X161151385Y-135742167D01*
X161230611Y-135933436D01*
X161271000Y-136136484D01*
X161271000Y-136343516D01*
X161230611Y-136546564D01*
X161198229Y-136624741D01*
X161151384Y-136737835D01*
X161036365Y-136909973D01*
X160889973Y-137056365D01*
X160717835Y-137171384D01*
X160717834Y-137171385D01*
X160717833Y-137171385D01*
X160526564Y-137250611D01*
X160323516Y-137291000D01*
X160116484Y-137291000D01*
X159913436Y-137250611D01*
X159722167Y-137171385D01*
X159722166Y-137171385D01*
X159722165Y-137171384D01*
X159550027Y-137056365D01*
X159403635Y-136909973D01*
X159288616Y-136737835D01*
X159241771Y-136624741D01*
X159209389Y-136546564D01*
X159169000Y-136343516D01*
X159169000Y-136136484D01*
X159209389Y-135933436D01*
X159288615Y-135742167D01*
X159403635Y-135570027D01*
X159550027Y-135423635D01*
X159722165Y-135308616D01*
X159722167Y-135308615D01*
X159913436Y-135229389D01*
X160116484Y-135189000D01*
X160323516Y-135189000D01*
X160526564Y-135229389D01*
G37*
G36*
X165606564Y-135229389D02*
G01*
X165797833Y-135308615D01*
X165797835Y-135308616D01*
X165969973Y-135423635D01*
X166116365Y-135570027D01*
X166231385Y-135742167D01*
X166310611Y-135933436D01*
X166351000Y-136136484D01*
X166351000Y-136343516D01*
X166310611Y-136546564D01*
X166278229Y-136624741D01*
X166231384Y-136737835D01*
X166116365Y-136909973D01*
X165969973Y-137056365D01*
X165797835Y-137171384D01*
X165797834Y-137171385D01*
X165797833Y-137171385D01*
X165606564Y-137250611D01*
X165403516Y-137291000D01*
X165196484Y-137291000D01*
X164993436Y-137250611D01*
X164802167Y-137171385D01*
X164802166Y-137171385D01*
X164802165Y-137171384D01*
X164630027Y-137056365D01*
X164483635Y-136909973D01*
X164368616Y-136737835D01*
X164321771Y-136624741D01*
X164289389Y-136546564D01*
X164249000Y-136343516D01*
X164249000Y-136136484D01*
X164289389Y-135933436D01*
X164368615Y-135742167D01*
X164483635Y-135570027D01*
X164630027Y-135423635D01*
X164802165Y-135308616D01*
X164802167Y-135308615D01*
X164993436Y-135229389D01*
X165196484Y-135189000D01*
X165403516Y-135189000D01*
X165606564Y-135229389D01*
G37*
G36*
X157986564Y-135229389D02*
G01*
X158177833Y-135308615D01*
X158177835Y-135308616D01*
X158349973Y-135423635D01*
X158496365Y-135570027D01*
X158611385Y-135742167D01*
X158690611Y-135933436D01*
X158731000Y-136136484D01*
X158731000Y-136343516D01*
X158690611Y-136546564D01*
X158658229Y-136624741D01*
X158611384Y-136737835D01*
X158496365Y-136909973D01*
X158349973Y-137056365D01*
X158177835Y-137171384D01*
X158177834Y-137171385D01*
X158177833Y-137171385D01*
X157986564Y-137250611D01*
X157783516Y-137291000D01*
X157576484Y-137291000D01*
X157373436Y-137250611D01*
X157182167Y-137171385D01*
X157182166Y-137171385D01*
X157182165Y-137171384D01*
X157010027Y-137056365D01*
X156863635Y-136909973D01*
X156748616Y-136737835D01*
X156701771Y-136624741D01*
X156669389Y-136546564D01*
X156629000Y-136343516D01*
X156629000Y-136136484D01*
X156669389Y-135933436D01*
X156748615Y-135742167D01*
X156863635Y-135570027D01*
X157010027Y-135423635D01*
X157182165Y-135308616D01*
X157182167Y-135308615D01*
X157373436Y-135229389D01*
X157576484Y-135189000D01*
X157783516Y-135189000D01*
X157986564Y-135229389D01*
G37*
G36*
X155446564Y-135229389D02*
G01*
X155637833Y-135308615D01*
X155637835Y-135308616D01*
X155809973Y-135423635D01*
X155956365Y-135570027D01*
X156071385Y-135742167D01*
X156150611Y-135933436D01*
X156191000Y-136136484D01*
X156191000Y-136343516D01*
X156150611Y-136546564D01*
X156118229Y-136624741D01*
X156071384Y-136737835D01*
X155956365Y-136909973D01*
X155809973Y-137056365D01*
X155637835Y-137171384D01*
X155637834Y-137171385D01*
X155637833Y-137171385D01*
X155446564Y-137250611D01*
X155243516Y-137291000D01*
X155036484Y-137291000D01*
X154833436Y-137250611D01*
X154642167Y-137171385D01*
X154642166Y-137171385D01*
X154642165Y-137171384D01*
X154470027Y-137056365D01*
X154323635Y-136909973D01*
X154208616Y-136737835D01*
X154161771Y-136624741D01*
X154129389Y-136546564D01*
X154089000Y-136343516D01*
X154089000Y-136136484D01*
X154129389Y-135933436D01*
X154208615Y-135742167D01*
X154323635Y-135570027D01*
X154470027Y-135423635D01*
X154642165Y-135308616D01*
X154642167Y-135308615D01*
X154833436Y-135229389D01*
X155036484Y-135189000D01*
X155243516Y-135189000D01*
X155446564Y-135229389D01*
G37*
G36*
X170686564Y-135229389D02*
G01*
X170877833Y-135308615D01*
X170877835Y-135308616D01*
X171049973Y-135423635D01*
X171196365Y-135570027D01*
X171311385Y-135742167D01*
X171390611Y-135933436D01*
X171431000Y-136136484D01*
X171431000Y-136343516D01*
X171390611Y-136546564D01*
X171358229Y-136624741D01*
X171311384Y-136737835D01*
X171196365Y-136909973D01*
X171049973Y-137056365D01*
X170877835Y-137171384D01*
X170877834Y-137171385D01*
X170877833Y-137171385D01*
X170686564Y-137250611D01*
X170483516Y-137291000D01*
X170276484Y-137291000D01*
X170073436Y-137250611D01*
X169882167Y-137171385D01*
X169882166Y-137171385D01*
X169882165Y-137171384D01*
X169710027Y-137056365D01*
X169563635Y-136909973D01*
X169448616Y-136737835D01*
X169401771Y-136624741D01*
X169369389Y-136546564D01*
X169329000Y-136343516D01*
X169329000Y-136136484D01*
X169369389Y-135933436D01*
X169448615Y-135742167D01*
X169563635Y-135570027D01*
X169710027Y-135423635D01*
X169882165Y-135308616D01*
X169882167Y-135308615D01*
X170073436Y-135229389D01*
X170276484Y-135189000D01*
X170483516Y-135189000D01*
X170686564Y-135229389D01*
G37*
G36*
X152906564Y-135229389D02*
G01*
X153097833Y-135308615D01*
X153097835Y-135308616D01*
X153269973Y-135423635D01*
X153416365Y-135570027D01*
X153531385Y-135742167D01*
X153610611Y-135933436D01*
X153651000Y-136136484D01*
X153651000Y-136343516D01*
X153610611Y-136546564D01*
X153578229Y-136624741D01*
X153531384Y-136737835D01*
X153416365Y-136909973D01*
X153269973Y-137056365D01*
X153097835Y-137171384D01*
X153097834Y-137171385D01*
X153097833Y-137171385D01*
X152906564Y-137250611D01*
X152703516Y-137291000D01*
X152496484Y-137291000D01*
X152293436Y-137250611D01*
X152102167Y-137171385D01*
X152102166Y-137171385D01*
X152102165Y-137171384D01*
X151930027Y-137056365D01*
X151783635Y-136909973D01*
X151668616Y-136737835D01*
X151621771Y-136624741D01*
X151589389Y-136546564D01*
X151549000Y-136343516D01*
X151549000Y-136136484D01*
X151589389Y-135933436D01*
X151668615Y-135742167D01*
X151783635Y-135570027D01*
X151930027Y-135423635D01*
X152102165Y-135308616D01*
X152102167Y-135308615D01*
X152293436Y-135229389D01*
X152496484Y-135189000D01*
X152703516Y-135189000D01*
X152906564Y-135229389D01*
G37*
G36*
X168146564Y-135229389D02*
G01*
X168337833Y-135308615D01*
X168337835Y-135308616D01*
X168509973Y-135423635D01*
X168656365Y-135570027D01*
X168771385Y-135742167D01*
X168850611Y-135933436D01*
X168891000Y-136136484D01*
X168891000Y-136343516D01*
X168850611Y-136546564D01*
X168818229Y-136624741D01*
X168771384Y-136737835D01*
X168656365Y-136909973D01*
X168509973Y-137056365D01*
X168337835Y-137171384D01*
X168337834Y-137171385D01*
X168337833Y-137171385D01*
X168146564Y-137250611D01*
X167943516Y-137291000D01*
X167736484Y-137291000D01*
X167533436Y-137250611D01*
X167342167Y-137171385D01*
X167342166Y-137171385D01*
X167342165Y-137171384D01*
X167170027Y-137056365D01*
X167023635Y-136909973D01*
X166908616Y-136737835D01*
X166861771Y-136624741D01*
X166829389Y-136546564D01*
X166789000Y-136343516D01*
X166789000Y-136136484D01*
X166829389Y-135933436D01*
X166908615Y-135742167D01*
X167023635Y-135570027D01*
X167170027Y-135423635D01*
X167342165Y-135308616D01*
X167342167Y-135308615D01*
X167533436Y-135229389D01*
X167736484Y-135189000D01*
X167943516Y-135189000D01*
X168146564Y-135229389D01*
G37*
G36*
X150366564Y-135229389D02*
G01*
X150557833Y-135308615D01*
X150557835Y-135308616D01*
X150729973Y-135423635D01*
X150876365Y-135570027D01*
X150991385Y-135742167D01*
X151070611Y-135933436D01*
X151111000Y-136136484D01*
X151111000Y-136343516D01*
X151070611Y-136546564D01*
X151038229Y-136624741D01*
X150991384Y-136737835D01*
X150876365Y-136909973D01*
X150729973Y-137056365D01*
X150557835Y-137171384D01*
X150557834Y-137171385D01*
X150557833Y-137171385D01*
X150366564Y-137250611D01*
X150163516Y-137291000D01*
X149956484Y-137291000D01*
X149753436Y-137250611D01*
X149562167Y-137171385D01*
X149562166Y-137171385D01*
X149562165Y-137171384D01*
X149390027Y-137056365D01*
X149243635Y-136909973D01*
X149128616Y-136737835D01*
X149081771Y-136624741D01*
X149049389Y-136546564D01*
X149009000Y-136343516D01*
X149009000Y-136136484D01*
X149049389Y-135933436D01*
X149128615Y-135742167D01*
X149243635Y-135570027D01*
X149390027Y-135423635D01*
X149562165Y-135308616D01*
X149562167Y-135308615D01*
X149753436Y-135229389D01*
X149956484Y-135189000D01*
X150163516Y-135189000D01*
X150366564Y-135229389D01*
G37*
G36*
X173226564Y-135229389D02*
G01*
X173417833Y-135308615D01*
X173417835Y-135308616D01*
X173589973Y-135423635D01*
X173736365Y-135570027D01*
X173851385Y-135742167D01*
X173930611Y-135933436D01*
X173971000Y-136136484D01*
X173971000Y-136343516D01*
X173930611Y-136546564D01*
X173898229Y-136624741D01*
X173851384Y-136737835D01*
X173736365Y-136909973D01*
X173589973Y-137056365D01*
X173417835Y-137171384D01*
X173417834Y-137171385D01*
X173417833Y-137171385D01*
X173226564Y-137250611D01*
X173023516Y-137291000D01*
X172816484Y-137291000D01*
X172613436Y-137250611D01*
X172422167Y-137171385D01*
X172422166Y-137171385D01*
X172422165Y-137171384D01*
X172250027Y-137056365D01*
X172103635Y-136909973D01*
X171988616Y-136737835D01*
X171941771Y-136624741D01*
X171909389Y-136546564D01*
X171869000Y-136343516D01*
X171869000Y-136136484D01*
X171909389Y-135933436D01*
X171988615Y-135742167D01*
X172103635Y-135570027D01*
X172250027Y-135423635D01*
X172422165Y-135308616D01*
X172422167Y-135308615D01*
X172613436Y-135229389D01*
X172816484Y-135189000D01*
X173023516Y-135189000D01*
X173226564Y-135229389D01*
G37*
G36*
X147826564Y-135229389D02*
G01*
X148017833Y-135308615D01*
X148017835Y-135308616D01*
X148189973Y-135423635D01*
X148336365Y-135570027D01*
X148451385Y-135742167D01*
X148530611Y-135933436D01*
X148571000Y-136136484D01*
X148571000Y-136343516D01*
X148530611Y-136546564D01*
X148498229Y-136624741D01*
X148451384Y-136737835D01*
X148336365Y-136909973D01*
X148189973Y-137056365D01*
X148017835Y-137171384D01*
X148017834Y-137171385D01*
X148017833Y-137171385D01*
X147826564Y-137250611D01*
X147623516Y-137291000D01*
X147416484Y-137291000D01*
X147213436Y-137250611D01*
X147022167Y-137171385D01*
X147022166Y-137171385D01*
X147022165Y-137171384D01*
X146850027Y-137056365D01*
X146703635Y-136909973D01*
X146588616Y-136737835D01*
X146541771Y-136624741D01*
X146509389Y-136546564D01*
X146469000Y-136343516D01*
X146469000Y-136136484D01*
X146509389Y-135933436D01*
X146588615Y-135742167D01*
X146703635Y-135570027D01*
X146850027Y-135423635D01*
X147022165Y-135308616D01*
X147022167Y-135308615D01*
X147213436Y-135229389D01*
X147416484Y-135189000D01*
X147623516Y-135189000D01*
X147826564Y-135229389D01*
G37*
G36*
X175766564Y-135229389D02*
G01*
X175957833Y-135308615D01*
X175957835Y-135308616D01*
X176129973Y-135423635D01*
X176276365Y-135570027D01*
X176391385Y-135742167D01*
X176470611Y-135933436D01*
X176511000Y-136136484D01*
X176511000Y-136343516D01*
X176470611Y-136546564D01*
X176438229Y-136624741D01*
X176391384Y-136737835D01*
X176276365Y-136909973D01*
X176129973Y-137056365D01*
X175957835Y-137171384D01*
X175957834Y-137171385D01*
X175957833Y-137171385D01*
X175766564Y-137250611D01*
X175563516Y-137291000D01*
X175356484Y-137291000D01*
X175153436Y-137250611D01*
X174962167Y-137171385D01*
X174962166Y-137171385D01*
X174962165Y-137171384D01*
X174790027Y-137056365D01*
X174643635Y-136909973D01*
X174528616Y-136737835D01*
X174481771Y-136624741D01*
X174449389Y-136546564D01*
X174409000Y-136343516D01*
X174409000Y-136136484D01*
X174449389Y-135933436D01*
X174528615Y-135742167D01*
X174643635Y-135570027D01*
X174790027Y-135423635D01*
X174962165Y-135308616D01*
X174962167Y-135308615D01*
X175153436Y-135229389D01*
X175356484Y-135189000D01*
X175563516Y-135189000D01*
X175766564Y-135229389D01*
G37*
G36*
X145286564Y-135229389D02*
G01*
X145477833Y-135308615D01*
X145477835Y-135308616D01*
X145649973Y-135423635D01*
X145796365Y-135570027D01*
X145911385Y-135742167D01*
X145990611Y-135933436D01*
X146031000Y-136136484D01*
X146031000Y-136343516D01*
X145990611Y-136546564D01*
X145958229Y-136624741D01*
X145911384Y-136737835D01*
X145796365Y-136909973D01*
X145649973Y-137056365D01*
X145477835Y-137171384D01*
X145477834Y-137171385D01*
X145477833Y-137171385D01*
X145286564Y-137250611D01*
X145083516Y-137291000D01*
X144876484Y-137291000D01*
X144673436Y-137250611D01*
X144482167Y-137171385D01*
X144482166Y-137171385D01*
X144482165Y-137171384D01*
X144310027Y-137056365D01*
X144163635Y-136909973D01*
X144048616Y-136737835D01*
X144001771Y-136624741D01*
X143969389Y-136546564D01*
X143929000Y-136343516D01*
X143929000Y-136136484D01*
X143969389Y-135933436D01*
X144048615Y-135742167D01*
X144163635Y-135570027D01*
X144310027Y-135423635D01*
X144482165Y-135308616D01*
X144482167Y-135308615D01*
X144673436Y-135229389D01*
X144876484Y-135189000D01*
X145083516Y-135189000D01*
X145286564Y-135229389D01*
G37*
G36*
X163066564Y-135229389D02*
G01*
X163257833Y-135308615D01*
X163257835Y-135308616D01*
X163429973Y-135423635D01*
X163576365Y-135570027D01*
X163691385Y-135742167D01*
X163770611Y-135933436D01*
X163811000Y-136136484D01*
X163811000Y-136343516D01*
X163770611Y-136546564D01*
X163738229Y-136624741D01*
X163691384Y-136737835D01*
X163576365Y-136909973D01*
X163429973Y-137056365D01*
X163257835Y-137171384D01*
X163257834Y-137171385D01*
X163257833Y-137171385D01*
X163066564Y-137250611D01*
X162863516Y-137291000D01*
X162656484Y-137291000D01*
X162453436Y-137250611D01*
X162262167Y-137171385D01*
X162262166Y-137171385D01*
X162262165Y-137171384D01*
X162090027Y-137056365D01*
X161943635Y-136909973D01*
X161828616Y-136737835D01*
X161781771Y-136624741D01*
X161749389Y-136546564D01*
X161709000Y-136343516D01*
X161709000Y-136136484D01*
X161749389Y-135933436D01*
X161828615Y-135742167D01*
X161943635Y-135570027D01*
X162090027Y-135423635D01*
X162262165Y-135308616D01*
X162262167Y-135308615D01*
X162453436Y-135229389D01*
X162656484Y-135189000D01*
X162863516Y-135189000D01*
X163066564Y-135229389D01*
G37*
G36*
X178306564Y-135229389D02*
G01*
X178497833Y-135308615D01*
X178497835Y-135308616D01*
X178669973Y-135423635D01*
X178816365Y-135570027D01*
X178931385Y-135742167D01*
X179010611Y-135933436D01*
X179051000Y-136136484D01*
X179051000Y-136343516D01*
X179010611Y-136546564D01*
X178978229Y-136624741D01*
X178931384Y-136737835D01*
X178816365Y-136909973D01*
X178669973Y-137056365D01*
X178497835Y-137171384D01*
X178497834Y-137171385D01*
X178497833Y-137171385D01*
X178306564Y-137250611D01*
X178103516Y-137291000D01*
X177896484Y-137291000D01*
X177693436Y-137250611D01*
X177502167Y-137171385D01*
X177502166Y-137171385D01*
X177502165Y-137171384D01*
X177330027Y-137056365D01*
X177183635Y-136909973D01*
X177068616Y-136737835D01*
X177021771Y-136624741D01*
X176989389Y-136546564D01*
X176949000Y-136343516D01*
X176949000Y-136136484D01*
X176989389Y-135933436D01*
X177068615Y-135742167D01*
X177183635Y-135570027D01*
X177330027Y-135423635D01*
X177502165Y-135308616D01*
X177502167Y-135308615D01*
X177693436Y-135229389D01*
X177896484Y-135189000D01*
X178103516Y-135189000D01*
X178306564Y-135229389D01*
G37*
G36*
X142746564Y-135229389D02*
G01*
X142937833Y-135308615D01*
X142937835Y-135308616D01*
X143109973Y-135423635D01*
X143256365Y-135570027D01*
X143371385Y-135742167D01*
X143450611Y-135933436D01*
X143491000Y-136136484D01*
X143491000Y-136343516D01*
X143450611Y-136546564D01*
X143418229Y-136624741D01*
X143371384Y-136737835D01*
X143256365Y-136909973D01*
X143109973Y-137056365D01*
X142937835Y-137171384D01*
X142937834Y-137171385D01*
X142937833Y-137171385D01*
X142746564Y-137250611D01*
X142543516Y-137291000D01*
X142336484Y-137291000D01*
X142133436Y-137250611D01*
X141942167Y-137171385D01*
X141942166Y-137171385D01*
X141942165Y-137171384D01*
X141770027Y-137056365D01*
X141623635Y-136909973D01*
X141508616Y-136737835D01*
X141461771Y-136624741D01*
X141429389Y-136546564D01*
X141389000Y-136343516D01*
X141389000Y-136136484D01*
X141429389Y-135933436D01*
X141508615Y-135742167D01*
X141623635Y-135570027D01*
X141770027Y-135423635D01*
X141942165Y-135308616D01*
X141942167Y-135308615D01*
X142133436Y-135229389D01*
X142336484Y-135189000D01*
X142543516Y-135189000D01*
X142746564Y-135229389D01*
G37*
G36*
X219302585Y-133898802D02*
G01*
X219452410Y-133928604D01*
X219734674Y-134045521D01*
X219988705Y-134215259D01*
X220204741Y-134431295D01*
X220374479Y-134685326D01*
X220491396Y-134967590D01*
X220551000Y-135267240D01*
X220551000Y-135572760D01*
X220491396Y-135872410D01*
X220374479Y-136154674D01*
X220204741Y-136408705D01*
X219988705Y-136624741D01*
X219734674Y-136794479D01*
X219452410Y-136911396D01*
X219302585Y-136941198D01*
X219152761Y-136971000D01*
X218847239Y-136971000D01*
X218697415Y-136941198D01*
X218547590Y-136911396D01*
X218265326Y-136794479D01*
X218011295Y-136624741D01*
X217795259Y-136408705D01*
X217625521Y-136154674D01*
X217508604Y-135872410D01*
X217449000Y-135572760D01*
X217449000Y-135267240D01*
X217508604Y-134967590D01*
X217625521Y-134685326D01*
X217795259Y-134431295D01*
X218011295Y-134215259D01*
X218265326Y-134045521D01*
X218547590Y-133928604D01*
X218697415Y-133898802D01*
X218847239Y-133869000D01*
X219152761Y-133869000D01*
X219302585Y-133898802D01*
G37*
G36*
X200951000Y-135451000D02*
G01*
X199049000Y-135451000D01*
X199049000Y-133549000D01*
X200951000Y-133549000D01*
X200951000Y-135451000D01*
G37*
G36*
X206616720Y-131463520D02*
G01*
X206805881Y-131520901D01*
X206980212Y-131614083D01*
X207133015Y-131739485D01*
X207258417Y-131892288D01*
X207271190Y-131916185D01*
X207351598Y-132066617D01*
X207351599Y-132066620D01*
X207408980Y-132255781D01*
X207408980Y-132255783D01*
X207423490Y-132403100D01*
X207423500Y-132403207D01*
X207423500Y-132596794D01*
X207408980Y-132744220D01*
X207351599Y-132933381D01*
X207258417Y-133107712D01*
X207133015Y-133260515D01*
X206980212Y-133385917D01*
X206898333Y-133429682D01*
X206805883Y-133479098D01*
X206805880Y-133479099D01*
X206616719Y-133536480D01*
X206420000Y-133555855D01*
X206223280Y-133536480D01*
X206034119Y-133479099D01*
X205859788Y-133385917D01*
X205706985Y-133260515D01*
X205581583Y-133107712D01*
X205537818Y-133025833D01*
X205488402Y-132933383D01*
X205470526Y-132874453D01*
X205431020Y-132744219D01*
X205416500Y-132596793D01*
X205416500Y-132403206D01*
X205431020Y-132255780D01*
X205488401Y-132066619D01*
X205581583Y-131892288D01*
X205706985Y-131739485D01*
X205859788Y-131614083D01*
X206034120Y-131520901D01*
X206223281Y-131463520D01*
X206420000Y-131444145D01*
X206616720Y-131463520D01*
G37*
G36*
X209156720Y-131463520D02*
G01*
X209345881Y-131520901D01*
X209520212Y-131614083D01*
X209673015Y-131739485D01*
X209798417Y-131892288D01*
X209811190Y-131916185D01*
X209891598Y-132066617D01*
X209891599Y-132066620D01*
X209948980Y-132255781D01*
X209948980Y-132255783D01*
X209963490Y-132403100D01*
X209963500Y-132403207D01*
X209963500Y-132596794D01*
X209948980Y-132744220D01*
X209891599Y-132933381D01*
X209798417Y-133107712D01*
X209673015Y-133260515D01*
X209520212Y-133385917D01*
X209438333Y-133429682D01*
X209345883Y-133479098D01*
X209345880Y-133479099D01*
X209156719Y-133536480D01*
X208960000Y-133555855D01*
X208763280Y-133536480D01*
X208574119Y-133479099D01*
X208399788Y-133385917D01*
X208246985Y-133260515D01*
X208121583Y-133107712D01*
X208077818Y-133025833D01*
X208028402Y-132933383D01*
X208010526Y-132874453D01*
X207971020Y-132744219D01*
X207956500Y-132596793D01*
X207956500Y-132403206D01*
X207971020Y-132255780D01*
X208028401Y-132066619D01*
X208121583Y-131892288D01*
X208246985Y-131739485D01*
X208399788Y-131614083D01*
X208574120Y-131520901D01*
X208763281Y-131463520D01*
X208960000Y-131444145D01*
X209156720Y-131463520D01*
G37*
G36*
X212503500Y-133551000D02*
G01*
X210496500Y-133551000D01*
X210496500Y-131449000D01*
X212503500Y-131449000D01*
X212503500Y-133551000D01*
G37*
G36*
X200277395Y-131045546D02*
G01*
X200450466Y-131117234D01*
X200450467Y-131117235D01*
X200606227Y-131221310D01*
X200738690Y-131353773D01*
X200738691Y-131353775D01*
X200842766Y-131509534D01*
X200914454Y-131682605D01*
X200951000Y-131866333D01*
X200951000Y-132053667D01*
X200914454Y-132237395D01*
X200842766Y-132410466D01*
X200842765Y-132410467D01*
X200738690Y-132566227D01*
X200606227Y-132698690D01*
X200538091Y-132744217D01*
X200450466Y-132802766D01*
X200277395Y-132874454D01*
X200093667Y-132911000D01*
X199906333Y-132911000D01*
X199722605Y-132874454D01*
X199549534Y-132802766D01*
X199461909Y-132744217D01*
X199393773Y-132698690D01*
X199261310Y-132566227D01*
X199157235Y-132410467D01*
X199157234Y-132410466D01*
X199085546Y-132237395D01*
X199049000Y-132053667D01*
X199049000Y-131866333D01*
X199085546Y-131682605D01*
X199157234Y-131509534D01*
X199261309Y-131353775D01*
X199261310Y-131353773D01*
X199393773Y-131221310D01*
X199549533Y-131117235D01*
X199549534Y-131117234D01*
X199722605Y-131045546D01*
X199906333Y-131009000D01*
X200093667Y-131009000D01*
X200277395Y-131045546D01*
G37*
G36*
X195248228Y-131181703D02*
G01*
X195403100Y-131245853D01*
X195542481Y-131338985D01*
X195661015Y-131457519D01*
X195754147Y-131596900D01*
X195818297Y-131751772D01*
X195851000Y-131916184D01*
X195851000Y-132083816D01*
X195818297Y-132248228D01*
X195754147Y-132403100D01*
X195661015Y-132542481D01*
X195542481Y-132661015D01*
X195403100Y-132754147D01*
X195248228Y-132818297D01*
X195083816Y-132851000D01*
X194916184Y-132851000D01*
X194751772Y-132818297D01*
X194596900Y-132754147D01*
X194457519Y-132661015D01*
X194338985Y-132542481D01*
X194245853Y-132403100D01*
X194181703Y-132248228D01*
X194149000Y-132083816D01*
X194149000Y-131916184D01*
X194181703Y-131751772D01*
X194245853Y-131596900D01*
X194338985Y-131457519D01*
X194457519Y-131338985D01*
X194596900Y-131245853D01*
X194751772Y-131181703D01*
X194916184Y-131149000D01*
X195083816Y-131149000D01*
X195248228Y-131181703D01*
G37*
G36*
X187628228Y-131181703D02*
G01*
X187783100Y-131245853D01*
X187922481Y-131338985D01*
X188041015Y-131457519D01*
X188134147Y-131596900D01*
X188198297Y-131751772D01*
X188231000Y-131916184D01*
X188231000Y-132083816D01*
X188198297Y-132248228D01*
X188134147Y-132403100D01*
X188041015Y-132542481D01*
X187922481Y-132661015D01*
X187783100Y-132754147D01*
X187628228Y-132818297D01*
X187463816Y-132851000D01*
X187296184Y-132851000D01*
X187131772Y-132818297D01*
X186976900Y-132754147D01*
X186837519Y-132661015D01*
X186718985Y-132542481D01*
X186625853Y-132403100D01*
X186561703Y-132248228D01*
X186529000Y-132083816D01*
X186529000Y-131916184D01*
X186561703Y-131751772D01*
X186625853Y-131596900D01*
X186718985Y-131457519D01*
X186837519Y-131338985D01*
X186976900Y-131245853D01*
X187131772Y-131181703D01*
X187296184Y-131149000D01*
X187463816Y-131149000D01*
X187628228Y-131181703D01*
G37*
G36*
X214151000Y-130151000D02*
G01*
X211849000Y-130151000D01*
X211849000Y-127849000D01*
X214151000Y-127849000D01*
X214151000Y-130151000D01*
G37*
G36*
X220551000Y-129551000D02*
G01*
X217449000Y-129551000D01*
X217449000Y-126449000D01*
X220551000Y-126449000D01*
X220551000Y-129551000D01*
G37*
G36*
X192551000Y-128051000D02*
G01*
X190449000Y-128051000D01*
X190449000Y-125949000D01*
X192551000Y-125949000D01*
X192551000Y-128051000D01*
G37*
G36*
X207051000Y-128051000D02*
G01*
X204949000Y-128051000D01*
X204949000Y-125949000D01*
X207051000Y-125949000D01*
X207051000Y-128051000D01*
G37*
G36*
X184248228Y-126181703D02*
G01*
X184403100Y-126245853D01*
X184542481Y-126338985D01*
X184661015Y-126457519D01*
X184754147Y-126596900D01*
X184818297Y-126751772D01*
X184851000Y-126916184D01*
X184851000Y-127083816D01*
X184818297Y-127248228D01*
X184754147Y-127403100D01*
X184661015Y-127542481D01*
X184542481Y-127661015D01*
X184403100Y-127754147D01*
X184248228Y-127818297D01*
X184083816Y-127851000D01*
X183916184Y-127851000D01*
X183751772Y-127818297D01*
X183596900Y-127754147D01*
X183457519Y-127661015D01*
X183338985Y-127542481D01*
X183245853Y-127403100D01*
X183181703Y-127248228D01*
X183149000Y-127083816D01*
X183149000Y-126916184D01*
X183181703Y-126751772D01*
X183245853Y-126596900D01*
X183338985Y-126457519D01*
X183457519Y-126338985D01*
X183596900Y-126245853D01*
X183751772Y-126181703D01*
X183916184Y-126149000D01*
X184083816Y-126149000D01*
X184248228Y-126181703D01*
G37*
G36*
X199248228Y-126181703D02*
G01*
X199403100Y-126245853D01*
X199542481Y-126338985D01*
X199661015Y-126457519D01*
X199754147Y-126596900D01*
X199818297Y-126751772D01*
X199851000Y-126916184D01*
X199851000Y-127083816D01*
X199818297Y-127248228D01*
X199754147Y-127403100D01*
X199661015Y-127542481D01*
X199542481Y-127661015D01*
X199403100Y-127754147D01*
X199248228Y-127818297D01*
X199083816Y-127851000D01*
X198916184Y-127851000D01*
X198751772Y-127818297D01*
X198596900Y-127754147D01*
X198457519Y-127661015D01*
X198338985Y-127542481D01*
X198245853Y-127403100D01*
X198181703Y-127248228D01*
X198149000Y-127083816D01*
X198149000Y-126916184D01*
X198181703Y-126751772D01*
X198245853Y-126596900D01*
X198338985Y-126457519D01*
X198457519Y-126338985D01*
X198596900Y-126245853D01*
X198751772Y-126181703D01*
X198916184Y-126149000D01*
X199083816Y-126149000D01*
X199248228Y-126181703D01*
G37*
G36*
X219302585Y-121398802D02*
G01*
X219452410Y-121428604D01*
X219734674Y-121545521D01*
X219988705Y-121715259D01*
X220204741Y-121931295D01*
X220374479Y-122185326D01*
X220491396Y-122467590D01*
X220551000Y-122767240D01*
X220551000Y-123072760D01*
X220491396Y-123372410D01*
X220374479Y-123654674D01*
X220204741Y-123908705D01*
X219988705Y-124124741D01*
X219734674Y-124294479D01*
X219452410Y-124411396D01*
X219302585Y-124441198D01*
X219152761Y-124471000D01*
X218847239Y-124471000D01*
X218697415Y-124441198D01*
X218547590Y-124411396D01*
X218265326Y-124294479D01*
X218011295Y-124124741D01*
X217795259Y-123908705D01*
X217625521Y-123654674D01*
X217508604Y-123372410D01*
X217449000Y-123072760D01*
X217449000Y-122767240D01*
X217508604Y-122467590D01*
X217625521Y-122185326D01*
X217795259Y-121931295D01*
X218011295Y-121715259D01*
X218265326Y-121545521D01*
X218547590Y-121428604D01*
X218697415Y-121398802D01*
X218847239Y-121369000D01*
X219152761Y-121369000D01*
X219302585Y-121398802D01*
G37*
G36*
X206306564Y-120989389D02*
G01*
X206497833Y-121068615D01*
X206497835Y-121068616D01*
X206669973Y-121183635D01*
X206816365Y-121330027D01*
X206928491Y-121497835D01*
X206931385Y-121502167D01*
X207010611Y-121693436D01*
X207051000Y-121896484D01*
X207051000Y-122103516D01*
X207010611Y-122306564D01*
X206931385Y-122497833D01*
X206931384Y-122497835D01*
X206816365Y-122669973D01*
X206669973Y-122816365D01*
X206497835Y-122931384D01*
X206497834Y-122931385D01*
X206497833Y-122931385D01*
X206306564Y-123010611D01*
X206103516Y-123051000D01*
X205896484Y-123051000D01*
X205693436Y-123010611D01*
X205502167Y-122931385D01*
X205502166Y-122931385D01*
X205502165Y-122931384D01*
X205330027Y-122816365D01*
X205183635Y-122669973D01*
X205068616Y-122497835D01*
X205068615Y-122497833D01*
X204989389Y-122306564D01*
X204949000Y-122103516D01*
X204949000Y-121896484D01*
X204989389Y-121693436D01*
X205068615Y-121502167D01*
X205071510Y-121497835D01*
X205183635Y-121330027D01*
X205330027Y-121183635D01*
X205502165Y-121068616D01*
X205502167Y-121068615D01*
X205693436Y-120989389D01*
X205896484Y-120949000D01*
X206103516Y-120949000D01*
X206306564Y-120989389D01*
G37*
G36*
X191806564Y-120989389D02*
G01*
X191997833Y-121068615D01*
X191997835Y-121068616D01*
X192169973Y-121183635D01*
X192316365Y-121330027D01*
X192428491Y-121497835D01*
X192431385Y-121502167D01*
X192510611Y-121693436D01*
X192551000Y-121896484D01*
X192551000Y-122103516D01*
X192510611Y-122306564D01*
X192431385Y-122497833D01*
X192431384Y-122497835D01*
X192316365Y-122669973D01*
X192169973Y-122816365D01*
X191997835Y-122931384D01*
X191997834Y-122931385D01*
X191997833Y-122931385D01*
X191806564Y-123010611D01*
X191603516Y-123051000D01*
X191396484Y-123051000D01*
X191193436Y-123010611D01*
X191002167Y-122931385D01*
X191002166Y-122931385D01*
X191002165Y-122931384D01*
X190830027Y-122816365D01*
X190683635Y-122669973D01*
X190568616Y-122497835D01*
X190568615Y-122497833D01*
X190489389Y-122306564D01*
X190449000Y-122103516D01*
X190449000Y-121896484D01*
X190489389Y-121693436D01*
X190568615Y-121502167D01*
X190571510Y-121497835D01*
X190683635Y-121330027D01*
X190830027Y-121183635D01*
X191002165Y-121068616D01*
X191002167Y-121068615D01*
X191193436Y-120989389D01*
X191396484Y-120949000D01*
X191603516Y-120949000D01*
X191806564Y-120989389D01*
G37*
G36*
X199248228Y-121181703D02*
G01*
X199403100Y-121245853D01*
X199542481Y-121338985D01*
X199661015Y-121457519D01*
X199754147Y-121596900D01*
X199818297Y-121751772D01*
X199851000Y-121916184D01*
X199851000Y-122083816D01*
X199818297Y-122248228D01*
X199754147Y-122403100D01*
X199661015Y-122542481D01*
X199542481Y-122661015D01*
X199403100Y-122754147D01*
X199248228Y-122818297D01*
X199083816Y-122851000D01*
X198916184Y-122851000D01*
X198751772Y-122818297D01*
X198596900Y-122754147D01*
X198457519Y-122661015D01*
X198338985Y-122542481D01*
X198245853Y-122403100D01*
X198181703Y-122248228D01*
X198149000Y-122083816D01*
X198149000Y-121916184D01*
X198181703Y-121751772D01*
X198245853Y-121596900D01*
X198338985Y-121457519D01*
X198457519Y-121338985D01*
X198596900Y-121245853D01*
X198751772Y-121181703D01*
X198916184Y-121149000D01*
X199083816Y-121149000D01*
X199248228Y-121181703D01*
G37*
G36*
X184248228Y-121181703D02*
G01*
X184403100Y-121245853D01*
X184542481Y-121338985D01*
X184661015Y-121457519D01*
X184754147Y-121596900D01*
X184818297Y-121751772D01*
X184851000Y-121916184D01*
X184851000Y-122083816D01*
X184818297Y-122248228D01*
X184754147Y-122403100D01*
X184661015Y-122542481D01*
X184542481Y-122661015D01*
X184403100Y-122754147D01*
X184248228Y-122818297D01*
X184083816Y-122851000D01*
X183916184Y-122851000D01*
X183751772Y-122818297D01*
X183596900Y-122754147D01*
X183457519Y-122661015D01*
X183338985Y-122542481D01*
X183245853Y-122403100D01*
X183181703Y-122248228D01*
X183149000Y-122083816D01*
X183149000Y-121916184D01*
X183181703Y-121751772D01*
X183245853Y-121596900D01*
X183338985Y-121457519D01*
X183457519Y-121338985D01*
X183596900Y-121245853D01*
X183751772Y-121181703D01*
X183916184Y-121149000D01*
X184083816Y-121149000D01*
X184248228Y-121181703D01*
G37*
G36*
X173226564Y-119989389D02*
G01*
X173417833Y-120068615D01*
X173417835Y-120068616D01*
X173589973Y-120183635D01*
X173736365Y-120330027D01*
X173851385Y-120502167D01*
X173930611Y-120693436D01*
X173971000Y-120896484D01*
X173971000Y-121103516D01*
X173930611Y-121306564D01*
X173868083Y-121457520D01*
X173851384Y-121497835D01*
X173736365Y-121669973D01*
X173589973Y-121816365D01*
X173417835Y-121931384D01*
X173417834Y-121931385D01*
X173417833Y-121931385D01*
X173226564Y-122010611D01*
X173023516Y-122051000D01*
X172816484Y-122051000D01*
X172613436Y-122010611D01*
X172422167Y-121931385D01*
X172422166Y-121931385D01*
X172422165Y-121931384D01*
X172250027Y-121816365D01*
X172103635Y-121669973D01*
X171988616Y-121497835D01*
X171971917Y-121457520D01*
X171909389Y-121306564D01*
X171869000Y-121103516D01*
X171869000Y-120896484D01*
X171909389Y-120693436D01*
X171988615Y-120502167D01*
X172103635Y-120330027D01*
X172250027Y-120183635D01*
X172422165Y-120068616D01*
X172422167Y-120068615D01*
X172613436Y-119989389D01*
X172816484Y-119949000D01*
X173023516Y-119949000D01*
X173226564Y-119989389D01*
G37*
G36*
X142746564Y-119989389D02*
G01*
X142937833Y-120068615D01*
X142937835Y-120068616D01*
X143109973Y-120183635D01*
X143256365Y-120330027D01*
X143371385Y-120502167D01*
X143450611Y-120693436D01*
X143491000Y-120896484D01*
X143491000Y-121103516D01*
X143450611Y-121306564D01*
X143388083Y-121457520D01*
X143371384Y-121497835D01*
X143256365Y-121669973D01*
X143109973Y-121816365D01*
X142937835Y-121931384D01*
X142937834Y-121931385D01*
X142937833Y-121931385D01*
X142746564Y-122010611D01*
X142543516Y-122051000D01*
X142336484Y-122051000D01*
X142133436Y-122010611D01*
X141942167Y-121931385D01*
X141942166Y-121931385D01*
X141942165Y-121931384D01*
X141770027Y-121816365D01*
X141623635Y-121669973D01*
X141508616Y-121497835D01*
X141491917Y-121457520D01*
X141429389Y-121306564D01*
X141389000Y-121103516D01*
X141389000Y-120896484D01*
X141429389Y-120693436D01*
X141508615Y-120502167D01*
X141623635Y-120330027D01*
X141770027Y-120183635D01*
X141942165Y-120068616D01*
X141942167Y-120068615D01*
X142133436Y-119989389D01*
X142336484Y-119949000D01*
X142543516Y-119949000D01*
X142746564Y-119989389D01*
G37*
G36*
X165606564Y-119989389D02*
G01*
X165797833Y-120068615D01*
X165797835Y-120068616D01*
X165969973Y-120183635D01*
X166116365Y-120330027D01*
X166231385Y-120502167D01*
X166310611Y-120693436D01*
X166351000Y-120896484D01*
X166351000Y-121103516D01*
X166310611Y-121306564D01*
X166248083Y-121457520D01*
X166231384Y-121497835D01*
X166116365Y-121669973D01*
X165969973Y-121816365D01*
X165797835Y-121931384D01*
X165797834Y-121931385D01*
X165797833Y-121931385D01*
X165606564Y-122010611D01*
X165403516Y-122051000D01*
X165196484Y-122051000D01*
X164993436Y-122010611D01*
X164802167Y-121931385D01*
X164802166Y-121931385D01*
X164802165Y-121931384D01*
X164630027Y-121816365D01*
X164483635Y-121669973D01*
X164368616Y-121497835D01*
X164351917Y-121457520D01*
X164289389Y-121306564D01*
X164249000Y-121103516D01*
X164249000Y-120896484D01*
X164289389Y-120693436D01*
X164368615Y-120502167D01*
X164483635Y-120330027D01*
X164630027Y-120183635D01*
X164802165Y-120068616D01*
X164802167Y-120068615D01*
X164993436Y-119989389D01*
X165196484Y-119949000D01*
X165403516Y-119949000D01*
X165606564Y-119989389D01*
G37*
G36*
X175766564Y-119989389D02*
G01*
X175957833Y-120068615D01*
X175957835Y-120068616D01*
X176129973Y-120183635D01*
X176276365Y-120330027D01*
X176391385Y-120502167D01*
X176470611Y-120693436D01*
X176511000Y-120896484D01*
X176511000Y-121103516D01*
X176470611Y-121306564D01*
X176408083Y-121457520D01*
X176391384Y-121497835D01*
X176276365Y-121669973D01*
X176129973Y-121816365D01*
X175957835Y-121931384D01*
X175957834Y-121931385D01*
X175957833Y-121931385D01*
X175766564Y-122010611D01*
X175563516Y-122051000D01*
X175356484Y-122051000D01*
X175153436Y-122010611D01*
X174962167Y-121931385D01*
X174962166Y-121931385D01*
X174962165Y-121931384D01*
X174790027Y-121816365D01*
X174643635Y-121669973D01*
X174528616Y-121497835D01*
X174511917Y-121457520D01*
X174449389Y-121306564D01*
X174409000Y-121103516D01*
X174409000Y-120896484D01*
X174449389Y-120693436D01*
X174528615Y-120502167D01*
X174643635Y-120330027D01*
X174790027Y-120183635D01*
X174962165Y-120068616D01*
X174962167Y-120068615D01*
X175153436Y-119989389D01*
X175356484Y-119949000D01*
X175563516Y-119949000D01*
X175766564Y-119989389D01*
G37*
G36*
X179051000Y-122051000D02*
G01*
X176949000Y-122051000D01*
X176949000Y-119949000D01*
X179051000Y-119949000D01*
X179051000Y-122051000D01*
G37*
G36*
X170686564Y-119989389D02*
G01*
X170877833Y-120068615D01*
X170877835Y-120068616D01*
X171049973Y-120183635D01*
X171196365Y-120330027D01*
X171311385Y-120502167D01*
X171390611Y-120693436D01*
X171431000Y-120896484D01*
X171431000Y-121103516D01*
X171390611Y-121306564D01*
X171328083Y-121457520D01*
X171311384Y-121497835D01*
X171196365Y-121669973D01*
X171049973Y-121816365D01*
X170877835Y-121931384D01*
X170877834Y-121931385D01*
X170877833Y-121931385D01*
X170686564Y-122010611D01*
X170483516Y-122051000D01*
X170276484Y-122051000D01*
X170073436Y-122010611D01*
X169882167Y-121931385D01*
X169882166Y-121931385D01*
X169882165Y-121931384D01*
X169710027Y-121816365D01*
X169563635Y-121669973D01*
X169448616Y-121497835D01*
X169431917Y-121457520D01*
X169369389Y-121306564D01*
X169329000Y-121103516D01*
X169329000Y-120896484D01*
X169369389Y-120693436D01*
X169448615Y-120502167D01*
X169563635Y-120330027D01*
X169710027Y-120183635D01*
X169882165Y-120068616D01*
X169882167Y-120068615D01*
X170073436Y-119989389D01*
X170276484Y-119949000D01*
X170483516Y-119949000D01*
X170686564Y-119989389D01*
G37*
G36*
X168146564Y-119989389D02*
G01*
X168337833Y-120068615D01*
X168337835Y-120068616D01*
X168509973Y-120183635D01*
X168656365Y-120330027D01*
X168771385Y-120502167D01*
X168850611Y-120693436D01*
X168891000Y-120896484D01*
X168891000Y-121103516D01*
X168850611Y-121306564D01*
X168788083Y-121457520D01*
X168771384Y-121497835D01*
X168656365Y-121669973D01*
X168509973Y-121816365D01*
X168337835Y-121931384D01*
X168337834Y-121931385D01*
X168337833Y-121931385D01*
X168146564Y-122010611D01*
X167943516Y-122051000D01*
X167736484Y-122051000D01*
X167533436Y-122010611D01*
X167342167Y-121931385D01*
X167342166Y-121931385D01*
X167342165Y-121931384D01*
X167170027Y-121816365D01*
X167023635Y-121669973D01*
X166908616Y-121497835D01*
X166891917Y-121457520D01*
X166829389Y-121306564D01*
X166789000Y-121103516D01*
X166789000Y-120896484D01*
X166829389Y-120693436D01*
X166908615Y-120502167D01*
X167023635Y-120330027D01*
X167170027Y-120183635D01*
X167342165Y-120068616D01*
X167342167Y-120068615D01*
X167533436Y-119989389D01*
X167736484Y-119949000D01*
X167943516Y-119949000D01*
X168146564Y-119989389D01*
G37*
G36*
X163066564Y-119989389D02*
G01*
X163257833Y-120068615D01*
X163257835Y-120068616D01*
X163429973Y-120183635D01*
X163576365Y-120330027D01*
X163691385Y-120502167D01*
X163770611Y-120693436D01*
X163811000Y-120896484D01*
X163811000Y-121103516D01*
X163770611Y-121306564D01*
X163708083Y-121457520D01*
X163691384Y-121497835D01*
X163576365Y-121669973D01*
X163429973Y-121816365D01*
X163257835Y-121931384D01*
X163257834Y-121931385D01*
X163257833Y-121931385D01*
X163066564Y-122010611D01*
X162863516Y-122051000D01*
X162656484Y-122051000D01*
X162453436Y-122010611D01*
X162262167Y-121931385D01*
X162262166Y-121931385D01*
X162262165Y-121931384D01*
X162090027Y-121816365D01*
X161943635Y-121669973D01*
X161828616Y-121497835D01*
X161811917Y-121457520D01*
X161749389Y-121306564D01*
X161709000Y-121103516D01*
X161709000Y-120896484D01*
X161749389Y-120693436D01*
X161828615Y-120502167D01*
X161943635Y-120330027D01*
X162090027Y-120183635D01*
X162262165Y-120068616D01*
X162262167Y-120068615D01*
X162453436Y-119989389D01*
X162656484Y-119949000D01*
X162863516Y-119949000D01*
X163066564Y-119989389D01*
G37*
G36*
X160526564Y-119989389D02*
G01*
X160717833Y-120068615D01*
X160717835Y-120068616D01*
X160889973Y-120183635D01*
X161036365Y-120330027D01*
X161151385Y-120502167D01*
X161230611Y-120693436D01*
X161271000Y-120896484D01*
X161271000Y-121103516D01*
X161230611Y-121306564D01*
X161168083Y-121457520D01*
X161151384Y-121497835D01*
X161036365Y-121669973D01*
X160889973Y-121816365D01*
X160717835Y-121931384D01*
X160717834Y-121931385D01*
X160717833Y-121931385D01*
X160526564Y-122010611D01*
X160323516Y-122051000D01*
X160116484Y-122051000D01*
X159913436Y-122010611D01*
X159722167Y-121931385D01*
X159722166Y-121931385D01*
X159722165Y-121931384D01*
X159550027Y-121816365D01*
X159403635Y-121669973D01*
X159288616Y-121497835D01*
X159271917Y-121457520D01*
X159209389Y-121306564D01*
X159169000Y-121103516D01*
X159169000Y-120896484D01*
X159209389Y-120693436D01*
X159288615Y-120502167D01*
X159403635Y-120330027D01*
X159550027Y-120183635D01*
X159722165Y-120068616D01*
X159722167Y-120068615D01*
X159913436Y-119989389D01*
X160116484Y-119949000D01*
X160323516Y-119949000D01*
X160526564Y-119989389D01*
G37*
G36*
X157986564Y-119989389D02*
G01*
X158177833Y-120068615D01*
X158177835Y-120068616D01*
X158349973Y-120183635D01*
X158496365Y-120330027D01*
X158611385Y-120502167D01*
X158690611Y-120693436D01*
X158731000Y-120896484D01*
X158731000Y-121103516D01*
X158690611Y-121306564D01*
X158628083Y-121457520D01*
X158611384Y-121497835D01*
X158496365Y-121669973D01*
X158349973Y-121816365D01*
X158177835Y-121931384D01*
X158177834Y-121931385D01*
X158177833Y-121931385D01*
X157986564Y-122010611D01*
X157783516Y-122051000D01*
X157576484Y-122051000D01*
X157373436Y-122010611D01*
X157182167Y-121931385D01*
X157182166Y-121931385D01*
X157182165Y-121931384D01*
X157010027Y-121816365D01*
X156863635Y-121669973D01*
X156748616Y-121497835D01*
X156731917Y-121457520D01*
X156669389Y-121306564D01*
X156629000Y-121103516D01*
X156629000Y-120896484D01*
X156669389Y-120693436D01*
X156748615Y-120502167D01*
X156863635Y-120330027D01*
X157010027Y-120183635D01*
X157182165Y-120068616D01*
X157182167Y-120068615D01*
X157373436Y-119989389D01*
X157576484Y-119949000D01*
X157783516Y-119949000D01*
X157986564Y-119989389D01*
G37*
G36*
X155446564Y-119989389D02*
G01*
X155637833Y-120068615D01*
X155637835Y-120068616D01*
X155809973Y-120183635D01*
X155956365Y-120330027D01*
X156071385Y-120502167D01*
X156150611Y-120693436D01*
X156191000Y-120896484D01*
X156191000Y-121103516D01*
X156150611Y-121306564D01*
X156088083Y-121457520D01*
X156071384Y-121497835D01*
X155956365Y-121669973D01*
X155809973Y-121816365D01*
X155637835Y-121931384D01*
X155637834Y-121931385D01*
X155637833Y-121931385D01*
X155446564Y-122010611D01*
X155243516Y-122051000D01*
X155036484Y-122051000D01*
X154833436Y-122010611D01*
X154642167Y-121931385D01*
X154642166Y-121931385D01*
X154642165Y-121931384D01*
X154470027Y-121816365D01*
X154323635Y-121669973D01*
X154208616Y-121497835D01*
X154191917Y-121457520D01*
X154129389Y-121306564D01*
X154089000Y-121103516D01*
X154089000Y-120896484D01*
X154129389Y-120693436D01*
X154208615Y-120502167D01*
X154323635Y-120330027D01*
X154470027Y-120183635D01*
X154642165Y-120068616D01*
X154642167Y-120068615D01*
X154833436Y-119989389D01*
X155036484Y-119949000D01*
X155243516Y-119949000D01*
X155446564Y-119989389D01*
G37*
G36*
X152906564Y-119989389D02*
G01*
X153097833Y-120068615D01*
X153097835Y-120068616D01*
X153269973Y-120183635D01*
X153416365Y-120330027D01*
X153531385Y-120502167D01*
X153610611Y-120693436D01*
X153651000Y-120896484D01*
X153651000Y-121103516D01*
X153610611Y-121306564D01*
X153548083Y-121457520D01*
X153531384Y-121497835D01*
X153416365Y-121669973D01*
X153269973Y-121816365D01*
X153097835Y-121931384D01*
X153097834Y-121931385D01*
X153097833Y-121931385D01*
X152906564Y-122010611D01*
X152703516Y-122051000D01*
X152496484Y-122051000D01*
X152293436Y-122010611D01*
X152102167Y-121931385D01*
X152102166Y-121931385D01*
X152102165Y-121931384D01*
X151930027Y-121816365D01*
X151783635Y-121669973D01*
X151668616Y-121497835D01*
X151651917Y-121457520D01*
X151589389Y-121306564D01*
X151549000Y-121103516D01*
X151549000Y-120896484D01*
X151589389Y-120693436D01*
X151668615Y-120502167D01*
X151783635Y-120330027D01*
X151930027Y-120183635D01*
X152102165Y-120068616D01*
X152102167Y-120068615D01*
X152293436Y-119989389D01*
X152496484Y-119949000D01*
X152703516Y-119949000D01*
X152906564Y-119989389D01*
G37*
G36*
X150366564Y-119989389D02*
G01*
X150557833Y-120068615D01*
X150557835Y-120068616D01*
X150729973Y-120183635D01*
X150876365Y-120330027D01*
X150991385Y-120502167D01*
X151070611Y-120693436D01*
X151111000Y-120896484D01*
X151111000Y-121103516D01*
X151070611Y-121306564D01*
X151008083Y-121457520D01*
X150991384Y-121497835D01*
X150876365Y-121669973D01*
X150729973Y-121816365D01*
X150557835Y-121931384D01*
X150557834Y-121931385D01*
X150557833Y-121931385D01*
X150366564Y-122010611D01*
X150163516Y-122051000D01*
X149956484Y-122051000D01*
X149753436Y-122010611D01*
X149562167Y-121931385D01*
X149562166Y-121931385D01*
X149562165Y-121931384D01*
X149390027Y-121816365D01*
X149243635Y-121669973D01*
X149128616Y-121497835D01*
X149111917Y-121457520D01*
X149049389Y-121306564D01*
X149009000Y-121103516D01*
X149009000Y-120896484D01*
X149049389Y-120693436D01*
X149128615Y-120502167D01*
X149243635Y-120330027D01*
X149390027Y-120183635D01*
X149562165Y-120068616D01*
X149562167Y-120068615D01*
X149753436Y-119989389D01*
X149956484Y-119949000D01*
X150163516Y-119949000D01*
X150366564Y-119989389D01*
G37*
G36*
X147826564Y-119989389D02*
G01*
X148017833Y-120068615D01*
X148017835Y-120068616D01*
X148189973Y-120183635D01*
X148336365Y-120330027D01*
X148451385Y-120502167D01*
X148530611Y-120693436D01*
X148571000Y-120896484D01*
X148571000Y-121103516D01*
X148530611Y-121306564D01*
X148468083Y-121457520D01*
X148451384Y-121497835D01*
X148336365Y-121669973D01*
X148189973Y-121816365D01*
X148017835Y-121931384D01*
X148017834Y-121931385D01*
X148017833Y-121931385D01*
X147826564Y-122010611D01*
X147623516Y-122051000D01*
X147416484Y-122051000D01*
X147213436Y-122010611D01*
X147022167Y-121931385D01*
X147022166Y-121931385D01*
X147022165Y-121931384D01*
X146850027Y-121816365D01*
X146703635Y-121669973D01*
X146588616Y-121497835D01*
X146571917Y-121457520D01*
X146509389Y-121306564D01*
X146469000Y-121103516D01*
X146469000Y-120896484D01*
X146509389Y-120693436D01*
X146588615Y-120502167D01*
X146703635Y-120330027D01*
X146850027Y-120183635D01*
X147022165Y-120068616D01*
X147022167Y-120068615D01*
X147213436Y-119989389D01*
X147416484Y-119949000D01*
X147623516Y-119949000D01*
X147826564Y-119989389D01*
G37*
G36*
X145286564Y-119989389D02*
G01*
X145477833Y-120068615D01*
X145477835Y-120068616D01*
X145649973Y-120183635D01*
X145796365Y-120330027D01*
X145911385Y-120502167D01*
X145990611Y-120693436D01*
X146031000Y-120896484D01*
X146031000Y-121103516D01*
X145990611Y-121306564D01*
X145928083Y-121457520D01*
X145911384Y-121497835D01*
X145796365Y-121669973D01*
X145649973Y-121816365D01*
X145477835Y-121931384D01*
X145477834Y-121931385D01*
X145477833Y-121931385D01*
X145286564Y-122010611D01*
X145083516Y-122051000D01*
X144876484Y-122051000D01*
X144673436Y-122010611D01*
X144482167Y-121931385D01*
X144482166Y-121931385D01*
X144482165Y-121931384D01*
X144310027Y-121816365D01*
X144163635Y-121669973D01*
X144048616Y-121497835D01*
X144031917Y-121457520D01*
X143969389Y-121306564D01*
X143929000Y-121103516D01*
X143929000Y-120896484D01*
X143969389Y-120693436D01*
X144048615Y-120502167D01*
X144163635Y-120330027D01*
X144310027Y-120183635D01*
X144482165Y-120068616D01*
X144482167Y-120068615D01*
X144673436Y-119989389D01*
X144876484Y-119949000D01*
X145083516Y-119949000D01*
X145286564Y-119989389D01*
G37*
G36*
X213224549Y-117711116D02*
G01*
X213335734Y-117733232D01*
X213545203Y-117819997D01*
X213733720Y-117945960D01*
X213894040Y-118106280D01*
X214020003Y-118294797D01*
X214106768Y-118504266D01*
X214151000Y-118726636D01*
X214151000Y-118953364D01*
X214106768Y-119175734D01*
X214020003Y-119385203D01*
X213894040Y-119573720D01*
X213733720Y-119734040D01*
X213545203Y-119860003D01*
X213335734Y-119946768D01*
X213224549Y-119968884D01*
X213113365Y-119991000D01*
X212886635Y-119991000D01*
X212775451Y-119968884D01*
X212664266Y-119946768D01*
X212454797Y-119860003D01*
X212266280Y-119734040D01*
X212105960Y-119573720D01*
X211979997Y-119385203D01*
X211893232Y-119175734D01*
X211849000Y-118953364D01*
X211849000Y-118726636D01*
X211893232Y-118504266D01*
X211979997Y-118294797D01*
X212105960Y-118106280D01*
X212266280Y-117945960D01*
X212454797Y-117819997D01*
X212664266Y-117733232D01*
X212775451Y-117711116D01*
X212886635Y-117689000D01*
X213113365Y-117689000D01*
X213224549Y-117711116D01*
G37*
G36*
X142108710Y-110345070D02*
G01*
X142800447Y-110631597D01*
X142800448Y-110631598D01*
X143422996Y-111047571D01*
X143952429Y-111577004D01*
X144230374Y-111992978D01*
X144368403Y-112199553D01*
X144654930Y-112891290D01*
X144801000Y-113625633D01*
X144801000Y-114374367D01*
X144654930Y-115108710D01*
X144368403Y-115800447D01*
X144368402Y-115800448D01*
X143952429Y-116422996D01*
X143422996Y-116952429D01*
X143007022Y-117230374D01*
X142800447Y-117368403D01*
X142108710Y-117654930D01*
X141374367Y-117801000D01*
X140625633Y-117801000D01*
X139891290Y-117654930D01*
X139199553Y-117368403D01*
X138992978Y-117230374D01*
X138577004Y-116952429D01*
X138047571Y-116422996D01*
X137631598Y-115800448D01*
X137631597Y-115800447D01*
X137345070Y-115108710D01*
X137199000Y-114374367D01*
X137199000Y-113625633D01*
X137345070Y-112891290D01*
X137631597Y-112199553D01*
X137769626Y-111992978D01*
X138047571Y-111577004D01*
X138577004Y-111047571D01*
X139199552Y-110631598D01*
X139199553Y-110631597D01*
X139891290Y-110345070D01*
X140625633Y-110199000D01*
X141374367Y-110199000D01*
X142108710Y-110345070D01*
G37*
G36*
X222108710Y-110345070D02*
G01*
X222800447Y-110631597D01*
X222800448Y-110631598D01*
X223422996Y-111047571D01*
X223952429Y-111577004D01*
X224230374Y-111992978D01*
X224368403Y-112199553D01*
X224654930Y-112891290D01*
X224801000Y-113625633D01*
X224801000Y-114374367D01*
X224654930Y-115108710D01*
X224368403Y-115800447D01*
X224368402Y-115800448D01*
X223952429Y-116422996D01*
X223422996Y-116952429D01*
X223007022Y-117230374D01*
X222800447Y-117368403D01*
X222108710Y-117654930D01*
X221374367Y-117801000D01*
X220625633Y-117801000D01*
X219891290Y-117654930D01*
X219199553Y-117368403D01*
X218992978Y-117230374D01*
X218577004Y-116952429D01*
X218047571Y-116422996D01*
X217631598Y-115800448D01*
X217631597Y-115800447D01*
X217345070Y-115108710D01*
X217199000Y-114374367D01*
X217199000Y-113625633D01*
X217345070Y-112891290D01*
X217631597Y-112199553D01*
X217769626Y-111992978D01*
X218047571Y-111577004D01*
X218577004Y-111047571D01*
X219199552Y-110631598D01*
X219199553Y-110631597D01*
X219891290Y-110345070D01*
X220625633Y-110199000D01*
X221374367Y-110199000D01*
X222108710Y-110345070D01*
G37*
M02*
