G04 #@! TF.GenerationSoftware,KiCad,Pcbnew,(5.1.5-0-10_14)*
G04 #@! TF.CreationDate,2020-08-14T20:47:28-03:00*
G04 #@! TF.ProjectId,UltraCif,556c7472-6143-4696-962e-6b696361645f,rev?*
G04 #@! TF.SameCoordinates,Original*
G04 #@! TF.FileFunction,Legend,Bot*
G04 #@! TF.FilePolarity,Positive*
%FSLAX46Y46*%
G04 Gerber Fmt 4.6, Leading zero omitted, Abs format (unit mm)*
G04 Created by KiCad (PCBNEW (5.1.5-0-10_14)) date 2020-08-14 20:47:28*
%MOMM*%
%LPD*%
G04 APERTURE LIST*
%ADD10C,0.250000*%
%ADD11C,0.010000*%
G04 APERTURE END LIST*
D10*
X205410714Y-157452380D02*
X206410714Y-157452380D01*
X205458333Y-157452380D02*
X205410714Y-157547619D01*
X205410714Y-157738095D01*
X205458333Y-157833333D01*
X205505952Y-157880952D01*
X205601190Y-157928571D01*
X205886904Y-157928571D01*
X205982142Y-157880952D01*
X206029761Y-157833333D01*
X206077380Y-157738095D01*
X206077380Y-157547619D01*
X206029761Y-157452380D01*
X206029761Y-158785714D02*
X206077380Y-158690476D01*
X206077380Y-158500000D01*
X206029761Y-158404761D01*
X205982142Y-158357142D01*
X205886904Y-158309523D01*
X205601190Y-158309523D01*
X205505952Y-158357142D01*
X205458333Y-158404761D01*
X205410714Y-158500000D01*
X205410714Y-158690476D01*
X205458333Y-158785714D01*
X206077380Y-159214285D02*
X205077380Y-159214285D01*
X205458333Y-159214285D02*
X205410714Y-159309523D01*
X205410714Y-159500000D01*
X205458333Y-159595238D01*
X205505952Y-159642857D01*
X205601190Y-159690476D01*
X205886904Y-159690476D01*
X205982142Y-159642857D01*
X206029761Y-159595238D01*
X206077380Y-159500000D01*
X206077380Y-159309523D01*
X206029761Y-159214285D01*
X206077380Y-160880952D02*
X205077380Y-160880952D01*
X205458333Y-160880952D02*
X205410714Y-160976190D01*
X205410714Y-161166666D01*
X205458333Y-161261904D01*
X205505952Y-161309523D01*
X205601190Y-161357142D01*
X205886904Y-161357142D01*
X205982142Y-161309523D01*
X206029761Y-161261904D01*
X206077380Y-161166666D01*
X206077380Y-160976190D01*
X206029761Y-160880952D01*
X205410714Y-161690476D02*
X206077380Y-161928571D01*
X205410714Y-162166666D02*
X206077380Y-161928571D01*
X206315476Y-161833333D01*
X206363095Y-161785714D01*
X206410714Y-161690476D01*
X205982142Y-162547619D02*
X206029761Y-162595238D01*
X206077380Y-162547619D01*
X206029761Y-162500000D01*
X205982142Y-162547619D01*
X206077380Y-162547619D01*
X205458333Y-162547619D02*
X205505952Y-162595238D01*
X205553571Y-162547619D01*
X205505952Y-162500000D01*
X205458333Y-162547619D01*
X205553571Y-162547619D01*
X207351190Y-155380952D02*
X207303571Y-155333333D01*
X207255952Y-155238095D01*
X207255952Y-155142857D01*
X207303571Y-155047619D01*
X207351190Y-155000000D01*
X207446428Y-154952380D01*
X207541666Y-154952380D01*
X207636904Y-155000000D01*
X207684523Y-155047619D01*
X207732142Y-155142857D01*
X207732142Y-155238095D01*
X207684523Y-155333333D01*
X207636904Y-155380952D01*
X207255952Y-155380952D02*
X207636904Y-155380952D01*
X207684523Y-155428571D01*
X207684523Y-155476190D01*
X207636904Y-155571428D01*
X207541666Y-155619047D01*
X207303571Y-155619047D01*
X207160714Y-155523809D01*
X207065476Y-155380952D01*
X207017857Y-155190476D01*
X207065476Y-155000000D01*
X207160714Y-154857142D01*
X207303571Y-154761904D01*
X207494047Y-154714285D01*
X207684523Y-154761904D01*
X207827380Y-154857142D01*
X207922619Y-155000000D01*
X207970238Y-155190476D01*
X207922619Y-155380952D01*
X207827380Y-155523809D01*
X207779761Y-156476190D02*
X207827380Y-156380952D01*
X207827380Y-156190476D01*
X207779761Y-156095238D01*
X207732142Y-156047619D01*
X207636904Y-156000000D01*
X207351190Y-156000000D01*
X207255952Y-156047619D01*
X207208333Y-156095238D01*
X207160714Y-156190476D01*
X207160714Y-156380952D01*
X207208333Y-156476190D01*
X207827380Y-157333333D02*
X207303571Y-157333333D01*
X207208333Y-157285714D01*
X207160714Y-157190476D01*
X207160714Y-157000000D01*
X207208333Y-156904761D01*
X207779761Y-157333333D02*
X207827380Y-157238095D01*
X207827380Y-157000000D01*
X207779761Y-156904761D01*
X207684523Y-156857142D01*
X207589285Y-156857142D01*
X207494047Y-156904761D01*
X207446428Y-157000000D01*
X207446428Y-157238095D01*
X207398809Y-157333333D01*
X207827380Y-158238095D02*
X206827380Y-158238095D01*
X207779761Y-158238095D02*
X207827380Y-158142857D01*
X207827380Y-157952380D01*
X207779761Y-157857142D01*
X207732142Y-157809523D01*
X207636904Y-157761904D01*
X207351190Y-157761904D01*
X207255952Y-157809523D01*
X207208333Y-157857142D01*
X207160714Y-157952380D01*
X207160714Y-158142857D01*
X207208333Y-158238095D01*
X207160714Y-159142857D02*
X207827380Y-159142857D01*
X207160714Y-158714285D02*
X207684523Y-158714285D01*
X207779761Y-158761904D01*
X207827380Y-158857142D01*
X207827380Y-159000000D01*
X207779761Y-159095238D01*
X207732142Y-159142857D01*
X207160714Y-159619047D02*
X208160714Y-159619047D01*
X207208333Y-159619047D02*
X207160714Y-159714285D01*
X207160714Y-159904761D01*
X207208333Y-160000000D01*
X207255952Y-160047619D01*
X207351190Y-160095238D01*
X207636904Y-160095238D01*
X207732142Y-160047619D01*
X207779761Y-160000000D01*
X207827380Y-159904761D01*
X207827380Y-159714285D01*
X207779761Y-159619047D01*
X207827380Y-160952380D02*
X207303571Y-160952380D01*
X207208333Y-160904761D01*
X207160714Y-160809523D01*
X207160714Y-160619047D01*
X207208333Y-160523809D01*
X207779761Y-160952380D02*
X207827380Y-160857142D01*
X207827380Y-160619047D01*
X207779761Y-160523809D01*
X207684523Y-160476190D01*
X207589285Y-160476190D01*
X207494047Y-160523809D01*
X207446428Y-160619047D01*
X207446428Y-160857142D01*
X207398809Y-160952380D01*
X207827380Y-161571428D02*
X207779761Y-161476190D01*
X207684523Y-161428571D01*
X206827380Y-161428571D01*
X207827380Y-161952380D02*
X207160714Y-161952380D01*
X207255952Y-161952380D02*
X207208333Y-162000000D01*
X207160714Y-162095238D01*
X207160714Y-162238095D01*
X207208333Y-162333333D01*
X207303571Y-162380952D01*
X207827380Y-162380952D01*
X207303571Y-162380952D02*
X207208333Y-162428571D01*
X207160714Y-162523809D01*
X207160714Y-162666666D01*
X207208333Y-162761904D01*
X207303571Y-162809523D01*
X207827380Y-162809523D01*
X207827380Y-163285714D02*
X207160714Y-163285714D01*
X206827380Y-163285714D02*
X206875000Y-163238095D01*
X206922619Y-163285714D01*
X206875000Y-163333333D01*
X206827380Y-163285714D01*
X206922619Y-163285714D01*
X207779761Y-164142857D02*
X207827380Y-164047619D01*
X207827380Y-163857142D01*
X207779761Y-163761904D01*
X207684523Y-163714285D01*
X207303571Y-163714285D01*
X207208333Y-163761904D01*
X207160714Y-163857142D01*
X207160714Y-164047619D01*
X207208333Y-164142857D01*
X207303571Y-164190476D01*
X207398809Y-164190476D01*
X207494047Y-163714285D01*
X207827380Y-164619047D02*
X207160714Y-164619047D01*
X207351190Y-164619047D02*
X207255952Y-164666666D01*
X207208333Y-164714285D01*
X207160714Y-164809523D01*
X207160714Y-164904761D01*
X207827380Y-165238095D02*
X207160714Y-165238095D01*
X206827380Y-165238095D02*
X206875000Y-165190476D01*
X206922619Y-165238095D01*
X206875000Y-165285714D01*
X206827380Y-165238095D01*
X206922619Y-165238095D01*
D11*
G36*
X155228823Y-126225467D02*
G01*
X155260202Y-126203224D01*
X155287911Y-126175515D01*
X155287911Y-125866080D01*
X155287838Y-125774201D01*
X155287495Y-125702160D01*
X155286692Y-125647220D01*
X155285241Y-125606640D01*
X155282952Y-125577683D01*
X155279636Y-125557609D01*
X155275105Y-125543679D01*
X155269169Y-125533155D01*
X155264514Y-125526900D01*
X155233783Y-125502327D01*
X155198496Y-125499659D01*
X155166245Y-125514729D01*
X155155588Y-125523626D01*
X155148464Y-125535443D01*
X155144167Y-125554474D01*
X155141991Y-125585008D01*
X155141228Y-125631338D01*
X155141155Y-125667129D01*
X155141155Y-125801955D01*
X154644444Y-125801955D01*
X154644444Y-125679300D01*
X154643931Y-125623213D01*
X154641876Y-125584667D01*
X154637508Y-125558639D01*
X154630056Y-125540103D01*
X154621047Y-125526900D01*
X154590144Y-125502396D01*
X154555196Y-125499494D01*
X154521738Y-125516911D01*
X154512604Y-125526041D01*
X154506152Y-125538145D01*
X154501897Y-125556999D01*
X154499352Y-125586380D01*
X154498029Y-125630063D01*
X154497443Y-125691825D01*
X154497375Y-125706000D01*
X154496891Y-125822369D01*
X154496641Y-125918273D01*
X154496723Y-125995823D01*
X154497231Y-126057131D01*
X154498262Y-126104310D01*
X154499913Y-126139470D01*
X154502279Y-126164724D01*
X154505457Y-126182183D01*
X154509544Y-126193959D01*
X154514634Y-126202165D01*
X154520266Y-126208355D01*
X154552128Y-126228156D01*
X154585357Y-126225467D01*
X154616735Y-126203224D01*
X154629433Y-126188874D01*
X154637526Y-126173022D01*
X154642042Y-126150446D01*
X154644006Y-126115922D01*
X154644444Y-126064224D01*
X154644444Y-125948711D01*
X155141155Y-125948711D01*
X155141155Y-126067244D01*
X155141662Y-126121852D01*
X155143698Y-126158725D01*
X155148035Y-126182693D01*
X155155447Y-126198585D01*
X155163733Y-126208355D01*
X155195594Y-126228156D01*
X155228823Y-126225467D01*
G37*
X155228823Y-126225467D02*
X155260202Y-126203224D01*
X155287911Y-126175515D01*
X155287911Y-125866080D01*
X155287838Y-125774201D01*
X155287495Y-125702160D01*
X155286692Y-125647220D01*
X155285241Y-125606640D01*
X155282952Y-125577683D01*
X155279636Y-125557609D01*
X155275105Y-125543679D01*
X155269169Y-125533155D01*
X155264514Y-125526900D01*
X155233783Y-125502327D01*
X155198496Y-125499659D01*
X155166245Y-125514729D01*
X155155588Y-125523626D01*
X155148464Y-125535443D01*
X155144167Y-125554474D01*
X155141991Y-125585008D01*
X155141228Y-125631338D01*
X155141155Y-125667129D01*
X155141155Y-125801955D01*
X154644444Y-125801955D01*
X154644444Y-125679300D01*
X154643931Y-125623213D01*
X154641876Y-125584667D01*
X154637508Y-125558639D01*
X154630056Y-125540103D01*
X154621047Y-125526900D01*
X154590144Y-125502396D01*
X154555196Y-125499494D01*
X154521738Y-125516911D01*
X154512604Y-125526041D01*
X154506152Y-125538145D01*
X154501897Y-125556999D01*
X154499352Y-125586380D01*
X154498029Y-125630063D01*
X154497443Y-125691825D01*
X154497375Y-125706000D01*
X154496891Y-125822369D01*
X154496641Y-125918273D01*
X154496723Y-125995823D01*
X154497231Y-126057131D01*
X154498262Y-126104310D01*
X154499913Y-126139470D01*
X154502279Y-126164724D01*
X154505457Y-126182183D01*
X154509544Y-126193959D01*
X154514634Y-126202165D01*
X154520266Y-126208355D01*
X154552128Y-126228156D01*
X154585357Y-126225467D01*
X154616735Y-126203224D01*
X154629433Y-126188874D01*
X154637526Y-126173022D01*
X154642042Y-126150446D01*
X154644006Y-126115922D01*
X154644444Y-126064224D01*
X154644444Y-125948711D01*
X155141155Y-125948711D01*
X155141155Y-126067244D01*
X155141662Y-126121852D01*
X155143698Y-126158725D01*
X155148035Y-126182693D01*
X155155447Y-126198585D01*
X155163733Y-126208355D01*
X155195594Y-126228156D01*
X155228823Y-126225467D01*
G36*
X153963065Y-126230837D02*
G01*
X154041772Y-126230458D01*
X154102863Y-126229667D01*
X154148817Y-126228330D01*
X154182114Y-126226317D01*
X154205236Y-126223494D01*
X154220662Y-126219731D01*
X154230871Y-126214895D01*
X154235813Y-126211178D01*
X154261457Y-126178642D01*
X154264559Y-126144862D01*
X154248711Y-126114174D01*
X154238348Y-126101911D01*
X154227196Y-126093550D01*
X154211035Y-126088343D01*
X154185642Y-126085543D01*
X154146798Y-126084404D01*
X154090280Y-126084179D01*
X154079180Y-126084178D01*
X153933244Y-126084178D01*
X153933244Y-125813244D01*
X153933148Y-125727846D01*
X153932711Y-125662136D01*
X153931712Y-125613226D01*
X153929928Y-125578227D01*
X153927137Y-125554251D01*
X153923117Y-125538407D01*
X153917645Y-125527809D01*
X153910666Y-125519733D01*
X153877734Y-125499888D01*
X153843354Y-125501452D01*
X153812176Y-125524094D01*
X153809886Y-125526900D01*
X153802429Y-125537508D01*
X153796747Y-125549919D01*
X153792601Y-125567150D01*
X153789750Y-125592216D01*
X153787954Y-125628133D01*
X153786972Y-125677917D01*
X153786564Y-125744583D01*
X153786489Y-125820411D01*
X153786489Y-126084178D01*
X153647127Y-126084178D01*
X153587322Y-126084582D01*
X153545918Y-126086160D01*
X153518748Y-126089453D01*
X153501646Y-126095008D01*
X153490443Y-126103369D01*
X153489083Y-126104822D01*
X153472725Y-126138061D01*
X153474172Y-126175638D01*
X153492978Y-126208355D01*
X153500250Y-126214702D01*
X153509627Y-126219734D01*
X153523609Y-126223604D01*
X153544696Y-126226463D01*
X153575389Y-126228465D01*
X153618189Y-126229761D01*
X153675595Y-126230502D01*
X153750110Y-126230842D01*
X153844233Y-126230932D01*
X153864260Y-126230933D01*
X153963065Y-126230837D01*
G37*
X153963065Y-126230837D02*
X154041772Y-126230458D01*
X154102863Y-126229667D01*
X154148817Y-126228330D01*
X154182114Y-126226317D01*
X154205236Y-126223494D01*
X154220662Y-126219731D01*
X154230871Y-126214895D01*
X154235813Y-126211178D01*
X154261457Y-126178642D01*
X154264559Y-126144862D01*
X154248711Y-126114174D01*
X154238348Y-126101911D01*
X154227196Y-126093550D01*
X154211035Y-126088343D01*
X154185642Y-126085543D01*
X154146798Y-126084404D01*
X154090280Y-126084179D01*
X154079180Y-126084178D01*
X153933244Y-126084178D01*
X153933244Y-125813244D01*
X153933148Y-125727846D01*
X153932711Y-125662136D01*
X153931712Y-125613226D01*
X153929928Y-125578227D01*
X153927137Y-125554251D01*
X153923117Y-125538407D01*
X153917645Y-125527809D01*
X153910666Y-125519733D01*
X153877734Y-125499888D01*
X153843354Y-125501452D01*
X153812176Y-125524094D01*
X153809886Y-125526900D01*
X153802429Y-125537508D01*
X153796747Y-125549919D01*
X153792601Y-125567150D01*
X153789750Y-125592216D01*
X153787954Y-125628133D01*
X153786972Y-125677917D01*
X153786564Y-125744583D01*
X153786489Y-125820411D01*
X153786489Y-126084178D01*
X153647127Y-126084178D01*
X153587322Y-126084582D01*
X153545918Y-126086160D01*
X153518748Y-126089453D01*
X153501646Y-126095008D01*
X153490443Y-126103369D01*
X153489083Y-126104822D01*
X153472725Y-126138061D01*
X153474172Y-126175638D01*
X153492978Y-126208355D01*
X153500250Y-126214702D01*
X153509627Y-126219734D01*
X153523609Y-126223604D01*
X153544696Y-126226463D01*
X153575389Y-126228465D01*
X153618189Y-126229761D01*
X153675595Y-126230502D01*
X153750110Y-126230842D01*
X153844233Y-126230932D01*
X153864260Y-126230933D01*
X153963065Y-126230837D01*
G36*
X153188614Y-126224123D02*
G01*
X153212327Y-126209353D01*
X153238978Y-126187773D01*
X153238978Y-125866227D01*
X153238893Y-125772170D01*
X153238529Y-125698068D01*
X153237724Y-125641296D01*
X153236313Y-125599232D01*
X153234133Y-125569252D01*
X153231021Y-125548733D01*
X153226814Y-125535051D01*
X153221348Y-125525584D01*
X153217472Y-125520918D01*
X153186034Y-125500425D01*
X153150233Y-125501261D01*
X153118873Y-125518736D01*
X153092222Y-125540316D01*
X153092222Y-126187773D01*
X153118873Y-126209353D01*
X153144594Y-126225051D01*
X153165600Y-126230933D01*
X153188614Y-126224123D01*
G37*
X153188614Y-126224123D02*
X153212327Y-126209353D01*
X153238978Y-126187773D01*
X153238978Y-125866227D01*
X153238893Y-125772170D01*
X153238529Y-125698068D01*
X153237724Y-125641296D01*
X153236313Y-125599232D01*
X153234133Y-125569252D01*
X153231021Y-125548733D01*
X153226814Y-125535051D01*
X153221348Y-125525584D01*
X153217472Y-125520918D01*
X153186034Y-125500425D01*
X153150233Y-125501261D01*
X153118873Y-125518736D01*
X153092222Y-125540316D01*
X153092222Y-126187773D01*
X153118873Y-126209353D01*
X153144594Y-126225051D01*
X153165600Y-126230933D01*
X153188614Y-126224123D01*
G36*
X152744665Y-126228966D02*
G01*
X152764255Y-126221965D01*
X152765010Y-126221623D01*
X152791613Y-126201322D01*
X152806270Y-126180439D01*
X152809138Y-126170648D01*
X152808996Y-126157639D01*
X152804961Y-126139105D01*
X152796146Y-126112743D01*
X152781669Y-126076248D01*
X152760645Y-126027313D01*
X152732188Y-125963635D01*
X152695415Y-125882907D01*
X152675175Y-125838784D01*
X152638625Y-125760015D01*
X152604315Y-125687577D01*
X152573552Y-125624120D01*
X152547648Y-125572292D01*
X152527910Y-125534741D01*
X152515650Y-125514116D01*
X152513224Y-125511267D01*
X152482183Y-125498698D01*
X152447121Y-125500381D01*
X152419000Y-125515668D01*
X152417854Y-125516911D01*
X152406668Y-125533846D01*
X152387904Y-125566830D01*
X152363875Y-125611620D01*
X152336897Y-125663968D01*
X152327201Y-125683258D01*
X152254014Y-125829850D01*
X152174240Y-125670607D01*
X152145767Y-125615585D01*
X152119350Y-125567868D01*
X152097148Y-125531107D01*
X152081319Y-125508956D01*
X152075954Y-125504259D01*
X152034257Y-125497898D01*
X151999849Y-125511267D01*
X151989728Y-125525554D01*
X151972214Y-125557308D01*
X151948735Y-125603403D01*
X151920720Y-125660715D01*
X151889599Y-125726120D01*
X151856799Y-125796493D01*
X151823750Y-125868709D01*
X151791881Y-125939645D01*
X151762619Y-126006175D01*
X151737395Y-126065174D01*
X151717636Y-126113519D01*
X151704772Y-126148085D01*
X151700231Y-126165747D01*
X151700277Y-126166387D01*
X151711326Y-126188612D01*
X151733410Y-126211247D01*
X151734710Y-126212232D01*
X151761853Y-126227575D01*
X151786958Y-126227426D01*
X151796368Y-126224534D01*
X151807834Y-126218282D01*
X151820010Y-126205986D01*
X151834357Y-126185092D01*
X151852336Y-126153051D01*
X151875407Y-126107312D01*
X151905030Y-126045323D01*
X151931745Y-125988102D01*
X151962480Y-125921774D01*
X151990021Y-125862126D01*
X152012938Y-125812275D01*
X152029798Y-125775336D01*
X152039173Y-125754427D01*
X152040540Y-125751155D01*
X152046689Y-125756503D01*
X152060822Y-125778891D01*
X152081057Y-125815054D01*
X152105515Y-125861723D01*
X152115248Y-125880978D01*
X152148217Y-125945996D01*
X152173643Y-125993346D01*
X152193612Y-126025781D01*
X152210210Y-126046054D01*
X152225524Y-126056918D01*
X152241640Y-126061125D01*
X152252143Y-126061600D01*
X152270670Y-126059958D01*
X152286904Y-126053169D01*
X152303035Y-126038434D01*
X152321251Y-126012956D01*
X152343739Y-125973939D01*
X152372689Y-125918586D01*
X152388662Y-125887097D01*
X152414570Y-125836913D01*
X152437167Y-125795296D01*
X152454458Y-125765758D01*
X152464450Y-125751811D01*
X152465809Y-125751230D01*
X152472261Y-125762207D01*
X152486708Y-125790710D01*
X152507703Y-125833756D01*
X152533797Y-125888362D01*
X152563546Y-125951546D01*
X152578180Y-125982929D01*
X152616250Y-126063922D01*
X152646905Y-126126244D01*
X152671737Y-126171929D01*
X152692337Y-126203011D01*
X152710298Y-126221522D01*
X152727210Y-126229496D01*
X152744665Y-126228966D01*
G37*
X152744665Y-126228966D02*
X152764255Y-126221965D01*
X152765010Y-126221623D01*
X152791613Y-126201322D01*
X152806270Y-126180439D01*
X152809138Y-126170648D01*
X152808996Y-126157639D01*
X152804961Y-126139105D01*
X152796146Y-126112743D01*
X152781669Y-126076248D01*
X152760645Y-126027313D01*
X152732188Y-125963635D01*
X152695415Y-125882907D01*
X152675175Y-125838784D01*
X152638625Y-125760015D01*
X152604315Y-125687577D01*
X152573552Y-125624120D01*
X152547648Y-125572292D01*
X152527910Y-125534741D01*
X152515650Y-125514116D01*
X152513224Y-125511267D01*
X152482183Y-125498698D01*
X152447121Y-125500381D01*
X152419000Y-125515668D01*
X152417854Y-125516911D01*
X152406668Y-125533846D01*
X152387904Y-125566830D01*
X152363875Y-125611620D01*
X152336897Y-125663968D01*
X152327201Y-125683258D01*
X152254014Y-125829850D01*
X152174240Y-125670607D01*
X152145767Y-125615585D01*
X152119350Y-125567868D01*
X152097148Y-125531107D01*
X152081319Y-125508956D01*
X152075954Y-125504259D01*
X152034257Y-125497898D01*
X151999849Y-125511267D01*
X151989728Y-125525554D01*
X151972214Y-125557308D01*
X151948735Y-125603403D01*
X151920720Y-125660715D01*
X151889599Y-125726120D01*
X151856799Y-125796493D01*
X151823750Y-125868709D01*
X151791881Y-125939645D01*
X151762619Y-126006175D01*
X151737395Y-126065174D01*
X151717636Y-126113519D01*
X151704772Y-126148085D01*
X151700231Y-126165747D01*
X151700277Y-126166387D01*
X151711326Y-126188612D01*
X151733410Y-126211247D01*
X151734710Y-126212232D01*
X151761853Y-126227575D01*
X151786958Y-126227426D01*
X151796368Y-126224534D01*
X151807834Y-126218282D01*
X151820010Y-126205986D01*
X151834357Y-126185092D01*
X151852336Y-126153051D01*
X151875407Y-126107312D01*
X151905030Y-126045323D01*
X151931745Y-125988102D01*
X151962480Y-125921774D01*
X151990021Y-125862126D01*
X152012938Y-125812275D01*
X152029798Y-125775336D01*
X152039173Y-125754427D01*
X152040540Y-125751155D01*
X152046689Y-125756503D01*
X152060822Y-125778891D01*
X152081057Y-125815054D01*
X152105515Y-125861723D01*
X152115248Y-125880978D01*
X152148217Y-125945996D01*
X152173643Y-125993346D01*
X152193612Y-126025781D01*
X152210210Y-126046054D01*
X152225524Y-126056918D01*
X152241640Y-126061125D01*
X152252143Y-126061600D01*
X152270670Y-126059958D01*
X152286904Y-126053169D01*
X152303035Y-126038434D01*
X152321251Y-126012956D01*
X152343739Y-125973939D01*
X152372689Y-125918586D01*
X152388662Y-125887097D01*
X152414570Y-125836913D01*
X152437167Y-125795296D01*
X152454458Y-125765758D01*
X152464450Y-125751811D01*
X152465809Y-125751230D01*
X152472261Y-125762207D01*
X152486708Y-125790710D01*
X152507703Y-125833756D01*
X152533797Y-125888362D01*
X152563546Y-125951546D01*
X152578180Y-125982929D01*
X152616250Y-126063922D01*
X152646905Y-126126244D01*
X152671737Y-126171929D01*
X152692337Y-126203011D01*
X152710298Y-126221522D01*
X152727210Y-126229496D01*
X152744665Y-126228966D01*
G36*
X150018309Y-126230725D02*
G01*
X150147288Y-126226364D01*
X150256991Y-126213139D01*
X150349226Y-126190259D01*
X150425802Y-126156930D01*
X150488527Y-126112362D01*
X150539212Y-126055764D01*
X150579663Y-125986342D01*
X150580459Y-125984649D01*
X150604601Y-125922517D01*
X150613203Y-125867491D01*
X150606231Y-125812113D01*
X150583654Y-125748927D01*
X150579372Y-125739311D01*
X150550172Y-125683034D01*
X150517356Y-125639549D01*
X150475002Y-125602583D01*
X150417190Y-125565865D01*
X150413831Y-125563948D01*
X150363504Y-125539773D01*
X150306621Y-125521718D01*
X150239527Y-125509161D01*
X150158565Y-125501478D01*
X150060082Y-125498047D01*
X150025286Y-125497749D01*
X149859594Y-125497155D01*
X149836197Y-125526900D01*
X149829257Y-125536681D01*
X149823842Y-125548103D01*
X149819765Y-125563905D01*
X149816837Y-125586825D01*
X149814867Y-125619604D01*
X149814225Y-125643911D01*
X149970844Y-125643911D01*
X150064726Y-125643911D01*
X150119664Y-125645517D01*
X150176060Y-125649745D01*
X150222345Y-125655708D01*
X150225139Y-125656210D01*
X150307348Y-125678264D01*
X150371114Y-125711400D01*
X150418452Y-125757153D01*
X150451382Y-125817061D01*
X150457108Y-125832939D01*
X150462721Y-125857667D01*
X150460291Y-125882098D01*
X150448467Y-125914600D01*
X150441340Y-125930566D01*
X150418000Y-125972994D01*
X150389880Y-126002760D01*
X150358940Y-126023489D01*
X150296966Y-126050463D01*
X150217651Y-126070002D01*
X150125253Y-126081254D01*
X150058333Y-126083730D01*
X149970844Y-126084178D01*
X149970844Y-125643911D01*
X149814225Y-125643911D01*
X149813668Y-125664979D01*
X149813050Y-125725689D01*
X149812825Y-125804474D01*
X149812800Y-125866080D01*
X149812800Y-126175515D01*
X149840509Y-126203224D01*
X149852806Y-126214456D01*
X149866103Y-126222147D01*
X149884672Y-126226960D01*
X149912786Y-126229554D01*
X149954717Y-126230590D01*
X150014737Y-126230730D01*
X150018309Y-126230725D01*
G37*
X150018309Y-126230725D02*
X150147288Y-126226364D01*
X150256991Y-126213139D01*
X150349226Y-126190259D01*
X150425802Y-126156930D01*
X150488527Y-126112362D01*
X150539212Y-126055764D01*
X150579663Y-125986342D01*
X150580459Y-125984649D01*
X150604601Y-125922517D01*
X150613203Y-125867491D01*
X150606231Y-125812113D01*
X150583654Y-125748927D01*
X150579372Y-125739311D01*
X150550172Y-125683034D01*
X150517356Y-125639549D01*
X150475002Y-125602583D01*
X150417190Y-125565865D01*
X150413831Y-125563948D01*
X150363504Y-125539773D01*
X150306621Y-125521718D01*
X150239527Y-125509161D01*
X150158565Y-125501478D01*
X150060082Y-125498047D01*
X150025286Y-125497749D01*
X149859594Y-125497155D01*
X149836197Y-125526900D01*
X149829257Y-125536681D01*
X149823842Y-125548103D01*
X149819765Y-125563905D01*
X149816837Y-125586825D01*
X149814867Y-125619604D01*
X149814225Y-125643911D01*
X149970844Y-125643911D01*
X150064726Y-125643911D01*
X150119664Y-125645517D01*
X150176060Y-125649745D01*
X150222345Y-125655708D01*
X150225139Y-125656210D01*
X150307348Y-125678264D01*
X150371114Y-125711400D01*
X150418452Y-125757153D01*
X150451382Y-125817061D01*
X150457108Y-125832939D01*
X150462721Y-125857667D01*
X150460291Y-125882098D01*
X150448467Y-125914600D01*
X150441340Y-125930566D01*
X150418000Y-125972994D01*
X150389880Y-126002760D01*
X150358940Y-126023489D01*
X150296966Y-126050463D01*
X150217651Y-126070002D01*
X150125253Y-126081254D01*
X150058333Y-126083730D01*
X149970844Y-126084178D01*
X149970844Y-125643911D01*
X149814225Y-125643911D01*
X149813668Y-125664979D01*
X149813050Y-125725689D01*
X149812825Y-125804474D01*
X149812800Y-125866080D01*
X149812800Y-126175515D01*
X149840509Y-126203224D01*
X149852806Y-126214456D01*
X149866103Y-126222147D01*
X149884672Y-126226960D01*
X149912786Y-126229554D01*
X149954717Y-126230590D01*
X150014737Y-126230730D01*
X150018309Y-126230725D01*
G36*
X149230343Y-126230740D02*
G01*
X149306701Y-126229826D01*
X149365217Y-126227689D01*
X149408255Y-126223825D01*
X149438183Y-126217733D01*
X149457368Y-126208910D01*
X149468176Y-126196854D01*
X149472973Y-126181061D01*
X149474127Y-126161030D01*
X149474133Y-126158665D01*
X149473131Y-126136008D01*
X149468396Y-126118497D01*
X149457333Y-126105426D01*
X149437348Y-126096087D01*
X149405846Y-126089773D01*
X149360232Y-126085778D01*
X149297913Y-126083394D01*
X149216293Y-126081914D01*
X149191277Y-126081586D01*
X148949200Y-126078533D01*
X148945814Y-126013622D01*
X148942429Y-125948711D01*
X149110576Y-125948711D01*
X149176266Y-125948469D01*
X149223172Y-125947444D01*
X149255083Y-125945189D01*
X149275791Y-125941258D01*
X149289084Y-125935202D01*
X149298755Y-125926576D01*
X149298817Y-125926507D01*
X149316356Y-125892888D01*
X149315722Y-125856552D01*
X149297314Y-125825577D01*
X149293671Y-125822393D01*
X149280741Y-125814188D01*
X149263024Y-125808479D01*
X149236570Y-125804838D01*
X149197432Y-125802833D01*
X149141662Y-125802036D01*
X149105994Y-125801955D01*
X148943555Y-125801955D01*
X148943555Y-125643911D01*
X149190161Y-125643911D01*
X149271580Y-125643769D01*
X149333410Y-125643186D01*
X149378637Y-125641932D01*
X149410248Y-125639773D01*
X149431231Y-125636477D01*
X149444573Y-125631811D01*
X149453261Y-125625543D01*
X149455450Y-125623267D01*
X149471614Y-125591720D01*
X149472797Y-125555832D01*
X149459536Y-125524715D01*
X149449043Y-125514729D01*
X149438129Y-125509231D01*
X149421217Y-125504978D01*
X149395633Y-125501820D01*
X149358701Y-125499608D01*
X149307746Y-125498194D01*
X149240094Y-125497428D01*
X149153069Y-125497162D01*
X149133394Y-125497155D01*
X149044911Y-125497213D01*
X148976227Y-125497533D01*
X148924564Y-125498333D01*
X148887145Y-125499833D01*
X148861190Y-125502251D01*
X148843922Y-125505806D01*
X148832562Y-125510718D01*
X148824332Y-125517205D01*
X148819817Y-125521862D01*
X148813021Y-125530111D01*
X148807712Y-125540331D01*
X148803706Y-125555200D01*
X148800821Y-125577398D01*
X148798874Y-125609607D01*
X148797681Y-125654504D01*
X148797061Y-125714772D01*
X148796829Y-125793089D01*
X148796800Y-125859006D01*
X148796871Y-125951372D01*
X148797208Y-126023883D01*
X148797998Y-126079263D01*
X148799426Y-126120235D01*
X148801679Y-126149522D01*
X148804943Y-126169847D01*
X148809404Y-126183934D01*
X148815248Y-126194505D01*
X148820197Y-126201189D01*
X148843594Y-126230933D01*
X149133774Y-126230933D01*
X149230343Y-126230740D01*
G37*
X149230343Y-126230740D02*
X149306701Y-126229826D01*
X149365217Y-126227689D01*
X149408255Y-126223825D01*
X149438183Y-126217733D01*
X149457368Y-126208910D01*
X149468176Y-126196854D01*
X149472973Y-126181061D01*
X149474127Y-126161030D01*
X149474133Y-126158665D01*
X149473131Y-126136008D01*
X149468396Y-126118497D01*
X149457333Y-126105426D01*
X149437348Y-126096087D01*
X149405846Y-126089773D01*
X149360232Y-126085778D01*
X149297913Y-126083394D01*
X149216293Y-126081914D01*
X149191277Y-126081586D01*
X148949200Y-126078533D01*
X148945814Y-126013622D01*
X148942429Y-125948711D01*
X149110576Y-125948711D01*
X149176266Y-125948469D01*
X149223172Y-125947444D01*
X149255083Y-125945189D01*
X149275791Y-125941258D01*
X149289084Y-125935202D01*
X149298755Y-125926576D01*
X149298817Y-125926507D01*
X149316356Y-125892888D01*
X149315722Y-125856552D01*
X149297314Y-125825577D01*
X149293671Y-125822393D01*
X149280741Y-125814188D01*
X149263024Y-125808479D01*
X149236570Y-125804838D01*
X149197432Y-125802833D01*
X149141662Y-125802036D01*
X149105994Y-125801955D01*
X148943555Y-125801955D01*
X148943555Y-125643911D01*
X149190161Y-125643911D01*
X149271580Y-125643769D01*
X149333410Y-125643186D01*
X149378637Y-125641932D01*
X149410248Y-125639773D01*
X149431231Y-125636477D01*
X149444573Y-125631811D01*
X149453261Y-125625543D01*
X149455450Y-125623267D01*
X149471614Y-125591720D01*
X149472797Y-125555832D01*
X149459536Y-125524715D01*
X149449043Y-125514729D01*
X149438129Y-125509231D01*
X149421217Y-125504978D01*
X149395633Y-125501820D01*
X149358701Y-125499608D01*
X149307746Y-125498194D01*
X149240094Y-125497428D01*
X149153069Y-125497162D01*
X149133394Y-125497155D01*
X149044911Y-125497213D01*
X148976227Y-125497533D01*
X148924564Y-125498333D01*
X148887145Y-125499833D01*
X148861190Y-125502251D01*
X148843922Y-125505806D01*
X148832562Y-125510718D01*
X148824332Y-125517205D01*
X148819817Y-125521862D01*
X148813021Y-125530111D01*
X148807712Y-125540331D01*
X148803706Y-125555200D01*
X148800821Y-125577398D01*
X148798874Y-125609607D01*
X148797681Y-125654504D01*
X148797061Y-125714772D01*
X148796829Y-125793089D01*
X148796800Y-125859006D01*
X148796871Y-125951372D01*
X148797208Y-126023883D01*
X148797998Y-126079263D01*
X148799426Y-126120235D01*
X148801679Y-126149522D01*
X148804943Y-126169847D01*
X148809404Y-126183934D01*
X148815248Y-126194505D01*
X148820197Y-126201189D01*
X148843594Y-126230933D01*
X149133774Y-126230933D01*
X149230343Y-126230740D01*
G36*
X147699886Y-126226552D02*
G01*
X147723452Y-126212727D01*
X147754265Y-126190119D01*
X147793922Y-126157662D01*
X147844020Y-126114292D01*
X147906157Y-126058942D01*
X147981928Y-125990549D01*
X148068666Y-125911916D01*
X148249289Y-125748122D01*
X148254933Y-125967971D01*
X148256971Y-126043649D01*
X148258937Y-126100006D01*
X148261266Y-126140294D01*
X148264394Y-126167765D01*
X148268755Y-126185671D01*
X148274784Y-126197263D01*
X148282916Y-126205792D01*
X148287228Y-126209377D01*
X148321759Y-126228330D01*
X148354617Y-126225559D01*
X148380682Y-126209367D01*
X148407333Y-126187801D01*
X148410648Y-125872849D01*
X148411565Y-125780221D01*
X148412032Y-125707456D01*
X148411887Y-125651839D01*
X148410968Y-125610658D01*
X148409113Y-125581197D01*
X148406161Y-125560745D01*
X148401950Y-125546587D01*
X148396318Y-125536009D01*
X148390073Y-125527526D01*
X148376561Y-125511793D01*
X148363117Y-125501364D01*
X148347876Y-125497361D01*
X148328974Y-125500906D01*
X148304545Y-125513121D01*
X148272727Y-125535129D01*
X148231652Y-125568051D01*
X148179458Y-125613009D01*
X148114278Y-125671125D01*
X148040444Y-125737901D01*
X147775155Y-125978542D01*
X147769511Y-125759411D01*
X147767469Y-125683872D01*
X147765498Y-125627646D01*
X147763161Y-125587476D01*
X147760019Y-125560104D01*
X147755636Y-125542272D01*
X147749576Y-125530721D01*
X147741400Y-125522193D01*
X147737216Y-125518718D01*
X147700235Y-125499628D01*
X147665292Y-125502507D01*
X147634864Y-125526900D01*
X147627903Y-125536714D01*
X147622477Y-125548174D01*
X147618397Y-125564032D01*
X147615471Y-125587037D01*
X147613508Y-125619938D01*
X147612317Y-125665484D01*
X147611708Y-125726427D01*
X147611489Y-125805514D01*
X147611466Y-125864044D01*
X147611540Y-125955593D01*
X147611887Y-126027313D01*
X147612699Y-126081955D01*
X147614167Y-126122268D01*
X147616481Y-126151002D01*
X147619833Y-126170907D01*
X147624412Y-126184732D01*
X147630411Y-126195228D01*
X147634864Y-126201189D01*
X147646150Y-126215309D01*
X147656699Y-126225971D01*
X147668107Y-126232108D01*
X147681970Y-126232657D01*
X147699886Y-126226552D01*
G37*
X147699886Y-126226552D02*
X147723452Y-126212727D01*
X147754265Y-126190119D01*
X147793922Y-126157662D01*
X147844020Y-126114292D01*
X147906157Y-126058942D01*
X147981928Y-125990549D01*
X148068666Y-125911916D01*
X148249289Y-125748122D01*
X148254933Y-125967971D01*
X148256971Y-126043649D01*
X148258937Y-126100006D01*
X148261266Y-126140294D01*
X148264394Y-126167765D01*
X148268755Y-126185671D01*
X148274784Y-126197263D01*
X148282916Y-126205792D01*
X148287228Y-126209377D01*
X148321759Y-126228330D01*
X148354617Y-126225559D01*
X148380682Y-126209367D01*
X148407333Y-126187801D01*
X148410648Y-125872849D01*
X148411565Y-125780221D01*
X148412032Y-125707456D01*
X148411887Y-125651839D01*
X148410968Y-125610658D01*
X148409113Y-125581197D01*
X148406161Y-125560745D01*
X148401950Y-125546587D01*
X148396318Y-125536009D01*
X148390073Y-125527526D01*
X148376561Y-125511793D01*
X148363117Y-125501364D01*
X148347876Y-125497361D01*
X148328974Y-125500906D01*
X148304545Y-125513121D01*
X148272727Y-125535129D01*
X148231652Y-125568051D01*
X148179458Y-125613009D01*
X148114278Y-125671125D01*
X148040444Y-125737901D01*
X147775155Y-125978542D01*
X147769511Y-125759411D01*
X147767469Y-125683872D01*
X147765498Y-125627646D01*
X147763161Y-125587476D01*
X147760019Y-125560104D01*
X147755636Y-125542272D01*
X147749576Y-125530721D01*
X147741400Y-125522193D01*
X147737216Y-125518718D01*
X147700235Y-125499628D01*
X147665292Y-125502507D01*
X147634864Y-125526900D01*
X147627903Y-125536714D01*
X147622477Y-125548174D01*
X147618397Y-125564032D01*
X147615471Y-125587037D01*
X147613508Y-125619938D01*
X147612317Y-125665484D01*
X147611708Y-125726427D01*
X147611489Y-125805514D01*
X147611466Y-125864044D01*
X147611540Y-125955593D01*
X147611887Y-126027313D01*
X147612699Y-126081955D01*
X147614167Y-126122268D01*
X147616481Y-126151002D01*
X147619833Y-126170907D01*
X147624412Y-126184732D01*
X147630411Y-126195228D01*
X147634864Y-126201189D01*
X147646150Y-126215309D01*
X147656699Y-126225971D01*
X147668107Y-126232108D01*
X147681970Y-126232657D01*
X147699886Y-126226552D01*
G36*
X147049919Y-126225401D02*
G01*
X147118435Y-126213905D01*
X147171057Y-126196033D01*
X147205292Y-126172501D01*
X147214621Y-126159076D01*
X147224107Y-126127852D01*
X147217723Y-126099605D01*
X147197570Y-126072818D01*
X147166255Y-126060287D01*
X147120817Y-126061304D01*
X147085674Y-126068094D01*
X147007581Y-126081029D01*
X146927774Y-126082258D01*
X146838445Y-126071759D01*
X146813771Y-126067310D01*
X146730709Y-126043892D01*
X146665727Y-126009055D01*
X146619539Y-125963396D01*
X146592855Y-125907506D01*
X146587337Y-125878612D01*
X146590949Y-125819988D01*
X146614271Y-125768121D01*
X146655176Y-125724022D01*
X146711541Y-125688701D01*
X146781240Y-125663171D01*
X146862148Y-125648441D01*
X146952140Y-125645522D01*
X147049090Y-125655425D01*
X147054564Y-125656359D01*
X147093125Y-125663541D01*
X147114506Y-125670479D01*
X147123773Y-125680773D01*
X147125994Y-125698024D01*
X147126044Y-125707159D01*
X147126044Y-125745511D01*
X147057569Y-125745511D01*
X146997100Y-125749653D01*
X146955835Y-125762853D01*
X146931825Y-125786270D01*
X146923123Y-125821064D01*
X146923017Y-125825606D01*
X146928108Y-125855346D01*
X146945567Y-125876581D01*
X146978061Y-125890634D01*
X147028257Y-125898827D01*
X147076877Y-125901839D01*
X147147544Y-125903567D01*
X147198802Y-125900930D01*
X147233761Y-125891200D01*
X147255530Y-125871647D01*
X147267220Y-125839544D01*
X147271940Y-125792162D01*
X147272800Y-125729929D01*
X147271391Y-125660465D01*
X147267152Y-125613214D01*
X147260064Y-125587988D01*
X147258689Y-125586012D01*
X147219772Y-125554492D01*
X147162714Y-125529530D01*
X147091131Y-125511660D01*
X147008642Y-125501414D01*
X146918861Y-125499327D01*
X146825408Y-125505932D01*
X146770444Y-125514044D01*
X146684234Y-125538446D01*
X146604108Y-125578338D01*
X146537023Y-125630113D01*
X146526827Y-125640461D01*
X146493698Y-125683965D01*
X146463806Y-125737882D01*
X146440643Y-125794408D01*
X146427702Y-125845741D01*
X146426142Y-125865456D01*
X146432782Y-125906581D01*
X146450432Y-125957748D01*
X146475703Y-126011606D01*
X146505211Y-126060805D01*
X146531281Y-126093666D01*
X146592235Y-126142548D01*
X146671031Y-126181455D01*
X146764843Y-126209506D01*
X146870850Y-126225821D01*
X146968000Y-126229808D01*
X147049919Y-126225401D01*
G37*
X147049919Y-126225401D02*
X147118435Y-126213905D01*
X147171057Y-126196033D01*
X147205292Y-126172501D01*
X147214621Y-126159076D01*
X147224107Y-126127852D01*
X147217723Y-126099605D01*
X147197570Y-126072818D01*
X147166255Y-126060287D01*
X147120817Y-126061304D01*
X147085674Y-126068094D01*
X147007581Y-126081029D01*
X146927774Y-126082258D01*
X146838445Y-126071759D01*
X146813771Y-126067310D01*
X146730709Y-126043892D01*
X146665727Y-126009055D01*
X146619539Y-125963396D01*
X146592855Y-125907506D01*
X146587337Y-125878612D01*
X146590949Y-125819988D01*
X146614271Y-125768121D01*
X146655176Y-125724022D01*
X146711541Y-125688701D01*
X146781240Y-125663171D01*
X146862148Y-125648441D01*
X146952140Y-125645522D01*
X147049090Y-125655425D01*
X147054564Y-125656359D01*
X147093125Y-125663541D01*
X147114506Y-125670479D01*
X147123773Y-125680773D01*
X147125994Y-125698024D01*
X147126044Y-125707159D01*
X147126044Y-125745511D01*
X147057569Y-125745511D01*
X146997100Y-125749653D01*
X146955835Y-125762853D01*
X146931825Y-125786270D01*
X146923123Y-125821064D01*
X146923017Y-125825606D01*
X146928108Y-125855346D01*
X146945567Y-125876581D01*
X146978061Y-125890634D01*
X147028257Y-125898827D01*
X147076877Y-125901839D01*
X147147544Y-125903567D01*
X147198802Y-125900930D01*
X147233761Y-125891200D01*
X147255530Y-125871647D01*
X147267220Y-125839544D01*
X147271940Y-125792162D01*
X147272800Y-125729929D01*
X147271391Y-125660465D01*
X147267152Y-125613214D01*
X147260064Y-125587988D01*
X147258689Y-125586012D01*
X147219772Y-125554492D01*
X147162714Y-125529530D01*
X147091131Y-125511660D01*
X147008642Y-125501414D01*
X146918861Y-125499327D01*
X146825408Y-125505932D01*
X146770444Y-125514044D01*
X146684234Y-125538446D01*
X146604108Y-125578338D01*
X146537023Y-125630113D01*
X146526827Y-125640461D01*
X146493698Y-125683965D01*
X146463806Y-125737882D01*
X146440643Y-125794408D01*
X146427702Y-125845741D01*
X146426142Y-125865456D01*
X146432782Y-125906581D01*
X146450432Y-125957748D01*
X146475703Y-126011606D01*
X146505211Y-126060805D01*
X146531281Y-126093666D01*
X146592235Y-126142548D01*
X146671031Y-126181455D01*
X146764843Y-126209506D01*
X146870850Y-126225821D01*
X146968000Y-126229808D01*
X147049919Y-126225401D01*
G36*
X146076178Y-126208355D02*
G01*
X146082758Y-126200782D01*
X146087921Y-126191013D01*
X146091836Y-126176429D01*
X146094676Y-126154415D01*
X146096613Y-126122352D01*
X146097817Y-126077625D01*
X146098461Y-126017615D01*
X146098716Y-125939706D01*
X146098755Y-125864044D01*
X146098686Y-125770198D01*
X146098362Y-125696311D01*
X146097614Y-125639768D01*
X146096268Y-125597951D01*
X146094154Y-125568243D01*
X146091100Y-125548027D01*
X146086934Y-125534686D01*
X146081484Y-125525602D01*
X146076178Y-125519733D01*
X146043174Y-125500053D01*
X146008009Y-125501819D01*
X145976545Y-125523283D01*
X145969316Y-125531663D01*
X145963666Y-125541386D01*
X145959401Y-125555139D01*
X145956327Y-125575611D01*
X145954248Y-125605488D01*
X145952970Y-125647459D01*
X145952299Y-125704211D01*
X145952041Y-125778433D01*
X145952000Y-125862463D01*
X145952000Y-126175515D01*
X145979709Y-126203224D01*
X146013863Y-126226537D01*
X146046994Y-126227377D01*
X146076178Y-126208355D01*
G37*
X146076178Y-126208355D02*
X146082758Y-126200782D01*
X146087921Y-126191013D01*
X146091836Y-126176429D01*
X146094676Y-126154415D01*
X146096613Y-126122352D01*
X146097817Y-126077625D01*
X146098461Y-126017615D01*
X146098716Y-125939706D01*
X146098755Y-125864044D01*
X146098686Y-125770198D01*
X146098362Y-125696311D01*
X146097614Y-125639768D01*
X146096268Y-125597951D01*
X146094154Y-125568243D01*
X146091100Y-125548027D01*
X146086934Y-125534686D01*
X146081484Y-125525602D01*
X146076178Y-125519733D01*
X146043174Y-125500053D01*
X146008009Y-125501819D01*
X145976545Y-125523283D01*
X145969316Y-125531663D01*
X145963666Y-125541386D01*
X145959401Y-125555139D01*
X145956327Y-125575611D01*
X145954248Y-125605488D01*
X145952970Y-125647459D01*
X145952299Y-125704211D01*
X145952041Y-125778433D01*
X145952000Y-125862463D01*
X145952000Y-126175515D01*
X145979709Y-126203224D01*
X146013863Y-126226537D01*
X146046994Y-126227377D01*
X146076178Y-126208355D01*
G36*
X145308297Y-126229649D02*
G01*
X145383112Y-126224419D01*
X145452694Y-126216250D01*
X145512998Y-126205450D01*
X145559980Y-126192327D01*
X145589594Y-126177187D01*
X145594140Y-126172731D01*
X145609946Y-126138150D01*
X145605153Y-126102649D01*
X145580636Y-126072275D01*
X145579466Y-126071404D01*
X145565046Y-126062046D01*
X145549992Y-126057124D01*
X145528995Y-126056527D01*
X145496743Y-126060139D01*
X145447927Y-126067846D01*
X145444000Y-126068495D01*
X145371261Y-126077431D01*
X145292783Y-126081839D01*
X145214073Y-126081881D01*
X145140639Y-126077721D01*
X145077989Y-126069521D01*
X145031630Y-126057443D01*
X145028584Y-126056229D01*
X144994952Y-126037385D01*
X144983136Y-126018315D01*
X144992386Y-125999561D01*
X145021953Y-125981663D01*
X145071089Y-125965163D01*
X145139043Y-125950604D01*
X145184355Y-125943594D01*
X145278544Y-125930111D01*
X145353456Y-125917786D01*
X145412283Y-125905551D01*
X145458215Y-125892339D01*
X145494445Y-125877083D01*
X145524162Y-125858715D01*
X145550558Y-125836169D01*
X145571770Y-125814029D01*
X145596935Y-125783181D01*
X145609319Y-125756655D01*
X145613192Y-125723974D01*
X145613333Y-125712005D01*
X145610424Y-125672288D01*
X145598798Y-125642741D01*
X145578677Y-125616514D01*
X145537784Y-125576424D01*
X145492183Y-125545851D01*
X145438487Y-125523797D01*
X145373308Y-125509265D01*
X145293256Y-125501259D01*
X145194943Y-125498782D01*
X145178711Y-125498823D01*
X145113151Y-125500182D01*
X145048134Y-125503270D01*
X144990748Y-125507644D01*
X144948078Y-125512860D01*
X144944628Y-125513459D01*
X144902204Y-125523509D01*
X144866220Y-125536204D01*
X144845850Y-125547810D01*
X144826893Y-125578428D01*
X144825573Y-125614082D01*
X144841915Y-125645856D01*
X144845571Y-125649449D01*
X144860685Y-125660124D01*
X144879585Y-125664724D01*
X144908838Y-125663941D01*
X144944349Y-125659873D01*
X144984030Y-125656238D01*
X145039655Y-125653172D01*
X145104594Y-125650947D01*
X145172215Y-125649836D01*
X145190000Y-125649763D01*
X145257872Y-125650036D01*
X145307546Y-125651354D01*
X145343390Y-125654173D01*
X145369776Y-125658950D01*
X145391074Y-125666143D01*
X145403874Y-125672133D01*
X145432000Y-125688767D01*
X145449932Y-125703832D01*
X145452553Y-125708103D01*
X145447024Y-125725737D01*
X145420740Y-125742808D01*
X145375522Y-125758542D01*
X145313192Y-125772162D01*
X145294829Y-125775196D01*
X145198910Y-125790262D01*
X145122359Y-125802854D01*
X145062220Y-125813889D01*
X145015540Y-125824280D01*
X144979363Y-125834944D01*
X144950735Y-125846795D01*
X144926702Y-125860749D01*
X144904308Y-125877719D01*
X144880598Y-125898622D01*
X144872620Y-125905951D01*
X144844647Y-125933301D01*
X144829840Y-125954971D01*
X144824048Y-125979768D01*
X144823111Y-126011017D01*
X144833425Y-126072295D01*
X144864248Y-126124360D01*
X144915405Y-126167042D01*
X144986717Y-126200175D01*
X145037600Y-126215036D01*
X145092900Y-126224634D01*
X145159147Y-126230064D01*
X145232294Y-126231633D01*
X145308297Y-126229649D01*
G37*
X145308297Y-126229649D02*
X145383112Y-126224419D01*
X145452694Y-126216250D01*
X145512998Y-126205450D01*
X145559980Y-126192327D01*
X145589594Y-126177187D01*
X145594140Y-126172731D01*
X145609946Y-126138150D01*
X145605153Y-126102649D01*
X145580636Y-126072275D01*
X145579466Y-126071404D01*
X145565046Y-126062046D01*
X145549992Y-126057124D01*
X145528995Y-126056527D01*
X145496743Y-126060139D01*
X145447927Y-126067846D01*
X145444000Y-126068495D01*
X145371261Y-126077431D01*
X145292783Y-126081839D01*
X145214073Y-126081881D01*
X145140639Y-126077721D01*
X145077989Y-126069521D01*
X145031630Y-126057443D01*
X145028584Y-126056229D01*
X144994952Y-126037385D01*
X144983136Y-126018315D01*
X144992386Y-125999561D01*
X145021953Y-125981663D01*
X145071089Y-125965163D01*
X145139043Y-125950604D01*
X145184355Y-125943594D01*
X145278544Y-125930111D01*
X145353456Y-125917786D01*
X145412283Y-125905551D01*
X145458215Y-125892339D01*
X145494445Y-125877083D01*
X145524162Y-125858715D01*
X145550558Y-125836169D01*
X145571770Y-125814029D01*
X145596935Y-125783181D01*
X145609319Y-125756655D01*
X145613192Y-125723974D01*
X145613333Y-125712005D01*
X145610424Y-125672288D01*
X145598798Y-125642741D01*
X145578677Y-125616514D01*
X145537784Y-125576424D01*
X145492183Y-125545851D01*
X145438487Y-125523797D01*
X145373308Y-125509265D01*
X145293256Y-125501259D01*
X145194943Y-125498782D01*
X145178711Y-125498823D01*
X145113151Y-125500182D01*
X145048134Y-125503270D01*
X144990748Y-125507644D01*
X144948078Y-125512860D01*
X144944628Y-125513459D01*
X144902204Y-125523509D01*
X144866220Y-125536204D01*
X144845850Y-125547810D01*
X144826893Y-125578428D01*
X144825573Y-125614082D01*
X144841915Y-125645856D01*
X144845571Y-125649449D01*
X144860685Y-125660124D01*
X144879585Y-125664724D01*
X144908838Y-125663941D01*
X144944349Y-125659873D01*
X144984030Y-125656238D01*
X145039655Y-125653172D01*
X145104594Y-125650947D01*
X145172215Y-125649836D01*
X145190000Y-125649763D01*
X145257872Y-125650036D01*
X145307546Y-125651354D01*
X145343390Y-125654173D01*
X145369776Y-125658950D01*
X145391074Y-125666143D01*
X145403874Y-125672133D01*
X145432000Y-125688767D01*
X145449932Y-125703832D01*
X145452553Y-125708103D01*
X145447024Y-125725737D01*
X145420740Y-125742808D01*
X145375522Y-125758542D01*
X145313192Y-125772162D01*
X145294829Y-125775196D01*
X145198910Y-125790262D01*
X145122359Y-125802854D01*
X145062220Y-125813889D01*
X145015540Y-125824280D01*
X144979363Y-125834944D01*
X144950735Y-125846795D01*
X144926702Y-125860749D01*
X144904308Y-125877719D01*
X144880598Y-125898622D01*
X144872620Y-125905951D01*
X144844647Y-125933301D01*
X144829840Y-125954971D01*
X144824048Y-125979768D01*
X144823111Y-126011017D01*
X144833425Y-126072295D01*
X144864248Y-126124360D01*
X144915405Y-126167042D01*
X144986717Y-126200175D01*
X145037600Y-126215036D01*
X145092900Y-126224634D01*
X145159147Y-126230064D01*
X145232294Y-126231633D01*
X145308297Y-126229649D01*
G36*
X144287206Y-126230854D02*
G01*
X144356614Y-126230482D01*
X144409003Y-126229615D01*
X144447153Y-126228054D01*
X144473841Y-126225597D01*
X144491847Y-126222043D01*
X144503951Y-126217190D01*
X144512931Y-126210839D01*
X144516182Y-126207916D01*
X144535957Y-126176858D01*
X144539518Y-126141172D01*
X144526509Y-126109490D01*
X144520494Y-126103087D01*
X144510765Y-126096879D01*
X144495099Y-126092090D01*
X144470592Y-126088486D01*
X144434339Y-126085836D01*
X144383435Y-126083905D01*
X144314974Y-126082461D01*
X144252383Y-126081582D01*
X144004666Y-126078533D01*
X144001281Y-126013622D01*
X143997895Y-125948711D01*
X144166042Y-125948711D01*
X144239041Y-125948081D01*
X144292483Y-125945447D01*
X144329372Y-125939691D01*
X144352712Y-125929696D01*
X144365506Y-125914344D01*
X144370758Y-125892518D01*
X144371555Y-125872262D01*
X144369077Y-125847408D01*
X144359723Y-125829094D01*
X144340617Y-125816363D01*
X144308882Y-125808259D01*
X144261641Y-125803824D01*
X144196017Y-125802101D01*
X144160199Y-125801955D01*
X143999022Y-125801955D01*
X143999022Y-125643911D01*
X144247378Y-125643911D01*
X144328787Y-125643798D01*
X144390658Y-125643288D01*
X144436032Y-125642130D01*
X144467946Y-125640070D01*
X144489441Y-125636854D01*
X144503557Y-125632228D01*
X144513332Y-125625941D01*
X144518311Y-125621333D01*
X144535390Y-125594440D01*
X144540889Y-125570533D01*
X144533037Y-125541333D01*
X144518311Y-125519733D01*
X144510454Y-125512934D01*
X144500312Y-125507654D01*
X144485156Y-125503702D01*
X144462259Y-125500887D01*
X144428891Y-125499018D01*
X144382325Y-125497902D01*
X144319833Y-125497349D01*
X144238686Y-125497167D01*
X144196578Y-125497155D01*
X144106402Y-125497235D01*
X144036076Y-125497602D01*
X143982871Y-125498448D01*
X143944060Y-125499964D01*
X143916913Y-125502341D01*
X143898702Y-125505771D01*
X143886700Y-125510446D01*
X143878178Y-125516556D01*
X143874844Y-125519733D01*
X143868245Y-125527330D01*
X143863073Y-125537130D01*
X143859154Y-125551761D01*
X143856316Y-125573848D01*
X143854385Y-125606018D01*
X143853188Y-125650897D01*
X143852552Y-125711111D01*
X143852303Y-125789287D01*
X143852266Y-125862077D01*
X143852300Y-125955293D01*
X143852535Y-126028569D01*
X143853170Y-126084542D01*
X143854406Y-126125849D01*
X143856444Y-126155128D01*
X143859483Y-126175016D01*
X143863723Y-126188150D01*
X143869365Y-126197168D01*
X143876609Y-126204707D01*
X143878394Y-126206388D01*
X143887055Y-126213828D01*
X143897118Y-126219591D01*
X143911375Y-126223888D01*
X143932617Y-126226936D01*
X143963636Y-126228949D01*
X144007223Y-126230140D01*
X144066169Y-126230725D01*
X144143266Y-126230917D01*
X144197999Y-126230933D01*
X144287206Y-126230854D01*
G37*
X144287206Y-126230854D02*
X144356614Y-126230482D01*
X144409003Y-126229615D01*
X144447153Y-126228054D01*
X144473841Y-126225597D01*
X144491847Y-126222043D01*
X144503951Y-126217190D01*
X144512931Y-126210839D01*
X144516182Y-126207916D01*
X144535957Y-126176858D01*
X144539518Y-126141172D01*
X144526509Y-126109490D01*
X144520494Y-126103087D01*
X144510765Y-126096879D01*
X144495099Y-126092090D01*
X144470592Y-126088486D01*
X144434339Y-126085836D01*
X144383435Y-126083905D01*
X144314974Y-126082461D01*
X144252383Y-126081582D01*
X144004666Y-126078533D01*
X144001281Y-126013622D01*
X143997895Y-125948711D01*
X144166042Y-125948711D01*
X144239041Y-125948081D01*
X144292483Y-125945447D01*
X144329372Y-125939691D01*
X144352712Y-125929696D01*
X144365506Y-125914344D01*
X144370758Y-125892518D01*
X144371555Y-125872262D01*
X144369077Y-125847408D01*
X144359723Y-125829094D01*
X144340617Y-125816363D01*
X144308882Y-125808259D01*
X144261641Y-125803824D01*
X144196017Y-125802101D01*
X144160199Y-125801955D01*
X143999022Y-125801955D01*
X143999022Y-125643911D01*
X144247378Y-125643911D01*
X144328787Y-125643798D01*
X144390658Y-125643288D01*
X144436032Y-125642130D01*
X144467946Y-125640070D01*
X144489441Y-125636854D01*
X144503557Y-125632228D01*
X144513332Y-125625941D01*
X144518311Y-125621333D01*
X144535390Y-125594440D01*
X144540889Y-125570533D01*
X144533037Y-125541333D01*
X144518311Y-125519733D01*
X144510454Y-125512934D01*
X144500312Y-125507654D01*
X144485156Y-125503702D01*
X144462259Y-125500887D01*
X144428891Y-125499018D01*
X144382325Y-125497902D01*
X144319833Y-125497349D01*
X144238686Y-125497167D01*
X144196578Y-125497155D01*
X144106402Y-125497235D01*
X144036076Y-125497602D01*
X143982871Y-125498448D01*
X143944060Y-125499964D01*
X143916913Y-125502341D01*
X143898702Y-125505771D01*
X143886700Y-125510446D01*
X143878178Y-125516556D01*
X143874844Y-125519733D01*
X143868245Y-125527330D01*
X143863073Y-125537130D01*
X143859154Y-125551761D01*
X143856316Y-125573848D01*
X143854385Y-125606018D01*
X143853188Y-125650897D01*
X143852552Y-125711111D01*
X143852303Y-125789287D01*
X143852266Y-125862077D01*
X143852300Y-125955293D01*
X143852535Y-126028569D01*
X143853170Y-126084542D01*
X143854406Y-126125849D01*
X143856444Y-126155128D01*
X143859483Y-126175016D01*
X143863723Y-126188150D01*
X143869365Y-126197168D01*
X143876609Y-126204707D01*
X143878394Y-126206388D01*
X143887055Y-126213828D01*
X143897118Y-126219591D01*
X143911375Y-126223888D01*
X143932617Y-126226936D01*
X143963636Y-126228949D01*
X144007223Y-126230140D01*
X144066169Y-126230725D01*
X144143266Y-126230917D01*
X144197999Y-126230933D01*
X144287206Y-126230854D01*
G36*
X142878629Y-126230934D02*
G01*
X142918111Y-126230533D01*
X143033800Y-126227741D01*
X143130689Y-126219450D01*
X143212081Y-126204768D01*
X143281277Y-126182807D01*
X143341580Y-126152678D01*
X143396292Y-126113490D01*
X143415833Y-126096468D01*
X143448250Y-126056637D01*
X143477480Y-126002587D01*
X143500009Y-125942677D01*
X143512321Y-125885261D01*
X143513600Y-125864044D01*
X143505583Y-125805231D01*
X143484101Y-125740987D01*
X143453001Y-125680179D01*
X143416134Y-125631670D01*
X143410146Y-125625818D01*
X143359421Y-125584679D01*
X143303875Y-125552565D01*
X143240304Y-125528635D01*
X143165506Y-125512047D01*
X143076278Y-125501959D01*
X142969418Y-125497531D01*
X142920472Y-125497155D01*
X142858238Y-125497455D01*
X142814472Y-125498708D01*
X142785069Y-125501446D01*
X142765921Y-125506199D01*
X142752923Y-125513499D01*
X142745955Y-125519733D01*
X142739374Y-125527306D01*
X142734212Y-125537076D01*
X142730297Y-125551660D01*
X142727457Y-125573674D01*
X142725520Y-125605736D01*
X142724316Y-125650464D01*
X142723672Y-125710474D01*
X142723417Y-125788383D01*
X142723378Y-125864044D01*
X142723130Y-125964959D01*
X142723183Y-126045573D01*
X142724143Y-126084178D01*
X142870133Y-126084178D01*
X142870133Y-125643911D01*
X142963266Y-125643996D01*
X143019307Y-125645604D01*
X143078001Y-125649744D01*
X143126972Y-125655536D01*
X143128462Y-125655774D01*
X143207608Y-125674910D01*
X143268998Y-125704713D01*
X143315695Y-125747122D01*
X143345365Y-125793039D01*
X143363647Y-125843974D01*
X143362229Y-125891800D01*
X143341012Y-125943067D01*
X143299511Y-125996101D01*
X143242002Y-126035400D01*
X143167250Y-126061669D01*
X143117292Y-126070965D01*
X143060584Y-126077493D01*
X143000481Y-126082218D01*
X142949361Y-126084183D01*
X142946333Y-126084192D01*
X142870133Y-126084178D01*
X142724143Y-126084178D01*
X142724740Y-126108149D01*
X142729002Y-126154945D01*
X142737170Y-126188222D01*
X142750444Y-126210241D01*
X142770026Y-126223261D01*
X142797117Y-126229543D01*
X142832918Y-126231347D01*
X142878629Y-126230934D01*
G37*
X142878629Y-126230934D02*
X142918111Y-126230533D01*
X143033800Y-126227741D01*
X143130689Y-126219450D01*
X143212081Y-126204768D01*
X143281277Y-126182807D01*
X143341580Y-126152678D01*
X143396292Y-126113490D01*
X143415833Y-126096468D01*
X143448250Y-126056637D01*
X143477480Y-126002587D01*
X143500009Y-125942677D01*
X143512321Y-125885261D01*
X143513600Y-125864044D01*
X143505583Y-125805231D01*
X143484101Y-125740987D01*
X143453001Y-125680179D01*
X143416134Y-125631670D01*
X143410146Y-125625818D01*
X143359421Y-125584679D01*
X143303875Y-125552565D01*
X143240304Y-125528635D01*
X143165506Y-125512047D01*
X143076278Y-125501959D01*
X142969418Y-125497531D01*
X142920472Y-125497155D01*
X142858238Y-125497455D01*
X142814472Y-125498708D01*
X142785069Y-125501446D01*
X142765921Y-125506199D01*
X142752923Y-125513499D01*
X142745955Y-125519733D01*
X142739374Y-125527306D01*
X142734212Y-125537076D01*
X142730297Y-125551660D01*
X142727457Y-125573674D01*
X142725520Y-125605736D01*
X142724316Y-125650464D01*
X142723672Y-125710474D01*
X142723417Y-125788383D01*
X142723378Y-125864044D01*
X142723130Y-125964959D01*
X142723183Y-126045573D01*
X142724143Y-126084178D01*
X142870133Y-126084178D01*
X142870133Y-125643911D01*
X142963266Y-125643996D01*
X143019307Y-125645604D01*
X143078001Y-125649744D01*
X143126972Y-125655536D01*
X143128462Y-125655774D01*
X143207608Y-125674910D01*
X143268998Y-125704713D01*
X143315695Y-125747122D01*
X143345365Y-125793039D01*
X143363647Y-125843974D01*
X143362229Y-125891800D01*
X143341012Y-125943067D01*
X143299511Y-125996101D01*
X143242002Y-126035400D01*
X143167250Y-126061669D01*
X143117292Y-126070965D01*
X143060584Y-126077493D01*
X143000481Y-126082218D01*
X142949361Y-126084183D01*
X142946333Y-126084192D01*
X142870133Y-126084178D01*
X142724143Y-126084178D01*
X142724740Y-126108149D01*
X142729002Y-126154945D01*
X142737170Y-126188222D01*
X142750444Y-126210241D01*
X142770026Y-126223261D01*
X142797117Y-126229543D01*
X142832918Y-126231347D01*
X142878629Y-126230934D01*
G36*
X146726957Y-131473429D02*
G01*
X146823232Y-131449191D01*
X146909816Y-131406359D01*
X146984627Y-131346581D01*
X147045582Y-131271506D01*
X147090601Y-131182780D01*
X147116864Y-131086470D01*
X147122714Y-130989205D01*
X147107860Y-130895346D01*
X147074160Y-130807489D01*
X147023472Y-130728230D01*
X146957655Y-130660164D01*
X146878566Y-130605888D01*
X146788066Y-130567998D01*
X146736800Y-130555574D01*
X146692302Y-130548053D01*
X146658001Y-130545081D01*
X146625040Y-130546906D01*
X146584566Y-130553775D01*
X146551469Y-130560750D01*
X146458053Y-130592259D01*
X146374381Y-130643383D01*
X146302335Y-130712571D01*
X146243800Y-130798272D01*
X146229852Y-130825511D01*
X146213414Y-130861878D01*
X146203106Y-130892418D01*
X146197540Y-130924550D01*
X146195331Y-130965693D01*
X146195052Y-131011778D01*
X146199139Y-131096135D01*
X146212554Y-131165414D01*
X146237744Y-131226039D01*
X146277154Y-131284433D01*
X146315702Y-131328698D01*
X146387594Y-131394516D01*
X146462687Y-131439947D01*
X146545438Y-131467150D01*
X146623072Y-131477424D01*
X146726957Y-131473429D01*
G37*
X146726957Y-131473429D02*
X146823232Y-131449191D01*
X146909816Y-131406359D01*
X146984627Y-131346581D01*
X147045582Y-131271506D01*
X147090601Y-131182780D01*
X147116864Y-131086470D01*
X147122714Y-130989205D01*
X147107860Y-130895346D01*
X147074160Y-130807489D01*
X147023472Y-130728230D01*
X146957655Y-130660164D01*
X146878566Y-130605888D01*
X146788066Y-130567998D01*
X146736800Y-130555574D01*
X146692302Y-130548053D01*
X146658001Y-130545081D01*
X146625040Y-130546906D01*
X146584566Y-130553775D01*
X146551469Y-130560750D01*
X146458053Y-130592259D01*
X146374381Y-130643383D01*
X146302335Y-130712571D01*
X146243800Y-130798272D01*
X146229852Y-130825511D01*
X146213414Y-130861878D01*
X146203106Y-130892418D01*
X146197540Y-130924550D01*
X146195331Y-130965693D01*
X146195052Y-131011778D01*
X146199139Y-131096135D01*
X146212554Y-131165414D01*
X146237744Y-131226039D01*
X146277154Y-131284433D01*
X146315702Y-131328698D01*
X146387594Y-131394516D01*
X146462687Y-131439947D01*
X146545438Y-131467150D01*
X146623072Y-131477424D01*
X146726957Y-131473429D01*
G36*
X155186507Y-129027755D02*
G01*
X155186526Y-128793338D01*
X155186552Y-128580397D01*
X155186625Y-128387832D01*
X155186782Y-128214541D01*
X155187064Y-128059424D01*
X155187509Y-127921380D01*
X155188156Y-127799308D01*
X155189045Y-127692106D01*
X155190213Y-127598674D01*
X155191701Y-127517910D01*
X155193546Y-127448714D01*
X155195789Y-127389985D01*
X155198469Y-127340621D01*
X155201623Y-127299522D01*
X155205292Y-127265587D01*
X155209513Y-127237714D01*
X155214327Y-127214802D01*
X155219773Y-127195751D01*
X155225888Y-127179460D01*
X155232712Y-127164827D01*
X155240285Y-127150751D01*
X155248645Y-127136132D01*
X155253839Y-127127026D01*
X155288104Y-127066311D01*
X154429955Y-127066311D01*
X154429955Y-127162267D01*
X154429224Y-127205630D01*
X154427272Y-127238795D01*
X154424463Y-127256576D01*
X154423221Y-127258222D01*
X154411799Y-127251338D01*
X154389084Y-127233495D01*
X154366385Y-127214121D01*
X154311800Y-127173386D01*
X154242321Y-127132383D01*
X154165270Y-127094877D01*
X154087965Y-127064636D01*
X154057113Y-127054988D01*
X153988616Y-127040422D01*
X153905764Y-127030461D01*
X153816371Y-127025417D01*
X153728248Y-127025604D01*
X153649207Y-127031334D01*
X153611511Y-127037142D01*
X153473414Y-127075203D01*
X153346113Y-127132927D01*
X153230292Y-127209789D01*
X153126637Y-127305261D01*
X153035833Y-127418821D01*
X152969031Y-127529619D01*
X152914164Y-127646375D01*
X152872163Y-127765724D01*
X152842167Y-127891717D01*
X152823311Y-128028406D01*
X152814732Y-128179842D01*
X152814006Y-128257289D01*
X152816100Y-128314066D01*
X153645217Y-128314066D01*
X153645424Y-128220998D01*
X153648337Y-128133308D01*
X153654000Y-128056228D01*
X153662455Y-127994991D01*
X153665038Y-127982650D01*
X153696840Y-127875367D01*
X153738498Y-127788342D01*
X153790363Y-127721358D01*
X153852781Y-127674195D01*
X153926100Y-127646635D01*
X154010669Y-127638459D01*
X154106835Y-127649449D01*
X154170311Y-127665171D01*
X154219454Y-127683361D01*
X154273583Y-127709209D01*
X154314244Y-127732911D01*
X154384800Y-127779279D01*
X154384800Y-128929470D01*
X154317392Y-128973038D01*
X154238867Y-129013960D01*
X154154681Y-129040611D01*
X154069557Y-129052535D01*
X153988216Y-129049278D01*
X153915380Y-129030385D01*
X153883426Y-129014816D01*
X153825501Y-128971819D01*
X153776544Y-128915047D01*
X153735390Y-128842425D01*
X153700874Y-128751879D01*
X153671833Y-128641334D01*
X153670552Y-128635467D01*
X153660381Y-128573212D01*
X153652739Y-128495406D01*
X153647670Y-128407280D01*
X153645217Y-128314066D01*
X152816100Y-128314066D01*
X152821857Y-128470105D01*
X152843802Y-128665941D01*
X152879786Y-128844668D01*
X152929759Y-129006155D01*
X152993668Y-129150274D01*
X153071462Y-129276894D01*
X153163089Y-129385885D01*
X153268497Y-129477117D01*
X153313662Y-129508068D01*
X153414611Y-129564215D01*
X153517901Y-129603826D01*
X153627989Y-129627986D01*
X153749330Y-129637781D01*
X153841836Y-129636735D01*
X153971490Y-129625769D01*
X154084084Y-129603954D01*
X154182875Y-129570286D01*
X154271121Y-129523764D01*
X154319986Y-129489552D01*
X154349353Y-129467638D01*
X154371043Y-129452667D01*
X154379253Y-129448267D01*
X154380868Y-129459096D01*
X154382159Y-129489749D01*
X154383138Y-129537474D01*
X154383817Y-129599521D01*
X154384210Y-129673138D01*
X154384330Y-129755573D01*
X154384188Y-129844075D01*
X154383797Y-129935893D01*
X154383171Y-130028276D01*
X154382320Y-130118472D01*
X154381260Y-130203729D01*
X154380001Y-130281297D01*
X154378556Y-130348424D01*
X154376938Y-130402359D01*
X154375161Y-130440350D01*
X154374669Y-130447333D01*
X154367092Y-130517749D01*
X154355531Y-130572898D01*
X154337792Y-130620019D01*
X154311682Y-130666353D01*
X154305415Y-130675933D01*
X154280983Y-130712622D01*
X155186311Y-130712622D01*
X155186507Y-129027755D01*
G37*
X155186507Y-129027755D02*
X155186526Y-128793338D01*
X155186552Y-128580397D01*
X155186625Y-128387832D01*
X155186782Y-128214541D01*
X155187064Y-128059424D01*
X155187509Y-127921380D01*
X155188156Y-127799308D01*
X155189045Y-127692106D01*
X155190213Y-127598674D01*
X155191701Y-127517910D01*
X155193546Y-127448714D01*
X155195789Y-127389985D01*
X155198469Y-127340621D01*
X155201623Y-127299522D01*
X155205292Y-127265587D01*
X155209513Y-127237714D01*
X155214327Y-127214802D01*
X155219773Y-127195751D01*
X155225888Y-127179460D01*
X155232712Y-127164827D01*
X155240285Y-127150751D01*
X155248645Y-127136132D01*
X155253839Y-127127026D01*
X155288104Y-127066311D01*
X154429955Y-127066311D01*
X154429955Y-127162267D01*
X154429224Y-127205630D01*
X154427272Y-127238795D01*
X154424463Y-127256576D01*
X154423221Y-127258222D01*
X154411799Y-127251338D01*
X154389084Y-127233495D01*
X154366385Y-127214121D01*
X154311800Y-127173386D01*
X154242321Y-127132383D01*
X154165270Y-127094877D01*
X154087965Y-127064636D01*
X154057113Y-127054988D01*
X153988616Y-127040422D01*
X153905764Y-127030461D01*
X153816371Y-127025417D01*
X153728248Y-127025604D01*
X153649207Y-127031334D01*
X153611511Y-127037142D01*
X153473414Y-127075203D01*
X153346113Y-127132927D01*
X153230292Y-127209789D01*
X153126637Y-127305261D01*
X153035833Y-127418821D01*
X152969031Y-127529619D01*
X152914164Y-127646375D01*
X152872163Y-127765724D01*
X152842167Y-127891717D01*
X152823311Y-128028406D01*
X152814732Y-128179842D01*
X152814006Y-128257289D01*
X152816100Y-128314066D01*
X153645217Y-128314066D01*
X153645424Y-128220998D01*
X153648337Y-128133308D01*
X153654000Y-128056228D01*
X153662455Y-127994991D01*
X153665038Y-127982650D01*
X153696840Y-127875367D01*
X153738498Y-127788342D01*
X153790363Y-127721358D01*
X153852781Y-127674195D01*
X153926100Y-127646635D01*
X154010669Y-127638459D01*
X154106835Y-127649449D01*
X154170311Y-127665171D01*
X154219454Y-127683361D01*
X154273583Y-127709209D01*
X154314244Y-127732911D01*
X154384800Y-127779279D01*
X154384800Y-128929470D01*
X154317392Y-128973038D01*
X154238867Y-129013960D01*
X154154681Y-129040611D01*
X154069557Y-129052535D01*
X153988216Y-129049278D01*
X153915380Y-129030385D01*
X153883426Y-129014816D01*
X153825501Y-128971819D01*
X153776544Y-128915047D01*
X153735390Y-128842425D01*
X153700874Y-128751879D01*
X153671833Y-128641334D01*
X153670552Y-128635467D01*
X153660381Y-128573212D01*
X153652739Y-128495406D01*
X153647670Y-128407280D01*
X153645217Y-128314066D01*
X152816100Y-128314066D01*
X152821857Y-128470105D01*
X152843802Y-128665941D01*
X152879786Y-128844668D01*
X152929759Y-129006155D01*
X152993668Y-129150274D01*
X153071462Y-129276894D01*
X153163089Y-129385885D01*
X153268497Y-129477117D01*
X153313662Y-129508068D01*
X153414611Y-129564215D01*
X153517901Y-129603826D01*
X153627989Y-129627986D01*
X153749330Y-129637781D01*
X153841836Y-129636735D01*
X153971490Y-129625769D01*
X154084084Y-129603954D01*
X154182875Y-129570286D01*
X154271121Y-129523764D01*
X154319986Y-129489552D01*
X154349353Y-129467638D01*
X154371043Y-129452667D01*
X154379253Y-129448267D01*
X154380868Y-129459096D01*
X154382159Y-129489749D01*
X154383138Y-129537474D01*
X154383817Y-129599521D01*
X154384210Y-129673138D01*
X154384330Y-129755573D01*
X154384188Y-129844075D01*
X154383797Y-129935893D01*
X154383171Y-130028276D01*
X154382320Y-130118472D01*
X154381260Y-130203729D01*
X154380001Y-130281297D01*
X154378556Y-130348424D01*
X154376938Y-130402359D01*
X154375161Y-130440350D01*
X154374669Y-130447333D01*
X154367092Y-130517749D01*
X154355531Y-130572898D01*
X154337792Y-130620019D01*
X154311682Y-130666353D01*
X154305415Y-130675933D01*
X154280983Y-130712622D01*
X155186311Y-130712622D01*
X155186507Y-129027755D01*
G36*
X151673574Y-129633448D02*
G01*
X151825492Y-129613433D01*
X151960756Y-129579798D01*
X152080239Y-129532275D01*
X152184815Y-129470595D01*
X152262424Y-129407035D01*
X152331265Y-129332901D01*
X152385006Y-129253129D01*
X152427910Y-129160909D01*
X152443384Y-129117839D01*
X152456244Y-129078858D01*
X152467446Y-129042711D01*
X152477120Y-129007566D01*
X152485396Y-128971590D01*
X152492403Y-128932950D01*
X152498272Y-128889815D01*
X152503131Y-128840351D01*
X152507110Y-128782727D01*
X152510340Y-128715109D01*
X152512949Y-128635666D01*
X152515067Y-128542564D01*
X152516824Y-128433973D01*
X152518349Y-128308058D01*
X152519772Y-128162988D01*
X152521025Y-128020222D01*
X152522351Y-127864032D01*
X152523556Y-127728761D01*
X152524766Y-127612754D01*
X152526106Y-127514355D01*
X152527700Y-127431907D01*
X152529675Y-127363754D01*
X152532156Y-127308240D01*
X152535269Y-127263708D01*
X152539138Y-127228502D01*
X152543889Y-127200966D01*
X152549648Y-127179444D01*
X152556539Y-127162278D01*
X152564689Y-127147814D01*
X152574223Y-127134394D01*
X152585266Y-127120362D01*
X152589566Y-127114929D01*
X152605386Y-127092090D01*
X152612422Y-127076537D01*
X152612444Y-127076078D01*
X152601567Y-127073879D01*
X152570582Y-127071853D01*
X152521957Y-127070058D01*
X152458163Y-127068549D01*
X152381669Y-127067384D01*
X152294944Y-127066620D01*
X152200457Y-127066314D01*
X152189550Y-127066311D01*
X151766657Y-127066311D01*
X151763395Y-127162378D01*
X151760133Y-127258444D01*
X151698044Y-127207457D01*
X151600714Y-127139943D01*
X151490813Y-127085251D01*
X151404349Y-127055022D01*
X151335278Y-127040334D01*
X151251925Y-127030341D01*
X151162159Y-127025354D01*
X151073845Y-127025687D01*
X150994851Y-127031649D01*
X150958622Y-127037362D01*
X150818603Y-127075224D01*
X150692178Y-127130068D01*
X150580260Y-127201076D01*
X150483762Y-127287432D01*
X150403600Y-127388321D01*
X150340687Y-127502924D01*
X150296312Y-127629016D01*
X150283978Y-127685599D01*
X150276368Y-127747798D01*
X150272739Y-127822637D01*
X150272245Y-127856533D01*
X150272310Y-127859718D01*
X151032248Y-127859718D01*
X151041541Y-127784667D01*
X151069728Y-127720840D01*
X151118197Y-127665202D01*
X151123254Y-127660789D01*
X151171548Y-127625963D01*
X151223257Y-127603380D01*
X151283989Y-127591460D01*
X151359352Y-127588617D01*
X151377459Y-127589022D01*
X151431278Y-127591675D01*
X151471308Y-127597091D01*
X151506324Y-127607255D01*
X151545103Y-127624150D01*
X151555745Y-127629328D01*
X151616396Y-127665156D01*
X151663215Y-127707788D01*
X151675952Y-127723027D01*
X151720622Y-127779538D01*
X151720622Y-127975414D01*
X151720086Y-128054061D01*
X151718396Y-128112012D01*
X151715428Y-128151125D01*
X151711057Y-128173259D01*
X151706972Y-128179726D01*
X151691047Y-128182889D01*
X151657264Y-128185512D01*
X151610340Y-128187345D01*
X151554993Y-128188143D01*
X151546106Y-128188158D01*
X151425330Y-128182904D01*
X151322660Y-128166737D01*
X151236106Y-128139039D01*
X151163681Y-128099192D01*
X151108751Y-128052242D01*
X151064204Y-127994355D01*
X151039480Y-127931307D01*
X151032248Y-127859718D01*
X150272310Y-127859718D01*
X150274178Y-127950288D01*
X150282522Y-128029188D01*
X150298768Y-128100410D01*
X150324405Y-128171136D01*
X150348401Y-128223507D01*
X150407020Y-128318804D01*
X150485117Y-128406830D01*
X150580315Y-128485983D01*
X150690238Y-128554660D01*
X150812510Y-128611259D01*
X150944755Y-128654179D01*
X151009422Y-128669118D01*
X151145604Y-128691223D01*
X151294049Y-128705806D01*
X151445505Y-128712187D01*
X151572064Y-128710555D01*
X151733950Y-128703776D01*
X151726530Y-128762755D01*
X151707238Y-128861908D01*
X151676104Y-128942628D01*
X151632269Y-129005534D01*
X151574871Y-129051244D01*
X151503048Y-129080378D01*
X151415941Y-129093553D01*
X151312686Y-129091389D01*
X151274711Y-129087388D01*
X151133520Y-129062220D01*
X150996707Y-129021186D01*
X150902178Y-128983185D01*
X150857018Y-128963810D01*
X150818585Y-128948240D01*
X150792234Y-128938595D01*
X150784546Y-128936548D01*
X150774802Y-128945626D01*
X150758083Y-128974595D01*
X150734232Y-129023783D01*
X150703093Y-129093516D01*
X150664507Y-129184121D01*
X150657910Y-129199911D01*
X150627853Y-129272228D01*
X150600874Y-129337575D01*
X150578136Y-129393094D01*
X150560806Y-129435928D01*
X150550048Y-129463219D01*
X150546941Y-129472058D01*
X150556940Y-129476813D01*
X150583217Y-129482090D01*
X150611489Y-129485769D01*
X150641646Y-129490526D01*
X150689433Y-129499972D01*
X150750612Y-129513180D01*
X150820946Y-129529224D01*
X150896194Y-129547180D01*
X150924755Y-129554203D01*
X151029816Y-129579791D01*
X151117480Y-129599853D01*
X151192068Y-129615031D01*
X151257903Y-129625965D01*
X151319307Y-129633296D01*
X151380602Y-129637665D01*
X151446110Y-129639713D01*
X151504128Y-129640111D01*
X151673574Y-129633448D01*
G37*
X151673574Y-129633448D02*
X151825492Y-129613433D01*
X151960756Y-129579798D01*
X152080239Y-129532275D01*
X152184815Y-129470595D01*
X152262424Y-129407035D01*
X152331265Y-129332901D01*
X152385006Y-129253129D01*
X152427910Y-129160909D01*
X152443384Y-129117839D01*
X152456244Y-129078858D01*
X152467446Y-129042711D01*
X152477120Y-129007566D01*
X152485396Y-128971590D01*
X152492403Y-128932950D01*
X152498272Y-128889815D01*
X152503131Y-128840351D01*
X152507110Y-128782727D01*
X152510340Y-128715109D01*
X152512949Y-128635666D01*
X152515067Y-128542564D01*
X152516824Y-128433973D01*
X152518349Y-128308058D01*
X152519772Y-128162988D01*
X152521025Y-128020222D01*
X152522351Y-127864032D01*
X152523556Y-127728761D01*
X152524766Y-127612754D01*
X152526106Y-127514355D01*
X152527700Y-127431907D01*
X152529675Y-127363754D01*
X152532156Y-127308240D01*
X152535269Y-127263708D01*
X152539138Y-127228502D01*
X152543889Y-127200966D01*
X152549648Y-127179444D01*
X152556539Y-127162278D01*
X152564689Y-127147814D01*
X152574223Y-127134394D01*
X152585266Y-127120362D01*
X152589566Y-127114929D01*
X152605386Y-127092090D01*
X152612422Y-127076537D01*
X152612444Y-127076078D01*
X152601567Y-127073879D01*
X152570582Y-127071853D01*
X152521957Y-127070058D01*
X152458163Y-127068549D01*
X152381669Y-127067384D01*
X152294944Y-127066620D01*
X152200457Y-127066314D01*
X152189550Y-127066311D01*
X151766657Y-127066311D01*
X151763395Y-127162378D01*
X151760133Y-127258444D01*
X151698044Y-127207457D01*
X151600714Y-127139943D01*
X151490813Y-127085251D01*
X151404349Y-127055022D01*
X151335278Y-127040334D01*
X151251925Y-127030341D01*
X151162159Y-127025354D01*
X151073845Y-127025687D01*
X150994851Y-127031649D01*
X150958622Y-127037362D01*
X150818603Y-127075224D01*
X150692178Y-127130068D01*
X150580260Y-127201076D01*
X150483762Y-127287432D01*
X150403600Y-127388321D01*
X150340687Y-127502924D01*
X150296312Y-127629016D01*
X150283978Y-127685599D01*
X150276368Y-127747798D01*
X150272739Y-127822637D01*
X150272245Y-127856533D01*
X150272310Y-127859718D01*
X151032248Y-127859718D01*
X151041541Y-127784667D01*
X151069728Y-127720840D01*
X151118197Y-127665202D01*
X151123254Y-127660789D01*
X151171548Y-127625963D01*
X151223257Y-127603380D01*
X151283989Y-127591460D01*
X151359352Y-127588617D01*
X151377459Y-127589022D01*
X151431278Y-127591675D01*
X151471308Y-127597091D01*
X151506324Y-127607255D01*
X151545103Y-127624150D01*
X151555745Y-127629328D01*
X151616396Y-127665156D01*
X151663215Y-127707788D01*
X151675952Y-127723027D01*
X151720622Y-127779538D01*
X151720622Y-127975414D01*
X151720086Y-128054061D01*
X151718396Y-128112012D01*
X151715428Y-128151125D01*
X151711057Y-128173259D01*
X151706972Y-128179726D01*
X151691047Y-128182889D01*
X151657264Y-128185512D01*
X151610340Y-128187345D01*
X151554993Y-128188143D01*
X151546106Y-128188158D01*
X151425330Y-128182904D01*
X151322660Y-128166737D01*
X151236106Y-128139039D01*
X151163681Y-128099192D01*
X151108751Y-128052242D01*
X151064204Y-127994355D01*
X151039480Y-127931307D01*
X151032248Y-127859718D01*
X150272310Y-127859718D01*
X150274178Y-127950288D01*
X150282522Y-128029188D01*
X150298768Y-128100410D01*
X150324405Y-128171136D01*
X150348401Y-128223507D01*
X150407020Y-128318804D01*
X150485117Y-128406830D01*
X150580315Y-128485983D01*
X150690238Y-128554660D01*
X150812510Y-128611259D01*
X150944755Y-128654179D01*
X151009422Y-128669118D01*
X151145604Y-128691223D01*
X151294049Y-128705806D01*
X151445505Y-128712187D01*
X151572064Y-128710555D01*
X151733950Y-128703776D01*
X151726530Y-128762755D01*
X151707238Y-128861908D01*
X151676104Y-128942628D01*
X151632269Y-129005534D01*
X151574871Y-129051244D01*
X151503048Y-129080378D01*
X151415941Y-129093553D01*
X151312686Y-129091389D01*
X151274711Y-129087388D01*
X151133520Y-129062220D01*
X150996707Y-129021186D01*
X150902178Y-128983185D01*
X150857018Y-128963810D01*
X150818585Y-128948240D01*
X150792234Y-128938595D01*
X150784546Y-128936548D01*
X150774802Y-128945626D01*
X150758083Y-128974595D01*
X150734232Y-129023783D01*
X150703093Y-129093516D01*
X150664507Y-129184121D01*
X150657910Y-129199911D01*
X150627853Y-129272228D01*
X150600874Y-129337575D01*
X150578136Y-129393094D01*
X150560806Y-129435928D01*
X150550048Y-129463219D01*
X150546941Y-129472058D01*
X150556940Y-129476813D01*
X150583217Y-129482090D01*
X150611489Y-129485769D01*
X150641646Y-129490526D01*
X150689433Y-129499972D01*
X150750612Y-129513180D01*
X150820946Y-129529224D01*
X150896194Y-129547180D01*
X150924755Y-129554203D01*
X151029816Y-129579791D01*
X151117480Y-129599853D01*
X151192068Y-129615031D01*
X151257903Y-129625965D01*
X151319307Y-129633296D01*
X151380602Y-129637665D01*
X151446110Y-129639713D01*
X151504128Y-129640111D01*
X151673574Y-129633448D01*
G36*
X149328429Y-130550929D02*
G01*
X149488570Y-130529755D01*
X149652510Y-130489615D01*
X149822313Y-130430111D01*
X150000043Y-130350846D01*
X150011310Y-130345301D01*
X150069005Y-130317275D01*
X150120552Y-130293198D01*
X150162191Y-130274751D01*
X150190162Y-130263614D01*
X150199733Y-130261067D01*
X150218950Y-130256059D01*
X150223561Y-130251853D01*
X150218458Y-130241420D01*
X150202418Y-130215132D01*
X150177288Y-130175743D01*
X150144914Y-130126009D01*
X150107143Y-130068685D01*
X150065822Y-130006524D01*
X150022798Y-129942282D01*
X149979917Y-129878715D01*
X149939026Y-129818575D01*
X149901971Y-129764620D01*
X149870600Y-129719603D01*
X149846759Y-129686279D01*
X149832294Y-129667403D01*
X149830309Y-129665213D01*
X149820191Y-129669862D01*
X149797850Y-129687038D01*
X149767280Y-129713560D01*
X149751536Y-129728036D01*
X149655047Y-129803318D01*
X149548336Y-129858759D01*
X149432832Y-129893859D01*
X149309962Y-129908120D01*
X149240561Y-129906949D01*
X149119423Y-129889788D01*
X149010205Y-129853906D01*
X148912582Y-129799041D01*
X148826228Y-129724930D01*
X148750815Y-129631312D01*
X148686018Y-129517924D01*
X148648601Y-129431333D01*
X148604748Y-129295634D01*
X148572428Y-129148150D01*
X148551557Y-128992686D01*
X148542051Y-128833044D01*
X148543827Y-128673027D01*
X148556803Y-128516439D01*
X148580894Y-128367082D01*
X148616018Y-128228760D01*
X148662092Y-128105276D01*
X148678373Y-128071022D01*
X148746620Y-127956936D01*
X148827079Y-127860443D01*
X148918570Y-127782330D01*
X149019911Y-127723383D01*
X149129920Y-127684388D01*
X149247415Y-127666132D01*
X149288883Y-127664789D01*
X149410441Y-127675710D01*
X149530878Y-127708526D01*
X149648666Y-127762561D01*
X149762277Y-127837135D01*
X149853685Y-127915461D01*
X149900215Y-127959992D01*
X150081483Y-127662729D01*
X150126580Y-127588567D01*
X150167819Y-127520354D01*
X150203735Y-127460541D01*
X150232866Y-127411580D01*
X150253750Y-127375921D01*
X150264924Y-127356016D01*
X150266375Y-127352921D01*
X150258146Y-127343282D01*
X150232567Y-127326001D01*
X150192873Y-127302717D01*
X150142297Y-127275066D01*
X150084074Y-127244685D01*
X150021437Y-127213210D01*
X149957621Y-127182278D01*
X149895860Y-127153527D01*
X149839388Y-127128592D01*
X149791438Y-127109111D01*
X149767986Y-127100682D01*
X149634221Y-127062867D01*
X149496327Y-127037864D01*
X149348622Y-127024860D01*
X149221833Y-127022532D01*
X149153878Y-127023627D01*
X149088277Y-127025725D01*
X149030847Y-127028566D01*
X148987403Y-127031894D01*
X148973298Y-127033578D01*
X148834284Y-127062413D01*
X148692757Y-127107532D01*
X148555275Y-127166250D01*
X148428394Y-127235880D01*
X148350889Y-127288559D01*
X148223481Y-127396761D01*
X148105178Y-127523329D01*
X147998172Y-127665134D01*
X147904652Y-127819049D01*
X147826810Y-127981947D01*
X147782956Y-128099244D01*
X147732708Y-128282872D01*
X147699209Y-128477419D01*
X147682449Y-128678675D01*
X147682416Y-128882432D01*
X147699101Y-129084479D01*
X147732493Y-129280608D01*
X147782580Y-129466609D01*
X147786397Y-129478197D01*
X147849281Y-129640250D01*
X147926028Y-129788168D01*
X148019242Y-129926135D01*
X148131527Y-130058339D01*
X148175392Y-130103601D01*
X148311534Y-130227543D01*
X148451491Y-130330085D01*
X148597411Y-130412344D01*
X148751442Y-130475436D01*
X148915732Y-130520477D01*
X149011289Y-130537967D01*
X149170023Y-130553534D01*
X149328429Y-130550929D01*
G37*
X149328429Y-130550929D02*
X149488570Y-130529755D01*
X149652510Y-130489615D01*
X149822313Y-130430111D01*
X150000043Y-130350846D01*
X150011310Y-130345301D01*
X150069005Y-130317275D01*
X150120552Y-130293198D01*
X150162191Y-130274751D01*
X150190162Y-130263614D01*
X150199733Y-130261067D01*
X150218950Y-130256059D01*
X150223561Y-130251853D01*
X150218458Y-130241420D01*
X150202418Y-130215132D01*
X150177288Y-130175743D01*
X150144914Y-130126009D01*
X150107143Y-130068685D01*
X150065822Y-130006524D01*
X150022798Y-129942282D01*
X149979917Y-129878715D01*
X149939026Y-129818575D01*
X149901971Y-129764620D01*
X149870600Y-129719603D01*
X149846759Y-129686279D01*
X149832294Y-129667403D01*
X149830309Y-129665213D01*
X149820191Y-129669862D01*
X149797850Y-129687038D01*
X149767280Y-129713560D01*
X149751536Y-129728036D01*
X149655047Y-129803318D01*
X149548336Y-129858759D01*
X149432832Y-129893859D01*
X149309962Y-129908120D01*
X149240561Y-129906949D01*
X149119423Y-129889788D01*
X149010205Y-129853906D01*
X148912582Y-129799041D01*
X148826228Y-129724930D01*
X148750815Y-129631312D01*
X148686018Y-129517924D01*
X148648601Y-129431333D01*
X148604748Y-129295634D01*
X148572428Y-129148150D01*
X148551557Y-128992686D01*
X148542051Y-128833044D01*
X148543827Y-128673027D01*
X148556803Y-128516439D01*
X148580894Y-128367082D01*
X148616018Y-128228760D01*
X148662092Y-128105276D01*
X148678373Y-128071022D01*
X148746620Y-127956936D01*
X148827079Y-127860443D01*
X148918570Y-127782330D01*
X149019911Y-127723383D01*
X149129920Y-127684388D01*
X149247415Y-127666132D01*
X149288883Y-127664789D01*
X149410441Y-127675710D01*
X149530878Y-127708526D01*
X149648666Y-127762561D01*
X149762277Y-127837135D01*
X149853685Y-127915461D01*
X149900215Y-127959992D01*
X150081483Y-127662729D01*
X150126580Y-127588567D01*
X150167819Y-127520354D01*
X150203735Y-127460541D01*
X150232866Y-127411580D01*
X150253750Y-127375921D01*
X150264924Y-127356016D01*
X150266375Y-127352921D01*
X150258146Y-127343282D01*
X150232567Y-127326001D01*
X150192873Y-127302717D01*
X150142297Y-127275066D01*
X150084074Y-127244685D01*
X150021437Y-127213210D01*
X149957621Y-127182278D01*
X149895860Y-127153527D01*
X149839388Y-127128592D01*
X149791438Y-127109111D01*
X149767986Y-127100682D01*
X149634221Y-127062867D01*
X149496327Y-127037864D01*
X149348622Y-127024860D01*
X149221833Y-127022532D01*
X149153878Y-127023627D01*
X149088277Y-127025725D01*
X149030847Y-127028566D01*
X148987403Y-127031894D01*
X148973298Y-127033578D01*
X148834284Y-127062413D01*
X148692757Y-127107532D01*
X148555275Y-127166250D01*
X148428394Y-127235880D01*
X148350889Y-127288559D01*
X148223481Y-127396761D01*
X148105178Y-127523329D01*
X147998172Y-127665134D01*
X147904652Y-127819049D01*
X147826810Y-127981947D01*
X147782956Y-128099244D01*
X147732708Y-128282872D01*
X147699209Y-128477419D01*
X147682449Y-128678675D01*
X147682416Y-128882432D01*
X147699101Y-129084479D01*
X147732493Y-129280608D01*
X147782580Y-129466609D01*
X147786397Y-129478197D01*
X147849281Y-129640250D01*
X147926028Y-129788168D01*
X148019242Y-129926135D01*
X148131527Y-130058339D01*
X148175392Y-130103601D01*
X148311534Y-130227543D01*
X148451491Y-130330085D01*
X148597411Y-130412344D01*
X148751442Y-130475436D01*
X148915732Y-130520477D01*
X149011289Y-130537967D01*
X149170023Y-130553534D01*
X149328429Y-130550929D01*
G36*
X146053600Y-131010946D02*
G01*
X146064465Y-130897007D01*
X146096082Y-130789384D01*
X146146985Y-130690385D01*
X146215707Y-130602316D01*
X146300781Y-130527484D01*
X146397768Y-130469616D01*
X146504036Y-130429995D01*
X146611050Y-130411427D01*
X146716700Y-130412566D01*
X146818875Y-130432070D01*
X146915466Y-130468594D01*
X147004362Y-130520795D01*
X147083454Y-130587327D01*
X147150631Y-130666848D01*
X147203783Y-130758013D01*
X147240801Y-130859477D01*
X147259573Y-130969898D01*
X147261511Y-131019794D01*
X147261511Y-131107733D01*
X147313440Y-131107733D01*
X147349747Y-131104889D01*
X147376645Y-131093089D01*
X147403751Y-131069351D01*
X147442133Y-131030969D01*
X147442133Y-128839398D01*
X147442124Y-128577261D01*
X147442092Y-128336759D01*
X147442028Y-128116952D01*
X147441924Y-127916899D01*
X147441773Y-127735656D01*
X147441566Y-127572284D01*
X147441294Y-127425840D01*
X147440950Y-127295383D01*
X147440526Y-127179971D01*
X147440013Y-127078662D01*
X147439403Y-126990516D01*
X147438688Y-126914590D01*
X147437860Y-126849943D01*
X147436911Y-126795633D01*
X147435833Y-126750720D01*
X147434617Y-126714260D01*
X147433255Y-126685313D01*
X147431739Y-126662937D01*
X147430062Y-126646191D01*
X147428214Y-126634132D01*
X147426187Y-126625820D01*
X147423975Y-126620313D01*
X147422892Y-126618463D01*
X147418729Y-126611451D01*
X147415195Y-126605004D01*
X147411365Y-126599100D01*
X147406318Y-126593714D01*
X147399129Y-126588822D01*
X147388877Y-126584402D01*
X147374636Y-126580428D01*
X147355486Y-126576879D01*
X147330501Y-126573730D01*
X147298760Y-126570958D01*
X147259338Y-126568539D01*
X147211314Y-126566449D01*
X147153763Y-126564665D01*
X147085763Y-126563163D01*
X147006390Y-126561920D01*
X146914721Y-126560911D01*
X146809834Y-126560115D01*
X146690804Y-126559506D01*
X146556710Y-126559061D01*
X146406627Y-126558757D01*
X146239633Y-126558570D01*
X146054804Y-126558476D01*
X145851217Y-126558452D01*
X145627950Y-126558475D01*
X145384078Y-126558520D01*
X145118679Y-126558563D01*
X145080296Y-126558568D01*
X144813318Y-126558611D01*
X144567998Y-126558682D01*
X144343417Y-126558787D01*
X144138655Y-126558934D01*
X143952794Y-126559131D01*
X143784912Y-126559384D01*
X143634092Y-126559700D01*
X143499413Y-126560087D01*
X143379956Y-126560553D01*
X143274801Y-126561103D01*
X143183029Y-126561747D01*
X143103721Y-126562489D01*
X143035957Y-126563339D01*
X142978818Y-126564303D01*
X142931383Y-126565389D01*
X142892734Y-126566603D01*
X142861951Y-126567953D01*
X142838115Y-126569445D01*
X142820306Y-126571089D01*
X142807605Y-126572889D01*
X142799092Y-126574855D01*
X142794734Y-126576523D01*
X142786272Y-126580094D01*
X142778503Y-126582730D01*
X142771398Y-126585366D01*
X142764927Y-126588938D01*
X142759061Y-126594379D01*
X142753771Y-126602625D01*
X142749026Y-126614610D01*
X142744798Y-126631269D01*
X142741057Y-126653537D01*
X142737773Y-126682348D01*
X142734917Y-126718637D01*
X142732460Y-126763339D01*
X142730371Y-126817389D01*
X142728622Y-126881721D01*
X142727183Y-126957270D01*
X142726024Y-127044970D01*
X142725117Y-127145757D01*
X142724431Y-127260566D01*
X142723937Y-127390330D01*
X142723605Y-127535985D01*
X142723407Y-127698465D01*
X142723313Y-127878705D01*
X142723292Y-128077640D01*
X142723315Y-128296204D01*
X142723354Y-128535332D01*
X142723378Y-128795960D01*
X142723378Y-128838111D01*
X142723364Y-129101008D01*
X142723339Y-129342268D01*
X142723329Y-129562835D01*
X142723358Y-129763648D01*
X142723452Y-129945651D01*
X142723638Y-130109784D01*
X142723941Y-130256989D01*
X142724386Y-130388208D01*
X142724966Y-130498133D01*
X143027803Y-130498133D01*
X143067593Y-130440289D01*
X143078764Y-130424521D01*
X143088834Y-130410559D01*
X143097862Y-130397216D01*
X143105903Y-130383307D01*
X143113014Y-130367644D01*
X143119253Y-130349042D01*
X143124675Y-130326314D01*
X143129338Y-130298273D01*
X143133299Y-130263733D01*
X143136615Y-130221508D01*
X143139341Y-130170411D01*
X143141536Y-130109256D01*
X143143255Y-130036856D01*
X143144556Y-129952025D01*
X143145495Y-129853578D01*
X143146130Y-129740326D01*
X143146516Y-129611084D01*
X143146712Y-129464666D01*
X143146773Y-129299884D01*
X143146757Y-129115553D01*
X143146720Y-128910487D01*
X143146711Y-128787867D01*
X143146735Y-128570918D01*
X143146769Y-128375358D01*
X143146757Y-128200001D01*
X143146642Y-128043659D01*
X143146370Y-127905143D01*
X143145882Y-127783266D01*
X143145124Y-127676840D01*
X143144038Y-127584678D01*
X143142569Y-127505591D01*
X143140660Y-127438392D01*
X143138256Y-127381893D01*
X143135299Y-127334907D01*
X143131734Y-127296245D01*
X143127505Y-127264720D01*
X143122554Y-127239145D01*
X143116827Y-127218330D01*
X143110267Y-127201089D01*
X143102817Y-127186235D01*
X143094421Y-127172578D01*
X143085024Y-127158931D01*
X143074568Y-127144107D01*
X143068477Y-127135217D01*
X143029704Y-127077600D01*
X143561268Y-127077600D01*
X143684517Y-127077635D01*
X143787013Y-127077785D01*
X143870580Y-127078122D01*
X143937044Y-127078714D01*
X143988229Y-127079633D01*
X144025959Y-127080949D01*
X144052060Y-127082731D01*
X144068356Y-127085049D01*
X144076672Y-127087974D01*
X144078832Y-127091576D01*
X144076661Y-127095925D01*
X144075465Y-127097355D01*
X144050315Y-127134427D01*
X144024417Y-127187228D01*
X144000808Y-127249230D01*
X143992539Y-127275643D01*
X143987922Y-127293584D01*
X143984021Y-127314645D01*
X143980752Y-127340911D01*
X143978034Y-127374468D01*
X143975785Y-127417401D01*
X143973923Y-127471796D01*
X143972364Y-127539738D01*
X143971028Y-127623312D01*
X143969831Y-127724605D01*
X143968692Y-127845700D01*
X143968315Y-127890400D01*
X143967298Y-128015551D01*
X143966540Y-128119918D01*
X143966097Y-128205293D01*
X143966030Y-128273467D01*
X143966395Y-128326235D01*
X143967252Y-128365386D01*
X143968659Y-128392715D01*
X143970675Y-128410014D01*
X143973357Y-128419074D01*
X143976764Y-128421688D01*
X143980956Y-128419649D01*
X143985429Y-128415333D01*
X143995784Y-128402398D01*
X144017842Y-128373324D01*
X144050043Y-128330241D01*
X144090826Y-128275282D01*
X144138630Y-128210577D01*
X144191895Y-128138258D01*
X144249060Y-128060456D01*
X144308563Y-127979302D01*
X144368845Y-127896928D01*
X144428345Y-127815464D01*
X144485502Y-127737043D01*
X144538755Y-127663796D01*
X144586543Y-127597853D01*
X144627307Y-127541346D01*
X144659484Y-127496407D01*
X144681515Y-127465166D01*
X144686083Y-127458534D01*
X144709004Y-127421631D01*
X144735812Y-127373641D01*
X144761211Y-127324103D01*
X144764432Y-127317423D01*
X144786110Y-127269228D01*
X144798696Y-127231666D01*
X144804426Y-127195840D01*
X144805544Y-127153800D01*
X144804910Y-127077600D01*
X145959349Y-127077600D01*
X145868185Y-127171331D01*
X145821388Y-127221225D01*
X145771101Y-127277705D01*
X145725056Y-127331974D01*
X145704631Y-127357327D01*
X145674193Y-127396872D01*
X145634138Y-127450084D01*
X145585639Y-127515333D01*
X145529865Y-127590989D01*
X145467989Y-127675423D01*
X145401181Y-127767006D01*
X145330613Y-127864108D01*
X145257455Y-127965099D01*
X145182879Y-128068350D01*
X145108056Y-128172232D01*
X145034157Y-128275115D01*
X144962354Y-128375369D01*
X144893816Y-128471364D01*
X144829716Y-128561473D01*
X144771225Y-128644064D01*
X144719514Y-128717508D01*
X144675753Y-128780176D01*
X144641115Y-128830439D01*
X144616770Y-128866666D01*
X144603889Y-128887229D01*
X144602131Y-128891332D01*
X144610090Y-128902658D01*
X144630885Y-128929838D01*
X144663153Y-128971171D01*
X144705530Y-129024956D01*
X144756653Y-129089494D01*
X144815159Y-129163082D01*
X144879686Y-129244022D01*
X144948869Y-129330612D01*
X145021347Y-129421152D01*
X145095754Y-129513940D01*
X145155483Y-129588298D01*
X146166489Y-129588298D01*
X146172398Y-129575341D01*
X146186728Y-129553092D01*
X146187775Y-129551609D01*
X146206562Y-129521456D01*
X146226209Y-129484625D01*
X146230108Y-129476489D01*
X146233644Y-129468060D01*
X146236770Y-129457941D01*
X146239514Y-129444740D01*
X146241908Y-129427062D01*
X146243981Y-129403516D01*
X146245765Y-129372707D01*
X146247288Y-129333243D01*
X146248581Y-129283731D01*
X146249674Y-129222777D01*
X146250597Y-129148989D01*
X146251381Y-129060972D01*
X146252055Y-128957335D01*
X146252650Y-128836684D01*
X146253195Y-128697626D01*
X146253721Y-128538768D01*
X146254255Y-128359911D01*
X146254794Y-128174793D01*
X146255228Y-128010855D01*
X146255491Y-127866697D01*
X146255516Y-127740921D01*
X146255235Y-127632129D01*
X146254581Y-127538923D01*
X146253486Y-127459903D01*
X146251882Y-127393672D01*
X146249703Y-127338830D01*
X146246881Y-127293979D01*
X146243349Y-127257722D01*
X146239039Y-127228659D01*
X146233883Y-127205391D01*
X146227815Y-127186521D01*
X146220767Y-127170649D01*
X146212671Y-127156378D01*
X146203460Y-127142309D01*
X146194960Y-127129842D01*
X146177824Y-127103548D01*
X146167678Y-127085963D01*
X146166489Y-127082743D01*
X146177396Y-127081666D01*
X146208589Y-127080665D01*
X146257777Y-127079765D01*
X146322667Y-127078990D01*
X146400970Y-127078363D01*
X146490393Y-127077909D01*
X146588644Y-127077651D01*
X146657555Y-127077600D01*
X146762548Y-127077820D01*
X146859390Y-127078452D01*
X146945893Y-127079451D01*
X147019868Y-127080773D01*
X147079126Y-127082374D01*
X147121480Y-127084209D01*
X147144740Y-127086235D01*
X147148622Y-127087507D01*
X147140924Y-127102409D01*
X147132926Y-127110440D01*
X147119754Y-127127566D01*
X147102515Y-127157817D01*
X147090593Y-127182378D01*
X147063955Y-127241289D01*
X147060880Y-128418155D01*
X147057805Y-129595022D01*
X146612147Y-129595022D01*
X146514330Y-129594858D01*
X146423936Y-129594389D01*
X146343370Y-129593653D01*
X146275038Y-129592684D01*
X146221344Y-129591520D01*
X146184695Y-129590197D01*
X146167496Y-129588751D01*
X146166489Y-129588298D01*
X145155483Y-129588298D01*
X145170730Y-129607278D01*
X145244910Y-129699463D01*
X145316931Y-129788796D01*
X145385431Y-129873576D01*
X145449045Y-129952102D01*
X145506412Y-130022674D01*
X145556167Y-130083591D01*
X145596948Y-130133153D01*
X145614112Y-130153822D01*
X145700404Y-130254484D01*
X145777003Y-130337741D01*
X145845817Y-130405562D01*
X145908752Y-130459911D01*
X145918133Y-130467278D01*
X145957644Y-130497883D01*
X144825884Y-130498133D01*
X144831173Y-130450156D01*
X144827870Y-130392812D01*
X144806339Y-130324537D01*
X144766365Y-130244788D01*
X144721057Y-130172505D01*
X144704839Y-130149860D01*
X144676786Y-130112304D01*
X144638570Y-130061979D01*
X144591863Y-130001027D01*
X144538339Y-129931589D01*
X144479669Y-129855806D01*
X144417525Y-129775820D01*
X144353579Y-129693772D01*
X144289505Y-129611804D01*
X144226973Y-129532057D01*
X144167657Y-129456673D01*
X144113229Y-129387793D01*
X144065361Y-129327558D01*
X144025725Y-129278111D01*
X143995994Y-129241592D01*
X143977839Y-129220142D01*
X143974780Y-129216844D01*
X143971921Y-129224851D01*
X143969707Y-129255145D01*
X143968143Y-129307444D01*
X143967233Y-129381469D01*
X143966980Y-129476937D01*
X143967387Y-129593566D01*
X143968296Y-129713555D01*
X143969618Y-129845667D01*
X143971143Y-129957406D01*
X143973119Y-130050975D01*
X143975794Y-130128581D01*
X143979418Y-130192426D01*
X143984239Y-130244717D01*
X143990506Y-130287656D01*
X143998468Y-130323449D01*
X144008373Y-130354300D01*
X144020469Y-130382414D01*
X144035007Y-130409995D01*
X144049689Y-130435034D01*
X144087686Y-130498133D01*
X143027803Y-130498133D01*
X142724966Y-130498133D01*
X142724999Y-130504383D01*
X142725805Y-130606456D01*
X142726830Y-130695367D01*
X142728100Y-130772059D01*
X142729640Y-130837473D01*
X142731476Y-130892551D01*
X142733633Y-130938235D01*
X142736137Y-130975466D01*
X142739013Y-131005187D01*
X142742287Y-131028338D01*
X142745985Y-131045861D01*
X142750131Y-131058699D01*
X142754753Y-131067792D01*
X142759874Y-131074082D01*
X142765522Y-131078512D01*
X142771721Y-131082022D01*
X142778496Y-131085555D01*
X142784492Y-131089124D01*
X142789725Y-131091700D01*
X142797901Y-131094028D01*
X142810114Y-131096122D01*
X142827459Y-131097993D01*
X142851031Y-131099653D01*
X142881923Y-131101116D01*
X142921232Y-131102392D01*
X142970050Y-131103496D01*
X143029473Y-131104439D01*
X143100596Y-131105233D01*
X143184512Y-131105891D01*
X143282317Y-131106425D01*
X143395106Y-131106847D01*
X143523971Y-131107171D01*
X143670009Y-131107408D01*
X143834314Y-131107570D01*
X144017980Y-131107670D01*
X144222103Y-131107720D01*
X144433247Y-131107733D01*
X146053600Y-131107733D01*
X146053600Y-131010946D01*
G37*
X146053600Y-131010946D02*
X146064465Y-130897007D01*
X146096082Y-130789384D01*
X146146985Y-130690385D01*
X146215707Y-130602316D01*
X146300781Y-130527484D01*
X146397768Y-130469616D01*
X146504036Y-130429995D01*
X146611050Y-130411427D01*
X146716700Y-130412566D01*
X146818875Y-130432070D01*
X146915466Y-130468594D01*
X147004362Y-130520795D01*
X147083454Y-130587327D01*
X147150631Y-130666848D01*
X147203783Y-130758013D01*
X147240801Y-130859477D01*
X147259573Y-130969898D01*
X147261511Y-131019794D01*
X147261511Y-131107733D01*
X147313440Y-131107733D01*
X147349747Y-131104889D01*
X147376645Y-131093089D01*
X147403751Y-131069351D01*
X147442133Y-131030969D01*
X147442133Y-128839398D01*
X147442124Y-128577261D01*
X147442092Y-128336759D01*
X147442028Y-128116952D01*
X147441924Y-127916899D01*
X147441773Y-127735656D01*
X147441566Y-127572284D01*
X147441294Y-127425840D01*
X147440950Y-127295383D01*
X147440526Y-127179971D01*
X147440013Y-127078662D01*
X147439403Y-126990516D01*
X147438688Y-126914590D01*
X147437860Y-126849943D01*
X147436911Y-126795633D01*
X147435833Y-126750720D01*
X147434617Y-126714260D01*
X147433255Y-126685313D01*
X147431739Y-126662937D01*
X147430062Y-126646191D01*
X147428214Y-126634132D01*
X147426187Y-126625820D01*
X147423975Y-126620313D01*
X147422892Y-126618463D01*
X147418729Y-126611451D01*
X147415195Y-126605004D01*
X147411365Y-126599100D01*
X147406318Y-126593714D01*
X147399129Y-126588822D01*
X147388877Y-126584402D01*
X147374636Y-126580428D01*
X147355486Y-126576879D01*
X147330501Y-126573730D01*
X147298760Y-126570958D01*
X147259338Y-126568539D01*
X147211314Y-126566449D01*
X147153763Y-126564665D01*
X147085763Y-126563163D01*
X147006390Y-126561920D01*
X146914721Y-126560911D01*
X146809834Y-126560115D01*
X146690804Y-126559506D01*
X146556710Y-126559061D01*
X146406627Y-126558757D01*
X146239633Y-126558570D01*
X146054804Y-126558476D01*
X145851217Y-126558452D01*
X145627950Y-126558475D01*
X145384078Y-126558520D01*
X145118679Y-126558563D01*
X145080296Y-126558568D01*
X144813318Y-126558611D01*
X144567998Y-126558682D01*
X144343417Y-126558787D01*
X144138655Y-126558934D01*
X143952794Y-126559131D01*
X143784912Y-126559384D01*
X143634092Y-126559700D01*
X143499413Y-126560087D01*
X143379956Y-126560553D01*
X143274801Y-126561103D01*
X143183029Y-126561747D01*
X143103721Y-126562489D01*
X143035957Y-126563339D01*
X142978818Y-126564303D01*
X142931383Y-126565389D01*
X142892734Y-126566603D01*
X142861951Y-126567953D01*
X142838115Y-126569445D01*
X142820306Y-126571089D01*
X142807605Y-126572889D01*
X142799092Y-126574855D01*
X142794734Y-126576523D01*
X142786272Y-126580094D01*
X142778503Y-126582730D01*
X142771398Y-126585366D01*
X142764927Y-126588938D01*
X142759061Y-126594379D01*
X142753771Y-126602625D01*
X142749026Y-126614610D01*
X142744798Y-126631269D01*
X142741057Y-126653537D01*
X142737773Y-126682348D01*
X142734917Y-126718637D01*
X142732460Y-126763339D01*
X142730371Y-126817389D01*
X142728622Y-126881721D01*
X142727183Y-126957270D01*
X142726024Y-127044970D01*
X142725117Y-127145757D01*
X142724431Y-127260566D01*
X142723937Y-127390330D01*
X142723605Y-127535985D01*
X142723407Y-127698465D01*
X142723313Y-127878705D01*
X142723292Y-128077640D01*
X142723315Y-128296204D01*
X142723354Y-128535332D01*
X142723378Y-128795960D01*
X142723378Y-128838111D01*
X142723364Y-129101008D01*
X142723339Y-129342268D01*
X142723329Y-129562835D01*
X142723358Y-129763648D01*
X142723452Y-129945651D01*
X142723638Y-130109784D01*
X142723941Y-130256989D01*
X142724386Y-130388208D01*
X142724966Y-130498133D01*
X143027803Y-130498133D01*
X143067593Y-130440289D01*
X143078764Y-130424521D01*
X143088834Y-130410559D01*
X143097862Y-130397216D01*
X143105903Y-130383307D01*
X143113014Y-130367644D01*
X143119253Y-130349042D01*
X143124675Y-130326314D01*
X143129338Y-130298273D01*
X143133299Y-130263733D01*
X143136615Y-130221508D01*
X143139341Y-130170411D01*
X143141536Y-130109256D01*
X143143255Y-130036856D01*
X143144556Y-129952025D01*
X143145495Y-129853578D01*
X143146130Y-129740326D01*
X143146516Y-129611084D01*
X143146712Y-129464666D01*
X143146773Y-129299884D01*
X143146757Y-129115553D01*
X143146720Y-128910487D01*
X143146711Y-128787867D01*
X143146735Y-128570918D01*
X143146769Y-128375358D01*
X143146757Y-128200001D01*
X143146642Y-128043659D01*
X143146370Y-127905143D01*
X143145882Y-127783266D01*
X143145124Y-127676840D01*
X143144038Y-127584678D01*
X143142569Y-127505591D01*
X143140660Y-127438392D01*
X143138256Y-127381893D01*
X143135299Y-127334907D01*
X143131734Y-127296245D01*
X143127505Y-127264720D01*
X143122554Y-127239145D01*
X143116827Y-127218330D01*
X143110267Y-127201089D01*
X143102817Y-127186235D01*
X143094421Y-127172578D01*
X143085024Y-127158931D01*
X143074568Y-127144107D01*
X143068477Y-127135217D01*
X143029704Y-127077600D01*
X143561268Y-127077600D01*
X143684517Y-127077635D01*
X143787013Y-127077785D01*
X143870580Y-127078122D01*
X143937044Y-127078714D01*
X143988229Y-127079633D01*
X144025959Y-127080949D01*
X144052060Y-127082731D01*
X144068356Y-127085049D01*
X144076672Y-127087974D01*
X144078832Y-127091576D01*
X144076661Y-127095925D01*
X144075465Y-127097355D01*
X144050315Y-127134427D01*
X144024417Y-127187228D01*
X144000808Y-127249230D01*
X143992539Y-127275643D01*
X143987922Y-127293584D01*
X143984021Y-127314645D01*
X143980752Y-127340911D01*
X143978034Y-127374468D01*
X143975785Y-127417401D01*
X143973923Y-127471796D01*
X143972364Y-127539738D01*
X143971028Y-127623312D01*
X143969831Y-127724605D01*
X143968692Y-127845700D01*
X143968315Y-127890400D01*
X143967298Y-128015551D01*
X143966540Y-128119918D01*
X143966097Y-128205293D01*
X143966030Y-128273467D01*
X143966395Y-128326235D01*
X143967252Y-128365386D01*
X143968659Y-128392715D01*
X143970675Y-128410014D01*
X143973357Y-128419074D01*
X143976764Y-128421688D01*
X143980956Y-128419649D01*
X143985429Y-128415333D01*
X143995784Y-128402398D01*
X144017842Y-128373324D01*
X144050043Y-128330241D01*
X144090826Y-128275282D01*
X144138630Y-128210577D01*
X144191895Y-128138258D01*
X144249060Y-128060456D01*
X144308563Y-127979302D01*
X144368845Y-127896928D01*
X144428345Y-127815464D01*
X144485502Y-127737043D01*
X144538755Y-127663796D01*
X144586543Y-127597853D01*
X144627307Y-127541346D01*
X144659484Y-127496407D01*
X144681515Y-127465166D01*
X144686083Y-127458534D01*
X144709004Y-127421631D01*
X144735812Y-127373641D01*
X144761211Y-127324103D01*
X144764432Y-127317423D01*
X144786110Y-127269228D01*
X144798696Y-127231666D01*
X144804426Y-127195840D01*
X144805544Y-127153800D01*
X144804910Y-127077600D01*
X145959349Y-127077600D01*
X145868185Y-127171331D01*
X145821388Y-127221225D01*
X145771101Y-127277705D01*
X145725056Y-127331974D01*
X145704631Y-127357327D01*
X145674193Y-127396872D01*
X145634138Y-127450084D01*
X145585639Y-127515333D01*
X145529865Y-127590989D01*
X145467989Y-127675423D01*
X145401181Y-127767006D01*
X145330613Y-127864108D01*
X145257455Y-127965099D01*
X145182879Y-128068350D01*
X145108056Y-128172232D01*
X145034157Y-128275115D01*
X144962354Y-128375369D01*
X144893816Y-128471364D01*
X144829716Y-128561473D01*
X144771225Y-128644064D01*
X144719514Y-128717508D01*
X144675753Y-128780176D01*
X144641115Y-128830439D01*
X144616770Y-128866666D01*
X144603889Y-128887229D01*
X144602131Y-128891332D01*
X144610090Y-128902658D01*
X144630885Y-128929838D01*
X144663153Y-128971171D01*
X144705530Y-129024956D01*
X144756653Y-129089494D01*
X144815159Y-129163082D01*
X144879686Y-129244022D01*
X144948869Y-129330612D01*
X145021347Y-129421152D01*
X145095754Y-129513940D01*
X145155483Y-129588298D01*
X146166489Y-129588298D01*
X146172398Y-129575341D01*
X146186728Y-129553092D01*
X146187775Y-129551609D01*
X146206562Y-129521456D01*
X146226209Y-129484625D01*
X146230108Y-129476489D01*
X146233644Y-129468060D01*
X146236770Y-129457941D01*
X146239514Y-129444740D01*
X146241908Y-129427062D01*
X146243981Y-129403516D01*
X146245765Y-129372707D01*
X146247288Y-129333243D01*
X146248581Y-129283731D01*
X146249674Y-129222777D01*
X146250597Y-129148989D01*
X146251381Y-129060972D01*
X146252055Y-128957335D01*
X146252650Y-128836684D01*
X146253195Y-128697626D01*
X146253721Y-128538768D01*
X146254255Y-128359911D01*
X146254794Y-128174793D01*
X146255228Y-128010855D01*
X146255491Y-127866697D01*
X146255516Y-127740921D01*
X146255235Y-127632129D01*
X146254581Y-127538923D01*
X146253486Y-127459903D01*
X146251882Y-127393672D01*
X146249703Y-127338830D01*
X146246881Y-127293979D01*
X146243349Y-127257722D01*
X146239039Y-127228659D01*
X146233883Y-127205391D01*
X146227815Y-127186521D01*
X146220767Y-127170649D01*
X146212671Y-127156378D01*
X146203460Y-127142309D01*
X146194960Y-127129842D01*
X146177824Y-127103548D01*
X146167678Y-127085963D01*
X146166489Y-127082743D01*
X146177396Y-127081666D01*
X146208589Y-127080665D01*
X146257777Y-127079765D01*
X146322667Y-127078990D01*
X146400970Y-127078363D01*
X146490393Y-127077909D01*
X146588644Y-127077651D01*
X146657555Y-127077600D01*
X146762548Y-127077820D01*
X146859390Y-127078452D01*
X146945893Y-127079451D01*
X147019868Y-127080773D01*
X147079126Y-127082374D01*
X147121480Y-127084209D01*
X147144740Y-127086235D01*
X147148622Y-127087507D01*
X147140924Y-127102409D01*
X147132926Y-127110440D01*
X147119754Y-127127566D01*
X147102515Y-127157817D01*
X147090593Y-127182378D01*
X147063955Y-127241289D01*
X147060880Y-128418155D01*
X147057805Y-129595022D01*
X146612147Y-129595022D01*
X146514330Y-129594858D01*
X146423936Y-129594389D01*
X146343370Y-129593653D01*
X146275038Y-129592684D01*
X146221344Y-129591520D01*
X146184695Y-129590197D01*
X146167496Y-129588751D01*
X146166489Y-129588298D01*
X145155483Y-129588298D01*
X145170730Y-129607278D01*
X145244910Y-129699463D01*
X145316931Y-129788796D01*
X145385431Y-129873576D01*
X145449045Y-129952102D01*
X145506412Y-130022674D01*
X145556167Y-130083591D01*
X145596948Y-130133153D01*
X145614112Y-130153822D01*
X145700404Y-130254484D01*
X145777003Y-130337741D01*
X145845817Y-130405562D01*
X145908752Y-130459911D01*
X145918133Y-130467278D01*
X145957644Y-130497883D01*
X144825884Y-130498133D01*
X144831173Y-130450156D01*
X144827870Y-130392812D01*
X144806339Y-130324537D01*
X144766365Y-130244788D01*
X144721057Y-130172505D01*
X144704839Y-130149860D01*
X144676786Y-130112304D01*
X144638570Y-130061979D01*
X144591863Y-130001027D01*
X144538339Y-129931589D01*
X144479669Y-129855806D01*
X144417525Y-129775820D01*
X144353579Y-129693772D01*
X144289505Y-129611804D01*
X144226973Y-129532057D01*
X144167657Y-129456673D01*
X144113229Y-129387793D01*
X144065361Y-129327558D01*
X144025725Y-129278111D01*
X143995994Y-129241592D01*
X143977839Y-129220142D01*
X143974780Y-129216844D01*
X143971921Y-129224851D01*
X143969707Y-129255145D01*
X143968143Y-129307444D01*
X143967233Y-129381469D01*
X143966980Y-129476937D01*
X143967387Y-129593566D01*
X143968296Y-129713555D01*
X143969618Y-129845667D01*
X143971143Y-129957406D01*
X143973119Y-130050975D01*
X143975794Y-130128581D01*
X143979418Y-130192426D01*
X143984239Y-130244717D01*
X143990506Y-130287656D01*
X143998468Y-130323449D01*
X144008373Y-130354300D01*
X144020469Y-130382414D01*
X144035007Y-130409995D01*
X144049689Y-130435034D01*
X144087686Y-130498133D01*
X143027803Y-130498133D01*
X142724966Y-130498133D01*
X142724999Y-130504383D01*
X142725805Y-130606456D01*
X142726830Y-130695367D01*
X142728100Y-130772059D01*
X142729640Y-130837473D01*
X142731476Y-130892551D01*
X142733633Y-130938235D01*
X142736137Y-130975466D01*
X142739013Y-131005187D01*
X142742287Y-131028338D01*
X142745985Y-131045861D01*
X142750131Y-131058699D01*
X142754753Y-131067792D01*
X142759874Y-131074082D01*
X142765522Y-131078512D01*
X142771721Y-131082022D01*
X142778496Y-131085555D01*
X142784492Y-131089124D01*
X142789725Y-131091700D01*
X142797901Y-131094028D01*
X142810114Y-131096122D01*
X142827459Y-131097993D01*
X142851031Y-131099653D01*
X142881923Y-131101116D01*
X142921232Y-131102392D01*
X142970050Y-131103496D01*
X143029473Y-131104439D01*
X143100596Y-131105233D01*
X143184512Y-131105891D01*
X143282317Y-131106425D01*
X143395106Y-131106847D01*
X143523971Y-131107171D01*
X143670009Y-131107408D01*
X143834314Y-131107570D01*
X144017980Y-131107670D01*
X144222103Y-131107720D01*
X144433247Y-131107733D01*
X146053600Y-131107733D01*
X146053600Y-131010946D01*
G36*
X153624430Y-116935152D02*
G01*
X153623811Y-116848069D01*
X153172086Y-116389109D01*
X152720361Y-115930148D01*
X152720032Y-115719529D01*
X152719703Y-115508911D01*
X152444610Y-115508911D01*
X152437522Y-115455470D01*
X152434838Y-115431112D01*
X152430313Y-115385241D01*
X152424191Y-115320595D01*
X152416712Y-115239909D01*
X152408119Y-115145919D01*
X152398654Y-115041363D01*
X152388558Y-114928975D01*
X152378074Y-114811493D01*
X152367444Y-114691652D01*
X152356909Y-114572189D01*
X152346713Y-114455841D01*
X152337095Y-114345343D01*
X152328300Y-114243431D01*
X152320568Y-114152842D01*
X152314142Y-114076313D01*
X152309263Y-114016579D01*
X152306175Y-113976376D01*
X152305117Y-113958441D01*
X152305118Y-113958356D01*
X152312827Y-113943965D01*
X152335981Y-113914252D01*
X152374895Y-113868869D01*
X152429884Y-113807471D01*
X152501264Y-113729712D01*
X152589349Y-113635246D01*
X152694454Y-113523728D01*
X152816895Y-113394812D01*
X152851310Y-113358713D01*
X153397137Y-112786584D01*
X153308881Y-112698564D01*
X153237485Y-112776242D01*
X153211366Y-112804314D01*
X153170566Y-112847726D01*
X153117777Y-112903634D01*
X153055691Y-112969192D01*
X152987000Y-113041559D01*
X152914396Y-113117888D01*
X152870960Y-113163476D01*
X152789416Y-113248881D01*
X152723504Y-113317290D01*
X152671544Y-113369947D01*
X152631855Y-113408095D01*
X152602757Y-113432980D01*
X152582569Y-113445844D01*
X152569610Y-113447932D01*
X152562200Y-113440487D01*
X152558658Y-113424754D01*
X152557303Y-113401977D01*
X152557121Y-113395761D01*
X152547703Y-113352939D01*
X152524497Y-113301181D01*
X152492136Y-113248672D01*
X152455252Y-113203597D01*
X152440493Y-113189672D01*
X152364767Y-113140953D01*
X152276308Y-113113694D01*
X152198100Y-113107227D01*
X152109468Y-113119424D01*
X152027612Y-113155187D01*
X151955164Y-113213278D01*
X151941797Y-113227738D01*
X151892918Y-113283267D01*
X151047326Y-113283267D01*
X151047326Y-113107227D01*
X150820990Y-113107227D01*
X150820990Y-113189469D01*
X150818150Y-113245614D01*
X150808607Y-113284584D01*
X150797009Y-113305781D01*
X150788723Y-113320948D01*
X150781627Y-113342938D01*
X150775252Y-113375013D01*
X150769128Y-113420431D01*
X150762784Y-113482452D01*
X150755750Y-113564338D01*
X150750934Y-113625254D01*
X150728839Y-113910657D01*
X150186435Y-113361195D01*
X150088363Y-113261772D01*
X149994216Y-113166185D01*
X149905715Y-113076190D01*
X149824580Y-112993543D01*
X149752531Y-112919999D01*
X149691288Y-112857316D01*
X149642573Y-112807248D01*
X149608104Y-112771552D01*
X149589621Y-112752005D01*
X149559257Y-112721056D01*
X149533929Y-112699470D01*
X149520305Y-112692277D01*
X149502905Y-112700703D01*
X149477540Y-112721755D01*
X149468942Y-112730329D01*
X149432486Y-112768380D01*
X149633198Y-112972342D01*
X149684404Y-113024301D01*
X149750431Y-113091180D01*
X149828382Y-113170050D01*
X149915362Y-113257986D01*
X150008474Y-113352059D01*
X150104821Y-113449342D01*
X150201508Y-113546907D01*
X150270866Y-113616855D01*
X150376297Y-113723450D01*
X150464871Y-113813693D01*
X150537719Y-113888808D01*
X150595977Y-113950014D01*
X150640775Y-113998534D01*
X150662979Y-114023871D01*
X150841276Y-114023871D01*
X150863599Y-113738445D01*
X150870331Y-113654781D01*
X150876843Y-113578273D01*
X150882766Y-113512919D01*
X150887732Y-113462719D01*
X150891371Y-113431671D01*
X150892542Y-113424727D01*
X150899162Y-113396435D01*
X151848636Y-113396435D01*
X151854974Y-113475394D01*
X151874110Y-113568685D01*
X151914154Y-113651209D01*
X151972582Y-113719962D01*
X152046871Y-113771937D01*
X152130252Y-113803137D01*
X152157302Y-113817772D01*
X152170844Y-113849181D01*
X152171128Y-113850566D01*
X152172753Y-113863826D01*
X152170744Y-113877405D01*
X152163142Y-113893819D01*
X152147984Y-113915589D01*
X152123312Y-113945233D01*
X152087164Y-113985268D01*
X152037580Y-114038215D01*
X151972599Y-114106591D01*
X151968401Y-114110995D01*
X151898507Y-114184389D01*
X151824200Y-114262563D01*
X151750586Y-114340136D01*
X151682771Y-114411725D01*
X151625860Y-114471949D01*
X151613168Y-114485413D01*
X151564513Y-114536180D01*
X151521291Y-114579625D01*
X151486605Y-114612759D01*
X151463556Y-114632595D01*
X151455818Y-114636954D01*
X151444278Y-114627830D01*
X151417290Y-114602800D01*
X151376979Y-114563948D01*
X151325471Y-114513357D01*
X151264891Y-114453112D01*
X151197364Y-114385296D01*
X151142174Y-114329435D01*
X150841276Y-114023871D01*
X150662979Y-114023871D01*
X150673249Y-114035589D01*
X150694529Y-114062401D01*
X150705749Y-114080192D01*
X150708246Y-114088430D01*
X150707300Y-114106410D01*
X150704427Y-114147108D01*
X150699813Y-114208181D01*
X150693642Y-114287287D01*
X150686102Y-114382086D01*
X150677379Y-114490233D01*
X150667657Y-114609388D01*
X150657124Y-114737209D01*
X150648635Y-114839365D01*
X150600604Y-115415326D01*
X150724195Y-115415326D01*
X150724727Y-115402896D01*
X150727231Y-115367890D01*
X150731504Y-115312785D01*
X150737347Y-115240057D01*
X150744557Y-115152186D01*
X150752934Y-115051649D01*
X150762277Y-114940923D01*
X150771242Y-114835795D01*
X150781398Y-114716517D01*
X150790858Y-114603920D01*
X150799404Y-114500695D01*
X150806821Y-114409527D01*
X150812892Y-114333105D01*
X150817399Y-114274117D01*
X150820127Y-114235251D01*
X150820884Y-114220156D01*
X150822065Y-114210762D01*
X150826744Y-114207034D01*
X150836724Y-114210529D01*
X150853810Y-114222801D01*
X150879804Y-114245406D01*
X150916510Y-114279900D01*
X150965733Y-114327838D01*
X151029274Y-114390776D01*
X151096695Y-114458032D01*
X151372399Y-114733523D01*
X151370467Y-114735594D01*
X151552710Y-114735594D01*
X151561016Y-114724220D01*
X151584267Y-114697437D01*
X151620135Y-114657708D01*
X151666287Y-114607493D01*
X151720394Y-114549254D01*
X151780126Y-114485453D01*
X151843152Y-114418551D01*
X151907142Y-114351010D01*
X151969764Y-114285290D01*
X152028690Y-114223854D01*
X152081588Y-114169163D01*
X152126128Y-114123678D01*
X152159980Y-114089862D01*
X152180812Y-114070174D01*
X152186494Y-114066163D01*
X152188366Y-114079109D01*
X152192254Y-114114866D01*
X152197943Y-114171196D01*
X152205219Y-114245860D01*
X152213869Y-114336620D01*
X152223678Y-114441238D01*
X152234434Y-114557474D01*
X152245921Y-114683092D01*
X152255093Y-114784382D01*
X152266826Y-114915721D01*
X152277665Y-115039448D01*
X152287430Y-115153319D01*
X152295937Y-115255089D01*
X152303005Y-115342513D01*
X152308451Y-115413347D01*
X152312092Y-115465347D01*
X152313747Y-115496268D01*
X152313558Y-115504297D01*
X152303666Y-115497146D01*
X152278476Y-115474159D01*
X152240190Y-115437561D01*
X152191011Y-115389578D01*
X152133139Y-115332434D01*
X152068778Y-115268353D01*
X152000129Y-115199562D01*
X151929395Y-115128284D01*
X151858778Y-115056745D01*
X151790480Y-114987170D01*
X151726704Y-114921783D01*
X151669650Y-114862809D01*
X151621522Y-114812473D01*
X151584522Y-114773001D01*
X151560852Y-114746617D01*
X151552710Y-114735594D01*
X151370467Y-114735594D01*
X151269591Y-114843705D01*
X151217232Y-114899623D01*
X151158465Y-114962052D01*
X151095615Y-115028557D01*
X151031005Y-115096702D01*
X150966958Y-115164052D01*
X150905797Y-115228172D01*
X150849847Y-115286628D01*
X150801430Y-115336982D01*
X150762870Y-115376802D01*
X150736491Y-115403650D01*
X150724616Y-115415092D01*
X150724195Y-115415326D01*
X150600604Y-115415326D01*
X150588599Y-115559274D01*
X149988062Y-116190842D01*
X149387525Y-116822411D01*
X149387966Y-116910685D01*
X149388408Y-116998960D01*
X149485417Y-116895334D01*
X149539709Y-116837537D01*
X149603808Y-116769632D01*
X149675984Y-116693428D01*
X149754508Y-116610731D01*
X149837651Y-116523347D01*
X149923681Y-116433085D01*
X150010870Y-116341750D01*
X150097487Y-116251151D01*
X150181803Y-116163093D01*
X150262088Y-116079385D01*
X150336613Y-116001833D01*
X150403646Y-115932243D01*
X150461459Y-115872424D01*
X150508321Y-115824182D01*
X150542504Y-115789324D01*
X150562276Y-115769657D01*
X150566610Y-115765884D01*
X150566908Y-115779008D01*
X150565269Y-115812611D01*
X150561977Y-115862120D01*
X150557318Y-115922963D01*
X150555318Y-115947268D01*
X150540423Y-116125049D01*
X150657045Y-116125049D01*
X150663066Y-116096757D01*
X150666137Y-116074382D01*
X150670452Y-116032283D01*
X150675512Y-115975822D01*
X150680819Y-115910365D01*
X150682656Y-115886138D01*
X150688073Y-115816579D01*
X150693541Y-115751982D01*
X150698512Y-115698452D01*
X150702439Y-115662090D01*
X150703325Y-115655491D01*
X150706666Y-115641944D01*
X150713899Y-115626086D01*
X150726560Y-115606139D01*
X150746189Y-115580327D01*
X150774322Y-115546871D01*
X150812498Y-115503993D01*
X150862254Y-115449917D01*
X150925129Y-115382864D01*
X151002659Y-115301057D01*
X151081749Y-115218050D01*
X151160436Y-115135906D01*
X151233888Y-115059831D01*
X151300276Y-114991675D01*
X151357773Y-114933288D01*
X151404549Y-114886519D01*
X151438776Y-114853218D01*
X151458627Y-114835233D01*
X151462860Y-114832558D01*
X151473997Y-114842259D01*
X151500029Y-114867559D01*
X151538430Y-114905918D01*
X151586672Y-114954800D01*
X151642230Y-115011666D01*
X151682408Y-115053094D01*
X151892169Y-115270000D01*
X151273663Y-115270000D01*
X151273663Y-115508911D01*
X152028119Y-115508911D01*
X152028119Y-115402458D01*
X152166435Y-115540346D01*
X152264553Y-115638160D01*
X152455643Y-115638160D01*
X152457471Y-115622730D01*
X152466723Y-115614133D01*
X152489050Y-115610387D01*
X152530105Y-115609511D01*
X152537376Y-115609505D01*
X152619109Y-115609505D01*
X152619109Y-115828828D01*
X152537376Y-115747821D01*
X152491270Y-115698572D01*
X152463694Y-115660841D01*
X152455643Y-115638160D01*
X152264553Y-115638160D01*
X152304752Y-115678234D01*
X152304752Y-115801048D01*
X152305137Y-115857550D01*
X152306900Y-115893495D01*
X152310950Y-115913470D01*
X152318199Y-115922063D01*
X152329130Y-115923861D01*
X152341288Y-115926502D01*
X152350273Y-115937088D01*
X152357174Y-115959619D01*
X152363076Y-115998091D01*
X152369065Y-116056502D01*
X152370987Y-116077896D01*
X152375148Y-116125049D01*
X150657045Y-116125049D01*
X150540423Y-116125049D01*
X150380891Y-116125049D01*
X150380891Y-116238218D01*
X150448686Y-116238218D01*
X150488338Y-116239304D01*
X150509884Y-116244546D01*
X150512520Y-116247666D01*
X150651384Y-116247666D01*
X150658692Y-116240538D01*
X150684007Y-116238338D01*
X150701092Y-116238218D01*
X150758119Y-116238218D01*
X150970779Y-116238218D01*
X152385302Y-116238218D01*
X152337458Y-116287214D01*
X152263150Y-116347676D01*
X152171184Y-116394309D01*
X152060002Y-116427751D01*
X151949529Y-116446247D01*
X151877227Y-116454878D01*
X151877227Y-116363960D01*
X151298812Y-116363960D01*
X151298812Y-116467107D01*
X151213935Y-116458504D01*
X151154632Y-116451244D01*
X151091449Y-116441621D01*
X151053614Y-116434748D01*
X150978168Y-116419593D01*
X150974474Y-116328905D01*
X150970779Y-116238218D01*
X150758119Y-116238218D01*
X150758119Y-116288515D01*
X150756456Y-116320024D01*
X150752303Y-116337537D01*
X150750629Y-116338812D01*
X150732013Y-116330746D01*
X150704817Y-116311180D01*
X150677552Y-116287056D01*
X150658733Y-116265318D01*
X150657057Y-116262492D01*
X150651384Y-116247666D01*
X150512520Y-116247666D01*
X150520338Y-116256919D01*
X150524558Y-116270396D01*
X150541781Y-116305373D01*
X150574862Y-116347421D01*
X150618107Y-116390644D01*
X150665826Y-116429146D01*
X150697170Y-116449199D01*
X150732877Y-116471149D01*
X150751181Y-116489589D01*
X150757612Y-116511332D01*
X150758106Y-116524282D01*
X150758106Y-116527425D01*
X151399406Y-116527425D01*
X151399406Y-116464554D01*
X151776633Y-116464554D01*
X151776633Y-116527425D01*
X151399406Y-116527425D01*
X150758106Y-116527425D01*
X150758119Y-116565148D01*
X150863952Y-116565148D01*
X150912645Y-116563971D01*
X150950595Y-116560835D01*
X150971692Y-116556329D01*
X150973977Y-116554505D01*
X150987359Y-116551705D01*
X151019926Y-116552852D01*
X151066084Y-116557607D01*
X151097624Y-116561997D01*
X151154812Y-116570622D01*
X151207114Y-116578409D01*
X151246418Y-116584153D01*
X151257945Y-116585785D01*
X151288063Y-116595112D01*
X151298812Y-116609728D01*
X151302080Y-116615680D01*
X151313770Y-116620222D01*
X151336712Y-116623530D01*
X151373735Y-116625785D01*
X151427668Y-116627166D01*
X151501340Y-116627850D01*
X151588020Y-116628020D01*
X151680529Y-116627923D01*
X151750906Y-116627470D01*
X151802164Y-116626410D01*
X151837320Y-116624497D01*
X151859389Y-116621481D01*
X151871385Y-116617115D01*
X151876324Y-116611151D01*
X151877227Y-116604216D01*
X151884921Y-116582205D01*
X151910121Y-116569679D01*
X151956009Y-116565212D01*
X151964264Y-116565148D01*
X152041973Y-116557132D01*
X152130233Y-116535064D01*
X152221085Y-116501916D01*
X152306570Y-116460661D01*
X152378726Y-116414269D01*
X152388072Y-116406918D01*
X152418533Y-116383002D01*
X152436572Y-116373424D01*
X152449169Y-116376520D01*
X152462100Y-116389296D01*
X152500293Y-116414322D01*
X152549998Y-116423929D01*
X152603524Y-116418933D01*
X152653178Y-116400149D01*
X152691267Y-116368394D01*
X152694025Y-116364703D01*
X152722526Y-116305425D01*
X152727828Y-116244066D01*
X152710518Y-116185573D01*
X152671180Y-116134896D01*
X152666370Y-116130711D01*
X152638440Y-116110833D01*
X152610102Y-116102079D01*
X152570263Y-116101447D01*
X152560311Y-116102008D01*
X152521332Y-116103438D01*
X152501254Y-116100161D01*
X152493985Y-116090272D01*
X152493240Y-116081039D01*
X152491716Y-116054256D01*
X152487935Y-116013975D01*
X152485218Y-115989876D01*
X152481277Y-115951599D01*
X152482916Y-115932004D01*
X152492421Y-115924842D01*
X152509351Y-115923861D01*
X152519392Y-115927099D01*
X152535590Y-115937580D01*
X152559145Y-115956452D01*
X152591257Y-115984865D01*
X152633128Y-116023965D01*
X152685957Y-116074903D01*
X152750945Y-116138827D01*
X152829291Y-116216886D01*
X152922197Y-116310228D01*
X153030863Y-116420002D01*
X153083231Y-116473048D01*
X153625049Y-117022233D01*
X153624430Y-116935152D01*
G37*
X153624430Y-116935152D02*
X153623811Y-116848069D01*
X153172086Y-116389109D01*
X152720361Y-115930148D01*
X152720032Y-115719529D01*
X152719703Y-115508911D01*
X152444610Y-115508911D01*
X152437522Y-115455470D01*
X152434838Y-115431112D01*
X152430313Y-115385241D01*
X152424191Y-115320595D01*
X152416712Y-115239909D01*
X152408119Y-115145919D01*
X152398654Y-115041363D01*
X152388558Y-114928975D01*
X152378074Y-114811493D01*
X152367444Y-114691652D01*
X152356909Y-114572189D01*
X152346713Y-114455841D01*
X152337095Y-114345343D01*
X152328300Y-114243431D01*
X152320568Y-114152842D01*
X152314142Y-114076313D01*
X152309263Y-114016579D01*
X152306175Y-113976376D01*
X152305117Y-113958441D01*
X152305118Y-113958356D01*
X152312827Y-113943965D01*
X152335981Y-113914252D01*
X152374895Y-113868869D01*
X152429884Y-113807471D01*
X152501264Y-113729712D01*
X152589349Y-113635246D01*
X152694454Y-113523728D01*
X152816895Y-113394812D01*
X152851310Y-113358713D01*
X153397137Y-112786584D01*
X153308881Y-112698564D01*
X153237485Y-112776242D01*
X153211366Y-112804314D01*
X153170566Y-112847726D01*
X153117777Y-112903634D01*
X153055691Y-112969192D01*
X152987000Y-113041559D01*
X152914396Y-113117888D01*
X152870960Y-113163476D01*
X152789416Y-113248881D01*
X152723504Y-113317290D01*
X152671544Y-113369947D01*
X152631855Y-113408095D01*
X152602757Y-113432980D01*
X152582569Y-113445844D01*
X152569610Y-113447932D01*
X152562200Y-113440487D01*
X152558658Y-113424754D01*
X152557303Y-113401977D01*
X152557121Y-113395761D01*
X152547703Y-113352939D01*
X152524497Y-113301181D01*
X152492136Y-113248672D01*
X152455252Y-113203597D01*
X152440493Y-113189672D01*
X152364767Y-113140953D01*
X152276308Y-113113694D01*
X152198100Y-113107227D01*
X152109468Y-113119424D01*
X152027612Y-113155187D01*
X151955164Y-113213278D01*
X151941797Y-113227738D01*
X151892918Y-113283267D01*
X151047326Y-113283267D01*
X151047326Y-113107227D01*
X150820990Y-113107227D01*
X150820990Y-113189469D01*
X150818150Y-113245614D01*
X150808607Y-113284584D01*
X150797009Y-113305781D01*
X150788723Y-113320948D01*
X150781627Y-113342938D01*
X150775252Y-113375013D01*
X150769128Y-113420431D01*
X150762784Y-113482452D01*
X150755750Y-113564338D01*
X150750934Y-113625254D01*
X150728839Y-113910657D01*
X150186435Y-113361195D01*
X150088363Y-113261772D01*
X149994216Y-113166185D01*
X149905715Y-113076190D01*
X149824580Y-112993543D01*
X149752531Y-112919999D01*
X149691288Y-112857316D01*
X149642573Y-112807248D01*
X149608104Y-112771552D01*
X149589621Y-112752005D01*
X149559257Y-112721056D01*
X149533929Y-112699470D01*
X149520305Y-112692277D01*
X149502905Y-112700703D01*
X149477540Y-112721755D01*
X149468942Y-112730329D01*
X149432486Y-112768380D01*
X149633198Y-112972342D01*
X149684404Y-113024301D01*
X149750431Y-113091180D01*
X149828382Y-113170050D01*
X149915362Y-113257986D01*
X150008474Y-113352059D01*
X150104821Y-113449342D01*
X150201508Y-113546907D01*
X150270866Y-113616855D01*
X150376297Y-113723450D01*
X150464871Y-113813693D01*
X150537719Y-113888808D01*
X150595977Y-113950014D01*
X150640775Y-113998534D01*
X150662979Y-114023871D01*
X150841276Y-114023871D01*
X150863599Y-113738445D01*
X150870331Y-113654781D01*
X150876843Y-113578273D01*
X150882766Y-113512919D01*
X150887732Y-113462719D01*
X150891371Y-113431671D01*
X150892542Y-113424727D01*
X150899162Y-113396435D01*
X151848636Y-113396435D01*
X151854974Y-113475394D01*
X151874110Y-113568685D01*
X151914154Y-113651209D01*
X151972582Y-113719962D01*
X152046871Y-113771937D01*
X152130252Y-113803137D01*
X152157302Y-113817772D01*
X152170844Y-113849181D01*
X152171128Y-113850566D01*
X152172753Y-113863826D01*
X152170744Y-113877405D01*
X152163142Y-113893819D01*
X152147984Y-113915589D01*
X152123312Y-113945233D01*
X152087164Y-113985268D01*
X152037580Y-114038215D01*
X151972599Y-114106591D01*
X151968401Y-114110995D01*
X151898507Y-114184389D01*
X151824200Y-114262563D01*
X151750586Y-114340136D01*
X151682771Y-114411725D01*
X151625860Y-114471949D01*
X151613168Y-114485413D01*
X151564513Y-114536180D01*
X151521291Y-114579625D01*
X151486605Y-114612759D01*
X151463556Y-114632595D01*
X151455818Y-114636954D01*
X151444278Y-114627830D01*
X151417290Y-114602800D01*
X151376979Y-114563948D01*
X151325471Y-114513357D01*
X151264891Y-114453112D01*
X151197364Y-114385296D01*
X151142174Y-114329435D01*
X150841276Y-114023871D01*
X150662979Y-114023871D01*
X150673249Y-114035589D01*
X150694529Y-114062401D01*
X150705749Y-114080192D01*
X150708246Y-114088430D01*
X150707300Y-114106410D01*
X150704427Y-114147108D01*
X150699813Y-114208181D01*
X150693642Y-114287287D01*
X150686102Y-114382086D01*
X150677379Y-114490233D01*
X150667657Y-114609388D01*
X150657124Y-114737209D01*
X150648635Y-114839365D01*
X150600604Y-115415326D01*
X150724195Y-115415326D01*
X150724727Y-115402896D01*
X150727231Y-115367890D01*
X150731504Y-115312785D01*
X150737347Y-115240057D01*
X150744557Y-115152186D01*
X150752934Y-115051649D01*
X150762277Y-114940923D01*
X150771242Y-114835795D01*
X150781398Y-114716517D01*
X150790858Y-114603920D01*
X150799404Y-114500695D01*
X150806821Y-114409527D01*
X150812892Y-114333105D01*
X150817399Y-114274117D01*
X150820127Y-114235251D01*
X150820884Y-114220156D01*
X150822065Y-114210762D01*
X150826744Y-114207034D01*
X150836724Y-114210529D01*
X150853810Y-114222801D01*
X150879804Y-114245406D01*
X150916510Y-114279900D01*
X150965733Y-114327838D01*
X151029274Y-114390776D01*
X151096695Y-114458032D01*
X151372399Y-114733523D01*
X151370467Y-114735594D01*
X151552710Y-114735594D01*
X151561016Y-114724220D01*
X151584267Y-114697437D01*
X151620135Y-114657708D01*
X151666287Y-114607493D01*
X151720394Y-114549254D01*
X151780126Y-114485453D01*
X151843152Y-114418551D01*
X151907142Y-114351010D01*
X151969764Y-114285290D01*
X152028690Y-114223854D01*
X152081588Y-114169163D01*
X152126128Y-114123678D01*
X152159980Y-114089862D01*
X152180812Y-114070174D01*
X152186494Y-114066163D01*
X152188366Y-114079109D01*
X152192254Y-114114866D01*
X152197943Y-114171196D01*
X152205219Y-114245860D01*
X152213869Y-114336620D01*
X152223678Y-114441238D01*
X152234434Y-114557474D01*
X152245921Y-114683092D01*
X152255093Y-114784382D01*
X152266826Y-114915721D01*
X152277665Y-115039448D01*
X152287430Y-115153319D01*
X152295937Y-115255089D01*
X152303005Y-115342513D01*
X152308451Y-115413347D01*
X152312092Y-115465347D01*
X152313747Y-115496268D01*
X152313558Y-115504297D01*
X152303666Y-115497146D01*
X152278476Y-115474159D01*
X152240190Y-115437561D01*
X152191011Y-115389578D01*
X152133139Y-115332434D01*
X152068778Y-115268353D01*
X152000129Y-115199562D01*
X151929395Y-115128284D01*
X151858778Y-115056745D01*
X151790480Y-114987170D01*
X151726704Y-114921783D01*
X151669650Y-114862809D01*
X151621522Y-114812473D01*
X151584522Y-114773001D01*
X151560852Y-114746617D01*
X151552710Y-114735594D01*
X151370467Y-114735594D01*
X151269591Y-114843705D01*
X151217232Y-114899623D01*
X151158465Y-114962052D01*
X151095615Y-115028557D01*
X151031005Y-115096702D01*
X150966958Y-115164052D01*
X150905797Y-115228172D01*
X150849847Y-115286628D01*
X150801430Y-115336982D01*
X150762870Y-115376802D01*
X150736491Y-115403650D01*
X150724616Y-115415092D01*
X150724195Y-115415326D01*
X150600604Y-115415326D01*
X150588599Y-115559274D01*
X149988062Y-116190842D01*
X149387525Y-116822411D01*
X149387966Y-116910685D01*
X149388408Y-116998960D01*
X149485417Y-116895334D01*
X149539709Y-116837537D01*
X149603808Y-116769632D01*
X149675984Y-116693428D01*
X149754508Y-116610731D01*
X149837651Y-116523347D01*
X149923681Y-116433085D01*
X150010870Y-116341750D01*
X150097487Y-116251151D01*
X150181803Y-116163093D01*
X150262088Y-116079385D01*
X150336613Y-116001833D01*
X150403646Y-115932243D01*
X150461459Y-115872424D01*
X150508321Y-115824182D01*
X150542504Y-115789324D01*
X150562276Y-115769657D01*
X150566610Y-115765884D01*
X150566908Y-115779008D01*
X150565269Y-115812611D01*
X150561977Y-115862120D01*
X150557318Y-115922963D01*
X150555318Y-115947268D01*
X150540423Y-116125049D01*
X150657045Y-116125049D01*
X150663066Y-116096757D01*
X150666137Y-116074382D01*
X150670452Y-116032283D01*
X150675512Y-115975822D01*
X150680819Y-115910365D01*
X150682656Y-115886138D01*
X150688073Y-115816579D01*
X150693541Y-115751982D01*
X150698512Y-115698452D01*
X150702439Y-115662090D01*
X150703325Y-115655491D01*
X150706666Y-115641944D01*
X150713899Y-115626086D01*
X150726560Y-115606139D01*
X150746189Y-115580327D01*
X150774322Y-115546871D01*
X150812498Y-115503993D01*
X150862254Y-115449917D01*
X150925129Y-115382864D01*
X151002659Y-115301057D01*
X151081749Y-115218050D01*
X151160436Y-115135906D01*
X151233888Y-115059831D01*
X151300276Y-114991675D01*
X151357773Y-114933288D01*
X151404549Y-114886519D01*
X151438776Y-114853218D01*
X151458627Y-114835233D01*
X151462860Y-114832558D01*
X151473997Y-114842259D01*
X151500029Y-114867559D01*
X151538430Y-114905918D01*
X151586672Y-114954800D01*
X151642230Y-115011666D01*
X151682408Y-115053094D01*
X151892169Y-115270000D01*
X151273663Y-115270000D01*
X151273663Y-115508911D01*
X152028119Y-115508911D01*
X152028119Y-115402458D01*
X152166435Y-115540346D01*
X152264553Y-115638160D01*
X152455643Y-115638160D01*
X152457471Y-115622730D01*
X152466723Y-115614133D01*
X152489050Y-115610387D01*
X152530105Y-115609511D01*
X152537376Y-115609505D01*
X152619109Y-115609505D01*
X152619109Y-115828828D01*
X152537376Y-115747821D01*
X152491270Y-115698572D01*
X152463694Y-115660841D01*
X152455643Y-115638160D01*
X152264553Y-115638160D01*
X152304752Y-115678234D01*
X152304752Y-115801048D01*
X152305137Y-115857550D01*
X152306900Y-115893495D01*
X152310950Y-115913470D01*
X152318199Y-115922063D01*
X152329130Y-115923861D01*
X152341288Y-115926502D01*
X152350273Y-115937088D01*
X152357174Y-115959619D01*
X152363076Y-115998091D01*
X152369065Y-116056502D01*
X152370987Y-116077896D01*
X152375148Y-116125049D01*
X150657045Y-116125049D01*
X150540423Y-116125049D01*
X150380891Y-116125049D01*
X150380891Y-116238218D01*
X150448686Y-116238218D01*
X150488338Y-116239304D01*
X150509884Y-116244546D01*
X150512520Y-116247666D01*
X150651384Y-116247666D01*
X150658692Y-116240538D01*
X150684007Y-116238338D01*
X150701092Y-116238218D01*
X150758119Y-116238218D01*
X150970779Y-116238218D01*
X152385302Y-116238218D01*
X152337458Y-116287214D01*
X152263150Y-116347676D01*
X152171184Y-116394309D01*
X152060002Y-116427751D01*
X151949529Y-116446247D01*
X151877227Y-116454878D01*
X151877227Y-116363960D01*
X151298812Y-116363960D01*
X151298812Y-116467107D01*
X151213935Y-116458504D01*
X151154632Y-116451244D01*
X151091449Y-116441621D01*
X151053614Y-116434748D01*
X150978168Y-116419593D01*
X150974474Y-116328905D01*
X150970779Y-116238218D01*
X150758119Y-116238218D01*
X150758119Y-116288515D01*
X150756456Y-116320024D01*
X150752303Y-116337537D01*
X150750629Y-116338812D01*
X150732013Y-116330746D01*
X150704817Y-116311180D01*
X150677552Y-116287056D01*
X150658733Y-116265318D01*
X150657057Y-116262492D01*
X150651384Y-116247666D01*
X150512520Y-116247666D01*
X150520338Y-116256919D01*
X150524558Y-116270396D01*
X150541781Y-116305373D01*
X150574862Y-116347421D01*
X150618107Y-116390644D01*
X150665826Y-116429146D01*
X150697170Y-116449199D01*
X150732877Y-116471149D01*
X150751181Y-116489589D01*
X150757612Y-116511332D01*
X150758106Y-116524282D01*
X150758106Y-116527425D01*
X151399406Y-116527425D01*
X151399406Y-116464554D01*
X151776633Y-116464554D01*
X151776633Y-116527425D01*
X151399406Y-116527425D01*
X150758106Y-116527425D01*
X150758119Y-116565148D01*
X150863952Y-116565148D01*
X150912645Y-116563971D01*
X150950595Y-116560835D01*
X150971692Y-116556329D01*
X150973977Y-116554505D01*
X150987359Y-116551705D01*
X151019926Y-116552852D01*
X151066084Y-116557607D01*
X151097624Y-116561997D01*
X151154812Y-116570622D01*
X151207114Y-116578409D01*
X151246418Y-116584153D01*
X151257945Y-116585785D01*
X151288063Y-116595112D01*
X151298812Y-116609728D01*
X151302080Y-116615680D01*
X151313770Y-116620222D01*
X151336712Y-116623530D01*
X151373735Y-116625785D01*
X151427668Y-116627166D01*
X151501340Y-116627850D01*
X151588020Y-116628020D01*
X151680529Y-116627923D01*
X151750906Y-116627470D01*
X151802164Y-116626410D01*
X151837320Y-116624497D01*
X151859389Y-116621481D01*
X151871385Y-116617115D01*
X151876324Y-116611151D01*
X151877227Y-116604216D01*
X151884921Y-116582205D01*
X151910121Y-116569679D01*
X151956009Y-116565212D01*
X151964264Y-116565148D01*
X152041973Y-116557132D01*
X152130233Y-116535064D01*
X152221085Y-116501916D01*
X152306570Y-116460661D01*
X152378726Y-116414269D01*
X152388072Y-116406918D01*
X152418533Y-116383002D01*
X152436572Y-116373424D01*
X152449169Y-116376520D01*
X152462100Y-116389296D01*
X152500293Y-116414322D01*
X152549998Y-116423929D01*
X152603524Y-116418933D01*
X152653178Y-116400149D01*
X152691267Y-116368394D01*
X152694025Y-116364703D01*
X152722526Y-116305425D01*
X152727828Y-116244066D01*
X152710518Y-116185573D01*
X152671180Y-116134896D01*
X152666370Y-116130711D01*
X152638440Y-116110833D01*
X152610102Y-116102079D01*
X152570263Y-116101447D01*
X152560311Y-116102008D01*
X152521332Y-116103438D01*
X152501254Y-116100161D01*
X152493985Y-116090272D01*
X152493240Y-116081039D01*
X152491716Y-116054256D01*
X152487935Y-116013975D01*
X152485218Y-115989876D01*
X152481277Y-115951599D01*
X152482916Y-115932004D01*
X152492421Y-115924842D01*
X152509351Y-115923861D01*
X152519392Y-115927099D01*
X152535590Y-115937580D01*
X152559145Y-115956452D01*
X152591257Y-115984865D01*
X152633128Y-116023965D01*
X152685957Y-116074903D01*
X152750945Y-116138827D01*
X152829291Y-116216886D01*
X152922197Y-116310228D01*
X153030863Y-116420002D01*
X153083231Y-116473048D01*
X153625049Y-117022233D01*
X153624430Y-116935152D01*
G36*
X153247822Y-110982178D02*
G01*
X149727029Y-110982178D01*
X149727029Y-111849802D01*
X153247822Y-111849802D01*
X153247822Y-110982178D01*
G37*
X153247822Y-110982178D02*
X149727029Y-110982178D01*
X149727029Y-111849802D01*
X153247822Y-111849802D01*
X153247822Y-110982178D01*
M02*
