G04 #@! TF.GenerationSoftware,KiCad,Pcbnew,(5.1.5-0-10_14)*
G04 #@! TF.CreationDate,2020-08-14T20:47:27-03:00*
G04 #@! TF.ProjectId,UltraCif,556c7472-6143-4696-962e-6b696361645f,rev?*
G04 #@! TF.SameCoordinates,Original*
G04 #@! TF.FileFunction,Copper,L1,Top*
G04 #@! TF.FilePolarity,Positive*
%FSLAX46Y46*%
G04 Gerber Fmt 4.6, Leading zero omitted, Abs format (unit mm)*
G04 Created by KiCad (PCBNEW (5.1.5-0-10_14)) date 2020-08-14 20:47:27*
%MOMM*%
%LPD*%
G04 APERTURE LIST*
%ADD10O,2.000000X2.000000*%
%ADD11R,2.000000X2.000000*%
%ADD12O,1.600000X1.600000*%
%ADD13C,1.600000*%
%ADD14O,1.700000X1.700000*%
%ADD15R,1.700000X1.700000*%
%ADD16R,1.500000X1.500000*%
%ADD17C,1.500000*%
%ADD18C,3.000000*%
%ADD19R,3.000000X3.000000*%
%ADD20C,7.500000*%
%ADD21O,1.905000X2.000000*%
%ADD22R,1.905000X2.000000*%
%ADD23R,1.600000X1.600000*%
%ADD24C,1.800000*%
%ADD25R,1.800000X1.800000*%
%ADD26O,2.200000X2.200000*%
%ADD27R,2.200000X2.200000*%
%ADD28C,2.000000*%
%ADD29C,0.254000*%
G04 APERTURE END LIST*
D10*
X142440000Y-136240000D03*
X142440000Y-121000000D03*
X178000000Y-136240000D03*
X144980000Y-121000000D03*
X175460000Y-136240000D03*
X147520000Y-121000000D03*
X172920000Y-136240000D03*
X150060000Y-121000000D03*
X170380000Y-136240000D03*
X152600000Y-121000000D03*
X167840000Y-136240000D03*
X155140000Y-121000000D03*
X165300000Y-136240000D03*
X157680000Y-121000000D03*
X162760000Y-136240000D03*
X160220000Y-121000000D03*
X160220000Y-136240000D03*
X162760000Y-121000000D03*
X157680000Y-136240000D03*
X165300000Y-121000000D03*
X155140000Y-136240000D03*
X167840000Y-121000000D03*
X152600000Y-136240000D03*
X170380000Y-121000000D03*
X150060000Y-136240000D03*
X172920000Y-121000000D03*
X147520000Y-136240000D03*
X175460000Y-121000000D03*
X144980000Y-136240000D03*
D11*
X178000000Y-121000000D03*
D12*
X158200000Y-161420000D03*
D13*
X158200000Y-153800000D03*
D14*
X141000000Y-167080000D03*
X141000000Y-164540000D03*
D15*
X141000000Y-162000000D03*
D14*
X141000000Y-150380000D03*
X141000000Y-152920000D03*
X141000000Y-155460000D03*
D15*
X141000000Y-158000000D03*
D16*
X212400000Y-147600000D03*
D17*
X212400000Y-142520000D03*
X212400000Y-145060000D03*
D14*
X181380000Y-174000000D03*
X183920000Y-174000000D03*
X186460000Y-174000000D03*
D15*
X189000000Y-174000000D03*
D12*
X187380000Y-132000000D03*
D13*
X195000000Y-132000000D03*
D10*
X178300000Y-168000000D03*
X191000000Y-150220000D03*
X178300000Y-165460000D03*
X191000000Y-152760000D03*
X178300000Y-162920000D03*
X191000000Y-155300000D03*
X178300000Y-160380000D03*
X191000000Y-157840000D03*
X178300000Y-157840000D03*
X191000000Y-160380000D03*
X178300000Y-155300000D03*
X191000000Y-162920000D03*
X178300000Y-152760000D03*
X191000000Y-165460000D03*
X178300000Y-150220000D03*
D11*
X191000000Y-168000000D03*
D14*
X157080000Y-173500000D03*
X154540000Y-173500000D03*
D15*
X152000000Y-173500000D03*
D14*
X141000000Y-140920000D03*
X141000000Y-143460000D03*
D15*
X141000000Y-146000000D03*
D18*
X219000000Y-148420000D03*
D19*
X219000000Y-153500000D03*
D18*
X209330000Y-172750000D03*
D19*
X204250000Y-172750000D03*
D18*
X219000000Y-122920000D03*
D19*
X219000000Y-128000000D03*
D18*
X219000000Y-135420000D03*
D19*
X219000000Y-140500000D03*
D18*
X219000000Y-160920000D03*
D19*
X219000000Y-166000000D03*
D14*
X169620000Y-173500000D03*
X167080000Y-173500000D03*
X164540000Y-173500000D03*
D15*
X162000000Y-173500000D03*
D20*
X141000000Y-174000000D03*
X141000000Y-114000000D03*
X221000000Y-114000000D03*
X221000000Y-174000000D03*
D12*
X154500000Y-161370000D03*
D13*
X154500000Y-153750000D03*
D12*
X151000000Y-161370000D03*
D13*
X151000000Y-153750000D03*
D21*
X206420000Y-132500000D03*
X208960000Y-132500000D03*
D22*
X211500000Y-132500000D03*
D12*
X208120000Y-139400000D03*
D13*
X200500000Y-139400000D03*
D12*
X208120000Y-146500000D03*
D23*
X200500000Y-146500000D03*
D24*
X212400000Y-137460000D03*
D25*
X212400000Y-140000000D03*
D24*
X200000000Y-131960000D03*
D25*
X200000000Y-134500000D03*
D26*
X213000000Y-118840000D03*
D27*
X213000000Y-129000000D03*
D28*
X191500000Y-122000000D03*
D11*
X191500000Y-127000000D03*
D13*
X184000000Y-122000000D03*
X184000000Y-127000000D03*
X199000000Y-122000000D03*
X199000000Y-127000000D03*
D28*
X206000000Y-122000000D03*
D11*
X206000000Y-127000000D03*
D12*
X200480000Y-143100000D03*
D13*
X208100000Y-143100000D03*
D18*
X206500000Y-150500000D03*
X212500000Y-152500000D03*
X212500000Y-164700000D03*
X200500000Y-164700000D03*
X200500000Y-152500000D03*
D29*
G36*
X222768083Y-108731173D02*
G01*
X223511891Y-108934656D01*
X224207905Y-109266638D01*
X224834130Y-109716626D01*
X225370777Y-110270403D01*
X225800871Y-110910451D01*
X226110829Y-111616553D01*
X226292065Y-112371457D01*
X226340000Y-113024207D01*
X226340001Y-174970597D01*
X226268827Y-175768083D01*
X226065344Y-176511890D01*
X225733363Y-177207904D01*
X225283374Y-177834130D01*
X224729597Y-178370777D01*
X224089549Y-178800871D01*
X223383447Y-179110829D01*
X222628543Y-179292065D01*
X221975793Y-179340000D01*
X140029392Y-179340000D01*
X139231917Y-179268827D01*
X138488110Y-179065344D01*
X137792096Y-178733363D01*
X137165870Y-178283374D01*
X136629223Y-177729597D01*
X136199129Y-177089549D01*
X135889171Y-176383447D01*
X135707935Y-175628543D01*
X135660000Y-174975793D01*
X135660000Y-173568115D01*
X136615000Y-173568115D01*
X136615000Y-174431885D01*
X136783513Y-175279057D01*
X137114064Y-176077076D01*
X137593948Y-176795274D01*
X138204726Y-177406052D01*
X138922924Y-177885936D01*
X139720943Y-178216487D01*
X140568115Y-178385000D01*
X141431885Y-178385000D01*
X142279057Y-178216487D01*
X143077076Y-177885936D01*
X143795274Y-177406052D01*
X144406052Y-176795274D01*
X144885936Y-176077076D01*
X145216487Y-175279057D01*
X145385000Y-174431885D01*
X145385000Y-173568115D01*
X145216487Y-172720943D01*
X145187102Y-172650000D01*
X150511928Y-172650000D01*
X150511928Y-174350000D01*
X150524188Y-174474482D01*
X150560498Y-174594180D01*
X150619463Y-174704494D01*
X150698815Y-174801185D01*
X150795506Y-174880537D01*
X150905820Y-174939502D01*
X151025518Y-174975812D01*
X151150000Y-174988072D01*
X152850000Y-174988072D01*
X152974482Y-174975812D01*
X153094180Y-174939502D01*
X153204494Y-174880537D01*
X153301185Y-174801185D01*
X153380537Y-174704494D01*
X153439502Y-174594180D01*
X153461513Y-174521620D01*
X153593368Y-174653475D01*
X153836589Y-174815990D01*
X154106842Y-174927932D01*
X154393740Y-174985000D01*
X154686260Y-174985000D01*
X154973158Y-174927932D01*
X155243411Y-174815990D01*
X155486632Y-174653475D01*
X155693475Y-174446632D01*
X155810000Y-174272240D01*
X155926525Y-174446632D01*
X156133368Y-174653475D01*
X156376589Y-174815990D01*
X156646842Y-174927932D01*
X156933740Y-174985000D01*
X157226260Y-174985000D01*
X157513158Y-174927932D01*
X157783411Y-174815990D01*
X158026632Y-174653475D01*
X158233475Y-174446632D01*
X158395990Y-174203411D01*
X158507932Y-173933158D01*
X158565000Y-173646260D01*
X158565000Y-173353740D01*
X158507932Y-173066842D01*
X158395990Y-172796589D01*
X158298043Y-172650000D01*
X160511928Y-172650000D01*
X160511928Y-174350000D01*
X160524188Y-174474482D01*
X160560498Y-174594180D01*
X160619463Y-174704494D01*
X160698815Y-174801185D01*
X160795506Y-174880537D01*
X160905820Y-174939502D01*
X161025518Y-174975812D01*
X161150000Y-174988072D01*
X162850000Y-174988072D01*
X162974482Y-174975812D01*
X163094180Y-174939502D01*
X163204494Y-174880537D01*
X163301185Y-174801185D01*
X163380537Y-174704494D01*
X163439502Y-174594180D01*
X163461513Y-174521620D01*
X163593368Y-174653475D01*
X163836589Y-174815990D01*
X164106842Y-174927932D01*
X164393740Y-174985000D01*
X164686260Y-174985000D01*
X164973158Y-174927932D01*
X165243411Y-174815990D01*
X165486632Y-174653475D01*
X165693475Y-174446632D01*
X165810000Y-174272240D01*
X165926525Y-174446632D01*
X166133368Y-174653475D01*
X166376589Y-174815990D01*
X166646842Y-174927932D01*
X166933740Y-174985000D01*
X167226260Y-174985000D01*
X167513158Y-174927932D01*
X167783411Y-174815990D01*
X168026632Y-174653475D01*
X168233475Y-174446632D01*
X168350000Y-174272240D01*
X168466525Y-174446632D01*
X168673368Y-174653475D01*
X168916589Y-174815990D01*
X169186842Y-174927932D01*
X169473740Y-174985000D01*
X169766260Y-174985000D01*
X170053158Y-174927932D01*
X170323411Y-174815990D01*
X170566632Y-174653475D01*
X170773475Y-174446632D01*
X170935990Y-174203411D01*
X171047932Y-173933158D01*
X171063729Y-173853740D01*
X179895000Y-173853740D01*
X179895000Y-174146260D01*
X179952068Y-174433158D01*
X180064010Y-174703411D01*
X180226525Y-174946632D01*
X180433368Y-175153475D01*
X180676589Y-175315990D01*
X180946842Y-175427932D01*
X181233740Y-175485000D01*
X181526260Y-175485000D01*
X181813158Y-175427932D01*
X182083411Y-175315990D01*
X182326632Y-175153475D01*
X182533475Y-174946632D01*
X182650000Y-174772240D01*
X182766525Y-174946632D01*
X182973368Y-175153475D01*
X183216589Y-175315990D01*
X183486842Y-175427932D01*
X183773740Y-175485000D01*
X184066260Y-175485000D01*
X184353158Y-175427932D01*
X184623411Y-175315990D01*
X184866632Y-175153475D01*
X185073475Y-174946632D01*
X185190000Y-174772240D01*
X185306525Y-174946632D01*
X185513368Y-175153475D01*
X185756589Y-175315990D01*
X186026842Y-175427932D01*
X186313740Y-175485000D01*
X186606260Y-175485000D01*
X186893158Y-175427932D01*
X187163411Y-175315990D01*
X187406632Y-175153475D01*
X187538487Y-175021620D01*
X187560498Y-175094180D01*
X187619463Y-175204494D01*
X187698815Y-175301185D01*
X187795506Y-175380537D01*
X187905820Y-175439502D01*
X188025518Y-175475812D01*
X188150000Y-175488072D01*
X189850000Y-175488072D01*
X189974482Y-175475812D01*
X190094180Y-175439502D01*
X190204494Y-175380537D01*
X190301185Y-175301185D01*
X190380537Y-175204494D01*
X190439502Y-175094180D01*
X190475812Y-174974482D01*
X190488072Y-174850000D01*
X190488072Y-173150000D01*
X190475812Y-173025518D01*
X190439502Y-172905820D01*
X190380537Y-172795506D01*
X190301185Y-172698815D01*
X190204494Y-172619463D01*
X190094180Y-172560498D01*
X189974482Y-172524188D01*
X189850000Y-172511928D01*
X188150000Y-172511928D01*
X188025518Y-172524188D01*
X187905820Y-172560498D01*
X187795506Y-172619463D01*
X187698815Y-172698815D01*
X187619463Y-172795506D01*
X187560498Y-172905820D01*
X187538487Y-172978380D01*
X187406632Y-172846525D01*
X187163411Y-172684010D01*
X186893158Y-172572068D01*
X186606260Y-172515000D01*
X186313740Y-172515000D01*
X186026842Y-172572068D01*
X185756589Y-172684010D01*
X185513368Y-172846525D01*
X185306525Y-173053368D01*
X185190000Y-173227760D01*
X185073475Y-173053368D01*
X184866632Y-172846525D01*
X184623411Y-172684010D01*
X184353158Y-172572068D01*
X184066260Y-172515000D01*
X183773740Y-172515000D01*
X183486842Y-172572068D01*
X183216589Y-172684010D01*
X182973368Y-172846525D01*
X182766525Y-173053368D01*
X182650000Y-173227760D01*
X182533475Y-173053368D01*
X182326632Y-172846525D01*
X182083411Y-172684010D01*
X181813158Y-172572068D01*
X181526260Y-172515000D01*
X181233740Y-172515000D01*
X180946842Y-172572068D01*
X180676589Y-172684010D01*
X180433368Y-172846525D01*
X180226525Y-173053368D01*
X180064010Y-173296589D01*
X179952068Y-173566842D01*
X179895000Y-173853740D01*
X171063729Y-173853740D01*
X171105000Y-173646260D01*
X171105000Y-173353740D01*
X171047932Y-173066842D01*
X170935990Y-172796589D01*
X170773475Y-172553368D01*
X170566632Y-172346525D01*
X170323411Y-172184010D01*
X170053158Y-172072068D01*
X169766260Y-172015000D01*
X169473740Y-172015000D01*
X169186842Y-172072068D01*
X168916589Y-172184010D01*
X168673368Y-172346525D01*
X168466525Y-172553368D01*
X168350000Y-172727760D01*
X168233475Y-172553368D01*
X168026632Y-172346525D01*
X167783411Y-172184010D01*
X167513158Y-172072068D01*
X167226260Y-172015000D01*
X166933740Y-172015000D01*
X166646842Y-172072068D01*
X166376589Y-172184010D01*
X166133368Y-172346525D01*
X165926525Y-172553368D01*
X165810000Y-172727760D01*
X165693475Y-172553368D01*
X165486632Y-172346525D01*
X165243411Y-172184010D01*
X164973158Y-172072068D01*
X164686260Y-172015000D01*
X164393740Y-172015000D01*
X164106842Y-172072068D01*
X163836589Y-172184010D01*
X163593368Y-172346525D01*
X163461513Y-172478380D01*
X163439502Y-172405820D01*
X163380537Y-172295506D01*
X163301185Y-172198815D01*
X163204494Y-172119463D01*
X163094180Y-172060498D01*
X162974482Y-172024188D01*
X162850000Y-172011928D01*
X161150000Y-172011928D01*
X161025518Y-172024188D01*
X160905820Y-172060498D01*
X160795506Y-172119463D01*
X160698815Y-172198815D01*
X160619463Y-172295506D01*
X160560498Y-172405820D01*
X160524188Y-172525518D01*
X160511928Y-172650000D01*
X158298043Y-172650000D01*
X158233475Y-172553368D01*
X158026632Y-172346525D01*
X157783411Y-172184010D01*
X157513158Y-172072068D01*
X157226260Y-172015000D01*
X156933740Y-172015000D01*
X156646842Y-172072068D01*
X156376589Y-172184010D01*
X156133368Y-172346525D01*
X155926525Y-172553368D01*
X155810000Y-172727760D01*
X155693475Y-172553368D01*
X155486632Y-172346525D01*
X155243411Y-172184010D01*
X154973158Y-172072068D01*
X154686260Y-172015000D01*
X154393740Y-172015000D01*
X154106842Y-172072068D01*
X153836589Y-172184010D01*
X153593368Y-172346525D01*
X153461513Y-172478380D01*
X153439502Y-172405820D01*
X153380537Y-172295506D01*
X153301185Y-172198815D01*
X153204494Y-172119463D01*
X153094180Y-172060498D01*
X152974482Y-172024188D01*
X152850000Y-172011928D01*
X151150000Y-172011928D01*
X151025518Y-172024188D01*
X150905820Y-172060498D01*
X150795506Y-172119463D01*
X150698815Y-172198815D01*
X150619463Y-172295506D01*
X150560498Y-172405820D01*
X150524188Y-172525518D01*
X150511928Y-172650000D01*
X145187102Y-172650000D01*
X144885936Y-171922924D01*
X144436304Y-171250000D01*
X202111928Y-171250000D01*
X202111928Y-174250000D01*
X202124188Y-174374482D01*
X202160498Y-174494180D01*
X202219463Y-174604494D01*
X202298815Y-174701185D01*
X202395506Y-174780537D01*
X202505820Y-174839502D01*
X202625518Y-174875812D01*
X202750000Y-174888072D01*
X205750000Y-174888072D01*
X205874482Y-174875812D01*
X205994180Y-174839502D01*
X206104494Y-174780537D01*
X206201185Y-174701185D01*
X206280537Y-174604494D01*
X206339502Y-174494180D01*
X206375812Y-174374482D01*
X206388072Y-174250000D01*
X206388072Y-172539721D01*
X207195000Y-172539721D01*
X207195000Y-172960279D01*
X207277047Y-173372756D01*
X207437988Y-173761302D01*
X207671637Y-174110983D01*
X207969017Y-174408363D01*
X208318698Y-174642012D01*
X208707244Y-174802953D01*
X209119721Y-174885000D01*
X209540279Y-174885000D01*
X209952756Y-174802953D01*
X210341302Y-174642012D01*
X210690983Y-174408363D01*
X210988363Y-174110983D01*
X211222012Y-173761302D01*
X211302032Y-173568115D01*
X216615000Y-173568115D01*
X216615000Y-174431885D01*
X216783513Y-175279057D01*
X217114064Y-176077076D01*
X217593948Y-176795274D01*
X218204726Y-177406052D01*
X218922924Y-177885936D01*
X219720943Y-178216487D01*
X220568115Y-178385000D01*
X221431885Y-178385000D01*
X222279057Y-178216487D01*
X223077076Y-177885936D01*
X223795274Y-177406052D01*
X224406052Y-176795274D01*
X224885936Y-176077076D01*
X225216487Y-175279057D01*
X225385000Y-174431885D01*
X225385000Y-173568115D01*
X225216487Y-172720943D01*
X224885936Y-171922924D01*
X224406052Y-171204726D01*
X223795274Y-170593948D01*
X223077076Y-170114064D01*
X222279057Y-169783513D01*
X221431885Y-169615000D01*
X220568115Y-169615000D01*
X219720943Y-169783513D01*
X218922924Y-170114064D01*
X218204726Y-170593948D01*
X217593948Y-171204726D01*
X217114064Y-171922924D01*
X216783513Y-172720943D01*
X216615000Y-173568115D01*
X211302032Y-173568115D01*
X211382953Y-173372756D01*
X211465000Y-172960279D01*
X211465000Y-172539721D01*
X211382953Y-172127244D01*
X211222012Y-171738698D01*
X210988363Y-171389017D01*
X210690983Y-171091637D01*
X210341302Y-170857988D01*
X209952756Y-170697047D01*
X209540279Y-170615000D01*
X209119721Y-170615000D01*
X208707244Y-170697047D01*
X208318698Y-170857988D01*
X207969017Y-171091637D01*
X207671637Y-171389017D01*
X207437988Y-171738698D01*
X207277047Y-172127244D01*
X207195000Y-172539721D01*
X206388072Y-172539721D01*
X206388072Y-171250000D01*
X206375812Y-171125518D01*
X206339502Y-171005820D01*
X206280537Y-170895506D01*
X206201185Y-170798815D01*
X206104494Y-170719463D01*
X205994180Y-170660498D01*
X205874482Y-170624188D01*
X205750000Y-170611928D01*
X202750000Y-170611928D01*
X202625518Y-170624188D01*
X202505820Y-170660498D01*
X202395506Y-170719463D01*
X202298815Y-170798815D01*
X202219463Y-170895506D01*
X202160498Y-171005820D01*
X202124188Y-171125518D01*
X202111928Y-171250000D01*
X144436304Y-171250000D01*
X144406052Y-171204726D01*
X143795274Y-170593948D01*
X143077076Y-170114064D01*
X142279057Y-169783513D01*
X141431885Y-169615000D01*
X140568115Y-169615000D01*
X139720943Y-169783513D01*
X138922924Y-170114064D01*
X138204726Y-170593948D01*
X137593948Y-171204726D01*
X137114064Y-171922924D01*
X136783513Y-172720943D01*
X136615000Y-173568115D01*
X135660000Y-173568115D01*
X135660000Y-161150000D01*
X139511928Y-161150000D01*
X139511928Y-162850000D01*
X139524188Y-162974482D01*
X139560498Y-163094180D01*
X139619463Y-163204494D01*
X139698815Y-163301185D01*
X139795506Y-163380537D01*
X139905820Y-163439502D01*
X139978380Y-163461513D01*
X139846525Y-163593368D01*
X139684010Y-163836589D01*
X139572068Y-164106842D01*
X139515000Y-164393740D01*
X139515000Y-164686260D01*
X139572068Y-164973158D01*
X139684010Y-165243411D01*
X139846525Y-165486632D01*
X140053368Y-165693475D01*
X140227760Y-165810000D01*
X140053368Y-165926525D01*
X139846525Y-166133368D01*
X139684010Y-166376589D01*
X139572068Y-166646842D01*
X139515000Y-166933740D01*
X139515000Y-167226260D01*
X139572068Y-167513158D01*
X139684010Y-167783411D01*
X139846525Y-168026632D01*
X140053368Y-168233475D01*
X140296589Y-168395990D01*
X140566842Y-168507932D01*
X140853740Y-168565000D01*
X141146260Y-168565000D01*
X141433158Y-168507932D01*
X141703411Y-168395990D01*
X141946632Y-168233475D01*
X142153475Y-168026632D01*
X142315990Y-167783411D01*
X142427932Y-167513158D01*
X142485000Y-167226260D01*
X142485000Y-166933740D01*
X142427932Y-166646842D01*
X142315990Y-166376589D01*
X142153475Y-166133368D01*
X141946632Y-165926525D01*
X141772240Y-165810000D01*
X141946632Y-165693475D01*
X142153475Y-165486632D01*
X142315990Y-165243411D01*
X142427932Y-164973158D01*
X142485000Y-164686260D01*
X142485000Y-164393740D01*
X142427932Y-164106842D01*
X142315990Y-163836589D01*
X142153475Y-163593368D01*
X142021620Y-163461513D01*
X142094180Y-163439502D01*
X142204494Y-163380537D01*
X142301185Y-163301185D01*
X142380537Y-163204494D01*
X142439502Y-163094180D01*
X142475812Y-162974482D01*
X142488072Y-162850000D01*
X142488072Y-161228665D01*
X149565000Y-161228665D01*
X149565000Y-161511335D01*
X149620147Y-161788574D01*
X149728320Y-162049727D01*
X149885363Y-162284759D01*
X150085241Y-162484637D01*
X150320273Y-162641680D01*
X150581426Y-162749853D01*
X150858665Y-162805000D01*
X151141335Y-162805000D01*
X151418574Y-162749853D01*
X151679727Y-162641680D01*
X151914759Y-162484637D01*
X152114637Y-162284759D01*
X152271680Y-162049727D01*
X152379853Y-161788574D01*
X152435000Y-161511335D01*
X152435000Y-161228665D01*
X153065000Y-161228665D01*
X153065000Y-161511335D01*
X153120147Y-161788574D01*
X153228320Y-162049727D01*
X153385363Y-162284759D01*
X153585241Y-162484637D01*
X153820273Y-162641680D01*
X154081426Y-162749853D01*
X154358665Y-162805000D01*
X154641335Y-162805000D01*
X154918574Y-162749853D01*
X155179727Y-162641680D01*
X155414759Y-162484637D01*
X155614637Y-162284759D01*
X155771680Y-162049727D01*
X155879853Y-161788574D01*
X155935000Y-161511335D01*
X155935000Y-161278665D01*
X156765000Y-161278665D01*
X156765000Y-161561335D01*
X156820147Y-161838574D01*
X156928320Y-162099727D01*
X157085363Y-162334759D01*
X157285241Y-162534637D01*
X157520273Y-162691680D01*
X157781426Y-162799853D01*
X158058665Y-162855000D01*
X158341335Y-162855000D01*
X158618574Y-162799853D01*
X158879727Y-162691680D01*
X159114759Y-162534637D01*
X159314637Y-162334759D01*
X159471680Y-162099727D01*
X159579853Y-161838574D01*
X159635000Y-161561335D01*
X159635000Y-161278665D01*
X159579853Y-161001426D01*
X159471680Y-160740273D01*
X159314637Y-160505241D01*
X159114759Y-160305363D01*
X158879727Y-160148320D01*
X158618574Y-160040147D01*
X158341335Y-159985000D01*
X158058665Y-159985000D01*
X157781426Y-160040147D01*
X157520273Y-160148320D01*
X157285241Y-160305363D01*
X157085363Y-160505241D01*
X156928320Y-160740273D01*
X156820147Y-161001426D01*
X156765000Y-161278665D01*
X155935000Y-161278665D01*
X155935000Y-161228665D01*
X155879853Y-160951426D01*
X155771680Y-160690273D01*
X155614637Y-160455241D01*
X155414759Y-160255363D01*
X155179727Y-160098320D01*
X154918574Y-159990147D01*
X154641335Y-159935000D01*
X154358665Y-159935000D01*
X154081426Y-159990147D01*
X153820273Y-160098320D01*
X153585241Y-160255363D01*
X153385363Y-160455241D01*
X153228320Y-160690273D01*
X153120147Y-160951426D01*
X153065000Y-161228665D01*
X152435000Y-161228665D01*
X152379853Y-160951426D01*
X152271680Y-160690273D01*
X152114637Y-160455241D01*
X151914759Y-160255363D01*
X151679727Y-160098320D01*
X151418574Y-159990147D01*
X151141335Y-159935000D01*
X150858665Y-159935000D01*
X150581426Y-159990147D01*
X150320273Y-160098320D01*
X150085241Y-160255363D01*
X149885363Y-160455241D01*
X149728320Y-160690273D01*
X149620147Y-160951426D01*
X149565000Y-161228665D01*
X142488072Y-161228665D01*
X142488072Y-161150000D01*
X142475812Y-161025518D01*
X142439502Y-160905820D01*
X142380537Y-160795506D01*
X142301185Y-160698815D01*
X142204494Y-160619463D01*
X142094180Y-160560498D01*
X141974482Y-160524188D01*
X141850000Y-160511928D01*
X140150000Y-160511928D01*
X140025518Y-160524188D01*
X139905820Y-160560498D01*
X139795506Y-160619463D01*
X139698815Y-160698815D01*
X139619463Y-160795506D01*
X139560498Y-160905820D01*
X139524188Y-161025518D01*
X139511928Y-161150000D01*
X135660000Y-161150000D01*
X135660000Y-157150000D01*
X139511928Y-157150000D01*
X139511928Y-158850000D01*
X139524188Y-158974482D01*
X139560498Y-159094180D01*
X139619463Y-159204494D01*
X139698815Y-159301185D01*
X139795506Y-159380537D01*
X139905820Y-159439502D01*
X140025518Y-159475812D01*
X140150000Y-159488072D01*
X141850000Y-159488072D01*
X141974482Y-159475812D01*
X142094180Y-159439502D01*
X142204494Y-159380537D01*
X142301185Y-159301185D01*
X142380537Y-159204494D01*
X142439502Y-159094180D01*
X142475812Y-158974482D01*
X142488072Y-158850000D01*
X142488072Y-157150000D01*
X142475812Y-157025518D01*
X142439502Y-156905820D01*
X142380537Y-156795506D01*
X142301185Y-156698815D01*
X142204494Y-156619463D01*
X142094180Y-156560498D01*
X142021620Y-156538487D01*
X142153475Y-156406632D01*
X142315990Y-156163411D01*
X142427932Y-155893158D01*
X142485000Y-155606260D01*
X142485000Y-155313740D01*
X142427932Y-155026842D01*
X142315990Y-154756589D01*
X142153475Y-154513368D01*
X141946632Y-154306525D01*
X141772240Y-154190000D01*
X141946632Y-154073475D01*
X142153475Y-153866632D01*
X142315990Y-153623411D01*
X142322097Y-153608665D01*
X149565000Y-153608665D01*
X149565000Y-153891335D01*
X149620147Y-154168574D01*
X149728320Y-154429727D01*
X149885363Y-154664759D01*
X150085241Y-154864637D01*
X150320273Y-155021680D01*
X150581426Y-155129853D01*
X150858665Y-155185000D01*
X151141335Y-155185000D01*
X151418574Y-155129853D01*
X151679727Y-155021680D01*
X151914759Y-154864637D01*
X152114637Y-154664759D01*
X152271680Y-154429727D01*
X152379853Y-154168574D01*
X152435000Y-153891335D01*
X152435000Y-153608665D01*
X153065000Y-153608665D01*
X153065000Y-153891335D01*
X153120147Y-154168574D01*
X153228320Y-154429727D01*
X153385363Y-154664759D01*
X153585241Y-154864637D01*
X153820273Y-155021680D01*
X154081426Y-155129853D01*
X154358665Y-155185000D01*
X154641335Y-155185000D01*
X154918574Y-155129853D01*
X155179727Y-155021680D01*
X155414759Y-154864637D01*
X155614637Y-154664759D01*
X155771680Y-154429727D01*
X155879853Y-154168574D01*
X155935000Y-153891335D01*
X155935000Y-153658665D01*
X156765000Y-153658665D01*
X156765000Y-153941335D01*
X156820147Y-154218574D01*
X156928320Y-154479727D01*
X157085363Y-154714759D01*
X157285241Y-154914637D01*
X157520273Y-155071680D01*
X157781426Y-155179853D01*
X158058665Y-155235000D01*
X158341335Y-155235000D01*
X158618574Y-155179853D01*
X158879727Y-155071680D01*
X159114759Y-154914637D01*
X159314637Y-154714759D01*
X159471680Y-154479727D01*
X159579853Y-154218574D01*
X159635000Y-153941335D01*
X159635000Y-153658665D01*
X159579853Y-153381426D01*
X159471680Y-153120273D01*
X159314637Y-152885241D01*
X159114759Y-152685363D01*
X158879727Y-152528320D01*
X158618574Y-152420147D01*
X158341335Y-152365000D01*
X158058665Y-152365000D01*
X157781426Y-152420147D01*
X157520273Y-152528320D01*
X157285241Y-152685363D01*
X157085363Y-152885241D01*
X156928320Y-153120273D01*
X156820147Y-153381426D01*
X156765000Y-153658665D01*
X155935000Y-153658665D01*
X155935000Y-153608665D01*
X155879853Y-153331426D01*
X155771680Y-153070273D01*
X155614637Y-152835241D01*
X155414759Y-152635363D01*
X155179727Y-152478320D01*
X154918574Y-152370147D01*
X154641335Y-152315000D01*
X154358665Y-152315000D01*
X154081426Y-152370147D01*
X153820273Y-152478320D01*
X153585241Y-152635363D01*
X153385363Y-152835241D01*
X153228320Y-153070273D01*
X153120147Y-153331426D01*
X153065000Y-153608665D01*
X152435000Y-153608665D01*
X152379853Y-153331426D01*
X152271680Y-153070273D01*
X152114637Y-152835241D01*
X151914759Y-152635363D01*
X151679727Y-152478320D01*
X151418574Y-152370147D01*
X151141335Y-152315000D01*
X150858665Y-152315000D01*
X150581426Y-152370147D01*
X150320273Y-152478320D01*
X150085241Y-152635363D01*
X149885363Y-152835241D01*
X149728320Y-153070273D01*
X149620147Y-153331426D01*
X149565000Y-153608665D01*
X142322097Y-153608665D01*
X142427932Y-153353158D01*
X142485000Y-153066260D01*
X142485000Y-152773740D01*
X142427932Y-152486842D01*
X142315990Y-152216589D01*
X142153475Y-151973368D01*
X141946632Y-151766525D01*
X141772240Y-151650000D01*
X141946632Y-151533475D01*
X142153475Y-151326632D01*
X142315990Y-151083411D01*
X142427932Y-150813158D01*
X142485000Y-150526260D01*
X142485000Y-150233740D01*
X142450236Y-150058967D01*
X176665000Y-150058967D01*
X176665000Y-150381033D01*
X176727832Y-150696912D01*
X176851082Y-150994463D01*
X177030013Y-151262252D01*
X177257748Y-151489987D01*
X177257767Y-151490000D01*
X177257748Y-151490013D01*
X177030013Y-151717748D01*
X176851082Y-151985537D01*
X176727832Y-152283088D01*
X176665000Y-152598967D01*
X176665000Y-152921033D01*
X176727832Y-153236912D01*
X176851082Y-153534463D01*
X177030013Y-153802252D01*
X177257748Y-154029987D01*
X177257767Y-154030000D01*
X177257748Y-154030013D01*
X177030013Y-154257748D01*
X176851082Y-154525537D01*
X176727832Y-154823088D01*
X176665000Y-155138967D01*
X176665000Y-155461033D01*
X176727832Y-155776912D01*
X176851082Y-156074463D01*
X177030013Y-156342252D01*
X177257748Y-156569987D01*
X177257767Y-156570000D01*
X177257748Y-156570013D01*
X177030013Y-156797748D01*
X176851082Y-157065537D01*
X176727832Y-157363088D01*
X176665000Y-157678967D01*
X176665000Y-158001033D01*
X176727832Y-158316912D01*
X176851082Y-158614463D01*
X177030013Y-158882252D01*
X177257748Y-159109987D01*
X177257767Y-159110000D01*
X177257748Y-159110013D01*
X177030013Y-159337748D01*
X176851082Y-159605537D01*
X176727832Y-159903088D01*
X176665000Y-160218967D01*
X176665000Y-160541033D01*
X176727832Y-160856912D01*
X176851082Y-161154463D01*
X177030013Y-161422252D01*
X177257748Y-161649987D01*
X177257767Y-161650000D01*
X177257748Y-161650013D01*
X177030013Y-161877748D01*
X176851082Y-162145537D01*
X176727832Y-162443088D01*
X176665000Y-162758967D01*
X176665000Y-163081033D01*
X176727832Y-163396912D01*
X176851082Y-163694463D01*
X177030013Y-163962252D01*
X177257748Y-164189987D01*
X177257767Y-164190000D01*
X177257748Y-164190013D01*
X177030013Y-164417748D01*
X176851082Y-164685537D01*
X176727832Y-164983088D01*
X176665000Y-165298967D01*
X176665000Y-165621033D01*
X176727832Y-165936912D01*
X176851082Y-166234463D01*
X177030013Y-166502252D01*
X177257748Y-166729987D01*
X177257767Y-166730000D01*
X177257748Y-166730013D01*
X177030013Y-166957748D01*
X176851082Y-167225537D01*
X176727832Y-167523088D01*
X176665000Y-167838967D01*
X176665000Y-168161033D01*
X176727832Y-168476912D01*
X176851082Y-168774463D01*
X177030013Y-169042252D01*
X177257748Y-169269987D01*
X177525537Y-169448918D01*
X177823088Y-169572168D01*
X178138967Y-169635000D01*
X178461033Y-169635000D01*
X178776912Y-169572168D01*
X179074463Y-169448918D01*
X179342252Y-169269987D01*
X179569987Y-169042252D01*
X179748918Y-168774463D01*
X179872168Y-168476912D01*
X179935000Y-168161033D01*
X179935000Y-167838967D01*
X179872168Y-167523088D01*
X179748918Y-167225537D01*
X179598219Y-167000000D01*
X189361928Y-167000000D01*
X189361928Y-169000000D01*
X189374188Y-169124482D01*
X189410498Y-169244180D01*
X189469463Y-169354494D01*
X189548815Y-169451185D01*
X189645506Y-169530537D01*
X189755820Y-169589502D01*
X189875518Y-169625812D01*
X190000000Y-169638072D01*
X192000000Y-169638072D01*
X192124482Y-169625812D01*
X192244180Y-169589502D01*
X192354494Y-169530537D01*
X192451185Y-169451185D01*
X192530537Y-169354494D01*
X192589502Y-169244180D01*
X192625812Y-169124482D01*
X192638072Y-169000000D01*
X192638072Y-167000000D01*
X192625812Y-166875518D01*
X192589502Y-166755820D01*
X192530537Y-166645506D01*
X192451185Y-166548815D01*
X192354494Y-166469463D01*
X192308370Y-166444809D01*
X192448918Y-166234463D01*
X192572168Y-165936912D01*
X192635000Y-165621033D01*
X192635000Y-165298967D01*
X192572168Y-164983088D01*
X192448918Y-164685537D01*
X192318078Y-164489721D01*
X198365000Y-164489721D01*
X198365000Y-164910279D01*
X198447047Y-165322756D01*
X198607988Y-165711302D01*
X198841637Y-166060983D01*
X199139017Y-166358363D01*
X199488698Y-166592012D01*
X199877244Y-166752953D01*
X200289721Y-166835000D01*
X200710279Y-166835000D01*
X201122756Y-166752953D01*
X201511302Y-166592012D01*
X201860983Y-166358363D01*
X202158363Y-166060983D01*
X202392012Y-165711302D01*
X202552953Y-165322756D01*
X202635000Y-164910279D01*
X202635000Y-164489721D01*
X210365000Y-164489721D01*
X210365000Y-164910279D01*
X210447047Y-165322756D01*
X210607988Y-165711302D01*
X210841637Y-166060983D01*
X211139017Y-166358363D01*
X211488698Y-166592012D01*
X211877244Y-166752953D01*
X212289721Y-166835000D01*
X212710279Y-166835000D01*
X213122756Y-166752953D01*
X213511302Y-166592012D01*
X213860983Y-166358363D01*
X214158363Y-166060983D01*
X214392012Y-165711302D01*
X214552953Y-165322756D01*
X214635000Y-164910279D01*
X214635000Y-164500000D01*
X216861928Y-164500000D01*
X216861928Y-167500000D01*
X216874188Y-167624482D01*
X216910498Y-167744180D01*
X216969463Y-167854494D01*
X217048815Y-167951185D01*
X217145506Y-168030537D01*
X217255820Y-168089502D01*
X217375518Y-168125812D01*
X217500000Y-168138072D01*
X220500000Y-168138072D01*
X220624482Y-168125812D01*
X220744180Y-168089502D01*
X220854494Y-168030537D01*
X220951185Y-167951185D01*
X221030537Y-167854494D01*
X221089502Y-167744180D01*
X221125812Y-167624482D01*
X221138072Y-167500000D01*
X221138072Y-164500000D01*
X221125812Y-164375518D01*
X221089502Y-164255820D01*
X221030537Y-164145506D01*
X220951185Y-164048815D01*
X220854494Y-163969463D01*
X220744180Y-163910498D01*
X220624482Y-163874188D01*
X220500000Y-163861928D01*
X217500000Y-163861928D01*
X217375518Y-163874188D01*
X217255820Y-163910498D01*
X217145506Y-163969463D01*
X217048815Y-164048815D01*
X216969463Y-164145506D01*
X216910498Y-164255820D01*
X216874188Y-164375518D01*
X216861928Y-164500000D01*
X214635000Y-164500000D01*
X214635000Y-164489721D01*
X214552953Y-164077244D01*
X214392012Y-163688698D01*
X214158363Y-163339017D01*
X213860983Y-163041637D01*
X213511302Y-162807988D01*
X213122756Y-162647047D01*
X212710279Y-162565000D01*
X212289721Y-162565000D01*
X211877244Y-162647047D01*
X211488698Y-162807988D01*
X211139017Y-163041637D01*
X210841637Y-163339017D01*
X210607988Y-163688698D01*
X210447047Y-164077244D01*
X210365000Y-164489721D01*
X202635000Y-164489721D01*
X202552953Y-164077244D01*
X202392012Y-163688698D01*
X202158363Y-163339017D01*
X201860983Y-163041637D01*
X201511302Y-162807988D01*
X201122756Y-162647047D01*
X200710279Y-162565000D01*
X200289721Y-162565000D01*
X199877244Y-162647047D01*
X199488698Y-162807988D01*
X199139017Y-163041637D01*
X198841637Y-163339017D01*
X198607988Y-163688698D01*
X198447047Y-164077244D01*
X198365000Y-164489721D01*
X192318078Y-164489721D01*
X192269987Y-164417748D01*
X192042252Y-164190013D01*
X192042233Y-164190000D01*
X192042252Y-164189987D01*
X192269987Y-163962252D01*
X192448918Y-163694463D01*
X192572168Y-163396912D01*
X192635000Y-163081033D01*
X192635000Y-162758967D01*
X192572168Y-162443088D01*
X192448918Y-162145537D01*
X192269987Y-161877748D01*
X192042252Y-161650013D01*
X192042233Y-161650000D01*
X192042252Y-161649987D01*
X192269987Y-161422252D01*
X192448918Y-161154463D01*
X192572168Y-160856912D01*
X192601445Y-160709721D01*
X216865000Y-160709721D01*
X216865000Y-161130279D01*
X216947047Y-161542756D01*
X217107988Y-161931302D01*
X217341637Y-162280983D01*
X217639017Y-162578363D01*
X217988698Y-162812012D01*
X218377244Y-162972953D01*
X218789721Y-163055000D01*
X219210279Y-163055000D01*
X219622756Y-162972953D01*
X220011302Y-162812012D01*
X220360983Y-162578363D01*
X220658363Y-162280983D01*
X220892012Y-161931302D01*
X221052953Y-161542756D01*
X221135000Y-161130279D01*
X221135000Y-160709721D01*
X221052953Y-160297244D01*
X220892012Y-159908698D01*
X220658363Y-159559017D01*
X220360983Y-159261637D01*
X220011302Y-159027988D01*
X219622756Y-158867047D01*
X219210279Y-158785000D01*
X218789721Y-158785000D01*
X218377244Y-158867047D01*
X217988698Y-159027988D01*
X217639017Y-159261637D01*
X217341637Y-159559017D01*
X217107988Y-159908698D01*
X216947047Y-160297244D01*
X216865000Y-160709721D01*
X192601445Y-160709721D01*
X192635000Y-160541033D01*
X192635000Y-160218967D01*
X192572168Y-159903088D01*
X192448918Y-159605537D01*
X192269987Y-159337748D01*
X192042252Y-159110013D01*
X192042233Y-159110000D01*
X192042252Y-159109987D01*
X192269987Y-158882252D01*
X192448918Y-158614463D01*
X192572168Y-158316912D01*
X192635000Y-158001033D01*
X192635000Y-157678967D01*
X192572168Y-157363088D01*
X192448918Y-157065537D01*
X192269987Y-156797748D01*
X192042252Y-156570013D01*
X192042233Y-156570000D01*
X192042252Y-156569987D01*
X192269987Y-156342252D01*
X192448918Y-156074463D01*
X192572168Y-155776912D01*
X192635000Y-155461033D01*
X192635000Y-155138967D01*
X192572168Y-154823088D01*
X192448918Y-154525537D01*
X192269987Y-154257748D01*
X192042252Y-154030013D01*
X192042233Y-154030000D01*
X192042252Y-154029987D01*
X192269987Y-153802252D01*
X192448918Y-153534463D01*
X192572168Y-153236912D01*
X192635000Y-152921033D01*
X192635000Y-152598967D01*
X192573488Y-152289721D01*
X198365000Y-152289721D01*
X198365000Y-152710279D01*
X198447047Y-153122756D01*
X198607988Y-153511302D01*
X198841637Y-153860983D01*
X199139017Y-154158363D01*
X199488698Y-154392012D01*
X199877244Y-154552953D01*
X200289721Y-154635000D01*
X200710279Y-154635000D01*
X201122756Y-154552953D01*
X201511302Y-154392012D01*
X201860983Y-154158363D01*
X202158363Y-153860983D01*
X202392012Y-153511302D01*
X202552953Y-153122756D01*
X202635000Y-152710279D01*
X202635000Y-152289721D01*
X202552953Y-151877244D01*
X202392012Y-151488698D01*
X202158363Y-151139017D01*
X201860983Y-150841637D01*
X201511302Y-150607988D01*
X201122756Y-150447047D01*
X200710279Y-150365000D01*
X200289721Y-150365000D01*
X199877244Y-150447047D01*
X199488698Y-150607988D01*
X199139017Y-150841637D01*
X198841637Y-151139017D01*
X198607988Y-151488698D01*
X198447047Y-151877244D01*
X198365000Y-152289721D01*
X192573488Y-152289721D01*
X192572168Y-152283088D01*
X192448918Y-151985537D01*
X192269987Y-151717748D01*
X192042252Y-151490013D01*
X192042233Y-151490000D01*
X192042252Y-151489987D01*
X192269987Y-151262252D01*
X192448918Y-150994463D01*
X192572168Y-150696912D01*
X192635000Y-150381033D01*
X192635000Y-150289721D01*
X204365000Y-150289721D01*
X204365000Y-150710279D01*
X204447047Y-151122756D01*
X204607988Y-151511302D01*
X204841637Y-151860983D01*
X205139017Y-152158363D01*
X205488698Y-152392012D01*
X205877244Y-152552953D01*
X206289721Y-152635000D01*
X206710279Y-152635000D01*
X207122756Y-152552953D01*
X207511302Y-152392012D01*
X207664391Y-152289721D01*
X210365000Y-152289721D01*
X210365000Y-152710279D01*
X210447047Y-153122756D01*
X210607988Y-153511302D01*
X210841637Y-153860983D01*
X211139017Y-154158363D01*
X211488698Y-154392012D01*
X211877244Y-154552953D01*
X212289721Y-154635000D01*
X212710279Y-154635000D01*
X213122756Y-154552953D01*
X213511302Y-154392012D01*
X213860983Y-154158363D01*
X214158363Y-153860983D01*
X214392012Y-153511302D01*
X214552953Y-153122756D01*
X214635000Y-152710279D01*
X214635000Y-152289721D01*
X214577371Y-152000000D01*
X216861928Y-152000000D01*
X216861928Y-155000000D01*
X216874188Y-155124482D01*
X216910498Y-155244180D01*
X216969463Y-155354494D01*
X217048815Y-155451185D01*
X217145506Y-155530537D01*
X217255820Y-155589502D01*
X217375518Y-155625812D01*
X217500000Y-155638072D01*
X220500000Y-155638072D01*
X220624482Y-155625812D01*
X220744180Y-155589502D01*
X220854494Y-155530537D01*
X220951185Y-155451185D01*
X221030537Y-155354494D01*
X221089502Y-155244180D01*
X221125812Y-155124482D01*
X221138072Y-155000000D01*
X221138072Y-152000000D01*
X221125812Y-151875518D01*
X221089502Y-151755820D01*
X221030537Y-151645506D01*
X220951185Y-151548815D01*
X220854494Y-151469463D01*
X220744180Y-151410498D01*
X220624482Y-151374188D01*
X220500000Y-151361928D01*
X217500000Y-151361928D01*
X217375518Y-151374188D01*
X217255820Y-151410498D01*
X217145506Y-151469463D01*
X217048815Y-151548815D01*
X216969463Y-151645506D01*
X216910498Y-151755820D01*
X216874188Y-151875518D01*
X216861928Y-152000000D01*
X214577371Y-152000000D01*
X214552953Y-151877244D01*
X214392012Y-151488698D01*
X214158363Y-151139017D01*
X213860983Y-150841637D01*
X213511302Y-150607988D01*
X213122756Y-150447047D01*
X212710279Y-150365000D01*
X212289721Y-150365000D01*
X211877244Y-150447047D01*
X211488698Y-150607988D01*
X211139017Y-150841637D01*
X210841637Y-151139017D01*
X210607988Y-151488698D01*
X210447047Y-151877244D01*
X210365000Y-152289721D01*
X207664391Y-152289721D01*
X207860983Y-152158363D01*
X208158363Y-151860983D01*
X208392012Y-151511302D01*
X208552953Y-151122756D01*
X208635000Y-150710279D01*
X208635000Y-150289721D01*
X208552953Y-149877244D01*
X208392012Y-149488698D01*
X208158363Y-149139017D01*
X207860983Y-148841637D01*
X207511302Y-148607988D01*
X207122756Y-148447047D01*
X206710279Y-148365000D01*
X206289721Y-148365000D01*
X205877244Y-148447047D01*
X205488698Y-148607988D01*
X205139017Y-148841637D01*
X204841637Y-149139017D01*
X204607988Y-149488698D01*
X204447047Y-149877244D01*
X204365000Y-150289721D01*
X192635000Y-150289721D01*
X192635000Y-150058967D01*
X192572168Y-149743088D01*
X192448918Y-149445537D01*
X192269987Y-149177748D01*
X192042252Y-148950013D01*
X191774463Y-148771082D01*
X191476912Y-148647832D01*
X191161033Y-148585000D01*
X190838967Y-148585000D01*
X190523088Y-148647832D01*
X190225537Y-148771082D01*
X189957748Y-148950013D01*
X189730013Y-149177748D01*
X189551082Y-149445537D01*
X189427832Y-149743088D01*
X189365000Y-150058967D01*
X189365000Y-150381033D01*
X189427832Y-150696912D01*
X189551082Y-150994463D01*
X189730013Y-151262252D01*
X189957748Y-151489987D01*
X189957767Y-151490000D01*
X189957748Y-151490013D01*
X189730013Y-151717748D01*
X189551082Y-151985537D01*
X189427832Y-152283088D01*
X189365000Y-152598967D01*
X189365000Y-152921033D01*
X189427832Y-153236912D01*
X189551082Y-153534463D01*
X189730013Y-153802252D01*
X189957748Y-154029987D01*
X189957767Y-154030000D01*
X189957748Y-154030013D01*
X189730013Y-154257748D01*
X189551082Y-154525537D01*
X189427832Y-154823088D01*
X189365000Y-155138967D01*
X189365000Y-155461033D01*
X189427832Y-155776912D01*
X189551082Y-156074463D01*
X189730013Y-156342252D01*
X189957748Y-156569987D01*
X189957767Y-156570000D01*
X189957748Y-156570013D01*
X189730013Y-156797748D01*
X189551082Y-157065537D01*
X189427832Y-157363088D01*
X189365000Y-157678967D01*
X189365000Y-158001033D01*
X189427832Y-158316912D01*
X189551082Y-158614463D01*
X189730013Y-158882252D01*
X189957748Y-159109987D01*
X189957767Y-159110000D01*
X189957748Y-159110013D01*
X189730013Y-159337748D01*
X189551082Y-159605537D01*
X189427832Y-159903088D01*
X189365000Y-160218967D01*
X189365000Y-160541033D01*
X189427832Y-160856912D01*
X189551082Y-161154463D01*
X189730013Y-161422252D01*
X189957748Y-161649987D01*
X189957767Y-161650000D01*
X189957748Y-161650013D01*
X189730013Y-161877748D01*
X189551082Y-162145537D01*
X189427832Y-162443088D01*
X189365000Y-162758967D01*
X189365000Y-163081033D01*
X189427832Y-163396912D01*
X189551082Y-163694463D01*
X189730013Y-163962252D01*
X189957748Y-164189987D01*
X189957767Y-164190000D01*
X189957748Y-164190013D01*
X189730013Y-164417748D01*
X189551082Y-164685537D01*
X189427832Y-164983088D01*
X189365000Y-165298967D01*
X189365000Y-165621033D01*
X189427832Y-165936912D01*
X189551082Y-166234463D01*
X189691630Y-166444809D01*
X189645506Y-166469463D01*
X189548815Y-166548815D01*
X189469463Y-166645506D01*
X189410498Y-166755820D01*
X189374188Y-166875518D01*
X189361928Y-167000000D01*
X179598219Y-167000000D01*
X179569987Y-166957748D01*
X179342252Y-166730013D01*
X179342233Y-166730000D01*
X179342252Y-166729987D01*
X179569987Y-166502252D01*
X179748918Y-166234463D01*
X179872168Y-165936912D01*
X179935000Y-165621033D01*
X179935000Y-165298967D01*
X179872168Y-164983088D01*
X179748918Y-164685537D01*
X179569987Y-164417748D01*
X179342252Y-164190013D01*
X179342233Y-164190000D01*
X179342252Y-164189987D01*
X179569987Y-163962252D01*
X179748918Y-163694463D01*
X179872168Y-163396912D01*
X179935000Y-163081033D01*
X179935000Y-162758967D01*
X179872168Y-162443088D01*
X179748918Y-162145537D01*
X179569987Y-161877748D01*
X179342252Y-161650013D01*
X179342233Y-161650000D01*
X179342252Y-161649987D01*
X179569987Y-161422252D01*
X179748918Y-161154463D01*
X179872168Y-160856912D01*
X179935000Y-160541033D01*
X179935000Y-160218967D01*
X179872168Y-159903088D01*
X179748918Y-159605537D01*
X179569987Y-159337748D01*
X179342252Y-159110013D01*
X179342233Y-159110000D01*
X179342252Y-159109987D01*
X179569987Y-158882252D01*
X179748918Y-158614463D01*
X179872168Y-158316912D01*
X179935000Y-158001033D01*
X179935000Y-157678967D01*
X179872168Y-157363088D01*
X179748918Y-157065537D01*
X179569987Y-156797748D01*
X179342252Y-156570013D01*
X179342233Y-156570000D01*
X179342252Y-156569987D01*
X179569987Y-156342252D01*
X179748918Y-156074463D01*
X179872168Y-155776912D01*
X179935000Y-155461033D01*
X179935000Y-155138967D01*
X179872168Y-154823088D01*
X179748918Y-154525537D01*
X179569987Y-154257748D01*
X179342252Y-154030013D01*
X179342233Y-154030000D01*
X179342252Y-154029987D01*
X179569987Y-153802252D01*
X179748918Y-153534463D01*
X179872168Y-153236912D01*
X179935000Y-152921033D01*
X179935000Y-152598967D01*
X179872168Y-152283088D01*
X179748918Y-151985537D01*
X179569987Y-151717748D01*
X179342252Y-151490013D01*
X179342233Y-151490000D01*
X179342252Y-151489987D01*
X179569987Y-151262252D01*
X179748918Y-150994463D01*
X179872168Y-150696912D01*
X179935000Y-150381033D01*
X179935000Y-150058967D01*
X179872168Y-149743088D01*
X179748918Y-149445537D01*
X179569987Y-149177748D01*
X179342252Y-148950013D01*
X179074463Y-148771082D01*
X178776912Y-148647832D01*
X178461033Y-148585000D01*
X178138967Y-148585000D01*
X177823088Y-148647832D01*
X177525537Y-148771082D01*
X177257748Y-148950013D01*
X177030013Y-149177748D01*
X176851082Y-149445537D01*
X176727832Y-149743088D01*
X176665000Y-150058967D01*
X142450236Y-150058967D01*
X142427932Y-149946842D01*
X142315990Y-149676589D01*
X142153475Y-149433368D01*
X141946632Y-149226525D01*
X141703411Y-149064010D01*
X141433158Y-148952068D01*
X141146260Y-148895000D01*
X140853740Y-148895000D01*
X140566842Y-148952068D01*
X140296589Y-149064010D01*
X140053368Y-149226525D01*
X139846525Y-149433368D01*
X139684010Y-149676589D01*
X139572068Y-149946842D01*
X139515000Y-150233740D01*
X139515000Y-150526260D01*
X139572068Y-150813158D01*
X139684010Y-151083411D01*
X139846525Y-151326632D01*
X140053368Y-151533475D01*
X140227760Y-151650000D01*
X140053368Y-151766525D01*
X139846525Y-151973368D01*
X139684010Y-152216589D01*
X139572068Y-152486842D01*
X139515000Y-152773740D01*
X139515000Y-153066260D01*
X139572068Y-153353158D01*
X139684010Y-153623411D01*
X139846525Y-153866632D01*
X140053368Y-154073475D01*
X140227760Y-154190000D01*
X140053368Y-154306525D01*
X139846525Y-154513368D01*
X139684010Y-154756589D01*
X139572068Y-155026842D01*
X139515000Y-155313740D01*
X139515000Y-155606260D01*
X139572068Y-155893158D01*
X139684010Y-156163411D01*
X139846525Y-156406632D01*
X139978380Y-156538487D01*
X139905820Y-156560498D01*
X139795506Y-156619463D01*
X139698815Y-156698815D01*
X139619463Y-156795506D01*
X139560498Y-156905820D01*
X139524188Y-157025518D01*
X139511928Y-157150000D01*
X135660000Y-157150000D01*
X135660000Y-145150000D01*
X139511928Y-145150000D01*
X139511928Y-146850000D01*
X139524188Y-146974482D01*
X139560498Y-147094180D01*
X139619463Y-147204494D01*
X139698815Y-147301185D01*
X139795506Y-147380537D01*
X139905820Y-147439502D01*
X140025518Y-147475812D01*
X140150000Y-147488072D01*
X141850000Y-147488072D01*
X141974482Y-147475812D01*
X142094180Y-147439502D01*
X142204494Y-147380537D01*
X142301185Y-147301185D01*
X142380537Y-147204494D01*
X142439502Y-147094180D01*
X142475812Y-146974482D01*
X142488072Y-146850000D01*
X142488072Y-145700000D01*
X199061928Y-145700000D01*
X199061928Y-147300000D01*
X199074188Y-147424482D01*
X199110498Y-147544180D01*
X199169463Y-147654494D01*
X199248815Y-147751185D01*
X199345506Y-147830537D01*
X199455820Y-147889502D01*
X199575518Y-147925812D01*
X199700000Y-147938072D01*
X201300000Y-147938072D01*
X201424482Y-147925812D01*
X201544180Y-147889502D01*
X201654494Y-147830537D01*
X201751185Y-147751185D01*
X201830537Y-147654494D01*
X201889502Y-147544180D01*
X201925812Y-147424482D01*
X201938072Y-147300000D01*
X201938072Y-146358665D01*
X206685000Y-146358665D01*
X206685000Y-146641335D01*
X206740147Y-146918574D01*
X206848320Y-147179727D01*
X207005363Y-147414759D01*
X207205241Y-147614637D01*
X207440273Y-147771680D01*
X207701426Y-147879853D01*
X207978665Y-147935000D01*
X208261335Y-147935000D01*
X208538574Y-147879853D01*
X208799727Y-147771680D01*
X209034759Y-147614637D01*
X209234637Y-147414759D01*
X209391680Y-147179727D01*
X209499853Y-146918574D01*
X209555000Y-146641335D01*
X209555000Y-146358665D01*
X209499853Y-146081426D01*
X209391680Y-145820273D01*
X209234637Y-145585241D01*
X209034759Y-145385363D01*
X208799727Y-145228320D01*
X208538574Y-145120147D01*
X208261335Y-145065000D01*
X207978665Y-145065000D01*
X207701426Y-145120147D01*
X207440273Y-145228320D01*
X207205241Y-145385363D01*
X207005363Y-145585241D01*
X206848320Y-145820273D01*
X206740147Y-146081426D01*
X206685000Y-146358665D01*
X201938072Y-146358665D01*
X201938072Y-145700000D01*
X201925812Y-145575518D01*
X201889502Y-145455820D01*
X201830537Y-145345506D01*
X201751185Y-145248815D01*
X201654494Y-145169463D01*
X201544180Y-145110498D01*
X201424482Y-145074188D01*
X201300000Y-145061928D01*
X199700000Y-145061928D01*
X199575518Y-145074188D01*
X199455820Y-145110498D01*
X199345506Y-145169463D01*
X199248815Y-145248815D01*
X199169463Y-145345506D01*
X199110498Y-145455820D01*
X199074188Y-145575518D01*
X199061928Y-145700000D01*
X142488072Y-145700000D01*
X142488072Y-145150000D01*
X142475812Y-145025518D01*
X142439502Y-144905820D01*
X142380537Y-144795506D01*
X142301185Y-144698815D01*
X142204494Y-144619463D01*
X142094180Y-144560498D01*
X142021620Y-144538487D01*
X142153475Y-144406632D01*
X142315990Y-144163411D01*
X142427932Y-143893158D01*
X142485000Y-143606260D01*
X142485000Y-143313740D01*
X142427932Y-143026842D01*
X142399693Y-142958665D01*
X199045000Y-142958665D01*
X199045000Y-143241335D01*
X199100147Y-143518574D01*
X199208320Y-143779727D01*
X199365363Y-144014759D01*
X199565241Y-144214637D01*
X199800273Y-144371680D01*
X200061426Y-144479853D01*
X200338665Y-144535000D01*
X200621335Y-144535000D01*
X200898574Y-144479853D01*
X201159727Y-144371680D01*
X201394759Y-144214637D01*
X201594637Y-144014759D01*
X201751680Y-143779727D01*
X201859853Y-143518574D01*
X201915000Y-143241335D01*
X201915000Y-142958665D01*
X206665000Y-142958665D01*
X206665000Y-143241335D01*
X206720147Y-143518574D01*
X206828320Y-143779727D01*
X206985363Y-144014759D01*
X207185241Y-144214637D01*
X207420273Y-144371680D01*
X207681426Y-144479853D01*
X207958665Y-144535000D01*
X208241335Y-144535000D01*
X208518574Y-144479853D01*
X208779727Y-144371680D01*
X209014759Y-144214637D01*
X209214637Y-144014759D01*
X209371680Y-143779727D01*
X209479853Y-143518574D01*
X209535000Y-143241335D01*
X209535000Y-142958665D01*
X209479853Y-142681426D01*
X209371680Y-142420273D01*
X209214637Y-142185241D01*
X209014759Y-141985363D01*
X208779727Y-141828320D01*
X208518574Y-141720147D01*
X208241335Y-141665000D01*
X207958665Y-141665000D01*
X207681426Y-141720147D01*
X207420273Y-141828320D01*
X207185241Y-141985363D01*
X206985363Y-142185241D01*
X206828320Y-142420273D01*
X206720147Y-142681426D01*
X206665000Y-142958665D01*
X201915000Y-142958665D01*
X201859853Y-142681426D01*
X201751680Y-142420273D01*
X201594637Y-142185241D01*
X201394759Y-141985363D01*
X201159727Y-141828320D01*
X200898574Y-141720147D01*
X200621335Y-141665000D01*
X200338665Y-141665000D01*
X200061426Y-141720147D01*
X199800273Y-141828320D01*
X199565241Y-141985363D01*
X199365363Y-142185241D01*
X199208320Y-142420273D01*
X199100147Y-142681426D01*
X199045000Y-142958665D01*
X142399693Y-142958665D01*
X142315990Y-142756589D01*
X142153475Y-142513368D01*
X141946632Y-142306525D01*
X141772240Y-142190000D01*
X141946632Y-142073475D01*
X142153475Y-141866632D01*
X142315990Y-141623411D01*
X142427932Y-141353158D01*
X142485000Y-141066260D01*
X142485000Y-140773740D01*
X142427932Y-140486842D01*
X142315990Y-140216589D01*
X142153475Y-139973368D01*
X141946632Y-139766525D01*
X141703411Y-139604010D01*
X141433158Y-139492068D01*
X141146260Y-139435000D01*
X140853740Y-139435000D01*
X140566842Y-139492068D01*
X140296589Y-139604010D01*
X140053368Y-139766525D01*
X139846525Y-139973368D01*
X139684010Y-140216589D01*
X139572068Y-140486842D01*
X139515000Y-140773740D01*
X139515000Y-141066260D01*
X139572068Y-141353158D01*
X139684010Y-141623411D01*
X139846525Y-141866632D01*
X140053368Y-142073475D01*
X140227760Y-142190000D01*
X140053368Y-142306525D01*
X139846525Y-142513368D01*
X139684010Y-142756589D01*
X139572068Y-143026842D01*
X139515000Y-143313740D01*
X139515000Y-143606260D01*
X139572068Y-143893158D01*
X139684010Y-144163411D01*
X139846525Y-144406632D01*
X139978380Y-144538487D01*
X139905820Y-144560498D01*
X139795506Y-144619463D01*
X139698815Y-144698815D01*
X139619463Y-144795506D01*
X139560498Y-144905820D01*
X139524188Y-145025518D01*
X139511928Y-145150000D01*
X135660000Y-145150000D01*
X135660000Y-139258665D01*
X199065000Y-139258665D01*
X199065000Y-139541335D01*
X199120147Y-139818574D01*
X199228320Y-140079727D01*
X199385363Y-140314759D01*
X199585241Y-140514637D01*
X199820273Y-140671680D01*
X200081426Y-140779853D01*
X200358665Y-140835000D01*
X200641335Y-140835000D01*
X200918574Y-140779853D01*
X201179727Y-140671680D01*
X201414759Y-140514637D01*
X201614637Y-140314759D01*
X201771680Y-140079727D01*
X201879853Y-139818574D01*
X201935000Y-139541335D01*
X201935000Y-139258665D01*
X206685000Y-139258665D01*
X206685000Y-139541335D01*
X206740147Y-139818574D01*
X206848320Y-140079727D01*
X207005363Y-140314759D01*
X207205241Y-140514637D01*
X207440273Y-140671680D01*
X207701426Y-140779853D01*
X207978665Y-140835000D01*
X208261335Y-140835000D01*
X208538574Y-140779853D01*
X208799727Y-140671680D01*
X209034759Y-140514637D01*
X209234637Y-140314759D01*
X209391680Y-140079727D01*
X209499853Y-139818574D01*
X209555000Y-139541335D01*
X209555000Y-139258665D01*
X209523440Y-139100000D01*
X210861928Y-139100000D01*
X210861928Y-140900000D01*
X210874188Y-141024482D01*
X210910498Y-141144180D01*
X210969463Y-141254494D01*
X211048815Y-141351185D01*
X211145506Y-141430537D01*
X211255820Y-141489502D01*
X211375518Y-141525812D01*
X211430125Y-141531190D01*
X211324201Y-141637114D01*
X211172629Y-141863957D01*
X211068225Y-142116011D01*
X211015000Y-142383589D01*
X211015000Y-142656411D01*
X211068225Y-142923989D01*
X211172629Y-143176043D01*
X211324201Y-143402886D01*
X211517114Y-143595799D01*
X211743957Y-143747371D01*
X211846873Y-143790000D01*
X211743957Y-143832629D01*
X211517114Y-143984201D01*
X211324201Y-144177114D01*
X211172629Y-144403957D01*
X211068225Y-144656011D01*
X211015000Y-144923589D01*
X211015000Y-145196411D01*
X211068225Y-145463989D01*
X211172629Y-145716043D01*
X211324201Y-145942886D01*
X211517114Y-146135799D01*
X211633483Y-146213555D01*
X211525518Y-146224188D01*
X211405820Y-146260498D01*
X211295506Y-146319463D01*
X211198815Y-146398815D01*
X211119463Y-146495506D01*
X211060498Y-146605820D01*
X211024188Y-146725518D01*
X211011928Y-146850000D01*
X211011928Y-148350000D01*
X211024188Y-148474482D01*
X211060498Y-148594180D01*
X211119463Y-148704494D01*
X211198815Y-148801185D01*
X211295506Y-148880537D01*
X211405820Y-148939502D01*
X211525518Y-148975812D01*
X211650000Y-148988072D01*
X213150000Y-148988072D01*
X213274482Y-148975812D01*
X213394180Y-148939502D01*
X213504494Y-148880537D01*
X213601185Y-148801185D01*
X213680537Y-148704494D01*
X213739502Y-148594180D01*
X213775812Y-148474482D01*
X213788072Y-148350000D01*
X213788072Y-148209721D01*
X216865000Y-148209721D01*
X216865000Y-148630279D01*
X216947047Y-149042756D01*
X217107988Y-149431302D01*
X217341637Y-149780983D01*
X217639017Y-150078363D01*
X217988698Y-150312012D01*
X218377244Y-150472953D01*
X218789721Y-150555000D01*
X219210279Y-150555000D01*
X219622756Y-150472953D01*
X220011302Y-150312012D01*
X220360983Y-150078363D01*
X220658363Y-149780983D01*
X220892012Y-149431302D01*
X221052953Y-149042756D01*
X221135000Y-148630279D01*
X221135000Y-148209721D01*
X221052953Y-147797244D01*
X220892012Y-147408698D01*
X220658363Y-147059017D01*
X220360983Y-146761637D01*
X220011302Y-146527988D01*
X219622756Y-146367047D01*
X219210279Y-146285000D01*
X218789721Y-146285000D01*
X218377244Y-146367047D01*
X217988698Y-146527988D01*
X217639017Y-146761637D01*
X217341637Y-147059017D01*
X217107988Y-147408698D01*
X216947047Y-147797244D01*
X216865000Y-148209721D01*
X213788072Y-148209721D01*
X213788072Y-146850000D01*
X213775812Y-146725518D01*
X213739502Y-146605820D01*
X213680537Y-146495506D01*
X213601185Y-146398815D01*
X213504494Y-146319463D01*
X213394180Y-146260498D01*
X213274482Y-146224188D01*
X213166517Y-146213555D01*
X213282886Y-146135799D01*
X213475799Y-145942886D01*
X213627371Y-145716043D01*
X213731775Y-145463989D01*
X213785000Y-145196411D01*
X213785000Y-144923589D01*
X213731775Y-144656011D01*
X213627371Y-144403957D01*
X213475799Y-144177114D01*
X213282886Y-143984201D01*
X213056043Y-143832629D01*
X212953127Y-143790000D01*
X213056043Y-143747371D01*
X213282886Y-143595799D01*
X213475799Y-143402886D01*
X213627371Y-143176043D01*
X213731775Y-142923989D01*
X213785000Y-142656411D01*
X213785000Y-142383589D01*
X213731775Y-142116011D01*
X213627371Y-141863957D01*
X213475799Y-141637114D01*
X213369875Y-141531190D01*
X213424482Y-141525812D01*
X213544180Y-141489502D01*
X213654494Y-141430537D01*
X213751185Y-141351185D01*
X213830537Y-141254494D01*
X213889502Y-141144180D01*
X213925812Y-141024482D01*
X213938072Y-140900000D01*
X213938072Y-139100000D01*
X213928224Y-139000000D01*
X216861928Y-139000000D01*
X216861928Y-142000000D01*
X216874188Y-142124482D01*
X216910498Y-142244180D01*
X216969463Y-142354494D01*
X217048815Y-142451185D01*
X217145506Y-142530537D01*
X217255820Y-142589502D01*
X217375518Y-142625812D01*
X217500000Y-142638072D01*
X220500000Y-142638072D01*
X220624482Y-142625812D01*
X220744180Y-142589502D01*
X220854494Y-142530537D01*
X220951185Y-142451185D01*
X221030537Y-142354494D01*
X221089502Y-142244180D01*
X221125812Y-142124482D01*
X221138072Y-142000000D01*
X221138072Y-139000000D01*
X221125812Y-138875518D01*
X221089502Y-138755820D01*
X221030537Y-138645506D01*
X220951185Y-138548815D01*
X220854494Y-138469463D01*
X220744180Y-138410498D01*
X220624482Y-138374188D01*
X220500000Y-138361928D01*
X217500000Y-138361928D01*
X217375518Y-138374188D01*
X217255820Y-138410498D01*
X217145506Y-138469463D01*
X217048815Y-138548815D01*
X216969463Y-138645506D01*
X216910498Y-138755820D01*
X216874188Y-138875518D01*
X216861928Y-139000000D01*
X213928224Y-139000000D01*
X213925812Y-138975518D01*
X213889502Y-138855820D01*
X213830537Y-138745506D01*
X213751185Y-138648815D01*
X213654494Y-138569463D01*
X213544180Y-138510498D01*
X213525873Y-138504944D01*
X213592312Y-138438505D01*
X213760299Y-138187095D01*
X213876011Y-137907743D01*
X213935000Y-137611184D01*
X213935000Y-137308816D01*
X213876011Y-137012257D01*
X213760299Y-136732905D01*
X213592312Y-136481495D01*
X213378505Y-136267688D01*
X213127095Y-136099701D01*
X212847743Y-135983989D01*
X212551184Y-135925000D01*
X212248816Y-135925000D01*
X211952257Y-135983989D01*
X211672905Y-136099701D01*
X211421495Y-136267688D01*
X211207688Y-136481495D01*
X211039701Y-136732905D01*
X210923989Y-137012257D01*
X210865000Y-137308816D01*
X210865000Y-137611184D01*
X210923989Y-137907743D01*
X211039701Y-138187095D01*
X211207688Y-138438505D01*
X211274127Y-138504944D01*
X211255820Y-138510498D01*
X211145506Y-138569463D01*
X211048815Y-138648815D01*
X210969463Y-138745506D01*
X210910498Y-138855820D01*
X210874188Y-138975518D01*
X210861928Y-139100000D01*
X209523440Y-139100000D01*
X209499853Y-138981426D01*
X209391680Y-138720273D01*
X209234637Y-138485241D01*
X209034759Y-138285363D01*
X208799727Y-138128320D01*
X208538574Y-138020147D01*
X208261335Y-137965000D01*
X207978665Y-137965000D01*
X207701426Y-138020147D01*
X207440273Y-138128320D01*
X207205241Y-138285363D01*
X207005363Y-138485241D01*
X206848320Y-138720273D01*
X206740147Y-138981426D01*
X206685000Y-139258665D01*
X201935000Y-139258665D01*
X201879853Y-138981426D01*
X201771680Y-138720273D01*
X201614637Y-138485241D01*
X201414759Y-138285363D01*
X201179727Y-138128320D01*
X200918574Y-138020147D01*
X200641335Y-137965000D01*
X200358665Y-137965000D01*
X200081426Y-138020147D01*
X199820273Y-138128320D01*
X199585241Y-138285363D01*
X199385363Y-138485241D01*
X199228320Y-138720273D01*
X199120147Y-138981426D01*
X199065000Y-139258665D01*
X135660000Y-139258665D01*
X135660000Y-136078967D01*
X140805000Y-136078967D01*
X140805000Y-136401033D01*
X140867832Y-136716912D01*
X140991082Y-137014463D01*
X141170013Y-137282252D01*
X141397748Y-137509987D01*
X141665537Y-137688918D01*
X141963088Y-137812168D01*
X142278967Y-137875000D01*
X142601033Y-137875000D01*
X142916912Y-137812168D01*
X143214463Y-137688918D01*
X143482252Y-137509987D01*
X143709987Y-137282252D01*
X143710000Y-137282233D01*
X143710013Y-137282252D01*
X143937748Y-137509987D01*
X144205537Y-137688918D01*
X144503088Y-137812168D01*
X144818967Y-137875000D01*
X145141033Y-137875000D01*
X145456912Y-137812168D01*
X145754463Y-137688918D01*
X146022252Y-137509987D01*
X146249987Y-137282252D01*
X146250000Y-137282233D01*
X146250013Y-137282252D01*
X146477748Y-137509987D01*
X146745537Y-137688918D01*
X147043088Y-137812168D01*
X147358967Y-137875000D01*
X147681033Y-137875000D01*
X147996912Y-137812168D01*
X148294463Y-137688918D01*
X148562252Y-137509987D01*
X148789987Y-137282252D01*
X148790000Y-137282233D01*
X148790013Y-137282252D01*
X149017748Y-137509987D01*
X149285537Y-137688918D01*
X149583088Y-137812168D01*
X149898967Y-137875000D01*
X150221033Y-137875000D01*
X150536912Y-137812168D01*
X150834463Y-137688918D01*
X151102252Y-137509987D01*
X151329987Y-137282252D01*
X151330000Y-137282233D01*
X151330013Y-137282252D01*
X151557748Y-137509987D01*
X151825537Y-137688918D01*
X152123088Y-137812168D01*
X152438967Y-137875000D01*
X152761033Y-137875000D01*
X153076912Y-137812168D01*
X153374463Y-137688918D01*
X153642252Y-137509987D01*
X153869987Y-137282252D01*
X153870000Y-137282233D01*
X153870013Y-137282252D01*
X154097748Y-137509987D01*
X154365537Y-137688918D01*
X154663088Y-137812168D01*
X154978967Y-137875000D01*
X155301033Y-137875000D01*
X155616912Y-137812168D01*
X155914463Y-137688918D01*
X156182252Y-137509987D01*
X156409987Y-137282252D01*
X156410000Y-137282233D01*
X156410013Y-137282252D01*
X156637748Y-137509987D01*
X156905537Y-137688918D01*
X157203088Y-137812168D01*
X157518967Y-137875000D01*
X157841033Y-137875000D01*
X158156912Y-137812168D01*
X158454463Y-137688918D01*
X158722252Y-137509987D01*
X158949987Y-137282252D01*
X158950000Y-137282233D01*
X158950013Y-137282252D01*
X159177748Y-137509987D01*
X159445537Y-137688918D01*
X159743088Y-137812168D01*
X160058967Y-137875000D01*
X160381033Y-137875000D01*
X160696912Y-137812168D01*
X160994463Y-137688918D01*
X161262252Y-137509987D01*
X161489987Y-137282252D01*
X161490000Y-137282233D01*
X161490013Y-137282252D01*
X161717748Y-137509987D01*
X161985537Y-137688918D01*
X162283088Y-137812168D01*
X162598967Y-137875000D01*
X162921033Y-137875000D01*
X163236912Y-137812168D01*
X163534463Y-137688918D01*
X163802252Y-137509987D01*
X164029987Y-137282252D01*
X164030000Y-137282233D01*
X164030013Y-137282252D01*
X164257748Y-137509987D01*
X164525537Y-137688918D01*
X164823088Y-137812168D01*
X165138967Y-137875000D01*
X165461033Y-137875000D01*
X165776912Y-137812168D01*
X166074463Y-137688918D01*
X166342252Y-137509987D01*
X166569987Y-137282252D01*
X166570000Y-137282233D01*
X166570013Y-137282252D01*
X166797748Y-137509987D01*
X167065537Y-137688918D01*
X167363088Y-137812168D01*
X167678967Y-137875000D01*
X168001033Y-137875000D01*
X168316912Y-137812168D01*
X168614463Y-137688918D01*
X168882252Y-137509987D01*
X169109987Y-137282252D01*
X169110000Y-137282233D01*
X169110013Y-137282252D01*
X169337748Y-137509987D01*
X169605537Y-137688918D01*
X169903088Y-137812168D01*
X170218967Y-137875000D01*
X170541033Y-137875000D01*
X170856912Y-137812168D01*
X171154463Y-137688918D01*
X171422252Y-137509987D01*
X171649987Y-137282252D01*
X171650000Y-137282233D01*
X171650013Y-137282252D01*
X171877748Y-137509987D01*
X172145537Y-137688918D01*
X172443088Y-137812168D01*
X172758967Y-137875000D01*
X173081033Y-137875000D01*
X173396912Y-137812168D01*
X173694463Y-137688918D01*
X173962252Y-137509987D01*
X174189987Y-137282252D01*
X174190000Y-137282233D01*
X174190013Y-137282252D01*
X174417748Y-137509987D01*
X174685537Y-137688918D01*
X174983088Y-137812168D01*
X175298967Y-137875000D01*
X175621033Y-137875000D01*
X175936912Y-137812168D01*
X176234463Y-137688918D01*
X176502252Y-137509987D01*
X176729987Y-137282252D01*
X176730000Y-137282233D01*
X176730013Y-137282252D01*
X176957748Y-137509987D01*
X177225537Y-137688918D01*
X177523088Y-137812168D01*
X177838967Y-137875000D01*
X178161033Y-137875000D01*
X178476912Y-137812168D01*
X178774463Y-137688918D01*
X179042252Y-137509987D01*
X179269987Y-137282252D01*
X179448918Y-137014463D01*
X179572168Y-136716912D01*
X179635000Y-136401033D01*
X179635000Y-136078967D01*
X179572168Y-135763088D01*
X179448918Y-135465537D01*
X179269987Y-135197748D01*
X179042252Y-134970013D01*
X178774463Y-134791082D01*
X178476912Y-134667832D01*
X178161033Y-134605000D01*
X177838967Y-134605000D01*
X177523088Y-134667832D01*
X177225537Y-134791082D01*
X176957748Y-134970013D01*
X176730013Y-135197748D01*
X176730000Y-135197767D01*
X176729987Y-135197748D01*
X176502252Y-134970013D01*
X176234463Y-134791082D01*
X175936912Y-134667832D01*
X175621033Y-134605000D01*
X175298967Y-134605000D01*
X174983088Y-134667832D01*
X174685537Y-134791082D01*
X174417748Y-134970013D01*
X174190013Y-135197748D01*
X174190000Y-135197767D01*
X174189987Y-135197748D01*
X173962252Y-134970013D01*
X173694463Y-134791082D01*
X173396912Y-134667832D01*
X173081033Y-134605000D01*
X172758967Y-134605000D01*
X172443088Y-134667832D01*
X172145537Y-134791082D01*
X171877748Y-134970013D01*
X171650013Y-135197748D01*
X171650000Y-135197767D01*
X171649987Y-135197748D01*
X171422252Y-134970013D01*
X171154463Y-134791082D01*
X170856912Y-134667832D01*
X170541033Y-134605000D01*
X170218967Y-134605000D01*
X169903088Y-134667832D01*
X169605537Y-134791082D01*
X169337748Y-134970013D01*
X169110013Y-135197748D01*
X169110000Y-135197767D01*
X169109987Y-135197748D01*
X168882252Y-134970013D01*
X168614463Y-134791082D01*
X168316912Y-134667832D01*
X168001033Y-134605000D01*
X167678967Y-134605000D01*
X167363088Y-134667832D01*
X167065537Y-134791082D01*
X166797748Y-134970013D01*
X166570013Y-135197748D01*
X166570000Y-135197767D01*
X166569987Y-135197748D01*
X166342252Y-134970013D01*
X166074463Y-134791082D01*
X165776912Y-134667832D01*
X165461033Y-134605000D01*
X165138967Y-134605000D01*
X164823088Y-134667832D01*
X164525537Y-134791082D01*
X164257748Y-134970013D01*
X164030013Y-135197748D01*
X164030000Y-135197767D01*
X164029987Y-135197748D01*
X163802252Y-134970013D01*
X163534463Y-134791082D01*
X163236912Y-134667832D01*
X162921033Y-134605000D01*
X162598967Y-134605000D01*
X162283088Y-134667832D01*
X161985537Y-134791082D01*
X161717748Y-134970013D01*
X161490013Y-135197748D01*
X161490000Y-135197767D01*
X161489987Y-135197748D01*
X161262252Y-134970013D01*
X160994463Y-134791082D01*
X160696912Y-134667832D01*
X160381033Y-134605000D01*
X160058967Y-134605000D01*
X159743088Y-134667832D01*
X159445537Y-134791082D01*
X159177748Y-134970013D01*
X158950013Y-135197748D01*
X158950000Y-135197767D01*
X158949987Y-135197748D01*
X158722252Y-134970013D01*
X158454463Y-134791082D01*
X158156912Y-134667832D01*
X157841033Y-134605000D01*
X157518967Y-134605000D01*
X157203088Y-134667832D01*
X156905537Y-134791082D01*
X156637748Y-134970013D01*
X156410013Y-135197748D01*
X156410000Y-135197767D01*
X156409987Y-135197748D01*
X156182252Y-134970013D01*
X155914463Y-134791082D01*
X155616912Y-134667832D01*
X155301033Y-134605000D01*
X154978967Y-134605000D01*
X154663088Y-134667832D01*
X154365537Y-134791082D01*
X154097748Y-134970013D01*
X153870013Y-135197748D01*
X153870000Y-135197767D01*
X153869987Y-135197748D01*
X153642252Y-134970013D01*
X153374463Y-134791082D01*
X153076912Y-134667832D01*
X152761033Y-134605000D01*
X152438967Y-134605000D01*
X152123088Y-134667832D01*
X151825537Y-134791082D01*
X151557748Y-134970013D01*
X151330013Y-135197748D01*
X151330000Y-135197767D01*
X151329987Y-135197748D01*
X151102252Y-134970013D01*
X150834463Y-134791082D01*
X150536912Y-134667832D01*
X150221033Y-134605000D01*
X149898967Y-134605000D01*
X149583088Y-134667832D01*
X149285537Y-134791082D01*
X149017748Y-134970013D01*
X148790013Y-135197748D01*
X148790000Y-135197767D01*
X148789987Y-135197748D01*
X148562252Y-134970013D01*
X148294463Y-134791082D01*
X147996912Y-134667832D01*
X147681033Y-134605000D01*
X147358967Y-134605000D01*
X147043088Y-134667832D01*
X146745537Y-134791082D01*
X146477748Y-134970013D01*
X146250013Y-135197748D01*
X146250000Y-135197767D01*
X146249987Y-135197748D01*
X146022252Y-134970013D01*
X145754463Y-134791082D01*
X145456912Y-134667832D01*
X145141033Y-134605000D01*
X144818967Y-134605000D01*
X144503088Y-134667832D01*
X144205537Y-134791082D01*
X143937748Y-134970013D01*
X143710013Y-135197748D01*
X143710000Y-135197767D01*
X143709987Y-135197748D01*
X143482252Y-134970013D01*
X143214463Y-134791082D01*
X142916912Y-134667832D01*
X142601033Y-134605000D01*
X142278967Y-134605000D01*
X141963088Y-134667832D01*
X141665537Y-134791082D01*
X141397748Y-134970013D01*
X141170013Y-135197748D01*
X140991082Y-135465537D01*
X140867832Y-135763088D01*
X140805000Y-136078967D01*
X135660000Y-136078967D01*
X135660000Y-133600000D01*
X198461928Y-133600000D01*
X198461928Y-135400000D01*
X198474188Y-135524482D01*
X198510498Y-135644180D01*
X198569463Y-135754494D01*
X198648815Y-135851185D01*
X198745506Y-135930537D01*
X198855820Y-135989502D01*
X198975518Y-136025812D01*
X199100000Y-136038072D01*
X200900000Y-136038072D01*
X201024482Y-136025812D01*
X201144180Y-135989502D01*
X201254494Y-135930537D01*
X201351185Y-135851185D01*
X201430537Y-135754494D01*
X201489502Y-135644180D01*
X201525812Y-135524482D01*
X201538072Y-135400000D01*
X201538072Y-135209721D01*
X216865000Y-135209721D01*
X216865000Y-135630279D01*
X216947047Y-136042756D01*
X217107988Y-136431302D01*
X217341637Y-136780983D01*
X217639017Y-137078363D01*
X217988698Y-137312012D01*
X218377244Y-137472953D01*
X218789721Y-137555000D01*
X219210279Y-137555000D01*
X219622756Y-137472953D01*
X220011302Y-137312012D01*
X220360983Y-137078363D01*
X220658363Y-136780983D01*
X220892012Y-136431302D01*
X221052953Y-136042756D01*
X221135000Y-135630279D01*
X221135000Y-135209721D01*
X221052953Y-134797244D01*
X220892012Y-134408698D01*
X220658363Y-134059017D01*
X220360983Y-133761637D01*
X220011302Y-133527988D01*
X219622756Y-133367047D01*
X219210279Y-133285000D01*
X218789721Y-133285000D01*
X218377244Y-133367047D01*
X217988698Y-133527988D01*
X217639017Y-133761637D01*
X217341637Y-134059017D01*
X217107988Y-134408698D01*
X216947047Y-134797244D01*
X216865000Y-135209721D01*
X201538072Y-135209721D01*
X201538072Y-133600000D01*
X201525812Y-133475518D01*
X201489502Y-133355820D01*
X201430537Y-133245506D01*
X201351185Y-133148815D01*
X201254494Y-133069463D01*
X201144180Y-133010498D01*
X201125873Y-133004944D01*
X201192312Y-132938505D01*
X201360299Y-132687095D01*
X201476011Y-132407743D01*
X201482620Y-132374514D01*
X204832500Y-132374514D01*
X204832500Y-132625485D01*
X204855470Y-132858703D01*
X204946245Y-133157948D01*
X205093655Y-133433734D01*
X205292037Y-133675463D01*
X205533765Y-133873845D01*
X205809551Y-134021255D01*
X206108796Y-134112030D01*
X206420000Y-134142681D01*
X206731203Y-134112030D01*
X207030448Y-134021255D01*
X207306234Y-133873845D01*
X207547963Y-133675463D01*
X207690000Y-133502391D01*
X207832037Y-133675463D01*
X208073765Y-133873845D01*
X208349551Y-134021255D01*
X208648796Y-134112030D01*
X208960000Y-134142681D01*
X209271203Y-134112030D01*
X209570448Y-134021255D01*
X209846234Y-133873845D01*
X209972095Y-133770553D01*
X210016963Y-133854494D01*
X210096315Y-133951185D01*
X210193006Y-134030537D01*
X210303320Y-134089502D01*
X210423018Y-134125812D01*
X210547500Y-134138072D01*
X212452500Y-134138072D01*
X212576982Y-134125812D01*
X212696680Y-134089502D01*
X212806994Y-134030537D01*
X212903685Y-133951185D01*
X212983037Y-133854494D01*
X213042002Y-133744180D01*
X213078312Y-133624482D01*
X213090572Y-133500000D01*
X213090572Y-131500000D01*
X213078312Y-131375518D01*
X213042002Y-131255820D01*
X212983037Y-131145506D01*
X212903685Y-131048815D01*
X212806994Y-130969463D01*
X212696680Y-130910498D01*
X212576982Y-130874188D01*
X212452500Y-130861928D01*
X210547500Y-130861928D01*
X210423018Y-130874188D01*
X210303320Y-130910498D01*
X210193006Y-130969463D01*
X210096315Y-131048815D01*
X210016963Y-131145506D01*
X209972095Y-131229446D01*
X209846235Y-131126155D01*
X209570449Y-130978745D01*
X209271204Y-130887970D01*
X208960000Y-130857319D01*
X208648797Y-130887970D01*
X208349552Y-130978745D01*
X208073766Y-131126155D01*
X207832037Y-131324537D01*
X207690000Y-131497609D01*
X207547963Y-131324537D01*
X207306235Y-131126155D01*
X207030449Y-130978745D01*
X206731204Y-130887970D01*
X206420000Y-130857319D01*
X206108797Y-130887970D01*
X205809552Y-130978745D01*
X205533766Y-131126155D01*
X205292037Y-131324537D01*
X205093655Y-131566265D01*
X204946245Y-131842051D01*
X204855470Y-132141296D01*
X204832500Y-132374514D01*
X201482620Y-132374514D01*
X201535000Y-132111184D01*
X201535000Y-131808816D01*
X201476011Y-131512257D01*
X201360299Y-131232905D01*
X201192312Y-130981495D01*
X200978505Y-130767688D01*
X200727095Y-130599701D01*
X200447743Y-130483989D01*
X200151184Y-130425000D01*
X199848816Y-130425000D01*
X199552257Y-130483989D01*
X199272905Y-130599701D01*
X199021495Y-130767688D01*
X198807688Y-130981495D01*
X198639701Y-131232905D01*
X198523989Y-131512257D01*
X198465000Y-131808816D01*
X198465000Y-132111184D01*
X198523989Y-132407743D01*
X198639701Y-132687095D01*
X198807688Y-132938505D01*
X198874127Y-133004944D01*
X198855820Y-133010498D01*
X198745506Y-133069463D01*
X198648815Y-133148815D01*
X198569463Y-133245506D01*
X198510498Y-133355820D01*
X198474188Y-133475518D01*
X198461928Y-133600000D01*
X135660000Y-133600000D01*
X135660000Y-131858665D01*
X185945000Y-131858665D01*
X185945000Y-132141335D01*
X186000147Y-132418574D01*
X186108320Y-132679727D01*
X186265363Y-132914759D01*
X186465241Y-133114637D01*
X186700273Y-133271680D01*
X186961426Y-133379853D01*
X187238665Y-133435000D01*
X187521335Y-133435000D01*
X187798574Y-133379853D01*
X188059727Y-133271680D01*
X188294759Y-133114637D01*
X188494637Y-132914759D01*
X188651680Y-132679727D01*
X188759853Y-132418574D01*
X188815000Y-132141335D01*
X188815000Y-131858665D01*
X193565000Y-131858665D01*
X193565000Y-132141335D01*
X193620147Y-132418574D01*
X193728320Y-132679727D01*
X193885363Y-132914759D01*
X194085241Y-133114637D01*
X194320273Y-133271680D01*
X194581426Y-133379853D01*
X194858665Y-133435000D01*
X195141335Y-133435000D01*
X195418574Y-133379853D01*
X195679727Y-133271680D01*
X195914759Y-133114637D01*
X196114637Y-132914759D01*
X196271680Y-132679727D01*
X196379853Y-132418574D01*
X196435000Y-132141335D01*
X196435000Y-131858665D01*
X196379853Y-131581426D01*
X196271680Y-131320273D01*
X196114637Y-131085241D01*
X195914759Y-130885363D01*
X195679727Y-130728320D01*
X195418574Y-130620147D01*
X195141335Y-130565000D01*
X194858665Y-130565000D01*
X194581426Y-130620147D01*
X194320273Y-130728320D01*
X194085241Y-130885363D01*
X193885363Y-131085241D01*
X193728320Y-131320273D01*
X193620147Y-131581426D01*
X193565000Y-131858665D01*
X188815000Y-131858665D01*
X188759853Y-131581426D01*
X188651680Y-131320273D01*
X188494637Y-131085241D01*
X188294759Y-130885363D01*
X188059727Y-130728320D01*
X187798574Y-130620147D01*
X187521335Y-130565000D01*
X187238665Y-130565000D01*
X186961426Y-130620147D01*
X186700273Y-130728320D01*
X186465241Y-130885363D01*
X186265363Y-131085241D01*
X186108320Y-131320273D01*
X186000147Y-131581426D01*
X185945000Y-131858665D01*
X135660000Y-131858665D01*
X135660000Y-126858665D01*
X182565000Y-126858665D01*
X182565000Y-127141335D01*
X182620147Y-127418574D01*
X182728320Y-127679727D01*
X182885363Y-127914759D01*
X183085241Y-128114637D01*
X183320273Y-128271680D01*
X183581426Y-128379853D01*
X183858665Y-128435000D01*
X184141335Y-128435000D01*
X184418574Y-128379853D01*
X184679727Y-128271680D01*
X184914759Y-128114637D01*
X185114637Y-127914759D01*
X185271680Y-127679727D01*
X185379853Y-127418574D01*
X185435000Y-127141335D01*
X185435000Y-126858665D01*
X185379853Y-126581426D01*
X185271680Y-126320273D01*
X185114637Y-126085241D01*
X185029396Y-126000000D01*
X189861928Y-126000000D01*
X189861928Y-128000000D01*
X189874188Y-128124482D01*
X189910498Y-128244180D01*
X189969463Y-128354494D01*
X190048815Y-128451185D01*
X190145506Y-128530537D01*
X190255820Y-128589502D01*
X190375518Y-128625812D01*
X190500000Y-128638072D01*
X192500000Y-128638072D01*
X192624482Y-128625812D01*
X192744180Y-128589502D01*
X192854494Y-128530537D01*
X192951185Y-128451185D01*
X193030537Y-128354494D01*
X193089502Y-128244180D01*
X193125812Y-128124482D01*
X193138072Y-128000000D01*
X193138072Y-126858665D01*
X197565000Y-126858665D01*
X197565000Y-127141335D01*
X197620147Y-127418574D01*
X197728320Y-127679727D01*
X197885363Y-127914759D01*
X198085241Y-128114637D01*
X198320273Y-128271680D01*
X198581426Y-128379853D01*
X198858665Y-128435000D01*
X199141335Y-128435000D01*
X199418574Y-128379853D01*
X199679727Y-128271680D01*
X199914759Y-128114637D01*
X200114637Y-127914759D01*
X200271680Y-127679727D01*
X200379853Y-127418574D01*
X200435000Y-127141335D01*
X200435000Y-126858665D01*
X200379853Y-126581426D01*
X200271680Y-126320273D01*
X200114637Y-126085241D01*
X200029396Y-126000000D01*
X204361928Y-126000000D01*
X204361928Y-128000000D01*
X204374188Y-128124482D01*
X204410498Y-128244180D01*
X204469463Y-128354494D01*
X204548815Y-128451185D01*
X204645506Y-128530537D01*
X204755820Y-128589502D01*
X204875518Y-128625812D01*
X205000000Y-128638072D01*
X207000000Y-128638072D01*
X207124482Y-128625812D01*
X207244180Y-128589502D01*
X207354494Y-128530537D01*
X207451185Y-128451185D01*
X207530537Y-128354494D01*
X207589502Y-128244180D01*
X207625812Y-128124482D01*
X207638072Y-128000000D01*
X207638072Y-127900000D01*
X211261928Y-127900000D01*
X211261928Y-130100000D01*
X211274188Y-130224482D01*
X211310498Y-130344180D01*
X211369463Y-130454494D01*
X211448815Y-130551185D01*
X211545506Y-130630537D01*
X211655820Y-130689502D01*
X211775518Y-130725812D01*
X211900000Y-130738072D01*
X214100000Y-130738072D01*
X214224482Y-130725812D01*
X214344180Y-130689502D01*
X214454494Y-130630537D01*
X214551185Y-130551185D01*
X214630537Y-130454494D01*
X214689502Y-130344180D01*
X214725812Y-130224482D01*
X214738072Y-130100000D01*
X214738072Y-127900000D01*
X214725812Y-127775518D01*
X214689502Y-127655820D01*
X214630537Y-127545506D01*
X214551185Y-127448815D01*
X214454494Y-127369463D01*
X214344180Y-127310498D01*
X214224482Y-127274188D01*
X214100000Y-127261928D01*
X211900000Y-127261928D01*
X211775518Y-127274188D01*
X211655820Y-127310498D01*
X211545506Y-127369463D01*
X211448815Y-127448815D01*
X211369463Y-127545506D01*
X211310498Y-127655820D01*
X211274188Y-127775518D01*
X211261928Y-127900000D01*
X207638072Y-127900000D01*
X207638072Y-126500000D01*
X216861928Y-126500000D01*
X216861928Y-129500000D01*
X216874188Y-129624482D01*
X216910498Y-129744180D01*
X216969463Y-129854494D01*
X217048815Y-129951185D01*
X217145506Y-130030537D01*
X217255820Y-130089502D01*
X217375518Y-130125812D01*
X217500000Y-130138072D01*
X220500000Y-130138072D01*
X220624482Y-130125812D01*
X220744180Y-130089502D01*
X220854494Y-130030537D01*
X220951185Y-129951185D01*
X221030537Y-129854494D01*
X221089502Y-129744180D01*
X221125812Y-129624482D01*
X221138072Y-129500000D01*
X221138072Y-126500000D01*
X221125812Y-126375518D01*
X221089502Y-126255820D01*
X221030537Y-126145506D01*
X220951185Y-126048815D01*
X220854494Y-125969463D01*
X220744180Y-125910498D01*
X220624482Y-125874188D01*
X220500000Y-125861928D01*
X217500000Y-125861928D01*
X217375518Y-125874188D01*
X217255820Y-125910498D01*
X217145506Y-125969463D01*
X217048815Y-126048815D01*
X216969463Y-126145506D01*
X216910498Y-126255820D01*
X216874188Y-126375518D01*
X216861928Y-126500000D01*
X207638072Y-126500000D01*
X207638072Y-126000000D01*
X207625812Y-125875518D01*
X207589502Y-125755820D01*
X207530537Y-125645506D01*
X207451185Y-125548815D01*
X207354494Y-125469463D01*
X207244180Y-125410498D01*
X207124482Y-125374188D01*
X207000000Y-125361928D01*
X205000000Y-125361928D01*
X204875518Y-125374188D01*
X204755820Y-125410498D01*
X204645506Y-125469463D01*
X204548815Y-125548815D01*
X204469463Y-125645506D01*
X204410498Y-125755820D01*
X204374188Y-125875518D01*
X204361928Y-126000000D01*
X200029396Y-126000000D01*
X199914759Y-125885363D01*
X199679727Y-125728320D01*
X199418574Y-125620147D01*
X199141335Y-125565000D01*
X198858665Y-125565000D01*
X198581426Y-125620147D01*
X198320273Y-125728320D01*
X198085241Y-125885363D01*
X197885363Y-126085241D01*
X197728320Y-126320273D01*
X197620147Y-126581426D01*
X197565000Y-126858665D01*
X193138072Y-126858665D01*
X193138072Y-126000000D01*
X193125812Y-125875518D01*
X193089502Y-125755820D01*
X193030537Y-125645506D01*
X192951185Y-125548815D01*
X192854494Y-125469463D01*
X192744180Y-125410498D01*
X192624482Y-125374188D01*
X192500000Y-125361928D01*
X190500000Y-125361928D01*
X190375518Y-125374188D01*
X190255820Y-125410498D01*
X190145506Y-125469463D01*
X190048815Y-125548815D01*
X189969463Y-125645506D01*
X189910498Y-125755820D01*
X189874188Y-125875518D01*
X189861928Y-126000000D01*
X185029396Y-126000000D01*
X184914759Y-125885363D01*
X184679727Y-125728320D01*
X184418574Y-125620147D01*
X184141335Y-125565000D01*
X183858665Y-125565000D01*
X183581426Y-125620147D01*
X183320273Y-125728320D01*
X183085241Y-125885363D01*
X182885363Y-126085241D01*
X182728320Y-126320273D01*
X182620147Y-126581426D01*
X182565000Y-126858665D01*
X135660000Y-126858665D01*
X135660000Y-120838967D01*
X140805000Y-120838967D01*
X140805000Y-121161033D01*
X140867832Y-121476912D01*
X140991082Y-121774463D01*
X141170013Y-122042252D01*
X141397748Y-122269987D01*
X141665537Y-122448918D01*
X141963088Y-122572168D01*
X142278967Y-122635000D01*
X142601033Y-122635000D01*
X142916912Y-122572168D01*
X143214463Y-122448918D01*
X143482252Y-122269987D01*
X143709987Y-122042252D01*
X143710000Y-122042233D01*
X143710013Y-122042252D01*
X143937748Y-122269987D01*
X144205537Y-122448918D01*
X144503088Y-122572168D01*
X144818967Y-122635000D01*
X145141033Y-122635000D01*
X145456912Y-122572168D01*
X145754463Y-122448918D01*
X146022252Y-122269987D01*
X146249987Y-122042252D01*
X146250000Y-122042233D01*
X146250013Y-122042252D01*
X146477748Y-122269987D01*
X146745537Y-122448918D01*
X147043088Y-122572168D01*
X147358967Y-122635000D01*
X147681033Y-122635000D01*
X147996912Y-122572168D01*
X148294463Y-122448918D01*
X148562252Y-122269987D01*
X148789987Y-122042252D01*
X148790000Y-122042233D01*
X148790013Y-122042252D01*
X149017748Y-122269987D01*
X149285537Y-122448918D01*
X149583088Y-122572168D01*
X149898967Y-122635000D01*
X150221033Y-122635000D01*
X150536912Y-122572168D01*
X150834463Y-122448918D01*
X151102252Y-122269987D01*
X151329987Y-122042252D01*
X151330000Y-122042233D01*
X151330013Y-122042252D01*
X151557748Y-122269987D01*
X151825537Y-122448918D01*
X152123088Y-122572168D01*
X152438967Y-122635000D01*
X152761033Y-122635000D01*
X153076912Y-122572168D01*
X153374463Y-122448918D01*
X153642252Y-122269987D01*
X153869987Y-122042252D01*
X153870000Y-122042233D01*
X153870013Y-122042252D01*
X154097748Y-122269987D01*
X154365537Y-122448918D01*
X154663088Y-122572168D01*
X154978967Y-122635000D01*
X155301033Y-122635000D01*
X155616912Y-122572168D01*
X155914463Y-122448918D01*
X156182252Y-122269987D01*
X156409987Y-122042252D01*
X156410000Y-122042233D01*
X156410013Y-122042252D01*
X156637748Y-122269987D01*
X156905537Y-122448918D01*
X157203088Y-122572168D01*
X157518967Y-122635000D01*
X157841033Y-122635000D01*
X158156912Y-122572168D01*
X158454463Y-122448918D01*
X158722252Y-122269987D01*
X158949987Y-122042252D01*
X158950000Y-122042233D01*
X158950013Y-122042252D01*
X159177748Y-122269987D01*
X159445537Y-122448918D01*
X159743088Y-122572168D01*
X160058967Y-122635000D01*
X160381033Y-122635000D01*
X160696912Y-122572168D01*
X160994463Y-122448918D01*
X161262252Y-122269987D01*
X161489987Y-122042252D01*
X161490000Y-122042233D01*
X161490013Y-122042252D01*
X161717748Y-122269987D01*
X161985537Y-122448918D01*
X162283088Y-122572168D01*
X162598967Y-122635000D01*
X162921033Y-122635000D01*
X163236912Y-122572168D01*
X163534463Y-122448918D01*
X163802252Y-122269987D01*
X164029987Y-122042252D01*
X164030000Y-122042233D01*
X164030013Y-122042252D01*
X164257748Y-122269987D01*
X164525537Y-122448918D01*
X164823088Y-122572168D01*
X165138967Y-122635000D01*
X165461033Y-122635000D01*
X165776912Y-122572168D01*
X166074463Y-122448918D01*
X166342252Y-122269987D01*
X166569987Y-122042252D01*
X166570000Y-122042233D01*
X166570013Y-122042252D01*
X166797748Y-122269987D01*
X167065537Y-122448918D01*
X167363088Y-122572168D01*
X167678967Y-122635000D01*
X168001033Y-122635000D01*
X168316912Y-122572168D01*
X168614463Y-122448918D01*
X168882252Y-122269987D01*
X169109987Y-122042252D01*
X169110000Y-122042233D01*
X169110013Y-122042252D01*
X169337748Y-122269987D01*
X169605537Y-122448918D01*
X169903088Y-122572168D01*
X170218967Y-122635000D01*
X170541033Y-122635000D01*
X170856912Y-122572168D01*
X171154463Y-122448918D01*
X171422252Y-122269987D01*
X171649987Y-122042252D01*
X171650000Y-122042233D01*
X171650013Y-122042252D01*
X171877748Y-122269987D01*
X172145537Y-122448918D01*
X172443088Y-122572168D01*
X172758967Y-122635000D01*
X173081033Y-122635000D01*
X173396912Y-122572168D01*
X173694463Y-122448918D01*
X173962252Y-122269987D01*
X174189987Y-122042252D01*
X174190000Y-122042233D01*
X174190013Y-122042252D01*
X174417748Y-122269987D01*
X174685537Y-122448918D01*
X174983088Y-122572168D01*
X175298967Y-122635000D01*
X175621033Y-122635000D01*
X175936912Y-122572168D01*
X176234463Y-122448918D01*
X176444809Y-122308370D01*
X176469463Y-122354494D01*
X176548815Y-122451185D01*
X176645506Y-122530537D01*
X176755820Y-122589502D01*
X176875518Y-122625812D01*
X177000000Y-122638072D01*
X179000000Y-122638072D01*
X179124482Y-122625812D01*
X179244180Y-122589502D01*
X179354494Y-122530537D01*
X179451185Y-122451185D01*
X179530537Y-122354494D01*
X179589502Y-122244180D01*
X179625812Y-122124482D01*
X179638072Y-122000000D01*
X179638072Y-121858665D01*
X182565000Y-121858665D01*
X182565000Y-122141335D01*
X182620147Y-122418574D01*
X182728320Y-122679727D01*
X182885363Y-122914759D01*
X183085241Y-123114637D01*
X183320273Y-123271680D01*
X183581426Y-123379853D01*
X183858665Y-123435000D01*
X184141335Y-123435000D01*
X184418574Y-123379853D01*
X184679727Y-123271680D01*
X184914759Y-123114637D01*
X185114637Y-122914759D01*
X185271680Y-122679727D01*
X185379853Y-122418574D01*
X185435000Y-122141335D01*
X185435000Y-121858665D01*
X185431082Y-121838967D01*
X189865000Y-121838967D01*
X189865000Y-122161033D01*
X189927832Y-122476912D01*
X190051082Y-122774463D01*
X190230013Y-123042252D01*
X190457748Y-123269987D01*
X190725537Y-123448918D01*
X191023088Y-123572168D01*
X191338967Y-123635000D01*
X191661033Y-123635000D01*
X191976912Y-123572168D01*
X192274463Y-123448918D01*
X192542252Y-123269987D01*
X192769987Y-123042252D01*
X192948918Y-122774463D01*
X193072168Y-122476912D01*
X193135000Y-122161033D01*
X193135000Y-121858665D01*
X197565000Y-121858665D01*
X197565000Y-122141335D01*
X197620147Y-122418574D01*
X197728320Y-122679727D01*
X197885363Y-122914759D01*
X198085241Y-123114637D01*
X198320273Y-123271680D01*
X198581426Y-123379853D01*
X198858665Y-123435000D01*
X199141335Y-123435000D01*
X199418574Y-123379853D01*
X199679727Y-123271680D01*
X199914759Y-123114637D01*
X200114637Y-122914759D01*
X200271680Y-122679727D01*
X200379853Y-122418574D01*
X200435000Y-122141335D01*
X200435000Y-121858665D01*
X200431082Y-121838967D01*
X204365000Y-121838967D01*
X204365000Y-122161033D01*
X204427832Y-122476912D01*
X204551082Y-122774463D01*
X204730013Y-123042252D01*
X204957748Y-123269987D01*
X205225537Y-123448918D01*
X205523088Y-123572168D01*
X205838967Y-123635000D01*
X206161033Y-123635000D01*
X206476912Y-123572168D01*
X206774463Y-123448918D01*
X207042252Y-123269987D01*
X207269987Y-123042252D01*
X207448918Y-122774463D01*
X207475735Y-122709721D01*
X216865000Y-122709721D01*
X216865000Y-123130279D01*
X216947047Y-123542756D01*
X217107988Y-123931302D01*
X217341637Y-124280983D01*
X217639017Y-124578363D01*
X217988698Y-124812012D01*
X218377244Y-124972953D01*
X218789721Y-125055000D01*
X219210279Y-125055000D01*
X219622756Y-124972953D01*
X220011302Y-124812012D01*
X220360983Y-124578363D01*
X220658363Y-124280983D01*
X220892012Y-123931302D01*
X221052953Y-123542756D01*
X221135000Y-123130279D01*
X221135000Y-122709721D01*
X221052953Y-122297244D01*
X220892012Y-121908698D01*
X220658363Y-121559017D01*
X220360983Y-121261637D01*
X220011302Y-121027988D01*
X219622756Y-120867047D01*
X219210279Y-120785000D01*
X218789721Y-120785000D01*
X218377244Y-120867047D01*
X217988698Y-121027988D01*
X217639017Y-121261637D01*
X217341637Y-121559017D01*
X217107988Y-121908698D01*
X216947047Y-122297244D01*
X216865000Y-122709721D01*
X207475735Y-122709721D01*
X207572168Y-122476912D01*
X207635000Y-122161033D01*
X207635000Y-121838967D01*
X207572168Y-121523088D01*
X207448918Y-121225537D01*
X207269987Y-120957748D01*
X207042252Y-120730013D01*
X206774463Y-120551082D01*
X206476912Y-120427832D01*
X206161033Y-120365000D01*
X205838967Y-120365000D01*
X205523088Y-120427832D01*
X205225537Y-120551082D01*
X204957748Y-120730013D01*
X204730013Y-120957748D01*
X204551082Y-121225537D01*
X204427832Y-121523088D01*
X204365000Y-121838967D01*
X200431082Y-121838967D01*
X200379853Y-121581426D01*
X200271680Y-121320273D01*
X200114637Y-121085241D01*
X199914759Y-120885363D01*
X199679727Y-120728320D01*
X199418574Y-120620147D01*
X199141335Y-120565000D01*
X198858665Y-120565000D01*
X198581426Y-120620147D01*
X198320273Y-120728320D01*
X198085241Y-120885363D01*
X197885363Y-121085241D01*
X197728320Y-121320273D01*
X197620147Y-121581426D01*
X197565000Y-121858665D01*
X193135000Y-121858665D01*
X193135000Y-121838967D01*
X193072168Y-121523088D01*
X192948918Y-121225537D01*
X192769987Y-120957748D01*
X192542252Y-120730013D01*
X192274463Y-120551082D01*
X191976912Y-120427832D01*
X191661033Y-120365000D01*
X191338967Y-120365000D01*
X191023088Y-120427832D01*
X190725537Y-120551082D01*
X190457748Y-120730013D01*
X190230013Y-120957748D01*
X190051082Y-121225537D01*
X189927832Y-121523088D01*
X189865000Y-121838967D01*
X185431082Y-121838967D01*
X185379853Y-121581426D01*
X185271680Y-121320273D01*
X185114637Y-121085241D01*
X184914759Y-120885363D01*
X184679727Y-120728320D01*
X184418574Y-120620147D01*
X184141335Y-120565000D01*
X183858665Y-120565000D01*
X183581426Y-120620147D01*
X183320273Y-120728320D01*
X183085241Y-120885363D01*
X182885363Y-121085241D01*
X182728320Y-121320273D01*
X182620147Y-121581426D01*
X182565000Y-121858665D01*
X179638072Y-121858665D01*
X179638072Y-120000000D01*
X179625812Y-119875518D01*
X179589502Y-119755820D01*
X179530537Y-119645506D01*
X179451185Y-119548815D01*
X179354494Y-119469463D01*
X179244180Y-119410498D01*
X179124482Y-119374188D01*
X179000000Y-119361928D01*
X177000000Y-119361928D01*
X176875518Y-119374188D01*
X176755820Y-119410498D01*
X176645506Y-119469463D01*
X176548815Y-119548815D01*
X176469463Y-119645506D01*
X176444809Y-119691630D01*
X176234463Y-119551082D01*
X175936912Y-119427832D01*
X175621033Y-119365000D01*
X175298967Y-119365000D01*
X174983088Y-119427832D01*
X174685537Y-119551082D01*
X174417748Y-119730013D01*
X174190013Y-119957748D01*
X174190000Y-119957767D01*
X174189987Y-119957748D01*
X173962252Y-119730013D01*
X173694463Y-119551082D01*
X173396912Y-119427832D01*
X173081033Y-119365000D01*
X172758967Y-119365000D01*
X172443088Y-119427832D01*
X172145537Y-119551082D01*
X171877748Y-119730013D01*
X171650013Y-119957748D01*
X171650000Y-119957767D01*
X171649987Y-119957748D01*
X171422252Y-119730013D01*
X171154463Y-119551082D01*
X170856912Y-119427832D01*
X170541033Y-119365000D01*
X170218967Y-119365000D01*
X169903088Y-119427832D01*
X169605537Y-119551082D01*
X169337748Y-119730013D01*
X169110013Y-119957748D01*
X169110000Y-119957767D01*
X169109987Y-119957748D01*
X168882252Y-119730013D01*
X168614463Y-119551082D01*
X168316912Y-119427832D01*
X168001033Y-119365000D01*
X167678967Y-119365000D01*
X167363088Y-119427832D01*
X167065537Y-119551082D01*
X166797748Y-119730013D01*
X166570013Y-119957748D01*
X166570000Y-119957767D01*
X166569987Y-119957748D01*
X166342252Y-119730013D01*
X166074463Y-119551082D01*
X165776912Y-119427832D01*
X165461033Y-119365000D01*
X165138967Y-119365000D01*
X164823088Y-119427832D01*
X164525537Y-119551082D01*
X164257748Y-119730013D01*
X164030013Y-119957748D01*
X164030000Y-119957767D01*
X164029987Y-119957748D01*
X163802252Y-119730013D01*
X163534463Y-119551082D01*
X163236912Y-119427832D01*
X162921033Y-119365000D01*
X162598967Y-119365000D01*
X162283088Y-119427832D01*
X161985537Y-119551082D01*
X161717748Y-119730013D01*
X161490013Y-119957748D01*
X161490000Y-119957767D01*
X161489987Y-119957748D01*
X161262252Y-119730013D01*
X160994463Y-119551082D01*
X160696912Y-119427832D01*
X160381033Y-119365000D01*
X160058967Y-119365000D01*
X159743088Y-119427832D01*
X159445537Y-119551082D01*
X159177748Y-119730013D01*
X158950013Y-119957748D01*
X158950000Y-119957767D01*
X158949987Y-119957748D01*
X158722252Y-119730013D01*
X158454463Y-119551082D01*
X158156912Y-119427832D01*
X157841033Y-119365000D01*
X157518967Y-119365000D01*
X157203088Y-119427832D01*
X156905537Y-119551082D01*
X156637748Y-119730013D01*
X156410013Y-119957748D01*
X156410000Y-119957767D01*
X156409987Y-119957748D01*
X156182252Y-119730013D01*
X155914463Y-119551082D01*
X155616912Y-119427832D01*
X155301033Y-119365000D01*
X154978967Y-119365000D01*
X154663088Y-119427832D01*
X154365537Y-119551082D01*
X154097748Y-119730013D01*
X153870013Y-119957748D01*
X153870000Y-119957767D01*
X153869987Y-119957748D01*
X153642252Y-119730013D01*
X153374463Y-119551082D01*
X153076912Y-119427832D01*
X152761033Y-119365000D01*
X152438967Y-119365000D01*
X152123088Y-119427832D01*
X151825537Y-119551082D01*
X151557748Y-119730013D01*
X151330013Y-119957748D01*
X151330000Y-119957767D01*
X151329987Y-119957748D01*
X151102252Y-119730013D01*
X150834463Y-119551082D01*
X150536912Y-119427832D01*
X150221033Y-119365000D01*
X149898967Y-119365000D01*
X149583088Y-119427832D01*
X149285537Y-119551082D01*
X149017748Y-119730013D01*
X148790013Y-119957748D01*
X148790000Y-119957767D01*
X148789987Y-119957748D01*
X148562252Y-119730013D01*
X148294463Y-119551082D01*
X147996912Y-119427832D01*
X147681033Y-119365000D01*
X147358967Y-119365000D01*
X147043088Y-119427832D01*
X146745537Y-119551082D01*
X146477748Y-119730013D01*
X146250013Y-119957748D01*
X146250000Y-119957767D01*
X146249987Y-119957748D01*
X146022252Y-119730013D01*
X145754463Y-119551082D01*
X145456912Y-119427832D01*
X145141033Y-119365000D01*
X144818967Y-119365000D01*
X144503088Y-119427832D01*
X144205537Y-119551082D01*
X143937748Y-119730013D01*
X143710013Y-119957748D01*
X143710000Y-119957767D01*
X143709987Y-119957748D01*
X143482252Y-119730013D01*
X143214463Y-119551082D01*
X142916912Y-119427832D01*
X142601033Y-119365000D01*
X142278967Y-119365000D01*
X141963088Y-119427832D01*
X141665537Y-119551082D01*
X141397748Y-119730013D01*
X141170013Y-119957748D01*
X140991082Y-120225537D01*
X140867832Y-120523088D01*
X140805000Y-120838967D01*
X135660000Y-120838967D01*
X135660000Y-118669117D01*
X211265000Y-118669117D01*
X211265000Y-119010883D01*
X211331675Y-119346081D01*
X211462463Y-119661831D01*
X211652337Y-119945998D01*
X211894002Y-120187663D01*
X212178169Y-120377537D01*
X212493919Y-120508325D01*
X212829117Y-120575000D01*
X213170883Y-120575000D01*
X213506081Y-120508325D01*
X213821831Y-120377537D01*
X214105998Y-120187663D01*
X214347663Y-119945998D01*
X214537537Y-119661831D01*
X214668325Y-119346081D01*
X214735000Y-119010883D01*
X214735000Y-118669117D01*
X214668325Y-118333919D01*
X214537537Y-118018169D01*
X214347663Y-117734002D01*
X214105998Y-117492337D01*
X213821831Y-117302463D01*
X213506081Y-117171675D01*
X213170883Y-117105000D01*
X212829117Y-117105000D01*
X212493919Y-117171675D01*
X212178169Y-117302463D01*
X211894002Y-117492337D01*
X211652337Y-117734002D01*
X211462463Y-118018169D01*
X211331675Y-118333919D01*
X211265000Y-118669117D01*
X135660000Y-118669117D01*
X135660000Y-113568115D01*
X136615000Y-113568115D01*
X136615000Y-114431885D01*
X136783513Y-115279057D01*
X137114064Y-116077076D01*
X137593948Y-116795274D01*
X138204726Y-117406052D01*
X138922924Y-117885936D01*
X139720943Y-118216487D01*
X140568115Y-118385000D01*
X141431885Y-118385000D01*
X142279057Y-118216487D01*
X143077076Y-117885936D01*
X143795274Y-117406052D01*
X144406052Y-116795274D01*
X144885936Y-116077076D01*
X145216487Y-115279057D01*
X145385000Y-114431885D01*
X145385000Y-113568115D01*
X216615000Y-113568115D01*
X216615000Y-114431885D01*
X216783513Y-115279057D01*
X217114064Y-116077076D01*
X217593948Y-116795274D01*
X218204726Y-117406052D01*
X218922924Y-117885936D01*
X219720943Y-118216487D01*
X220568115Y-118385000D01*
X221431885Y-118385000D01*
X222279057Y-118216487D01*
X223077076Y-117885936D01*
X223795274Y-117406052D01*
X224406052Y-116795274D01*
X224885936Y-116077076D01*
X225216487Y-115279057D01*
X225385000Y-114431885D01*
X225385000Y-113568115D01*
X225216487Y-112720943D01*
X224885936Y-111922924D01*
X224406052Y-111204726D01*
X223795274Y-110593948D01*
X223077076Y-110114064D01*
X222279057Y-109783513D01*
X221431885Y-109615000D01*
X220568115Y-109615000D01*
X219720943Y-109783513D01*
X218922924Y-110114064D01*
X218204726Y-110593948D01*
X217593948Y-111204726D01*
X217114064Y-111922924D01*
X216783513Y-112720943D01*
X216615000Y-113568115D01*
X145385000Y-113568115D01*
X145216487Y-112720943D01*
X144885936Y-111922924D01*
X144406052Y-111204726D01*
X143795274Y-110593948D01*
X143077076Y-110114064D01*
X142279057Y-109783513D01*
X141431885Y-109615000D01*
X140568115Y-109615000D01*
X139720943Y-109783513D01*
X138922924Y-110114064D01*
X138204726Y-110593948D01*
X137593948Y-111204726D01*
X137114064Y-111922924D01*
X136783513Y-112720943D01*
X136615000Y-113568115D01*
X135660000Y-113568115D01*
X135660000Y-113029392D01*
X135731173Y-112231917D01*
X135934656Y-111488109D01*
X136266638Y-110792095D01*
X136716626Y-110165870D01*
X137270403Y-109629223D01*
X137910451Y-109199129D01*
X138616553Y-108889171D01*
X139371457Y-108707935D01*
X140024207Y-108660000D01*
X221970608Y-108660000D01*
X222768083Y-108731173D01*
G37*
X222768083Y-108731173D02*
X223511891Y-108934656D01*
X224207905Y-109266638D01*
X224834130Y-109716626D01*
X225370777Y-110270403D01*
X225800871Y-110910451D01*
X226110829Y-111616553D01*
X226292065Y-112371457D01*
X226340000Y-113024207D01*
X226340001Y-174970597D01*
X226268827Y-175768083D01*
X226065344Y-176511890D01*
X225733363Y-177207904D01*
X225283374Y-177834130D01*
X224729597Y-178370777D01*
X224089549Y-178800871D01*
X223383447Y-179110829D01*
X222628543Y-179292065D01*
X221975793Y-179340000D01*
X140029392Y-179340000D01*
X139231917Y-179268827D01*
X138488110Y-179065344D01*
X137792096Y-178733363D01*
X137165870Y-178283374D01*
X136629223Y-177729597D01*
X136199129Y-177089549D01*
X135889171Y-176383447D01*
X135707935Y-175628543D01*
X135660000Y-174975793D01*
X135660000Y-173568115D01*
X136615000Y-173568115D01*
X136615000Y-174431885D01*
X136783513Y-175279057D01*
X137114064Y-176077076D01*
X137593948Y-176795274D01*
X138204726Y-177406052D01*
X138922924Y-177885936D01*
X139720943Y-178216487D01*
X140568115Y-178385000D01*
X141431885Y-178385000D01*
X142279057Y-178216487D01*
X143077076Y-177885936D01*
X143795274Y-177406052D01*
X144406052Y-176795274D01*
X144885936Y-176077076D01*
X145216487Y-175279057D01*
X145385000Y-174431885D01*
X145385000Y-173568115D01*
X145216487Y-172720943D01*
X145187102Y-172650000D01*
X150511928Y-172650000D01*
X150511928Y-174350000D01*
X150524188Y-174474482D01*
X150560498Y-174594180D01*
X150619463Y-174704494D01*
X150698815Y-174801185D01*
X150795506Y-174880537D01*
X150905820Y-174939502D01*
X151025518Y-174975812D01*
X151150000Y-174988072D01*
X152850000Y-174988072D01*
X152974482Y-174975812D01*
X153094180Y-174939502D01*
X153204494Y-174880537D01*
X153301185Y-174801185D01*
X153380537Y-174704494D01*
X153439502Y-174594180D01*
X153461513Y-174521620D01*
X153593368Y-174653475D01*
X153836589Y-174815990D01*
X154106842Y-174927932D01*
X154393740Y-174985000D01*
X154686260Y-174985000D01*
X154973158Y-174927932D01*
X155243411Y-174815990D01*
X155486632Y-174653475D01*
X155693475Y-174446632D01*
X155810000Y-174272240D01*
X155926525Y-174446632D01*
X156133368Y-174653475D01*
X156376589Y-174815990D01*
X156646842Y-174927932D01*
X156933740Y-174985000D01*
X157226260Y-174985000D01*
X157513158Y-174927932D01*
X157783411Y-174815990D01*
X158026632Y-174653475D01*
X158233475Y-174446632D01*
X158395990Y-174203411D01*
X158507932Y-173933158D01*
X158565000Y-173646260D01*
X158565000Y-173353740D01*
X158507932Y-173066842D01*
X158395990Y-172796589D01*
X158298043Y-172650000D01*
X160511928Y-172650000D01*
X160511928Y-174350000D01*
X160524188Y-174474482D01*
X160560498Y-174594180D01*
X160619463Y-174704494D01*
X160698815Y-174801185D01*
X160795506Y-174880537D01*
X160905820Y-174939502D01*
X161025518Y-174975812D01*
X161150000Y-174988072D01*
X162850000Y-174988072D01*
X162974482Y-174975812D01*
X163094180Y-174939502D01*
X163204494Y-174880537D01*
X163301185Y-174801185D01*
X163380537Y-174704494D01*
X163439502Y-174594180D01*
X163461513Y-174521620D01*
X163593368Y-174653475D01*
X163836589Y-174815990D01*
X164106842Y-174927932D01*
X164393740Y-174985000D01*
X164686260Y-174985000D01*
X164973158Y-174927932D01*
X165243411Y-174815990D01*
X165486632Y-174653475D01*
X165693475Y-174446632D01*
X165810000Y-174272240D01*
X165926525Y-174446632D01*
X166133368Y-174653475D01*
X166376589Y-174815990D01*
X166646842Y-174927932D01*
X166933740Y-174985000D01*
X167226260Y-174985000D01*
X167513158Y-174927932D01*
X167783411Y-174815990D01*
X168026632Y-174653475D01*
X168233475Y-174446632D01*
X168350000Y-174272240D01*
X168466525Y-174446632D01*
X168673368Y-174653475D01*
X168916589Y-174815990D01*
X169186842Y-174927932D01*
X169473740Y-174985000D01*
X169766260Y-174985000D01*
X170053158Y-174927932D01*
X170323411Y-174815990D01*
X170566632Y-174653475D01*
X170773475Y-174446632D01*
X170935990Y-174203411D01*
X171047932Y-173933158D01*
X171063729Y-173853740D01*
X179895000Y-173853740D01*
X179895000Y-174146260D01*
X179952068Y-174433158D01*
X180064010Y-174703411D01*
X180226525Y-174946632D01*
X180433368Y-175153475D01*
X180676589Y-175315990D01*
X180946842Y-175427932D01*
X181233740Y-175485000D01*
X181526260Y-175485000D01*
X181813158Y-175427932D01*
X182083411Y-175315990D01*
X182326632Y-175153475D01*
X182533475Y-174946632D01*
X182650000Y-174772240D01*
X182766525Y-174946632D01*
X182973368Y-175153475D01*
X183216589Y-175315990D01*
X183486842Y-175427932D01*
X183773740Y-175485000D01*
X184066260Y-175485000D01*
X184353158Y-175427932D01*
X184623411Y-175315990D01*
X184866632Y-175153475D01*
X185073475Y-174946632D01*
X185190000Y-174772240D01*
X185306525Y-174946632D01*
X185513368Y-175153475D01*
X185756589Y-175315990D01*
X186026842Y-175427932D01*
X186313740Y-175485000D01*
X186606260Y-175485000D01*
X186893158Y-175427932D01*
X187163411Y-175315990D01*
X187406632Y-175153475D01*
X187538487Y-175021620D01*
X187560498Y-175094180D01*
X187619463Y-175204494D01*
X187698815Y-175301185D01*
X187795506Y-175380537D01*
X187905820Y-175439502D01*
X188025518Y-175475812D01*
X188150000Y-175488072D01*
X189850000Y-175488072D01*
X189974482Y-175475812D01*
X190094180Y-175439502D01*
X190204494Y-175380537D01*
X190301185Y-175301185D01*
X190380537Y-175204494D01*
X190439502Y-175094180D01*
X190475812Y-174974482D01*
X190488072Y-174850000D01*
X190488072Y-173150000D01*
X190475812Y-173025518D01*
X190439502Y-172905820D01*
X190380537Y-172795506D01*
X190301185Y-172698815D01*
X190204494Y-172619463D01*
X190094180Y-172560498D01*
X189974482Y-172524188D01*
X189850000Y-172511928D01*
X188150000Y-172511928D01*
X188025518Y-172524188D01*
X187905820Y-172560498D01*
X187795506Y-172619463D01*
X187698815Y-172698815D01*
X187619463Y-172795506D01*
X187560498Y-172905820D01*
X187538487Y-172978380D01*
X187406632Y-172846525D01*
X187163411Y-172684010D01*
X186893158Y-172572068D01*
X186606260Y-172515000D01*
X186313740Y-172515000D01*
X186026842Y-172572068D01*
X185756589Y-172684010D01*
X185513368Y-172846525D01*
X185306525Y-173053368D01*
X185190000Y-173227760D01*
X185073475Y-173053368D01*
X184866632Y-172846525D01*
X184623411Y-172684010D01*
X184353158Y-172572068D01*
X184066260Y-172515000D01*
X183773740Y-172515000D01*
X183486842Y-172572068D01*
X183216589Y-172684010D01*
X182973368Y-172846525D01*
X182766525Y-173053368D01*
X182650000Y-173227760D01*
X182533475Y-173053368D01*
X182326632Y-172846525D01*
X182083411Y-172684010D01*
X181813158Y-172572068D01*
X181526260Y-172515000D01*
X181233740Y-172515000D01*
X180946842Y-172572068D01*
X180676589Y-172684010D01*
X180433368Y-172846525D01*
X180226525Y-173053368D01*
X180064010Y-173296589D01*
X179952068Y-173566842D01*
X179895000Y-173853740D01*
X171063729Y-173853740D01*
X171105000Y-173646260D01*
X171105000Y-173353740D01*
X171047932Y-173066842D01*
X170935990Y-172796589D01*
X170773475Y-172553368D01*
X170566632Y-172346525D01*
X170323411Y-172184010D01*
X170053158Y-172072068D01*
X169766260Y-172015000D01*
X169473740Y-172015000D01*
X169186842Y-172072068D01*
X168916589Y-172184010D01*
X168673368Y-172346525D01*
X168466525Y-172553368D01*
X168350000Y-172727760D01*
X168233475Y-172553368D01*
X168026632Y-172346525D01*
X167783411Y-172184010D01*
X167513158Y-172072068D01*
X167226260Y-172015000D01*
X166933740Y-172015000D01*
X166646842Y-172072068D01*
X166376589Y-172184010D01*
X166133368Y-172346525D01*
X165926525Y-172553368D01*
X165810000Y-172727760D01*
X165693475Y-172553368D01*
X165486632Y-172346525D01*
X165243411Y-172184010D01*
X164973158Y-172072068D01*
X164686260Y-172015000D01*
X164393740Y-172015000D01*
X164106842Y-172072068D01*
X163836589Y-172184010D01*
X163593368Y-172346525D01*
X163461513Y-172478380D01*
X163439502Y-172405820D01*
X163380537Y-172295506D01*
X163301185Y-172198815D01*
X163204494Y-172119463D01*
X163094180Y-172060498D01*
X162974482Y-172024188D01*
X162850000Y-172011928D01*
X161150000Y-172011928D01*
X161025518Y-172024188D01*
X160905820Y-172060498D01*
X160795506Y-172119463D01*
X160698815Y-172198815D01*
X160619463Y-172295506D01*
X160560498Y-172405820D01*
X160524188Y-172525518D01*
X160511928Y-172650000D01*
X158298043Y-172650000D01*
X158233475Y-172553368D01*
X158026632Y-172346525D01*
X157783411Y-172184010D01*
X157513158Y-172072068D01*
X157226260Y-172015000D01*
X156933740Y-172015000D01*
X156646842Y-172072068D01*
X156376589Y-172184010D01*
X156133368Y-172346525D01*
X155926525Y-172553368D01*
X155810000Y-172727760D01*
X155693475Y-172553368D01*
X155486632Y-172346525D01*
X155243411Y-172184010D01*
X154973158Y-172072068D01*
X154686260Y-172015000D01*
X154393740Y-172015000D01*
X154106842Y-172072068D01*
X153836589Y-172184010D01*
X153593368Y-172346525D01*
X153461513Y-172478380D01*
X153439502Y-172405820D01*
X153380537Y-172295506D01*
X153301185Y-172198815D01*
X153204494Y-172119463D01*
X153094180Y-172060498D01*
X152974482Y-172024188D01*
X152850000Y-172011928D01*
X151150000Y-172011928D01*
X151025518Y-172024188D01*
X150905820Y-172060498D01*
X150795506Y-172119463D01*
X150698815Y-172198815D01*
X150619463Y-172295506D01*
X150560498Y-172405820D01*
X150524188Y-172525518D01*
X150511928Y-172650000D01*
X145187102Y-172650000D01*
X144885936Y-171922924D01*
X144436304Y-171250000D01*
X202111928Y-171250000D01*
X202111928Y-174250000D01*
X202124188Y-174374482D01*
X202160498Y-174494180D01*
X202219463Y-174604494D01*
X202298815Y-174701185D01*
X202395506Y-174780537D01*
X202505820Y-174839502D01*
X202625518Y-174875812D01*
X202750000Y-174888072D01*
X205750000Y-174888072D01*
X205874482Y-174875812D01*
X205994180Y-174839502D01*
X206104494Y-174780537D01*
X206201185Y-174701185D01*
X206280537Y-174604494D01*
X206339502Y-174494180D01*
X206375812Y-174374482D01*
X206388072Y-174250000D01*
X206388072Y-172539721D01*
X207195000Y-172539721D01*
X207195000Y-172960279D01*
X207277047Y-173372756D01*
X207437988Y-173761302D01*
X207671637Y-174110983D01*
X207969017Y-174408363D01*
X208318698Y-174642012D01*
X208707244Y-174802953D01*
X209119721Y-174885000D01*
X209540279Y-174885000D01*
X209952756Y-174802953D01*
X210341302Y-174642012D01*
X210690983Y-174408363D01*
X210988363Y-174110983D01*
X211222012Y-173761302D01*
X211302032Y-173568115D01*
X216615000Y-173568115D01*
X216615000Y-174431885D01*
X216783513Y-175279057D01*
X217114064Y-176077076D01*
X217593948Y-176795274D01*
X218204726Y-177406052D01*
X218922924Y-177885936D01*
X219720943Y-178216487D01*
X220568115Y-178385000D01*
X221431885Y-178385000D01*
X222279057Y-178216487D01*
X223077076Y-177885936D01*
X223795274Y-177406052D01*
X224406052Y-176795274D01*
X224885936Y-176077076D01*
X225216487Y-175279057D01*
X225385000Y-174431885D01*
X225385000Y-173568115D01*
X225216487Y-172720943D01*
X224885936Y-171922924D01*
X224406052Y-171204726D01*
X223795274Y-170593948D01*
X223077076Y-170114064D01*
X222279057Y-169783513D01*
X221431885Y-169615000D01*
X220568115Y-169615000D01*
X219720943Y-169783513D01*
X218922924Y-170114064D01*
X218204726Y-170593948D01*
X217593948Y-171204726D01*
X217114064Y-171922924D01*
X216783513Y-172720943D01*
X216615000Y-173568115D01*
X211302032Y-173568115D01*
X211382953Y-173372756D01*
X211465000Y-172960279D01*
X211465000Y-172539721D01*
X211382953Y-172127244D01*
X211222012Y-171738698D01*
X210988363Y-171389017D01*
X210690983Y-171091637D01*
X210341302Y-170857988D01*
X209952756Y-170697047D01*
X209540279Y-170615000D01*
X209119721Y-170615000D01*
X208707244Y-170697047D01*
X208318698Y-170857988D01*
X207969017Y-171091637D01*
X207671637Y-171389017D01*
X207437988Y-171738698D01*
X207277047Y-172127244D01*
X207195000Y-172539721D01*
X206388072Y-172539721D01*
X206388072Y-171250000D01*
X206375812Y-171125518D01*
X206339502Y-171005820D01*
X206280537Y-170895506D01*
X206201185Y-170798815D01*
X206104494Y-170719463D01*
X205994180Y-170660498D01*
X205874482Y-170624188D01*
X205750000Y-170611928D01*
X202750000Y-170611928D01*
X202625518Y-170624188D01*
X202505820Y-170660498D01*
X202395506Y-170719463D01*
X202298815Y-170798815D01*
X202219463Y-170895506D01*
X202160498Y-171005820D01*
X202124188Y-171125518D01*
X202111928Y-171250000D01*
X144436304Y-171250000D01*
X144406052Y-171204726D01*
X143795274Y-170593948D01*
X143077076Y-170114064D01*
X142279057Y-169783513D01*
X141431885Y-169615000D01*
X140568115Y-169615000D01*
X139720943Y-169783513D01*
X138922924Y-170114064D01*
X138204726Y-170593948D01*
X137593948Y-171204726D01*
X137114064Y-171922924D01*
X136783513Y-172720943D01*
X136615000Y-173568115D01*
X135660000Y-173568115D01*
X135660000Y-161150000D01*
X139511928Y-161150000D01*
X139511928Y-162850000D01*
X139524188Y-162974482D01*
X139560498Y-163094180D01*
X139619463Y-163204494D01*
X139698815Y-163301185D01*
X139795506Y-163380537D01*
X139905820Y-163439502D01*
X139978380Y-163461513D01*
X139846525Y-163593368D01*
X139684010Y-163836589D01*
X139572068Y-164106842D01*
X139515000Y-164393740D01*
X139515000Y-164686260D01*
X139572068Y-164973158D01*
X139684010Y-165243411D01*
X139846525Y-165486632D01*
X140053368Y-165693475D01*
X140227760Y-165810000D01*
X140053368Y-165926525D01*
X139846525Y-166133368D01*
X139684010Y-166376589D01*
X139572068Y-166646842D01*
X139515000Y-166933740D01*
X139515000Y-167226260D01*
X139572068Y-167513158D01*
X139684010Y-167783411D01*
X139846525Y-168026632D01*
X140053368Y-168233475D01*
X140296589Y-168395990D01*
X140566842Y-168507932D01*
X140853740Y-168565000D01*
X141146260Y-168565000D01*
X141433158Y-168507932D01*
X141703411Y-168395990D01*
X141946632Y-168233475D01*
X142153475Y-168026632D01*
X142315990Y-167783411D01*
X142427932Y-167513158D01*
X142485000Y-167226260D01*
X142485000Y-166933740D01*
X142427932Y-166646842D01*
X142315990Y-166376589D01*
X142153475Y-166133368D01*
X141946632Y-165926525D01*
X141772240Y-165810000D01*
X141946632Y-165693475D01*
X142153475Y-165486632D01*
X142315990Y-165243411D01*
X142427932Y-164973158D01*
X142485000Y-164686260D01*
X142485000Y-164393740D01*
X142427932Y-164106842D01*
X142315990Y-163836589D01*
X142153475Y-163593368D01*
X142021620Y-163461513D01*
X142094180Y-163439502D01*
X142204494Y-163380537D01*
X142301185Y-163301185D01*
X142380537Y-163204494D01*
X142439502Y-163094180D01*
X142475812Y-162974482D01*
X142488072Y-162850000D01*
X142488072Y-161228665D01*
X149565000Y-161228665D01*
X149565000Y-161511335D01*
X149620147Y-161788574D01*
X149728320Y-162049727D01*
X149885363Y-162284759D01*
X150085241Y-162484637D01*
X150320273Y-162641680D01*
X150581426Y-162749853D01*
X150858665Y-162805000D01*
X151141335Y-162805000D01*
X151418574Y-162749853D01*
X151679727Y-162641680D01*
X151914759Y-162484637D01*
X152114637Y-162284759D01*
X152271680Y-162049727D01*
X152379853Y-161788574D01*
X152435000Y-161511335D01*
X152435000Y-161228665D01*
X153065000Y-161228665D01*
X153065000Y-161511335D01*
X153120147Y-161788574D01*
X153228320Y-162049727D01*
X153385363Y-162284759D01*
X153585241Y-162484637D01*
X153820273Y-162641680D01*
X154081426Y-162749853D01*
X154358665Y-162805000D01*
X154641335Y-162805000D01*
X154918574Y-162749853D01*
X155179727Y-162641680D01*
X155414759Y-162484637D01*
X155614637Y-162284759D01*
X155771680Y-162049727D01*
X155879853Y-161788574D01*
X155935000Y-161511335D01*
X155935000Y-161278665D01*
X156765000Y-161278665D01*
X156765000Y-161561335D01*
X156820147Y-161838574D01*
X156928320Y-162099727D01*
X157085363Y-162334759D01*
X157285241Y-162534637D01*
X157520273Y-162691680D01*
X157781426Y-162799853D01*
X158058665Y-162855000D01*
X158341335Y-162855000D01*
X158618574Y-162799853D01*
X158879727Y-162691680D01*
X159114759Y-162534637D01*
X159314637Y-162334759D01*
X159471680Y-162099727D01*
X159579853Y-161838574D01*
X159635000Y-161561335D01*
X159635000Y-161278665D01*
X159579853Y-161001426D01*
X159471680Y-160740273D01*
X159314637Y-160505241D01*
X159114759Y-160305363D01*
X158879727Y-160148320D01*
X158618574Y-160040147D01*
X158341335Y-159985000D01*
X158058665Y-159985000D01*
X157781426Y-160040147D01*
X157520273Y-160148320D01*
X157285241Y-160305363D01*
X157085363Y-160505241D01*
X156928320Y-160740273D01*
X156820147Y-161001426D01*
X156765000Y-161278665D01*
X155935000Y-161278665D01*
X155935000Y-161228665D01*
X155879853Y-160951426D01*
X155771680Y-160690273D01*
X155614637Y-160455241D01*
X155414759Y-160255363D01*
X155179727Y-160098320D01*
X154918574Y-159990147D01*
X154641335Y-159935000D01*
X154358665Y-159935000D01*
X154081426Y-159990147D01*
X153820273Y-160098320D01*
X153585241Y-160255363D01*
X153385363Y-160455241D01*
X153228320Y-160690273D01*
X153120147Y-160951426D01*
X153065000Y-161228665D01*
X152435000Y-161228665D01*
X152379853Y-160951426D01*
X152271680Y-160690273D01*
X152114637Y-160455241D01*
X151914759Y-160255363D01*
X151679727Y-160098320D01*
X151418574Y-159990147D01*
X151141335Y-159935000D01*
X150858665Y-159935000D01*
X150581426Y-159990147D01*
X150320273Y-160098320D01*
X150085241Y-160255363D01*
X149885363Y-160455241D01*
X149728320Y-160690273D01*
X149620147Y-160951426D01*
X149565000Y-161228665D01*
X142488072Y-161228665D01*
X142488072Y-161150000D01*
X142475812Y-161025518D01*
X142439502Y-160905820D01*
X142380537Y-160795506D01*
X142301185Y-160698815D01*
X142204494Y-160619463D01*
X142094180Y-160560498D01*
X141974482Y-160524188D01*
X141850000Y-160511928D01*
X140150000Y-160511928D01*
X140025518Y-160524188D01*
X139905820Y-160560498D01*
X139795506Y-160619463D01*
X139698815Y-160698815D01*
X139619463Y-160795506D01*
X139560498Y-160905820D01*
X139524188Y-161025518D01*
X139511928Y-161150000D01*
X135660000Y-161150000D01*
X135660000Y-157150000D01*
X139511928Y-157150000D01*
X139511928Y-158850000D01*
X139524188Y-158974482D01*
X139560498Y-159094180D01*
X139619463Y-159204494D01*
X139698815Y-159301185D01*
X139795506Y-159380537D01*
X139905820Y-159439502D01*
X140025518Y-159475812D01*
X140150000Y-159488072D01*
X141850000Y-159488072D01*
X141974482Y-159475812D01*
X142094180Y-159439502D01*
X142204494Y-159380537D01*
X142301185Y-159301185D01*
X142380537Y-159204494D01*
X142439502Y-159094180D01*
X142475812Y-158974482D01*
X142488072Y-158850000D01*
X142488072Y-157150000D01*
X142475812Y-157025518D01*
X142439502Y-156905820D01*
X142380537Y-156795506D01*
X142301185Y-156698815D01*
X142204494Y-156619463D01*
X142094180Y-156560498D01*
X142021620Y-156538487D01*
X142153475Y-156406632D01*
X142315990Y-156163411D01*
X142427932Y-155893158D01*
X142485000Y-155606260D01*
X142485000Y-155313740D01*
X142427932Y-155026842D01*
X142315990Y-154756589D01*
X142153475Y-154513368D01*
X141946632Y-154306525D01*
X141772240Y-154190000D01*
X141946632Y-154073475D01*
X142153475Y-153866632D01*
X142315990Y-153623411D01*
X142322097Y-153608665D01*
X149565000Y-153608665D01*
X149565000Y-153891335D01*
X149620147Y-154168574D01*
X149728320Y-154429727D01*
X149885363Y-154664759D01*
X150085241Y-154864637D01*
X150320273Y-155021680D01*
X150581426Y-155129853D01*
X150858665Y-155185000D01*
X151141335Y-155185000D01*
X151418574Y-155129853D01*
X151679727Y-155021680D01*
X151914759Y-154864637D01*
X152114637Y-154664759D01*
X152271680Y-154429727D01*
X152379853Y-154168574D01*
X152435000Y-153891335D01*
X152435000Y-153608665D01*
X153065000Y-153608665D01*
X153065000Y-153891335D01*
X153120147Y-154168574D01*
X153228320Y-154429727D01*
X153385363Y-154664759D01*
X153585241Y-154864637D01*
X153820273Y-155021680D01*
X154081426Y-155129853D01*
X154358665Y-155185000D01*
X154641335Y-155185000D01*
X154918574Y-155129853D01*
X155179727Y-155021680D01*
X155414759Y-154864637D01*
X155614637Y-154664759D01*
X155771680Y-154429727D01*
X155879853Y-154168574D01*
X155935000Y-153891335D01*
X155935000Y-153658665D01*
X156765000Y-153658665D01*
X156765000Y-153941335D01*
X156820147Y-154218574D01*
X156928320Y-154479727D01*
X157085363Y-154714759D01*
X157285241Y-154914637D01*
X157520273Y-155071680D01*
X157781426Y-155179853D01*
X158058665Y-155235000D01*
X158341335Y-155235000D01*
X158618574Y-155179853D01*
X158879727Y-155071680D01*
X159114759Y-154914637D01*
X159314637Y-154714759D01*
X159471680Y-154479727D01*
X159579853Y-154218574D01*
X159635000Y-153941335D01*
X159635000Y-153658665D01*
X159579853Y-153381426D01*
X159471680Y-153120273D01*
X159314637Y-152885241D01*
X159114759Y-152685363D01*
X158879727Y-152528320D01*
X158618574Y-152420147D01*
X158341335Y-152365000D01*
X158058665Y-152365000D01*
X157781426Y-152420147D01*
X157520273Y-152528320D01*
X157285241Y-152685363D01*
X157085363Y-152885241D01*
X156928320Y-153120273D01*
X156820147Y-153381426D01*
X156765000Y-153658665D01*
X155935000Y-153658665D01*
X155935000Y-153608665D01*
X155879853Y-153331426D01*
X155771680Y-153070273D01*
X155614637Y-152835241D01*
X155414759Y-152635363D01*
X155179727Y-152478320D01*
X154918574Y-152370147D01*
X154641335Y-152315000D01*
X154358665Y-152315000D01*
X154081426Y-152370147D01*
X153820273Y-152478320D01*
X153585241Y-152635363D01*
X153385363Y-152835241D01*
X153228320Y-153070273D01*
X153120147Y-153331426D01*
X153065000Y-153608665D01*
X152435000Y-153608665D01*
X152379853Y-153331426D01*
X152271680Y-153070273D01*
X152114637Y-152835241D01*
X151914759Y-152635363D01*
X151679727Y-152478320D01*
X151418574Y-152370147D01*
X151141335Y-152315000D01*
X150858665Y-152315000D01*
X150581426Y-152370147D01*
X150320273Y-152478320D01*
X150085241Y-152635363D01*
X149885363Y-152835241D01*
X149728320Y-153070273D01*
X149620147Y-153331426D01*
X149565000Y-153608665D01*
X142322097Y-153608665D01*
X142427932Y-153353158D01*
X142485000Y-153066260D01*
X142485000Y-152773740D01*
X142427932Y-152486842D01*
X142315990Y-152216589D01*
X142153475Y-151973368D01*
X141946632Y-151766525D01*
X141772240Y-151650000D01*
X141946632Y-151533475D01*
X142153475Y-151326632D01*
X142315990Y-151083411D01*
X142427932Y-150813158D01*
X142485000Y-150526260D01*
X142485000Y-150233740D01*
X142450236Y-150058967D01*
X176665000Y-150058967D01*
X176665000Y-150381033D01*
X176727832Y-150696912D01*
X176851082Y-150994463D01*
X177030013Y-151262252D01*
X177257748Y-151489987D01*
X177257767Y-151490000D01*
X177257748Y-151490013D01*
X177030013Y-151717748D01*
X176851082Y-151985537D01*
X176727832Y-152283088D01*
X176665000Y-152598967D01*
X176665000Y-152921033D01*
X176727832Y-153236912D01*
X176851082Y-153534463D01*
X177030013Y-153802252D01*
X177257748Y-154029987D01*
X177257767Y-154030000D01*
X177257748Y-154030013D01*
X177030013Y-154257748D01*
X176851082Y-154525537D01*
X176727832Y-154823088D01*
X176665000Y-155138967D01*
X176665000Y-155461033D01*
X176727832Y-155776912D01*
X176851082Y-156074463D01*
X177030013Y-156342252D01*
X177257748Y-156569987D01*
X177257767Y-156570000D01*
X177257748Y-156570013D01*
X177030013Y-156797748D01*
X176851082Y-157065537D01*
X176727832Y-157363088D01*
X176665000Y-157678967D01*
X176665000Y-158001033D01*
X176727832Y-158316912D01*
X176851082Y-158614463D01*
X177030013Y-158882252D01*
X177257748Y-159109987D01*
X177257767Y-159110000D01*
X177257748Y-159110013D01*
X177030013Y-159337748D01*
X176851082Y-159605537D01*
X176727832Y-159903088D01*
X176665000Y-160218967D01*
X176665000Y-160541033D01*
X176727832Y-160856912D01*
X176851082Y-161154463D01*
X177030013Y-161422252D01*
X177257748Y-161649987D01*
X177257767Y-161650000D01*
X177257748Y-161650013D01*
X177030013Y-161877748D01*
X176851082Y-162145537D01*
X176727832Y-162443088D01*
X176665000Y-162758967D01*
X176665000Y-163081033D01*
X176727832Y-163396912D01*
X176851082Y-163694463D01*
X177030013Y-163962252D01*
X177257748Y-164189987D01*
X177257767Y-164190000D01*
X177257748Y-164190013D01*
X177030013Y-164417748D01*
X176851082Y-164685537D01*
X176727832Y-164983088D01*
X176665000Y-165298967D01*
X176665000Y-165621033D01*
X176727832Y-165936912D01*
X176851082Y-166234463D01*
X177030013Y-166502252D01*
X177257748Y-166729987D01*
X177257767Y-166730000D01*
X177257748Y-166730013D01*
X177030013Y-166957748D01*
X176851082Y-167225537D01*
X176727832Y-167523088D01*
X176665000Y-167838967D01*
X176665000Y-168161033D01*
X176727832Y-168476912D01*
X176851082Y-168774463D01*
X177030013Y-169042252D01*
X177257748Y-169269987D01*
X177525537Y-169448918D01*
X177823088Y-169572168D01*
X178138967Y-169635000D01*
X178461033Y-169635000D01*
X178776912Y-169572168D01*
X179074463Y-169448918D01*
X179342252Y-169269987D01*
X179569987Y-169042252D01*
X179748918Y-168774463D01*
X179872168Y-168476912D01*
X179935000Y-168161033D01*
X179935000Y-167838967D01*
X179872168Y-167523088D01*
X179748918Y-167225537D01*
X179598219Y-167000000D01*
X189361928Y-167000000D01*
X189361928Y-169000000D01*
X189374188Y-169124482D01*
X189410498Y-169244180D01*
X189469463Y-169354494D01*
X189548815Y-169451185D01*
X189645506Y-169530537D01*
X189755820Y-169589502D01*
X189875518Y-169625812D01*
X190000000Y-169638072D01*
X192000000Y-169638072D01*
X192124482Y-169625812D01*
X192244180Y-169589502D01*
X192354494Y-169530537D01*
X192451185Y-169451185D01*
X192530537Y-169354494D01*
X192589502Y-169244180D01*
X192625812Y-169124482D01*
X192638072Y-169000000D01*
X192638072Y-167000000D01*
X192625812Y-166875518D01*
X192589502Y-166755820D01*
X192530537Y-166645506D01*
X192451185Y-166548815D01*
X192354494Y-166469463D01*
X192308370Y-166444809D01*
X192448918Y-166234463D01*
X192572168Y-165936912D01*
X192635000Y-165621033D01*
X192635000Y-165298967D01*
X192572168Y-164983088D01*
X192448918Y-164685537D01*
X192318078Y-164489721D01*
X198365000Y-164489721D01*
X198365000Y-164910279D01*
X198447047Y-165322756D01*
X198607988Y-165711302D01*
X198841637Y-166060983D01*
X199139017Y-166358363D01*
X199488698Y-166592012D01*
X199877244Y-166752953D01*
X200289721Y-166835000D01*
X200710279Y-166835000D01*
X201122756Y-166752953D01*
X201511302Y-166592012D01*
X201860983Y-166358363D01*
X202158363Y-166060983D01*
X202392012Y-165711302D01*
X202552953Y-165322756D01*
X202635000Y-164910279D01*
X202635000Y-164489721D01*
X210365000Y-164489721D01*
X210365000Y-164910279D01*
X210447047Y-165322756D01*
X210607988Y-165711302D01*
X210841637Y-166060983D01*
X211139017Y-166358363D01*
X211488698Y-166592012D01*
X211877244Y-166752953D01*
X212289721Y-166835000D01*
X212710279Y-166835000D01*
X213122756Y-166752953D01*
X213511302Y-166592012D01*
X213860983Y-166358363D01*
X214158363Y-166060983D01*
X214392012Y-165711302D01*
X214552953Y-165322756D01*
X214635000Y-164910279D01*
X214635000Y-164500000D01*
X216861928Y-164500000D01*
X216861928Y-167500000D01*
X216874188Y-167624482D01*
X216910498Y-167744180D01*
X216969463Y-167854494D01*
X217048815Y-167951185D01*
X217145506Y-168030537D01*
X217255820Y-168089502D01*
X217375518Y-168125812D01*
X217500000Y-168138072D01*
X220500000Y-168138072D01*
X220624482Y-168125812D01*
X220744180Y-168089502D01*
X220854494Y-168030537D01*
X220951185Y-167951185D01*
X221030537Y-167854494D01*
X221089502Y-167744180D01*
X221125812Y-167624482D01*
X221138072Y-167500000D01*
X221138072Y-164500000D01*
X221125812Y-164375518D01*
X221089502Y-164255820D01*
X221030537Y-164145506D01*
X220951185Y-164048815D01*
X220854494Y-163969463D01*
X220744180Y-163910498D01*
X220624482Y-163874188D01*
X220500000Y-163861928D01*
X217500000Y-163861928D01*
X217375518Y-163874188D01*
X217255820Y-163910498D01*
X217145506Y-163969463D01*
X217048815Y-164048815D01*
X216969463Y-164145506D01*
X216910498Y-164255820D01*
X216874188Y-164375518D01*
X216861928Y-164500000D01*
X214635000Y-164500000D01*
X214635000Y-164489721D01*
X214552953Y-164077244D01*
X214392012Y-163688698D01*
X214158363Y-163339017D01*
X213860983Y-163041637D01*
X213511302Y-162807988D01*
X213122756Y-162647047D01*
X212710279Y-162565000D01*
X212289721Y-162565000D01*
X211877244Y-162647047D01*
X211488698Y-162807988D01*
X211139017Y-163041637D01*
X210841637Y-163339017D01*
X210607988Y-163688698D01*
X210447047Y-164077244D01*
X210365000Y-164489721D01*
X202635000Y-164489721D01*
X202552953Y-164077244D01*
X202392012Y-163688698D01*
X202158363Y-163339017D01*
X201860983Y-163041637D01*
X201511302Y-162807988D01*
X201122756Y-162647047D01*
X200710279Y-162565000D01*
X200289721Y-162565000D01*
X199877244Y-162647047D01*
X199488698Y-162807988D01*
X199139017Y-163041637D01*
X198841637Y-163339017D01*
X198607988Y-163688698D01*
X198447047Y-164077244D01*
X198365000Y-164489721D01*
X192318078Y-164489721D01*
X192269987Y-164417748D01*
X192042252Y-164190013D01*
X192042233Y-164190000D01*
X192042252Y-164189987D01*
X192269987Y-163962252D01*
X192448918Y-163694463D01*
X192572168Y-163396912D01*
X192635000Y-163081033D01*
X192635000Y-162758967D01*
X192572168Y-162443088D01*
X192448918Y-162145537D01*
X192269987Y-161877748D01*
X192042252Y-161650013D01*
X192042233Y-161650000D01*
X192042252Y-161649987D01*
X192269987Y-161422252D01*
X192448918Y-161154463D01*
X192572168Y-160856912D01*
X192601445Y-160709721D01*
X216865000Y-160709721D01*
X216865000Y-161130279D01*
X216947047Y-161542756D01*
X217107988Y-161931302D01*
X217341637Y-162280983D01*
X217639017Y-162578363D01*
X217988698Y-162812012D01*
X218377244Y-162972953D01*
X218789721Y-163055000D01*
X219210279Y-163055000D01*
X219622756Y-162972953D01*
X220011302Y-162812012D01*
X220360983Y-162578363D01*
X220658363Y-162280983D01*
X220892012Y-161931302D01*
X221052953Y-161542756D01*
X221135000Y-161130279D01*
X221135000Y-160709721D01*
X221052953Y-160297244D01*
X220892012Y-159908698D01*
X220658363Y-159559017D01*
X220360983Y-159261637D01*
X220011302Y-159027988D01*
X219622756Y-158867047D01*
X219210279Y-158785000D01*
X218789721Y-158785000D01*
X218377244Y-158867047D01*
X217988698Y-159027988D01*
X217639017Y-159261637D01*
X217341637Y-159559017D01*
X217107988Y-159908698D01*
X216947047Y-160297244D01*
X216865000Y-160709721D01*
X192601445Y-160709721D01*
X192635000Y-160541033D01*
X192635000Y-160218967D01*
X192572168Y-159903088D01*
X192448918Y-159605537D01*
X192269987Y-159337748D01*
X192042252Y-159110013D01*
X192042233Y-159110000D01*
X192042252Y-159109987D01*
X192269987Y-158882252D01*
X192448918Y-158614463D01*
X192572168Y-158316912D01*
X192635000Y-158001033D01*
X192635000Y-157678967D01*
X192572168Y-157363088D01*
X192448918Y-157065537D01*
X192269987Y-156797748D01*
X192042252Y-156570013D01*
X192042233Y-156570000D01*
X192042252Y-156569987D01*
X192269987Y-156342252D01*
X192448918Y-156074463D01*
X192572168Y-155776912D01*
X192635000Y-155461033D01*
X192635000Y-155138967D01*
X192572168Y-154823088D01*
X192448918Y-154525537D01*
X192269987Y-154257748D01*
X192042252Y-154030013D01*
X192042233Y-154030000D01*
X192042252Y-154029987D01*
X192269987Y-153802252D01*
X192448918Y-153534463D01*
X192572168Y-153236912D01*
X192635000Y-152921033D01*
X192635000Y-152598967D01*
X192573488Y-152289721D01*
X198365000Y-152289721D01*
X198365000Y-152710279D01*
X198447047Y-153122756D01*
X198607988Y-153511302D01*
X198841637Y-153860983D01*
X199139017Y-154158363D01*
X199488698Y-154392012D01*
X199877244Y-154552953D01*
X200289721Y-154635000D01*
X200710279Y-154635000D01*
X201122756Y-154552953D01*
X201511302Y-154392012D01*
X201860983Y-154158363D01*
X202158363Y-153860983D01*
X202392012Y-153511302D01*
X202552953Y-153122756D01*
X202635000Y-152710279D01*
X202635000Y-152289721D01*
X202552953Y-151877244D01*
X202392012Y-151488698D01*
X202158363Y-151139017D01*
X201860983Y-150841637D01*
X201511302Y-150607988D01*
X201122756Y-150447047D01*
X200710279Y-150365000D01*
X200289721Y-150365000D01*
X199877244Y-150447047D01*
X199488698Y-150607988D01*
X199139017Y-150841637D01*
X198841637Y-151139017D01*
X198607988Y-151488698D01*
X198447047Y-151877244D01*
X198365000Y-152289721D01*
X192573488Y-152289721D01*
X192572168Y-152283088D01*
X192448918Y-151985537D01*
X192269987Y-151717748D01*
X192042252Y-151490013D01*
X192042233Y-151490000D01*
X192042252Y-151489987D01*
X192269987Y-151262252D01*
X192448918Y-150994463D01*
X192572168Y-150696912D01*
X192635000Y-150381033D01*
X192635000Y-150289721D01*
X204365000Y-150289721D01*
X204365000Y-150710279D01*
X204447047Y-151122756D01*
X204607988Y-151511302D01*
X204841637Y-151860983D01*
X205139017Y-152158363D01*
X205488698Y-152392012D01*
X205877244Y-152552953D01*
X206289721Y-152635000D01*
X206710279Y-152635000D01*
X207122756Y-152552953D01*
X207511302Y-152392012D01*
X207664391Y-152289721D01*
X210365000Y-152289721D01*
X210365000Y-152710279D01*
X210447047Y-153122756D01*
X210607988Y-153511302D01*
X210841637Y-153860983D01*
X211139017Y-154158363D01*
X211488698Y-154392012D01*
X211877244Y-154552953D01*
X212289721Y-154635000D01*
X212710279Y-154635000D01*
X213122756Y-154552953D01*
X213511302Y-154392012D01*
X213860983Y-154158363D01*
X214158363Y-153860983D01*
X214392012Y-153511302D01*
X214552953Y-153122756D01*
X214635000Y-152710279D01*
X214635000Y-152289721D01*
X214577371Y-152000000D01*
X216861928Y-152000000D01*
X216861928Y-155000000D01*
X216874188Y-155124482D01*
X216910498Y-155244180D01*
X216969463Y-155354494D01*
X217048815Y-155451185D01*
X217145506Y-155530537D01*
X217255820Y-155589502D01*
X217375518Y-155625812D01*
X217500000Y-155638072D01*
X220500000Y-155638072D01*
X220624482Y-155625812D01*
X220744180Y-155589502D01*
X220854494Y-155530537D01*
X220951185Y-155451185D01*
X221030537Y-155354494D01*
X221089502Y-155244180D01*
X221125812Y-155124482D01*
X221138072Y-155000000D01*
X221138072Y-152000000D01*
X221125812Y-151875518D01*
X221089502Y-151755820D01*
X221030537Y-151645506D01*
X220951185Y-151548815D01*
X220854494Y-151469463D01*
X220744180Y-151410498D01*
X220624482Y-151374188D01*
X220500000Y-151361928D01*
X217500000Y-151361928D01*
X217375518Y-151374188D01*
X217255820Y-151410498D01*
X217145506Y-151469463D01*
X217048815Y-151548815D01*
X216969463Y-151645506D01*
X216910498Y-151755820D01*
X216874188Y-151875518D01*
X216861928Y-152000000D01*
X214577371Y-152000000D01*
X214552953Y-151877244D01*
X214392012Y-151488698D01*
X214158363Y-151139017D01*
X213860983Y-150841637D01*
X213511302Y-150607988D01*
X213122756Y-150447047D01*
X212710279Y-150365000D01*
X212289721Y-150365000D01*
X211877244Y-150447047D01*
X211488698Y-150607988D01*
X211139017Y-150841637D01*
X210841637Y-151139017D01*
X210607988Y-151488698D01*
X210447047Y-151877244D01*
X210365000Y-152289721D01*
X207664391Y-152289721D01*
X207860983Y-152158363D01*
X208158363Y-151860983D01*
X208392012Y-151511302D01*
X208552953Y-151122756D01*
X208635000Y-150710279D01*
X208635000Y-150289721D01*
X208552953Y-149877244D01*
X208392012Y-149488698D01*
X208158363Y-149139017D01*
X207860983Y-148841637D01*
X207511302Y-148607988D01*
X207122756Y-148447047D01*
X206710279Y-148365000D01*
X206289721Y-148365000D01*
X205877244Y-148447047D01*
X205488698Y-148607988D01*
X205139017Y-148841637D01*
X204841637Y-149139017D01*
X204607988Y-149488698D01*
X204447047Y-149877244D01*
X204365000Y-150289721D01*
X192635000Y-150289721D01*
X192635000Y-150058967D01*
X192572168Y-149743088D01*
X192448918Y-149445537D01*
X192269987Y-149177748D01*
X192042252Y-148950013D01*
X191774463Y-148771082D01*
X191476912Y-148647832D01*
X191161033Y-148585000D01*
X190838967Y-148585000D01*
X190523088Y-148647832D01*
X190225537Y-148771082D01*
X189957748Y-148950013D01*
X189730013Y-149177748D01*
X189551082Y-149445537D01*
X189427832Y-149743088D01*
X189365000Y-150058967D01*
X189365000Y-150381033D01*
X189427832Y-150696912D01*
X189551082Y-150994463D01*
X189730013Y-151262252D01*
X189957748Y-151489987D01*
X189957767Y-151490000D01*
X189957748Y-151490013D01*
X189730013Y-151717748D01*
X189551082Y-151985537D01*
X189427832Y-152283088D01*
X189365000Y-152598967D01*
X189365000Y-152921033D01*
X189427832Y-153236912D01*
X189551082Y-153534463D01*
X189730013Y-153802252D01*
X189957748Y-154029987D01*
X189957767Y-154030000D01*
X189957748Y-154030013D01*
X189730013Y-154257748D01*
X189551082Y-154525537D01*
X189427832Y-154823088D01*
X189365000Y-155138967D01*
X189365000Y-155461033D01*
X189427832Y-155776912D01*
X189551082Y-156074463D01*
X189730013Y-156342252D01*
X189957748Y-156569987D01*
X189957767Y-156570000D01*
X189957748Y-156570013D01*
X189730013Y-156797748D01*
X189551082Y-157065537D01*
X189427832Y-157363088D01*
X189365000Y-157678967D01*
X189365000Y-158001033D01*
X189427832Y-158316912D01*
X189551082Y-158614463D01*
X189730013Y-158882252D01*
X189957748Y-159109987D01*
X189957767Y-159110000D01*
X189957748Y-159110013D01*
X189730013Y-159337748D01*
X189551082Y-159605537D01*
X189427832Y-159903088D01*
X189365000Y-160218967D01*
X189365000Y-160541033D01*
X189427832Y-160856912D01*
X189551082Y-161154463D01*
X189730013Y-161422252D01*
X189957748Y-161649987D01*
X189957767Y-161650000D01*
X189957748Y-161650013D01*
X189730013Y-161877748D01*
X189551082Y-162145537D01*
X189427832Y-162443088D01*
X189365000Y-162758967D01*
X189365000Y-163081033D01*
X189427832Y-163396912D01*
X189551082Y-163694463D01*
X189730013Y-163962252D01*
X189957748Y-164189987D01*
X189957767Y-164190000D01*
X189957748Y-164190013D01*
X189730013Y-164417748D01*
X189551082Y-164685537D01*
X189427832Y-164983088D01*
X189365000Y-165298967D01*
X189365000Y-165621033D01*
X189427832Y-165936912D01*
X189551082Y-166234463D01*
X189691630Y-166444809D01*
X189645506Y-166469463D01*
X189548815Y-166548815D01*
X189469463Y-166645506D01*
X189410498Y-166755820D01*
X189374188Y-166875518D01*
X189361928Y-167000000D01*
X179598219Y-167000000D01*
X179569987Y-166957748D01*
X179342252Y-166730013D01*
X179342233Y-166730000D01*
X179342252Y-166729987D01*
X179569987Y-166502252D01*
X179748918Y-166234463D01*
X179872168Y-165936912D01*
X179935000Y-165621033D01*
X179935000Y-165298967D01*
X179872168Y-164983088D01*
X179748918Y-164685537D01*
X179569987Y-164417748D01*
X179342252Y-164190013D01*
X179342233Y-164190000D01*
X179342252Y-164189987D01*
X179569987Y-163962252D01*
X179748918Y-163694463D01*
X179872168Y-163396912D01*
X179935000Y-163081033D01*
X179935000Y-162758967D01*
X179872168Y-162443088D01*
X179748918Y-162145537D01*
X179569987Y-161877748D01*
X179342252Y-161650013D01*
X179342233Y-161650000D01*
X179342252Y-161649987D01*
X179569987Y-161422252D01*
X179748918Y-161154463D01*
X179872168Y-160856912D01*
X179935000Y-160541033D01*
X179935000Y-160218967D01*
X179872168Y-159903088D01*
X179748918Y-159605537D01*
X179569987Y-159337748D01*
X179342252Y-159110013D01*
X179342233Y-159110000D01*
X179342252Y-159109987D01*
X179569987Y-158882252D01*
X179748918Y-158614463D01*
X179872168Y-158316912D01*
X179935000Y-158001033D01*
X179935000Y-157678967D01*
X179872168Y-157363088D01*
X179748918Y-157065537D01*
X179569987Y-156797748D01*
X179342252Y-156570013D01*
X179342233Y-156570000D01*
X179342252Y-156569987D01*
X179569987Y-156342252D01*
X179748918Y-156074463D01*
X179872168Y-155776912D01*
X179935000Y-155461033D01*
X179935000Y-155138967D01*
X179872168Y-154823088D01*
X179748918Y-154525537D01*
X179569987Y-154257748D01*
X179342252Y-154030013D01*
X179342233Y-154030000D01*
X179342252Y-154029987D01*
X179569987Y-153802252D01*
X179748918Y-153534463D01*
X179872168Y-153236912D01*
X179935000Y-152921033D01*
X179935000Y-152598967D01*
X179872168Y-152283088D01*
X179748918Y-151985537D01*
X179569987Y-151717748D01*
X179342252Y-151490013D01*
X179342233Y-151490000D01*
X179342252Y-151489987D01*
X179569987Y-151262252D01*
X179748918Y-150994463D01*
X179872168Y-150696912D01*
X179935000Y-150381033D01*
X179935000Y-150058967D01*
X179872168Y-149743088D01*
X179748918Y-149445537D01*
X179569987Y-149177748D01*
X179342252Y-148950013D01*
X179074463Y-148771082D01*
X178776912Y-148647832D01*
X178461033Y-148585000D01*
X178138967Y-148585000D01*
X177823088Y-148647832D01*
X177525537Y-148771082D01*
X177257748Y-148950013D01*
X177030013Y-149177748D01*
X176851082Y-149445537D01*
X176727832Y-149743088D01*
X176665000Y-150058967D01*
X142450236Y-150058967D01*
X142427932Y-149946842D01*
X142315990Y-149676589D01*
X142153475Y-149433368D01*
X141946632Y-149226525D01*
X141703411Y-149064010D01*
X141433158Y-148952068D01*
X141146260Y-148895000D01*
X140853740Y-148895000D01*
X140566842Y-148952068D01*
X140296589Y-149064010D01*
X140053368Y-149226525D01*
X139846525Y-149433368D01*
X139684010Y-149676589D01*
X139572068Y-149946842D01*
X139515000Y-150233740D01*
X139515000Y-150526260D01*
X139572068Y-150813158D01*
X139684010Y-151083411D01*
X139846525Y-151326632D01*
X140053368Y-151533475D01*
X140227760Y-151650000D01*
X140053368Y-151766525D01*
X139846525Y-151973368D01*
X139684010Y-152216589D01*
X139572068Y-152486842D01*
X139515000Y-152773740D01*
X139515000Y-153066260D01*
X139572068Y-153353158D01*
X139684010Y-153623411D01*
X139846525Y-153866632D01*
X140053368Y-154073475D01*
X140227760Y-154190000D01*
X140053368Y-154306525D01*
X139846525Y-154513368D01*
X139684010Y-154756589D01*
X139572068Y-155026842D01*
X139515000Y-155313740D01*
X139515000Y-155606260D01*
X139572068Y-155893158D01*
X139684010Y-156163411D01*
X139846525Y-156406632D01*
X139978380Y-156538487D01*
X139905820Y-156560498D01*
X139795506Y-156619463D01*
X139698815Y-156698815D01*
X139619463Y-156795506D01*
X139560498Y-156905820D01*
X139524188Y-157025518D01*
X139511928Y-157150000D01*
X135660000Y-157150000D01*
X135660000Y-145150000D01*
X139511928Y-145150000D01*
X139511928Y-146850000D01*
X139524188Y-146974482D01*
X139560498Y-147094180D01*
X139619463Y-147204494D01*
X139698815Y-147301185D01*
X139795506Y-147380537D01*
X139905820Y-147439502D01*
X140025518Y-147475812D01*
X140150000Y-147488072D01*
X141850000Y-147488072D01*
X141974482Y-147475812D01*
X142094180Y-147439502D01*
X142204494Y-147380537D01*
X142301185Y-147301185D01*
X142380537Y-147204494D01*
X142439502Y-147094180D01*
X142475812Y-146974482D01*
X142488072Y-146850000D01*
X142488072Y-145700000D01*
X199061928Y-145700000D01*
X199061928Y-147300000D01*
X199074188Y-147424482D01*
X199110498Y-147544180D01*
X199169463Y-147654494D01*
X199248815Y-147751185D01*
X199345506Y-147830537D01*
X199455820Y-147889502D01*
X199575518Y-147925812D01*
X199700000Y-147938072D01*
X201300000Y-147938072D01*
X201424482Y-147925812D01*
X201544180Y-147889502D01*
X201654494Y-147830537D01*
X201751185Y-147751185D01*
X201830537Y-147654494D01*
X201889502Y-147544180D01*
X201925812Y-147424482D01*
X201938072Y-147300000D01*
X201938072Y-146358665D01*
X206685000Y-146358665D01*
X206685000Y-146641335D01*
X206740147Y-146918574D01*
X206848320Y-147179727D01*
X207005363Y-147414759D01*
X207205241Y-147614637D01*
X207440273Y-147771680D01*
X207701426Y-147879853D01*
X207978665Y-147935000D01*
X208261335Y-147935000D01*
X208538574Y-147879853D01*
X208799727Y-147771680D01*
X209034759Y-147614637D01*
X209234637Y-147414759D01*
X209391680Y-147179727D01*
X209499853Y-146918574D01*
X209555000Y-146641335D01*
X209555000Y-146358665D01*
X209499853Y-146081426D01*
X209391680Y-145820273D01*
X209234637Y-145585241D01*
X209034759Y-145385363D01*
X208799727Y-145228320D01*
X208538574Y-145120147D01*
X208261335Y-145065000D01*
X207978665Y-145065000D01*
X207701426Y-145120147D01*
X207440273Y-145228320D01*
X207205241Y-145385363D01*
X207005363Y-145585241D01*
X206848320Y-145820273D01*
X206740147Y-146081426D01*
X206685000Y-146358665D01*
X201938072Y-146358665D01*
X201938072Y-145700000D01*
X201925812Y-145575518D01*
X201889502Y-145455820D01*
X201830537Y-145345506D01*
X201751185Y-145248815D01*
X201654494Y-145169463D01*
X201544180Y-145110498D01*
X201424482Y-145074188D01*
X201300000Y-145061928D01*
X199700000Y-145061928D01*
X199575518Y-145074188D01*
X199455820Y-145110498D01*
X199345506Y-145169463D01*
X199248815Y-145248815D01*
X199169463Y-145345506D01*
X199110498Y-145455820D01*
X199074188Y-145575518D01*
X199061928Y-145700000D01*
X142488072Y-145700000D01*
X142488072Y-145150000D01*
X142475812Y-145025518D01*
X142439502Y-144905820D01*
X142380537Y-144795506D01*
X142301185Y-144698815D01*
X142204494Y-144619463D01*
X142094180Y-144560498D01*
X142021620Y-144538487D01*
X142153475Y-144406632D01*
X142315990Y-144163411D01*
X142427932Y-143893158D01*
X142485000Y-143606260D01*
X142485000Y-143313740D01*
X142427932Y-143026842D01*
X142399693Y-142958665D01*
X199045000Y-142958665D01*
X199045000Y-143241335D01*
X199100147Y-143518574D01*
X199208320Y-143779727D01*
X199365363Y-144014759D01*
X199565241Y-144214637D01*
X199800273Y-144371680D01*
X200061426Y-144479853D01*
X200338665Y-144535000D01*
X200621335Y-144535000D01*
X200898574Y-144479853D01*
X201159727Y-144371680D01*
X201394759Y-144214637D01*
X201594637Y-144014759D01*
X201751680Y-143779727D01*
X201859853Y-143518574D01*
X201915000Y-143241335D01*
X201915000Y-142958665D01*
X206665000Y-142958665D01*
X206665000Y-143241335D01*
X206720147Y-143518574D01*
X206828320Y-143779727D01*
X206985363Y-144014759D01*
X207185241Y-144214637D01*
X207420273Y-144371680D01*
X207681426Y-144479853D01*
X207958665Y-144535000D01*
X208241335Y-144535000D01*
X208518574Y-144479853D01*
X208779727Y-144371680D01*
X209014759Y-144214637D01*
X209214637Y-144014759D01*
X209371680Y-143779727D01*
X209479853Y-143518574D01*
X209535000Y-143241335D01*
X209535000Y-142958665D01*
X209479853Y-142681426D01*
X209371680Y-142420273D01*
X209214637Y-142185241D01*
X209014759Y-141985363D01*
X208779727Y-141828320D01*
X208518574Y-141720147D01*
X208241335Y-141665000D01*
X207958665Y-141665000D01*
X207681426Y-141720147D01*
X207420273Y-141828320D01*
X207185241Y-141985363D01*
X206985363Y-142185241D01*
X206828320Y-142420273D01*
X206720147Y-142681426D01*
X206665000Y-142958665D01*
X201915000Y-142958665D01*
X201859853Y-142681426D01*
X201751680Y-142420273D01*
X201594637Y-142185241D01*
X201394759Y-141985363D01*
X201159727Y-141828320D01*
X200898574Y-141720147D01*
X200621335Y-141665000D01*
X200338665Y-141665000D01*
X200061426Y-141720147D01*
X199800273Y-141828320D01*
X199565241Y-141985363D01*
X199365363Y-142185241D01*
X199208320Y-142420273D01*
X199100147Y-142681426D01*
X199045000Y-142958665D01*
X142399693Y-142958665D01*
X142315990Y-142756589D01*
X142153475Y-142513368D01*
X141946632Y-142306525D01*
X141772240Y-142190000D01*
X141946632Y-142073475D01*
X142153475Y-141866632D01*
X142315990Y-141623411D01*
X142427932Y-141353158D01*
X142485000Y-141066260D01*
X142485000Y-140773740D01*
X142427932Y-140486842D01*
X142315990Y-140216589D01*
X142153475Y-139973368D01*
X141946632Y-139766525D01*
X141703411Y-139604010D01*
X141433158Y-139492068D01*
X141146260Y-139435000D01*
X140853740Y-139435000D01*
X140566842Y-139492068D01*
X140296589Y-139604010D01*
X140053368Y-139766525D01*
X139846525Y-139973368D01*
X139684010Y-140216589D01*
X139572068Y-140486842D01*
X139515000Y-140773740D01*
X139515000Y-141066260D01*
X139572068Y-141353158D01*
X139684010Y-141623411D01*
X139846525Y-141866632D01*
X140053368Y-142073475D01*
X140227760Y-142190000D01*
X140053368Y-142306525D01*
X139846525Y-142513368D01*
X139684010Y-142756589D01*
X139572068Y-143026842D01*
X139515000Y-143313740D01*
X139515000Y-143606260D01*
X139572068Y-143893158D01*
X139684010Y-144163411D01*
X139846525Y-144406632D01*
X139978380Y-144538487D01*
X139905820Y-144560498D01*
X139795506Y-144619463D01*
X139698815Y-144698815D01*
X139619463Y-144795506D01*
X139560498Y-144905820D01*
X139524188Y-145025518D01*
X139511928Y-145150000D01*
X135660000Y-145150000D01*
X135660000Y-139258665D01*
X199065000Y-139258665D01*
X199065000Y-139541335D01*
X199120147Y-139818574D01*
X199228320Y-140079727D01*
X199385363Y-140314759D01*
X199585241Y-140514637D01*
X199820273Y-140671680D01*
X200081426Y-140779853D01*
X200358665Y-140835000D01*
X200641335Y-140835000D01*
X200918574Y-140779853D01*
X201179727Y-140671680D01*
X201414759Y-140514637D01*
X201614637Y-140314759D01*
X201771680Y-140079727D01*
X201879853Y-139818574D01*
X201935000Y-139541335D01*
X201935000Y-139258665D01*
X206685000Y-139258665D01*
X206685000Y-139541335D01*
X206740147Y-139818574D01*
X206848320Y-140079727D01*
X207005363Y-140314759D01*
X207205241Y-140514637D01*
X207440273Y-140671680D01*
X207701426Y-140779853D01*
X207978665Y-140835000D01*
X208261335Y-140835000D01*
X208538574Y-140779853D01*
X208799727Y-140671680D01*
X209034759Y-140514637D01*
X209234637Y-140314759D01*
X209391680Y-140079727D01*
X209499853Y-139818574D01*
X209555000Y-139541335D01*
X209555000Y-139258665D01*
X209523440Y-139100000D01*
X210861928Y-139100000D01*
X210861928Y-140900000D01*
X210874188Y-141024482D01*
X210910498Y-141144180D01*
X210969463Y-141254494D01*
X211048815Y-141351185D01*
X211145506Y-141430537D01*
X211255820Y-141489502D01*
X211375518Y-141525812D01*
X211430125Y-141531190D01*
X211324201Y-141637114D01*
X211172629Y-141863957D01*
X211068225Y-142116011D01*
X211015000Y-142383589D01*
X211015000Y-142656411D01*
X211068225Y-142923989D01*
X211172629Y-143176043D01*
X211324201Y-143402886D01*
X211517114Y-143595799D01*
X211743957Y-143747371D01*
X211846873Y-143790000D01*
X211743957Y-143832629D01*
X211517114Y-143984201D01*
X211324201Y-144177114D01*
X211172629Y-144403957D01*
X211068225Y-144656011D01*
X211015000Y-144923589D01*
X211015000Y-145196411D01*
X211068225Y-145463989D01*
X211172629Y-145716043D01*
X211324201Y-145942886D01*
X211517114Y-146135799D01*
X211633483Y-146213555D01*
X211525518Y-146224188D01*
X211405820Y-146260498D01*
X211295506Y-146319463D01*
X211198815Y-146398815D01*
X211119463Y-146495506D01*
X211060498Y-146605820D01*
X211024188Y-146725518D01*
X211011928Y-146850000D01*
X211011928Y-148350000D01*
X211024188Y-148474482D01*
X211060498Y-148594180D01*
X211119463Y-148704494D01*
X211198815Y-148801185D01*
X211295506Y-148880537D01*
X211405820Y-148939502D01*
X211525518Y-148975812D01*
X211650000Y-148988072D01*
X213150000Y-148988072D01*
X213274482Y-148975812D01*
X213394180Y-148939502D01*
X213504494Y-148880537D01*
X213601185Y-148801185D01*
X213680537Y-148704494D01*
X213739502Y-148594180D01*
X213775812Y-148474482D01*
X213788072Y-148350000D01*
X213788072Y-148209721D01*
X216865000Y-148209721D01*
X216865000Y-148630279D01*
X216947047Y-149042756D01*
X217107988Y-149431302D01*
X217341637Y-149780983D01*
X217639017Y-150078363D01*
X217988698Y-150312012D01*
X218377244Y-150472953D01*
X218789721Y-150555000D01*
X219210279Y-150555000D01*
X219622756Y-150472953D01*
X220011302Y-150312012D01*
X220360983Y-150078363D01*
X220658363Y-149780983D01*
X220892012Y-149431302D01*
X221052953Y-149042756D01*
X221135000Y-148630279D01*
X221135000Y-148209721D01*
X221052953Y-147797244D01*
X220892012Y-147408698D01*
X220658363Y-147059017D01*
X220360983Y-146761637D01*
X220011302Y-146527988D01*
X219622756Y-146367047D01*
X219210279Y-146285000D01*
X218789721Y-146285000D01*
X218377244Y-146367047D01*
X217988698Y-146527988D01*
X217639017Y-146761637D01*
X217341637Y-147059017D01*
X217107988Y-147408698D01*
X216947047Y-147797244D01*
X216865000Y-148209721D01*
X213788072Y-148209721D01*
X213788072Y-146850000D01*
X213775812Y-146725518D01*
X213739502Y-146605820D01*
X213680537Y-146495506D01*
X213601185Y-146398815D01*
X213504494Y-146319463D01*
X213394180Y-146260498D01*
X213274482Y-146224188D01*
X213166517Y-146213555D01*
X213282886Y-146135799D01*
X213475799Y-145942886D01*
X213627371Y-145716043D01*
X213731775Y-145463989D01*
X213785000Y-145196411D01*
X213785000Y-144923589D01*
X213731775Y-144656011D01*
X213627371Y-144403957D01*
X213475799Y-144177114D01*
X213282886Y-143984201D01*
X213056043Y-143832629D01*
X212953127Y-143790000D01*
X213056043Y-143747371D01*
X213282886Y-143595799D01*
X213475799Y-143402886D01*
X213627371Y-143176043D01*
X213731775Y-142923989D01*
X213785000Y-142656411D01*
X213785000Y-142383589D01*
X213731775Y-142116011D01*
X213627371Y-141863957D01*
X213475799Y-141637114D01*
X213369875Y-141531190D01*
X213424482Y-141525812D01*
X213544180Y-141489502D01*
X213654494Y-141430537D01*
X213751185Y-141351185D01*
X213830537Y-141254494D01*
X213889502Y-141144180D01*
X213925812Y-141024482D01*
X213938072Y-140900000D01*
X213938072Y-139100000D01*
X213928224Y-139000000D01*
X216861928Y-139000000D01*
X216861928Y-142000000D01*
X216874188Y-142124482D01*
X216910498Y-142244180D01*
X216969463Y-142354494D01*
X217048815Y-142451185D01*
X217145506Y-142530537D01*
X217255820Y-142589502D01*
X217375518Y-142625812D01*
X217500000Y-142638072D01*
X220500000Y-142638072D01*
X220624482Y-142625812D01*
X220744180Y-142589502D01*
X220854494Y-142530537D01*
X220951185Y-142451185D01*
X221030537Y-142354494D01*
X221089502Y-142244180D01*
X221125812Y-142124482D01*
X221138072Y-142000000D01*
X221138072Y-139000000D01*
X221125812Y-138875518D01*
X221089502Y-138755820D01*
X221030537Y-138645506D01*
X220951185Y-138548815D01*
X220854494Y-138469463D01*
X220744180Y-138410498D01*
X220624482Y-138374188D01*
X220500000Y-138361928D01*
X217500000Y-138361928D01*
X217375518Y-138374188D01*
X217255820Y-138410498D01*
X217145506Y-138469463D01*
X217048815Y-138548815D01*
X216969463Y-138645506D01*
X216910498Y-138755820D01*
X216874188Y-138875518D01*
X216861928Y-139000000D01*
X213928224Y-139000000D01*
X213925812Y-138975518D01*
X213889502Y-138855820D01*
X213830537Y-138745506D01*
X213751185Y-138648815D01*
X213654494Y-138569463D01*
X213544180Y-138510498D01*
X213525873Y-138504944D01*
X213592312Y-138438505D01*
X213760299Y-138187095D01*
X213876011Y-137907743D01*
X213935000Y-137611184D01*
X213935000Y-137308816D01*
X213876011Y-137012257D01*
X213760299Y-136732905D01*
X213592312Y-136481495D01*
X213378505Y-136267688D01*
X213127095Y-136099701D01*
X212847743Y-135983989D01*
X212551184Y-135925000D01*
X212248816Y-135925000D01*
X211952257Y-135983989D01*
X211672905Y-136099701D01*
X211421495Y-136267688D01*
X211207688Y-136481495D01*
X211039701Y-136732905D01*
X210923989Y-137012257D01*
X210865000Y-137308816D01*
X210865000Y-137611184D01*
X210923989Y-137907743D01*
X211039701Y-138187095D01*
X211207688Y-138438505D01*
X211274127Y-138504944D01*
X211255820Y-138510498D01*
X211145506Y-138569463D01*
X211048815Y-138648815D01*
X210969463Y-138745506D01*
X210910498Y-138855820D01*
X210874188Y-138975518D01*
X210861928Y-139100000D01*
X209523440Y-139100000D01*
X209499853Y-138981426D01*
X209391680Y-138720273D01*
X209234637Y-138485241D01*
X209034759Y-138285363D01*
X208799727Y-138128320D01*
X208538574Y-138020147D01*
X208261335Y-137965000D01*
X207978665Y-137965000D01*
X207701426Y-138020147D01*
X207440273Y-138128320D01*
X207205241Y-138285363D01*
X207005363Y-138485241D01*
X206848320Y-138720273D01*
X206740147Y-138981426D01*
X206685000Y-139258665D01*
X201935000Y-139258665D01*
X201879853Y-138981426D01*
X201771680Y-138720273D01*
X201614637Y-138485241D01*
X201414759Y-138285363D01*
X201179727Y-138128320D01*
X200918574Y-138020147D01*
X200641335Y-137965000D01*
X200358665Y-137965000D01*
X200081426Y-138020147D01*
X199820273Y-138128320D01*
X199585241Y-138285363D01*
X199385363Y-138485241D01*
X199228320Y-138720273D01*
X199120147Y-138981426D01*
X199065000Y-139258665D01*
X135660000Y-139258665D01*
X135660000Y-136078967D01*
X140805000Y-136078967D01*
X140805000Y-136401033D01*
X140867832Y-136716912D01*
X140991082Y-137014463D01*
X141170013Y-137282252D01*
X141397748Y-137509987D01*
X141665537Y-137688918D01*
X141963088Y-137812168D01*
X142278967Y-137875000D01*
X142601033Y-137875000D01*
X142916912Y-137812168D01*
X143214463Y-137688918D01*
X143482252Y-137509987D01*
X143709987Y-137282252D01*
X143710000Y-137282233D01*
X143710013Y-137282252D01*
X143937748Y-137509987D01*
X144205537Y-137688918D01*
X144503088Y-137812168D01*
X144818967Y-137875000D01*
X145141033Y-137875000D01*
X145456912Y-137812168D01*
X145754463Y-137688918D01*
X146022252Y-137509987D01*
X146249987Y-137282252D01*
X146250000Y-137282233D01*
X146250013Y-137282252D01*
X146477748Y-137509987D01*
X146745537Y-137688918D01*
X147043088Y-137812168D01*
X147358967Y-137875000D01*
X147681033Y-137875000D01*
X147996912Y-137812168D01*
X148294463Y-137688918D01*
X148562252Y-137509987D01*
X148789987Y-137282252D01*
X148790000Y-137282233D01*
X148790013Y-137282252D01*
X149017748Y-137509987D01*
X149285537Y-137688918D01*
X149583088Y-137812168D01*
X149898967Y-137875000D01*
X150221033Y-137875000D01*
X150536912Y-137812168D01*
X150834463Y-137688918D01*
X151102252Y-137509987D01*
X151329987Y-137282252D01*
X151330000Y-137282233D01*
X151330013Y-137282252D01*
X151557748Y-137509987D01*
X151825537Y-137688918D01*
X152123088Y-137812168D01*
X152438967Y-137875000D01*
X152761033Y-137875000D01*
X153076912Y-137812168D01*
X153374463Y-137688918D01*
X153642252Y-137509987D01*
X153869987Y-137282252D01*
X153870000Y-137282233D01*
X153870013Y-137282252D01*
X154097748Y-137509987D01*
X154365537Y-137688918D01*
X154663088Y-137812168D01*
X154978967Y-137875000D01*
X155301033Y-137875000D01*
X155616912Y-137812168D01*
X155914463Y-137688918D01*
X156182252Y-137509987D01*
X156409987Y-137282252D01*
X156410000Y-137282233D01*
X156410013Y-137282252D01*
X156637748Y-137509987D01*
X156905537Y-137688918D01*
X157203088Y-137812168D01*
X157518967Y-137875000D01*
X157841033Y-137875000D01*
X158156912Y-137812168D01*
X158454463Y-137688918D01*
X158722252Y-137509987D01*
X158949987Y-137282252D01*
X158950000Y-137282233D01*
X158950013Y-137282252D01*
X159177748Y-137509987D01*
X159445537Y-137688918D01*
X159743088Y-137812168D01*
X160058967Y-137875000D01*
X160381033Y-137875000D01*
X160696912Y-137812168D01*
X160994463Y-137688918D01*
X161262252Y-137509987D01*
X161489987Y-137282252D01*
X161490000Y-137282233D01*
X161490013Y-137282252D01*
X161717748Y-137509987D01*
X161985537Y-137688918D01*
X162283088Y-137812168D01*
X162598967Y-137875000D01*
X162921033Y-137875000D01*
X163236912Y-137812168D01*
X163534463Y-137688918D01*
X163802252Y-137509987D01*
X164029987Y-137282252D01*
X164030000Y-137282233D01*
X164030013Y-137282252D01*
X164257748Y-137509987D01*
X164525537Y-137688918D01*
X164823088Y-137812168D01*
X165138967Y-137875000D01*
X165461033Y-137875000D01*
X165776912Y-137812168D01*
X166074463Y-137688918D01*
X166342252Y-137509987D01*
X166569987Y-137282252D01*
X166570000Y-137282233D01*
X166570013Y-137282252D01*
X166797748Y-137509987D01*
X167065537Y-137688918D01*
X167363088Y-137812168D01*
X167678967Y-137875000D01*
X168001033Y-137875000D01*
X168316912Y-137812168D01*
X168614463Y-137688918D01*
X168882252Y-137509987D01*
X169109987Y-137282252D01*
X169110000Y-137282233D01*
X169110013Y-137282252D01*
X169337748Y-137509987D01*
X169605537Y-137688918D01*
X169903088Y-137812168D01*
X170218967Y-137875000D01*
X170541033Y-137875000D01*
X170856912Y-137812168D01*
X171154463Y-137688918D01*
X171422252Y-137509987D01*
X171649987Y-137282252D01*
X171650000Y-137282233D01*
X171650013Y-137282252D01*
X171877748Y-137509987D01*
X172145537Y-137688918D01*
X172443088Y-137812168D01*
X172758967Y-137875000D01*
X173081033Y-137875000D01*
X173396912Y-137812168D01*
X173694463Y-137688918D01*
X173962252Y-137509987D01*
X174189987Y-137282252D01*
X174190000Y-137282233D01*
X174190013Y-137282252D01*
X174417748Y-137509987D01*
X174685537Y-137688918D01*
X174983088Y-137812168D01*
X175298967Y-137875000D01*
X175621033Y-137875000D01*
X175936912Y-137812168D01*
X176234463Y-137688918D01*
X176502252Y-137509987D01*
X176729987Y-137282252D01*
X176730000Y-137282233D01*
X176730013Y-137282252D01*
X176957748Y-137509987D01*
X177225537Y-137688918D01*
X177523088Y-137812168D01*
X177838967Y-137875000D01*
X178161033Y-137875000D01*
X178476912Y-137812168D01*
X178774463Y-137688918D01*
X179042252Y-137509987D01*
X179269987Y-137282252D01*
X179448918Y-137014463D01*
X179572168Y-136716912D01*
X179635000Y-136401033D01*
X179635000Y-136078967D01*
X179572168Y-135763088D01*
X179448918Y-135465537D01*
X179269987Y-135197748D01*
X179042252Y-134970013D01*
X178774463Y-134791082D01*
X178476912Y-134667832D01*
X178161033Y-134605000D01*
X177838967Y-134605000D01*
X177523088Y-134667832D01*
X177225537Y-134791082D01*
X176957748Y-134970013D01*
X176730013Y-135197748D01*
X176730000Y-135197767D01*
X176729987Y-135197748D01*
X176502252Y-134970013D01*
X176234463Y-134791082D01*
X175936912Y-134667832D01*
X175621033Y-134605000D01*
X175298967Y-134605000D01*
X174983088Y-134667832D01*
X174685537Y-134791082D01*
X174417748Y-134970013D01*
X174190013Y-135197748D01*
X174190000Y-135197767D01*
X174189987Y-135197748D01*
X173962252Y-134970013D01*
X173694463Y-134791082D01*
X173396912Y-134667832D01*
X173081033Y-134605000D01*
X172758967Y-134605000D01*
X172443088Y-134667832D01*
X172145537Y-134791082D01*
X171877748Y-134970013D01*
X171650013Y-135197748D01*
X171650000Y-135197767D01*
X171649987Y-135197748D01*
X171422252Y-134970013D01*
X171154463Y-134791082D01*
X170856912Y-134667832D01*
X170541033Y-134605000D01*
X170218967Y-134605000D01*
X169903088Y-134667832D01*
X169605537Y-134791082D01*
X169337748Y-134970013D01*
X169110013Y-135197748D01*
X169110000Y-135197767D01*
X169109987Y-135197748D01*
X168882252Y-134970013D01*
X168614463Y-134791082D01*
X168316912Y-134667832D01*
X168001033Y-134605000D01*
X167678967Y-134605000D01*
X167363088Y-134667832D01*
X167065537Y-134791082D01*
X166797748Y-134970013D01*
X166570013Y-135197748D01*
X166570000Y-135197767D01*
X166569987Y-135197748D01*
X166342252Y-134970013D01*
X166074463Y-134791082D01*
X165776912Y-134667832D01*
X165461033Y-134605000D01*
X165138967Y-134605000D01*
X164823088Y-134667832D01*
X164525537Y-134791082D01*
X164257748Y-134970013D01*
X164030013Y-135197748D01*
X164030000Y-135197767D01*
X164029987Y-135197748D01*
X163802252Y-134970013D01*
X163534463Y-134791082D01*
X163236912Y-134667832D01*
X162921033Y-134605000D01*
X162598967Y-134605000D01*
X162283088Y-134667832D01*
X161985537Y-134791082D01*
X161717748Y-134970013D01*
X161490013Y-135197748D01*
X161490000Y-135197767D01*
X161489987Y-135197748D01*
X161262252Y-134970013D01*
X160994463Y-134791082D01*
X160696912Y-134667832D01*
X160381033Y-134605000D01*
X160058967Y-134605000D01*
X159743088Y-134667832D01*
X159445537Y-134791082D01*
X159177748Y-134970013D01*
X158950013Y-135197748D01*
X158950000Y-135197767D01*
X158949987Y-135197748D01*
X158722252Y-134970013D01*
X158454463Y-134791082D01*
X158156912Y-134667832D01*
X157841033Y-134605000D01*
X157518967Y-134605000D01*
X157203088Y-134667832D01*
X156905537Y-134791082D01*
X156637748Y-134970013D01*
X156410013Y-135197748D01*
X156410000Y-135197767D01*
X156409987Y-135197748D01*
X156182252Y-134970013D01*
X155914463Y-134791082D01*
X155616912Y-134667832D01*
X155301033Y-134605000D01*
X154978967Y-134605000D01*
X154663088Y-134667832D01*
X154365537Y-134791082D01*
X154097748Y-134970013D01*
X153870013Y-135197748D01*
X153870000Y-135197767D01*
X153869987Y-135197748D01*
X153642252Y-134970013D01*
X153374463Y-134791082D01*
X153076912Y-134667832D01*
X152761033Y-134605000D01*
X152438967Y-134605000D01*
X152123088Y-134667832D01*
X151825537Y-134791082D01*
X151557748Y-134970013D01*
X151330013Y-135197748D01*
X151330000Y-135197767D01*
X151329987Y-135197748D01*
X151102252Y-134970013D01*
X150834463Y-134791082D01*
X150536912Y-134667832D01*
X150221033Y-134605000D01*
X149898967Y-134605000D01*
X149583088Y-134667832D01*
X149285537Y-134791082D01*
X149017748Y-134970013D01*
X148790013Y-135197748D01*
X148790000Y-135197767D01*
X148789987Y-135197748D01*
X148562252Y-134970013D01*
X148294463Y-134791082D01*
X147996912Y-134667832D01*
X147681033Y-134605000D01*
X147358967Y-134605000D01*
X147043088Y-134667832D01*
X146745537Y-134791082D01*
X146477748Y-134970013D01*
X146250013Y-135197748D01*
X146250000Y-135197767D01*
X146249987Y-135197748D01*
X146022252Y-134970013D01*
X145754463Y-134791082D01*
X145456912Y-134667832D01*
X145141033Y-134605000D01*
X144818967Y-134605000D01*
X144503088Y-134667832D01*
X144205537Y-134791082D01*
X143937748Y-134970013D01*
X143710013Y-135197748D01*
X143710000Y-135197767D01*
X143709987Y-135197748D01*
X143482252Y-134970013D01*
X143214463Y-134791082D01*
X142916912Y-134667832D01*
X142601033Y-134605000D01*
X142278967Y-134605000D01*
X141963088Y-134667832D01*
X141665537Y-134791082D01*
X141397748Y-134970013D01*
X141170013Y-135197748D01*
X140991082Y-135465537D01*
X140867832Y-135763088D01*
X140805000Y-136078967D01*
X135660000Y-136078967D01*
X135660000Y-133600000D01*
X198461928Y-133600000D01*
X198461928Y-135400000D01*
X198474188Y-135524482D01*
X198510498Y-135644180D01*
X198569463Y-135754494D01*
X198648815Y-135851185D01*
X198745506Y-135930537D01*
X198855820Y-135989502D01*
X198975518Y-136025812D01*
X199100000Y-136038072D01*
X200900000Y-136038072D01*
X201024482Y-136025812D01*
X201144180Y-135989502D01*
X201254494Y-135930537D01*
X201351185Y-135851185D01*
X201430537Y-135754494D01*
X201489502Y-135644180D01*
X201525812Y-135524482D01*
X201538072Y-135400000D01*
X201538072Y-135209721D01*
X216865000Y-135209721D01*
X216865000Y-135630279D01*
X216947047Y-136042756D01*
X217107988Y-136431302D01*
X217341637Y-136780983D01*
X217639017Y-137078363D01*
X217988698Y-137312012D01*
X218377244Y-137472953D01*
X218789721Y-137555000D01*
X219210279Y-137555000D01*
X219622756Y-137472953D01*
X220011302Y-137312012D01*
X220360983Y-137078363D01*
X220658363Y-136780983D01*
X220892012Y-136431302D01*
X221052953Y-136042756D01*
X221135000Y-135630279D01*
X221135000Y-135209721D01*
X221052953Y-134797244D01*
X220892012Y-134408698D01*
X220658363Y-134059017D01*
X220360983Y-133761637D01*
X220011302Y-133527988D01*
X219622756Y-133367047D01*
X219210279Y-133285000D01*
X218789721Y-133285000D01*
X218377244Y-133367047D01*
X217988698Y-133527988D01*
X217639017Y-133761637D01*
X217341637Y-134059017D01*
X217107988Y-134408698D01*
X216947047Y-134797244D01*
X216865000Y-135209721D01*
X201538072Y-135209721D01*
X201538072Y-133600000D01*
X201525812Y-133475518D01*
X201489502Y-133355820D01*
X201430537Y-133245506D01*
X201351185Y-133148815D01*
X201254494Y-133069463D01*
X201144180Y-133010498D01*
X201125873Y-133004944D01*
X201192312Y-132938505D01*
X201360299Y-132687095D01*
X201476011Y-132407743D01*
X201482620Y-132374514D01*
X204832500Y-132374514D01*
X204832500Y-132625485D01*
X204855470Y-132858703D01*
X204946245Y-133157948D01*
X205093655Y-133433734D01*
X205292037Y-133675463D01*
X205533765Y-133873845D01*
X205809551Y-134021255D01*
X206108796Y-134112030D01*
X206420000Y-134142681D01*
X206731203Y-134112030D01*
X207030448Y-134021255D01*
X207306234Y-133873845D01*
X207547963Y-133675463D01*
X207690000Y-133502391D01*
X207832037Y-133675463D01*
X208073765Y-133873845D01*
X208349551Y-134021255D01*
X208648796Y-134112030D01*
X208960000Y-134142681D01*
X209271203Y-134112030D01*
X209570448Y-134021255D01*
X209846234Y-133873845D01*
X209972095Y-133770553D01*
X210016963Y-133854494D01*
X210096315Y-133951185D01*
X210193006Y-134030537D01*
X210303320Y-134089502D01*
X210423018Y-134125812D01*
X210547500Y-134138072D01*
X212452500Y-134138072D01*
X212576982Y-134125812D01*
X212696680Y-134089502D01*
X212806994Y-134030537D01*
X212903685Y-133951185D01*
X212983037Y-133854494D01*
X213042002Y-133744180D01*
X213078312Y-133624482D01*
X213090572Y-133500000D01*
X213090572Y-131500000D01*
X213078312Y-131375518D01*
X213042002Y-131255820D01*
X212983037Y-131145506D01*
X212903685Y-131048815D01*
X212806994Y-130969463D01*
X212696680Y-130910498D01*
X212576982Y-130874188D01*
X212452500Y-130861928D01*
X210547500Y-130861928D01*
X210423018Y-130874188D01*
X210303320Y-130910498D01*
X210193006Y-130969463D01*
X210096315Y-131048815D01*
X210016963Y-131145506D01*
X209972095Y-131229446D01*
X209846235Y-131126155D01*
X209570449Y-130978745D01*
X209271204Y-130887970D01*
X208960000Y-130857319D01*
X208648797Y-130887970D01*
X208349552Y-130978745D01*
X208073766Y-131126155D01*
X207832037Y-131324537D01*
X207690000Y-131497609D01*
X207547963Y-131324537D01*
X207306235Y-131126155D01*
X207030449Y-130978745D01*
X206731204Y-130887970D01*
X206420000Y-130857319D01*
X206108797Y-130887970D01*
X205809552Y-130978745D01*
X205533766Y-131126155D01*
X205292037Y-131324537D01*
X205093655Y-131566265D01*
X204946245Y-131842051D01*
X204855470Y-132141296D01*
X204832500Y-132374514D01*
X201482620Y-132374514D01*
X201535000Y-132111184D01*
X201535000Y-131808816D01*
X201476011Y-131512257D01*
X201360299Y-131232905D01*
X201192312Y-130981495D01*
X200978505Y-130767688D01*
X200727095Y-130599701D01*
X200447743Y-130483989D01*
X200151184Y-130425000D01*
X199848816Y-130425000D01*
X199552257Y-130483989D01*
X199272905Y-130599701D01*
X199021495Y-130767688D01*
X198807688Y-130981495D01*
X198639701Y-131232905D01*
X198523989Y-131512257D01*
X198465000Y-131808816D01*
X198465000Y-132111184D01*
X198523989Y-132407743D01*
X198639701Y-132687095D01*
X198807688Y-132938505D01*
X198874127Y-133004944D01*
X198855820Y-133010498D01*
X198745506Y-133069463D01*
X198648815Y-133148815D01*
X198569463Y-133245506D01*
X198510498Y-133355820D01*
X198474188Y-133475518D01*
X198461928Y-133600000D01*
X135660000Y-133600000D01*
X135660000Y-131858665D01*
X185945000Y-131858665D01*
X185945000Y-132141335D01*
X186000147Y-132418574D01*
X186108320Y-132679727D01*
X186265363Y-132914759D01*
X186465241Y-133114637D01*
X186700273Y-133271680D01*
X186961426Y-133379853D01*
X187238665Y-133435000D01*
X187521335Y-133435000D01*
X187798574Y-133379853D01*
X188059727Y-133271680D01*
X188294759Y-133114637D01*
X188494637Y-132914759D01*
X188651680Y-132679727D01*
X188759853Y-132418574D01*
X188815000Y-132141335D01*
X188815000Y-131858665D01*
X193565000Y-131858665D01*
X193565000Y-132141335D01*
X193620147Y-132418574D01*
X193728320Y-132679727D01*
X193885363Y-132914759D01*
X194085241Y-133114637D01*
X194320273Y-133271680D01*
X194581426Y-133379853D01*
X194858665Y-133435000D01*
X195141335Y-133435000D01*
X195418574Y-133379853D01*
X195679727Y-133271680D01*
X195914759Y-133114637D01*
X196114637Y-132914759D01*
X196271680Y-132679727D01*
X196379853Y-132418574D01*
X196435000Y-132141335D01*
X196435000Y-131858665D01*
X196379853Y-131581426D01*
X196271680Y-131320273D01*
X196114637Y-131085241D01*
X195914759Y-130885363D01*
X195679727Y-130728320D01*
X195418574Y-130620147D01*
X195141335Y-130565000D01*
X194858665Y-130565000D01*
X194581426Y-130620147D01*
X194320273Y-130728320D01*
X194085241Y-130885363D01*
X193885363Y-131085241D01*
X193728320Y-131320273D01*
X193620147Y-131581426D01*
X193565000Y-131858665D01*
X188815000Y-131858665D01*
X188759853Y-131581426D01*
X188651680Y-131320273D01*
X188494637Y-131085241D01*
X188294759Y-130885363D01*
X188059727Y-130728320D01*
X187798574Y-130620147D01*
X187521335Y-130565000D01*
X187238665Y-130565000D01*
X186961426Y-130620147D01*
X186700273Y-130728320D01*
X186465241Y-130885363D01*
X186265363Y-131085241D01*
X186108320Y-131320273D01*
X186000147Y-131581426D01*
X185945000Y-131858665D01*
X135660000Y-131858665D01*
X135660000Y-126858665D01*
X182565000Y-126858665D01*
X182565000Y-127141335D01*
X182620147Y-127418574D01*
X182728320Y-127679727D01*
X182885363Y-127914759D01*
X183085241Y-128114637D01*
X183320273Y-128271680D01*
X183581426Y-128379853D01*
X183858665Y-128435000D01*
X184141335Y-128435000D01*
X184418574Y-128379853D01*
X184679727Y-128271680D01*
X184914759Y-128114637D01*
X185114637Y-127914759D01*
X185271680Y-127679727D01*
X185379853Y-127418574D01*
X185435000Y-127141335D01*
X185435000Y-126858665D01*
X185379853Y-126581426D01*
X185271680Y-126320273D01*
X185114637Y-126085241D01*
X185029396Y-126000000D01*
X189861928Y-126000000D01*
X189861928Y-128000000D01*
X189874188Y-128124482D01*
X189910498Y-128244180D01*
X189969463Y-128354494D01*
X190048815Y-128451185D01*
X190145506Y-128530537D01*
X190255820Y-128589502D01*
X190375518Y-128625812D01*
X190500000Y-128638072D01*
X192500000Y-128638072D01*
X192624482Y-128625812D01*
X192744180Y-128589502D01*
X192854494Y-128530537D01*
X192951185Y-128451185D01*
X193030537Y-128354494D01*
X193089502Y-128244180D01*
X193125812Y-128124482D01*
X193138072Y-128000000D01*
X193138072Y-126858665D01*
X197565000Y-126858665D01*
X197565000Y-127141335D01*
X197620147Y-127418574D01*
X197728320Y-127679727D01*
X197885363Y-127914759D01*
X198085241Y-128114637D01*
X198320273Y-128271680D01*
X198581426Y-128379853D01*
X198858665Y-128435000D01*
X199141335Y-128435000D01*
X199418574Y-128379853D01*
X199679727Y-128271680D01*
X199914759Y-128114637D01*
X200114637Y-127914759D01*
X200271680Y-127679727D01*
X200379853Y-127418574D01*
X200435000Y-127141335D01*
X200435000Y-126858665D01*
X200379853Y-126581426D01*
X200271680Y-126320273D01*
X200114637Y-126085241D01*
X200029396Y-126000000D01*
X204361928Y-126000000D01*
X204361928Y-128000000D01*
X204374188Y-128124482D01*
X204410498Y-128244180D01*
X204469463Y-128354494D01*
X204548815Y-128451185D01*
X204645506Y-128530537D01*
X204755820Y-128589502D01*
X204875518Y-128625812D01*
X205000000Y-128638072D01*
X207000000Y-128638072D01*
X207124482Y-128625812D01*
X207244180Y-128589502D01*
X207354494Y-128530537D01*
X207451185Y-128451185D01*
X207530537Y-128354494D01*
X207589502Y-128244180D01*
X207625812Y-128124482D01*
X207638072Y-128000000D01*
X207638072Y-127900000D01*
X211261928Y-127900000D01*
X211261928Y-130100000D01*
X211274188Y-130224482D01*
X211310498Y-130344180D01*
X211369463Y-130454494D01*
X211448815Y-130551185D01*
X211545506Y-130630537D01*
X211655820Y-130689502D01*
X211775518Y-130725812D01*
X211900000Y-130738072D01*
X214100000Y-130738072D01*
X214224482Y-130725812D01*
X214344180Y-130689502D01*
X214454494Y-130630537D01*
X214551185Y-130551185D01*
X214630537Y-130454494D01*
X214689502Y-130344180D01*
X214725812Y-130224482D01*
X214738072Y-130100000D01*
X214738072Y-127900000D01*
X214725812Y-127775518D01*
X214689502Y-127655820D01*
X214630537Y-127545506D01*
X214551185Y-127448815D01*
X214454494Y-127369463D01*
X214344180Y-127310498D01*
X214224482Y-127274188D01*
X214100000Y-127261928D01*
X211900000Y-127261928D01*
X211775518Y-127274188D01*
X211655820Y-127310498D01*
X211545506Y-127369463D01*
X211448815Y-127448815D01*
X211369463Y-127545506D01*
X211310498Y-127655820D01*
X211274188Y-127775518D01*
X211261928Y-127900000D01*
X207638072Y-127900000D01*
X207638072Y-126500000D01*
X216861928Y-126500000D01*
X216861928Y-129500000D01*
X216874188Y-129624482D01*
X216910498Y-129744180D01*
X216969463Y-129854494D01*
X217048815Y-129951185D01*
X217145506Y-130030537D01*
X217255820Y-130089502D01*
X217375518Y-130125812D01*
X217500000Y-130138072D01*
X220500000Y-130138072D01*
X220624482Y-130125812D01*
X220744180Y-130089502D01*
X220854494Y-130030537D01*
X220951185Y-129951185D01*
X221030537Y-129854494D01*
X221089502Y-129744180D01*
X221125812Y-129624482D01*
X221138072Y-129500000D01*
X221138072Y-126500000D01*
X221125812Y-126375518D01*
X221089502Y-126255820D01*
X221030537Y-126145506D01*
X220951185Y-126048815D01*
X220854494Y-125969463D01*
X220744180Y-125910498D01*
X220624482Y-125874188D01*
X220500000Y-125861928D01*
X217500000Y-125861928D01*
X217375518Y-125874188D01*
X217255820Y-125910498D01*
X217145506Y-125969463D01*
X217048815Y-126048815D01*
X216969463Y-126145506D01*
X216910498Y-126255820D01*
X216874188Y-126375518D01*
X216861928Y-126500000D01*
X207638072Y-126500000D01*
X207638072Y-126000000D01*
X207625812Y-125875518D01*
X207589502Y-125755820D01*
X207530537Y-125645506D01*
X207451185Y-125548815D01*
X207354494Y-125469463D01*
X207244180Y-125410498D01*
X207124482Y-125374188D01*
X207000000Y-125361928D01*
X205000000Y-125361928D01*
X204875518Y-125374188D01*
X204755820Y-125410498D01*
X204645506Y-125469463D01*
X204548815Y-125548815D01*
X204469463Y-125645506D01*
X204410498Y-125755820D01*
X204374188Y-125875518D01*
X204361928Y-126000000D01*
X200029396Y-126000000D01*
X199914759Y-125885363D01*
X199679727Y-125728320D01*
X199418574Y-125620147D01*
X199141335Y-125565000D01*
X198858665Y-125565000D01*
X198581426Y-125620147D01*
X198320273Y-125728320D01*
X198085241Y-125885363D01*
X197885363Y-126085241D01*
X197728320Y-126320273D01*
X197620147Y-126581426D01*
X197565000Y-126858665D01*
X193138072Y-126858665D01*
X193138072Y-126000000D01*
X193125812Y-125875518D01*
X193089502Y-125755820D01*
X193030537Y-125645506D01*
X192951185Y-125548815D01*
X192854494Y-125469463D01*
X192744180Y-125410498D01*
X192624482Y-125374188D01*
X192500000Y-125361928D01*
X190500000Y-125361928D01*
X190375518Y-125374188D01*
X190255820Y-125410498D01*
X190145506Y-125469463D01*
X190048815Y-125548815D01*
X189969463Y-125645506D01*
X189910498Y-125755820D01*
X189874188Y-125875518D01*
X189861928Y-126000000D01*
X185029396Y-126000000D01*
X184914759Y-125885363D01*
X184679727Y-125728320D01*
X184418574Y-125620147D01*
X184141335Y-125565000D01*
X183858665Y-125565000D01*
X183581426Y-125620147D01*
X183320273Y-125728320D01*
X183085241Y-125885363D01*
X182885363Y-126085241D01*
X182728320Y-126320273D01*
X182620147Y-126581426D01*
X182565000Y-126858665D01*
X135660000Y-126858665D01*
X135660000Y-120838967D01*
X140805000Y-120838967D01*
X140805000Y-121161033D01*
X140867832Y-121476912D01*
X140991082Y-121774463D01*
X141170013Y-122042252D01*
X141397748Y-122269987D01*
X141665537Y-122448918D01*
X141963088Y-122572168D01*
X142278967Y-122635000D01*
X142601033Y-122635000D01*
X142916912Y-122572168D01*
X143214463Y-122448918D01*
X143482252Y-122269987D01*
X143709987Y-122042252D01*
X143710000Y-122042233D01*
X143710013Y-122042252D01*
X143937748Y-122269987D01*
X144205537Y-122448918D01*
X144503088Y-122572168D01*
X144818967Y-122635000D01*
X145141033Y-122635000D01*
X145456912Y-122572168D01*
X145754463Y-122448918D01*
X146022252Y-122269987D01*
X146249987Y-122042252D01*
X146250000Y-122042233D01*
X146250013Y-122042252D01*
X146477748Y-122269987D01*
X146745537Y-122448918D01*
X147043088Y-122572168D01*
X147358967Y-122635000D01*
X147681033Y-122635000D01*
X147996912Y-122572168D01*
X148294463Y-122448918D01*
X148562252Y-122269987D01*
X148789987Y-122042252D01*
X148790000Y-122042233D01*
X148790013Y-122042252D01*
X149017748Y-122269987D01*
X149285537Y-122448918D01*
X149583088Y-122572168D01*
X149898967Y-122635000D01*
X150221033Y-122635000D01*
X150536912Y-122572168D01*
X150834463Y-122448918D01*
X151102252Y-122269987D01*
X151329987Y-122042252D01*
X151330000Y-122042233D01*
X151330013Y-122042252D01*
X151557748Y-122269987D01*
X151825537Y-122448918D01*
X152123088Y-122572168D01*
X152438967Y-122635000D01*
X152761033Y-122635000D01*
X153076912Y-122572168D01*
X153374463Y-122448918D01*
X153642252Y-122269987D01*
X153869987Y-122042252D01*
X153870000Y-122042233D01*
X153870013Y-122042252D01*
X154097748Y-122269987D01*
X154365537Y-122448918D01*
X154663088Y-122572168D01*
X154978967Y-122635000D01*
X155301033Y-122635000D01*
X155616912Y-122572168D01*
X155914463Y-122448918D01*
X156182252Y-122269987D01*
X156409987Y-122042252D01*
X156410000Y-122042233D01*
X156410013Y-122042252D01*
X156637748Y-122269987D01*
X156905537Y-122448918D01*
X157203088Y-122572168D01*
X157518967Y-122635000D01*
X157841033Y-122635000D01*
X158156912Y-122572168D01*
X158454463Y-122448918D01*
X158722252Y-122269987D01*
X158949987Y-122042252D01*
X158950000Y-122042233D01*
X158950013Y-122042252D01*
X159177748Y-122269987D01*
X159445537Y-122448918D01*
X159743088Y-122572168D01*
X160058967Y-122635000D01*
X160381033Y-122635000D01*
X160696912Y-122572168D01*
X160994463Y-122448918D01*
X161262252Y-122269987D01*
X161489987Y-122042252D01*
X161490000Y-122042233D01*
X161490013Y-122042252D01*
X161717748Y-122269987D01*
X161985537Y-122448918D01*
X162283088Y-122572168D01*
X162598967Y-122635000D01*
X162921033Y-122635000D01*
X163236912Y-122572168D01*
X163534463Y-122448918D01*
X163802252Y-122269987D01*
X164029987Y-122042252D01*
X164030000Y-122042233D01*
X164030013Y-122042252D01*
X164257748Y-122269987D01*
X164525537Y-122448918D01*
X164823088Y-122572168D01*
X165138967Y-122635000D01*
X165461033Y-122635000D01*
X165776912Y-122572168D01*
X166074463Y-122448918D01*
X166342252Y-122269987D01*
X166569987Y-122042252D01*
X166570000Y-122042233D01*
X166570013Y-122042252D01*
X166797748Y-122269987D01*
X167065537Y-122448918D01*
X167363088Y-122572168D01*
X167678967Y-122635000D01*
X168001033Y-122635000D01*
X168316912Y-122572168D01*
X168614463Y-122448918D01*
X168882252Y-122269987D01*
X169109987Y-122042252D01*
X169110000Y-122042233D01*
X169110013Y-122042252D01*
X169337748Y-122269987D01*
X169605537Y-122448918D01*
X169903088Y-122572168D01*
X170218967Y-122635000D01*
X170541033Y-122635000D01*
X170856912Y-122572168D01*
X171154463Y-122448918D01*
X171422252Y-122269987D01*
X171649987Y-122042252D01*
X171650000Y-122042233D01*
X171650013Y-122042252D01*
X171877748Y-122269987D01*
X172145537Y-122448918D01*
X172443088Y-122572168D01*
X172758967Y-122635000D01*
X173081033Y-122635000D01*
X173396912Y-122572168D01*
X173694463Y-122448918D01*
X173962252Y-122269987D01*
X174189987Y-122042252D01*
X174190000Y-122042233D01*
X174190013Y-122042252D01*
X174417748Y-122269987D01*
X174685537Y-122448918D01*
X174983088Y-122572168D01*
X175298967Y-122635000D01*
X175621033Y-122635000D01*
X175936912Y-122572168D01*
X176234463Y-122448918D01*
X176444809Y-122308370D01*
X176469463Y-122354494D01*
X176548815Y-122451185D01*
X176645506Y-122530537D01*
X176755820Y-122589502D01*
X176875518Y-122625812D01*
X177000000Y-122638072D01*
X179000000Y-122638072D01*
X179124482Y-122625812D01*
X179244180Y-122589502D01*
X179354494Y-122530537D01*
X179451185Y-122451185D01*
X179530537Y-122354494D01*
X179589502Y-122244180D01*
X179625812Y-122124482D01*
X179638072Y-122000000D01*
X179638072Y-121858665D01*
X182565000Y-121858665D01*
X182565000Y-122141335D01*
X182620147Y-122418574D01*
X182728320Y-122679727D01*
X182885363Y-122914759D01*
X183085241Y-123114637D01*
X183320273Y-123271680D01*
X183581426Y-123379853D01*
X183858665Y-123435000D01*
X184141335Y-123435000D01*
X184418574Y-123379853D01*
X184679727Y-123271680D01*
X184914759Y-123114637D01*
X185114637Y-122914759D01*
X185271680Y-122679727D01*
X185379853Y-122418574D01*
X185435000Y-122141335D01*
X185435000Y-121858665D01*
X185431082Y-121838967D01*
X189865000Y-121838967D01*
X189865000Y-122161033D01*
X189927832Y-122476912D01*
X190051082Y-122774463D01*
X190230013Y-123042252D01*
X190457748Y-123269987D01*
X190725537Y-123448918D01*
X191023088Y-123572168D01*
X191338967Y-123635000D01*
X191661033Y-123635000D01*
X191976912Y-123572168D01*
X192274463Y-123448918D01*
X192542252Y-123269987D01*
X192769987Y-123042252D01*
X192948918Y-122774463D01*
X193072168Y-122476912D01*
X193135000Y-122161033D01*
X193135000Y-121858665D01*
X197565000Y-121858665D01*
X197565000Y-122141335D01*
X197620147Y-122418574D01*
X197728320Y-122679727D01*
X197885363Y-122914759D01*
X198085241Y-123114637D01*
X198320273Y-123271680D01*
X198581426Y-123379853D01*
X198858665Y-123435000D01*
X199141335Y-123435000D01*
X199418574Y-123379853D01*
X199679727Y-123271680D01*
X199914759Y-123114637D01*
X200114637Y-122914759D01*
X200271680Y-122679727D01*
X200379853Y-122418574D01*
X200435000Y-122141335D01*
X200435000Y-121858665D01*
X200431082Y-121838967D01*
X204365000Y-121838967D01*
X204365000Y-122161033D01*
X204427832Y-122476912D01*
X204551082Y-122774463D01*
X204730013Y-123042252D01*
X204957748Y-123269987D01*
X205225537Y-123448918D01*
X205523088Y-123572168D01*
X205838967Y-123635000D01*
X206161033Y-123635000D01*
X206476912Y-123572168D01*
X206774463Y-123448918D01*
X207042252Y-123269987D01*
X207269987Y-123042252D01*
X207448918Y-122774463D01*
X207475735Y-122709721D01*
X216865000Y-122709721D01*
X216865000Y-123130279D01*
X216947047Y-123542756D01*
X217107988Y-123931302D01*
X217341637Y-124280983D01*
X217639017Y-124578363D01*
X217988698Y-124812012D01*
X218377244Y-124972953D01*
X218789721Y-125055000D01*
X219210279Y-125055000D01*
X219622756Y-124972953D01*
X220011302Y-124812012D01*
X220360983Y-124578363D01*
X220658363Y-124280983D01*
X220892012Y-123931302D01*
X221052953Y-123542756D01*
X221135000Y-123130279D01*
X221135000Y-122709721D01*
X221052953Y-122297244D01*
X220892012Y-121908698D01*
X220658363Y-121559017D01*
X220360983Y-121261637D01*
X220011302Y-121027988D01*
X219622756Y-120867047D01*
X219210279Y-120785000D01*
X218789721Y-120785000D01*
X218377244Y-120867047D01*
X217988698Y-121027988D01*
X217639017Y-121261637D01*
X217341637Y-121559017D01*
X217107988Y-121908698D01*
X216947047Y-122297244D01*
X216865000Y-122709721D01*
X207475735Y-122709721D01*
X207572168Y-122476912D01*
X207635000Y-122161033D01*
X207635000Y-121838967D01*
X207572168Y-121523088D01*
X207448918Y-121225537D01*
X207269987Y-120957748D01*
X207042252Y-120730013D01*
X206774463Y-120551082D01*
X206476912Y-120427832D01*
X206161033Y-120365000D01*
X205838967Y-120365000D01*
X205523088Y-120427832D01*
X205225537Y-120551082D01*
X204957748Y-120730013D01*
X204730013Y-120957748D01*
X204551082Y-121225537D01*
X204427832Y-121523088D01*
X204365000Y-121838967D01*
X200431082Y-121838967D01*
X200379853Y-121581426D01*
X200271680Y-121320273D01*
X200114637Y-121085241D01*
X199914759Y-120885363D01*
X199679727Y-120728320D01*
X199418574Y-120620147D01*
X199141335Y-120565000D01*
X198858665Y-120565000D01*
X198581426Y-120620147D01*
X198320273Y-120728320D01*
X198085241Y-120885363D01*
X197885363Y-121085241D01*
X197728320Y-121320273D01*
X197620147Y-121581426D01*
X197565000Y-121858665D01*
X193135000Y-121858665D01*
X193135000Y-121838967D01*
X193072168Y-121523088D01*
X192948918Y-121225537D01*
X192769987Y-120957748D01*
X192542252Y-120730013D01*
X192274463Y-120551082D01*
X191976912Y-120427832D01*
X191661033Y-120365000D01*
X191338967Y-120365000D01*
X191023088Y-120427832D01*
X190725537Y-120551082D01*
X190457748Y-120730013D01*
X190230013Y-120957748D01*
X190051082Y-121225537D01*
X189927832Y-121523088D01*
X189865000Y-121838967D01*
X185431082Y-121838967D01*
X185379853Y-121581426D01*
X185271680Y-121320273D01*
X185114637Y-121085241D01*
X184914759Y-120885363D01*
X184679727Y-120728320D01*
X184418574Y-120620147D01*
X184141335Y-120565000D01*
X183858665Y-120565000D01*
X183581426Y-120620147D01*
X183320273Y-120728320D01*
X183085241Y-120885363D01*
X182885363Y-121085241D01*
X182728320Y-121320273D01*
X182620147Y-121581426D01*
X182565000Y-121858665D01*
X179638072Y-121858665D01*
X179638072Y-120000000D01*
X179625812Y-119875518D01*
X179589502Y-119755820D01*
X179530537Y-119645506D01*
X179451185Y-119548815D01*
X179354494Y-119469463D01*
X179244180Y-119410498D01*
X179124482Y-119374188D01*
X179000000Y-119361928D01*
X177000000Y-119361928D01*
X176875518Y-119374188D01*
X176755820Y-119410498D01*
X176645506Y-119469463D01*
X176548815Y-119548815D01*
X176469463Y-119645506D01*
X176444809Y-119691630D01*
X176234463Y-119551082D01*
X175936912Y-119427832D01*
X175621033Y-119365000D01*
X175298967Y-119365000D01*
X174983088Y-119427832D01*
X174685537Y-119551082D01*
X174417748Y-119730013D01*
X174190013Y-119957748D01*
X174190000Y-119957767D01*
X174189987Y-119957748D01*
X173962252Y-119730013D01*
X173694463Y-119551082D01*
X173396912Y-119427832D01*
X173081033Y-119365000D01*
X172758967Y-119365000D01*
X172443088Y-119427832D01*
X172145537Y-119551082D01*
X171877748Y-119730013D01*
X171650013Y-119957748D01*
X171650000Y-119957767D01*
X171649987Y-119957748D01*
X171422252Y-119730013D01*
X171154463Y-119551082D01*
X170856912Y-119427832D01*
X170541033Y-119365000D01*
X170218967Y-119365000D01*
X169903088Y-119427832D01*
X169605537Y-119551082D01*
X169337748Y-119730013D01*
X169110013Y-119957748D01*
X169110000Y-119957767D01*
X169109987Y-119957748D01*
X168882252Y-119730013D01*
X168614463Y-119551082D01*
X168316912Y-119427832D01*
X168001033Y-119365000D01*
X167678967Y-119365000D01*
X167363088Y-119427832D01*
X167065537Y-119551082D01*
X166797748Y-119730013D01*
X166570013Y-119957748D01*
X166570000Y-119957767D01*
X166569987Y-119957748D01*
X166342252Y-119730013D01*
X166074463Y-119551082D01*
X165776912Y-119427832D01*
X165461033Y-119365000D01*
X165138967Y-119365000D01*
X164823088Y-119427832D01*
X164525537Y-119551082D01*
X164257748Y-119730013D01*
X164030013Y-119957748D01*
X164030000Y-119957767D01*
X164029987Y-119957748D01*
X163802252Y-119730013D01*
X163534463Y-119551082D01*
X163236912Y-119427832D01*
X162921033Y-119365000D01*
X162598967Y-119365000D01*
X162283088Y-119427832D01*
X161985537Y-119551082D01*
X161717748Y-119730013D01*
X161490013Y-119957748D01*
X161490000Y-119957767D01*
X161489987Y-119957748D01*
X161262252Y-119730013D01*
X160994463Y-119551082D01*
X160696912Y-119427832D01*
X160381033Y-119365000D01*
X160058967Y-119365000D01*
X159743088Y-119427832D01*
X159445537Y-119551082D01*
X159177748Y-119730013D01*
X158950013Y-119957748D01*
X158950000Y-119957767D01*
X158949987Y-119957748D01*
X158722252Y-119730013D01*
X158454463Y-119551082D01*
X158156912Y-119427832D01*
X157841033Y-119365000D01*
X157518967Y-119365000D01*
X157203088Y-119427832D01*
X156905537Y-119551082D01*
X156637748Y-119730013D01*
X156410013Y-119957748D01*
X156410000Y-119957767D01*
X156409987Y-119957748D01*
X156182252Y-119730013D01*
X155914463Y-119551082D01*
X155616912Y-119427832D01*
X155301033Y-119365000D01*
X154978967Y-119365000D01*
X154663088Y-119427832D01*
X154365537Y-119551082D01*
X154097748Y-119730013D01*
X153870013Y-119957748D01*
X153870000Y-119957767D01*
X153869987Y-119957748D01*
X153642252Y-119730013D01*
X153374463Y-119551082D01*
X153076912Y-119427832D01*
X152761033Y-119365000D01*
X152438967Y-119365000D01*
X152123088Y-119427832D01*
X151825537Y-119551082D01*
X151557748Y-119730013D01*
X151330013Y-119957748D01*
X151330000Y-119957767D01*
X151329987Y-119957748D01*
X151102252Y-119730013D01*
X150834463Y-119551082D01*
X150536912Y-119427832D01*
X150221033Y-119365000D01*
X149898967Y-119365000D01*
X149583088Y-119427832D01*
X149285537Y-119551082D01*
X149017748Y-119730013D01*
X148790013Y-119957748D01*
X148790000Y-119957767D01*
X148789987Y-119957748D01*
X148562252Y-119730013D01*
X148294463Y-119551082D01*
X147996912Y-119427832D01*
X147681033Y-119365000D01*
X147358967Y-119365000D01*
X147043088Y-119427832D01*
X146745537Y-119551082D01*
X146477748Y-119730013D01*
X146250013Y-119957748D01*
X146250000Y-119957767D01*
X146249987Y-119957748D01*
X146022252Y-119730013D01*
X145754463Y-119551082D01*
X145456912Y-119427832D01*
X145141033Y-119365000D01*
X144818967Y-119365000D01*
X144503088Y-119427832D01*
X144205537Y-119551082D01*
X143937748Y-119730013D01*
X143710013Y-119957748D01*
X143710000Y-119957767D01*
X143709987Y-119957748D01*
X143482252Y-119730013D01*
X143214463Y-119551082D01*
X142916912Y-119427832D01*
X142601033Y-119365000D01*
X142278967Y-119365000D01*
X141963088Y-119427832D01*
X141665537Y-119551082D01*
X141397748Y-119730013D01*
X141170013Y-119957748D01*
X140991082Y-120225537D01*
X140867832Y-120523088D01*
X140805000Y-120838967D01*
X135660000Y-120838967D01*
X135660000Y-118669117D01*
X211265000Y-118669117D01*
X211265000Y-119010883D01*
X211331675Y-119346081D01*
X211462463Y-119661831D01*
X211652337Y-119945998D01*
X211894002Y-120187663D01*
X212178169Y-120377537D01*
X212493919Y-120508325D01*
X212829117Y-120575000D01*
X213170883Y-120575000D01*
X213506081Y-120508325D01*
X213821831Y-120377537D01*
X214105998Y-120187663D01*
X214347663Y-119945998D01*
X214537537Y-119661831D01*
X214668325Y-119346081D01*
X214735000Y-119010883D01*
X214735000Y-118669117D01*
X214668325Y-118333919D01*
X214537537Y-118018169D01*
X214347663Y-117734002D01*
X214105998Y-117492337D01*
X213821831Y-117302463D01*
X213506081Y-117171675D01*
X213170883Y-117105000D01*
X212829117Y-117105000D01*
X212493919Y-117171675D01*
X212178169Y-117302463D01*
X211894002Y-117492337D01*
X211652337Y-117734002D01*
X211462463Y-118018169D01*
X211331675Y-118333919D01*
X211265000Y-118669117D01*
X135660000Y-118669117D01*
X135660000Y-113568115D01*
X136615000Y-113568115D01*
X136615000Y-114431885D01*
X136783513Y-115279057D01*
X137114064Y-116077076D01*
X137593948Y-116795274D01*
X138204726Y-117406052D01*
X138922924Y-117885936D01*
X139720943Y-118216487D01*
X140568115Y-118385000D01*
X141431885Y-118385000D01*
X142279057Y-118216487D01*
X143077076Y-117885936D01*
X143795274Y-117406052D01*
X144406052Y-116795274D01*
X144885936Y-116077076D01*
X145216487Y-115279057D01*
X145385000Y-114431885D01*
X145385000Y-113568115D01*
X216615000Y-113568115D01*
X216615000Y-114431885D01*
X216783513Y-115279057D01*
X217114064Y-116077076D01*
X217593948Y-116795274D01*
X218204726Y-117406052D01*
X218922924Y-117885936D01*
X219720943Y-118216487D01*
X220568115Y-118385000D01*
X221431885Y-118385000D01*
X222279057Y-118216487D01*
X223077076Y-117885936D01*
X223795274Y-117406052D01*
X224406052Y-116795274D01*
X224885936Y-116077076D01*
X225216487Y-115279057D01*
X225385000Y-114431885D01*
X225385000Y-113568115D01*
X225216487Y-112720943D01*
X224885936Y-111922924D01*
X224406052Y-111204726D01*
X223795274Y-110593948D01*
X223077076Y-110114064D01*
X222279057Y-109783513D01*
X221431885Y-109615000D01*
X220568115Y-109615000D01*
X219720943Y-109783513D01*
X218922924Y-110114064D01*
X218204726Y-110593948D01*
X217593948Y-111204726D01*
X217114064Y-111922924D01*
X216783513Y-112720943D01*
X216615000Y-113568115D01*
X145385000Y-113568115D01*
X145216487Y-112720943D01*
X144885936Y-111922924D01*
X144406052Y-111204726D01*
X143795274Y-110593948D01*
X143077076Y-110114064D01*
X142279057Y-109783513D01*
X141431885Y-109615000D01*
X140568115Y-109615000D01*
X139720943Y-109783513D01*
X138922924Y-110114064D01*
X138204726Y-110593948D01*
X137593948Y-111204726D01*
X137114064Y-111922924D01*
X136783513Y-112720943D01*
X136615000Y-113568115D01*
X135660000Y-113568115D01*
X135660000Y-113029392D01*
X135731173Y-112231917D01*
X135934656Y-111488109D01*
X136266638Y-110792095D01*
X136716626Y-110165870D01*
X137270403Y-109629223D01*
X137910451Y-109199129D01*
X138616553Y-108889171D01*
X139371457Y-108707935D01*
X140024207Y-108660000D01*
X221970608Y-108660000D01*
X222768083Y-108731173D01*
M02*
