G04 #@! TF.GenerationSoftware,KiCad,Pcbnew,(5.1.5-0-10_14)*
G04 #@! TF.CreationDate,2020-08-14T20:47:27-03:00*
G04 #@! TF.ProjectId,UltraCif,556c7472-6143-4696-962e-6b696361645f,rev?*
G04 #@! TF.SameCoordinates,Original*
G04 #@! TF.FileFunction,Copper,L2,Bot*
G04 #@! TF.FilePolarity,Positive*
%FSLAX46Y46*%
G04 Gerber Fmt 4.6, Leading zero omitted, Abs format (unit mm)*
G04 Created by KiCad (PCBNEW (5.1.5-0-10_14)) date 2020-08-14 20:47:27*
%MOMM*%
%LPD*%
G04 APERTURE LIST*
%ADD10O,2.000000X2.000000*%
%ADD11R,2.000000X2.000000*%
%ADD12O,1.600000X1.600000*%
%ADD13C,1.600000*%
%ADD14O,1.700000X1.700000*%
%ADD15R,1.700000X1.700000*%
%ADD16R,1.500000X1.500000*%
%ADD17C,1.500000*%
%ADD18C,3.000000*%
%ADD19R,3.000000X3.000000*%
%ADD20C,7.500000*%
%ADD21O,1.905000X2.000000*%
%ADD22R,1.905000X2.000000*%
%ADD23R,1.600000X1.600000*%
%ADD24C,1.800000*%
%ADD25R,1.800000X1.800000*%
%ADD26O,2.200000X2.200000*%
%ADD27R,2.200000X2.200000*%
%ADD28C,2.000000*%
%ADD29C,1.000000*%
%ADD30C,2.000000*%
%ADD31C,0.254000*%
G04 APERTURE END LIST*
D10*
X142440000Y-136240000D03*
X142440000Y-121000000D03*
X178000000Y-136240000D03*
X144980000Y-121000000D03*
X175460000Y-136240000D03*
X147520000Y-121000000D03*
X172920000Y-136240000D03*
X150060000Y-121000000D03*
X170380000Y-136240000D03*
X152600000Y-121000000D03*
X167840000Y-136240000D03*
X155140000Y-121000000D03*
X165300000Y-136240000D03*
X157680000Y-121000000D03*
X162760000Y-136240000D03*
X160220000Y-121000000D03*
X160220000Y-136240000D03*
X162760000Y-121000000D03*
X157680000Y-136240000D03*
X165300000Y-121000000D03*
X155140000Y-136240000D03*
X167840000Y-121000000D03*
X152600000Y-136240000D03*
X170380000Y-121000000D03*
X150060000Y-136240000D03*
X172920000Y-121000000D03*
X147520000Y-136240000D03*
X175460000Y-121000000D03*
X144980000Y-136240000D03*
D11*
X178000000Y-121000000D03*
D12*
X158200000Y-161420000D03*
D13*
X158200000Y-153800000D03*
D14*
X141000000Y-167080000D03*
X141000000Y-164540000D03*
D15*
X141000000Y-162000000D03*
D14*
X141000000Y-150380000D03*
X141000000Y-152920000D03*
X141000000Y-155460000D03*
D15*
X141000000Y-158000000D03*
D16*
X212400000Y-147600000D03*
D17*
X212400000Y-142520000D03*
X212400000Y-145060000D03*
D14*
X181380000Y-174000000D03*
X183920000Y-174000000D03*
X186460000Y-174000000D03*
D15*
X189000000Y-174000000D03*
D12*
X187380000Y-132000000D03*
D13*
X195000000Y-132000000D03*
D10*
X178300000Y-168000000D03*
X191000000Y-150220000D03*
X178300000Y-165460000D03*
X191000000Y-152760000D03*
X178300000Y-162920000D03*
X191000000Y-155300000D03*
X178300000Y-160380000D03*
X191000000Y-157840000D03*
X178300000Y-157840000D03*
X191000000Y-160380000D03*
X178300000Y-155300000D03*
X191000000Y-162920000D03*
X178300000Y-152760000D03*
X191000000Y-165460000D03*
X178300000Y-150220000D03*
D11*
X191000000Y-168000000D03*
D14*
X157080000Y-173500000D03*
X154540000Y-173500000D03*
D15*
X152000000Y-173500000D03*
D14*
X141000000Y-140920000D03*
X141000000Y-143460000D03*
D15*
X141000000Y-146000000D03*
D18*
X219000000Y-148420000D03*
D19*
X219000000Y-153500000D03*
D18*
X209330000Y-172750000D03*
D19*
X204250000Y-172750000D03*
D18*
X219000000Y-122920000D03*
D19*
X219000000Y-128000000D03*
D18*
X219000000Y-135420000D03*
D19*
X219000000Y-140500000D03*
D18*
X219000000Y-160920000D03*
D19*
X219000000Y-166000000D03*
D14*
X169620000Y-173500000D03*
X167080000Y-173500000D03*
X164540000Y-173500000D03*
D15*
X162000000Y-173500000D03*
D20*
X141000000Y-174000000D03*
X141000000Y-114000000D03*
X221000000Y-114000000D03*
X221000000Y-174000000D03*
D12*
X154500000Y-161370000D03*
D13*
X154500000Y-153750000D03*
D12*
X151000000Y-161370000D03*
D13*
X151000000Y-153750000D03*
D21*
X206420000Y-132500000D03*
X208960000Y-132500000D03*
D22*
X211500000Y-132500000D03*
D12*
X208120000Y-139400000D03*
D13*
X200500000Y-139400000D03*
D12*
X208120000Y-146500000D03*
D23*
X200500000Y-146500000D03*
D24*
X212400000Y-137460000D03*
D25*
X212400000Y-140000000D03*
D24*
X200000000Y-131960000D03*
D25*
X200000000Y-134500000D03*
D26*
X213000000Y-118840000D03*
D27*
X213000000Y-129000000D03*
D28*
X191500000Y-122000000D03*
D11*
X191500000Y-127000000D03*
D13*
X184000000Y-122000000D03*
X184000000Y-127000000D03*
X199000000Y-122000000D03*
X199000000Y-127000000D03*
D28*
X206000000Y-122000000D03*
D11*
X206000000Y-127000000D03*
D12*
X200480000Y-143100000D03*
D13*
X208100000Y-143100000D03*
D18*
X206500000Y-150500000D03*
X212500000Y-152500000D03*
X212500000Y-164700000D03*
X200500000Y-164700000D03*
X200500000Y-152500000D03*
D29*
X213000000Y-118840000D02*
X213000000Y-121000000D01*
X214920000Y-122920000D02*
X219000000Y-122920000D01*
X213000000Y-121000000D02*
X214920000Y-122920000D01*
X200500000Y-139400000D02*
X201400000Y-139400000D01*
X200500000Y-146500000D02*
X200500000Y-152500000D01*
X196780000Y-150220000D02*
X200500000Y-146500000D01*
X191000000Y-150220000D02*
X196780000Y-150220000D01*
X205000000Y-144800000D02*
X205000000Y-140800000D01*
X203300000Y-146500000D02*
X205000000Y-144800000D01*
X200500000Y-146500000D02*
X203300000Y-146500000D01*
X203600000Y-139400000D02*
X205000000Y-140800000D01*
X200500000Y-139400000D02*
X203600000Y-139400000D01*
X221920000Y-122920000D02*
X219000000Y-122920000D01*
X222500000Y-123500000D02*
X221920000Y-122920000D01*
X222500000Y-130000000D02*
X222500000Y-123500000D01*
X220500000Y-132000000D02*
X222500000Y-130000000D01*
X215200000Y-132000000D02*
X220500000Y-132000000D01*
X212200000Y-135000000D02*
X215200000Y-132000000D01*
X210200000Y-135000000D02*
X212200000Y-135000000D01*
X205000000Y-140200000D02*
X210200000Y-135000000D01*
X205000000Y-140800000D02*
X205000000Y-140200000D01*
X184000000Y-122000000D02*
X191500000Y-122000000D01*
X191500000Y-122000000D02*
X199000000Y-122000000D01*
X199000000Y-122000000D02*
X206000000Y-122000000D01*
X206000000Y-122000000D02*
X210000000Y-122000000D01*
X216000000Y-128000000D02*
X219000000Y-128000000D01*
X210000000Y-122000000D02*
X216000000Y-128000000D01*
X200000000Y-134500000D02*
X208500000Y-134500000D01*
X208960000Y-134040000D02*
X208960000Y-132500000D01*
X208500000Y-134500000D02*
X208960000Y-134040000D01*
X162000000Y-176500000D02*
X162000000Y-173500000D01*
X196560000Y-152760000D02*
X191000000Y-152760000D01*
X198800000Y-155000000D02*
X196560000Y-152760000D01*
X202200000Y-155000000D02*
X198800000Y-155000000D01*
X203200000Y-154000000D02*
X202200000Y-155000000D01*
X203200000Y-148600000D02*
X203200000Y-154000000D01*
X212400000Y-142520000D02*
X210720000Y-142520000D01*
X207400000Y-141200000D02*
X206400000Y-142200000D01*
X209400000Y-141200000D02*
X207400000Y-141200000D01*
X206400000Y-145400000D02*
X203200000Y-148600000D01*
X210720000Y-142520000D02*
X209400000Y-141200000D01*
X206400000Y-142200000D02*
X206400000Y-145400000D01*
X208960000Y-132500000D02*
X208960000Y-130360000D01*
X208960000Y-130360000D02*
X207600000Y-129000000D01*
X207600000Y-129000000D02*
X198200000Y-129000000D01*
X191500000Y-122300000D02*
X191500000Y-122000000D01*
X198200000Y-129000000D02*
X191500000Y-122300000D01*
X141000000Y-143460000D02*
X138540000Y-143460000D01*
X186740000Y-152760000D02*
X191000000Y-152760000D01*
X184050000Y-155450000D02*
X186740000Y-152760000D01*
X184050000Y-168450000D02*
X184050000Y-155450000D01*
X179500000Y-173000000D02*
X184050000Y-168450000D01*
X179500000Y-175500000D02*
X179500000Y-173000000D01*
X180000000Y-176000000D02*
X179500000Y-175500000D01*
X190500000Y-176000000D02*
X180000000Y-176000000D01*
X191000000Y-175500000D02*
X190500000Y-176000000D01*
X191000000Y-168000000D02*
X191000000Y-175500000D01*
X164200000Y-178700000D02*
X162000000Y-176500000D01*
X138500000Y-143500000D02*
X138540000Y-143460000D01*
X141000000Y-155460000D02*
X139460000Y-155460000D01*
X138000000Y-154000000D02*
X138000000Y-150000000D01*
X139460000Y-155460000D02*
X138000000Y-154000000D01*
X139000000Y-162000000D02*
X138000000Y-161000000D01*
X138000000Y-161000000D02*
X138000000Y-154000000D01*
X141000000Y-162000000D02*
X139000000Y-162000000D01*
X138380000Y-150380000D02*
X138000000Y-150000000D01*
X141000000Y-150380000D02*
X138380000Y-150380000D01*
X138460000Y-143460000D02*
X136500000Y-141500000D01*
X141000000Y-143460000D02*
X138460000Y-143460000D01*
X138000000Y-150000000D02*
X136500000Y-148500000D01*
X136500000Y-148500000D02*
X136500000Y-146000000D01*
X136500000Y-146000000D02*
X136500000Y-141500000D01*
X138500000Y-148000000D02*
X136500000Y-146000000D01*
X143000000Y-148000000D02*
X138500000Y-148000000D01*
X144550000Y-146450000D02*
X143000000Y-148000000D01*
X144550000Y-139800000D02*
X144550000Y-146450000D01*
X142850000Y-138100000D02*
X144550000Y-139800000D01*
X141200000Y-138100000D02*
X142850000Y-138100000D01*
X140450000Y-137350000D02*
X141200000Y-138100000D01*
X174400000Y-133400000D02*
X142000000Y-133400000D01*
X140450000Y-134950000D02*
X140450000Y-137350000D01*
X142000000Y-133400000D02*
X140450000Y-134950000D01*
X175460000Y-134460000D02*
X174400000Y-133400000D01*
X175460000Y-136240000D02*
X175460000Y-134460000D01*
X184000000Y-118500000D02*
X183500000Y-118000000D01*
X184000000Y-122000000D02*
X184000000Y-118500000D01*
X170380000Y-119380000D02*
X169000000Y-118000000D01*
X170380000Y-121000000D02*
X170380000Y-119380000D01*
X170380000Y-118620000D02*
X171000000Y-118000000D01*
X170380000Y-121000000D02*
X170380000Y-118620000D01*
X171000000Y-118000000D02*
X169000000Y-118000000D01*
X170380000Y-119620000D02*
X172000000Y-118000000D01*
X172000000Y-118000000D02*
X171000000Y-118000000D01*
X170380000Y-121000000D02*
X170380000Y-119620000D01*
X183500000Y-118000000D02*
X172000000Y-118000000D01*
X164200000Y-178700000D02*
X155700000Y-178700000D01*
X154540000Y-177540000D02*
X154540000Y-173500000D01*
X155700000Y-178700000D02*
X154540000Y-177540000D01*
X191800000Y-178700000D02*
X164200000Y-178700000D01*
X194250000Y-153450000D02*
X194250000Y-176250000D01*
X193560000Y-152760000D02*
X194250000Y-153450000D01*
X194250000Y-176250000D02*
X191800000Y-178700000D01*
X191000000Y-152760000D02*
X193560000Y-152760000D01*
X148500000Y-177000000D02*
X150200000Y-178700000D01*
X150200000Y-178700000D02*
X164200000Y-178700000D01*
X148500000Y-171500000D02*
X148500000Y-177000000D01*
X146000000Y-169000000D02*
X148500000Y-171500000D01*
X140000000Y-169000000D02*
X146000000Y-169000000D01*
X138000000Y-167000000D02*
X140000000Y-169000000D01*
X138000000Y-161000000D02*
X138000000Y-167000000D01*
X140500000Y-119000000D02*
X136500000Y-123000000D01*
X144500000Y-119000000D02*
X140500000Y-119000000D01*
X145500000Y-118000000D02*
X144500000Y-119000000D01*
X136500000Y-123000000D02*
X136500000Y-141500000D01*
X169000000Y-118000000D02*
X145500000Y-118000000D01*
X160220000Y-122720000D02*
X160220000Y-121000000D01*
X163500000Y-126000000D02*
X160220000Y-122720000D01*
X175500000Y-126000000D02*
X163500000Y-126000000D01*
X185500000Y-136000000D02*
X175500000Y-126000000D01*
X181500000Y-165000000D02*
X181500000Y-152500000D01*
X185500000Y-148500000D02*
X185500000Y-136000000D01*
X178300000Y-168000000D02*
X178500000Y-168000000D01*
X181500000Y-152500000D02*
X185500000Y-148500000D01*
X178500000Y-168000000D02*
X181500000Y-165000000D01*
X157680000Y-122680000D02*
X157680000Y-121000000D01*
X162500000Y-127500000D02*
X157680000Y-122680000D01*
X175000000Y-127500000D02*
X162500000Y-127500000D01*
X184000000Y-136500000D02*
X175000000Y-127500000D01*
X184000000Y-148000000D02*
X184000000Y-136500000D01*
X180250000Y-151750000D02*
X184000000Y-148000000D01*
X180250000Y-163750000D02*
X180250000Y-151750000D01*
X178540000Y-165460000D02*
X180250000Y-163750000D01*
X178300000Y-165460000D02*
X178540000Y-165460000D01*
X178300000Y-160380000D02*
X178300000Y-162920000D01*
X189200000Y-155300000D02*
X191000000Y-155300000D01*
X185299990Y-159200010D02*
X189200000Y-155300000D01*
X185299990Y-169700010D02*
X185299990Y-159200010D01*
X181380000Y-173620000D02*
X185299990Y-169700010D01*
X181380000Y-174000000D02*
X181380000Y-173620000D01*
X189660000Y-157840000D02*
X191000000Y-157840000D01*
X186500000Y-161000000D02*
X189660000Y-157840000D01*
X186500000Y-170900000D02*
X186500000Y-161000000D01*
X183920000Y-173480000D02*
X186500000Y-170900000D01*
X183920000Y-174000000D02*
X183920000Y-173480000D01*
X187750000Y-162250000D02*
X189620000Y-160380000D01*
X189620000Y-160380000D02*
X191000000Y-160380000D01*
X187750000Y-172049990D02*
X187750000Y-162250000D01*
X186460000Y-173339990D02*
X187750000Y-172049990D01*
X186460000Y-174000000D02*
X186460000Y-173339990D01*
X189580000Y-162920000D02*
X191000000Y-162920000D01*
X189000000Y-163500000D02*
X189580000Y-162920000D01*
X189000000Y-174000000D02*
X189000000Y-163500000D01*
X184000000Y-127000000D02*
X191500000Y-127000000D01*
X190200000Y-127000000D02*
X191500000Y-127000000D01*
X172000000Y-177000000D02*
X174000000Y-175000000D01*
X174000000Y-175000000D02*
X174000000Y-160000000D01*
X176160000Y-157840000D02*
X178300000Y-157840000D01*
X174000000Y-160000000D02*
X176160000Y-157840000D01*
X174000000Y-157000000D02*
X174000000Y-160000000D01*
X178300000Y-152760000D02*
X175740000Y-152760000D01*
X174000000Y-154500000D02*
X174000000Y-157000000D01*
X175740000Y-152760000D02*
X174000000Y-154500000D01*
X187380000Y-130380000D02*
X184000000Y-127000000D01*
X187380000Y-132000000D02*
X187380000Y-130380000D01*
X176500000Y-170500000D02*
X174000000Y-173000000D01*
X179000000Y-170500000D02*
X176500000Y-170500000D01*
X174000000Y-173000000D02*
X174000000Y-175000000D01*
X182799990Y-166700010D02*
X179000000Y-170500000D01*
X182799990Y-153200010D02*
X182799990Y-166700010D01*
X191000000Y-145000000D02*
X182799990Y-153200010D01*
X202500000Y-145000000D02*
X191000000Y-145000000D01*
X203500000Y-144000000D02*
X202500000Y-145000000D01*
X203000000Y-141500000D02*
X203500000Y-142000000D01*
X187380000Y-133880000D02*
X195000000Y-141500000D01*
X203500000Y-142000000D02*
X203500000Y-144000000D01*
X187380000Y-132000000D02*
X187380000Y-133880000D01*
X195000000Y-141500000D02*
X203000000Y-141500000D01*
X173900000Y-154500000D02*
X174000000Y-154500000D01*
X170380000Y-150980000D02*
X173900000Y-154500000D01*
X170380000Y-136240000D02*
X170380000Y-150980000D01*
X174200000Y-157000000D02*
X174000000Y-157000000D01*
X175900000Y-155300000D02*
X174200000Y-157000000D01*
X178300000Y-155300000D02*
X175900000Y-155300000D01*
X194000000Y-127000000D02*
X191500000Y-127000000D01*
X197200000Y-130200000D02*
X194000000Y-127000000D01*
X204200000Y-130200000D02*
X197200000Y-130200000D01*
X206420000Y-132420000D02*
X204200000Y-130200000D01*
X206420000Y-132500000D02*
X206420000Y-132420000D01*
X164540000Y-175540000D02*
X166300000Y-177300000D01*
X164540000Y-173500000D02*
X164540000Y-175540000D01*
X172300000Y-177300000D02*
X172000000Y-177000000D01*
X172300000Y-177300000D02*
X166300000Y-177300000D01*
X158750000Y-170250000D02*
X157080000Y-171920000D01*
X163000000Y-170250000D02*
X158750000Y-170250000D01*
X157080000Y-171920000D02*
X157080000Y-173500000D01*
X164540000Y-171790000D02*
X163000000Y-170250000D01*
X164540000Y-173500000D02*
X164540000Y-171790000D01*
X141000000Y-167080000D02*
X147670000Y-167080000D01*
X154500000Y-161370000D02*
X151000000Y-161370000D01*
X151000000Y-163750000D02*
X147670000Y-167080000D01*
X151000000Y-161370000D02*
X151000000Y-163750000D01*
X163000000Y-161000000D02*
X163000000Y-170250000D01*
X161000000Y-159000000D02*
X163000000Y-161000000D01*
X154500000Y-160300000D02*
X155800000Y-159000000D01*
X155800000Y-159000000D02*
X161000000Y-159000000D01*
X154500000Y-161370000D02*
X154500000Y-160300000D01*
X191200000Y-177300000D02*
X172300000Y-177300000D01*
X193000000Y-175500000D02*
X191200000Y-177300000D01*
X193000000Y-166250000D02*
X193000000Y-175500000D01*
X192210000Y-165460000D02*
X193000000Y-166250000D01*
X191000000Y-165460000D02*
X192210000Y-165460000D01*
X155140000Y-123640000D02*
X155140000Y-121000000D01*
X160500000Y-129000000D02*
X155140000Y-123640000D01*
X174500000Y-129000000D02*
X160500000Y-129000000D01*
X182500000Y-137000000D02*
X174500000Y-129000000D01*
X182500000Y-147500000D02*
X182500000Y-137000000D01*
X179780000Y-150220000D02*
X182500000Y-147500000D01*
X178300000Y-150220000D02*
X179780000Y-150220000D01*
X162760000Y-121000000D02*
X162760000Y-122760000D01*
X162760000Y-122760000D02*
X164500000Y-124500000D01*
X164500000Y-124500000D02*
X176000000Y-124500000D01*
X194600000Y-143100000D02*
X200480000Y-143100000D01*
X176000000Y-124500000D02*
X194600000Y-143100000D01*
X162760000Y-145760000D02*
X162760000Y-136240000D01*
X170000000Y-153000000D02*
X162760000Y-145760000D01*
X170000000Y-167500000D02*
X170000000Y-153000000D01*
X172000000Y-169500000D02*
X170000000Y-167500000D01*
X172000000Y-174000000D02*
X172000000Y-169500000D01*
X170500000Y-175500000D02*
X172000000Y-174000000D01*
X168000000Y-175500000D02*
X170500000Y-175500000D01*
X167080000Y-174580000D02*
X168000000Y-175500000D01*
X167080000Y-173500000D02*
X167080000Y-174580000D01*
X169620000Y-170620000D02*
X169620000Y-173500000D01*
X168500000Y-154500000D02*
X168500000Y-169500000D01*
X168500000Y-169500000D02*
X169620000Y-170620000D01*
X160220000Y-146220000D02*
X168500000Y-154500000D01*
X160220000Y-136240000D02*
X160220000Y-146220000D01*
X137750000Y-133650000D02*
X144980000Y-126420000D01*
X137750000Y-139850000D02*
X137750000Y-133650000D01*
X144980000Y-126420000D02*
X144980000Y-121000000D01*
X138820000Y-140920000D02*
X137750000Y-139850000D01*
X141000000Y-140920000D02*
X138820000Y-140920000D01*
X143000000Y-145000000D02*
X142000000Y-146000000D01*
X143000000Y-140100000D02*
X143000000Y-145000000D01*
X142200000Y-139300000D02*
X143000000Y-140100000D01*
X139600000Y-139300000D02*
X142200000Y-139300000D01*
X139000000Y-138700000D02*
X139600000Y-139300000D01*
X142000000Y-146000000D02*
X141000000Y-146000000D01*
X139000000Y-134400000D02*
X139000000Y-138700000D01*
X147520000Y-125880000D02*
X139000000Y-134400000D01*
X147520000Y-121000000D02*
X147520000Y-125880000D01*
X157680000Y-144680000D02*
X157680000Y-136240000D01*
X158200000Y-145200000D02*
X157680000Y-144680000D01*
X158200000Y-153800000D02*
X158200000Y-145200000D01*
X155140000Y-147390000D02*
X155140000Y-136240000D01*
X156000000Y-148250000D02*
X155140000Y-147390000D01*
X156000000Y-156000000D02*
X156000000Y-148250000D01*
X152500000Y-159500000D02*
X156000000Y-156000000D01*
X150500000Y-159500000D02*
X152500000Y-159500000D01*
X145460000Y-164540000D02*
X150500000Y-159500000D01*
X141000000Y-164540000D02*
X145460000Y-164540000D01*
X211000000Y-127000000D02*
X213000000Y-129000000D01*
X206000000Y-127000000D02*
X211000000Y-127000000D01*
X206000000Y-127000000D02*
X199000000Y-127000000D01*
X213000000Y-131000000D02*
X211500000Y-132500000D01*
X213000000Y-129000000D02*
X213000000Y-131000000D01*
X199960000Y-132000000D02*
X200000000Y-131960000D01*
X195000000Y-132000000D02*
X199960000Y-132000000D01*
X209200000Y-139400000D02*
X208120000Y-139400000D01*
X211140000Y-137460000D02*
X209200000Y-139400000D01*
X212400000Y-137460000D02*
X211140000Y-137460000D01*
X209220000Y-147600000D02*
X208120000Y-146500000D01*
X212400000Y-147600000D02*
X209220000Y-147600000D01*
X212400000Y-152400000D02*
X212500000Y-152500000D01*
X212400000Y-147600000D02*
X212400000Y-152400000D01*
X212400000Y-140000000D02*
X213600000Y-140000000D01*
X213600000Y-140000000D02*
X214400000Y-140800000D01*
X214400000Y-140800000D02*
X214400000Y-147000000D01*
X213800000Y-147600000D02*
X212400000Y-147600000D01*
X214400000Y-147000000D02*
X213800000Y-147600000D01*
X210060000Y-145060000D02*
X208100000Y-143100000D01*
X212400000Y-145060000D02*
X210060000Y-145060000D01*
X150060000Y-136240000D02*
X150060000Y-147940000D01*
X141000000Y-152920000D02*
X145080000Y-152920000D01*
X150000000Y-148000000D02*
X150060000Y-147940000D01*
X145080000Y-152920000D02*
X150000000Y-148000000D01*
X150750000Y-153750000D02*
X150000000Y-153000000D01*
X150000000Y-153000000D02*
X150000000Y-148000000D01*
X151000000Y-153750000D02*
X150750000Y-153750000D01*
X154500000Y-153750000D02*
X154500000Y-149750000D01*
X152600000Y-147850000D02*
X152600000Y-136240000D01*
X154500000Y-149750000D02*
X152600000Y-147850000D01*
X154500000Y-154500000D02*
X154500000Y-153750000D01*
X151000000Y-158000000D02*
X154500000Y-154500000D01*
X141000000Y-158000000D02*
X151000000Y-158000000D01*
D30*
X219000000Y-148420000D02*
X217180000Y-148420000D01*
X217180000Y-148420000D02*
X215600000Y-150000000D01*
X215600000Y-150000000D02*
X215600000Y-155600000D01*
X206500000Y-164700000D02*
X200500000Y-164700000D01*
X215600000Y-155600000D02*
X206500000Y-164700000D01*
X219000000Y-140500000D02*
X219000000Y-148420000D01*
X219000000Y-153500000D02*
X219000000Y-160920000D01*
X219000000Y-166000000D02*
X222000000Y-166000000D01*
X222000000Y-166000000D02*
X223000000Y-165000000D01*
X223000000Y-165000000D02*
X223000000Y-136000000D01*
X222420000Y-135420000D02*
X219000000Y-135420000D01*
X223000000Y-136000000D02*
X222420000Y-135420000D01*
X209500000Y-172750000D02*
X209330000Y-172750000D01*
X216250000Y-166000000D02*
X209500000Y-172750000D01*
X219000000Y-166000000D02*
X216250000Y-166000000D01*
X204250000Y-170250000D02*
X204250000Y-172750000D01*
X202800000Y-168800000D02*
X204250000Y-170250000D01*
X199000000Y-168800000D02*
X202800000Y-168800000D01*
X197500000Y-167300000D02*
X199000000Y-168800000D01*
X199000000Y-160000000D02*
X197500000Y-161500000D01*
X197500000Y-161500000D02*
X197500000Y-167300000D01*
X204800000Y-160000000D02*
X199000000Y-160000000D01*
X206500000Y-158300000D02*
X204800000Y-160000000D01*
X206500000Y-150500000D02*
X206500000Y-158300000D01*
D29*
X152000000Y-173500000D02*
X152000000Y-171000000D01*
X158000000Y-165000000D02*
X158000000Y-161620000D01*
X152000000Y-171000000D02*
X158000000Y-165000000D01*
D31*
G36*
X135693551Y-149306449D02*
G01*
X135736865Y-149341996D01*
X136865001Y-150470133D01*
X136865000Y-153944248D01*
X136859509Y-154000000D01*
X136865001Y-154055761D01*
X136865000Y-160944248D01*
X136859509Y-161000000D01*
X136865000Y-161055751D01*
X136865001Y-166944239D01*
X136859509Y-167000000D01*
X136881423Y-167222498D01*
X136946324Y-167436446D01*
X136981212Y-167501716D01*
X137051717Y-167633623D01*
X137193552Y-167806449D01*
X137236860Y-167841991D01*
X139158009Y-169763141D01*
X139193551Y-169806449D01*
X139351878Y-169936385D01*
X138922924Y-170114064D01*
X138204726Y-170593948D01*
X137593948Y-171204726D01*
X137114064Y-171922924D01*
X136783513Y-172720943D01*
X136615000Y-173568115D01*
X136615000Y-174431885D01*
X136783513Y-175279057D01*
X137114064Y-176077076D01*
X137593948Y-176795274D01*
X138204726Y-177406052D01*
X138922924Y-177885936D01*
X139720943Y-178216487D01*
X140568115Y-178385000D01*
X141431885Y-178385000D01*
X142279057Y-178216487D01*
X143077076Y-177885936D01*
X143795274Y-177406052D01*
X144406052Y-176795274D01*
X144885936Y-176077076D01*
X145216487Y-175279057D01*
X145385000Y-174431885D01*
X145385000Y-173568115D01*
X145216487Y-172720943D01*
X144885936Y-171922924D01*
X144406052Y-171204726D01*
X143795274Y-170593948D01*
X143108409Y-170135000D01*
X145529869Y-170135000D01*
X147365000Y-171970132D01*
X147365001Y-176944239D01*
X147359509Y-177000000D01*
X147381423Y-177222498D01*
X147446324Y-177436446D01*
X147446325Y-177436447D01*
X147551717Y-177633623D01*
X147693552Y-177806449D01*
X147736860Y-177841991D01*
X149234868Y-179340000D01*
X140029392Y-179340000D01*
X139231917Y-179268827D01*
X138488110Y-179065344D01*
X137792096Y-178733363D01*
X137165870Y-178283374D01*
X136629223Y-177729597D01*
X136199129Y-177089549D01*
X135889171Y-176383447D01*
X135707935Y-175628543D01*
X135660000Y-174975793D01*
X135660000Y-149265567D01*
X135693551Y-149306449D01*
G37*
X135693551Y-149306449D02*
X135736865Y-149341996D01*
X136865001Y-150470133D01*
X136865000Y-153944248D01*
X136859509Y-154000000D01*
X136865001Y-154055761D01*
X136865000Y-160944248D01*
X136859509Y-161000000D01*
X136865000Y-161055751D01*
X136865001Y-166944239D01*
X136859509Y-167000000D01*
X136881423Y-167222498D01*
X136946324Y-167436446D01*
X136981212Y-167501716D01*
X137051717Y-167633623D01*
X137193552Y-167806449D01*
X137236860Y-167841991D01*
X139158009Y-169763141D01*
X139193551Y-169806449D01*
X139351878Y-169936385D01*
X138922924Y-170114064D01*
X138204726Y-170593948D01*
X137593948Y-171204726D01*
X137114064Y-171922924D01*
X136783513Y-172720943D01*
X136615000Y-173568115D01*
X136615000Y-174431885D01*
X136783513Y-175279057D01*
X137114064Y-176077076D01*
X137593948Y-176795274D01*
X138204726Y-177406052D01*
X138922924Y-177885936D01*
X139720943Y-178216487D01*
X140568115Y-178385000D01*
X141431885Y-178385000D01*
X142279057Y-178216487D01*
X143077076Y-177885936D01*
X143795274Y-177406052D01*
X144406052Y-176795274D01*
X144885936Y-176077076D01*
X145216487Y-175279057D01*
X145385000Y-174431885D01*
X145385000Y-173568115D01*
X145216487Y-172720943D01*
X144885936Y-171922924D01*
X144406052Y-171204726D01*
X143795274Y-170593948D01*
X143108409Y-170135000D01*
X145529869Y-170135000D01*
X147365000Y-171970132D01*
X147365001Y-176944239D01*
X147359509Y-177000000D01*
X147381423Y-177222498D01*
X147446324Y-177436446D01*
X147446325Y-177436447D01*
X147551717Y-177633623D01*
X147693552Y-177806449D01*
X147736860Y-177841991D01*
X149234868Y-179340000D01*
X140029392Y-179340000D01*
X139231917Y-179268827D01*
X138488110Y-179065344D01*
X137792096Y-178733363D01*
X137165870Y-178283374D01*
X136629223Y-177729597D01*
X136199129Y-177089549D01*
X135889171Y-176383447D01*
X135707935Y-175628543D01*
X135660000Y-174975793D01*
X135660000Y-149265567D01*
X135693551Y-149306449D01*
G36*
X222768083Y-108731173D02*
G01*
X223511891Y-108934656D01*
X224207905Y-109266638D01*
X224834130Y-109716626D01*
X225370777Y-110270403D01*
X225800871Y-110910451D01*
X226110829Y-111616553D01*
X226292065Y-112371457D01*
X226340000Y-113024207D01*
X226340001Y-174970597D01*
X226268827Y-175768083D01*
X226065344Y-176511890D01*
X225733363Y-177207904D01*
X225283374Y-177834130D01*
X224729597Y-178370777D01*
X224089549Y-178800871D01*
X223383447Y-179110829D01*
X222628543Y-179292065D01*
X221975793Y-179340000D01*
X192765131Y-179340000D01*
X195013141Y-177091991D01*
X195056449Y-177056449D01*
X195198284Y-176883623D01*
X195303676Y-176686447D01*
X195368577Y-176472499D01*
X195385000Y-176305752D01*
X195385000Y-176305745D01*
X195390490Y-176250001D01*
X195385000Y-176194257D01*
X195385000Y-153895000D01*
X196089869Y-153895000D01*
X197958009Y-155763141D01*
X197993551Y-155806449D01*
X198166377Y-155948284D01*
X198363553Y-156053676D01*
X198577501Y-156118577D01*
X198744248Y-156135000D01*
X198744257Y-156135000D01*
X198799999Y-156140490D01*
X198855741Y-156135000D01*
X202144249Y-156135000D01*
X202200000Y-156140491D01*
X202255751Y-156135000D01*
X202255752Y-156135000D01*
X202422499Y-156118577D01*
X202636447Y-156053676D01*
X202833623Y-155948284D01*
X203006449Y-155806449D01*
X203041995Y-155763136D01*
X203963145Y-154841987D01*
X204006449Y-154806449D01*
X204041990Y-154763143D01*
X204148284Y-154633623D01*
X204253676Y-154436447D01*
X204318577Y-154222499D01*
X204340491Y-154000000D01*
X204335000Y-153944248D01*
X204335000Y-149070131D01*
X206698073Y-146707058D01*
X206740147Y-146918574D01*
X206848320Y-147179727D01*
X207005363Y-147414759D01*
X207205241Y-147614637D01*
X207440273Y-147771680D01*
X207701426Y-147879853D01*
X207942718Y-147927850D01*
X208378008Y-148363140D01*
X208413551Y-148406449D01*
X208586377Y-148548284D01*
X208772620Y-148647832D01*
X208783553Y-148653676D01*
X208997501Y-148718577D01*
X209220000Y-148740491D01*
X209275751Y-148735000D01*
X211144499Y-148735000D01*
X211198815Y-148801185D01*
X211265000Y-148855502D01*
X211265001Y-150757458D01*
X211139017Y-150841637D01*
X210841637Y-151139017D01*
X210607988Y-151488698D01*
X210447047Y-151877244D01*
X210365000Y-152289721D01*
X210365000Y-152710279D01*
X210447047Y-153122756D01*
X210607988Y-153511302D01*
X210841637Y-153860983D01*
X211139017Y-154158363D01*
X211488698Y-154392012D01*
X211877244Y-154552953D01*
X212289721Y-154635000D01*
X212710279Y-154635000D01*
X213122756Y-154552953D01*
X213511302Y-154392012D01*
X213860983Y-154158363D01*
X213965001Y-154054345D01*
X213965001Y-154922760D01*
X205822762Y-163065000D01*
X201884346Y-163065000D01*
X201860983Y-163041637D01*
X201511302Y-162807988D01*
X201122756Y-162647047D01*
X200710279Y-162565000D01*
X200289721Y-162565000D01*
X199877244Y-162647047D01*
X199488698Y-162807988D01*
X199139017Y-163041637D01*
X199135000Y-163045654D01*
X199135000Y-162177238D01*
X199677239Y-161635000D01*
X204719681Y-161635000D01*
X204800000Y-161642911D01*
X204880319Y-161635000D01*
X204880322Y-161635000D01*
X205120516Y-161611343D01*
X205428715Y-161517852D01*
X205712752Y-161366031D01*
X205961714Y-161161714D01*
X206012925Y-161099314D01*
X207599318Y-159512921D01*
X207661714Y-159461714D01*
X207866031Y-159212752D01*
X208017852Y-158928715D01*
X208111343Y-158620516D01*
X208135000Y-158380322D01*
X208135000Y-158380320D01*
X208142911Y-158300001D01*
X208135000Y-158219681D01*
X208135000Y-151884346D01*
X208158363Y-151860983D01*
X208392012Y-151511302D01*
X208552953Y-151122756D01*
X208635000Y-150710279D01*
X208635000Y-150289721D01*
X208552953Y-149877244D01*
X208392012Y-149488698D01*
X208158363Y-149139017D01*
X207860983Y-148841637D01*
X207511302Y-148607988D01*
X207122756Y-148447047D01*
X206710279Y-148365000D01*
X206289721Y-148365000D01*
X205877244Y-148447047D01*
X205488698Y-148607988D01*
X205139017Y-148841637D01*
X204841637Y-149139017D01*
X204607988Y-149488698D01*
X204447047Y-149877244D01*
X204365000Y-150289721D01*
X204365000Y-150710279D01*
X204447047Y-151122756D01*
X204607988Y-151511302D01*
X204841637Y-151860983D01*
X204865000Y-151884346D01*
X204865001Y-157622760D01*
X204122762Y-158365000D01*
X199080319Y-158365000D01*
X198999999Y-158357089D01*
X198919680Y-158365000D01*
X198919678Y-158365000D01*
X198679484Y-158388657D01*
X198371285Y-158482148D01*
X198087248Y-158633969D01*
X197838286Y-158838286D01*
X197787079Y-158900682D01*
X196400686Y-160287075D01*
X196338286Y-160338286D01*
X196133969Y-160587249D01*
X195982148Y-160871286D01*
X195888657Y-161179485D01*
X195865109Y-161418577D01*
X195857089Y-161500000D01*
X195865000Y-161580320D01*
X195865001Y-167219671D01*
X195857089Y-167300000D01*
X195888658Y-167620516D01*
X195982148Y-167928714D01*
X196091674Y-168133622D01*
X196133970Y-168212752D01*
X196338287Y-168461714D01*
X196400682Y-168512920D01*
X197787079Y-169899318D01*
X197838286Y-169961714D01*
X198087248Y-170166031D01*
X198371285Y-170317852D01*
X198679484Y-170411343D01*
X198919678Y-170435000D01*
X198919680Y-170435000D01*
X198999999Y-170442911D01*
X199080319Y-170435000D01*
X202122761Y-170435000D01*
X202403142Y-170715381D01*
X202395506Y-170719463D01*
X202298815Y-170798815D01*
X202219463Y-170895506D01*
X202160498Y-171005820D01*
X202124188Y-171125518D01*
X202111928Y-171250000D01*
X202111928Y-174250000D01*
X202124188Y-174374482D01*
X202160498Y-174494180D01*
X202219463Y-174604494D01*
X202298815Y-174701185D01*
X202395506Y-174780537D01*
X202505820Y-174839502D01*
X202625518Y-174875812D01*
X202750000Y-174888072D01*
X205750000Y-174888072D01*
X205874482Y-174875812D01*
X205994180Y-174839502D01*
X206104494Y-174780537D01*
X206201185Y-174701185D01*
X206280537Y-174604494D01*
X206339502Y-174494180D01*
X206375812Y-174374482D01*
X206388072Y-174250000D01*
X206388072Y-172539721D01*
X207195000Y-172539721D01*
X207195000Y-172960279D01*
X207277047Y-173372756D01*
X207437988Y-173761302D01*
X207671637Y-174110983D01*
X207969017Y-174408363D01*
X208318698Y-174642012D01*
X208707244Y-174802953D01*
X209119721Y-174885000D01*
X209540279Y-174885000D01*
X209952756Y-174802953D01*
X210341302Y-174642012D01*
X210690983Y-174408363D01*
X210988363Y-174110983D01*
X211222012Y-173761302D01*
X211302032Y-173568115D01*
X216615000Y-173568115D01*
X216615000Y-174431885D01*
X216783513Y-175279057D01*
X217114064Y-176077076D01*
X217593948Y-176795274D01*
X218204726Y-177406052D01*
X218922924Y-177885936D01*
X219720943Y-178216487D01*
X220568115Y-178385000D01*
X221431885Y-178385000D01*
X222279057Y-178216487D01*
X223077076Y-177885936D01*
X223795274Y-177406052D01*
X224406052Y-176795274D01*
X224885936Y-176077076D01*
X225216487Y-175279057D01*
X225385000Y-174431885D01*
X225385000Y-173568115D01*
X225216487Y-172720943D01*
X224885936Y-171922924D01*
X224406052Y-171204726D01*
X223795274Y-170593948D01*
X223077076Y-170114064D01*
X222279057Y-169783513D01*
X221431885Y-169615000D01*
X220568115Y-169615000D01*
X219720943Y-169783513D01*
X218922924Y-170114064D01*
X218204726Y-170593948D01*
X217593948Y-171204726D01*
X217114064Y-171922924D01*
X216783513Y-172720943D01*
X216615000Y-173568115D01*
X211302032Y-173568115D01*
X211382953Y-173372756D01*
X211430993Y-173131246D01*
X216888984Y-167673256D01*
X216910498Y-167744180D01*
X216969463Y-167854494D01*
X217048815Y-167951185D01*
X217145506Y-168030537D01*
X217255820Y-168089502D01*
X217375518Y-168125812D01*
X217500000Y-168138072D01*
X220500000Y-168138072D01*
X220624482Y-168125812D01*
X220744180Y-168089502D01*
X220854494Y-168030537D01*
X220951185Y-167951185D01*
X221030537Y-167854494D01*
X221089502Y-167744180D01*
X221122621Y-167635000D01*
X221919681Y-167635000D01*
X222000000Y-167642911D01*
X222080319Y-167635000D01*
X222080322Y-167635000D01*
X222320516Y-167611343D01*
X222628715Y-167517852D01*
X222912752Y-167366031D01*
X223161714Y-167161714D01*
X223212924Y-167099314D01*
X224099319Y-166212920D01*
X224161714Y-166161714D01*
X224366031Y-165912752D01*
X224517852Y-165628715D01*
X224560452Y-165488283D01*
X224611343Y-165320517D01*
X224642912Y-165000000D01*
X224635000Y-164919670D01*
X224635000Y-136080322D01*
X224642911Y-136000000D01*
X224611343Y-135679483D01*
X224540615Y-135446324D01*
X224517852Y-135371285D01*
X224366031Y-135087248D01*
X224161714Y-134838286D01*
X224099313Y-134787075D01*
X223632925Y-134320687D01*
X223581714Y-134258286D01*
X223332752Y-134053969D01*
X223048715Y-133902148D01*
X222740516Y-133808657D01*
X222500322Y-133785000D01*
X222500319Y-133785000D01*
X222420000Y-133777089D01*
X222339681Y-133785000D01*
X220384346Y-133785000D01*
X220360983Y-133761637D01*
X220011302Y-133527988D01*
X219622756Y-133367047D01*
X219210279Y-133285000D01*
X218789721Y-133285000D01*
X218377244Y-133367047D01*
X217988698Y-133527988D01*
X217639017Y-133761637D01*
X217341637Y-134059017D01*
X217107988Y-134408698D01*
X216947047Y-134797244D01*
X216865000Y-135209721D01*
X216865000Y-135630279D01*
X216947047Y-136042756D01*
X217107988Y-136431302D01*
X217341637Y-136780983D01*
X217639017Y-137078363D01*
X217988698Y-137312012D01*
X218377244Y-137472953D01*
X218789721Y-137555000D01*
X219210279Y-137555000D01*
X219622756Y-137472953D01*
X220011302Y-137312012D01*
X220360983Y-137078363D01*
X220384346Y-137055000D01*
X221365001Y-137055000D01*
X221365000Y-164322761D01*
X221322762Y-164365000D01*
X221122621Y-164365000D01*
X221089502Y-164255820D01*
X221030537Y-164145506D01*
X220951185Y-164048815D01*
X220854494Y-163969463D01*
X220744180Y-163910498D01*
X220624482Y-163874188D01*
X220500000Y-163861928D01*
X217500000Y-163861928D01*
X217375518Y-163874188D01*
X217255820Y-163910498D01*
X217145506Y-163969463D01*
X217048815Y-164048815D01*
X216969463Y-164145506D01*
X216910498Y-164255820D01*
X216877379Y-164365000D01*
X216330330Y-164365000D01*
X216250000Y-164357088D01*
X215929483Y-164388657D01*
X215732923Y-164448283D01*
X215621285Y-164482148D01*
X215337248Y-164633969D01*
X215088286Y-164838286D01*
X215037084Y-164900676D01*
X214509076Y-165428684D01*
X214552953Y-165322756D01*
X214635000Y-164910279D01*
X214635000Y-164489721D01*
X214552953Y-164077244D01*
X214392012Y-163688698D01*
X214158363Y-163339017D01*
X213860983Y-163041637D01*
X213511302Y-162807988D01*
X213122756Y-162647047D01*
X212710279Y-162565000D01*
X212289721Y-162565000D01*
X211877244Y-162647047D01*
X211488698Y-162807988D01*
X211139017Y-163041637D01*
X210841637Y-163339017D01*
X210607988Y-163688698D01*
X210447047Y-164077244D01*
X210365000Y-164489721D01*
X210365000Y-164910279D01*
X210447047Y-165322756D01*
X210607988Y-165711302D01*
X210841637Y-166060983D01*
X211139017Y-166358363D01*
X211488698Y-166592012D01*
X211877244Y-166752953D01*
X212289721Y-166835000D01*
X212710279Y-166835000D01*
X213122756Y-166752953D01*
X213228685Y-166709076D01*
X209322762Y-170615000D01*
X209119721Y-170615000D01*
X208707244Y-170697047D01*
X208318698Y-170857988D01*
X207969017Y-171091637D01*
X207671637Y-171389017D01*
X207437988Y-171738698D01*
X207277047Y-172127244D01*
X207195000Y-172539721D01*
X206388072Y-172539721D01*
X206388072Y-171250000D01*
X206375812Y-171125518D01*
X206339502Y-171005820D01*
X206280537Y-170895506D01*
X206201185Y-170798815D01*
X206104494Y-170719463D01*
X205994180Y-170660498D01*
X205885000Y-170627379D01*
X205885000Y-170330322D01*
X205892911Y-170250000D01*
X205861343Y-169929483D01*
X205767852Y-169621285D01*
X205732824Y-169555752D01*
X205616031Y-169337248D01*
X205411714Y-169088286D01*
X205349325Y-169037085D01*
X204012924Y-167700686D01*
X203961714Y-167638286D01*
X203712752Y-167433969D01*
X203428715Y-167282148D01*
X203120516Y-167188657D01*
X202880322Y-167165000D01*
X202880319Y-167165000D01*
X202800000Y-167157089D01*
X202719681Y-167165000D01*
X199677239Y-167165000D01*
X199135000Y-166622762D01*
X199135000Y-166354346D01*
X199139017Y-166358363D01*
X199488698Y-166592012D01*
X199877244Y-166752953D01*
X200289721Y-166835000D01*
X200710279Y-166835000D01*
X201122756Y-166752953D01*
X201511302Y-166592012D01*
X201860983Y-166358363D01*
X201884346Y-166335000D01*
X206419681Y-166335000D01*
X206500000Y-166342911D01*
X206580319Y-166335000D01*
X206580322Y-166335000D01*
X206820516Y-166311343D01*
X207128715Y-166217852D01*
X207412752Y-166066031D01*
X207661714Y-165861714D01*
X207712925Y-165799313D01*
X216699319Y-156812920D01*
X216761714Y-156761714D01*
X216966031Y-156512752D01*
X217117852Y-156228715D01*
X217211343Y-155920516D01*
X217235000Y-155680322D01*
X217235000Y-155680320D01*
X217242911Y-155600001D01*
X217241102Y-155581635D01*
X217255820Y-155589502D01*
X217365000Y-155622621D01*
X217365001Y-159535653D01*
X217341637Y-159559017D01*
X217107988Y-159908698D01*
X216947047Y-160297244D01*
X216865000Y-160709721D01*
X216865000Y-161130279D01*
X216947047Y-161542756D01*
X217107988Y-161931302D01*
X217341637Y-162280983D01*
X217639017Y-162578363D01*
X217988698Y-162812012D01*
X218377244Y-162972953D01*
X218789721Y-163055000D01*
X219210279Y-163055000D01*
X219622756Y-162972953D01*
X220011302Y-162812012D01*
X220360983Y-162578363D01*
X220658363Y-162280983D01*
X220892012Y-161931302D01*
X221052953Y-161542756D01*
X221135000Y-161130279D01*
X221135000Y-160709721D01*
X221052953Y-160297244D01*
X220892012Y-159908698D01*
X220658363Y-159559017D01*
X220635000Y-159535654D01*
X220635000Y-155622621D01*
X220744180Y-155589502D01*
X220854494Y-155530537D01*
X220951185Y-155451185D01*
X221030537Y-155354494D01*
X221089502Y-155244180D01*
X221125812Y-155124482D01*
X221138072Y-155000000D01*
X221138072Y-152000000D01*
X221125812Y-151875518D01*
X221089502Y-151755820D01*
X221030537Y-151645506D01*
X220951185Y-151548815D01*
X220854494Y-151469463D01*
X220744180Y-151410498D01*
X220624482Y-151374188D01*
X220500000Y-151361928D01*
X217500000Y-151361928D01*
X217375518Y-151374188D01*
X217255820Y-151410498D01*
X217235000Y-151421627D01*
X217235000Y-150677238D01*
X217755826Y-150156412D01*
X217988698Y-150312012D01*
X218377244Y-150472953D01*
X218789721Y-150555000D01*
X219210279Y-150555000D01*
X219622756Y-150472953D01*
X220011302Y-150312012D01*
X220360983Y-150078363D01*
X220658363Y-149780983D01*
X220892012Y-149431302D01*
X221052953Y-149042756D01*
X221135000Y-148630279D01*
X221135000Y-148209721D01*
X221052953Y-147797244D01*
X220892012Y-147408698D01*
X220658363Y-147059017D01*
X220635000Y-147035654D01*
X220635000Y-142622621D01*
X220744180Y-142589502D01*
X220854494Y-142530537D01*
X220951185Y-142451185D01*
X221030537Y-142354494D01*
X221089502Y-142244180D01*
X221125812Y-142124482D01*
X221138072Y-142000000D01*
X221138072Y-139000000D01*
X221125812Y-138875518D01*
X221089502Y-138755820D01*
X221030537Y-138645506D01*
X220951185Y-138548815D01*
X220854494Y-138469463D01*
X220744180Y-138410498D01*
X220624482Y-138374188D01*
X220500000Y-138361928D01*
X217500000Y-138361928D01*
X217375518Y-138374188D01*
X217255820Y-138410498D01*
X217145506Y-138469463D01*
X217048815Y-138548815D01*
X216969463Y-138645506D01*
X216910498Y-138755820D01*
X216874188Y-138875518D01*
X216861928Y-139000000D01*
X216861928Y-142000000D01*
X216874188Y-142124482D01*
X216910498Y-142244180D01*
X216969463Y-142354494D01*
X217048815Y-142451185D01*
X217145506Y-142530537D01*
X217255820Y-142589502D01*
X217365000Y-142622621D01*
X217365001Y-146785000D01*
X217260319Y-146785000D01*
X217179999Y-146777089D01*
X217099680Y-146785000D01*
X217099678Y-146785000D01*
X216859484Y-146808657D01*
X216551285Y-146902148D01*
X216267248Y-147053969D01*
X216018286Y-147258286D01*
X215967079Y-147320682D01*
X214500686Y-148787075D01*
X214438286Y-148838286D01*
X214233969Y-149087249D01*
X214082148Y-149371286D01*
X213988657Y-149679485D01*
X213965000Y-149919678D01*
X213957089Y-150000000D01*
X213965000Y-150080320D01*
X213965000Y-150945654D01*
X213860983Y-150841637D01*
X213535000Y-150623822D01*
X213535000Y-148855501D01*
X213601185Y-148801185D01*
X213655501Y-148735000D01*
X213744249Y-148735000D01*
X213800000Y-148740491D01*
X213855751Y-148735000D01*
X213855752Y-148735000D01*
X214022499Y-148718577D01*
X214236447Y-148653676D01*
X214433623Y-148548284D01*
X214606449Y-148406449D01*
X214641996Y-148363135D01*
X215163135Y-147841996D01*
X215206449Y-147806449D01*
X215348284Y-147633623D01*
X215453676Y-147436447D01*
X215518577Y-147222499D01*
X215524929Y-147158011D01*
X215540491Y-147000001D01*
X215535000Y-146944249D01*
X215535000Y-140855751D01*
X215540491Y-140800000D01*
X215518577Y-140577501D01*
X215453676Y-140363553D01*
X215348284Y-140166377D01*
X215328268Y-140141988D01*
X215206449Y-139993551D01*
X215163140Y-139958008D01*
X214441995Y-139236864D01*
X214406449Y-139193551D01*
X214233623Y-139051716D01*
X214036447Y-138946324D01*
X213904846Y-138906403D01*
X213889502Y-138855820D01*
X213830537Y-138745506D01*
X213751185Y-138648815D01*
X213654494Y-138569463D01*
X213544180Y-138510498D01*
X213525873Y-138504944D01*
X213592312Y-138438505D01*
X213760299Y-138187095D01*
X213876011Y-137907743D01*
X213935000Y-137611184D01*
X213935000Y-137308816D01*
X213876011Y-137012257D01*
X213760299Y-136732905D01*
X213592312Y-136481495D01*
X213378505Y-136267688D01*
X213127095Y-136099701D01*
X212847743Y-135983989D01*
X212788770Y-135972258D01*
X212833623Y-135948284D01*
X213006449Y-135806449D01*
X213041996Y-135763135D01*
X215670133Y-133135000D01*
X220444249Y-133135000D01*
X220500000Y-133140491D01*
X220555751Y-133135000D01*
X220555752Y-133135000D01*
X220722499Y-133118577D01*
X220936447Y-133053676D01*
X221133623Y-132948284D01*
X221306449Y-132806449D01*
X221341996Y-132763135D01*
X223263141Y-130841991D01*
X223306449Y-130806449D01*
X223448284Y-130633623D01*
X223553676Y-130436447D01*
X223603471Y-130272295D01*
X223618577Y-130222500D01*
X223640491Y-130000001D01*
X223635000Y-129944249D01*
X223635000Y-123555752D01*
X223640491Y-123500000D01*
X223618577Y-123277501D01*
X223553676Y-123063553D01*
X223542290Y-123042252D01*
X223448284Y-122866377D01*
X223306449Y-122693551D01*
X223263135Y-122658004D01*
X222761996Y-122156865D01*
X222726449Y-122113551D01*
X222553623Y-121971716D01*
X222356447Y-121866324D01*
X222142499Y-121801423D01*
X221975752Y-121785000D01*
X221975751Y-121785000D01*
X221920000Y-121779509D01*
X221864249Y-121785000D01*
X220809360Y-121785000D01*
X220658363Y-121559017D01*
X220360983Y-121261637D01*
X220011302Y-121027988D01*
X219622756Y-120867047D01*
X219210279Y-120785000D01*
X218789721Y-120785000D01*
X218377244Y-120867047D01*
X217988698Y-121027988D01*
X217639017Y-121261637D01*
X217341637Y-121559017D01*
X217190640Y-121785000D01*
X215390132Y-121785000D01*
X214135000Y-120529869D01*
X214135000Y-120158661D01*
X214347663Y-119945998D01*
X214537537Y-119661831D01*
X214668325Y-119346081D01*
X214735000Y-119010883D01*
X214735000Y-118669117D01*
X214668325Y-118333919D01*
X214537537Y-118018169D01*
X214347663Y-117734002D01*
X214105998Y-117492337D01*
X213821831Y-117302463D01*
X213506081Y-117171675D01*
X213170883Y-117105000D01*
X212829117Y-117105000D01*
X212493919Y-117171675D01*
X212178169Y-117302463D01*
X211894002Y-117492337D01*
X211652337Y-117734002D01*
X211462463Y-118018169D01*
X211331675Y-118333919D01*
X211265000Y-118669117D01*
X211265000Y-119010883D01*
X211331675Y-119346081D01*
X211462463Y-119661831D01*
X211652337Y-119945998D01*
X211865001Y-120158662D01*
X211865001Y-120944239D01*
X211859509Y-121000000D01*
X211881423Y-121222498D01*
X211946324Y-121436446D01*
X211967954Y-121476912D01*
X212051717Y-121633623D01*
X212193552Y-121806449D01*
X212236860Y-121841991D01*
X214078009Y-123683141D01*
X214113551Y-123726449D01*
X214286377Y-123868284D01*
X214436046Y-123948283D01*
X214483553Y-123973676D01*
X214697501Y-124038577D01*
X214919999Y-124060491D01*
X214975751Y-124055000D01*
X217190640Y-124055000D01*
X217341637Y-124280983D01*
X217639017Y-124578363D01*
X217988698Y-124812012D01*
X218377244Y-124972953D01*
X218789721Y-125055000D01*
X219210279Y-125055000D01*
X219622756Y-124972953D01*
X220011302Y-124812012D01*
X220360983Y-124578363D01*
X220658363Y-124280983D01*
X220809360Y-124055000D01*
X221365001Y-124055000D01*
X221365000Y-129529868D01*
X220985516Y-129909352D01*
X221030537Y-129854494D01*
X221089502Y-129744180D01*
X221125812Y-129624482D01*
X221138072Y-129500000D01*
X221138072Y-126500000D01*
X221125812Y-126375518D01*
X221089502Y-126255820D01*
X221030537Y-126145506D01*
X220951185Y-126048815D01*
X220854494Y-125969463D01*
X220744180Y-125910498D01*
X220624482Y-125874188D01*
X220500000Y-125861928D01*
X217500000Y-125861928D01*
X217375518Y-125874188D01*
X217255820Y-125910498D01*
X217145506Y-125969463D01*
X217048815Y-126048815D01*
X216969463Y-126145506D01*
X216910498Y-126255820D01*
X216874188Y-126375518D01*
X216861928Y-126500000D01*
X216861928Y-126865000D01*
X216470132Y-126865000D01*
X210841996Y-121236865D01*
X210806449Y-121193551D01*
X210633623Y-121051716D01*
X210436447Y-120946324D01*
X210222499Y-120881423D01*
X210055752Y-120865000D01*
X210055751Y-120865000D01*
X210000000Y-120859509D01*
X209944249Y-120865000D01*
X207177239Y-120865000D01*
X207042252Y-120730013D01*
X206774463Y-120551082D01*
X206476912Y-120427832D01*
X206161033Y-120365000D01*
X205838967Y-120365000D01*
X205523088Y-120427832D01*
X205225537Y-120551082D01*
X204957748Y-120730013D01*
X204822761Y-120865000D01*
X199884284Y-120865000D01*
X199679727Y-120728320D01*
X199418574Y-120620147D01*
X199141335Y-120565000D01*
X198858665Y-120565000D01*
X198581426Y-120620147D01*
X198320273Y-120728320D01*
X198115716Y-120865000D01*
X192677239Y-120865000D01*
X192542252Y-120730013D01*
X192274463Y-120551082D01*
X191976912Y-120427832D01*
X191661033Y-120365000D01*
X191338967Y-120365000D01*
X191023088Y-120427832D01*
X190725537Y-120551082D01*
X190457748Y-120730013D01*
X190322761Y-120865000D01*
X185135000Y-120865000D01*
X185135000Y-118555752D01*
X185140491Y-118500000D01*
X185118577Y-118277501D01*
X185053676Y-118063553D01*
X185012425Y-117986377D01*
X184948284Y-117866377D01*
X184806449Y-117693551D01*
X184763135Y-117658004D01*
X184341996Y-117236865D01*
X184306449Y-117193551D01*
X184133623Y-117051716D01*
X183936447Y-116946324D01*
X183722499Y-116881423D01*
X183555752Y-116865000D01*
X183555751Y-116865000D01*
X183500000Y-116859509D01*
X183444249Y-116865000D01*
X172055751Y-116865000D01*
X172000000Y-116859509D01*
X171944248Y-116865000D01*
X171055741Y-116865000D01*
X170999999Y-116859510D01*
X170944257Y-116865000D01*
X169055751Y-116865000D01*
X169000000Y-116859509D01*
X168944249Y-116865000D01*
X145555752Y-116865000D01*
X145500000Y-116859509D01*
X145277501Y-116881423D01*
X145063553Y-116946324D01*
X144866377Y-117051716D01*
X144736856Y-117158011D01*
X144736855Y-117158012D01*
X144693551Y-117193551D01*
X144658013Y-117236855D01*
X144029868Y-117865000D01*
X143108409Y-117865000D01*
X143795274Y-117406052D01*
X144406052Y-116795274D01*
X144885936Y-116077076D01*
X145216487Y-115279057D01*
X145385000Y-114431885D01*
X145385000Y-113568115D01*
X216615000Y-113568115D01*
X216615000Y-114431885D01*
X216783513Y-115279057D01*
X217114064Y-116077076D01*
X217593948Y-116795274D01*
X218204726Y-117406052D01*
X218922924Y-117885936D01*
X219720943Y-118216487D01*
X220568115Y-118385000D01*
X221431885Y-118385000D01*
X222279057Y-118216487D01*
X223077076Y-117885936D01*
X223795274Y-117406052D01*
X224406052Y-116795274D01*
X224885936Y-116077076D01*
X225216487Y-115279057D01*
X225385000Y-114431885D01*
X225385000Y-113568115D01*
X225216487Y-112720943D01*
X224885936Y-111922924D01*
X224406052Y-111204726D01*
X223795274Y-110593948D01*
X223077076Y-110114064D01*
X222279057Y-109783513D01*
X221431885Y-109615000D01*
X220568115Y-109615000D01*
X219720943Y-109783513D01*
X218922924Y-110114064D01*
X218204726Y-110593948D01*
X217593948Y-111204726D01*
X217114064Y-111922924D01*
X216783513Y-112720943D01*
X216615000Y-113568115D01*
X145385000Y-113568115D01*
X145216487Y-112720943D01*
X144885936Y-111922924D01*
X144406052Y-111204726D01*
X143795274Y-110593948D01*
X143077076Y-110114064D01*
X142279057Y-109783513D01*
X141431885Y-109615000D01*
X140568115Y-109615000D01*
X139720943Y-109783513D01*
X138922924Y-110114064D01*
X138204726Y-110593948D01*
X137593948Y-111204726D01*
X137114064Y-111922924D01*
X136783513Y-112720943D01*
X136615000Y-113568115D01*
X136615000Y-114431885D01*
X136783513Y-115279057D01*
X137114064Y-116077076D01*
X137593948Y-116795274D01*
X138204726Y-117406052D01*
X138922924Y-117885936D01*
X139686452Y-118202201D01*
X139658011Y-118236857D01*
X135736865Y-122158004D01*
X135693551Y-122193551D01*
X135660000Y-122234433D01*
X135660000Y-113029392D01*
X135731173Y-112231917D01*
X135934656Y-111488109D01*
X136266638Y-110792095D01*
X136716626Y-110165870D01*
X137270403Y-109629223D01*
X137910451Y-109199129D01*
X138616553Y-108889171D01*
X139371457Y-108707935D01*
X140024207Y-108660000D01*
X221970608Y-108660000D01*
X222768083Y-108731173D01*
G37*
X222768083Y-108731173D02*
X223511891Y-108934656D01*
X224207905Y-109266638D01*
X224834130Y-109716626D01*
X225370777Y-110270403D01*
X225800871Y-110910451D01*
X226110829Y-111616553D01*
X226292065Y-112371457D01*
X226340000Y-113024207D01*
X226340001Y-174970597D01*
X226268827Y-175768083D01*
X226065344Y-176511890D01*
X225733363Y-177207904D01*
X225283374Y-177834130D01*
X224729597Y-178370777D01*
X224089549Y-178800871D01*
X223383447Y-179110829D01*
X222628543Y-179292065D01*
X221975793Y-179340000D01*
X192765131Y-179340000D01*
X195013141Y-177091991D01*
X195056449Y-177056449D01*
X195198284Y-176883623D01*
X195303676Y-176686447D01*
X195368577Y-176472499D01*
X195385000Y-176305752D01*
X195385000Y-176305745D01*
X195390490Y-176250001D01*
X195385000Y-176194257D01*
X195385000Y-153895000D01*
X196089869Y-153895000D01*
X197958009Y-155763141D01*
X197993551Y-155806449D01*
X198166377Y-155948284D01*
X198363553Y-156053676D01*
X198577501Y-156118577D01*
X198744248Y-156135000D01*
X198744257Y-156135000D01*
X198799999Y-156140490D01*
X198855741Y-156135000D01*
X202144249Y-156135000D01*
X202200000Y-156140491D01*
X202255751Y-156135000D01*
X202255752Y-156135000D01*
X202422499Y-156118577D01*
X202636447Y-156053676D01*
X202833623Y-155948284D01*
X203006449Y-155806449D01*
X203041995Y-155763136D01*
X203963145Y-154841987D01*
X204006449Y-154806449D01*
X204041990Y-154763143D01*
X204148284Y-154633623D01*
X204253676Y-154436447D01*
X204318577Y-154222499D01*
X204340491Y-154000000D01*
X204335000Y-153944248D01*
X204335000Y-149070131D01*
X206698073Y-146707058D01*
X206740147Y-146918574D01*
X206848320Y-147179727D01*
X207005363Y-147414759D01*
X207205241Y-147614637D01*
X207440273Y-147771680D01*
X207701426Y-147879853D01*
X207942718Y-147927850D01*
X208378008Y-148363140D01*
X208413551Y-148406449D01*
X208586377Y-148548284D01*
X208772620Y-148647832D01*
X208783553Y-148653676D01*
X208997501Y-148718577D01*
X209220000Y-148740491D01*
X209275751Y-148735000D01*
X211144499Y-148735000D01*
X211198815Y-148801185D01*
X211265000Y-148855502D01*
X211265001Y-150757458D01*
X211139017Y-150841637D01*
X210841637Y-151139017D01*
X210607988Y-151488698D01*
X210447047Y-151877244D01*
X210365000Y-152289721D01*
X210365000Y-152710279D01*
X210447047Y-153122756D01*
X210607988Y-153511302D01*
X210841637Y-153860983D01*
X211139017Y-154158363D01*
X211488698Y-154392012D01*
X211877244Y-154552953D01*
X212289721Y-154635000D01*
X212710279Y-154635000D01*
X213122756Y-154552953D01*
X213511302Y-154392012D01*
X213860983Y-154158363D01*
X213965001Y-154054345D01*
X213965001Y-154922760D01*
X205822762Y-163065000D01*
X201884346Y-163065000D01*
X201860983Y-163041637D01*
X201511302Y-162807988D01*
X201122756Y-162647047D01*
X200710279Y-162565000D01*
X200289721Y-162565000D01*
X199877244Y-162647047D01*
X199488698Y-162807988D01*
X199139017Y-163041637D01*
X199135000Y-163045654D01*
X199135000Y-162177238D01*
X199677239Y-161635000D01*
X204719681Y-161635000D01*
X204800000Y-161642911D01*
X204880319Y-161635000D01*
X204880322Y-161635000D01*
X205120516Y-161611343D01*
X205428715Y-161517852D01*
X205712752Y-161366031D01*
X205961714Y-161161714D01*
X206012925Y-161099314D01*
X207599318Y-159512921D01*
X207661714Y-159461714D01*
X207866031Y-159212752D01*
X208017852Y-158928715D01*
X208111343Y-158620516D01*
X208135000Y-158380322D01*
X208135000Y-158380320D01*
X208142911Y-158300001D01*
X208135000Y-158219681D01*
X208135000Y-151884346D01*
X208158363Y-151860983D01*
X208392012Y-151511302D01*
X208552953Y-151122756D01*
X208635000Y-150710279D01*
X208635000Y-150289721D01*
X208552953Y-149877244D01*
X208392012Y-149488698D01*
X208158363Y-149139017D01*
X207860983Y-148841637D01*
X207511302Y-148607988D01*
X207122756Y-148447047D01*
X206710279Y-148365000D01*
X206289721Y-148365000D01*
X205877244Y-148447047D01*
X205488698Y-148607988D01*
X205139017Y-148841637D01*
X204841637Y-149139017D01*
X204607988Y-149488698D01*
X204447047Y-149877244D01*
X204365000Y-150289721D01*
X204365000Y-150710279D01*
X204447047Y-151122756D01*
X204607988Y-151511302D01*
X204841637Y-151860983D01*
X204865000Y-151884346D01*
X204865001Y-157622760D01*
X204122762Y-158365000D01*
X199080319Y-158365000D01*
X198999999Y-158357089D01*
X198919680Y-158365000D01*
X198919678Y-158365000D01*
X198679484Y-158388657D01*
X198371285Y-158482148D01*
X198087248Y-158633969D01*
X197838286Y-158838286D01*
X197787079Y-158900682D01*
X196400686Y-160287075D01*
X196338286Y-160338286D01*
X196133969Y-160587249D01*
X195982148Y-160871286D01*
X195888657Y-161179485D01*
X195865109Y-161418577D01*
X195857089Y-161500000D01*
X195865000Y-161580320D01*
X195865001Y-167219671D01*
X195857089Y-167300000D01*
X195888658Y-167620516D01*
X195982148Y-167928714D01*
X196091674Y-168133622D01*
X196133970Y-168212752D01*
X196338287Y-168461714D01*
X196400682Y-168512920D01*
X197787079Y-169899318D01*
X197838286Y-169961714D01*
X198087248Y-170166031D01*
X198371285Y-170317852D01*
X198679484Y-170411343D01*
X198919678Y-170435000D01*
X198919680Y-170435000D01*
X198999999Y-170442911D01*
X199080319Y-170435000D01*
X202122761Y-170435000D01*
X202403142Y-170715381D01*
X202395506Y-170719463D01*
X202298815Y-170798815D01*
X202219463Y-170895506D01*
X202160498Y-171005820D01*
X202124188Y-171125518D01*
X202111928Y-171250000D01*
X202111928Y-174250000D01*
X202124188Y-174374482D01*
X202160498Y-174494180D01*
X202219463Y-174604494D01*
X202298815Y-174701185D01*
X202395506Y-174780537D01*
X202505820Y-174839502D01*
X202625518Y-174875812D01*
X202750000Y-174888072D01*
X205750000Y-174888072D01*
X205874482Y-174875812D01*
X205994180Y-174839502D01*
X206104494Y-174780537D01*
X206201185Y-174701185D01*
X206280537Y-174604494D01*
X206339502Y-174494180D01*
X206375812Y-174374482D01*
X206388072Y-174250000D01*
X206388072Y-172539721D01*
X207195000Y-172539721D01*
X207195000Y-172960279D01*
X207277047Y-173372756D01*
X207437988Y-173761302D01*
X207671637Y-174110983D01*
X207969017Y-174408363D01*
X208318698Y-174642012D01*
X208707244Y-174802953D01*
X209119721Y-174885000D01*
X209540279Y-174885000D01*
X209952756Y-174802953D01*
X210341302Y-174642012D01*
X210690983Y-174408363D01*
X210988363Y-174110983D01*
X211222012Y-173761302D01*
X211302032Y-173568115D01*
X216615000Y-173568115D01*
X216615000Y-174431885D01*
X216783513Y-175279057D01*
X217114064Y-176077076D01*
X217593948Y-176795274D01*
X218204726Y-177406052D01*
X218922924Y-177885936D01*
X219720943Y-178216487D01*
X220568115Y-178385000D01*
X221431885Y-178385000D01*
X222279057Y-178216487D01*
X223077076Y-177885936D01*
X223795274Y-177406052D01*
X224406052Y-176795274D01*
X224885936Y-176077076D01*
X225216487Y-175279057D01*
X225385000Y-174431885D01*
X225385000Y-173568115D01*
X225216487Y-172720943D01*
X224885936Y-171922924D01*
X224406052Y-171204726D01*
X223795274Y-170593948D01*
X223077076Y-170114064D01*
X222279057Y-169783513D01*
X221431885Y-169615000D01*
X220568115Y-169615000D01*
X219720943Y-169783513D01*
X218922924Y-170114064D01*
X218204726Y-170593948D01*
X217593948Y-171204726D01*
X217114064Y-171922924D01*
X216783513Y-172720943D01*
X216615000Y-173568115D01*
X211302032Y-173568115D01*
X211382953Y-173372756D01*
X211430993Y-173131246D01*
X216888984Y-167673256D01*
X216910498Y-167744180D01*
X216969463Y-167854494D01*
X217048815Y-167951185D01*
X217145506Y-168030537D01*
X217255820Y-168089502D01*
X217375518Y-168125812D01*
X217500000Y-168138072D01*
X220500000Y-168138072D01*
X220624482Y-168125812D01*
X220744180Y-168089502D01*
X220854494Y-168030537D01*
X220951185Y-167951185D01*
X221030537Y-167854494D01*
X221089502Y-167744180D01*
X221122621Y-167635000D01*
X221919681Y-167635000D01*
X222000000Y-167642911D01*
X222080319Y-167635000D01*
X222080322Y-167635000D01*
X222320516Y-167611343D01*
X222628715Y-167517852D01*
X222912752Y-167366031D01*
X223161714Y-167161714D01*
X223212924Y-167099314D01*
X224099319Y-166212920D01*
X224161714Y-166161714D01*
X224366031Y-165912752D01*
X224517852Y-165628715D01*
X224560452Y-165488283D01*
X224611343Y-165320517D01*
X224642912Y-165000000D01*
X224635000Y-164919670D01*
X224635000Y-136080322D01*
X224642911Y-136000000D01*
X224611343Y-135679483D01*
X224540615Y-135446324D01*
X224517852Y-135371285D01*
X224366031Y-135087248D01*
X224161714Y-134838286D01*
X224099313Y-134787075D01*
X223632925Y-134320687D01*
X223581714Y-134258286D01*
X223332752Y-134053969D01*
X223048715Y-133902148D01*
X222740516Y-133808657D01*
X222500322Y-133785000D01*
X222500319Y-133785000D01*
X222420000Y-133777089D01*
X222339681Y-133785000D01*
X220384346Y-133785000D01*
X220360983Y-133761637D01*
X220011302Y-133527988D01*
X219622756Y-133367047D01*
X219210279Y-133285000D01*
X218789721Y-133285000D01*
X218377244Y-133367047D01*
X217988698Y-133527988D01*
X217639017Y-133761637D01*
X217341637Y-134059017D01*
X217107988Y-134408698D01*
X216947047Y-134797244D01*
X216865000Y-135209721D01*
X216865000Y-135630279D01*
X216947047Y-136042756D01*
X217107988Y-136431302D01*
X217341637Y-136780983D01*
X217639017Y-137078363D01*
X217988698Y-137312012D01*
X218377244Y-137472953D01*
X218789721Y-137555000D01*
X219210279Y-137555000D01*
X219622756Y-137472953D01*
X220011302Y-137312012D01*
X220360983Y-137078363D01*
X220384346Y-137055000D01*
X221365001Y-137055000D01*
X221365000Y-164322761D01*
X221322762Y-164365000D01*
X221122621Y-164365000D01*
X221089502Y-164255820D01*
X221030537Y-164145506D01*
X220951185Y-164048815D01*
X220854494Y-163969463D01*
X220744180Y-163910498D01*
X220624482Y-163874188D01*
X220500000Y-163861928D01*
X217500000Y-163861928D01*
X217375518Y-163874188D01*
X217255820Y-163910498D01*
X217145506Y-163969463D01*
X217048815Y-164048815D01*
X216969463Y-164145506D01*
X216910498Y-164255820D01*
X216877379Y-164365000D01*
X216330330Y-164365000D01*
X216250000Y-164357088D01*
X215929483Y-164388657D01*
X215732923Y-164448283D01*
X215621285Y-164482148D01*
X215337248Y-164633969D01*
X215088286Y-164838286D01*
X215037084Y-164900676D01*
X214509076Y-165428684D01*
X214552953Y-165322756D01*
X214635000Y-164910279D01*
X214635000Y-164489721D01*
X214552953Y-164077244D01*
X214392012Y-163688698D01*
X214158363Y-163339017D01*
X213860983Y-163041637D01*
X213511302Y-162807988D01*
X213122756Y-162647047D01*
X212710279Y-162565000D01*
X212289721Y-162565000D01*
X211877244Y-162647047D01*
X211488698Y-162807988D01*
X211139017Y-163041637D01*
X210841637Y-163339017D01*
X210607988Y-163688698D01*
X210447047Y-164077244D01*
X210365000Y-164489721D01*
X210365000Y-164910279D01*
X210447047Y-165322756D01*
X210607988Y-165711302D01*
X210841637Y-166060983D01*
X211139017Y-166358363D01*
X211488698Y-166592012D01*
X211877244Y-166752953D01*
X212289721Y-166835000D01*
X212710279Y-166835000D01*
X213122756Y-166752953D01*
X213228685Y-166709076D01*
X209322762Y-170615000D01*
X209119721Y-170615000D01*
X208707244Y-170697047D01*
X208318698Y-170857988D01*
X207969017Y-171091637D01*
X207671637Y-171389017D01*
X207437988Y-171738698D01*
X207277047Y-172127244D01*
X207195000Y-172539721D01*
X206388072Y-172539721D01*
X206388072Y-171250000D01*
X206375812Y-171125518D01*
X206339502Y-171005820D01*
X206280537Y-170895506D01*
X206201185Y-170798815D01*
X206104494Y-170719463D01*
X205994180Y-170660498D01*
X205885000Y-170627379D01*
X205885000Y-170330322D01*
X205892911Y-170250000D01*
X205861343Y-169929483D01*
X205767852Y-169621285D01*
X205732824Y-169555752D01*
X205616031Y-169337248D01*
X205411714Y-169088286D01*
X205349325Y-169037085D01*
X204012924Y-167700686D01*
X203961714Y-167638286D01*
X203712752Y-167433969D01*
X203428715Y-167282148D01*
X203120516Y-167188657D01*
X202880322Y-167165000D01*
X202880319Y-167165000D01*
X202800000Y-167157089D01*
X202719681Y-167165000D01*
X199677239Y-167165000D01*
X199135000Y-166622762D01*
X199135000Y-166354346D01*
X199139017Y-166358363D01*
X199488698Y-166592012D01*
X199877244Y-166752953D01*
X200289721Y-166835000D01*
X200710279Y-166835000D01*
X201122756Y-166752953D01*
X201511302Y-166592012D01*
X201860983Y-166358363D01*
X201884346Y-166335000D01*
X206419681Y-166335000D01*
X206500000Y-166342911D01*
X206580319Y-166335000D01*
X206580322Y-166335000D01*
X206820516Y-166311343D01*
X207128715Y-166217852D01*
X207412752Y-166066031D01*
X207661714Y-165861714D01*
X207712925Y-165799313D01*
X216699319Y-156812920D01*
X216761714Y-156761714D01*
X216966031Y-156512752D01*
X217117852Y-156228715D01*
X217211343Y-155920516D01*
X217235000Y-155680322D01*
X217235000Y-155680320D01*
X217242911Y-155600001D01*
X217241102Y-155581635D01*
X217255820Y-155589502D01*
X217365000Y-155622621D01*
X217365001Y-159535653D01*
X217341637Y-159559017D01*
X217107988Y-159908698D01*
X216947047Y-160297244D01*
X216865000Y-160709721D01*
X216865000Y-161130279D01*
X216947047Y-161542756D01*
X217107988Y-161931302D01*
X217341637Y-162280983D01*
X217639017Y-162578363D01*
X217988698Y-162812012D01*
X218377244Y-162972953D01*
X218789721Y-163055000D01*
X219210279Y-163055000D01*
X219622756Y-162972953D01*
X220011302Y-162812012D01*
X220360983Y-162578363D01*
X220658363Y-162280983D01*
X220892012Y-161931302D01*
X221052953Y-161542756D01*
X221135000Y-161130279D01*
X221135000Y-160709721D01*
X221052953Y-160297244D01*
X220892012Y-159908698D01*
X220658363Y-159559017D01*
X220635000Y-159535654D01*
X220635000Y-155622621D01*
X220744180Y-155589502D01*
X220854494Y-155530537D01*
X220951185Y-155451185D01*
X221030537Y-155354494D01*
X221089502Y-155244180D01*
X221125812Y-155124482D01*
X221138072Y-155000000D01*
X221138072Y-152000000D01*
X221125812Y-151875518D01*
X221089502Y-151755820D01*
X221030537Y-151645506D01*
X220951185Y-151548815D01*
X220854494Y-151469463D01*
X220744180Y-151410498D01*
X220624482Y-151374188D01*
X220500000Y-151361928D01*
X217500000Y-151361928D01*
X217375518Y-151374188D01*
X217255820Y-151410498D01*
X217235000Y-151421627D01*
X217235000Y-150677238D01*
X217755826Y-150156412D01*
X217988698Y-150312012D01*
X218377244Y-150472953D01*
X218789721Y-150555000D01*
X219210279Y-150555000D01*
X219622756Y-150472953D01*
X220011302Y-150312012D01*
X220360983Y-150078363D01*
X220658363Y-149780983D01*
X220892012Y-149431302D01*
X221052953Y-149042756D01*
X221135000Y-148630279D01*
X221135000Y-148209721D01*
X221052953Y-147797244D01*
X220892012Y-147408698D01*
X220658363Y-147059017D01*
X220635000Y-147035654D01*
X220635000Y-142622621D01*
X220744180Y-142589502D01*
X220854494Y-142530537D01*
X220951185Y-142451185D01*
X221030537Y-142354494D01*
X221089502Y-142244180D01*
X221125812Y-142124482D01*
X221138072Y-142000000D01*
X221138072Y-139000000D01*
X221125812Y-138875518D01*
X221089502Y-138755820D01*
X221030537Y-138645506D01*
X220951185Y-138548815D01*
X220854494Y-138469463D01*
X220744180Y-138410498D01*
X220624482Y-138374188D01*
X220500000Y-138361928D01*
X217500000Y-138361928D01*
X217375518Y-138374188D01*
X217255820Y-138410498D01*
X217145506Y-138469463D01*
X217048815Y-138548815D01*
X216969463Y-138645506D01*
X216910498Y-138755820D01*
X216874188Y-138875518D01*
X216861928Y-139000000D01*
X216861928Y-142000000D01*
X216874188Y-142124482D01*
X216910498Y-142244180D01*
X216969463Y-142354494D01*
X217048815Y-142451185D01*
X217145506Y-142530537D01*
X217255820Y-142589502D01*
X217365000Y-142622621D01*
X217365001Y-146785000D01*
X217260319Y-146785000D01*
X217179999Y-146777089D01*
X217099680Y-146785000D01*
X217099678Y-146785000D01*
X216859484Y-146808657D01*
X216551285Y-146902148D01*
X216267248Y-147053969D01*
X216018286Y-147258286D01*
X215967079Y-147320682D01*
X214500686Y-148787075D01*
X214438286Y-148838286D01*
X214233969Y-149087249D01*
X214082148Y-149371286D01*
X213988657Y-149679485D01*
X213965000Y-149919678D01*
X213957089Y-150000000D01*
X213965000Y-150080320D01*
X213965000Y-150945654D01*
X213860983Y-150841637D01*
X213535000Y-150623822D01*
X213535000Y-148855501D01*
X213601185Y-148801185D01*
X213655501Y-148735000D01*
X213744249Y-148735000D01*
X213800000Y-148740491D01*
X213855751Y-148735000D01*
X213855752Y-148735000D01*
X214022499Y-148718577D01*
X214236447Y-148653676D01*
X214433623Y-148548284D01*
X214606449Y-148406449D01*
X214641996Y-148363135D01*
X215163135Y-147841996D01*
X215206449Y-147806449D01*
X215348284Y-147633623D01*
X215453676Y-147436447D01*
X215518577Y-147222499D01*
X215524929Y-147158011D01*
X215540491Y-147000001D01*
X215535000Y-146944249D01*
X215535000Y-140855751D01*
X215540491Y-140800000D01*
X215518577Y-140577501D01*
X215453676Y-140363553D01*
X215348284Y-140166377D01*
X215328268Y-140141988D01*
X215206449Y-139993551D01*
X215163140Y-139958008D01*
X214441995Y-139236864D01*
X214406449Y-139193551D01*
X214233623Y-139051716D01*
X214036447Y-138946324D01*
X213904846Y-138906403D01*
X213889502Y-138855820D01*
X213830537Y-138745506D01*
X213751185Y-138648815D01*
X213654494Y-138569463D01*
X213544180Y-138510498D01*
X213525873Y-138504944D01*
X213592312Y-138438505D01*
X213760299Y-138187095D01*
X213876011Y-137907743D01*
X213935000Y-137611184D01*
X213935000Y-137308816D01*
X213876011Y-137012257D01*
X213760299Y-136732905D01*
X213592312Y-136481495D01*
X213378505Y-136267688D01*
X213127095Y-136099701D01*
X212847743Y-135983989D01*
X212788770Y-135972258D01*
X212833623Y-135948284D01*
X213006449Y-135806449D01*
X213041996Y-135763135D01*
X215670133Y-133135000D01*
X220444249Y-133135000D01*
X220500000Y-133140491D01*
X220555751Y-133135000D01*
X220555752Y-133135000D01*
X220722499Y-133118577D01*
X220936447Y-133053676D01*
X221133623Y-132948284D01*
X221306449Y-132806449D01*
X221341996Y-132763135D01*
X223263141Y-130841991D01*
X223306449Y-130806449D01*
X223448284Y-130633623D01*
X223553676Y-130436447D01*
X223603471Y-130272295D01*
X223618577Y-130222500D01*
X223640491Y-130000001D01*
X223635000Y-129944249D01*
X223635000Y-123555752D01*
X223640491Y-123500000D01*
X223618577Y-123277501D01*
X223553676Y-123063553D01*
X223542290Y-123042252D01*
X223448284Y-122866377D01*
X223306449Y-122693551D01*
X223263135Y-122658004D01*
X222761996Y-122156865D01*
X222726449Y-122113551D01*
X222553623Y-121971716D01*
X222356447Y-121866324D01*
X222142499Y-121801423D01*
X221975752Y-121785000D01*
X221975751Y-121785000D01*
X221920000Y-121779509D01*
X221864249Y-121785000D01*
X220809360Y-121785000D01*
X220658363Y-121559017D01*
X220360983Y-121261637D01*
X220011302Y-121027988D01*
X219622756Y-120867047D01*
X219210279Y-120785000D01*
X218789721Y-120785000D01*
X218377244Y-120867047D01*
X217988698Y-121027988D01*
X217639017Y-121261637D01*
X217341637Y-121559017D01*
X217190640Y-121785000D01*
X215390132Y-121785000D01*
X214135000Y-120529869D01*
X214135000Y-120158661D01*
X214347663Y-119945998D01*
X214537537Y-119661831D01*
X214668325Y-119346081D01*
X214735000Y-119010883D01*
X214735000Y-118669117D01*
X214668325Y-118333919D01*
X214537537Y-118018169D01*
X214347663Y-117734002D01*
X214105998Y-117492337D01*
X213821831Y-117302463D01*
X213506081Y-117171675D01*
X213170883Y-117105000D01*
X212829117Y-117105000D01*
X212493919Y-117171675D01*
X212178169Y-117302463D01*
X211894002Y-117492337D01*
X211652337Y-117734002D01*
X211462463Y-118018169D01*
X211331675Y-118333919D01*
X211265000Y-118669117D01*
X211265000Y-119010883D01*
X211331675Y-119346081D01*
X211462463Y-119661831D01*
X211652337Y-119945998D01*
X211865001Y-120158662D01*
X211865001Y-120944239D01*
X211859509Y-121000000D01*
X211881423Y-121222498D01*
X211946324Y-121436446D01*
X211967954Y-121476912D01*
X212051717Y-121633623D01*
X212193552Y-121806449D01*
X212236860Y-121841991D01*
X214078009Y-123683141D01*
X214113551Y-123726449D01*
X214286377Y-123868284D01*
X214436046Y-123948283D01*
X214483553Y-123973676D01*
X214697501Y-124038577D01*
X214919999Y-124060491D01*
X214975751Y-124055000D01*
X217190640Y-124055000D01*
X217341637Y-124280983D01*
X217639017Y-124578363D01*
X217988698Y-124812012D01*
X218377244Y-124972953D01*
X218789721Y-125055000D01*
X219210279Y-125055000D01*
X219622756Y-124972953D01*
X220011302Y-124812012D01*
X220360983Y-124578363D01*
X220658363Y-124280983D01*
X220809360Y-124055000D01*
X221365001Y-124055000D01*
X221365000Y-129529868D01*
X220985516Y-129909352D01*
X221030537Y-129854494D01*
X221089502Y-129744180D01*
X221125812Y-129624482D01*
X221138072Y-129500000D01*
X221138072Y-126500000D01*
X221125812Y-126375518D01*
X221089502Y-126255820D01*
X221030537Y-126145506D01*
X220951185Y-126048815D01*
X220854494Y-125969463D01*
X220744180Y-125910498D01*
X220624482Y-125874188D01*
X220500000Y-125861928D01*
X217500000Y-125861928D01*
X217375518Y-125874188D01*
X217255820Y-125910498D01*
X217145506Y-125969463D01*
X217048815Y-126048815D01*
X216969463Y-126145506D01*
X216910498Y-126255820D01*
X216874188Y-126375518D01*
X216861928Y-126500000D01*
X216861928Y-126865000D01*
X216470132Y-126865000D01*
X210841996Y-121236865D01*
X210806449Y-121193551D01*
X210633623Y-121051716D01*
X210436447Y-120946324D01*
X210222499Y-120881423D01*
X210055752Y-120865000D01*
X210055751Y-120865000D01*
X210000000Y-120859509D01*
X209944249Y-120865000D01*
X207177239Y-120865000D01*
X207042252Y-120730013D01*
X206774463Y-120551082D01*
X206476912Y-120427832D01*
X206161033Y-120365000D01*
X205838967Y-120365000D01*
X205523088Y-120427832D01*
X205225537Y-120551082D01*
X204957748Y-120730013D01*
X204822761Y-120865000D01*
X199884284Y-120865000D01*
X199679727Y-120728320D01*
X199418574Y-120620147D01*
X199141335Y-120565000D01*
X198858665Y-120565000D01*
X198581426Y-120620147D01*
X198320273Y-120728320D01*
X198115716Y-120865000D01*
X192677239Y-120865000D01*
X192542252Y-120730013D01*
X192274463Y-120551082D01*
X191976912Y-120427832D01*
X191661033Y-120365000D01*
X191338967Y-120365000D01*
X191023088Y-120427832D01*
X190725537Y-120551082D01*
X190457748Y-120730013D01*
X190322761Y-120865000D01*
X185135000Y-120865000D01*
X185135000Y-118555752D01*
X185140491Y-118500000D01*
X185118577Y-118277501D01*
X185053676Y-118063553D01*
X185012425Y-117986377D01*
X184948284Y-117866377D01*
X184806449Y-117693551D01*
X184763135Y-117658004D01*
X184341996Y-117236865D01*
X184306449Y-117193551D01*
X184133623Y-117051716D01*
X183936447Y-116946324D01*
X183722499Y-116881423D01*
X183555752Y-116865000D01*
X183555751Y-116865000D01*
X183500000Y-116859509D01*
X183444249Y-116865000D01*
X172055751Y-116865000D01*
X172000000Y-116859509D01*
X171944248Y-116865000D01*
X171055741Y-116865000D01*
X170999999Y-116859510D01*
X170944257Y-116865000D01*
X169055751Y-116865000D01*
X169000000Y-116859509D01*
X168944249Y-116865000D01*
X145555752Y-116865000D01*
X145500000Y-116859509D01*
X145277501Y-116881423D01*
X145063553Y-116946324D01*
X144866377Y-117051716D01*
X144736856Y-117158011D01*
X144736855Y-117158012D01*
X144693551Y-117193551D01*
X144658013Y-117236855D01*
X144029868Y-117865000D01*
X143108409Y-117865000D01*
X143795274Y-117406052D01*
X144406052Y-116795274D01*
X144885936Y-116077076D01*
X145216487Y-115279057D01*
X145385000Y-114431885D01*
X145385000Y-113568115D01*
X216615000Y-113568115D01*
X216615000Y-114431885D01*
X216783513Y-115279057D01*
X217114064Y-116077076D01*
X217593948Y-116795274D01*
X218204726Y-117406052D01*
X218922924Y-117885936D01*
X219720943Y-118216487D01*
X220568115Y-118385000D01*
X221431885Y-118385000D01*
X222279057Y-118216487D01*
X223077076Y-117885936D01*
X223795274Y-117406052D01*
X224406052Y-116795274D01*
X224885936Y-116077076D01*
X225216487Y-115279057D01*
X225385000Y-114431885D01*
X225385000Y-113568115D01*
X225216487Y-112720943D01*
X224885936Y-111922924D01*
X224406052Y-111204726D01*
X223795274Y-110593948D01*
X223077076Y-110114064D01*
X222279057Y-109783513D01*
X221431885Y-109615000D01*
X220568115Y-109615000D01*
X219720943Y-109783513D01*
X218922924Y-110114064D01*
X218204726Y-110593948D01*
X217593948Y-111204726D01*
X217114064Y-111922924D01*
X216783513Y-112720943D01*
X216615000Y-113568115D01*
X145385000Y-113568115D01*
X145216487Y-112720943D01*
X144885936Y-111922924D01*
X144406052Y-111204726D01*
X143795274Y-110593948D01*
X143077076Y-110114064D01*
X142279057Y-109783513D01*
X141431885Y-109615000D01*
X140568115Y-109615000D01*
X139720943Y-109783513D01*
X138922924Y-110114064D01*
X138204726Y-110593948D01*
X137593948Y-111204726D01*
X137114064Y-111922924D01*
X136783513Y-112720943D01*
X136615000Y-113568115D01*
X136615000Y-114431885D01*
X136783513Y-115279057D01*
X137114064Y-116077076D01*
X137593948Y-116795274D01*
X138204726Y-117406052D01*
X138922924Y-117885936D01*
X139686452Y-118202201D01*
X139658011Y-118236857D01*
X135736865Y-122158004D01*
X135693551Y-122193551D01*
X135660000Y-122234433D01*
X135660000Y-113029392D01*
X135731173Y-112231917D01*
X135934656Y-111488109D01*
X136266638Y-110792095D01*
X136716626Y-110165870D01*
X137270403Y-109629223D01*
X137910451Y-109199129D01*
X138616553Y-108889171D01*
X139371457Y-108707935D01*
X140024207Y-108660000D01*
X221970608Y-108660000D01*
X222768083Y-108731173D01*
G36*
X163405000Y-172260132D02*
G01*
X163405000Y-172341272D01*
X163380537Y-172295506D01*
X163301185Y-172198815D01*
X163204494Y-172119463D01*
X163094180Y-172060498D01*
X162974482Y-172024188D01*
X162850000Y-172011928D01*
X161150000Y-172011928D01*
X161025518Y-172024188D01*
X160905820Y-172060498D01*
X160795506Y-172119463D01*
X160698815Y-172198815D01*
X160619463Y-172295506D01*
X160560498Y-172405820D01*
X160524188Y-172525518D01*
X160511928Y-172650000D01*
X160511928Y-174350000D01*
X160524188Y-174474482D01*
X160560498Y-174594180D01*
X160619463Y-174704494D01*
X160698815Y-174801185D01*
X160795506Y-174880537D01*
X160865001Y-174917683D01*
X160865000Y-176444248D01*
X160859509Y-176500000D01*
X160872670Y-176633622D01*
X160881423Y-176722498D01*
X160946324Y-176936446D01*
X161051716Y-177133623D01*
X161193551Y-177306449D01*
X161236865Y-177341996D01*
X161459869Y-177565000D01*
X156170132Y-177565000D01*
X155675000Y-177069868D01*
X155675000Y-174465107D01*
X155693475Y-174446632D01*
X155810000Y-174272240D01*
X155926525Y-174446632D01*
X156133368Y-174653475D01*
X156376589Y-174815990D01*
X156646842Y-174927932D01*
X156933740Y-174985000D01*
X157226260Y-174985000D01*
X157513158Y-174927932D01*
X157783411Y-174815990D01*
X158026632Y-174653475D01*
X158233475Y-174446632D01*
X158395990Y-174203411D01*
X158507932Y-173933158D01*
X158565000Y-173646260D01*
X158565000Y-173353740D01*
X158507932Y-173066842D01*
X158395990Y-172796589D01*
X158233475Y-172553368D01*
X158215000Y-172534893D01*
X158215000Y-172390131D01*
X159220133Y-171385000D01*
X162529869Y-171385000D01*
X163405000Y-172260132D01*
G37*
X163405000Y-172260132D02*
X163405000Y-172341272D01*
X163380537Y-172295506D01*
X163301185Y-172198815D01*
X163204494Y-172119463D01*
X163094180Y-172060498D01*
X162974482Y-172024188D01*
X162850000Y-172011928D01*
X161150000Y-172011928D01*
X161025518Y-172024188D01*
X160905820Y-172060498D01*
X160795506Y-172119463D01*
X160698815Y-172198815D01*
X160619463Y-172295506D01*
X160560498Y-172405820D01*
X160524188Y-172525518D01*
X160511928Y-172650000D01*
X160511928Y-174350000D01*
X160524188Y-174474482D01*
X160560498Y-174594180D01*
X160619463Y-174704494D01*
X160698815Y-174801185D01*
X160795506Y-174880537D01*
X160865001Y-174917683D01*
X160865000Y-176444248D01*
X160859509Y-176500000D01*
X160872670Y-176633622D01*
X160881423Y-176722498D01*
X160946324Y-176936446D01*
X161051716Y-177133623D01*
X161193551Y-177306449D01*
X161236865Y-177341996D01*
X161459869Y-177565000D01*
X156170132Y-177565000D01*
X155675000Y-177069868D01*
X155675000Y-174465107D01*
X155693475Y-174446632D01*
X155810000Y-174272240D01*
X155926525Y-174446632D01*
X156133368Y-174653475D01*
X156376589Y-174815990D01*
X156646842Y-174927932D01*
X156933740Y-174985000D01*
X157226260Y-174985000D01*
X157513158Y-174927932D01*
X157783411Y-174815990D01*
X158026632Y-174653475D01*
X158233475Y-174446632D01*
X158395990Y-174203411D01*
X158507932Y-173933158D01*
X158565000Y-173646260D01*
X158565000Y-173353740D01*
X158507932Y-173066842D01*
X158395990Y-172796589D01*
X158233475Y-172553368D01*
X158215000Y-172534893D01*
X158215000Y-172390131D01*
X159220133Y-171385000D01*
X162529869Y-171385000D01*
X163405000Y-172260132D01*
G36*
X157520273Y-160148320D02*
G01*
X157285241Y-160305363D01*
X157085363Y-160505241D01*
X156928320Y-160740273D01*
X156820147Y-161001426D01*
X156765000Y-161278665D01*
X156765000Y-161561335D01*
X156820147Y-161838574D01*
X156865001Y-161946861D01*
X156865000Y-164529868D01*
X151236860Y-170158009D01*
X151193552Y-170193551D01*
X151051717Y-170366377D01*
X151015038Y-170435000D01*
X150946324Y-170563554D01*
X150881423Y-170777502D01*
X150859509Y-171000000D01*
X150865001Y-171055761D01*
X150865001Y-172082317D01*
X150795506Y-172119463D01*
X150698815Y-172198815D01*
X150619463Y-172295506D01*
X150560498Y-172405820D01*
X150524188Y-172525518D01*
X150511928Y-172650000D01*
X150511928Y-174350000D01*
X150524188Y-174474482D01*
X150560498Y-174594180D01*
X150619463Y-174704494D01*
X150698815Y-174801185D01*
X150795506Y-174880537D01*
X150905820Y-174939502D01*
X151025518Y-174975812D01*
X151150000Y-174988072D01*
X152850000Y-174988072D01*
X152974482Y-174975812D01*
X153094180Y-174939502D01*
X153204494Y-174880537D01*
X153301185Y-174801185D01*
X153380537Y-174704494D01*
X153405001Y-174658726D01*
X153405000Y-177484248D01*
X153399509Y-177540000D01*
X153401971Y-177565000D01*
X150670132Y-177565000D01*
X149635000Y-176529869D01*
X149635000Y-171555751D01*
X149640491Y-171500000D01*
X149618577Y-171277501D01*
X149553676Y-171063553D01*
X149448284Y-170866377D01*
X149427048Y-170840501D01*
X149306449Y-170693551D01*
X149263141Y-170658009D01*
X146841996Y-168236865D01*
X146824052Y-168215000D01*
X147614249Y-168215000D01*
X147670000Y-168220491D01*
X147725751Y-168215000D01*
X147725752Y-168215000D01*
X147892499Y-168198577D01*
X148106447Y-168133676D01*
X148303623Y-168028284D01*
X148476449Y-167886449D01*
X148511996Y-167843135D01*
X151763141Y-164591991D01*
X151806449Y-164556449D01*
X151948284Y-164383623D01*
X152053676Y-164186447D01*
X152118577Y-163972499D01*
X152135000Y-163805752D01*
X152135000Y-163805745D01*
X152140490Y-163750001D01*
X152135000Y-163694257D01*
X152135000Y-162505000D01*
X153615716Y-162505000D01*
X153820273Y-162641680D01*
X154081426Y-162749853D01*
X154358665Y-162805000D01*
X154641335Y-162805000D01*
X154918574Y-162749853D01*
X155179727Y-162641680D01*
X155414759Y-162484637D01*
X155614637Y-162284759D01*
X155771680Y-162049727D01*
X155879853Y-161788574D01*
X155935000Y-161511335D01*
X155935000Y-161228665D01*
X155879853Y-160951426D01*
X155771680Y-160690273D01*
X155748921Y-160656211D01*
X156270132Y-160135000D01*
X157552430Y-160135000D01*
X157520273Y-160148320D01*
G37*
X157520273Y-160148320D02*
X157285241Y-160305363D01*
X157085363Y-160505241D01*
X156928320Y-160740273D01*
X156820147Y-161001426D01*
X156765000Y-161278665D01*
X156765000Y-161561335D01*
X156820147Y-161838574D01*
X156865001Y-161946861D01*
X156865000Y-164529868D01*
X151236860Y-170158009D01*
X151193552Y-170193551D01*
X151051717Y-170366377D01*
X151015038Y-170435000D01*
X150946324Y-170563554D01*
X150881423Y-170777502D01*
X150859509Y-171000000D01*
X150865001Y-171055761D01*
X150865001Y-172082317D01*
X150795506Y-172119463D01*
X150698815Y-172198815D01*
X150619463Y-172295506D01*
X150560498Y-172405820D01*
X150524188Y-172525518D01*
X150511928Y-172650000D01*
X150511928Y-174350000D01*
X150524188Y-174474482D01*
X150560498Y-174594180D01*
X150619463Y-174704494D01*
X150698815Y-174801185D01*
X150795506Y-174880537D01*
X150905820Y-174939502D01*
X151025518Y-174975812D01*
X151150000Y-174988072D01*
X152850000Y-174988072D01*
X152974482Y-174975812D01*
X153094180Y-174939502D01*
X153204494Y-174880537D01*
X153301185Y-174801185D01*
X153380537Y-174704494D01*
X153405001Y-174658726D01*
X153405000Y-177484248D01*
X153399509Y-177540000D01*
X153401971Y-177565000D01*
X150670132Y-177565000D01*
X149635000Y-176529869D01*
X149635000Y-171555751D01*
X149640491Y-171500000D01*
X149618577Y-171277501D01*
X149553676Y-171063553D01*
X149448284Y-170866377D01*
X149427048Y-170840501D01*
X149306449Y-170693551D01*
X149263141Y-170658009D01*
X146841996Y-168236865D01*
X146824052Y-168215000D01*
X147614249Y-168215000D01*
X147670000Y-168220491D01*
X147725751Y-168215000D01*
X147725752Y-168215000D01*
X147892499Y-168198577D01*
X148106447Y-168133676D01*
X148303623Y-168028284D01*
X148476449Y-167886449D01*
X148511996Y-167843135D01*
X151763141Y-164591991D01*
X151806449Y-164556449D01*
X151948284Y-164383623D01*
X152053676Y-164186447D01*
X152118577Y-163972499D01*
X152135000Y-163805752D01*
X152135000Y-163805745D01*
X152140490Y-163750001D01*
X152135000Y-163694257D01*
X152135000Y-162505000D01*
X153615716Y-162505000D01*
X153820273Y-162641680D01*
X154081426Y-162749853D01*
X154358665Y-162805000D01*
X154641335Y-162805000D01*
X154918574Y-162749853D01*
X155179727Y-162641680D01*
X155414759Y-162484637D01*
X155614637Y-162284759D01*
X155771680Y-162049727D01*
X155879853Y-161788574D01*
X155935000Y-161511335D01*
X155935000Y-161228665D01*
X155879853Y-160951426D01*
X155771680Y-160690273D01*
X155748921Y-160656211D01*
X156270132Y-160135000D01*
X157552430Y-160135000D01*
X157520273Y-160148320D01*
G36*
X163405001Y-175484239D02*
G01*
X163399509Y-175540000D01*
X163421423Y-175762498D01*
X163486324Y-175976446D01*
X163498428Y-175999091D01*
X163591717Y-176173623D01*
X163733552Y-176346449D01*
X163776860Y-176381991D01*
X164959868Y-177565000D01*
X164670132Y-177565000D01*
X163135000Y-176029869D01*
X163135000Y-174917683D01*
X163204494Y-174880537D01*
X163301185Y-174801185D01*
X163380537Y-174704494D01*
X163405001Y-174658727D01*
X163405001Y-175484239D01*
G37*
X163405001Y-175484239D02*
X163399509Y-175540000D01*
X163421423Y-175762498D01*
X163486324Y-175976446D01*
X163498428Y-175999091D01*
X163591717Y-176173623D01*
X163733552Y-176346449D01*
X163776860Y-176381991D01*
X164959868Y-177565000D01*
X164670132Y-177565000D01*
X163135000Y-176029869D01*
X163135000Y-174917683D01*
X163204494Y-174880537D01*
X163301185Y-174801185D01*
X163380537Y-174704494D01*
X163405001Y-174658727D01*
X163405001Y-175484239D01*
G36*
X165926525Y-174446632D02*
G01*
X165945000Y-174465107D01*
X165945000Y-174524249D01*
X165939509Y-174580000D01*
X165945000Y-174635751D01*
X165945000Y-174635752D01*
X165961423Y-174802499D01*
X166026324Y-175016447D01*
X166131717Y-175213623D01*
X166273552Y-175386449D01*
X166316860Y-175421991D01*
X167059868Y-176165000D01*
X166770132Y-176165000D01*
X165675000Y-175069869D01*
X165675000Y-174465107D01*
X165693475Y-174446632D01*
X165810000Y-174272240D01*
X165926525Y-174446632D01*
G37*
X165926525Y-174446632D02*
X165945000Y-174465107D01*
X165945000Y-174524249D01*
X165939509Y-174580000D01*
X165945000Y-174635751D01*
X165945000Y-174635752D01*
X165961423Y-174802499D01*
X166026324Y-175016447D01*
X166131717Y-175213623D01*
X166273552Y-175386449D01*
X166316860Y-175421991D01*
X167059868Y-176165000D01*
X166770132Y-176165000D01*
X165675000Y-175069869D01*
X165675000Y-174465107D01*
X165693475Y-174446632D01*
X165810000Y-174272240D01*
X165926525Y-174446632D01*
G36*
X178736860Y-172158009D02*
G01*
X178693552Y-172193551D01*
X178551717Y-172366377D01*
X178521119Y-172423622D01*
X178446324Y-172563554D01*
X178381423Y-172777502D01*
X178359509Y-173000000D01*
X178365001Y-173055761D01*
X178365000Y-175444248D01*
X178359509Y-175500000D01*
X178367028Y-175576341D01*
X178381423Y-175722498D01*
X178446324Y-175936446D01*
X178551716Y-176133623D01*
X178577467Y-176165000D01*
X174440132Y-176165000D01*
X174763141Y-175841991D01*
X174806449Y-175806449D01*
X174948284Y-175633623D01*
X175053676Y-175436447D01*
X175118577Y-175222499D01*
X175127224Y-175134709D01*
X175140491Y-175000001D01*
X175135000Y-174944249D01*
X175135000Y-173470131D01*
X176970132Y-171635000D01*
X178944249Y-171635000D01*
X179000000Y-171640491D01*
X179055751Y-171635000D01*
X179055752Y-171635000D01*
X179222499Y-171618577D01*
X179299715Y-171595154D01*
X178736860Y-172158009D01*
G37*
X178736860Y-172158009D02*
X178693552Y-172193551D01*
X178551717Y-172366377D01*
X178521119Y-172423622D01*
X178446324Y-172563554D01*
X178381423Y-172777502D01*
X178359509Y-173000000D01*
X178365001Y-173055761D01*
X178365000Y-175444248D01*
X178359509Y-175500000D01*
X178367028Y-175576341D01*
X178381423Y-175722498D01*
X178446324Y-175936446D01*
X178551716Y-176133623D01*
X178577467Y-176165000D01*
X174440132Y-176165000D01*
X174763141Y-175841991D01*
X174806449Y-175806449D01*
X174948284Y-175633623D01*
X175053676Y-175436447D01*
X175118577Y-175222499D01*
X175127224Y-175134709D01*
X175140491Y-175000001D01*
X175135000Y-174944249D01*
X175135000Y-173470131D01*
X176970132Y-171635000D01*
X178944249Y-171635000D01*
X179000000Y-171640491D01*
X179055751Y-171635000D01*
X179055752Y-171635000D01*
X179222499Y-171618577D01*
X179299715Y-171595154D01*
X178736860Y-172158009D01*
G36*
X185251980Y-174865000D02*
G01*
X185128020Y-174865000D01*
X185190000Y-174772240D01*
X185251980Y-174865000D01*
G37*
X185251980Y-174865000D02*
X185128020Y-174865000D01*
X185190000Y-174772240D01*
X185251980Y-174865000D01*
G36*
X182711980Y-174865000D02*
G01*
X182588020Y-174865000D01*
X182650000Y-174772240D01*
X182711980Y-174865000D01*
G37*
X182711980Y-174865000D02*
X182588020Y-174865000D01*
X182650000Y-174772240D01*
X182711980Y-174865000D01*
G36*
X161865000Y-161470132D02*
G01*
X161865001Y-169115000D01*
X158805752Y-169115000D01*
X158750000Y-169109509D01*
X158527501Y-169131423D01*
X158313553Y-169196324D01*
X158116377Y-169301716D01*
X157986856Y-169408011D01*
X157986855Y-169408012D01*
X157943551Y-169443551D01*
X157908013Y-169486854D01*
X156316864Y-171078005D01*
X156273551Y-171113551D01*
X156131716Y-171286377D01*
X156047333Y-171444249D01*
X156026324Y-171483554D01*
X155961423Y-171697502D01*
X155939509Y-171920000D01*
X155945000Y-171975751D01*
X155945000Y-172534893D01*
X155926525Y-172553368D01*
X155810000Y-172727760D01*
X155693475Y-172553368D01*
X155486632Y-172346525D01*
X155243411Y-172184010D01*
X154973158Y-172072068D01*
X154686260Y-172015000D01*
X154393740Y-172015000D01*
X154106842Y-172072068D01*
X153836589Y-172184010D01*
X153593368Y-172346525D01*
X153461513Y-172478380D01*
X153439502Y-172405820D01*
X153380537Y-172295506D01*
X153301185Y-172198815D01*
X153204494Y-172119463D01*
X153135000Y-172082317D01*
X153135000Y-171470131D01*
X158763141Y-165841991D01*
X158806449Y-165806449D01*
X158948284Y-165633623D01*
X159053676Y-165436447D01*
X159118577Y-165222499D01*
X159135000Y-165055752D01*
X159135000Y-165055743D01*
X159140490Y-165000001D01*
X159135000Y-164944259D01*
X159135000Y-162514396D01*
X159314637Y-162334759D01*
X159471680Y-162099727D01*
X159579853Y-161838574D01*
X159635000Y-161561335D01*
X159635000Y-161278665D01*
X159579853Y-161001426D01*
X159471680Y-160740273D01*
X159314637Y-160505241D01*
X159114759Y-160305363D01*
X158879727Y-160148320D01*
X158847570Y-160135000D01*
X160529869Y-160135000D01*
X161865000Y-161470132D01*
G37*
X161865000Y-161470132D02*
X161865001Y-169115000D01*
X158805752Y-169115000D01*
X158750000Y-169109509D01*
X158527501Y-169131423D01*
X158313553Y-169196324D01*
X158116377Y-169301716D01*
X157986856Y-169408011D01*
X157986855Y-169408012D01*
X157943551Y-169443551D01*
X157908013Y-169486854D01*
X156316864Y-171078005D01*
X156273551Y-171113551D01*
X156131716Y-171286377D01*
X156047333Y-171444249D01*
X156026324Y-171483554D01*
X155961423Y-171697502D01*
X155939509Y-171920000D01*
X155945000Y-171975751D01*
X155945000Y-172534893D01*
X155926525Y-172553368D01*
X155810000Y-172727760D01*
X155693475Y-172553368D01*
X155486632Y-172346525D01*
X155243411Y-172184010D01*
X154973158Y-172072068D01*
X154686260Y-172015000D01*
X154393740Y-172015000D01*
X154106842Y-172072068D01*
X153836589Y-172184010D01*
X153593368Y-172346525D01*
X153461513Y-172478380D01*
X153439502Y-172405820D01*
X153380537Y-172295506D01*
X153301185Y-172198815D01*
X153204494Y-172119463D01*
X153135000Y-172082317D01*
X153135000Y-171470131D01*
X158763141Y-165841991D01*
X158806449Y-165806449D01*
X158948284Y-165633623D01*
X159053676Y-165436447D01*
X159118577Y-165222499D01*
X159135000Y-165055752D01*
X159135000Y-165055743D01*
X159140490Y-165000001D01*
X159135000Y-164944259D01*
X159135000Y-162514396D01*
X159314637Y-162334759D01*
X159471680Y-162099727D01*
X159579853Y-161838574D01*
X159635000Y-161561335D01*
X159635000Y-161278665D01*
X159579853Y-161001426D01*
X159471680Y-160740273D01*
X159314637Y-160505241D01*
X159114759Y-160305363D01*
X158879727Y-160148320D01*
X158847570Y-160135000D01*
X160529869Y-160135000D01*
X161865000Y-161470132D01*
G36*
X159413552Y-147026449D02*
G01*
X159456860Y-147061991D01*
X167365000Y-154970132D01*
X167365001Y-169444239D01*
X167359509Y-169500000D01*
X167381423Y-169722498D01*
X167446324Y-169936446D01*
X167446325Y-169936447D01*
X167551717Y-170133623D01*
X167693552Y-170306449D01*
X167736860Y-170341991D01*
X168485000Y-171090132D01*
X168485001Y-172534892D01*
X168466525Y-172553368D01*
X168350000Y-172727760D01*
X168233475Y-172553368D01*
X168026632Y-172346525D01*
X167783411Y-172184010D01*
X167513158Y-172072068D01*
X167226260Y-172015000D01*
X166933740Y-172015000D01*
X166646842Y-172072068D01*
X166376589Y-172184010D01*
X166133368Y-172346525D01*
X165926525Y-172553368D01*
X165810000Y-172727760D01*
X165693475Y-172553368D01*
X165675000Y-172534893D01*
X165675000Y-171845752D01*
X165680491Y-171790000D01*
X165663608Y-171618577D01*
X165658577Y-171567501D01*
X165593676Y-171353553D01*
X165488284Y-171156377D01*
X165346449Y-170983551D01*
X165303140Y-170948009D01*
X164135000Y-169779869D01*
X164135000Y-161055751D01*
X164140491Y-160999999D01*
X164118577Y-160777500D01*
X164098016Y-160709721D01*
X164053676Y-160563553D01*
X163948284Y-160366377D01*
X163806449Y-160193551D01*
X163763141Y-160158009D01*
X161841996Y-158236865D01*
X161806449Y-158193551D01*
X161633623Y-158051716D01*
X161436447Y-157946324D01*
X161222499Y-157881423D01*
X161055752Y-157865000D01*
X161055751Y-157865000D01*
X161000000Y-157859509D01*
X160944249Y-157865000D01*
X155855752Y-157865000D01*
X155800000Y-157859509D01*
X155739682Y-157865450D01*
X156763141Y-156841991D01*
X156806449Y-156806449D01*
X156948284Y-156633623D01*
X157053676Y-156436447D01*
X157118577Y-156222499D01*
X157135000Y-156055752D01*
X157135000Y-156055743D01*
X157140490Y-156000001D01*
X157135000Y-155944259D01*
X157135000Y-154764396D01*
X157285241Y-154914637D01*
X157520273Y-155071680D01*
X157781426Y-155179853D01*
X158058665Y-155235000D01*
X158341335Y-155235000D01*
X158618574Y-155179853D01*
X158879727Y-155071680D01*
X159114759Y-154914637D01*
X159314637Y-154714759D01*
X159471680Y-154479727D01*
X159579853Y-154218574D01*
X159635000Y-153941335D01*
X159635000Y-153658665D01*
X159579853Y-153381426D01*
X159471680Y-153120273D01*
X159335000Y-152915716D01*
X159335000Y-146930733D01*
X159413552Y-147026449D01*
G37*
X159413552Y-147026449D02*
X159456860Y-147061991D01*
X167365000Y-154970132D01*
X167365001Y-169444239D01*
X167359509Y-169500000D01*
X167381423Y-169722498D01*
X167446324Y-169936446D01*
X167446325Y-169936447D01*
X167551717Y-170133623D01*
X167693552Y-170306449D01*
X167736860Y-170341991D01*
X168485000Y-171090132D01*
X168485001Y-172534892D01*
X168466525Y-172553368D01*
X168350000Y-172727760D01*
X168233475Y-172553368D01*
X168026632Y-172346525D01*
X167783411Y-172184010D01*
X167513158Y-172072068D01*
X167226260Y-172015000D01*
X166933740Y-172015000D01*
X166646842Y-172072068D01*
X166376589Y-172184010D01*
X166133368Y-172346525D01*
X165926525Y-172553368D01*
X165810000Y-172727760D01*
X165693475Y-172553368D01*
X165675000Y-172534893D01*
X165675000Y-171845752D01*
X165680491Y-171790000D01*
X165663608Y-171618577D01*
X165658577Y-171567501D01*
X165593676Y-171353553D01*
X165488284Y-171156377D01*
X165346449Y-170983551D01*
X165303140Y-170948009D01*
X164135000Y-169779869D01*
X164135000Y-161055751D01*
X164140491Y-160999999D01*
X164118577Y-160777500D01*
X164098016Y-160709721D01*
X164053676Y-160563553D01*
X163948284Y-160366377D01*
X163806449Y-160193551D01*
X163763141Y-160158009D01*
X161841996Y-158236865D01*
X161806449Y-158193551D01*
X161633623Y-158051716D01*
X161436447Y-157946324D01*
X161222499Y-157881423D01*
X161055752Y-157865000D01*
X161055751Y-157865000D01*
X161000000Y-157859509D01*
X160944249Y-157865000D01*
X155855752Y-157865000D01*
X155800000Y-157859509D01*
X155739682Y-157865450D01*
X156763141Y-156841991D01*
X156806449Y-156806449D01*
X156948284Y-156633623D01*
X157053676Y-156436447D01*
X157118577Y-156222499D01*
X157135000Y-156055752D01*
X157135000Y-156055743D01*
X157140490Y-156000001D01*
X157135000Y-155944259D01*
X157135000Y-154764396D01*
X157285241Y-154914637D01*
X157520273Y-155071680D01*
X157781426Y-155179853D01*
X158058665Y-155235000D01*
X158341335Y-155235000D01*
X158618574Y-155179853D01*
X158879727Y-155071680D01*
X159114759Y-154914637D01*
X159314637Y-154714759D01*
X159471680Y-154479727D01*
X159579853Y-154218574D01*
X159635000Y-153941335D01*
X159635000Y-153658665D01*
X159579853Y-153381426D01*
X159471680Y-153120273D01*
X159335000Y-152915716D01*
X159335000Y-146930733D01*
X159413552Y-147026449D01*
G36*
X170865001Y-169970133D02*
G01*
X170865000Y-172690345D01*
X170773475Y-172553368D01*
X170755000Y-172534893D01*
X170755000Y-170675743D01*
X170760490Y-170619999D01*
X170755000Y-170564255D01*
X170755000Y-170564248D01*
X170738577Y-170397501D01*
X170673676Y-170183553D01*
X170568284Y-169986377D01*
X170426449Y-169813551D01*
X170383140Y-169778008D01*
X169635000Y-169029869D01*
X169635000Y-168740131D01*
X170865001Y-169970133D01*
G37*
X170865001Y-169970133D02*
X170865000Y-172690345D01*
X170773475Y-172553368D01*
X170755000Y-172534893D01*
X170755000Y-170675743D01*
X170760490Y-170619999D01*
X170755000Y-170564255D01*
X170755000Y-170564248D01*
X170738577Y-170397501D01*
X170673676Y-170183553D01*
X170568284Y-169986377D01*
X170426449Y-169813551D01*
X170383140Y-169778008D01*
X169635000Y-169029869D01*
X169635000Y-168740131D01*
X170865001Y-169970133D01*
G36*
X177257748Y-159109987D02*
G01*
X177257767Y-159110000D01*
X177257748Y-159110013D01*
X177030013Y-159337748D01*
X176851082Y-159605537D01*
X176727832Y-159903088D01*
X176665000Y-160218967D01*
X176665000Y-160541033D01*
X176727832Y-160856912D01*
X176851082Y-161154463D01*
X177030013Y-161422252D01*
X177165000Y-161557239D01*
X177165001Y-161742760D01*
X177030013Y-161877748D01*
X176851082Y-162145537D01*
X176727832Y-162443088D01*
X176665000Y-162758967D01*
X176665000Y-163081033D01*
X176727832Y-163396912D01*
X176851082Y-163694463D01*
X177030013Y-163962252D01*
X177257748Y-164189987D01*
X177257767Y-164190000D01*
X177257748Y-164190013D01*
X177030013Y-164417748D01*
X176851082Y-164685537D01*
X176727832Y-164983088D01*
X176665000Y-165298967D01*
X176665000Y-165621033D01*
X176727832Y-165936912D01*
X176851082Y-166234463D01*
X177030013Y-166502252D01*
X177257748Y-166729987D01*
X177257767Y-166730000D01*
X177257748Y-166730013D01*
X177030013Y-166957748D01*
X176851082Y-167225537D01*
X176727832Y-167523088D01*
X176665000Y-167838967D01*
X176665000Y-168161033D01*
X176727832Y-168476912D01*
X176851082Y-168774463D01*
X177030013Y-169042252D01*
X177257748Y-169269987D01*
X177399945Y-169365000D01*
X176555751Y-169365000D01*
X176500000Y-169359509D01*
X176444248Y-169365000D01*
X176277501Y-169381423D01*
X176063553Y-169446324D01*
X175866377Y-169551716D01*
X175693551Y-169693551D01*
X175658011Y-169736857D01*
X175135000Y-170259868D01*
X175135000Y-160470131D01*
X176630132Y-158975000D01*
X177122761Y-158975000D01*
X177257748Y-159109987D01*
G37*
X177257748Y-159109987D02*
X177257767Y-159110000D01*
X177257748Y-159110013D01*
X177030013Y-159337748D01*
X176851082Y-159605537D01*
X176727832Y-159903088D01*
X176665000Y-160218967D01*
X176665000Y-160541033D01*
X176727832Y-160856912D01*
X176851082Y-161154463D01*
X177030013Y-161422252D01*
X177165000Y-161557239D01*
X177165001Y-161742760D01*
X177030013Y-161877748D01*
X176851082Y-162145537D01*
X176727832Y-162443088D01*
X176665000Y-162758967D01*
X176665000Y-163081033D01*
X176727832Y-163396912D01*
X176851082Y-163694463D01*
X177030013Y-163962252D01*
X177257748Y-164189987D01*
X177257767Y-164190000D01*
X177257748Y-164190013D01*
X177030013Y-164417748D01*
X176851082Y-164685537D01*
X176727832Y-164983088D01*
X176665000Y-165298967D01*
X176665000Y-165621033D01*
X176727832Y-165936912D01*
X176851082Y-166234463D01*
X177030013Y-166502252D01*
X177257748Y-166729987D01*
X177257767Y-166730000D01*
X177257748Y-166730013D01*
X177030013Y-166957748D01*
X176851082Y-167225537D01*
X176727832Y-167523088D01*
X176665000Y-167838967D01*
X176665000Y-168161033D01*
X176727832Y-168476912D01*
X176851082Y-168774463D01*
X177030013Y-169042252D01*
X177257748Y-169269987D01*
X177399945Y-169365000D01*
X176555751Y-169365000D01*
X176500000Y-169359509D01*
X176444248Y-169365000D01*
X176277501Y-169381423D01*
X176063553Y-169446324D01*
X175866377Y-169551716D01*
X175693551Y-169693551D01*
X175658011Y-169736857D01*
X175135000Y-170259868D01*
X175135000Y-160470131D01*
X176630132Y-158975000D01*
X177122761Y-158975000D01*
X177257748Y-159109987D01*
G36*
X172865000Y-155070132D02*
G01*
X172865001Y-156944239D01*
X172859509Y-157000000D01*
X172865000Y-157055752D01*
X172865001Y-159944239D01*
X172859509Y-160000000D01*
X172865001Y-160055761D01*
X172865000Y-168764896D01*
X172806449Y-168693551D01*
X172763141Y-168658009D01*
X171135000Y-167029869D01*
X171135000Y-153340131D01*
X172865000Y-155070132D01*
G37*
X172865000Y-155070132D02*
X172865001Y-156944239D01*
X172859509Y-157000000D01*
X172865000Y-157055752D01*
X172865001Y-159944239D01*
X172859509Y-160000000D01*
X172865001Y-160055761D01*
X172865000Y-168764896D01*
X172806449Y-168693551D01*
X172763141Y-168658009D01*
X171135000Y-167029869D01*
X171135000Y-153340131D01*
X172865000Y-155070132D01*
G36*
X139619463Y-163204494D02*
G01*
X139698815Y-163301185D01*
X139795506Y-163380537D01*
X139905820Y-163439502D01*
X139978380Y-163461513D01*
X139846525Y-163593368D01*
X139684010Y-163836589D01*
X139572068Y-164106842D01*
X139515000Y-164393740D01*
X139515000Y-164686260D01*
X139572068Y-164973158D01*
X139684010Y-165243411D01*
X139846525Y-165486632D01*
X140053368Y-165693475D01*
X140227760Y-165810000D01*
X140053368Y-165926525D01*
X139846525Y-166133368D01*
X139684010Y-166376589D01*
X139572068Y-166646842D01*
X139518961Y-166913829D01*
X139135000Y-166529869D01*
X139135000Y-163135000D01*
X139582317Y-163135000D01*
X139619463Y-163204494D01*
G37*
X139619463Y-163204494D02*
X139698815Y-163301185D01*
X139795506Y-163380537D01*
X139905820Y-163439502D01*
X139978380Y-163461513D01*
X139846525Y-163593368D01*
X139684010Y-163836589D01*
X139572068Y-164106842D01*
X139515000Y-164393740D01*
X139515000Y-164686260D01*
X139572068Y-164973158D01*
X139684010Y-165243411D01*
X139846525Y-165486632D01*
X140053368Y-165693475D01*
X140227760Y-165810000D01*
X140053368Y-165926525D01*
X139846525Y-166133368D01*
X139684010Y-166376589D01*
X139572068Y-166646842D01*
X139518961Y-166913829D01*
X139135000Y-166529869D01*
X139135000Y-163135000D01*
X139582317Y-163135000D01*
X139619463Y-163204494D01*
G36*
X149728320Y-162049727D02*
G01*
X149865000Y-162254284D01*
X149865001Y-163279867D01*
X147199869Y-165945000D01*
X141965107Y-165945000D01*
X141946632Y-165926525D01*
X141772240Y-165810000D01*
X141946632Y-165693475D01*
X141965107Y-165675000D01*
X145404249Y-165675000D01*
X145460000Y-165680491D01*
X145515751Y-165675000D01*
X145515752Y-165675000D01*
X145682499Y-165658577D01*
X145896447Y-165593676D01*
X146093623Y-165488284D01*
X146266449Y-165346449D01*
X146301996Y-165303135D01*
X149677674Y-161927457D01*
X149728320Y-162049727D01*
G37*
X149728320Y-162049727D02*
X149865000Y-162254284D01*
X149865001Y-163279867D01*
X147199869Y-165945000D01*
X141965107Y-165945000D01*
X141946632Y-165926525D01*
X141772240Y-165810000D01*
X141946632Y-165693475D01*
X141965107Y-165675000D01*
X145404249Y-165675000D01*
X145460000Y-165680491D01*
X145515751Y-165675000D01*
X145515752Y-165675000D01*
X145682499Y-165658577D01*
X145896447Y-165593676D01*
X146093623Y-165488284D01*
X146266449Y-165346449D01*
X146301996Y-165303135D01*
X149677674Y-161927457D01*
X149728320Y-162049727D01*
G36*
X193115000Y-153920131D02*
G01*
X193115000Y-164759869D01*
X193051995Y-164696864D01*
X193016449Y-164653551D01*
X192843623Y-164511716D01*
X192646447Y-164406324D01*
X192432499Y-164341423D01*
X192265752Y-164325000D01*
X192265751Y-164325000D01*
X192210000Y-164319509D01*
X192175178Y-164322939D01*
X192042252Y-164190013D01*
X192042233Y-164190000D01*
X192042252Y-164189987D01*
X192269987Y-163962252D01*
X192448918Y-163694463D01*
X192572168Y-163396912D01*
X192635000Y-163081033D01*
X192635000Y-162758967D01*
X192572168Y-162443088D01*
X192448918Y-162145537D01*
X192269987Y-161877748D01*
X192042252Y-161650013D01*
X192042233Y-161650000D01*
X192042252Y-161649987D01*
X192269987Y-161422252D01*
X192448918Y-161154463D01*
X192572168Y-160856912D01*
X192635000Y-160541033D01*
X192635000Y-160218967D01*
X192572168Y-159903088D01*
X192448918Y-159605537D01*
X192269987Y-159337748D01*
X192042252Y-159110013D01*
X192042233Y-159110000D01*
X192042252Y-159109987D01*
X192269987Y-158882252D01*
X192448918Y-158614463D01*
X192572168Y-158316912D01*
X192635000Y-158001033D01*
X192635000Y-157678967D01*
X192572168Y-157363088D01*
X192448918Y-157065537D01*
X192269987Y-156797748D01*
X192042252Y-156570013D01*
X192042233Y-156570000D01*
X192042252Y-156569987D01*
X192269987Y-156342252D01*
X192448918Y-156074463D01*
X192572168Y-155776912D01*
X192635000Y-155461033D01*
X192635000Y-155138967D01*
X192572168Y-154823088D01*
X192448918Y-154525537D01*
X192269987Y-154257748D01*
X192042252Y-154030013D01*
X192042233Y-154030000D01*
X192042252Y-154029987D01*
X192177239Y-153895000D01*
X193089869Y-153895000D01*
X193115000Y-153920131D01*
G37*
X193115000Y-153920131D02*
X193115000Y-164759869D01*
X193051995Y-164696864D01*
X193016449Y-164653551D01*
X192843623Y-164511716D01*
X192646447Y-164406324D01*
X192432499Y-164341423D01*
X192265752Y-164325000D01*
X192265751Y-164325000D01*
X192210000Y-164319509D01*
X192175178Y-164322939D01*
X192042252Y-164190013D01*
X192042233Y-164190000D01*
X192042252Y-164189987D01*
X192269987Y-163962252D01*
X192448918Y-163694463D01*
X192572168Y-163396912D01*
X192635000Y-163081033D01*
X192635000Y-162758967D01*
X192572168Y-162443088D01*
X192448918Y-162145537D01*
X192269987Y-161877748D01*
X192042252Y-161650013D01*
X192042233Y-161650000D01*
X192042252Y-161649987D01*
X192269987Y-161422252D01*
X192448918Y-161154463D01*
X192572168Y-160856912D01*
X192635000Y-160541033D01*
X192635000Y-160218967D01*
X192572168Y-159903088D01*
X192448918Y-159605537D01*
X192269987Y-159337748D01*
X192042252Y-159110013D01*
X192042233Y-159110000D01*
X192042252Y-159109987D01*
X192269987Y-158882252D01*
X192448918Y-158614463D01*
X192572168Y-158316912D01*
X192635000Y-158001033D01*
X192635000Y-157678967D01*
X192572168Y-157363088D01*
X192448918Y-157065537D01*
X192269987Y-156797748D01*
X192042252Y-156570013D01*
X192042233Y-156570000D01*
X192042252Y-156569987D01*
X192269987Y-156342252D01*
X192448918Y-156074463D01*
X192572168Y-155776912D01*
X192635000Y-155461033D01*
X192635000Y-155138967D01*
X192572168Y-154823088D01*
X192448918Y-154525537D01*
X192269987Y-154257748D01*
X192042252Y-154030013D01*
X192042233Y-154030000D01*
X192042252Y-154029987D01*
X192177239Y-153895000D01*
X193089869Y-153895000D01*
X193115000Y-153920131D01*
G36*
X139237501Y-156578577D02*
G01*
X139460000Y-156600491D01*
X139515752Y-156595000D01*
X139841272Y-156595000D01*
X139795506Y-156619463D01*
X139698815Y-156698815D01*
X139619463Y-156795506D01*
X139560498Y-156905820D01*
X139524188Y-157025518D01*
X139511928Y-157150000D01*
X139511928Y-158850000D01*
X139524188Y-158974482D01*
X139560498Y-159094180D01*
X139619463Y-159204494D01*
X139698815Y-159301185D01*
X139795506Y-159380537D01*
X139905820Y-159439502D01*
X140025518Y-159475812D01*
X140150000Y-159488072D01*
X141850000Y-159488072D01*
X141974482Y-159475812D01*
X142094180Y-159439502D01*
X142204494Y-159380537D01*
X142301185Y-159301185D01*
X142380537Y-159204494D01*
X142417683Y-159135000D01*
X149259868Y-159135000D01*
X144989869Y-163405000D01*
X142158728Y-163405000D01*
X142204494Y-163380537D01*
X142301185Y-163301185D01*
X142380537Y-163204494D01*
X142439502Y-163094180D01*
X142475812Y-162974482D01*
X142488072Y-162850000D01*
X142488072Y-161150000D01*
X142475812Y-161025518D01*
X142439502Y-160905820D01*
X142380537Y-160795506D01*
X142301185Y-160698815D01*
X142204494Y-160619463D01*
X142094180Y-160560498D01*
X141974482Y-160524188D01*
X141850000Y-160511928D01*
X140150000Y-160511928D01*
X140025518Y-160524188D01*
X139905820Y-160560498D01*
X139795506Y-160619463D01*
X139698815Y-160698815D01*
X139619463Y-160795506D01*
X139582317Y-160865000D01*
X139470132Y-160865000D01*
X139135000Y-160529868D01*
X139135000Y-156547483D01*
X139237501Y-156578577D01*
G37*
X139237501Y-156578577D02*
X139460000Y-156600491D01*
X139515752Y-156595000D01*
X139841272Y-156595000D01*
X139795506Y-156619463D01*
X139698815Y-156698815D01*
X139619463Y-156795506D01*
X139560498Y-156905820D01*
X139524188Y-157025518D01*
X139511928Y-157150000D01*
X139511928Y-158850000D01*
X139524188Y-158974482D01*
X139560498Y-159094180D01*
X139619463Y-159204494D01*
X139698815Y-159301185D01*
X139795506Y-159380537D01*
X139905820Y-159439502D01*
X140025518Y-159475812D01*
X140150000Y-159488072D01*
X141850000Y-159488072D01*
X141974482Y-159475812D01*
X142094180Y-159439502D01*
X142204494Y-159380537D01*
X142301185Y-159301185D01*
X142380537Y-159204494D01*
X142417683Y-159135000D01*
X149259868Y-159135000D01*
X144989869Y-163405000D01*
X142158728Y-163405000D01*
X142204494Y-163380537D01*
X142301185Y-163301185D01*
X142380537Y-163204494D01*
X142439502Y-163094180D01*
X142475812Y-162974482D01*
X142488072Y-162850000D01*
X142488072Y-161150000D01*
X142475812Y-161025518D01*
X142439502Y-160905820D01*
X142380537Y-160795506D01*
X142301185Y-160698815D01*
X142204494Y-160619463D01*
X142094180Y-160560498D01*
X141974482Y-160524188D01*
X141850000Y-160511928D01*
X140150000Y-160511928D01*
X140025518Y-160524188D01*
X139905820Y-160560498D01*
X139795506Y-160619463D01*
X139698815Y-160698815D01*
X139619463Y-160795506D01*
X139582317Y-160865000D01*
X139470132Y-160865000D01*
X139135000Y-160529868D01*
X139135000Y-156547483D01*
X139237501Y-156578577D01*
G36*
X189957748Y-161649987D02*
G01*
X189957767Y-161650000D01*
X189957748Y-161650013D01*
X189822761Y-161785000D01*
X189820132Y-161785000D01*
X189956446Y-161648685D01*
X189957748Y-161649987D01*
G37*
X189957748Y-161649987D02*
X189957767Y-161650000D01*
X189957748Y-161650013D01*
X189822761Y-161785000D01*
X189820132Y-161785000D01*
X189956446Y-161648685D01*
X189957748Y-161649987D01*
G36*
X189957748Y-154029987D02*
G01*
X189957767Y-154030000D01*
X189957748Y-154030013D01*
X189822761Y-154165000D01*
X189255751Y-154165000D01*
X189199999Y-154159509D01*
X189144248Y-154165000D01*
X188977501Y-154181423D01*
X188763553Y-154246324D01*
X188566377Y-154351716D01*
X188393551Y-154493551D01*
X188358009Y-154536859D01*
X185185000Y-157709869D01*
X185185000Y-155920131D01*
X187210132Y-153895000D01*
X189822761Y-153895000D01*
X189957748Y-154029987D01*
G37*
X189957748Y-154029987D02*
X189957767Y-154030000D01*
X189957748Y-154030013D01*
X189822761Y-154165000D01*
X189255751Y-154165000D01*
X189199999Y-154159509D01*
X189144248Y-154165000D01*
X188977501Y-154181423D01*
X188763553Y-154246324D01*
X188566377Y-154351716D01*
X188393551Y-154493551D01*
X188358009Y-154536859D01*
X185185000Y-157709869D01*
X185185000Y-155920131D01*
X187210132Y-153895000D01*
X189822761Y-153895000D01*
X189957748Y-154029987D01*
G36*
X151330013Y-137282252D02*
G01*
X151465001Y-137417240D01*
X151465000Y-147794248D01*
X151459509Y-147850000D01*
X151465000Y-147905751D01*
X151481423Y-148072498D01*
X151546324Y-148286446D01*
X151651716Y-148483623D01*
X151793551Y-148656449D01*
X151836865Y-148691996D01*
X153365001Y-150220133D01*
X153365000Y-152865716D01*
X153228320Y-153070273D01*
X153120147Y-153331426D01*
X153065000Y-153608665D01*
X153065000Y-153891335D01*
X153120147Y-154168574D01*
X153151237Y-154243631D01*
X150529869Y-156865000D01*
X142417683Y-156865000D01*
X142380537Y-156795506D01*
X142301185Y-156698815D01*
X142204494Y-156619463D01*
X142094180Y-156560498D01*
X142021620Y-156538487D01*
X142153475Y-156406632D01*
X142315990Y-156163411D01*
X142427932Y-155893158D01*
X142485000Y-155606260D01*
X142485000Y-155313740D01*
X142427932Y-155026842D01*
X142315990Y-154756589D01*
X142153475Y-154513368D01*
X141946632Y-154306525D01*
X141772240Y-154190000D01*
X141946632Y-154073475D01*
X141965107Y-154055000D01*
X145024249Y-154055000D01*
X145080000Y-154060491D01*
X145135751Y-154055000D01*
X145135752Y-154055000D01*
X145302499Y-154038577D01*
X145516447Y-153973676D01*
X145713623Y-153868284D01*
X145886449Y-153726449D01*
X145921996Y-153683135D01*
X148865000Y-150740132D01*
X148865000Y-152944248D01*
X148859509Y-153000000D01*
X148865000Y-153055751D01*
X148881423Y-153222498D01*
X148946324Y-153436446D01*
X149051716Y-153633623D01*
X149193551Y-153806449D01*
X149236865Y-153841996D01*
X149660243Y-154265374D01*
X149728320Y-154429727D01*
X149885363Y-154664759D01*
X150085241Y-154864637D01*
X150320273Y-155021680D01*
X150581426Y-155129853D01*
X150858665Y-155185000D01*
X151141335Y-155185000D01*
X151418574Y-155129853D01*
X151679727Y-155021680D01*
X151914759Y-154864637D01*
X152114637Y-154664759D01*
X152271680Y-154429727D01*
X152379853Y-154168574D01*
X152435000Y-153891335D01*
X152435000Y-153608665D01*
X152379853Y-153331426D01*
X152271680Y-153070273D01*
X152114637Y-152835241D01*
X151914759Y-152635363D01*
X151679727Y-152478320D01*
X151418574Y-152370147D01*
X151141335Y-152315000D01*
X151135000Y-152315000D01*
X151135000Y-148306152D01*
X151178577Y-148162499D01*
X151195000Y-147995752D01*
X151195000Y-147995751D01*
X151200491Y-147940000D01*
X151195000Y-147884248D01*
X151195000Y-137417239D01*
X151329987Y-137282252D01*
X151330000Y-137282233D01*
X151330013Y-137282252D01*
G37*
X151330013Y-137282252D02*
X151465001Y-137417240D01*
X151465000Y-147794248D01*
X151459509Y-147850000D01*
X151465000Y-147905751D01*
X151481423Y-148072498D01*
X151546324Y-148286446D01*
X151651716Y-148483623D01*
X151793551Y-148656449D01*
X151836865Y-148691996D01*
X153365001Y-150220133D01*
X153365000Y-152865716D01*
X153228320Y-153070273D01*
X153120147Y-153331426D01*
X153065000Y-153608665D01*
X153065000Y-153891335D01*
X153120147Y-154168574D01*
X153151237Y-154243631D01*
X150529869Y-156865000D01*
X142417683Y-156865000D01*
X142380537Y-156795506D01*
X142301185Y-156698815D01*
X142204494Y-156619463D01*
X142094180Y-156560498D01*
X142021620Y-156538487D01*
X142153475Y-156406632D01*
X142315990Y-156163411D01*
X142427932Y-155893158D01*
X142485000Y-155606260D01*
X142485000Y-155313740D01*
X142427932Y-155026842D01*
X142315990Y-154756589D01*
X142153475Y-154513368D01*
X141946632Y-154306525D01*
X141772240Y-154190000D01*
X141946632Y-154073475D01*
X141965107Y-154055000D01*
X145024249Y-154055000D01*
X145080000Y-154060491D01*
X145135751Y-154055000D01*
X145135752Y-154055000D01*
X145302499Y-154038577D01*
X145516447Y-153973676D01*
X145713623Y-153868284D01*
X145886449Y-153726449D01*
X145921996Y-153683135D01*
X148865000Y-150740132D01*
X148865000Y-152944248D01*
X148859509Y-153000000D01*
X148865000Y-153055751D01*
X148881423Y-153222498D01*
X148946324Y-153436446D01*
X149051716Y-153633623D01*
X149193551Y-153806449D01*
X149236865Y-153841996D01*
X149660243Y-154265374D01*
X149728320Y-154429727D01*
X149885363Y-154664759D01*
X150085241Y-154864637D01*
X150320273Y-155021680D01*
X150581426Y-155129853D01*
X150858665Y-155185000D01*
X151141335Y-155185000D01*
X151418574Y-155129853D01*
X151679727Y-155021680D01*
X151914759Y-154864637D01*
X152114637Y-154664759D01*
X152271680Y-154429727D01*
X152379853Y-154168574D01*
X152435000Y-153891335D01*
X152435000Y-153608665D01*
X152379853Y-153331426D01*
X152271680Y-153070273D01*
X152114637Y-152835241D01*
X151914759Y-152635363D01*
X151679727Y-152478320D01*
X151418574Y-152370147D01*
X151141335Y-152315000D01*
X151135000Y-152315000D01*
X151135000Y-148306152D01*
X151178577Y-148162499D01*
X151195000Y-147995752D01*
X151195000Y-147995751D01*
X151200491Y-147940000D01*
X151195000Y-147884248D01*
X151195000Y-137417239D01*
X151329987Y-137282252D01*
X151330000Y-137282233D01*
X151330013Y-137282252D01*
G36*
X189957748Y-156569987D02*
G01*
X189957767Y-156570000D01*
X189957748Y-156570013D01*
X189822761Y-156705000D01*
X189715752Y-156705000D01*
X189660000Y-156699509D01*
X189604248Y-156705000D01*
X189437501Y-156721423D01*
X189360286Y-156744846D01*
X189670132Y-156435000D01*
X189822761Y-156435000D01*
X189957748Y-156569987D01*
G37*
X189957748Y-156569987D02*
X189957767Y-156570000D01*
X189957748Y-156570013D01*
X189822761Y-156705000D01*
X189715752Y-156705000D01*
X189660000Y-156699509D01*
X189604248Y-156705000D01*
X189437501Y-156721423D01*
X189360286Y-156744846D01*
X189670132Y-156435000D01*
X189822761Y-156435000D01*
X189957748Y-156569987D01*
G36*
X177257748Y-156569987D02*
G01*
X177257767Y-156570000D01*
X177257748Y-156570013D01*
X177122761Y-156705000D01*
X176215741Y-156705000D01*
X176159999Y-156699510D01*
X176104257Y-156705000D01*
X176104248Y-156705000D01*
X176099682Y-156705450D01*
X176370132Y-156435000D01*
X177122761Y-156435000D01*
X177257748Y-156569987D01*
G37*
X177257748Y-156569987D02*
X177257767Y-156570000D01*
X177257748Y-156570013D01*
X177122761Y-156705000D01*
X176215741Y-156705000D01*
X176159999Y-156699510D01*
X176104257Y-156705000D01*
X176104248Y-156705000D01*
X176099682Y-156705450D01*
X176370132Y-156435000D01*
X177122761Y-156435000D01*
X177257748Y-156569987D01*
G36*
X140053368Y-151533475D02*
G01*
X140227760Y-151650000D01*
X140053368Y-151766525D01*
X139846525Y-151973368D01*
X139684010Y-152216589D01*
X139572068Y-152486842D01*
X139515000Y-152773740D01*
X139515000Y-153066260D01*
X139572068Y-153353158D01*
X139684010Y-153623411D01*
X139846525Y-153866632D01*
X140053368Y-154073475D01*
X140227760Y-154190000D01*
X140053368Y-154306525D01*
X140034893Y-154325000D01*
X139930132Y-154325000D01*
X139135000Y-153529869D01*
X139135000Y-151515000D01*
X140034893Y-151515000D01*
X140053368Y-151533475D01*
G37*
X140053368Y-151533475D02*
X140227760Y-151650000D01*
X140053368Y-151766525D01*
X139846525Y-151973368D01*
X139684010Y-152216589D01*
X139572068Y-152486842D01*
X139515000Y-152773740D01*
X139515000Y-153066260D01*
X139572068Y-153353158D01*
X139684010Y-153623411D01*
X139846525Y-153866632D01*
X140053368Y-154073475D01*
X140227760Y-154190000D01*
X140053368Y-154306525D01*
X140034893Y-154325000D01*
X139930132Y-154325000D01*
X139135000Y-153529869D01*
X139135000Y-151515000D01*
X140034893Y-151515000D01*
X140053368Y-151533475D01*
G36*
X177257748Y-154029987D02*
G01*
X177257767Y-154030000D01*
X177257748Y-154030013D01*
X177122761Y-154165000D01*
X175955751Y-154165000D01*
X175941533Y-154163600D01*
X176210133Y-153895000D01*
X177122761Y-153895000D01*
X177257748Y-154029987D01*
G37*
X177257748Y-154029987D02*
X177257767Y-154030000D01*
X177257748Y-154030013D01*
X177122761Y-154165000D01*
X175955751Y-154165000D01*
X175941533Y-154163600D01*
X176210133Y-153895000D01*
X177122761Y-153895000D01*
X177257748Y-154029987D01*
G36*
X199061928Y-146332940D02*
G01*
X196309869Y-149085000D01*
X192177239Y-149085000D01*
X192042252Y-148950013D01*
X191774463Y-148771082D01*
X191476912Y-148647832D01*
X191161033Y-148585000D01*
X190838967Y-148585000D01*
X190523088Y-148647832D01*
X190225537Y-148771082D01*
X189957748Y-148950013D01*
X189730013Y-149177748D01*
X189551082Y-149445537D01*
X189427832Y-149743088D01*
X189365000Y-150058967D01*
X189365000Y-150381033D01*
X189427832Y-150696912D01*
X189551082Y-150994463D01*
X189730013Y-151262252D01*
X189957748Y-151489987D01*
X189957767Y-151490000D01*
X189957748Y-151490013D01*
X189822761Y-151625000D01*
X186795741Y-151625000D01*
X186739999Y-151619510D01*
X186684257Y-151625000D01*
X186684248Y-151625000D01*
X186517501Y-151641423D01*
X186303553Y-151706324D01*
X186106377Y-151811716D01*
X185933551Y-151953551D01*
X185898009Y-151996859D01*
X183934990Y-153959879D01*
X183934990Y-153670141D01*
X191470132Y-146135000D01*
X199061928Y-146135000D01*
X199061928Y-146332940D01*
G37*
X199061928Y-146332940D02*
X196309869Y-149085000D01*
X192177239Y-149085000D01*
X192042252Y-148950013D01*
X191774463Y-148771082D01*
X191476912Y-148647832D01*
X191161033Y-148585000D01*
X190838967Y-148585000D01*
X190523088Y-148647832D01*
X190225537Y-148771082D01*
X189957748Y-148950013D01*
X189730013Y-149177748D01*
X189551082Y-149445537D01*
X189427832Y-149743088D01*
X189365000Y-150058967D01*
X189365000Y-150381033D01*
X189427832Y-150696912D01*
X189551082Y-150994463D01*
X189730013Y-151262252D01*
X189957748Y-151489987D01*
X189957767Y-151490000D01*
X189957748Y-151490013D01*
X189822761Y-151625000D01*
X186795741Y-151625000D01*
X186739999Y-151619510D01*
X186684257Y-151625000D01*
X186684248Y-151625000D01*
X186517501Y-151641423D01*
X186303553Y-151706324D01*
X186106377Y-151811716D01*
X185933551Y-151953551D01*
X185898009Y-151996859D01*
X183934990Y-153959879D01*
X183934990Y-153670141D01*
X191470132Y-146135000D01*
X199061928Y-146135000D01*
X199061928Y-146332940D01*
G36*
X199365001Y-150690640D02*
G01*
X199139017Y-150841637D01*
X198841637Y-151139017D01*
X198607988Y-151488698D01*
X198447047Y-151877244D01*
X198365000Y-152289721D01*
X198365000Y-152710279D01*
X198426974Y-153021843D01*
X197401996Y-151996865D01*
X197366449Y-151953551D01*
X197193623Y-151811716D01*
X196996447Y-151706324D01*
X196782499Y-151641423D01*
X196615752Y-151625000D01*
X196615751Y-151625000D01*
X196560000Y-151619509D01*
X196504249Y-151625000D01*
X193615751Y-151625000D01*
X193560000Y-151619509D01*
X193504249Y-151625000D01*
X192177239Y-151625000D01*
X192042252Y-151490013D01*
X192042233Y-151490000D01*
X192042252Y-151489987D01*
X192177239Y-151355000D01*
X196724249Y-151355000D01*
X196780000Y-151360491D01*
X196835751Y-151355000D01*
X196835752Y-151355000D01*
X197002499Y-151338577D01*
X197216447Y-151273676D01*
X197413623Y-151168284D01*
X197586449Y-151026449D01*
X197621996Y-150983135D01*
X199365000Y-149240131D01*
X199365001Y-150690640D01*
G37*
X199365001Y-150690640D02*
X199139017Y-150841637D01*
X198841637Y-151139017D01*
X198607988Y-151488698D01*
X198447047Y-151877244D01*
X198365000Y-152289721D01*
X198365000Y-152710279D01*
X198426974Y-153021843D01*
X197401996Y-151996865D01*
X197366449Y-151953551D01*
X197193623Y-151811716D01*
X196996447Y-151706324D01*
X196782499Y-151641423D01*
X196615752Y-151625000D01*
X196615751Y-151625000D01*
X196560000Y-151619509D01*
X196504249Y-151625000D01*
X193615751Y-151625000D01*
X193560000Y-151619509D01*
X193504249Y-151625000D01*
X192177239Y-151625000D01*
X192042252Y-151490013D01*
X192042233Y-151490000D01*
X192042252Y-151489987D01*
X192177239Y-151355000D01*
X196724249Y-151355000D01*
X196780000Y-151360491D01*
X196835751Y-151355000D01*
X196835752Y-151355000D01*
X197002499Y-151338577D01*
X197216447Y-151273676D01*
X197413623Y-151168284D01*
X197586449Y-151026449D01*
X197621996Y-150983135D01*
X199365000Y-149240131D01*
X199365001Y-150690640D01*
G36*
X181365001Y-137470133D02*
G01*
X181365000Y-147029868D01*
X179393554Y-149001315D01*
X179342252Y-148950013D01*
X179074463Y-148771082D01*
X178776912Y-148647832D01*
X178461033Y-148585000D01*
X178138967Y-148585000D01*
X177823088Y-148647832D01*
X177525537Y-148771082D01*
X177257748Y-148950013D01*
X177030013Y-149177748D01*
X176851082Y-149445537D01*
X176727832Y-149743088D01*
X176665000Y-150058967D01*
X176665000Y-150381033D01*
X176727832Y-150696912D01*
X176851082Y-150994463D01*
X177030013Y-151262252D01*
X177257748Y-151489987D01*
X177257767Y-151490000D01*
X177257748Y-151490013D01*
X177122761Y-151625000D01*
X175795752Y-151625000D01*
X175740000Y-151619509D01*
X175517501Y-151641423D01*
X175303553Y-151706324D01*
X175106377Y-151811716D01*
X174976856Y-151918011D01*
X174976855Y-151918012D01*
X174933551Y-151953551D01*
X174898013Y-151996854D01*
X173950000Y-152944868D01*
X171515000Y-150509869D01*
X171515000Y-137417239D01*
X171649987Y-137282252D01*
X171650000Y-137282233D01*
X171650013Y-137282252D01*
X171877748Y-137509987D01*
X172145537Y-137688918D01*
X172443088Y-137812168D01*
X172758967Y-137875000D01*
X173081033Y-137875000D01*
X173396912Y-137812168D01*
X173694463Y-137688918D01*
X173962252Y-137509987D01*
X174189987Y-137282252D01*
X174190000Y-137282233D01*
X174190013Y-137282252D01*
X174417748Y-137509987D01*
X174685537Y-137688918D01*
X174983088Y-137812168D01*
X175298967Y-137875000D01*
X175621033Y-137875000D01*
X175936912Y-137812168D01*
X176234463Y-137688918D01*
X176502252Y-137509987D01*
X176729987Y-137282252D01*
X176730000Y-137282233D01*
X176730013Y-137282252D01*
X176957748Y-137509987D01*
X177225537Y-137688918D01*
X177523088Y-137812168D01*
X177838967Y-137875000D01*
X178161033Y-137875000D01*
X178476912Y-137812168D01*
X178774463Y-137688918D01*
X179042252Y-137509987D01*
X179269987Y-137282252D01*
X179448918Y-137014463D01*
X179572168Y-136716912D01*
X179635000Y-136401033D01*
X179635000Y-136078967D01*
X179572168Y-135763088D01*
X179511506Y-135616638D01*
X181365001Y-137470133D01*
G37*
X181365001Y-137470133D02*
X181365000Y-147029868D01*
X179393554Y-149001315D01*
X179342252Y-148950013D01*
X179074463Y-148771082D01*
X178776912Y-148647832D01*
X178461033Y-148585000D01*
X178138967Y-148585000D01*
X177823088Y-148647832D01*
X177525537Y-148771082D01*
X177257748Y-148950013D01*
X177030013Y-149177748D01*
X176851082Y-149445537D01*
X176727832Y-149743088D01*
X176665000Y-150058967D01*
X176665000Y-150381033D01*
X176727832Y-150696912D01*
X176851082Y-150994463D01*
X177030013Y-151262252D01*
X177257748Y-151489987D01*
X177257767Y-151490000D01*
X177257748Y-151490013D01*
X177122761Y-151625000D01*
X175795752Y-151625000D01*
X175740000Y-151619509D01*
X175517501Y-151641423D01*
X175303553Y-151706324D01*
X175106377Y-151811716D01*
X174976856Y-151918011D01*
X174976855Y-151918012D01*
X174933551Y-151953551D01*
X174898013Y-151996854D01*
X173950000Y-152944868D01*
X171515000Y-150509869D01*
X171515000Y-137417239D01*
X171649987Y-137282252D01*
X171650000Y-137282233D01*
X171650013Y-137282252D01*
X171877748Y-137509987D01*
X172145537Y-137688918D01*
X172443088Y-137812168D01*
X172758967Y-137875000D01*
X173081033Y-137875000D01*
X173396912Y-137812168D01*
X173694463Y-137688918D01*
X173962252Y-137509987D01*
X174189987Y-137282252D01*
X174190000Y-137282233D01*
X174190013Y-137282252D01*
X174417748Y-137509987D01*
X174685537Y-137688918D01*
X174983088Y-137812168D01*
X175298967Y-137875000D01*
X175621033Y-137875000D01*
X175936912Y-137812168D01*
X176234463Y-137688918D01*
X176502252Y-137509987D01*
X176729987Y-137282252D01*
X176730000Y-137282233D01*
X176730013Y-137282252D01*
X176957748Y-137509987D01*
X177225537Y-137688918D01*
X177523088Y-137812168D01*
X177838967Y-137875000D01*
X178161033Y-137875000D01*
X178476912Y-137812168D01*
X178774463Y-137688918D01*
X179042252Y-137509987D01*
X179269987Y-137282252D01*
X179448918Y-137014463D01*
X179572168Y-136716912D01*
X179635000Y-136401033D01*
X179635000Y-136078967D01*
X179572168Y-135763088D01*
X179511506Y-135616638D01*
X181365001Y-137470133D01*
G36*
X148790013Y-137282252D02*
G01*
X148925000Y-137417239D01*
X148925001Y-147469866D01*
X144609869Y-151785000D01*
X141965107Y-151785000D01*
X141946632Y-151766525D01*
X141772240Y-151650000D01*
X141946632Y-151533475D01*
X142153475Y-151326632D01*
X142315990Y-151083411D01*
X142427932Y-150813158D01*
X142485000Y-150526260D01*
X142485000Y-150233740D01*
X142427932Y-149946842D01*
X142315990Y-149676589D01*
X142153475Y-149433368D01*
X141946632Y-149226525D01*
X141809655Y-149135000D01*
X142944249Y-149135000D01*
X143000000Y-149140491D01*
X143055751Y-149135000D01*
X143055752Y-149135000D01*
X143222499Y-149118577D01*
X143436447Y-149053676D01*
X143633623Y-148948284D01*
X143806449Y-148806449D01*
X143841996Y-148763135D01*
X145313140Y-147291991D01*
X145356449Y-147256449D01*
X145498284Y-147083623D01*
X145603676Y-146886447D01*
X145668577Y-146672499D01*
X145685000Y-146505752D01*
X145690491Y-146450001D01*
X145685000Y-146394249D01*
X145685000Y-139855751D01*
X145690491Y-139799999D01*
X145668577Y-139577501D01*
X145603676Y-139363553D01*
X145498284Y-139166377D01*
X145356449Y-138993551D01*
X145313140Y-138958009D01*
X143691996Y-137336865D01*
X143675488Y-137316751D01*
X143709987Y-137282252D01*
X143710000Y-137282233D01*
X143710013Y-137282252D01*
X143937748Y-137509987D01*
X144205537Y-137688918D01*
X144503088Y-137812168D01*
X144818967Y-137875000D01*
X145141033Y-137875000D01*
X145456912Y-137812168D01*
X145754463Y-137688918D01*
X146022252Y-137509987D01*
X146249987Y-137282252D01*
X146250000Y-137282233D01*
X146250013Y-137282252D01*
X146477748Y-137509987D01*
X146745537Y-137688918D01*
X147043088Y-137812168D01*
X147358967Y-137875000D01*
X147681033Y-137875000D01*
X147996912Y-137812168D01*
X148294463Y-137688918D01*
X148562252Y-137509987D01*
X148789987Y-137282252D01*
X148790000Y-137282233D01*
X148790013Y-137282252D01*
G37*
X148790013Y-137282252D02*
X148925000Y-137417239D01*
X148925001Y-147469866D01*
X144609869Y-151785000D01*
X141965107Y-151785000D01*
X141946632Y-151766525D01*
X141772240Y-151650000D01*
X141946632Y-151533475D01*
X142153475Y-151326632D01*
X142315990Y-151083411D01*
X142427932Y-150813158D01*
X142485000Y-150526260D01*
X142485000Y-150233740D01*
X142427932Y-149946842D01*
X142315990Y-149676589D01*
X142153475Y-149433368D01*
X141946632Y-149226525D01*
X141809655Y-149135000D01*
X142944249Y-149135000D01*
X143000000Y-149140491D01*
X143055751Y-149135000D01*
X143055752Y-149135000D01*
X143222499Y-149118577D01*
X143436447Y-149053676D01*
X143633623Y-148948284D01*
X143806449Y-148806449D01*
X143841996Y-148763135D01*
X145313140Y-147291991D01*
X145356449Y-147256449D01*
X145498284Y-147083623D01*
X145603676Y-146886447D01*
X145668577Y-146672499D01*
X145685000Y-146505752D01*
X145690491Y-146450001D01*
X145685000Y-146394249D01*
X145685000Y-139855751D01*
X145690491Y-139799999D01*
X145668577Y-139577501D01*
X145603676Y-139363553D01*
X145498284Y-139166377D01*
X145356449Y-138993551D01*
X145313140Y-138958009D01*
X143691996Y-137336865D01*
X143675488Y-137316751D01*
X143709987Y-137282252D01*
X143710000Y-137282233D01*
X143710013Y-137282252D01*
X143937748Y-137509987D01*
X144205537Y-137688918D01*
X144503088Y-137812168D01*
X144818967Y-137875000D01*
X145141033Y-137875000D01*
X145456912Y-137812168D01*
X145754463Y-137688918D01*
X146022252Y-137509987D01*
X146249987Y-137282252D01*
X146250000Y-137282233D01*
X146250013Y-137282252D01*
X146477748Y-137509987D01*
X146745537Y-137688918D01*
X147043088Y-137812168D01*
X147358967Y-137875000D01*
X147681033Y-137875000D01*
X147996912Y-137812168D01*
X148294463Y-137688918D01*
X148562252Y-137509987D01*
X148789987Y-137282252D01*
X148790000Y-137282233D01*
X148790013Y-137282252D01*
G36*
X202436865Y-147758004D02*
G01*
X202393551Y-147793551D01*
X202251716Y-147966377D01*
X202162322Y-148133623D01*
X202146324Y-148163554D01*
X202081423Y-148377502D01*
X202059509Y-148600000D01*
X202065000Y-148655752D01*
X202065000Y-151045654D01*
X201860983Y-150841637D01*
X201635000Y-150690640D01*
X201635000Y-147840957D01*
X201654494Y-147830537D01*
X201751185Y-147751185D01*
X201830537Y-147654494D01*
X201840957Y-147635000D01*
X202559869Y-147635000D01*
X202436865Y-147758004D01*
G37*
X202436865Y-147758004D02*
X202393551Y-147793551D01*
X202251716Y-147966377D01*
X202162322Y-148133623D01*
X202146324Y-148163554D01*
X202081423Y-148377502D01*
X202059509Y-148600000D01*
X202065000Y-148655752D01*
X202065000Y-151045654D01*
X201860983Y-150841637D01*
X201635000Y-150690640D01*
X201635000Y-147840957D01*
X201654494Y-147830537D01*
X201751185Y-147751185D01*
X201830537Y-147654494D01*
X201840957Y-147635000D01*
X202559869Y-147635000D01*
X202436865Y-147758004D01*
G36*
X169110013Y-137282252D02*
G01*
X169245000Y-137417239D01*
X169245001Y-150639869D01*
X163895000Y-145289869D01*
X163895000Y-137417239D01*
X164029987Y-137282252D01*
X164030000Y-137282233D01*
X164030013Y-137282252D01*
X164257748Y-137509987D01*
X164525537Y-137688918D01*
X164823088Y-137812168D01*
X165138967Y-137875000D01*
X165461033Y-137875000D01*
X165776912Y-137812168D01*
X166074463Y-137688918D01*
X166342252Y-137509987D01*
X166569987Y-137282252D01*
X166570000Y-137282233D01*
X166570013Y-137282252D01*
X166797748Y-137509987D01*
X167065537Y-137688918D01*
X167363088Y-137812168D01*
X167678967Y-137875000D01*
X168001033Y-137875000D01*
X168316912Y-137812168D01*
X168614463Y-137688918D01*
X168882252Y-137509987D01*
X169109987Y-137282252D01*
X169110000Y-137282233D01*
X169110013Y-137282252D01*
G37*
X169110013Y-137282252D02*
X169245000Y-137417239D01*
X169245001Y-150639869D01*
X163895000Y-145289869D01*
X163895000Y-137417239D01*
X164029987Y-137282252D01*
X164030000Y-137282233D01*
X164030013Y-137282252D01*
X164257748Y-137509987D01*
X164525537Y-137688918D01*
X164823088Y-137812168D01*
X165138967Y-137875000D01*
X165461033Y-137875000D01*
X165776912Y-137812168D01*
X166074463Y-137688918D01*
X166342252Y-137509987D01*
X166569987Y-137282252D01*
X166570000Y-137282233D01*
X166570013Y-137282252D01*
X166797748Y-137509987D01*
X167065537Y-137688918D01*
X167363088Y-137812168D01*
X167678967Y-137875000D01*
X168001033Y-137875000D01*
X168316912Y-137812168D01*
X168614463Y-137688918D01*
X168882252Y-137509987D01*
X169109987Y-137282252D01*
X169110000Y-137282233D01*
X169110013Y-137282252D01*
G36*
X140053368Y-149226525D02*
G01*
X140034893Y-149245000D01*
X138850131Y-149245000D01*
X138841996Y-149236865D01*
X138806449Y-149193551D01*
X138763140Y-149158008D01*
X138740132Y-149135000D01*
X140190345Y-149135000D01*
X140053368Y-149226525D01*
G37*
X140053368Y-149226525D02*
X140034893Y-149245000D01*
X138850131Y-149245000D01*
X138841996Y-149236865D01*
X138806449Y-149193551D01*
X138763140Y-149158008D01*
X138740132Y-149135000D01*
X140190345Y-149135000D01*
X140053368Y-149226525D01*
G36*
X156410013Y-137282252D02*
G01*
X156545001Y-137417240D01*
X156545000Y-144624248D01*
X156539509Y-144680000D01*
X156545000Y-144735751D01*
X156561423Y-144902498D01*
X156626324Y-145116446D01*
X156731716Y-145313623D01*
X156873551Y-145486449D01*
X156916865Y-145521996D01*
X157065001Y-145670132D01*
X157065001Y-147850885D01*
X157053676Y-147813553D01*
X156948284Y-147616377D01*
X156841989Y-147486856D01*
X156841987Y-147486854D01*
X156806449Y-147443551D01*
X156763145Y-147408013D01*
X156275000Y-146919868D01*
X156275000Y-137417239D01*
X156409987Y-137282252D01*
X156410000Y-137282233D01*
X156410013Y-137282252D01*
G37*
X156410013Y-137282252D02*
X156545001Y-137417240D01*
X156545000Y-144624248D01*
X156539509Y-144680000D01*
X156545000Y-144735751D01*
X156561423Y-144902498D01*
X156626324Y-145116446D01*
X156731716Y-145313623D01*
X156873551Y-145486449D01*
X156916865Y-145521996D01*
X157065001Y-145670132D01*
X157065001Y-147850885D01*
X157053676Y-147813553D01*
X156948284Y-147616377D01*
X156841989Y-147486856D01*
X156841987Y-147486854D01*
X156806449Y-147443551D01*
X156763145Y-147408013D01*
X156275000Y-146919868D01*
X156275000Y-137417239D01*
X156409987Y-137282252D01*
X156410000Y-137282233D01*
X156410013Y-137282252D01*
G36*
X193758009Y-143863141D02*
G01*
X193759535Y-143865000D01*
X191055741Y-143865000D01*
X190999999Y-143859510D01*
X190944257Y-143865000D01*
X190944248Y-143865000D01*
X190777501Y-143881423D01*
X190563553Y-143946324D01*
X190366377Y-144051716D01*
X190193551Y-144193551D01*
X190158011Y-144236857D01*
X186635000Y-147759868D01*
X186635000Y-136740132D01*
X193758009Y-143863141D01*
G37*
X193758009Y-143863141D02*
X193759535Y-143865000D01*
X191055741Y-143865000D01*
X190999999Y-143859510D01*
X190944257Y-143865000D01*
X190944248Y-143865000D01*
X190777501Y-143881423D01*
X190563553Y-143946324D01*
X190366377Y-144051716D01*
X190193551Y-144193551D01*
X190158011Y-144236857D01*
X186635000Y-147759868D01*
X186635000Y-136740132D01*
X193758009Y-143863141D01*
G36*
X153870013Y-137282252D02*
G01*
X154005001Y-137417240D01*
X154005000Y-147334248D01*
X153999509Y-147390000D01*
X154005249Y-147448283D01*
X154021423Y-147612498D01*
X154044847Y-147689716D01*
X153735000Y-147379869D01*
X153735000Y-137417239D01*
X153869987Y-137282252D01*
X153870000Y-137282233D01*
X153870013Y-137282252D01*
G37*
X153870013Y-137282252D02*
X154005001Y-137417240D01*
X154005000Y-147334248D01*
X153999509Y-147390000D01*
X154005249Y-147448283D01*
X154021423Y-147612498D01*
X154044847Y-147689716D01*
X153735000Y-147379869D01*
X153735000Y-137417239D01*
X153869987Y-137282252D01*
X153870000Y-137282233D01*
X153870013Y-137282252D01*
G36*
X137653551Y-144266449D02*
G01*
X137675526Y-144284484D01*
X137693552Y-144306448D01*
X137866378Y-144448283D01*
X138063554Y-144553676D01*
X138277502Y-144618577D01*
X138500000Y-144640491D01*
X138722498Y-144618577D01*
X138800220Y-144595000D01*
X139841272Y-144595000D01*
X139795506Y-144619463D01*
X139698815Y-144698815D01*
X139619463Y-144795506D01*
X139560498Y-144905820D01*
X139524188Y-145025518D01*
X139511928Y-145150000D01*
X139511928Y-146850000D01*
X139513405Y-146865000D01*
X138970132Y-146865000D01*
X137635000Y-145529869D01*
X137635000Y-144243845D01*
X137653551Y-144266449D01*
G37*
X137653551Y-144266449D02*
X137675526Y-144284484D01*
X137693552Y-144306448D01*
X137866378Y-144448283D01*
X138063554Y-144553676D01*
X138277502Y-144618577D01*
X138500000Y-144640491D01*
X138722498Y-144618577D01*
X138800220Y-144595000D01*
X139841272Y-144595000D01*
X139795506Y-144619463D01*
X139698815Y-144698815D01*
X139619463Y-144795506D01*
X139560498Y-144905820D01*
X139524188Y-145025518D01*
X139511928Y-145150000D01*
X139511928Y-146850000D01*
X139513405Y-146865000D01*
X138970132Y-146865000D01*
X137635000Y-145529869D01*
X137635000Y-144243845D01*
X137653551Y-144266449D01*
G36*
X209623553Y-146113676D02*
G01*
X209837501Y-146178577D01*
X210060000Y-146200491D01*
X210115752Y-146195000D01*
X211605714Y-146195000D01*
X211633483Y-146213555D01*
X211525518Y-146224188D01*
X211405820Y-146260498D01*
X211295506Y-146319463D01*
X211198815Y-146398815D01*
X211144499Y-146465000D01*
X209690132Y-146465000D01*
X209547850Y-146322718D01*
X209499853Y-146081426D01*
X209481835Y-146037927D01*
X209623553Y-146113676D01*
G37*
X209623553Y-146113676D02*
X209837501Y-146178577D01*
X210060000Y-146200491D01*
X210115752Y-146195000D01*
X211605714Y-146195000D01*
X211633483Y-146213555D01*
X211525518Y-146224188D01*
X211405820Y-146260498D01*
X211295506Y-146319463D01*
X211198815Y-146398815D01*
X211144499Y-146465000D01*
X209690132Y-146465000D01*
X209547850Y-146322718D01*
X209499853Y-146081426D01*
X209481835Y-146037927D01*
X209623553Y-146113676D01*
G36*
X213265001Y-146223254D02*
G01*
X213166517Y-146213555D01*
X213265001Y-146147749D01*
X213265001Y-146223254D01*
G37*
X213265001Y-146223254D02*
X213166517Y-146213555D01*
X213265001Y-146147749D01*
X213265001Y-146223254D01*
G36*
X161490013Y-137282252D02*
G01*
X161625001Y-137417240D01*
X161625000Y-145704248D01*
X161619509Y-145760000D01*
X161625000Y-145815751D01*
X161641423Y-145982498D01*
X161664847Y-146059716D01*
X161355000Y-145749869D01*
X161355000Y-137417239D01*
X161489987Y-137282252D01*
X161490000Y-137282233D01*
X161490013Y-137282252D01*
G37*
X161490013Y-137282252D02*
X161625001Y-137417240D01*
X161625000Y-145704248D01*
X161619509Y-145760000D01*
X161625000Y-145815751D01*
X161641423Y-145982498D01*
X161664847Y-146059716D01*
X161355000Y-145749869D01*
X161355000Y-137417239D01*
X161489987Y-137282252D01*
X161490000Y-137282233D01*
X161490013Y-137282252D01*
G36*
X207681426Y-144479853D02*
G01*
X207922718Y-144527850D01*
X208509165Y-145114297D01*
X208261335Y-145065000D01*
X207978665Y-145065000D01*
X207701426Y-145120147D01*
X207535000Y-145189083D01*
X207535000Y-144419201D01*
X207681426Y-144479853D01*
G37*
X207681426Y-144479853D02*
X207922718Y-144527850D01*
X208509165Y-145114297D01*
X208261335Y-145065000D01*
X207978665Y-145065000D01*
X207701426Y-145120147D01*
X207535000Y-145189083D01*
X207535000Y-144419201D01*
X207681426Y-144479853D01*
G36*
X158950013Y-137282252D02*
G01*
X159085000Y-137417239D01*
X159085001Y-144489266D01*
X159006449Y-144393551D01*
X158963135Y-144358004D01*
X158815000Y-144209869D01*
X158815000Y-137417239D01*
X158949987Y-137282252D01*
X158950000Y-137282233D01*
X158950013Y-137282252D01*
G37*
X158950013Y-137282252D02*
X159085000Y-137417239D01*
X159085001Y-144489266D01*
X159006449Y-144393551D01*
X158963135Y-144358004D01*
X158815000Y-144209869D01*
X158815000Y-137417239D01*
X158949987Y-137282252D01*
X158950000Y-137282233D01*
X158950013Y-137282252D01*
G36*
X213265001Y-143972250D02*
G01*
X213056043Y-143832629D01*
X212953127Y-143790000D01*
X213056043Y-143747371D01*
X213265000Y-143607750D01*
X213265001Y-143972250D01*
G37*
X213265001Y-143972250D02*
X213056043Y-143832629D01*
X212953127Y-143790000D01*
X213056043Y-143747371D01*
X213265000Y-143607750D01*
X213265001Y-143972250D01*
G36*
X210086377Y-143468284D02*
G01*
X210283553Y-143573676D01*
X210497501Y-143638577D01*
X210720000Y-143660491D01*
X210775751Y-143655000D01*
X211605714Y-143655000D01*
X211743957Y-143747371D01*
X211846873Y-143790000D01*
X211743957Y-143832629D01*
X211605714Y-143925000D01*
X210530133Y-143925000D01*
X210014097Y-143408965D01*
X210086377Y-143468284D01*
G37*
X210086377Y-143468284D02*
X210283553Y-143573676D01*
X210497501Y-143638577D01*
X210720000Y-143660491D01*
X210775751Y-143655000D01*
X211605714Y-143655000D01*
X211743957Y-143747371D01*
X211846873Y-143790000D01*
X211743957Y-143832629D01*
X211605714Y-143925000D01*
X210530133Y-143925000D01*
X210014097Y-143408965D01*
X210086377Y-143468284D01*
G36*
X202365001Y-143529867D02*
G01*
X202029868Y-143865000D01*
X201694703Y-143865000D01*
X201751680Y-143779727D01*
X201859853Y-143518574D01*
X201915000Y-143241335D01*
X201915000Y-142958665D01*
X201859853Y-142681426D01*
X201840623Y-142635000D01*
X202365000Y-142635000D01*
X202365001Y-143529867D01*
G37*
X202365001Y-143529867D02*
X202029868Y-143865000D01*
X201694703Y-143865000D01*
X201751680Y-143779727D01*
X201859853Y-143518574D01*
X201915000Y-143241335D01*
X201915000Y-142958665D01*
X201859853Y-142681426D01*
X201840623Y-142635000D01*
X202365000Y-142635000D01*
X202365001Y-143529867D01*
G36*
X138820000Y-142060491D02*
G01*
X138875752Y-142055000D01*
X140034893Y-142055000D01*
X140053368Y-142073475D01*
X140227760Y-142190000D01*
X140053368Y-142306525D01*
X140034893Y-142325000D01*
X138930133Y-142325000D01*
X138648758Y-142043625D01*
X138820000Y-142060491D01*
G37*
X138820000Y-142060491D02*
X138875752Y-142055000D01*
X140034893Y-142055000D01*
X140053368Y-142073475D01*
X140227760Y-142190000D01*
X140053368Y-142306525D01*
X140034893Y-142325000D01*
X138930133Y-142325000D01*
X138648758Y-142043625D01*
X138820000Y-142060491D01*
G36*
X141865000Y-142251981D02*
G01*
X141772240Y-142190000D01*
X141865000Y-142128019D01*
X141865000Y-142251981D01*
G37*
X141865000Y-142251981D02*
X141772240Y-142190000D01*
X141865000Y-142128019D01*
X141865000Y-142251981D01*
G36*
X210861928Y-140900000D02*
G01*
X210874188Y-141024482D01*
X210893597Y-141088466D01*
X210241996Y-140436865D01*
X210206449Y-140393551D01*
X210033623Y-140251716D01*
X209983764Y-140225066D01*
X210006449Y-140206449D01*
X210041996Y-140163135D01*
X210861928Y-139343203D01*
X210861928Y-140900000D01*
G37*
X210861928Y-140900000D02*
X210874188Y-141024482D01*
X210893597Y-141088466D01*
X210241996Y-140436865D01*
X210206449Y-140393551D01*
X210033623Y-140251716D01*
X209983764Y-140225066D01*
X210006449Y-140206449D01*
X210041996Y-140163135D01*
X210861928Y-139343203D01*
X210861928Y-140900000D01*
G36*
X206848320Y-140079727D02*
G01*
X206911433Y-140174183D01*
X206766377Y-140251716D01*
X206636856Y-140358011D01*
X206636855Y-140358012D01*
X206593551Y-140393551D01*
X206558013Y-140436855D01*
X206135000Y-140859868D01*
X206135000Y-140855751D01*
X206140491Y-140800000D01*
X206135000Y-140744248D01*
X206135000Y-140670131D01*
X206812319Y-139992813D01*
X206848320Y-140079727D01*
G37*
X206848320Y-140079727D02*
X206911433Y-140174183D01*
X206766377Y-140251716D01*
X206636856Y-140358011D01*
X206636855Y-140358012D01*
X206593551Y-140393551D01*
X206558013Y-140436855D01*
X206135000Y-140859868D01*
X206135000Y-140855751D01*
X206140491Y-140800000D01*
X206135000Y-140744248D01*
X206135000Y-140670131D01*
X206812319Y-139992813D01*
X206848320Y-140079727D01*
G36*
X189910498Y-128244180D02*
G01*
X189969463Y-128354494D01*
X190048815Y-128451185D01*
X190145506Y-128530537D01*
X190255820Y-128589502D01*
X190375518Y-128625812D01*
X190500000Y-128638072D01*
X192500000Y-128638072D01*
X192624482Y-128625812D01*
X192744180Y-128589502D01*
X192854494Y-128530537D01*
X192951185Y-128451185D01*
X193030537Y-128354494D01*
X193089502Y-128244180D01*
X193122621Y-128135000D01*
X193529869Y-128135000D01*
X196259868Y-130865000D01*
X195884284Y-130865000D01*
X195679727Y-130728320D01*
X195418574Y-130620147D01*
X195141335Y-130565000D01*
X194858665Y-130565000D01*
X194581426Y-130620147D01*
X194320273Y-130728320D01*
X194085241Y-130885363D01*
X193885363Y-131085241D01*
X193728320Y-131320273D01*
X193620147Y-131581426D01*
X193565000Y-131858665D01*
X193565000Y-132141335D01*
X193620147Y-132418574D01*
X193728320Y-132679727D01*
X193885363Y-132914759D01*
X194085241Y-133114637D01*
X194320273Y-133271680D01*
X194581426Y-133379853D01*
X194858665Y-133435000D01*
X195141335Y-133435000D01*
X195418574Y-133379853D01*
X195679727Y-133271680D01*
X195884284Y-133135000D01*
X198665649Y-133135000D01*
X198648815Y-133148815D01*
X198569463Y-133245506D01*
X198510498Y-133355820D01*
X198474188Y-133475518D01*
X198461928Y-133600000D01*
X198461928Y-135400000D01*
X198474188Y-135524482D01*
X198510498Y-135644180D01*
X198569463Y-135754494D01*
X198648815Y-135851185D01*
X198745506Y-135930537D01*
X198855820Y-135989502D01*
X198975518Y-136025812D01*
X199100000Y-136038072D01*
X200900000Y-136038072D01*
X201024482Y-136025812D01*
X201144180Y-135989502D01*
X201254494Y-135930537D01*
X201351185Y-135851185D01*
X201430537Y-135754494D01*
X201489502Y-135644180D01*
X201492287Y-135635000D01*
X207959868Y-135635000D01*
X204700000Y-138894869D01*
X204441996Y-138636865D01*
X204406449Y-138593551D01*
X204233623Y-138451716D01*
X204036447Y-138346324D01*
X203822499Y-138281423D01*
X203655752Y-138265000D01*
X203655751Y-138265000D01*
X203600000Y-138259509D01*
X203544249Y-138265000D01*
X201384284Y-138265000D01*
X201179727Y-138128320D01*
X200918574Y-138020147D01*
X200641335Y-137965000D01*
X200358665Y-137965000D01*
X200081426Y-138020147D01*
X199820273Y-138128320D01*
X199585241Y-138285363D01*
X199385363Y-138485241D01*
X199228320Y-138720273D01*
X199120147Y-138981426D01*
X199065000Y-139258665D01*
X199065000Y-139541335D01*
X199120147Y-139818574D01*
X199228320Y-140079727D01*
X199385363Y-140314759D01*
X199435604Y-140365000D01*
X195470132Y-140365000D01*
X188515000Y-133409869D01*
X188515000Y-132884284D01*
X188651680Y-132679727D01*
X188759853Y-132418574D01*
X188815000Y-132141335D01*
X188815000Y-131858665D01*
X188759853Y-131581426D01*
X188651680Y-131320273D01*
X188515000Y-131115716D01*
X188515000Y-130435752D01*
X188520491Y-130380000D01*
X188498577Y-130157501D01*
X188433676Y-129943553D01*
X188328284Y-129746377D01*
X188311870Y-129726377D01*
X188186449Y-129573551D01*
X188143141Y-129538009D01*
X186740132Y-128135000D01*
X189877379Y-128135000D01*
X189910498Y-128244180D01*
G37*
X189910498Y-128244180D02*
X189969463Y-128354494D01*
X190048815Y-128451185D01*
X190145506Y-128530537D01*
X190255820Y-128589502D01*
X190375518Y-128625812D01*
X190500000Y-128638072D01*
X192500000Y-128638072D01*
X192624482Y-128625812D01*
X192744180Y-128589502D01*
X192854494Y-128530537D01*
X192951185Y-128451185D01*
X193030537Y-128354494D01*
X193089502Y-128244180D01*
X193122621Y-128135000D01*
X193529869Y-128135000D01*
X196259868Y-130865000D01*
X195884284Y-130865000D01*
X195679727Y-130728320D01*
X195418574Y-130620147D01*
X195141335Y-130565000D01*
X194858665Y-130565000D01*
X194581426Y-130620147D01*
X194320273Y-130728320D01*
X194085241Y-130885363D01*
X193885363Y-131085241D01*
X193728320Y-131320273D01*
X193620147Y-131581426D01*
X193565000Y-131858665D01*
X193565000Y-132141335D01*
X193620147Y-132418574D01*
X193728320Y-132679727D01*
X193885363Y-132914759D01*
X194085241Y-133114637D01*
X194320273Y-133271680D01*
X194581426Y-133379853D01*
X194858665Y-133435000D01*
X195141335Y-133435000D01*
X195418574Y-133379853D01*
X195679727Y-133271680D01*
X195884284Y-133135000D01*
X198665649Y-133135000D01*
X198648815Y-133148815D01*
X198569463Y-133245506D01*
X198510498Y-133355820D01*
X198474188Y-133475518D01*
X198461928Y-133600000D01*
X198461928Y-135400000D01*
X198474188Y-135524482D01*
X198510498Y-135644180D01*
X198569463Y-135754494D01*
X198648815Y-135851185D01*
X198745506Y-135930537D01*
X198855820Y-135989502D01*
X198975518Y-136025812D01*
X199100000Y-136038072D01*
X200900000Y-136038072D01*
X201024482Y-136025812D01*
X201144180Y-135989502D01*
X201254494Y-135930537D01*
X201351185Y-135851185D01*
X201430537Y-135754494D01*
X201489502Y-135644180D01*
X201492287Y-135635000D01*
X207959868Y-135635000D01*
X204700000Y-138894869D01*
X204441996Y-138636865D01*
X204406449Y-138593551D01*
X204233623Y-138451716D01*
X204036447Y-138346324D01*
X203822499Y-138281423D01*
X203655752Y-138265000D01*
X203655751Y-138265000D01*
X203600000Y-138259509D01*
X203544249Y-138265000D01*
X201384284Y-138265000D01*
X201179727Y-138128320D01*
X200918574Y-138020147D01*
X200641335Y-137965000D01*
X200358665Y-137965000D01*
X200081426Y-138020147D01*
X199820273Y-138128320D01*
X199585241Y-138285363D01*
X199385363Y-138485241D01*
X199228320Y-138720273D01*
X199120147Y-138981426D01*
X199065000Y-139258665D01*
X199065000Y-139541335D01*
X199120147Y-139818574D01*
X199228320Y-140079727D01*
X199385363Y-140314759D01*
X199435604Y-140365000D01*
X195470132Y-140365000D01*
X188515000Y-133409869D01*
X188515000Y-132884284D01*
X188651680Y-132679727D01*
X188759853Y-132418574D01*
X188815000Y-132141335D01*
X188815000Y-131858665D01*
X188759853Y-131581426D01*
X188651680Y-131320273D01*
X188515000Y-131115716D01*
X188515000Y-130435752D01*
X188520491Y-130380000D01*
X188498577Y-130157501D01*
X188433676Y-129943553D01*
X188328284Y-129746377D01*
X188311870Y-129726377D01*
X188186449Y-129573551D01*
X188143141Y-129538009D01*
X186740132Y-128135000D01*
X189877379Y-128135000D01*
X189910498Y-128244180D01*
G36*
X211421495Y-136267688D02*
G01*
X211364183Y-136325000D01*
X211195741Y-136325000D01*
X211139999Y-136319510D01*
X211084257Y-136325000D01*
X211084248Y-136325000D01*
X210917501Y-136341423D01*
X210703553Y-136406324D01*
X210506377Y-136511716D01*
X210333551Y-136653551D01*
X210298009Y-136696859D01*
X208839784Y-138155085D01*
X208799727Y-138128320D01*
X208712813Y-138092319D01*
X210670133Y-136135000D01*
X211620076Y-136135000D01*
X211421495Y-136267688D01*
G37*
X211421495Y-136267688D02*
X211364183Y-136325000D01*
X211195741Y-136325000D01*
X211139999Y-136319510D01*
X211084257Y-136325000D01*
X211084248Y-136325000D01*
X210917501Y-136341423D01*
X210703553Y-136406324D01*
X210506377Y-136511716D01*
X210333551Y-136653551D01*
X210298009Y-136696859D01*
X208839784Y-138155085D01*
X208799727Y-138128320D01*
X208712813Y-138092319D01*
X210670133Y-136135000D01*
X211620076Y-136135000D01*
X211421495Y-136267688D01*
G36*
X174325000Y-134930132D02*
G01*
X174325000Y-135062761D01*
X174190013Y-135197748D01*
X174190000Y-135197767D01*
X174189987Y-135197748D01*
X173962252Y-134970013D01*
X173694463Y-134791082D01*
X173396912Y-134667832D01*
X173081033Y-134605000D01*
X172758967Y-134605000D01*
X172443088Y-134667832D01*
X172145537Y-134791082D01*
X171877748Y-134970013D01*
X171650013Y-135197748D01*
X171650000Y-135197767D01*
X171649987Y-135197748D01*
X171422252Y-134970013D01*
X171154463Y-134791082D01*
X170856912Y-134667832D01*
X170541033Y-134605000D01*
X170218967Y-134605000D01*
X169903088Y-134667832D01*
X169605537Y-134791082D01*
X169337748Y-134970013D01*
X169110013Y-135197748D01*
X169110000Y-135197767D01*
X169109987Y-135197748D01*
X168882252Y-134970013D01*
X168614463Y-134791082D01*
X168316912Y-134667832D01*
X168001033Y-134605000D01*
X167678967Y-134605000D01*
X167363088Y-134667832D01*
X167065537Y-134791082D01*
X166797748Y-134970013D01*
X166570013Y-135197748D01*
X166570000Y-135197767D01*
X166569987Y-135197748D01*
X166342252Y-134970013D01*
X166074463Y-134791082D01*
X165776912Y-134667832D01*
X165461033Y-134605000D01*
X165138967Y-134605000D01*
X164823088Y-134667832D01*
X164525537Y-134791082D01*
X164257748Y-134970013D01*
X164030013Y-135197748D01*
X164030000Y-135197767D01*
X164029987Y-135197748D01*
X163802252Y-134970013D01*
X163534463Y-134791082D01*
X163236912Y-134667832D01*
X162921033Y-134605000D01*
X162598967Y-134605000D01*
X162283088Y-134667832D01*
X161985537Y-134791082D01*
X161717748Y-134970013D01*
X161490013Y-135197748D01*
X161490000Y-135197767D01*
X161489987Y-135197748D01*
X161262252Y-134970013D01*
X160994463Y-134791082D01*
X160696912Y-134667832D01*
X160381033Y-134605000D01*
X160058967Y-134605000D01*
X159743088Y-134667832D01*
X159445537Y-134791082D01*
X159177748Y-134970013D01*
X158950013Y-135197748D01*
X158950000Y-135197767D01*
X158949987Y-135197748D01*
X158722252Y-134970013D01*
X158454463Y-134791082D01*
X158156912Y-134667832D01*
X157841033Y-134605000D01*
X157518967Y-134605000D01*
X157203088Y-134667832D01*
X156905537Y-134791082D01*
X156637748Y-134970013D01*
X156410013Y-135197748D01*
X156410000Y-135197767D01*
X156409987Y-135197748D01*
X156182252Y-134970013D01*
X155914463Y-134791082D01*
X155616912Y-134667832D01*
X155301033Y-134605000D01*
X154978967Y-134605000D01*
X154663088Y-134667832D01*
X154365537Y-134791082D01*
X154097748Y-134970013D01*
X153870013Y-135197748D01*
X153870000Y-135197767D01*
X153869987Y-135197748D01*
X153642252Y-134970013D01*
X153374463Y-134791082D01*
X153076912Y-134667832D01*
X152761033Y-134605000D01*
X152438967Y-134605000D01*
X152123088Y-134667832D01*
X151825537Y-134791082D01*
X151557748Y-134970013D01*
X151330013Y-135197748D01*
X151330000Y-135197767D01*
X151329987Y-135197748D01*
X151102252Y-134970013D01*
X150834463Y-134791082D01*
X150536912Y-134667832D01*
X150221033Y-134605000D01*
X149898967Y-134605000D01*
X149583088Y-134667832D01*
X149285537Y-134791082D01*
X149017748Y-134970013D01*
X148790013Y-135197748D01*
X148790000Y-135197767D01*
X148789987Y-135197748D01*
X148562252Y-134970013D01*
X148294463Y-134791082D01*
X147996912Y-134667832D01*
X147681033Y-134605000D01*
X147358967Y-134605000D01*
X147043088Y-134667832D01*
X146745537Y-134791082D01*
X146477748Y-134970013D01*
X146250013Y-135197748D01*
X146250000Y-135197767D01*
X146249987Y-135197748D01*
X146022252Y-134970013D01*
X145754463Y-134791082D01*
X145456912Y-134667832D01*
X145141033Y-134605000D01*
X144818967Y-134605000D01*
X144503088Y-134667832D01*
X144205537Y-134791082D01*
X143937748Y-134970013D01*
X143710013Y-135197748D01*
X143710000Y-135197767D01*
X143709987Y-135197748D01*
X143482252Y-134970013D01*
X143214463Y-134791082D01*
X142916912Y-134667832D01*
X142601033Y-134605000D01*
X142400132Y-134605000D01*
X142470132Y-134535000D01*
X173929869Y-134535000D01*
X174325000Y-134930132D01*
G37*
X174325000Y-134930132D02*
X174325000Y-135062761D01*
X174190013Y-135197748D01*
X174190000Y-135197767D01*
X174189987Y-135197748D01*
X173962252Y-134970013D01*
X173694463Y-134791082D01*
X173396912Y-134667832D01*
X173081033Y-134605000D01*
X172758967Y-134605000D01*
X172443088Y-134667832D01*
X172145537Y-134791082D01*
X171877748Y-134970013D01*
X171650013Y-135197748D01*
X171650000Y-135197767D01*
X171649987Y-135197748D01*
X171422252Y-134970013D01*
X171154463Y-134791082D01*
X170856912Y-134667832D01*
X170541033Y-134605000D01*
X170218967Y-134605000D01*
X169903088Y-134667832D01*
X169605537Y-134791082D01*
X169337748Y-134970013D01*
X169110013Y-135197748D01*
X169110000Y-135197767D01*
X169109987Y-135197748D01*
X168882252Y-134970013D01*
X168614463Y-134791082D01*
X168316912Y-134667832D01*
X168001033Y-134605000D01*
X167678967Y-134605000D01*
X167363088Y-134667832D01*
X167065537Y-134791082D01*
X166797748Y-134970013D01*
X166570013Y-135197748D01*
X166570000Y-135197767D01*
X166569987Y-135197748D01*
X166342252Y-134970013D01*
X166074463Y-134791082D01*
X165776912Y-134667832D01*
X165461033Y-134605000D01*
X165138967Y-134605000D01*
X164823088Y-134667832D01*
X164525537Y-134791082D01*
X164257748Y-134970013D01*
X164030013Y-135197748D01*
X164030000Y-135197767D01*
X164029987Y-135197748D01*
X163802252Y-134970013D01*
X163534463Y-134791082D01*
X163236912Y-134667832D01*
X162921033Y-134605000D01*
X162598967Y-134605000D01*
X162283088Y-134667832D01*
X161985537Y-134791082D01*
X161717748Y-134970013D01*
X161490013Y-135197748D01*
X161490000Y-135197767D01*
X161489987Y-135197748D01*
X161262252Y-134970013D01*
X160994463Y-134791082D01*
X160696912Y-134667832D01*
X160381033Y-134605000D01*
X160058967Y-134605000D01*
X159743088Y-134667832D01*
X159445537Y-134791082D01*
X159177748Y-134970013D01*
X158950013Y-135197748D01*
X158950000Y-135197767D01*
X158949987Y-135197748D01*
X158722252Y-134970013D01*
X158454463Y-134791082D01*
X158156912Y-134667832D01*
X157841033Y-134605000D01*
X157518967Y-134605000D01*
X157203088Y-134667832D01*
X156905537Y-134791082D01*
X156637748Y-134970013D01*
X156410013Y-135197748D01*
X156410000Y-135197767D01*
X156409987Y-135197748D01*
X156182252Y-134970013D01*
X155914463Y-134791082D01*
X155616912Y-134667832D01*
X155301033Y-134605000D01*
X154978967Y-134605000D01*
X154663088Y-134667832D01*
X154365537Y-134791082D01*
X154097748Y-134970013D01*
X153870013Y-135197748D01*
X153870000Y-135197767D01*
X153869987Y-135197748D01*
X153642252Y-134970013D01*
X153374463Y-134791082D01*
X153076912Y-134667832D01*
X152761033Y-134605000D01*
X152438967Y-134605000D01*
X152123088Y-134667832D01*
X151825537Y-134791082D01*
X151557748Y-134970013D01*
X151330013Y-135197748D01*
X151330000Y-135197767D01*
X151329987Y-135197748D01*
X151102252Y-134970013D01*
X150834463Y-134791082D01*
X150536912Y-134667832D01*
X150221033Y-134605000D01*
X149898967Y-134605000D01*
X149583088Y-134667832D01*
X149285537Y-134791082D01*
X149017748Y-134970013D01*
X148790013Y-135197748D01*
X148790000Y-135197767D01*
X148789987Y-135197748D01*
X148562252Y-134970013D01*
X148294463Y-134791082D01*
X147996912Y-134667832D01*
X147681033Y-134605000D01*
X147358967Y-134605000D01*
X147043088Y-134667832D01*
X146745537Y-134791082D01*
X146477748Y-134970013D01*
X146250013Y-135197748D01*
X146250000Y-135197767D01*
X146249987Y-135197748D01*
X146022252Y-134970013D01*
X145754463Y-134791082D01*
X145456912Y-134667832D01*
X145141033Y-134605000D01*
X144818967Y-134605000D01*
X144503088Y-134667832D01*
X144205537Y-134791082D01*
X143937748Y-134970013D01*
X143710013Y-135197748D01*
X143710000Y-135197767D01*
X143709987Y-135197748D01*
X143482252Y-134970013D01*
X143214463Y-134791082D01*
X142916912Y-134667832D01*
X142601033Y-134605000D01*
X142400132Y-134605000D01*
X142470132Y-134535000D01*
X173929869Y-134535000D01*
X174325000Y-134930132D01*
G36*
X153870013Y-122042252D02*
G01*
X154005001Y-122177240D01*
X154005000Y-123584248D01*
X153999509Y-123640000D01*
X154005000Y-123695751D01*
X154021423Y-123862498D01*
X154086324Y-124076446D01*
X154191716Y-124273623D01*
X154333551Y-124446449D01*
X154376865Y-124481996D01*
X159658013Y-129763146D01*
X159693551Y-129806449D01*
X159736854Y-129841987D01*
X159736856Y-129841989D01*
X159866377Y-129948284D01*
X160063553Y-130053676D01*
X160277501Y-130118577D01*
X160500000Y-130140491D01*
X160555752Y-130135000D01*
X174029869Y-130135000D01*
X178623362Y-134728494D01*
X178476912Y-134667832D01*
X178161033Y-134605000D01*
X177838967Y-134605000D01*
X177523088Y-134667832D01*
X177225537Y-134791082D01*
X176957748Y-134970013D01*
X176730013Y-135197748D01*
X176730000Y-135197767D01*
X176729987Y-135197748D01*
X176595000Y-135062761D01*
X176595000Y-134515741D01*
X176600490Y-134459999D01*
X176595000Y-134404257D01*
X176595000Y-134404248D01*
X176578577Y-134237501D01*
X176513676Y-134023553D01*
X176408284Y-133826377D01*
X176266449Y-133653551D01*
X176223140Y-133618008D01*
X175241996Y-132636864D01*
X175206449Y-132593551D01*
X175033623Y-132451716D01*
X174836447Y-132346324D01*
X174622499Y-132281423D01*
X174455752Y-132265000D01*
X174455751Y-132265000D01*
X174400000Y-132259509D01*
X174344249Y-132265000D01*
X142740132Y-132265000D01*
X148283146Y-126721987D01*
X148326449Y-126686449D01*
X148369803Y-126633623D01*
X148468284Y-126513623D01*
X148573676Y-126316447D01*
X148638577Y-126102499D01*
X148660491Y-125880000D01*
X148655000Y-125824248D01*
X148655000Y-122177239D01*
X148789987Y-122042252D01*
X148790000Y-122042233D01*
X148790013Y-122042252D01*
X149017748Y-122269987D01*
X149285537Y-122448918D01*
X149583088Y-122572168D01*
X149898967Y-122635000D01*
X150221033Y-122635000D01*
X150536912Y-122572168D01*
X150834463Y-122448918D01*
X151102252Y-122269987D01*
X151329987Y-122042252D01*
X151330000Y-122042233D01*
X151330013Y-122042252D01*
X151557748Y-122269987D01*
X151825537Y-122448918D01*
X152123088Y-122572168D01*
X152438967Y-122635000D01*
X152761033Y-122635000D01*
X153076912Y-122572168D01*
X153374463Y-122448918D01*
X153642252Y-122269987D01*
X153869987Y-122042252D01*
X153870000Y-122042233D01*
X153870013Y-122042252D01*
G37*
X153870013Y-122042252D02*
X154005001Y-122177240D01*
X154005000Y-123584248D01*
X153999509Y-123640000D01*
X154005000Y-123695751D01*
X154021423Y-123862498D01*
X154086324Y-124076446D01*
X154191716Y-124273623D01*
X154333551Y-124446449D01*
X154376865Y-124481996D01*
X159658013Y-129763146D01*
X159693551Y-129806449D01*
X159736854Y-129841987D01*
X159736856Y-129841989D01*
X159866377Y-129948284D01*
X160063553Y-130053676D01*
X160277501Y-130118577D01*
X160500000Y-130140491D01*
X160555752Y-130135000D01*
X174029869Y-130135000D01*
X178623362Y-134728494D01*
X178476912Y-134667832D01*
X178161033Y-134605000D01*
X177838967Y-134605000D01*
X177523088Y-134667832D01*
X177225537Y-134791082D01*
X176957748Y-134970013D01*
X176730013Y-135197748D01*
X176730000Y-135197767D01*
X176729987Y-135197748D01*
X176595000Y-135062761D01*
X176595000Y-134515741D01*
X176600490Y-134459999D01*
X176595000Y-134404257D01*
X176595000Y-134404248D01*
X176578577Y-134237501D01*
X176513676Y-134023553D01*
X176408284Y-133826377D01*
X176266449Y-133653551D01*
X176223140Y-133618008D01*
X175241996Y-132636864D01*
X175206449Y-132593551D01*
X175033623Y-132451716D01*
X174836447Y-132346324D01*
X174622499Y-132281423D01*
X174455752Y-132265000D01*
X174455751Y-132265000D01*
X174400000Y-132259509D01*
X174344249Y-132265000D01*
X142740132Y-132265000D01*
X148283146Y-126721987D01*
X148326449Y-126686449D01*
X148369803Y-126633623D01*
X148468284Y-126513623D01*
X148573676Y-126316447D01*
X148638577Y-126102499D01*
X148660491Y-125880000D01*
X148655000Y-125824248D01*
X148655000Y-122177239D01*
X148789987Y-122042252D01*
X148790000Y-122042233D01*
X148790013Y-122042252D01*
X149017748Y-122269987D01*
X149285537Y-122448918D01*
X149583088Y-122572168D01*
X149898967Y-122635000D01*
X150221033Y-122635000D01*
X150536912Y-122572168D01*
X150834463Y-122448918D01*
X151102252Y-122269987D01*
X151329987Y-122042252D01*
X151330000Y-122042233D01*
X151330013Y-122042252D01*
X151557748Y-122269987D01*
X151825537Y-122448918D01*
X152123088Y-122572168D01*
X152438967Y-122635000D01*
X152761033Y-122635000D01*
X153076912Y-122572168D01*
X153374463Y-122448918D01*
X153642252Y-122269987D01*
X153869987Y-122042252D01*
X153870000Y-122042233D01*
X153870013Y-122042252D01*
G36*
X204832500Y-132437632D02*
G01*
X204832500Y-132625485D01*
X204855470Y-132858703D01*
X204946245Y-133157948D01*
X205056916Y-133365000D01*
X201492287Y-133365000D01*
X201489502Y-133355820D01*
X201430537Y-133245506D01*
X201351185Y-133148815D01*
X201254494Y-133069463D01*
X201144180Y-133010498D01*
X201125873Y-133004944D01*
X201192312Y-132938505D01*
X201360299Y-132687095D01*
X201476011Y-132407743D01*
X201535000Y-132111184D01*
X201535000Y-131808816D01*
X201476011Y-131512257D01*
X201402588Y-131335000D01*
X203729869Y-131335000D01*
X204832500Y-132437632D01*
G37*
X204832500Y-132437632D02*
X204832500Y-132625485D01*
X204855470Y-132858703D01*
X204946245Y-133157948D01*
X205056916Y-133365000D01*
X201492287Y-133365000D01*
X201489502Y-133355820D01*
X201430537Y-133245506D01*
X201351185Y-133148815D01*
X201254494Y-133069463D01*
X201144180Y-133010498D01*
X201125873Y-133004944D01*
X201192312Y-132938505D01*
X201360299Y-132687095D01*
X201476011Y-132407743D01*
X201535000Y-132111184D01*
X201535000Y-131808816D01*
X201476011Y-131512257D01*
X201402588Y-131335000D01*
X203729869Y-131335000D01*
X204832500Y-132437632D01*
G36*
X182865000Y-121115716D02*
G01*
X182728320Y-121320273D01*
X182620147Y-121581426D01*
X182565000Y-121858665D01*
X182565000Y-122141335D01*
X182620147Y-122418574D01*
X182728320Y-122679727D01*
X182885363Y-122914759D01*
X183085241Y-123114637D01*
X183320273Y-123271680D01*
X183581426Y-123379853D01*
X183858665Y-123435000D01*
X184141335Y-123435000D01*
X184418574Y-123379853D01*
X184679727Y-123271680D01*
X184884284Y-123135000D01*
X190322761Y-123135000D01*
X190457748Y-123269987D01*
X190725537Y-123448918D01*
X191023088Y-123572168D01*
X191202780Y-123607911D01*
X193459869Y-125865000D01*
X193122621Y-125865000D01*
X193089502Y-125755820D01*
X193030537Y-125645506D01*
X192951185Y-125548815D01*
X192854494Y-125469463D01*
X192744180Y-125410498D01*
X192624482Y-125374188D01*
X192500000Y-125361928D01*
X190500000Y-125361928D01*
X190375518Y-125374188D01*
X190255820Y-125410498D01*
X190145506Y-125469463D01*
X190048815Y-125548815D01*
X189969463Y-125645506D01*
X189910498Y-125755820D01*
X189877379Y-125865000D01*
X184884284Y-125865000D01*
X184679727Y-125728320D01*
X184418574Y-125620147D01*
X184141335Y-125565000D01*
X183858665Y-125565000D01*
X183581426Y-125620147D01*
X183320273Y-125728320D01*
X183085241Y-125885363D01*
X182885363Y-126085241D01*
X182728320Y-126320273D01*
X182620147Y-126581426D01*
X182565000Y-126858665D01*
X182565000Y-127141335D01*
X182620147Y-127418574D01*
X182728320Y-127679727D01*
X182885363Y-127914759D01*
X183085241Y-128114637D01*
X183320273Y-128271680D01*
X183581426Y-128379853D01*
X183822719Y-128427850D01*
X186245000Y-130850132D01*
X186245000Y-131115716D01*
X186108320Y-131320273D01*
X186000147Y-131581426D01*
X185945000Y-131858665D01*
X185945000Y-132141335D01*
X186000147Y-132418574D01*
X186108320Y-132679727D01*
X186245000Y-132884284D01*
X186245001Y-133139869D01*
X176841996Y-123736865D01*
X176806449Y-123693551D01*
X176633623Y-123551716D01*
X176436447Y-123446324D01*
X176222499Y-123381423D01*
X176055752Y-123365000D01*
X176055751Y-123365000D01*
X176000000Y-123359509D01*
X175944249Y-123365000D01*
X164970133Y-123365000D01*
X163895000Y-122289869D01*
X163895000Y-122177239D01*
X164029987Y-122042252D01*
X164030000Y-122042233D01*
X164030013Y-122042252D01*
X164257748Y-122269987D01*
X164525537Y-122448918D01*
X164823088Y-122572168D01*
X165138967Y-122635000D01*
X165461033Y-122635000D01*
X165776912Y-122572168D01*
X166074463Y-122448918D01*
X166342252Y-122269987D01*
X166569987Y-122042252D01*
X166570000Y-122042233D01*
X166570013Y-122042252D01*
X166797748Y-122269987D01*
X167065537Y-122448918D01*
X167363088Y-122572168D01*
X167678967Y-122635000D01*
X168001033Y-122635000D01*
X168316912Y-122572168D01*
X168614463Y-122448918D01*
X168882252Y-122269987D01*
X169109987Y-122042252D01*
X169110000Y-122042233D01*
X169110013Y-122042252D01*
X169337748Y-122269987D01*
X169605537Y-122448918D01*
X169903088Y-122572168D01*
X170218967Y-122635000D01*
X170541033Y-122635000D01*
X170856912Y-122572168D01*
X171154463Y-122448918D01*
X171422252Y-122269987D01*
X171649987Y-122042252D01*
X171650000Y-122042233D01*
X171650013Y-122042252D01*
X171877748Y-122269987D01*
X172145537Y-122448918D01*
X172443088Y-122572168D01*
X172758967Y-122635000D01*
X173081033Y-122635000D01*
X173396912Y-122572168D01*
X173694463Y-122448918D01*
X173962252Y-122269987D01*
X174189987Y-122042252D01*
X174190000Y-122042233D01*
X174190013Y-122042252D01*
X174417748Y-122269987D01*
X174685537Y-122448918D01*
X174983088Y-122572168D01*
X175298967Y-122635000D01*
X175621033Y-122635000D01*
X175936912Y-122572168D01*
X176234463Y-122448918D01*
X176444809Y-122308370D01*
X176469463Y-122354494D01*
X176548815Y-122451185D01*
X176645506Y-122530537D01*
X176755820Y-122589502D01*
X176875518Y-122625812D01*
X177000000Y-122638072D01*
X179000000Y-122638072D01*
X179124482Y-122625812D01*
X179244180Y-122589502D01*
X179354494Y-122530537D01*
X179451185Y-122451185D01*
X179530537Y-122354494D01*
X179589502Y-122244180D01*
X179625812Y-122124482D01*
X179638072Y-122000000D01*
X179638072Y-120000000D01*
X179625812Y-119875518D01*
X179589502Y-119755820D01*
X179530537Y-119645506D01*
X179451185Y-119548815D01*
X179354494Y-119469463D01*
X179244180Y-119410498D01*
X179124482Y-119374188D01*
X179000000Y-119361928D01*
X177000000Y-119361928D01*
X176875518Y-119374188D01*
X176755820Y-119410498D01*
X176645506Y-119469463D01*
X176548815Y-119548815D01*
X176469463Y-119645506D01*
X176444809Y-119691630D01*
X176234463Y-119551082D01*
X175936912Y-119427832D01*
X175621033Y-119365000D01*
X175298967Y-119365000D01*
X174983088Y-119427832D01*
X174685537Y-119551082D01*
X174417748Y-119730013D01*
X174190013Y-119957748D01*
X174190000Y-119957767D01*
X174189987Y-119957748D01*
X173962252Y-119730013D01*
X173694463Y-119551082D01*
X173396912Y-119427832D01*
X173081033Y-119365000D01*
X172758967Y-119365000D01*
X172443088Y-119427832D01*
X172145537Y-119551082D01*
X171877748Y-119730013D01*
X171650013Y-119957748D01*
X171650000Y-119957767D01*
X171649987Y-119957748D01*
X171648685Y-119956446D01*
X172470132Y-119135000D01*
X182865001Y-119135000D01*
X182865000Y-121115716D01*
G37*
X182865000Y-121115716D02*
X182728320Y-121320273D01*
X182620147Y-121581426D01*
X182565000Y-121858665D01*
X182565000Y-122141335D01*
X182620147Y-122418574D01*
X182728320Y-122679727D01*
X182885363Y-122914759D01*
X183085241Y-123114637D01*
X183320273Y-123271680D01*
X183581426Y-123379853D01*
X183858665Y-123435000D01*
X184141335Y-123435000D01*
X184418574Y-123379853D01*
X184679727Y-123271680D01*
X184884284Y-123135000D01*
X190322761Y-123135000D01*
X190457748Y-123269987D01*
X190725537Y-123448918D01*
X191023088Y-123572168D01*
X191202780Y-123607911D01*
X193459869Y-125865000D01*
X193122621Y-125865000D01*
X193089502Y-125755820D01*
X193030537Y-125645506D01*
X192951185Y-125548815D01*
X192854494Y-125469463D01*
X192744180Y-125410498D01*
X192624482Y-125374188D01*
X192500000Y-125361928D01*
X190500000Y-125361928D01*
X190375518Y-125374188D01*
X190255820Y-125410498D01*
X190145506Y-125469463D01*
X190048815Y-125548815D01*
X189969463Y-125645506D01*
X189910498Y-125755820D01*
X189877379Y-125865000D01*
X184884284Y-125865000D01*
X184679727Y-125728320D01*
X184418574Y-125620147D01*
X184141335Y-125565000D01*
X183858665Y-125565000D01*
X183581426Y-125620147D01*
X183320273Y-125728320D01*
X183085241Y-125885363D01*
X182885363Y-126085241D01*
X182728320Y-126320273D01*
X182620147Y-126581426D01*
X182565000Y-126858665D01*
X182565000Y-127141335D01*
X182620147Y-127418574D01*
X182728320Y-127679727D01*
X182885363Y-127914759D01*
X183085241Y-128114637D01*
X183320273Y-128271680D01*
X183581426Y-128379853D01*
X183822719Y-128427850D01*
X186245000Y-130850132D01*
X186245000Y-131115716D01*
X186108320Y-131320273D01*
X186000147Y-131581426D01*
X185945000Y-131858665D01*
X185945000Y-132141335D01*
X186000147Y-132418574D01*
X186108320Y-132679727D01*
X186245000Y-132884284D01*
X186245001Y-133139869D01*
X176841996Y-123736865D01*
X176806449Y-123693551D01*
X176633623Y-123551716D01*
X176436447Y-123446324D01*
X176222499Y-123381423D01*
X176055752Y-123365000D01*
X176055751Y-123365000D01*
X176000000Y-123359509D01*
X175944249Y-123365000D01*
X164970133Y-123365000D01*
X163895000Y-122289869D01*
X163895000Y-122177239D01*
X164029987Y-122042252D01*
X164030000Y-122042233D01*
X164030013Y-122042252D01*
X164257748Y-122269987D01*
X164525537Y-122448918D01*
X164823088Y-122572168D01*
X165138967Y-122635000D01*
X165461033Y-122635000D01*
X165776912Y-122572168D01*
X166074463Y-122448918D01*
X166342252Y-122269987D01*
X166569987Y-122042252D01*
X166570000Y-122042233D01*
X166570013Y-122042252D01*
X166797748Y-122269987D01*
X167065537Y-122448918D01*
X167363088Y-122572168D01*
X167678967Y-122635000D01*
X168001033Y-122635000D01*
X168316912Y-122572168D01*
X168614463Y-122448918D01*
X168882252Y-122269987D01*
X169109987Y-122042252D01*
X169110000Y-122042233D01*
X169110013Y-122042252D01*
X169337748Y-122269987D01*
X169605537Y-122448918D01*
X169903088Y-122572168D01*
X170218967Y-122635000D01*
X170541033Y-122635000D01*
X170856912Y-122572168D01*
X171154463Y-122448918D01*
X171422252Y-122269987D01*
X171649987Y-122042252D01*
X171650000Y-122042233D01*
X171650013Y-122042252D01*
X171877748Y-122269987D01*
X172145537Y-122448918D01*
X172443088Y-122572168D01*
X172758967Y-122635000D01*
X173081033Y-122635000D01*
X173396912Y-122572168D01*
X173694463Y-122448918D01*
X173962252Y-122269987D01*
X174189987Y-122042252D01*
X174190000Y-122042233D01*
X174190013Y-122042252D01*
X174417748Y-122269987D01*
X174685537Y-122448918D01*
X174983088Y-122572168D01*
X175298967Y-122635000D01*
X175621033Y-122635000D01*
X175936912Y-122572168D01*
X176234463Y-122448918D01*
X176444809Y-122308370D01*
X176469463Y-122354494D01*
X176548815Y-122451185D01*
X176645506Y-122530537D01*
X176755820Y-122589502D01*
X176875518Y-122625812D01*
X177000000Y-122638072D01*
X179000000Y-122638072D01*
X179124482Y-122625812D01*
X179244180Y-122589502D01*
X179354494Y-122530537D01*
X179451185Y-122451185D01*
X179530537Y-122354494D01*
X179589502Y-122244180D01*
X179625812Y-122124482D01*
X179638072Y-122000000D01*
X179638072Y-120000000D01*
X179625812Y-119875518D01*
X179589502Y-119755820D01*
X179530537Y-119645506D01*
X179451185Y-119548815D01*
X179354494Y-119469463D01*
X179244180Y-119410498D01*
X179124482Y-119374188D01*
X179000000Y-119361928D01*
X177000000Y-119361928D01*
X176875518Y-119374188D01*
X176755820Y-119410498D01*
X176645506Y-119469463D01*
X176548815Y-119548815D01*
X176469463Y-119645506D01*
X176444809Y-119691630D01*
X176234463Y-119551082D01*
X175936912Y-119427832D01*
X175621033Y-119365000D01*
X175298967Y-119365000D01*
X174983088Y-119427832D01*
X174685537Y-119551082D01*
X174417748Y-119730013D01*
X174190013Y-119957748D01*
X174190000Y-119957767D01*
X174189987Y-119957748D01*
X173962252Y-119730013D01*
X173694463Y-119551082D01*
X173396912Y-119427832D01*
X173081033Y-119365000D01*
X172758967Y-119365000D01*
X172443088Y-119427832D01*
X172145537Y-119551082D01*
X171877748Y-119730013D01*
X171650013Y-119957748D01*
X171650000Y-119957767D01*
X171649987Y-119957748D01*
X171648685Y-119956446D01*
X172470132Y-119135000D01*
X182865001Y-119135000D01*
X182865000Y-121115716D01*
G36*
X140991082Y-120225537D02*
G01*
X140867832Y-120523088D01*
X140805000Y-120838967D01*
X140805000Y-121161033D01*
X140867832Y-121476912D01*
X140991082Y-121774463D01*
X141170013Y-122042252D01*
X141397748Y-122269987D01*
X141665537Y-122448918D01*
X141963088Y-122572168D01*
X142278967Y-122635000D01*
X142601033Y-122635000D01*
X142916912Y-122572168D01*
X143214463Y-122448918D01*
X143482252Y-122269987D01*
X143709987Y-122042252D01*
X143710000Y-122042233D01*
X143710013Y-122042252D01*
X143845001Y-122177240D01*
X143845000Y-125949868D01*
X137635000Y-132159869D01*
X137635000Y-123470131D01*
X140970132Y-120135000D01*
X141051577Y-120135000D01*
X140991082Y-120225537D01*
G37*
X140991082Y-120225537D02*
X140867832Y-120523088D01*
X140805000Y-120838967D01*
X140805000Y-121161033D01*
X140867832Y-121476912D01*
X140991082Y-121774463D01*
X141170013Y-122042252D01*
X141397748Y-122269987D01*
X141665537Y-122448918D01*
X141963088Y-122572168D01*
X142278967Y-122635000D01*
X142601033Y-122635000D01*
X142916912Y-122572168D01*
X143214463Y-122448918D01*
X143482252Y-122269987D01*
X143709987Y-122042252D01*
X143710000Y-122042233D01*
X143710013Y-122042252D01*
X143845001Y-122177240D01*
X143845000Y-125949868D01*
X137635000Y-132159869D01*
X137635000Y-123470131D01*
X140970132Y-120135000D01*
X141051577Y-120135000D01*
X140991082Y-120225537D01*
G36*
X215158009Y-128763141D02*
G01*
X215193551Y-128806449D01*
X215366377Y-128948284D01*
X215563553Y-129053676D01*
X215777501Y-129118577D01*
X215944248Y-129135000D01*
X215944257Y-129135000D01*
X215999999Y-129140490D01*
X216055741Y-129135000D01*
X216861928Y-129135000D01*
X216861928Y-129500000D01*
X216874188Y-129624482D01*
X216910498Y-129744180D01*
X216969463Y-129854494D01*
X217048815Y-129951185D01*
X217145506Y-130030537D01*
X217255820Y-130089502D01*
X217375518Y-130125812D01*
X217500000Y-130138072D01*
X220500000Y-130138072D01*
X220624482Y-130125812D01*
X220744180Y-130089502D01*
X220854494Y-130030537D01*
X220909352Y-129985516D01*
X220029869Y-130865000D01*
X215255752Y-130865000D01*
X215200000Y-130859509D01*
X214977501Y-130881423D01*
X214763553Y-130946324D01*
X214566377Y-131051716D01*
X214436856Y-131158011D01*
X214436854Y-131158013D01*
X214393551Y-131193551D01*
X214358013Y-131236854D01*
X213888969Y-131705898D01*
X213948284Y-131633623D01*
X214053676Y-131436447D01*
X214118577Y-131222499D01*
X214135000Y-131055752D01*
X214135000Y-131055743D01*
X214140490Y-131000001D01*
X214135000Y-130944259D01*
X214135000Y-130734625D01*
X214224482Y-130725812D01*
X214344180Y-130689502D01*
X214454494Y-130630537D01*
X214551185Y-130551185D01*
X214630537Y-130454494D01*
X214689502Y-130344180D01*
X214725812Y-130224482D01*
X214738072Y-130100000D01*
X214738072Y-128343204D01*
X215158009Y-128763141D01*
G37*
X215158009Y-128763141D02*
X215193551Y-128806449D01*
X215366377Y-128948284D01*
X215563553Y-129053676D01*
X215777501Y-129118577D01*
X215944248Y-129135000D01*
X215944257Y-129135000D01*
X215999999Y-129140490D01*
X216055741Y-129135000D01*
X216861928Y-129135000D01*
X216861928Y-129500000D01*
X216874188Y-129624482D01*
X216910498Y-129744180D01*
X216969463Y-129854494D01*
X217048815Y-129951185D01*
X217145506Y-130030537D01*
X217255820Y-130089502D01*
X217375518Y-130125812D01*
X217500000Y-130138072D01*
X220500000Y-130138072D01*
X220624482Y-130125812D01*
X220744180Y-130089502D01*
X220854494Y-130030537D01*
X220909352Y-129985516D01*
X220029869Y-130865000D01*
X215255752Y-130865000D01*
X215200000Y-130859509D01*
X214977501Y-130881423D01*
X214763553Y-130946324D01*
X214566377Y-131051716D01*
X214436856Y-131158011D01*
X214436854Y-131158013D01*
X214393551Y-131193551D01*
X214358013Y-131236854D01*
X213888969Y-131705898D01*
X213948284Y-131633623D01*
X214053676Y-131436447D01*
X214118577Y-131222499D01*
X214135000Y-131055752D01*
X214135000Y-131055743D01*
X214140490Y-131000001D01*
X214135000Y-130944259D01*
X214135000Y-130734625D01*
X214224482Y-130725812D01*
X214344180Y-130689502D01*
X214454494Y-130630537D01*
X214551185Y-130551185D01*
X214630537Y-130454494D01*
X214689502Y-130344180D01*
X214725812Y-130224482D01*
X214738072Y-130100000D01*
X214738072Y-128343204D01*
X215158009Y-128763141D01*
G36*
X207825001Y-130830133D02*
G01*
X207825001Y-131333111D01*
X207690000Y-131497609D01*
X207547963Y-131324537D01*
X207306235Y-131126155D01*
X207030449Y-130978745D01*
X206731204Y-130887970D01*
X206467088Y-130861957D01*
X205740131Y-130135000D01*
X207129869Y-130135000D01*
X207825001Y-130830133D01*
G37*
X207825001Y-130830133D02*
X207825001Y-131333111D01*
X207690000Y-131497609D01*
X207547963Y-131324537D01*
X207306235Y-131126155D01*
X207030449Y-130978745D01*
X206731204Y-130887970D01*
X206467088Y-130861957D01*
X205740131Y-130135000D01*
X207129869Y-130135000D01*
X207825001Y-130830133D01*
G36*
X211261928Y-128867060D02*
G01*
X211261928Y-130100000D01*
X211274188Y-130224482D01*
X211310498Y-130344180D01*
X211369463Y-130454494D01*
X211448815Y-130551185D01*
X211545506Y-130630537D01*
X211655820Y-130689502D01*
X211693835Y-130701034D01*
X211532940Y-130861928D01*
X210547500Y-130861928D01*
X210423018Y-130874188D01*
X210303320Y-130910498D01*
X210193006Y-130969463D01*
X210096315Y-131048815D01*
X210095000Y-131050417D01*
X210095000Y-130415741D01*
X210100490Y-130359999D01*
X210095000Y-130304257D01*
X210095000Y-130304248D01*
X210078577Y-130137501D01*
X210013676Y-129923553D01*
X209908284Y-129726377D01*
X209766449Y-129553551D01*
X209723140Y-129518008D01*
X208441996Y-128236865D01*
X208406449Y-128193551D01*
X208335105Y-128135000D01*
X210529869Y-128135000D01*
X211261928Y-128867060D01*
G37*
X211261928Y-128867060D02*
X211261928Y-130100000D01*
X211274188Y-130224482D01*
X211310498Y-130344180D01*
X211369463Y-130454494D01*
X211448815Y-130551185D01*
X211545506Y-130630537D01*
X211655820Y-130689502D01*
X211693835Y-130701034D01*
X211532940Y-130861928D01*
X210547500Y-130861928D01*
X210423018Y-130874188D01*
X210303320Y-130910498D01*
X210193006Y-130969463D01*
X210096315Y-131048815D01*
X210095000Y-131050417D01*
X210095000Y-130415741D01*
X210100490Y-130359999D01*
X210095000Y-130304257D01*
X210095000Y-130304248D01*
X210078577Y-130137501D01*
X210013676Y-129923553D01*
X209908284Y-129726377D01*
X209766449Y-129553551D01*
X209723140Y-129518008D01*
X208441996Y-128236865D01*
X208406449Y-128193551D01*
X208335105Y-128135000D01*
X210529869Y-128135000D01*
X211261928Y-128867060D01*
G36*
X156410013Y-122042252D02*
G01*
X156545000Y-122177239D01*
X156545000Y-122624249D01*
X156539509Y-122680000D01*
X156545000Y-122735751D01*
X156561423Y-122902498D01*
X156626324Y-123116446D01*
X156731716Y-123313623D01*
X156873551Y-123486449D01*
X156916865Y-123521996D01*
X161259868Y-127865000D01*
X160970133Y-127865000D01*
X156275000Y-123169869D01*
X156275000Y-122177239D01*
X156409987Y-122042252D01*
X156410000Y-122042233D01*
X156410013Y-122042252D01*
G37*
X156410013Y-122042252D02*
X156545000Y-122177239D01*
X156545000Y-122624249D01*
X156539509Y-122680000D01*
X156545000Y-122735751D01*
X156561423Y-122902498D01*
X156626324Y-123116446D01*
X156731716Y-123313623D01*
X156873551Y-123486449D01*
X156916865Y-123521996D01*
X161259868Y-127865000D01*
X160970133Y-127865000D01*
X156275000Y-123169869D01*
X156275000Y-122177239D01*
X156409987Y-122042252D01*
X156410000Y-122042233D01*
X156410013Y-122042252D01*
G36*
X198320273Y-123271680D02*
G01*
X198581426Y-123379853D01*
X198858665Y-123435000D01*
X199141335Y-123435000D01*
X199418574Y-123379853D01*
X199679727Y-123271680D01*
X199884284Y-123135000D01*
X204822761Y-123135000D01*
X204957748Y-123269987D01*
X205225537Y-123448918D01*
X205523088Y-123572168D01*
X205838967Y-123635000D01*
X206161033Y-123635000D01*
X206476912Y-123572168D01*
X206774463Y-123448918D01*
X207042252Y-123269987D01*
X207177239Y-123135000D01*
X209529869Y-123135000D01*
X213656796Y-127261928D01*
X212867060Y-127261928D01*
X211841996Y-126236865D01*
X211806449Y-126193551D01*
X211633623Y-126051716D01*
X211436447Y-125946324D01*
X211222499Y-125881423D01*
X211055752Y-125865000D01*
X211055751Y-125865000D01*
X211000000Y-125859509D01*
X210944249Y-125865000D01*
X207622621Y-125865000D01*
X207589502Y-125755820D01*
X207530537Y-125645506D01*
X207451185Y-125548815D01*
X207354494Y-125469463D01*
X207244180Y-125410498D01*
X207124482Y-125374188D01*
X207000000Y-125361928D01*
X205000000Y-125361928D01*
X204875518Y-125374188D01*
X204755820Y-125410498D01*
X204645506Y-125469463D01*
X204548815Y-125548815D01*
X204469463Y-125645506D01*
X204410498Y-125755820D01*
X204377379Y-125865000D01*
X199884284Y-125865000D01*
X199679727Y-125728320D01*
X199418574Y-125620147D01*
X199141335Y-125565000D01*
X198858665Y-125565000D01*
X198581426Y-125620147D01*
X198320273Y-125728320D01*
X198085241Y-125885363D01*
X197885363Y-126085241D01*
X197728320Y-126320273D01*
X197620147Y-126581426D01*
X197581392Y-126776260D01*
X193940131Y-123135000D01*
X198115716Y-123135000D01*
X198320273Y-123271680D01*
G37*
X198320273Y-123271680D02*
X198581426Y-123379853D01*
X198858665Y-123435000D01*
X199141335Y-123435000D01*
X199418574Y-123379853D01*
X199679727Y-123271680D01*
X199884284Y-123135000D01*
X204822761Y-123135000D01*
X204957748Y-123269987D01*
X205225537Y-123448918D01*
X205523088Y-123572168D01*
X205838967Y-123635000D01*
X206161033Y-123635000D01*
X206476912Y-123572168D01*
X206774463Y-123448918D01*
X207042252Y-123269987D01*
X207177239Y-123135000D01*
X209529869Y-123135000D01*
X213656796Y-127261928D01*
X212867060Y-127261928D01*
X211841996Y-126236865D01*
X211806449Y-126193551D01*
X211633623Y-126051716D01*
X211436447Y-125946324D01*
X211222499Y-125881423D01*
X211055752Y-125865000D01*
X211055751Y-125865000D01*
X211000000Y-125859509D01*
X210944249Y-125865000D01*
X207622621Y-125865000D01*
X207589502Y-125755820D01*
X207530537Y-125645506D01*
X207451185Y-125548815D01*
X207354494Y-125469463D01*
X207244180Y-125410498D01*
X207124482Y-125374188D01*
X207000000Y-125361928D01*
X205000000Y-125361928D01*
X204875518Y-125374188D01*
X204755820Y-125410498D01*
X204645506Y-125469463D01*
X204548815Y-125548815D01*
X204469463Y-125645506D01*
X204410498Y-125755820D01*
X204377379Y-125865000D01*
X199884284Y-125865000D01*
X199679727Y-125728320D01*
X199418574Y-125620147D01*
X199141335Y-125565000D01*
X198858665Y-125565000D01*
X198581426Y-125620147D01*
X198320273Y-125728320D01*
X198085241Y-125885363D01*
X197885363Y-126085241D01*
X197728320Y-126320273D01*
X197620147Y-126581426D01*
X197581392Y-126776260D01*
X193940131Y-123135000D01*
X198115716Y-123135000D01*
X198320273Y-123271680D01*
G36*
X146250013Y-122042252D02*
G01*
X146385000Y-122177239D01*
X146385001Y-125409866D01*
X146115000Y-125679867D01*
X146115000Y-122177239D01*
X146249987Y-122042252D01*
X146250000Y-122042233D01*
X146250013Y-122042252D01*
G37*
X146250013Y-122042252D02*
X146385000Y-122177239D01*
X146385001Y-125409866D01*
X146115000Y-125679867D01*
X146115000Y-122177239D01*
X146249987Y-122042252D01*
X146250000Y-122042233D01*
X146250013Y-122042252D01*
G36*
X161490013Y-122042252D02*
G01*
X161625000Y-122177239D01*
X161625000Y-122519869D01*
X161355000Y-122249869D01*
X161355000Y-122177239D01*
X161489987Y-122042252D01*
X161490000Y-122042233D01*
X161490013Y-122042252D01*
G37*
X161490013Y-122042252D02*
X161625000Y-122177239D01*
X161625000Y-122519869D01*
X161355000Y-122249869D01*
X161355000Y-122177239D01*
X161489987Y-122042252D01*
X161490000Y-122042233D01*
X161490013Y-122042252D01*
G36*
X158950013Y-122042252D02*
G01*
X159085000Y-122177239D01*
X159085000Y-122479869D01*
X158815000Y-122209869D01*
X158815000Y-122177239D01*
X158949987Y-122042252D01*
X158950000Y-122042233D01*
X158950013Y-122042252D01*
G37*
X158950013Y-122042252D02*
X159085000Y-122177239D01*
X159085000Y-122479869D01*
X158815000Y-122209869D01*
X158815000Y-122177239D01*
X158949987Y-122042252D01*
X158950000Y-122042233D01*
X158950013Y-122042252D01*
G36*
X169231314Y-119836447D02*
G01*
X169110013Y-119957748D01*
X169110000Y-119957767D01*
X169109987Y-119957748D01*
X168882252Y-119730013D01*
X168614463Y-119551082D01*
X168316912Y-119427832D01*
X168001033Y-119365000D01*
X167678967Y-119365000D01*
X167363088Y-119427832D01*
X167065537Y-119551082D01*
X166797748Y-119730013D01*
X166570013Y-119957748D01*
X166570000Y-119957767D01*
X166569987Y-119957748D01*
X166342252Y-119730013D01*
X166074463Y-119551082D01*
X165776912Y-119427832D01*
X165461033Y-119365000D01*
X165138967Y-119365000D01*
X164823088Y-119427832D01*
X164525537Y-119551082D01*
X164257748Y-119730013D01*
X164030013Y-119957748D01*
X164030000Y-119957767D01*
X164029987Y-119957748D01*
X163802252Y-119730013D01*
X163534463Y-119551082D01*
X163236912Y-119427832D01*
X162921033Y-119365000D01*
X162598967Y-119365000D01*
X162283088Y-119427832D01*
X161985537Y-119551082D01*
X161717748Y-119730013D01*
X161490013Y-119957748D01*
X161490000Y-119957767D01*
X161489987Y-119957748D01*
X161262252Y-119730013D01*
X160994463Y-119551082D01*
X160696912Y-119427832D01*
X160381033Y-119365000D01*
X160058967Y-119365000D01*
X159743088Y-119427832D01*
X159445537Y-119551082D01*
X159177748Y-119730013D01*
X158950013Y-119957748D01*
X158950000Y-119957767D01*
X158949987Y-119957748D01*
X158722252Y-119730013D01*
X158454463Y-119551082D01*
X158156912Y-119427832D01*
X157841033Y-119365000D01*
X157518967Y-119365000D01*
X157203088Y-119427832D01*
X156905537Y-119551082D01*
X156637748Y-119730013D01*
X156410013Y-119957748D01*
X156410000Y-119957767D01*
X156409987Y-119957748D01*
X156182252Y-119730013D01*
X155914463Y-119551082D01*
X155616912Y-119427832D01*
X155301033Y-119365000D01*
X154978967Y-119365000D01*
X154663088Y-119427832D01*
X154365537Y-119551082D01*
X154097748Y-119730013D01*
X153870013Y-119957748D01*
X153870000Y-119957767D01*
X153869987Y-119957748D01*
X153642252Y-119730013D01*
X153374463Y-119551082D01*
X153076912Y-119427832D01*
X152761033Y-119365000D01*
X152438967Y-119365000D01*
X152123088Y-119427832D01*
X151825537Y-119551082D01*
X151557748Y-119730013D01*
X151330013Y-119957748D01*
X151330000Y-119957767D01*
X151329987Y-119957748D01*
X151102252Y-119730013D01*
X150834463Y-119551082D01*
X150536912Y-119427832D01*
X150221033Y-119365000D01*
X149898967Y-119365000D01*
X149583088Y-119427832D01*
X149285537Y-119551082D01*
X149017748Y-119730013D01*
X148790013Y-119957748D01*
X148790000Y-119957767D01*
X148789987Y-119957748D01*
X148562252Y-119730013D01*
X148294463Y-119551082D01*
X147996912Y-119427832D01*
X147681033Y-119365000D01*
X147358967Y-119365000D01*
X147043088Y-119427832D01*
X146745537Y-119551082D01*
X146477748Y-119730013D01*
X146250013Y-119957748D01*
X146250000Y-119957767D01*
X146249987Y-119957748D01*
X146022252Y-119730013D01*
X145754463Y-119551082D01*
X145612749Y-119492382D01*
X145970132Y-119135000D01*
X168529868Y-119135000D01*
X169231314Y-119836447D01*
G37*
X169231314Y-119836447D02*
X169110013Y-119957748D01*
X169110000Y-119957767D01*
X169109987Y-119957748D01*
X168882252Y-119730013D01*
X168614463Y-119551082D01*
X168316912Y-119427832D01*
X168001033Y-119365000D01*
X167678967Y-119365000D01*
X167363088Y-119427832D01*
X167065537Y-119551082D01*
X166797748Y-119730013D01*
X166570013Y-119957748D01*
X166570000Y-119957767D01*
X166569987Y-119957748D01*
X166342252Y-119730013D01*
X166074463Y-119551082D01*
X165776912Y-119427832D01*
X165461033Y-119365000D01*
X165138967Y-119365000D01*
X164823088Y-119427832D01*
X164525537Y-119551082D01*
X164257748Y-119730013D01*
X164030013Y-119957748D01*
X164030000Y-119957767D01*
X164029987Y-119957748D01*
X163802252Y-119730013D01*
X163534463Y-119551082D01*
X163236912Y-119427832D01*
X162921033Y-119365000D01*
X162598967Y-119365000D01*
X162283088Y-119427832D01*
X161985537Y-119551082D01*
X161717748Y-119730013D01*
X161490013Y-119957748D01*
X161490000Y-119957767D01*
X161489987Y-119957748D01*
X161262252Y-119730013D01*
X160994463Y-119551082D01*
X160696912Y-119427832D01*
X160381033Y-119365000D01*
X160058967Y-119365000D01*
X159743088Y-119427832D01*
X159445537Y-119551082D01*
X159177748Y-119730013D01*
X158950013Y-119957748D01*
X158950000Y-119957767D01*
X158949987Y-119957748D01*
X158722252Y-119730013D01*
X158454463Y-119551082D01*
X158156912Y-119427832D01*
X157841033Y-119365000D01*
X157518967Y-119365000D01*
X157203088Y-119427832D01*
X156905537Y-119551082D01*
X156637748Y-119730013D01*
X156410013Y-119957748D01*
X156410000Y-119957767D01*
X156409987Y-119957748D01*
X156182252Y-119730013D01*
X155914463Y-119551082D01*
X155616912Y-119427832D01*
X155301033Y-119365000D01*
X154978967Y-119365000D01*
X154663088Y-119427832D01*
X154365537Y-119551082D01*
X154097748Y-119730013D01*
X153870013Y-119957748D01*
X153870000Y-119957767D01*
X153869987Y-119957748D01*
X153642252Y-119730013D01*
X153374463Y-119551082D01*
X153076912Y-119427832D01*
X152761033Y-119365000D01*
X152438967Y-119365000D01*
X152123088Y-119427832D01*
X151825537Y-119551082D01*
X151557748Y-119730013D01*
X151330013Y-119957748D01*
X151330000Y-119957767D01*
X151329987Y-119957748D01*
X151102252Y-119730013D01*
X150834463Y-119551082D01*
X150536912Y-119427832D01*
X150221033Y-119365000D01*
X149898967Y-119365000D01*
X149583088Y-119427832D01*
X149285537Y-119551082D01*
X149017748Y-119730013D01*
X148790013Y-119957748D01*
X148790000Y-119957767D01*
X148789987Y-119957748D01*
X148562252Y-119730013D01*
X148294463Y-119551082D01*
X147996912Y-119427832D01*
X147681033Y-119365000D01*
X147358967Y-119365000D01*
X147043088Y-119427832D01*
X146745537Y-119551082D01*
X146477748Y-119730013D01*
X146250013Y-119957748D01*
X146250000Y-119957767D01*
X146249987Y-119957748D01*
X146022252Y-119730013D01*
X145754463Y-119551082D01*
X145612749Y-119492382D01*
X145970132Y-119135000D01*
X168529868Y-119135000D01*
X169231314Y-119836447D01*
M02*
