M48
; DRILL file {KiCad (5.1.5-0-10_14)} date 2020 August 14, Friday 20:27:22
; FORMAT={-:-/ absolute / metric / decimal}
; #@! TF.CreationDate,2020-08-14T20:27:22-03:00
; #@! TF.GenerationSoftware,Kicad,Pcbnew,(5.1.5-0-10_14)
; #@! TF.FileFunction,Plated,1,2,PTH
FMAT,2
METRIC
T1C0.800
T2C0.900
T3C1.000
T4C1.100
T5C1.300
T6C1.520
T7C4.300
%
G90
G05
T1
X199.0Y-122.0
X199.0Y-127.0
X212.4Y-142.52
X212.4Y-145.06
X212.4Y-147.6
X154.5Y-153.75
X154.5Y-161.37
X151.0Y-153.75
X151.0Y-161.37
X158.2Y-153.8
X158.2Y-161.42
X200.48Y-143.1
X208.1Y-143.1
X200.5Y-139.4
X208.12Y-139.4
X184.0Y-122.0
X184.0Y-127.0
X187.38Y-132.0
X195.0Y-132.0
X200.5Y-146.5
X208.12Y-146.5
T2
X200.0Y-131.96
X200.0Y-134.5
X212.4Y-137.46
X212.4Y-140.0
T3
X142.44Y-121.0
X142.44Y-136.24
X144.98Y-121.0
X144.98Y-136.24
X147.52Y-121.0
X147.52Y-136.24
X150.06Y-121.0
X150.06Y-136.24
X152.6Y-121.0
X152.6Y-136.24
X155.14Y-121.0
X155.14Y-136.24
X157.68Y-121.0
X157.68Y-136.24
X160.22Y-121.0
X160.22Y-136.24
X162.76Y-121.0
X162.76Y-136.24
X165.3Y-121.0
X165.3Y-136.24
X167.84Y-121.0
X167.84Y-136.24
X170.38Y-121.0
X170.38Y-136.24
X172.92Y-121.0
X172.92Y-136.24
X175.46Y-121.0
X175.46Y-136.24
X178.0Y-121.0
X178.0Y-136.24
X181.38Y-174.0
X183.92Y-174.0
X186.46Y-174.0
X189.0Y-174.0
X141.0Y-162.0
X141.0Y-164.54
X141.0Y-167.08
X141.0Y-140.92
X141.0Y-143.46
X141.0Y-146.0
X178.3Y-150.22
X178.3Y-152.76
X178.3Y-155.3
X178.3Y-157.84
X178.3Y-160.38
X178.3Y-162.92
X178.3Y-165.46
X178.3Y-168.0
X191.0Y-150.22
X191.0Y-152.76
X191.0Y-155.3
X191.0Y-157.84
X191.0Y-160.38
X191.0Y-162.92
X191.0Y-165.46
X191.0Y-168.0
X162.0Y-173.5
X164.54Y-173.5
X167.08Y-173.5
X169.62Y-173.5
X191.5Y-122.0
X191.5Y-127.0
X141.0Y-150.38
X141.0Y-152.92
X141.0Y-155.46
X141.0Y-158.0
X152.0Y-173.5
X154.54Y-173.5
X157.08Y-173.5
X206.0Y-122.0
X206.0Y-127.0
T4
X213.0Y-118.84
X213.0Y-129.0
X206.42Y-132.5
X208.96Y-132.5
X211.5Y-132.5
T5
X200.5Y-152.5
X200.5Y-164.7
X206.5Y-150.5
X212.5Y-152.5
X212.5Y-164.7
T6
X219.0Y-135.42
X219.0Y-140.5
X219.0Y-160.92
X219.0Y-166.0
X219.0Y-122.92
X219.0Y-128.0
X204.25Y-172.75
X209.33Y-172.75
X219.0Y-148.42
X219.0Y-153.5
T7
X221.0Y-114.0
X141.0Y-174.0
X221.0Y-174.0
X141.0Y-114.0
T0
M30
